/* XPM */
static char *_[] = {
/* columns rows colors chars-per-pixel */
"65 65 94 2 ",
"   c None",
".  c gray1",
"X  c #080000",
"o  c gray5",
"O  c #100000",
"+  c #140D0D",
"@  c gray12",
"#  c #280000",
"$  c #300000",
"%  c #282008",
"&  c #303000",
"*  c #382810",
"=  c #202020",
"-  c #282828",
";  c gray19",
":  c gray22",
">  c #400000",
",  c #500000",
"<  c #421D1D",
"1  c #5A1C1C",
"2  c #600000",
"3  c #680000",
"4  c #403018",
"5  c #483818",
"6  c #503818",
"7  c #5E2525",
"8  c #573E3E",
"9  c #743E3E",
"0  c #404000",
"q  c #585800",
"w  c #584020",
"e  c #5E4A2F",
"r  c #684820",
"t  c #6C4F2C",
"y  c #704828",
"u  c #004040",
"i  c #005858",
"p  c #006868",
"a  c #007070",
"s  c #2F6767",
"d  c #434343",
"f  c #484040",
"g  c #484848",
"h  c #514A4A",
"j  c #505050",
"k  c #535353",
"l  c #585858",
"z  c #744040",
"x  c #764949",
"c  c #685C4C",
"v  c #745841",
"b  c #635F5F",
"n  c #795E5E",
"m  c #6B6052",
"M  c #496F6F",
"N  c #507A7A",
"B  c #606060",
"V  c #686868",
"C  c #726B61",
"Z  c #7A7268",
"A  c #697474",
"S  c #63747D",
"D  c gray44",
"F  c #805028",
"G  c #885830",
"H  c #905830",
"J  c #986038",
"K  c #A06038",
"L  c #E06800",
"P  c #9F6C4E",
"I  c #846C59",
"U  c #A76841",
"Y  c #A86840",
"T  c #B07040",
"R  c #B87848",
"E  c #837367",
"W  c #8E7260",
"Q  c #82756B",
"!  c #88786D",
"~  c #917A69",
"^  c #C87848",
"/  c #D08050",
"(  c #D88850",
")  c #E88858",
"_  c #F09058",
"`  c #F89860",
"'  c #F8A070",
"]  c #008080",
"[  c #009898",
"{  c #4F8080",
"}  c #598080",
"|  c #989898",
" . c #F8B080",
".. c #F8B890",
/* pixels */
"                                                                                                                                  ",
"                                                                                                                                  ",
"                                                                                                                                  ",
"                                                                                                                                  ",
"                                                                                                                                  ",
"                                                                                                                                  ",
"                                                                                                                                  ",
"                                                                                                                                  ",
"                                                                                                                                  ",
"                                                                                                                                  ",
"                                                                                                                                  ",
"                                                      V l g g d l D                                                               ",
"                                                  B k k g g g : : : g                                                             ",
"                                                  : : : - - - : : g : D                                                           ",
"                                                B Y ` G 5 = = - - : y k                                                           ",
"                                                l / ` ` ` ` ` ( G = Y d                                                           ",
"                                                l /  .' ` ` ` `  ._ K :                                                           ",
"                                                k ^ G K ) ' _  .K G K d                                                           ",
"                                                I R D . - J F - = D J I                                                           ",
"                                                ~ `  ... .' (  ... ./ ~                                                           ",
"                                                Q ` ` ` `  .( ` ` ` / Q                                                           ",
"                                                  / R _ R F F R _ R G                                                             ",
"                                                  / T _ R J J R _ T F                                                             ",
"                                                  / ^ _ Y G G Y _ ^ F                                                             ",
"                                                . J ^ ' ` ' ' ` ` ^ r .                                                           ",
"                                              J . F ^ ( ( R T ( ( Y 5 . e                                                         ",
"                                      ! d = = K . . J F F r r r r r . . w w 6 y y v Z                                             ",
"                                  E U Y - - - K . . . 6 ) Y H 6 5 . . . w w w y G G G t                                           ",
"                                P Y G K 5 - - y K . | . . . . . . D . w w D w y G G y w w C                                       ",
"                              U T J G K r = = | K r . | . . . . D . w w w w y G G y w w r w m                                     ",
"                          W Y | Y H G K K 5 = = 4 K y . . y 4 . . w w y G G G G G y w J r r w c                                   ",
"                        W K T Y H G G | K r = = = 4 J H K K 6 r G G G T T Y K J G w y | y G 2 , 8                                 ",
"                      9 , , # G G G D r K K K = = = 4 K J K r 6 J J J T y y y y 5 6 y D J 3 > > > f                               ",
"                    z , , , , # G w r 5 r J J J = = = 4 y J G 6 | J J r 6 D 5 5 5 5 y H 3 g ] a g - h                             ",
"                  x g g g : : # O 5 4 4 5 r G G | D = = 4 y y 6 y y y K y H w y 4 5 5 3 k ] . = i : - b                           ",
"                n ] a : : : : ] a 5 4 5 5 r r r D r = = = = 6 6 y y y K y H w y 4 4 4 k g a = : i : g -                           ",
"                ] . = i : : ] . = i 4 4 r w r w w w w = = = B * * 5 5 w 5 5 D 4 * = g k g g i i - : g g l                         ",
"              V a = = i - : a = = i S S D r w w w w w w = = = = = | 4 w 6 6 * % % . ] a g g . . : g ] a d                         ",
"              l : i i = . . : i i = S S S F 5 5 * * * * * * % % = = | = g * % % % ] . = i . . . = ] . = s                         ",
"              l : : - . . . . : - - S S S - - = = = B = . . L q 0 & . D k . . . . a = : i : = = g a = : M                         ",
"              V : ] a : . . : ] a : S S S - - g = = = = . . 0 0 & & . D k . . . . S i i - : ] a g g i i V                         ",
"              D ] . = i : : ] . = i S S S - - = = = = = . . . . . . . . . . . . . S S : : ] . = i : g -                           ",
"                a = = i - : a = = i S S S r w 6 4 4 4 4 4 | % % | w F F | | D w 4 S S # g a = : i : - +                           ",
"                < i i = - : : i i S S S F F r w | 5 5 5 5 5 % r H J J J J J J F r 6 S , $ : i i = - X l                           ",
"                  X - - : : : X X S S S F F r w 6 5 5 5 5 5 r H r | r F F F r r 6 6 S S S G w 6 6 4 S                             ",
"                    ] ] ] ] ] ] ] ] ] ] ] ] i w 6 5 5 5 5 4 r * 5 F H H | H H F ] ] ] ] ] ] ] ] ] i N                             ",
"                    ] i i i i i i i i i i i i u w 6 5 5 5 4 4 * r F H J J J H p ] p i i i i i i i i A                             ",
"                    ] i i i i i i i i i i i i i i u % % % % * w r F H J J J ] ] p i i i i i i i i i                               ",
"                    a i u u u u u u u u u u u u u u u u u i * w r a p i i u u u u u u u u u u u u u                               ",
"                    i u u u u u u u u u u u u u u u u u u u - w r i u u u u u u u u u u u u u u u u                               ",
"        D =   : o . i : : : : : : : : : - ; : : : : - : : : = - - u - ; : : : : : : - : : : : : : -           B g - @ k           ",
"        7 $ . g ] a : : . u = - - - - - = = - - - - - - - - = - - : = = = - - - - - = = = = - - - =     D @ . : g - $ X           ",
"        , k g ] . = i - : S = = - = = = @ @ @ @ = = = = = = . = = - = = = = = = = @ = = = = = = = :   D $ : g g g ] a X           ",
"        k : : a = i u - : : a = - = = = = @ @ @ = = @ @ = = . - * = = = = = = = = = = = = = - - -     1 a g g g ] . = i           ",
"      D : : : : i u - : ] p [ = - - - - - - = = - - - = - - * * 5 - - - - - - - - - - - - - - - -     ] = i : g a = : i D         ",
"      V ] a : . . . . ] . = i S S S S S S S . % % % % % % % % . w - - - - - - - - = = = - - - - -   } . : i : . g i i - D         ",
"      { . = i - . . : a = = i ] i : - - - - : : - - - - : : - = : a - - - - - - - - - - - - - - -   k i i - . . = g : : V         ",
"      N = = i - ] a : : i i a a i u u u u u u u u u u u u u - = g [ u u u u u u u u u u u u u u i   g ] a g = = g ] a g B         ",
"      V i i = ] . = i - - a i u u u u u u u u u u u u u u u - = k ] i i i i i i i i i i i i i i u   ] . = i : g ] . = i l         ",
"        X : : a = u u - . i u u : : : : : : : : - - : : : : - = : a u u u u u u u u u u u u u u -   a = : u : g u = : i           ",
"        X X : : i u = X . u u - - - - - - - - - - - - - - - - = i i u u u u u u u u u u u u u u - u u u - = = - - u u . S         ",
"        - O O X X X . . . ] ] = = = = = = = = = = = = = = = = = i u - - - - - - - - - - - - - - - u u X X . X X X . . . B         ",
"          k d : : : : : - - - - - - - - - - - - - - - - - - - - i u u u u u u u u u u u u u u u u u u - = = : : : : : g k V       ",
"              V l g d : : : : : : : : : : : : : : : : : : : : : i i i i i i u u u u u u a i i i i i u d : : : d d g g k V         ",
"                                            S S S S k k k g g . a u u u u u . . . - - - a u u u u u - B B B S                     "
};
