/* XPM */
static char *out[] = {
/* columns rows colors chars-per-pixel */
"50 61 175 2 ",
"   c None",
".  c #000001",
"X  c #0B0305",
"o  c #06060A",
"O  c #0B070A",
"+  c #07090C",
"@  c #0A090C",
"#  c #110C0E",
"$  c #180D0D",
"%  c #12100E",
"&  c #020311",
"*  c #0C0C14",
"=  c #0E0C19",
"-  c #1B0C13",
";  c #0F1018",
":  c #0F1315",
">  c #121214",
",  c #191416",
"<  c #13141B",
"1  c #18171A",
"2  c #17181A",
"3  c #1A1B1C",
"4  c #21010D",
"5  c #21171C",
"6  c #20191F",
"7  c #1B1C22",
"8  c #1C1E2C",
"9  c #291E23",
"0  c #241C21",
"q  c #331922",
"w  c #212323",
"e  c #2B2425",
"r  c #272A23",
"t  c #26262B",
"y  c #2B2128",
"u  c #2B2A2B",
"i  c #3E2228",
"p  c #332B2D",
"a  c #382B2D",
"s  c #34252C",
"d  c #242B33",
"f  c #2B2D33",
"g  c #222A38",
"h  c #292D38",
"j  c #362C31",
"k  c #3A2C31",
"l  c #2C303C",
"z  c #333334",
"x  c #3D3133",
"c  c #34333B",
"v  c #33393F",
"b  c #3B3A3B",
"n  c #422A34",
"m  c #403236",
"M  c #42353B",
"N  c #42383A",
"B  c #5C3739",
"V  c #2A3543",
"C  c #3C3C42",
"Z  c #353E4B",
"A  c #4C3C44",
"S  c #613E41",
"D  c #35424F",
"F  c #3B424C",
"G  c #364255",
"H  c #37425A",
"J  c #3C4555",
"K  c #424342",
"L  c #46494A",
"P  c #4E4E4D",
"I  c #4A4446",
"U  c #56444E",
"Y  c #5F474C",
"T  c #4E4E54",
"R  c #5D4C52",
"E  c #505152",
"W  c #57575A",
"Q  c #5E5D5E",
"!  c #5C5754",
"~  c #63444C",
"^  c #6C4B4E",
"/  c #69434A",
"(  c #634D53",
")  c #754B51",
"_  c #794E56",
"`  c #635354",
"'  c #6A5357",
"]  c #685F5F",
"[  c #6E565C",
"{  c #795A57",
"}  c #7B5158",
"|  c #7C5D5B",
" . c #765A5A",
".. c #60605E",
"X. c #5E5E61",
"o. c #615F64",
"O. c #785F64",
"+. c #676967",
"@. c #6B6B66",
"#. c #6A6A6A",
"$. c #776561",
"%. c #7B6663",
"&. c #7F6668",
"*. c #7F6D69",
"=. c #72706B",
"-. c #7D726B",
";. c #6E7070",
":. c #747575",
">. c #787773",
",. c #7C7C7A",
"<. c #875E61",
"1. c #846363",
"2. c #896565",
"3. c #866867",
"4. c #896967",
"5. c #81666C",
"6. c #896669",
"7. c #846A6B",
"8. c #8A6969",
"9. c #856970",
"0. c #8B6B72",
"q. c #867474",
"w. c #8B7576",
"e. c #8A7975",
"r. c #8B7878",
"t. c #907276",
"y. c #917579",
"u. c #94797B",
"i. c #7F817D",
"p. c #8F8079",
"a. c #81837C",
"s. c #878886",
"d. c #8C8C89",
"f. c #948A83",
"g. c #908C8B",
"h. c #958282",
"j. c #92948D",
"k. c #9C9288",
"l. c #9B9C97",
"z. c #A3968E",
"x. c #A59A92",
"c. c #A99F9C",
"v. c #ACA39A",
"b. c #A1A19A",
"n. c #AEA6A3",
"m. c #AAAFA4",
"M. c #B3ACA2",
"N. c #B9B2A7",
"B. c #B5B4AE",
"V. c #B8B7AE",
"C. c #B3B6B6",
"Z. c #BBBFB4",
"A. c #C1BCB3",
"S. c #C2BAB8",
"D. c #C7C4BF",
"F. c #CDCEC9",
"G. c #CDC6C2",
"H. c #D3CFC4",
"J. c #DDDCD3",
"K. c #EAEDE6",
"L. c #EAEEEA",
"P. c #E5E9E5",
"I. c #F3EEE7",
"U. c #F4EFE9",
"Y. c #EEF1EC",
"T. c #F1F1E6",
"R. c #F4F2EB",
"E. c #F9F5EE",
"W. c #F6FAEC",
"Q. c #FBFCEE",
"!. c #EAEEF1",
"~. c #F5F4F0",
"^. c #FBF6F0",
"/. c #FCFDF2",
"(. c #FFFFFA",
/* pixels */
"                                                    f f d f f f f f h d t w 7                       ",
"                                              . . . < . . . . . . . . . . . . t                     ",
"                                              . . . < * + + @ @ + + o @ o . . V                     ",
"                                              . . . > . . . . . . . . . . . . h                     ",
"                                              . . . 7 J H G G D D Z V D l . . o                     ",
"                                              . . . C !.!.!.L.K.Y.K.P.Y.C.. 2 . <                   ",
"                                              . . . W (.(.(./././.Q.Q./.Z.. 3 . .                   ",
"                                              . . . #././././.Q.W.W.W.Q.m.. 3 o . t                 ",
"                                              . . . ,././././././.W././.l.. % . . .                 ",
"                                              . . . s.(.(.(././././././.a.. r w K b 5               ",
"                                              . . . d.(./.(././././././.Y.K.K.K.E.S.i x . @ @ . ;   ",
"                                              . . . L :.;.+.i.W./.W././.(.(././.(.A.B R . . . . 7   ",
"                                              . . . < . . . f E.Q.Q./.Q.W.Q./.W.(.N.B ` . . . . 7   ",
"                                                  d g d F f + F./.Q.Q./././.Q.Q.Q.v.S ' . . . . <   ",
"                                                          >.o :.(.E./.Q././.Q.Q.Q.k.^ [ . . . . <   ",
"                                                            o u L.Q.E././.E.Q./.E.f.{ O.X . . . <   ",
"                                                            j.g.` @.b.Q.Q./././.E.r.$.%.X . . . <   ",
"                                                                ` . b /.Q.Q.W./.R.e.| 5.- . . . <   ",
"                                                                ... I /./.Q.W./.R.7.{ 5., . . . >   ",
"                                                                  . P /.Q.Q.W./.R.$.{ 3.5 . . . ;   ",
"                                                                  . .././.Q./.^.R.$.| 7.9 . . . <   ",
"                                                                  . @./.Q.Q././.R.$.| 8.e . . .     ",
"                                                                  . ! Q.Q./././.R.*.| w.e . . .     ",
"                                                                  . b Q.Q.Q.^./.R.q.1.r.p . . .     ",
"                                                                  . z Q./.Q.Q./.R.w.1.y.p . . . T   ",
"                                                                  X f Q.Q.Q.Q./.R.e.3.u.p . o . X.  ",
"                                                                  . u Q./.Q.Q./.U.r.3.u.p . X . X.  ",
"                                                                  o 2 Q.Q.Q.Q./.U.e.3.u.a . o . o.  ",
"                                                                  X . Q.Q.Q.Q./.U.r.3.u.a . X . o.  ",
"                                                                  . o Q.Q.Q.Q./.U.r.6.u.x . . . X.  ",
"                                                                  X X /.Q.Q.Q./.I.e.8.u.x . X . W   ",
"                                                                  . o /.Q.Q.Q./.I.w.3.u.x . . . T   ",
"                                                                  . 2 /./.Q.Q./.I.w.8.y.k . . . 7   ",
"                                                                  X b /.Q.Q.Q.Q.I.w.6.y.k . . . =   ",
"                                                                  O P /.Q.Q.Q./.I.q.6.t.k . . . >   ",
"                                                              h.Y . Q Q.Q.Q.Q./.I.w.2.w.k . . . =   ",
"                                                            k $ . . =.Q.Q.Q.Q.^.I.q.6.w.p . . . =   ",
"                                                            y . . . j./.Q.Q.Q.Q.I.w.6.0.s . . . *   ",
"                                                          O . . . t J.Q.Q.Q.Q./.I.0.6.t.p . . . *   ",
"                                                  a a j k O . , d.B.E.Q.Q.Q.Q./.T.q.8.y.k . . . =   ",
"                                              . . . < . . . . ,.(.Q./.Q.Q.Q.Q./.U.r.8.y.n . . . =   ",
"                                              . . . < . . . . j.(.Q./.Q.Q.Q.Q./.U.r.0.u.m . . . *   ",
"                                              . . . < o @ 3 u V./.^.Q.Q.Q.Q././.R.r.8.u.N . . . 7   ",
"                                              . . . 2 /./././.Q.Q.Q.Q.Q.Q.Q.^./.U.r.4.u.N . . . c   ",
"                                              . . . z W.Q.Q.Q.Q.Q.Q.Q.Q.Q.Q.Q./.I.q.3.y.N . . . c   ",
"                                              . . . z Q.Q.Q.Q.Q.Q.Q.W././.E.Q.^.I.q.2.t.N . . . c   ",
"                                              . . . C Q.Q.Q.Q.Q.Q.W.Q.T.~.(./.(.Q.7.<.8.M . . . f   ",
"                                              . . . C /././.Q.W.Q.Q./.B.-.c.n.D.G.' ~ ' p . . . t   ",
"                                              . . . E Q././.Q.Q.W.W./.B.. q 4 - . X . . . . . . w   ",
"                                              . . . W Q.Q.Q.Q.W.W.W./.Z.. I M a # . . . . . . .     ",
"                                              . . . #.Q.Q.Q.W.Q.Q.Q.(.H.. M k 9 . . . . . . . .     ",
"                                              . . . I z.x.x.x.v.v.v.M.f.. 0 0 # . . . . . . . o     ",
"                                              . . . n } _ _ ) ) ^ / S n . . . . . . . . X # <       ",
"                                              . . . A 0.0.0.0.9.9.9.9.( . . . . . . . # < t K       ",
"                                              . . . j ( ( ( R ( R U U M . . . . . % p z u z         ",
"                                              . . . . . . . . . . . . . . . . . . b                 ",
"                                              . . . O . . . . . . . . . . . . . ,                   ",
"                                              . . . . . . . . . . . . . . . . . %                   ",
"                                              . . . * . . . . . . . . . . . . . 2                   ",
"                                              . . . * . . . . . . . . . . . . . 7                   ",
"                                                    o . . . o . . o o + + @ , 3                     "
};
