/* XPM */
static char *out[] = {
/* columns rows colors chars-per-pixel */
"50 69 219 2 ",
"   c None",
".  c #010101",
"X  c #090505",
"o  c #090905",
"O  c #040409",
"+  c #0A0509",
"@  c #0B0B0C",
"#  c #120E0E",
"$  c #1A0003",
"%  c #11110F",
"&  c #0D0D11",
"*  c #0A0916",
"=  c #110C12",
"-  c #0E1214",
";  c #0F1318",
":  c #141314",
">  c #1B1516",
",  c #181817",
"<  c #14141A",
"1  c #19151B",
"2  c #1B1B1C",
"3  c #16191B",
"4  c #0F100F",
"5  c #2B0504",
"6  c #390F14",
"7  c #1C201C",
"8  c #20201F",
"9  c #1D1E22",
"0  c #221B22",
"q  c #152224",
"w  c #1B2123",
"e  c #222324",
"r  c #2C2425",
"t  c #262629",
"y  c #2D242A",
"u  c #2A2B2C",
"i  c #252929",
"p  c #342A2E",
"a  c #382B26",
"s  c #2E2E32",
"d  c #242A34",
"f  c #322D31",
"g  c #3B2D34",
"h  c #352C3C",
"j  c #343334",
"k  c #3B353A",
"l  c #3B3A3B",
"z  c #3A3436",
"x  c #343225",
"c  c #5B2D36",
"v  c #433C3B",
"b  c #473434",
"n  c #583638",
"m  c #4E2232",
"M  c #633A3C",
"N  c #43433C",
"B  c #5A473F",
"V  c #6E483D",
"C  c #2B3145",
"Z  c #2E314C",
"A  c #3B3D42",
"S  c #33354B",
"D  c #2D2F43",
"F  c #413C43",
"G  c #473A4A",
"H  c #583A45",
"J  c #5A3A54",
"K  c #643B45",
"L  c #683E44",
"P  c #6A3E4B",
"I  c #603742",
"U  c #424244",
"Y  c #4C4445",
"T  c #4D4C4B",
"R  c #4C464A",
"E  c #5D434E",
"W  c #534C4C",
"Q  c #5D4A4B",
"!  c #574544",
"~  c #424854",
"^  c #5A4C52",
"/  c #5A4856",
"(  c #4E525C",
")  c #525253",
"_  c #595453",
"`  c #5D545C",
"'  c #5E5A5A",
"]  c #5D5A56",
"[  c #55534E",
"{  c #664D46",
"}  c #67434B",
"|  c #724945",
" . c #695149",
".. c #725247",
"X. c #644451",
"o. c #6C4451",
"O. c #634D56",
"+. c #644E58",
"@. c #754D55",
"#. c #65525B",
"$. c #6B535B",
"%. c #605C5B",
"&. c #685756",
"*. c #715B5B",
"=. c #755955",
"-. c #63625E",
";. c #79645E",
":. c #565461",
">. c #6B5865",
",. c #695966",
"<. c #7B5B65",
"1. c #5F6162",
"2. c #6C6D6C",
"3. c #686566",
"4. c #736463",
"5. c #7B636D",
"6. c #786767",
"7. c #7A726E",
"8. c #7E6671",
"9. c #727272",
"0. c #7E727C",
"q. c #797975",
"w. c #6F6F70",
"e. c #85545C",
"r. c #87595F",
"t. c #875D64",
"y. c #83636D",
"u. c #8E636C",
"i. c #846B60",
"p. c #89756C",
"a. c #826670",
"s. c #896B75",
"d. c #936974",
"f. c #827673",
"g. c #8A7571",
"h. c #8F7A76",
"j. c #8B7A7A",
"k. c #827B7B",
"l. c #987E72",
"z. c #92786E",
"x. c #7E807F",
"c. c #8C837C",
"v. c #91887E",
"b. c #867E83",
"n. c #867682",
"m. c #8E8584",
"M. c #898887",
"N. c #908582",
"B. c #948B89",
"V. c #9B8C8A",
"C. c #93858E",
"Z. c #98948E",
"A. c #9D9A94",
"S. c #979795",
"D. c #8F8E90",
"F. c #A1958A",
"G. c #A19F9B",
"H. c #A59691",
"J. c #9FA19A",
"K. c #A2A29A",
"L. c #AAA09B",
"P. c #B1A39A",
"I. c #AEAEA9",
"U. c #A6A6A7",
"Y. c #B5ACA2",
"T. c #B9ACA2",
"R. c #B6ABA6",
"E. c #B4B0AC",
"W. c #BFB5AE",
"Q. c #BCBBBB",
"!. c #B7B7B4",
"~. c #ADB0B3",
"^. c #C2BAB1",
"/. c #BEC0B1",
"(. c #C3C3BB",
"). c #C7C5B7",
"_. c #BEBCC1",
"`. c #C4BEC1",
"'. c #C4C5C2",
"]. c #CACBC4",
"[. c #CDCCCA",
"{. c #C9C6C4",
"}. c #D2CAC2",
"|. c #D3C9CA",
" X c #D3D2CA",
".X c #D5D5D2",
"XX c #DDDCD4",
"oX c #DBDEDA",
"OX c #DBD4D6",
"+X c #CED0C4",
"@X c #E4DBCE",
"#X c #E4DED4",
"$X c #E7DED6",
"%X c #DAE1D7",
"&X c #DDE1DA",
"*X c #E5E4DC",
"=X c #E9E5DB",
"-X c #EDEBDD",
";X c #E7E6D5",
":X c #E2E2CF",
">X c #DFE2E0",
",X c #E4E5E3",
"<X c #EDEBE4",
"1X c #E3E6EA",
"2X c #E9EAE8",
"3X c #EFF2EE",
"4X c #F4F2E6",
"5X c #FAFAE7",
"6X c #F4F4EB",
"7X c #F9F6ED",
"8X c #F7F9ED",
"9X c #FBFBED",
"0X c #F8F3E6",
"qX c #F4F6F2",
"wX c #F7FAF1",
"eX c #FCFDF3",
"rX c #FFFFFC",
"tX c #FBF6F0",
"yX c #EFEEEA",
/* pixels */
"                                                                                                    ",
"                  : 8 : % @ o @ O @ @ @ & @ @ @ @ @ @ - - , , 2 7 e t w i u j                       ",
"                  . . . . . . . . . . . . . . . . . . . . . . . . . . . . . .                       ",
"                  O & @ @ @ @ @ @ @ @ & @ & @ & 4 @ & @ & & & & - : = : @ . O                       ",
"                  . . . . . . . . . . . . . . . . . . . . . . . . . . . . . <                       ",
"                  - U d q q q q q d d C S S S Z Z Z C C C S ~ ~ ( ( ( ( A . ; e 9 <                 ",
"          9 . & . j ,X*X%X%X%X%X&X,X,X1X1X1X2X1X1X2X1X1X1X2X2X3XqXqX3XeX~.. 3 O @ . 2               ",
"          u . @ . j 6XrXeXeXeXeXeXrXeXrXeXeXeXeX9XeXeXeXeXeXeXrXrXeX9XrX!.. 9 O O . t               ",
"        M.. O * . t 1XwXwXeX8XeXeXeXeXeXeXeXeXeX9XeXeXeXeXeXeXeXeXeX9XeXI.. 2 + * . s               ",
"        S.. 3 2 : w >XrXeXwX9XeXeXeXeXeXeXeXeXeXeXeXeXeXeXrXeXrXrXeX9XrXI.. u 2 2 . R               ",
"        U.. . . . . ].rXwXwXeX9XeXeXeXeXeXeXrXeXeXeXeXeXeXrXeXeXeXeXeXrXJ.O . . . . T q.            ",
"t . . s T i A 3.U.2.Q.rXeX9XeXeXeXrXeXrXeXeXeXeXeXrXrXeXeXeXeXrXrXeX9X9X/.U.(.[..X.X3.. 2 @ @ : 3   ",
"u . o 4 . Q.2XqXrXqX8XeXeX9XeXeXeXeXeXeXeXrXeXrXeXrXeXeXrXeXeXeXeXeX9X8X9XeXeXeXeXeXq.. : . . . .   ",
"z . . w . ].rXwXwXwXeXwX9XeXeXeXeXeXeXeXeXeXeXeXeXeXwXeXeXeXrXeXeX9X5X8X8XwX8X8X8X9Xq.. e . . . +   ",
"l . X 7 . '.rXrXeXeX9X9XeXeXeXeXeXeXeXeXeXrXeXeXeXrXrXrXeXrXrXrXeXeX9X9X9X9X9X8X8XwXM.g Y . X . @   ",
"k . O 7 . '.rXeXqXeXeX9XeXwXeXeXeX].v.P.P.Y.Y.T.T.Y.Y.Y.H.OXrXwXeX9X5X9X8X8X8X9X7XeXZ.R ] . o . :   ",
"j . O 7 . [.rXwXeXeXeXeXeX9X9XeXrX}.$ c I H K L } M n P . `.rXwXeXeX9X9X9X7X9X9XwXeXS.W ' . o . :   ",
"z . . e .  XrXwXeXeXeXeXeXeXeX9XeX*X*.=.<.<.<.<.<.<.<.<.m |.rXrXeX9X9X9X9X9X9X9X9XrXA.^ ' . @ . <   ",
"j . . 7 . .XrXeXeXeX9XeX9XeXeXeXeX*Xf.! +.$.>.$.$.O.Q O.. |.rXeXeX9X9X9X9X9X9X9XeXeXA.^ ] . + . 3   ",
"p . X 7 . .XrXeXeXeXeXeXeXeXeX9XrX=Xm.X # # . . . . . e . {.rXwXeXeX9X9XeX9X9X9XtXeXG._ %.. X . 3   ",
"u . X 2 . oXrXwXeXeXeXeXeXeXeXeXrX=Xm.X X . . . . . . r . '.rXeXeXeX9X9XeXeX7XwXwXeXG._ -.. o . :   ",
"t . . 3 . >XrXqXeX9XeXeXeXeXeXwXeX*Xc.. o . . . . . . e . `.rXeXeX9X9XeX9XeX9X9X9XeXK._ ' . @ . :   ",
"  . o - . >XrXwXeXeXeXeX9XeXeX9XrXXXf.. o . . . . . . e . _.rXtXeX9X9XeXeX9X9XwXqXeXK._ ' . o . &   ",
"  . + X . ,XrXwXeXeX9X9XeXeXeXwXeX X6.@ @ . X . . O . e . _.rXwXeXeX9X9X9XeXwX9X9XeXK.%.] . + . =   ",
"  . @ . u ,XrXwXeXeXeXeX9XeXeX9XeX+Xk.> 3 3 , , , 3 2 p . _.rXeX9XeX9X9XeXeX9XeXwXeXK.' _ . X . &   ",
"  . @ . j ,XrXwXwXeXeX9XeXeXeX9XeX@XB.. . . . . . . . . . ~.rXtX9X9X9XeXeX9X9X9X9XwXK.Q [ . X . &   ",
"  . @ . t ,XrX9XwX9X9XeXeX9X9XeXeX6X;X[.].].{.{.{.{.'.(.I.`.rXeXeX9X9X9XeXeXeXeXeXrXA.! W . X . *   ",
"  . @ . - ,XrX8XeX5X9X9X9X9X9X9X9XeXeXrXrXrXrXrXrXrXrXrXrXrXtXeX9X9X9X9X$X^.W.W.R.Y.*.Y l . . . &   ",
"  X o X . S.J.Z.K.+X).).9X9X9XeX9XwX9XwXeXeXrXeXeXrXwXeXeXeXrXeX9X9X9X9XT.n *. .B a a g r . . . &   ",
"  O . . . . . . . %.N 2.-X9XqX9XwXwXeXwXwXrXeXeXrXeXeXeXeXeXeXeXeX9X9X5Xh.. w @ O @ . . . . . . ;   ",
"  @ . . . , 2 , 2 . t t 7.6XwXeXeXeX9XeXeXeXrXrXeXrXeXrXrXeXeXeX9X9X9X@XB . @ X X . X . . . . . <   ",
"  : @ . . . . . X . l . 9.9XeX9X9XwXeXeXeXeXeXeXrXeXrXeXeXrXrXwX9XeX5XF.a 4 X . . . . . . . O . 9   ",
"      e . . . . . X 1 x *XrXtX9XeXwX9XeXeXeXeXeXeXrXeXrXeXrXrXeX9XeX0Xc.b 2 2 : : 4 . . . . X . i   ",
"        : . . X % # o ).eXeXeX9X9XeX9XeXeXeXeXrXeXeXrXeXrXeXeXeX9X9XeXv.. . . . . . @ . X . . . A   ",
"        3 . 2 4 . . A.rX7XeXeXeXwXeXeXeXeXrXeXeXrXrXrXrXeXrXeXeXeX5XeX(.2.w.9.w.1.l . . . . . . h   ",
"      2 . : . . l [ $XeX7XeX9XeXeXeXeXeXeXwXwX9XtXwXwXtXeXrXeXeXeX5X9X9X5X6X6X8X6X,Xq.5 r . . . .   ",
"1 O + . O . B. X4X6XwX7X9XwXeXeXeX*XG.F.N.f.7.6.4.4.4.7.N.|.eX7X9X9X9X9X5X9X9X9XeXtXj.n b . X . O   ",
". . . 2 . '.rXeXeX8X8X8X9XwX9XwXeXE.5 K L | L L L K I c 5 &.7XeX9X9X9X9X9XwXwX8XeX4X6.V n . X . O   ",
"O . @ . ; ,XeXqXwXwXwXwXwX9XwX9XeXQ.<.t.u.t.t.r.e.e.e.@.| <.7XeX9X9X9X9XeX9X9X9XeX4X;.B ! . X . .   ",
". . - . U ,XeXwXeXeXwXwXeXwXwXwXeXE.s.y.u.u.d.d.u.y.t.e.@.6.6XwX9X9X9X9X9X5X9X8X9X4X=.{ Q . X . .   ",
"O . : . ` 2XwXwXwXwXeXwXwXwXwX8XeXE.b.$.$.O.X.H v g g p $ ^ 7X9X7X5X9X9X9X9X9X9X9X4X . .Q . X . .   ",
". . 3 . 3.yXwXwXwXrXeXeXeXeX9X8XwXI.b.+ . . . . . . . . . W 6XeX9X9X9X9X9X7X9X9XeX-X .=. .. O . .   ",
". . < . w.qXwXwXwXeXeXeXeXwXwX9XeXU.n.> o + + + X . X # . T 7XwX9X5X7X9X9X9X9X9XeX-X{ =.&.. X . .   ",
". . 2 . 9.qXwXwXwXeXeXwX9X9XeX9XeXG.0.1 . . . . . . . @ . W 6X9X9X9X9X9X9X9X5X8XeX-X .=.*.. X . .   ",
". . 3 . 9.qXrXqXqXeXeXwXeXeX9X8XwXS.s.0 . . . . . . . @ . W 0XeX9X9X9X9X9X9X9X9XeX-X{ i.;.. . . .   ",
"O . 2 . q.eXeXwXeXeXeXwX9X9X9X5XyXD.n.y % , % > % % 4 , . Q 6XeX7X9X9X9X9X5X5X9XeX=X .i.6.. X . O   ",
"X . 2 . b.eXwXeXeXeXwX9X9X9X8X8X,Xb.n.. . . . . . . . . . R 0X9X9X9X9X9X9X9X5X5XeX=X .p.p.. . . .   ",
"@ . 3 . M.rXwXwXeXwXeXeXwX9X8XeX#Xb.V.-.-.-.] _ T T N N x W 0X9X9X9X9X9X9X9X7X7XeX=X..z.p.. . . .   ",
": . 2 . M.rXqXwXwXeXwXeX9XeX9X9X7X=X=X-X<X-X-X-X-X;X;X;X;X;X0X9X7X9X5X9X9X9X5X8XeX$X..l.p.X . . .   ",
"7 . 2 . M.eXwXwX9XeX9XeXwX9X9X9X9X9X9X9X7X9X5X5X5X5X5X5X9X5X5X5X9X5X9X9X5X5X9X8XeX@X..l.p.% . X .   ",
"e . 2 . D.eX8X9X9X8XwX9X9XeX9X9X9X9X5X9X9X7X5X5X5X5X5X9X5X9X9X9X9X9X8X5X8X5X5X0X9X@X..l.g.> . . .   ",
"t . 8 . D.rXeXeXeXrXeXeXeXwX9X9X9X9X9X8X9X9X9X5X9X5X9X9X9X9XeX9X9XeX5X5X9X9X9X9XeX$XV l.h.> . X O   ",
"i . , . x.XX}. X X{.<XeXeXeX9X9X9X9X9X9X8X9X9X9X9X9X9XeX9XeXeXeXeXeX=XN.I.R.Y.^.).P.@.h.j.y . . O   ",
"t . X . 7 j . * * O ^.rX9X9X9X9X9X9X9X9X9X9X9X9XeX9X9X9X9XeX9XeX9XrX,X. $ . . . X . p b k : . . O   ",
"  . . . . . & . b 6 ].rX7X9X9X9X9X5X8X8X8X9X9X9X9X9XeXeXeXeX9XeXeXeX6X3.G G 1 1 3 # . . . . . . &   ",
"  . . . o @ @ O 0 b $XeX7X7X9X9X9X9X9X9X8X8X9X9X9X9X9X9X9XeXeXeXeXwX7X0.G G < = & + X + + . . . *   ",
"  . O X . . . o O g 0XrXtXtXeXtXeXeX9X9XeX9XeXeXeXeXeXrXeXrXeXrXrXrXrXC.D G > = + + O O . O . . &   ",
"  . . . . O . o . F ).^.H.H.V.V.V.V.V.V.V.V.V.V.V.V.V.B.B.N.m.C.m.m.C.>.J k . + O . . . O O O O ;   ",
"    z U u . . X . Y j.5 c m c L P P P } o.o.o.o.o.o.X.E } E E X.J J J ` R 2 . . . . . . . . . .     ",
"        U . X . . r $.@.<.<.<.t.<.y.a.y.y.a.a.y.a.8.8.5.5.5.5.>.,.,.,.,.F . O . . . . 9 u t w 2     ",
"          . . @ . p E H E E E ^ O.O.+.O.#.#.#.#.,.>.` ` :.` :.:.:./ / / f . . . . . . j             ",
"          . . . . : 1 X . . . . . . . . . . . . . . . . . O O * * < : : O . . . . . &               ",
"          2 9 j j . . . . . . O . X O X O . . O . O . . . . . . . . . . . . . . . . @               ",
"                z . X . . . . . . . . . . . . . . . . . . . . . . . . . . . . : 2 . t               ",
"                3 . . . . . . . . . . . . . . . . . . . . . . . . . . . . . . u U s j               ",
"                : . . . . . . . . . . . . . O . . . . . . . . . . . . . . . . j ) A                 ",
"                @ . . . . . . . . . . . . . . . . . . . . . . . . . . . . . O                       ",
"                & . - 2 9 e w 2 2 3 1 3 < < 9 9 w w w w w q 9 3 9 < ; ; ; &                         ",
"                  s                                                                                 "
};
