/* XPM */
static char *out[] = {
/* columns rows colors chars-per-pixel */
"50 61 201 2 ",
"   c None",
".  c #010101",
"X  c #090405",
"o  c #030903",
"O  c #040409",
"+  c #090609",
"@  c #060A0B",
"#  c #0C0B0C",
"$  c #080807",
"%  c #120003",
"&  c #120B0E",
"*  c #11110F",
"=  c #0D0D11",
"-  c #040C15",
";  c #120E12",
":  c #0E1114",
">  c #0F1119",
",  c #131214",
"<  c #181415",
"1  c #191917",
"2  c #14141B",
"3  c #1B171B",
"4  c #17191C",
"5  c #1C1C1C",
"6  c #240313",
"7  c #231C1D",
"8  c #231218",
"9  c #1F201E",
"0  c #22211F",
"q  c #1B1C22",
"w  c #191721",
"e  c #221E22",
"r  c #261927",
"t  c #361F27",
"y  c #1F2124",
"u  c #222324",
"i  c #2B2226",
"p  c #242428",
"a  c #2C2B2C",
"s  c #282828",
"d  c #322B2E",
"f  c #312525",
"g  c #25302D",
"h  c #2C2C32",
"j  c #282A34",
"k  c #342E31",
"l  c #3A2E33",
"z  c #2D3336",
"x  c #2E3239",
"c  c #333133",
"v  c #3C3233",
"b  c #34343B",
"n  c #38363D",
"m  c #38383A",
"M  c #353528",
"N  c #401E0A",
"B  c #492B38",
"V  c #43363C",
"C  c #433A3C",
"Z  c #4B3E3C",
"A  c #463936",
"S  c #5C3D3B",
"D  c #5E3D35",
"F  c #4F2F30",
"G  c #3D402F",
"H  c #5C413D",
"J  c #62413C",
"K  c #363D45",
"L  c #2E3845",
"P  c #562D42",
"I  c #582C44",
"U  c #473E46",
"Y  c #563B47",
"T  c #573244",
"R  c #3A414C",
"E  c #3B4552",
"W  c #3B4557",
"Q  c #4A4545",
"!  c #544444",
"~  c #564648",
"^  c #5B524E",
"/  c #474B54",
"(  c #5E4D52",
")  c #554953",
"_  c #585958",
"`  c #4B5057",
"'  c #63494E",
"]  c #6C4B4C",
"[  c #654448",
"{  c #78474C",
"}  c #644D53",
"|  c #6B4C53",
" . c #694F5D",
".. c #754D53",
"X. c #794D52",
"o. c #645155",
"O. c #6C5356",
"+. c #6D525A",
"@. c #675B55",
"#. c #7C525B",
"$. c #7A5C5B",
"%. c #76545B",
"&. c #5E5E61",
"*. c #615F64",
"=. c #775662",
"-. c #785C66",
";. c #676865",
":. c #6B6967",
">. c #7A6663",
",. c #7F6669",
"<. c #7E6E69",
"1. c #766561",
"2. c #797572",
"3. c #79726D",
"4. c #805259",
"5. c #895E64",
"6. c #846464",
"7. c #84666B",
"8. c #8B676A",
"9. c #846A6C",
"0. c #8A696A",
"q. c #886766",
"w. c #926A6D",
"e. c #92656C",
"r. c #84726F",
"t. c #856A71",
"y. c #8C6C72",
"u. c #867373",
"i. c #8B7576",
"p. c #887977",
"a. c #917678",
"s. c #93797A",
"d. c #907477",
"f. c #7F8078",
"g. c #81827C",
"h. c #8E807A",
"j. c #7D8286",
"k. c #8E8C84",
"l. c #888986",
"z. c #9B8B83",
"x. c #9A8C85",
"c. c #97928A",
"v. c #9A9C95",
"b. c #969590",
"n. c #A18F89",
"m. c #A3968D",
"M. c #A6988D",
"N. c #A49991",
"B. c #AB9D94",
"V. c #A69B96",
"C. c #9FA29B",
"Z. c #A2A49C",
"A. c #A9A59B",
"S. c #B2A599",
"D. c #A6A6A1",
"F. c #AAACA4",
"G. c #AAA7A2",
"H. c #B6ADA5",
"J. c #BCB3A4",
"K. c #B6B4AD",
"L. c #BDBBB3",
"P. c #B5B5B3",
"I. c #C1B9B5",
"U. c #C5BFBE",
"Y. c #BEC1BA",
"T. c #CAC4BA",
"R. c #C6C2BB",
"E. c #CCC9C3",
"W. c #CBCAC6",
"Q. c #D1CBC5",
"!. c #D4CFC9",
"~. c #D5D3C6",
"^. c #D4D2CB",
"/. c #DAD6CE",
"(. c #D9D7CA",
"). c #D5D4D1",
"_. c #DBD7D3",
"`. c #DCDAD4",
"'. c #DDDEDB",
"]. c #D6DAD5",
"[. c #E3DFDC",
"{. c #E4E4DC",
"}. c #E9EADC",
"|. c #E5E6E2",
" X c #E6E9E3",
".X c #EAECE4",
"XX c #EAEDEB",
"oX c #F3EEE6",
"OX c #F4EFE8",
"+X c #EEF1EB",
"@X c #EEF0E3",
"#X c #F4F3EA",
"$X c #F8F5EC",
"%X c #F6FAEB",
"&X c #FBFCEE",
"*X c #F1F1E5",
"=X c #E9EDF1",
"-X c #F6F5F1",
";X c #FDFDF2",
":X c #FFFFFA",
">X c #FBF7F5",
/* pixels */
"                                                    z z h x x x z x x j j s q                       ",
"                        : * # O O o O . o . $ O . . . . . . . . . . O O . . O p                     ",
"                        . . . O O @ @ # # : = = , ; : ; , = , : : : : : = O . K                     ",
"                        q + p q 4 , . . . . . . . . . . . . . . . . . . . O . x                     ",
"                        p . . . . . - g z K K R E E W W W W E R E R L R x . . -                     ",
"                    4 , . ` W.].].'.'.|. X X=X=X+X=X=X=X=X=XXXXXXX X XXXP.. 9 . q                   ",
"                  4 . : . ;.:X:X:X:X:X:X:X:X:X:X:X:X;X:X:X:X;X&X&X;X;X;XL.. 0 . O                   ",
"                  . @ , . ;.-X;X;X;X;X;X;X:X;X;X;X;X;X;X;X;X&X&X&X%X%X&XF.. 9 # O j                 ",
"                  _ . u . :.:X;X;X;X:X;X;X:X:X;X;X:X;X;X:X:X;X%X;X;X;X;Xv.. 1 . . .                 ",
"          p     j.` . . . l.:X;X%X;X%X;X;X;X:X:X;X:X:X;X;X:X;X;X&X;X;X-Xf.. g s Q C e               ",
"        . . . # . D.W.`.'.+X;X;X;X-X;X;X;X:X:X;X:X:X;X;X;X:X;X;X&X;X;X;X+X.X.XXX#XL.B v . , , o 4   ",
"        O . # . M $X:X;X;X;X&X;X%X;X;X;X;X;X:X:X;X:X;X:X;X;X:X;X;X&X&X;X;X:X;X;X:XL.S ( . . . . u   ",
"        . . # . G @X;X%X&X&X&X&X;X;X;X;X:X:X:X:X:X:X:X:X:X;X:X:X;X&X&X-X&X;X%X$X;XH.S | . O . . q   ",
"        O . # . Q @X;X&X&X&X&X&X;X%X;X XH.I.I.I.U.T.T.T.W.W.W.#X;X&X;X&X;X-X;X&X;XA.~ +.. . o . q   ",
"        O . , . _ %X;X&X&X&X&X&X&X&X;X`.% B Y P I T I I B T . '.;X>X>X&X&X&X&X&X&Xc.] %.. . . . q   ",
"        . . , . :.%X&X&X;X&X&X&X;X&X;X(.Y  .-.=.=.=.=.#.+. .)  X;X&X&X;X&X>X&X;X$Xz.%.1.& . . . q   ",
"        . . 1 . g.;X>X;X&X&X&X&X&X&X;X~.! } +... .+.| | ' Y U XX;X;X;X$X;X&X>X;X#Xh.$.>.& . . . q   ",
"        O . 5 . k.&X&X&X&X&X&X&X&X&X;X~.^ Q V V B d f 7 7 & < .X;X;X;X;X;X&X%X;X#Xu.$.7.3 . X . q   ",
"        . . 5 . b.;X;X&X&X&X&X&X&X&X;X~.^ d . . . . . . . . . {.;X;X;X&X&X&X&X;X#X<.$.>.7 . . . w   ",
"        O . 0 . v.;X;X&X;X&X&X&X&X&X&X(.^ d . + . $ X . O $ . |.;X&X;X;X;X&X%X>X#X1.$.7.e . o . 4   ",
"        O . u . C.:X&X&X;X&X&X&X&X&X;X(.^ d . . . . . . o . . .X;X$X;X;X&X&X&X;X#X1.$.9.i . . . q   ",
"        O . u . C.;X&X;X&X;X&X&X&X&X;X(.o.d . o . . X . $ . 2 XX;X&X&X;X&X;X$X;X#X1.$.0.d . O .     ",
"        O . u . A.;X&X;X;X&X&X&X&X&X;X/.;.d . O . . . . = . a XX;X&X&X&X&X;X$X;X#X<.6.i.a . O .     ",
"        O . 9 . D.;X&X&X;X;X&X;X&X&X;X{.3.U o 1 < < , , 3 . U XX;X&X&X&X&X;X>X;X#Xr.4.p.d . $ .     ",
"        O . u . Z.;X;X&X;X&X;X;X;X&X;X`.( 6 . . . . . . . . r XX;X&X&X&X&X&X&X;X#Xu.6.d.k . $ . `   ",
"        O . u . F.:X&X;X;X&X&X;X;X&X&X}.!./.^.!.!./._._._.).`.>X;X&X&X&X&X&X$X;X#Xp.q.p.v . # . _   ",
"        # . 5 . F.:X&X&X&X&X&X;X;X;X;X;X;X;X;X:X:X;X:X:X:X:X:X;X&X;X;X&X;X&X&X;XOXp.q.s.l . # . ;.  ",
"          . 5 . F.:X&X&X;X;X;X;X:X;X;X&X;X;X&X&X;X;X;X;X;X;X;X;X;X;X&X&X&X&X&X;XoXp.q.a.l . # . *.  ",
"          . 9 . F.:X;X;X-X-X>X:X;X;X;X;X&X;X;X;X;X:X;X;X;X;X:X;X;X;X;X&X&X&X&X;XOXp.q.a.v . # . *.  ",
"          . 9 . A.;X^.A.2.2.-X:X;X;X;X;X;X;X&X;X;X;X;X;X:X;X;X;X;X;X;X&X&X&X&X;XOXi.8.s.v . # . &.  ",
"          . # . _ ;.. . . c -X:X:X;X;X;X;X;X;X;X;X;X;X:X;X;X:X;X;X;X;X;X&X&X$X;XoXp.0.a.v . # . _   ",
"          . . # . . * u . :.>X:X:X;X&X;X;X;X;X;X;X;X:X;X;X:X:X;X>X;X&X;X&X&X&X;XoXp.q.a.V . # . `   ",
"          s O . # , . 5 . b.:X:X;X;X&X&X&X&X%X&X%X&X&X&X;X&X;X:X;X&X;X;X;X&X$X;XoXi.0.a.v . $ . y   ",
"          m , . . . . < . p.^.J.J.J.S.S.S.B.M.M.M.M.B.S.J.n.s.}.;X&X&X;X&X&X&X;XoXi.8.a.l . $ . 2   ",
"            # . . . . o . C @.D J D D D J J J H H H D [ ] D N {.;X&X&X;X;X&X$X&XoXu.6.y.l . . . w   ",
"              # # * . . . y H Z Z Z U Z Z H ! ! ! ! ~ ^ o.A A }.;X$X;X$X&X&X&X;XoXu.q.d.l . $ . w   ",
"                    5 . . . . . . . . . . . . . o . . . . . % }.;X;X;X$X&X&X&X;XoXu.q.i.l . . . 2   ",
"                    , . . . O O o O O o . X o . o o o . + o . {.;X&X&X;X;X&X$X;XoXy.7.y.d . $ . w   ",
"                    m . . . . . . . . . . . . . . . . . $ # . [.:X$X;X$X&X&X&X&XoXu.0.y.l . X . 2   ",
"              s 3 3 , . . . . . . . . . . . . . . . . . . , . `.:X;X;X&X&X&X&X;XoXu.0.d.l . O . 2   ",
"        s o . . 1 9 5 5 u 5 5 5 3 5 5 5 5 5 5 5 5 5 1 3 1 u . ).:X$X;X&X&X&X$X;XoXp.0.s.V . O . 2   ",
"        . . . # . . . . . . . . . . . . . . . . . . . . . . . E.:X;X$X&X&X&X&X&XoXp.8.s.V . O . 2   ",
"        . . 1 . b.].!.^._._.^.^.Q.E.L.K.K.F.G.Z.v.b.c.l.g.g.3.T.;X;X;X&X&X&X&X;XOXi.0.s.C . $ . p   ",
"        . O 1 . W.:X:X;X;X;X:X;X;X:X;X;X;X;X:X:X;X;X;X;X;X;X;X&X&X&X&X&X&X&X>X;XOXp.0.s.C . $ . n   ",
"        . + # . ).:X$X&X&X$X&X&X&X&X&X&X&X&X&X&X&X&X%X&X&X&X&X&X&X&X&X&X&X;X$X;XoXi.q.i.V . # . n   ",
"        o O . . ].>X-X$X>X;X&X>X&X;X>X;X;X;X;X&X&X;X&X&X;X&X&X&X&X%X%X;X;X>X$X;XoXy.q.i.C . $ . n   ",
"        @ O . . '.;X$X&X;X$X;X&X&X;X&X;X&X;X;X&X&X&X&X&X&X&X&X&X&X%X&X*X$X;X;X:X$X9.5.0.C . $ . c   ",
"        : + . . |.:X&X$XoX>X;X;X&X&X;X;X;X;X;X;X;X;X;X;X;X&X&X>X&X&X;XK.2.V.G.R.E.o.' o.k . . . a   ",
"          O . . K.Y.Z.k.@._.:X;X>X;X;X;X;X;X;X&X;X&X;X;X&X;X&X%X&X%X;XK.. t 6 8 % % . . . . . . p   ",
"          . . . . . . . . R.:X>X:X>X;X;X;X;X&X;X;X;X&X&X&X&X&X%X%X%X&XR.. Q U l < . . o . . . .     ",
"          O . o 5 e 5 k . U.:X-X;X&X$X%X%X$X%X%X&X&X&X&X&X&X&X&X&X&X;XT.. C l i . X . . . . O O     ",
"          c 3 . O + = r . u.H.N.x.z.z.z.h.z.z.n.x.x.m.m.M.m.N.A.A.A.H.k.. i r < . O O . . + . =     ",
"            h O . X + . i { { { X.X.X.X.4.4.4.4.#.#.#.#.#.X.....| [ [ B . . . . O . . . # 2 4       ",
"            p < . . X . f 5.e.8.w.8.w.w.w.w.w.w.w.y.y.y.t.t.t.t.t.,.,.} . . . . . . . < 5 a Q       ",
"            b 7 . . . . e | ] | | } ] | O.O.$.O.O.o.o.} } } } } ) ) ~ U # . . . . , c v k m         ",
"              b k s e # . . . . . . . . . . . . . . . . . . . . . . . . . . . . . H                 ",
"                    ) u . . X $ $ $ X X $ X X $ X $ X . . $ X . X . X . . . . . 5                   ",
"                      z . . . . . . . . . . . . . . . . . . . . . . . . . . . . 4                   ",
"                      u . . . . . . . . . . . . . . . . . . . . . . . . . . . . q                   ",
"                      & . . . . . . . . . . . . . . . . . . . . . . . . . . . . p                   ",
"                        4 , ; > , > > , 2 > w > = = @ @ @ @ @ @ # # : , , , 4 u                     "
};
