/* XPM */
static char *out[] = {
/* columns rows colors chars-per-pixel */
"55 50 177 2 ",
"   c None",
".  c #000001",
"X  c #00000C",
"o  c #010315",
"O  c #060916",
"+  c #090C17",
"@  c #01051B",
"#  c #040A1C",
"$  c #0A0D1C",
"%  c #0C111E",
"&  c #11131E",
"*  c #010621",
"=  c #040C21",
"-  c #0A0E21",
";  c #000328",
":  c #060E29",
">  c #061124",
",  c #0C1223",
"<  c #061228",
"1  c #0A1429",
"2  c #121523",
"3  c #151925",
"4  c #191C25",
"5  c #111528",
"6  c #131A2B",
"7  c #1A1D2B",
"8  c #0E1830",
"9  c #131D34",
"0  c #1A1E31",
"q  c #241D27",
"w  c #1D212C",
"e  c #1D2232",
"r  c #152232",
"t  c #22232B",
"y  c #232432",
"u  c #232A35",
"i  c #2C2C35",
"p  c #252C3A",
"a  c #2A2D3A",
"s  c #2E3136",
"d  c #243139",
"f  c #2B323D",
"g  c #2B383D",
"h  c #33343B",
"j  c #38373E",
"k  c #2C3342",
"l  c #2D3C4C",
"z  c #363741",
"x  c #333C44",
"c  c #3C3D42",
"v  c #393F4D",
"b  c #3C4146",
"n  c #3C454E",
"m  c #3E4654",
"M  c #414144",
"N  c #484746",
"B  c #43444B",
"V  c #444A4E",
"C  c #4D4F4E",
"Z  c #454C52",
"A  c #4B5154",
"S  c #4E515A",
"D  c #50555E",
"F  c #5A5A5E",
"G  c #595855",
"H  c #4D5562",
"J  c #525760",
"K  c #545B61",
"L  c #595B62",
"P  c #5B6064",
"I  c #5D6369",
"U  c #636364",
"Y  c #626769",
"T  c #67696A",
"R  c #6A6B6C",
"E  c #6C6763",
"W  c #74716B",
"Q  c #656B73",
"!  c #6D6D71",
"~  c #6D7171",
"^  c #727375",
"/  c #797675",
"(  c #717872",
")  c #74757A",
"_  c #79777C",
"`  c #777A7B",
"'  c #7C7B7B",
"]  c #807C7B",
"[  c #7C827B",
"{  c #86847F",
"}  c #7B7E81",
"|  c #757A80",
" . c #7E8283",
".. c #828383",
"X. c #898782",
"o. c #8C8A85",
"O. c #858688",
"+. c #878A89",
"@. c #8C8C8B",
"#. c #928E8A",
"$. c #8D908E",
"%. c #93938D",
"&. c #8E8F90",
"*. c #908F90",
"=. c #8E9091",
"-. c #959492",
";. c #999591",
":. c #9C9B94",
">. c #979A98",
",. c #9C9D98",
"<. c #949891",
"1. c #A19C92",
"2. c #9EA09B",
"3. c #A4A39B",
"4. c #A9A59D",
"5. c #AAA89E",
"6. c #A5A094",
"7. c #B3AC9D",
"8. c #A2A3A1",
"9. c #A8A5A0",
"0. c #ACAAA4",
"q. c #B2AEA6",
"w. c #B5AEA8",
"e. c #B5B2A7",
"r. c #B9B4A6",
"t. c #B5B2AB",
"y. c #B9B5AB",
"u. c #BCB9AC",
"i. c #B3B4B0",
"p. c #BEBBB3",
"a. c #C0BEAE",
"s. c #C2BFB5",
"d. c #C3BFB9",
"f. c #C4C2B4",
"g. c #C9C5B6",
"h. c #CECAB7",
"j. c #C4C2B9",
"k. c #C8C6BA",
"l. c #CECABD",
"z. c #D3CEBD",
"x. c #C7C6C5",
"c. c #CFCBC0",
"v. c #D2CEC3",
"b. c #D1CDC8",
"n. c #CED0C3",
"m. c #D6D4C7",
"M. c #D9D6C4",
"N. c #D7D4CD",
"B. c #D9D6CC",
"V. c #DDD9CA",
"C. c #DFDAD4",
"Z. c #E3DDCC",
"A. c #E2DED8",
"S. c #E0DDD5",
"D. c #E5E1CE",
"F. c #EAE3CF",
"G. c #E4E1D3",
"H. c #EBE5D4",
"J. c #EDE8D5",
"K. c #E5E4DB",
"L. c #E9E6DA",
"P. c #EDEBDC",
"I. c #F2ECD5",
"U. c #F2EEDD",
"Y. c #F5F1DE",
"T. c #FCF4DE",
"R. c #E7E7E0",
"E. c #EEEDE1",
"W. c #F1EFE3",
"Q. c #F4F2E5",
"!. c #FDF6E4",
"~. c #FEF9E6",
"^. c #F6F4EA",
"/. c #FCF7E9",
"(. c #FEFBEB",
"). c #FFFEF2",
"_. c #FFFFF9",
/* pixels */
"                                                    i                                                     t   ",
"                                                    * @ * # # @ @ @ @ # @ - - 5 1 5 1 , , , 1 , , , = O O * & ",
"                                                    = @ @ @ = # = - - , , * @ @ ; 0 e y w 7 0 7 6 , @ @ o @ q ",
"                                                    # @ @ @ X o o o X X o 5 h j a @ o . . . X o @ @ # o o @ t ",
"                                                    9 > * 1 f y 7 a c M 1 E 7.r.#.U W W / / Q F V h o # # @ t ",
"                                  # O O O X X X X 3 R ^ J *.^.E.E.Q.Q.Q.P.J.L.P.I.T.T.!.~.~.(.Q.Q.K.v . - @ t ",
"                                  - # o o X o o X # R / I -.).(.).(.(.).).).).).!.T.~.~.~.~.(.(.(.^.S . , @ q ",
"                                  % $ $ + w w t w y R / T X.^.).^.(.(.(.).).(.(.~.!.~.T.~.(.~.~.(.Q.L . 2 @ 4 ",
"                                  X . X X . . . . . m F B R (.).).(.(.(.).(.(.(.~.~.~.!.~.(.(.(.(.(.I . 3 @ 3 ",
"                      2 $ $ ,     b b b h >.t.w.t.i.p.j.p.j.^.).(.(.(.(.(.(.(.(.!.T.!.!.(.Y.P.U.Y.K.D . , @ 2 ",
"          3 % % 2 , O O o o @ - .  .@.+.[ E._._._.(.(.(.(.(.(.(.(.(.(.(.~.~.(.~.T.F.H.D.J.3.. k p 6 @ # @ @ $ ",
"          = # # @ @ # @ # # # - . | &.@. .P.)./.(.(.(./.(.(.(.(.(.~.(.~.~.~.!.!.Y.Z.B.V.G.8.. 5 o o @ @ @ * O ",
"          1 $ # - 2 & $ + + O + . ^ @.O.| E._.(.(.(.(.(.(.(.~.~.~.~.~.(.~.~.T.!.Y.Z.V.V.G.0.. w = # @ @ @ @ @ ",
"        w o o o X . . . . o @ ; o ' 8.>.@.L.).(.(.(.(.(.(.(.(.(.(.(.(.(.(.~././.Y.D.G.D.P.0.. w @ @ @ @ @ @   ",
"a q w 7 o Y ..R 0.K.A.A.G.G.L.L.H.U.W.Q.U.~.).(./.(.(.~.(.U..._ ..' ` ` ` ) ~ ~ ~ ~ ( [ [ C . # @ @ u         ",
"> o @ @ . } -.' a.).(.).).(.(.(.~.!.!.T.!.!.~.~.(.(.~.~.(.I.r . . . . . . . . . . . . . . . - @ o ,           ",
", # @ = . _ %.] e.)././.(.(.~.~.~.~.!.T.!.!./.~.~.~.~.~.~.P.A @ e 4 3 3 6 3 3 3 , 2 3 3 3 - @ @ o ,           ",
", @ @ , . / ;.] u.(.(.(.~.~.(.~.~.~.!.!./.~.~./.~./.(.(.(./.S . , # # # @ @ # @ @ @ @ o @ @ @ @ @ =           ",
", @ # $ . ` ;.' i.(.~.(.(.~.~.~.~.~.!.!.~.~.~.~.).L.d.k.l.p.u @ = @ # # = * = = = = = = 3 3 o # o $           ",
", # @ = X ' %.' u.(.!.~.~.~.~.~.!.!.!.~./.~./.~.).x.. . . . @ @ @ @ # = < < < 8 p h z z b                     ",
", # # # . / -.' u.~.T.!.T.T.T.T.T.!.!.!./.~././.(.b.. i w 7 # @ @ # @ * < < 1 8 e                             ",
", # # , . [ 3.X.f.(.!.!.T.T.~.T.!.!./.~./.~.~.~.).B.. 4 @ * @ @ # * # = < < < 9                               ",
", # # , . @.r.6.V.(.!.~.!.!.!.!.!.~.~.~.~.~./.!.(.B.. 7 * @ * = @ @ @ > < = = <                               ",
"$ # o , . $.r.2.V.(.!.!.~.!.!.!.!.~.~.~./.~.~./.(.p.. w @ @ 4 q                                               ",
", # # 3 . <.M.M.Q.~./.~./.!.!.!.~./.~./.(./.(.~.).k.. 7 @ *                                                   ",
"2 = * 4 . %.D.Y.(./.!.~./.!./.!.~.~./.~.~.(././.(.c.. f y e                                                   ",
"7 # * 7 . %.M.J.(.~.~.~.!.!./.!././.~./.(./././.).V.. . . .                                                   ",
"i @ = 3 . o.g.l.J.Q.!.!.~./.!./.~.).)./.).(.~./.(.E.,.2.,.2.                                                  ",
"h @ = 3 . o.f.r.u.f.g.z.^.).).(./.~.~.~.!.!.!.!.~.~.).(.)._. .. w # $ $ + + O + o o O o O                     ",
"h @ # 6 . o.u.e.y.u.u.z.^.)./.(./.~.!./.!.!.!.!./.~././.~.(.R . 7 > % % % % % % % & % 2 &                     ",
"h * # 3 . o.f.r.u.u.a.z.(.).(.(.!.!.!.!.!.T.!.Q.!.~.~.~.(./.R . , X . . . . . . . . . . .                     ",
"z @ # 2 . [ 0.3.5.5.5.4.N.Q.Q.Q.Q.Q.!.Y.T.!.!.~.~.(.(.~.(.(.R . d g b n V Z Z Z A A A A A                     ",
"M @ # @ @ o o @ @ o o X . o.2.,.2.V.I.I.I.v.0.0.:.C.).Q.~.~.L.J.P.P.Q.W.!.Q.Q.Q.^.Q.Q.Q.~.f.. y # # + # O o & ",
"M @ # @ @ # o o o o X % X o.,.<.;.M.I.I.I.s._ | Z d.).~.~.~.~.(.(.~.(.~.~.~.~.~.~.~.~.~.(.n.. y @ O o o o o 2 ",
"c @ # @ o @ @ @ o o @ # . %.3.:.4.Z.I.F.I.g._ ..L p.(.~.~.!./.~.~.~.!.~.T.~.~.~.~.~.~.T.(.M.. u 3 & # o o @ 2 ",
"i @ @ @ @ @ @ @ o @ # o X %.3.2.4.z.Z.F.F.u.) } L t.(.~.~.(.~.~.~.~.~.!.~.~.~.~.~.~.~.!.(.V.. . . . o # @ o % ",
"            , 0 6 # @ @ o s j M B C G G N E #.o.{ :.Z.H.Z.F.~.~.~.~.~.!.~.~.~.~.~.~.~.~.~.Y.B.A.A.n.f X = @ $ ",
"                k < # # # X . . . . . . . S #.o.o.#.4.w.1.q.~.~.~.!.!.!.!.~.~.!.~.!.~.!.~.~.(.(.(.Q.k . = @ # ",
"                p 1 * # @ # $ $ # $ % 3 . L #.X.{ #.4.5.4.w.~.~.!./.!.!.T.!.!.!.!.!.!.!.!.~.(.(.(.U.p X # * $ ",
"                p r : * # @ @ @ @ @ o % . U ;.o.#.#.4.q.4.t.).(.(.(.(.~.~.~.~.~.~.~.~.~.~.~.~.~.(.W.p X = @ # ",
"                  7 : = @ # # # , # @ * . Z / ! ! W ..o.' @.N.B.m.v.G.J.P.W.U.Y.Y.I.P.P.P.(.~.~.(.W.d X # @ $ ",
"                                  - * @ @ X . . . . . . . . l H m m 1.w.t.u.p.p.i.2.=.&.+.K.(.(.(.W.d X > * % ",
"                                  @ @ @ @ @ + # # # % % , @ P Q I L 4.r.w.w.w.w.e.2.<.@. .K.(.^.(.Q.g X # # + ",
"                                  @ @ @ @ @ @ o o @ @ o o o K I H S 3.e.w.e.e.e.0.3.<.&. .K._.(.(.Q.x . , *   ",
"                                  * # @ @ @ o @ o @ o @ o o n Z n k X.:.;.;.%.-.%.O.} | Q N.^.E.^.R.n . > *   ",
"                                                    w r r 1 # o o o . . X X . . . . . . X 6 p p f a # @ # *   ",
"                                                    a p e 6 # @ O @ # # o $ # # # # # # @ o . X . X @ @ # @   ",
"                                                    u u e 6 * # @ # @ o # o o # @ o @ o @ # $ # # # @ @ @ @   ",
"                                                    a p p r = # @ @ # @ @ @ @ @ @ @ @ @ @ @ @ @ @ @ @ @ @ *   ",
"                                                                                        $ % % , & % # # # >   "
};
