/* XPM */
static char *out[] = {
/* columns rows colors chars-per-pixel */
"55 50 177 2 ",
"   c None",
".  c #000001",
"X  c #00000C",
"o  c #010315",
"O  c #060916",
"+  c #090C17",
"@  c #01051B",
"#  c #040A1C",
"$  c #0A0D1C",
"%  c #0C111E",
"&  c #11131E",
"*  c #010621",
"=  c #040C21",
"-  c #0A0E21",
";  c #000328",
":  c #060E29",
">  c #061124",
",  c #0C1223",
"<  c #061228",
"1  c #0A1429",
"2  c #121523",
"3  c #151925",
"4  c #191C25",
"5  c #111528",
"6  c #131A2B",
"7  c #1A1D2B",
"8  c #0E1830",
"9  c #131D34",
"0  c #1A1E31",
"q  c #241D27",
"w  c #1D212C",
"e  c #1D2232",
"r  c #152232",
"t  c #22232B",
"y  c #232432",
"u  c #232A35",
"i  c #2C2C35",
"p  c #252C3A",
"a  c #2A2D3A",
"s  c #2E3136",
"d  c #243139",
"f  c #2B323D",
"g  c #2B383D",
"h  c #33343B",
"j  c #38373E",
"k  c #2C3342",
"l  c #2D3C4C",
"z  c #363741",
"x  c #333C44",
"c  c #3C3D42",
"v  c #393F4D",
"b  c #3C4146",
"n  c #3C454E",
"m  c #3E4654",
"M  c #414144",
"N  c #484746",
"B  c #43444B",
"V  c #444A4E",
"C  c #4D4F4E",
"Z  c #454C52",
"A  c #4B5154",
"S  c #4E515A",
"D  c #50555E",
"F  c #5A5A5E",
"G  c #595855",
"H  c #4D5562",
"J  c #525760",
"K  c #545B61",
"L  c #595B62",
"P  c #5B6064",
"I  c #5D6369",
"U  c #636364",
"Y  c #626769",
"T  c #67696A",
"R  c #6A6B6C",
"E  c #6C6763",
"W  c #74716B",
"Q  c #656B73",
"!  c #6D6D71",
"~  c #6D7171",
"^  c #727375",
"/  c #797675",
"(  c #717872",
")  c #74757A",
"_  c #79777C",
"`  c #777A7B",
"'  c #7C7B7B",
"]  c #807C7B",
"[  c #7C827B",
"{  c #86847F",
"}  c #7B7E81",
"|  c #757A80",
" . c #7E8283",
".. c #828383",
"X. c #898782",
"o. c #8C8A85",
"O. c #858688",
"+. c #878A89",
"@. c #8C8C8B",
"#. c #928E8A",
"$. c #8D908E",
"%. c #93938D",
"&. c #8E8F90",
"*. c #908F90",
"=. c #8E9091",
"-. c #959492",
";. c #999591",
":. c #9C9B94",
">. c #979A98",
",. c #9C9D98",
"<. c #949891",
"1. c #A19C92",
"2. c #9EA09B",
"3. c #A4A39B",
"4. c #A9A59D",
"5. c #AAA89E",
"6. c #A5A094",
"7. c #B3AC9D",
"8. c #A2A3A1",
"9. c #A8A5A0",
"0. c #ACAAA4",
"q. c #B2AEA6",
"w. c #B5AEA8",
"e. c #B5B2A7",
"r. c #B9B4A6",
"t. c #B5B2AB",
"y. c #B9B5AB",
"u. c #BCB9AC",
"i. c #B3B4B0",
"p. c #BEBBB3",
"a. c #C0BEAE",
"s. c #C2BFB5",
"d. c #C3BFB9",
"f. c #C4C2B4",
"g. c #C9C5B6",
"h. c #CECAB7",
"j. c #C4C2B9",
"k. c #C8C6BA",
"l. c #CECABD",
"z. c #D3CEBD",
"x. c #C7C6C5",
"c. c #CFCBC0",
"v. c #D2CEC3",
"b. c #D1CDC8",
"n. c #CED0C3",
"m. c #D6D4C7",
"M. c #D9D6C4",
"N. c #D7D4CD",
"B. c #D9D6CC",
"V. c #DDD9CA",
"C. c #DFDAD4",
"Z. c #E3DDCC",
"A. c #E2DED8",
"S. c #E0DDD5",
"D. c #E5E1CE",
"F. c #EAE3CF",
"G. c #E4E1D3",
"H. c #EBE5D4",
"J. c #EDE8D5",
"K. c #E5E4DB",
"L. c #E9E6DA",
"P. c #EDEBDC",
"I. c #F2ECD5",
"U. c #F2EEDD",
"Y. c #F5F1DE",
"T. c #FCF4DE",
"R. c #E7E7E0",
"E. c #EEEDE1",
"W. c #F1EFE3",
"Q. c #F4F2E5",
"!. c #FDF6E4",
"~. c #FEF9E6",
"^. c #F6F4EA",
"/. c #FCF7E9",
"(. c #FEFBEB",
"). c #FFFEF2",
"_. c #FFFFF9",
/* pixels */
"  > = # # % 2 % $ % $                                                                                         ",
"  @ @ @ @ @ @ @ @ @ @ @ @ @ @ @ @ @ # @ @ @ # @ = r p d a                                                     ",
"  @ @ @ @ = # $ # # @ @ @ o @ @ o @ @ o @ @ @ @ * 6 e p p                                                     ",
"  * # @ o . . X . o # @ # # # $ # # # $ # @ # @ # 6 e d a                                                     ",
"  @ @ @ @ a k p p 9 X . . . . . . X X . . o o o @ 1 6 r w                                                     ",
"  * < . m L.Q.W.Q.N.Q |  ...%.%.<.;.;.1.X.x n Z n o @ o o @ o @ o @ @ @ * *                                   ",
"  * > . b Q.).(.).K. .&.<.2.q.q.e.q.q.e.3.S J I K o @ o o o o @ o @ @ @ @ @                                   ",
"% * # X g W.(./.).K.} &.-.2.0.e.q.e.w.r.3.L I Q L @ 2 - , $ # # $ @ @ @ * @                                   ",
"% @ = X d W.(.~.(.K. .=.%.2.y.s.p.u.t.e.2.n m D l . . . . . . . . X @ @ @ -                                   ",
"$ @ = X p Y.(.~.(.(.U.E.P.Y.E.Y.U.U.P.P.G.n.m.V.N.@.' X...W ! ^ / V . = @ # , # # @ @ = - 7                   ",
"$ * # X p E.(./.~.~.~.~.~.~.~.~././.~.~./.(.(.(.).t.3.q.4.#.o.o.%.U . - o o o o @ * * * : 9 a                 ",
"# @ = X p U.(./.~.~.!.~.!.~.T.!.!.!.!.!.!.~.!.!./.e.3.0.4.#.X.{ #.P . 3 - - - # # # # # * < p                 ",
"$ @ = . k Q.(.(.~.~.~.!.~.!.~.~.!.!.!.!.!.~.~.~./.q.3.q.4.#.#.X.#.S . . . . . . . . @ # @ < k                 ",
"$ @ * . k n.A.A.V.Y.~.~.~.~.~.~.!.~.~.!.~.~.~.~.~.F.Z.H.Z.1.{ #.#.E N G G C B b b s @ # # # 6 r >             ",
", o @ # o . . . . V.(.~.~.~.~.~.~.~.!.~.~.~.~.~.~./.(.~.(.q.F ] ^ a.F.F.D.z.3.6.3.%.X o o @ o o @ # o @ @ @ a ",
"2 o # o # 4 3 t . M.(.~.~.!.~.T.~.!.~.~.~.!.~.!.!.~.~./.(.p.L ../ f.I.F.I.V.3.2.3.%.. # # o @ @ @ @ @ @ # o M ",
"2 o o o o o # t . n.(.~.~.~.~.~.~.~.~.~.~.(.~.~.~.~.~.~.).j.m } ) a.I.H.I.Z.;.-.,.o.X % o o o o o @ @ # @ @ M ",
"& o O # # # # y . f.~.Q.Q.Q.^.^.Q.Q.Q.Q.Q.P.P.L.P.~.~.~.(.C.:.0.0.c.U.I.I.Z.1.,.2.@.. X o o o # o o @ @ = o M ",
"                    A A A A A V V V V n b g d . R (.(.(.~./././.!.!.T.T.Q.!.Q.Q.!.Q.m.5.0.5.5.5.0.` . , = @ c ",
"                    . . . . . . . . . . . X - . T /./././.!.!./.!.T.T.!.Q.!.!./.(.)./.h.u.u.u.r.f.#.. 3 * @ h ",
"                    & , % & & % % % % % % % w . ! /.~.~.~.~.~.!.!.!.!.!./.~././.).(./.z.u.u.u.r.u.o.. 3 = @ h ",
"                    O O @ o O @ + + + % # # w .  ._.(.(.(.(.~./././.!.!.!./.(.(.^.).(.z.g.f.u.r.a.o.. 3 = @ h ",
"                                                  2.2.2.,.P.(./.(.(.(.(./.(.~././././.!.Q.!.K.l.g.o.. 3 = @ i ",
"                                                  . . . . B.).(.(.(.(.(././.~.!./././.~.~.~.(.J.M.%.. 7 # @ w ",
"                                                  e e a . z.(./.(./.~.~.~.~.~./.~.~.!./.~.~.(.Y.D.%.. 4 @ = 1 ",
"                                                  * ; q . k.)./.(././.(.~./.!././.!.!.!.!.~.Q.M.M.<.. 4 # # & ",
"                                              q 4 @ * 7 . p.(./././.~./././.~.!.!.!.!./.!.(.V.6.r.$.. % @ @ + ",
"                              : > > < < @ @ @ = = @ @ 7 . B.(.~.~./.~.~.~.~.~.~.!.!.~./.!.(.V.6.y.@.. 2 # = , ",
"                              9 < < < * = @ @ # @ * @ 7 . B.(.~./.~.~./.~.~.!.T.T.T.!.!.!.(.f.o.3.' . , # @ , ",
"                            e 8 < < > = @ # @ @ @ 7 7 s . b.(.~.~.~./.~.!.T.T.T.T.T.T.!.T.(.r.' ;.^ . , # # , ",
"                    B x x z u 8 < < > = @ @ # # @ . . . . x.)./.(.~.~.~.!.~.!.!.!.~.~.~.~.(.y.' ;.' X = @ # , ",
"          + o # o 7 5 = = = = * = = @ # @ # # @ e p.l.k.s.E.(.~./.~.~.!.!.!.(.~.~.~.(.~.(.(.u.' <./ . # # @ , ",
"          = @ o * o o o @ o @ @ @ @ @ # # o > . S !.(.(.(.(.~.~.~.~./.!.!.~.~.~./.~.~.(.(.).u.' :.^ . , @ @ , ",
"          , o @ @ - 3 3 5 5 3 3 3 6 6 w 3 6 y @ S U.~.~./.~.(.~././.T.T.!.!.!.~.~.(.(././.(.r.' %.' . - @ @ 1 ",
"          , o o = . . . . . . . . . . . . . . . r P.~.~./.(.(./.~./.T.T.T.!.~.~.(.(.(.(.).).u.' -.} . @ o o = ",
"        u @ @ = . C [ [ ( ~ ~ ~ ~ ) ` ` ` ' ../ ..Y.(./.(.(.(.(.(.~.U.!.Q.U.L.L.L.K.K.K.A.K.0.R  .Y o w e t a ",
"  @ o @ @ @ @ 7 . 0.P.D.G.G.Y.!.~.~.(.(.(.(.(.(././.~./.(.(.(.(.).L.@.>.8. .o ; o X . . . . X o o o w         ",
"o * # o @ = - 0 . 0.G.V.V.Z.Y.!.!.!.~.~./.~.~.~.(.(.(.(.(.(.(.(._.E.` O.@.~ . $ @ # + % & 2 $ # , ,           ",
"# * @ @ @ o o 5 . 8.G.M.V.Z.Y.T.~.!.~.(.(.~.~.(.(.(.~.~.~./.(./.(.L. .@.&.| . % $ @ # o # @ # # # >           ",
"$ @ # @ @ 6 u k . 3.L.Z.H.H.Y.~.(.~.~.(.(.(.(.(.(.(.(.).(.)._._._.W. .+.&.} . = @ @ @ @ o % 2 % , 4           ",
"2 @ , . K L.P.U.P.Q.~.!.!.T.!.~.(.(.(.(.).(.).).(.s.p.j.p.t.i.t.t.,.g b b b     , $ $ &                       ",
"3 # 2 . I (.(.(.(.(.~.~.~.~.~.(.(.(.(.(.(.(.(.).(.R B F m . . . . . . . . X                                   ",
"4 @ 3 . K Q././.~.~.~.!.~.T.~.(.(.).).(.(.(.(.).^.O.T / R u t t w w + + $ ,                                   ",
"w @ , . D ^.(./.~.(.~.~.~.~.~.(.).(._.).(.).).(.).-.I / R # X @ X o o @ @ -                                   ",
"t @ % . v R.W.Q././././.T.T.I.J.L.L.W.Q.W.W.W.W.Q.=.J ^ R 3 X X X X o O + +                                   ",
"t o o @ o h V F ! / / W W U <.r.7.E , M c i 7 y d < = > 0                                                     ",
"t @ # o # o @ o . . . . o @ u j h 5 o o X o o o X o @ o =                                                     ",
"q o # o @ 1 6 0 0 w e q 0 e ; o o * - - - - * = = * @ * *                                                     ",
"& @ @ @ $ , , 1 1 , , , 5 1 1 5 2 $ @ = @ @ @ @ # # * @ *                                                     ",
"  t                                                     i                                                     "
};
