/* XPM */
static char *out[] = {
/* columns rows colors chars-per-pixel */
"50 55 163 2 ",
"   c None",
".  c #000000",
"X  c #01000C",
"o  c #050315",
"O  c #090416",
"+  c #0A0816",
"@  c #05011B",
"#  c #0A051A",
"$  c #070A1A",
"%  c #0D0A1C",
"&  c #110C1E",
"*  c #13111E",
"=  c #020021",
"-  c #0D0720",
";  c #0C0A23",
":  c #120C21",
">  c #0F1020",
",  c #141223",
"<  c #191523",
"1  c #1C1A25",
"2  c #141429",
"3  c #19142B",
"4  c #1C1B2B",
"5  c #1E1D31",
"6  c #201D26",
"7  c #211E2B",
"8  c #211E31",
"9  c #1F2130",
"0  c #25232C",
"q  c #28272F",
"w  c #29282B",
"e  c #252333",
"r  c #292632",
"t  c #2C2A33",
"y  c #232638",
"u  c #35333B",
"i  c #3A383D",
"p  c #202950",
"a  c #3B404A",
"s  c #3D445F",
"d  c #4D545D",
"f  c #484E62",
"g  c #545A63",
"h  c #505769",
"j  c #545B6D",
"k  c #585F69",
"l  c #505C71",
"z  c #57616B",
"x  c #5C646C",
"c  c #5E686F",
"v  c #5D6572",
"b  c #5F6973",
"n  c #5A677F",
"m  c #696967",
"M  c #61666E",
"N  c #6C6A6F",
"B  c #636770",
"V  c #656C73",
"C  c #686F76",
"Z  c #626C7C",
"A  c #696F7A",
"S  c #6A7179",
"D  c #667181",
"F  c #6D7889",
"G  c #7C7E85",
"H  c #707B8C",
"J  c #868684",
"K  c #8C8D85",
"L  c #83868B",
"P  c #88878A",
"I  c #85888D",
"U  c #89888C",
"Y  c #868990",
"T  c #8A8C91",
"R  c #888B98",
"E  c #8D9194",
"W  c #939697",
"Q  c #929398",
"!  c #939B9B",
"~  c #9A9A9C",
"^  c #9FA09E",
"/  c #9399A1",
"(  c #9A9EA5",
")  c #9AA4A4",
"_  c #9DA5AA",
"`  c #A6A6A4",
"'  c #A6AAA7",
"]  c #AAAEA3",
"[  c #A6A6A8",
"{  c #A2A9AE",
"}  c #A9ACAA",
"|  c #ADB2A6",
" . c #ACB1AD",
".. c #B3B6AC",
"X. c #B6BCAF",
"o. c #A5ADB2",
"O. c #AEAFB0",
"+. c #A7B1B4",
"@. c #AAB2B5",
"#. c #ADB5BB",
"$. c #AEB9BD",
"%. c #B4B5B4",
"&. c #B7B9B6",
"*. c #BCBDB4",
"=. c #B0B6BD",
"-. c #B4BABC",
";. c #BBBDBB",
":. c #C0BFB5",
">. c #BDC0BB",
",. c #C2C2B7",
"<. c #C3C4BC",
"1. c #C6C9BE",
"2. c #AFBAC1",
"3. c #B4BCC2",
"4. c #B8BEC3",
"5. c #B7C0C4",
"6. c #BBC0C4",
"7. c #BCC5CB",
"8. c #C2C5C3",
"9. c #C4C9C6",
"0. c #CACDC3",
"q. c #C1C7CC",
"w. c #C5CACA",
"e. c #C9CBC9",
"r. c #D0CFCE",
"t. c #CCD0C5",
"y. c #CED3CC",
"u. c #D3D6C7",
"i. c #D2D5CB",
"p. c #D6D9CD",
"a. c #DADBCB",
"s. c #CCD2D8",
"d. c #D4D5D3",
"f. c #D5D9D2",
"g. c #DADDD3",
"h. c #D6D5D8",
"j. c #DCDDD9",
"k. c #E0DFDC",
"l. c #DEE0CF",
"z. c #DEE1D1",
"x. c #DDE2DD",
"c. c #E1E4D5",
"v. c #E5E8D7",
"b. c #E8EBD7",
"n. c #E3E5DD",
"m. c #E5E9DA",
"M. c #E9ECDC",
"N. c #EFF3DF",
"B. c #F2F5DD",
"V. c #F4F9DF",
"C. c #E5E5E3",
"Z. c #E2E9E0",
"A. c #EBECE5",
"S. c #EEF1E2",
"D. c #F3F6E1",
"F. c #F6FAE5",
"G. c #F8FCE6",
"H. c #F4F5E9",
"J. c #F7FBE8",
"K. c #FCFEEC",
"L. c #EEF5F1",
"P. c #FEFFF3",
"I. c #FFFFFA",
/* pixels */
"          * $ % % % % % $ $ % % % % $ # # # $ O $ # $ # O o O O # $                                 ",
"          * + + O O + + % + % % % $ # # # % O $ # # # # # # # # # $                                 ",
"          * + + + + % % % % % % & % % & & % % % % % ; % + % - % & <                                 ",
"          * 0 w w 0 0 0 0 0 q 0 0 0 0 0 0 0 0 0 0 0 0 0 r 0 0 0 1 4                                 ",
"          q . . . . . . . . . . . . . . . . . . . . . . . . . . . X                                 ",
"  $ % * 1 . ~ >.*.<.<.<.<.<.<.<.<.1.1.1.<.1.<.1.1.,.*.*.*.&.*.,.i.` . 6 O + +                       ",
"> + O & & . n.I.P.P.P.P.P.P.K.P.P.P.K.P.P.P.P.P.P.P.P.P.P.P.P.P.P.r.. w O # # o                     ",
"> O O & * . f.P.F.G.G.G.F.G.G.G.G.K.J.J.J.J.J.J.J.J.G.G.G.F.K.G.P.0.. 0 & < <                       ",
"  O O * * . g.P.K.J.K.J.K.G.K.K.K.K.K.K.K.K.J.K.K.J.K.K.K.G.K.G.P.0.. t * & .                       ",
"  # O & , . f.P.K.K.K.K.K.K.K.G.J.K.K.K.K.K.K.K.K.K.K.K.K.K.K.G.P.%.. . . . 3 o                     ",
"  # O & , . g.P.K.K.K.K.K.K.K.K.K.K.K.K.K.K.K.P.K.K.P.K.K.K.K.K.K.c.0.d.d.C.h.r . % o X o           ",
"  # O * < . f.P.K.K.K.K.K.K.K.K.K.K.P.K.P.K.K.K.P.K.K.K.K.K.K.K.K.K.P.I.I.I.A.t . * o O O           ",
"  O + & < . f.P.K.K.P.K.P.K.P.K.P.P.P.P.P.K.P.P.P.K.P.K.K.K.P.K.K.K.K.K.J.K.n.= X & + O $           ",
"  O + * < . f.I.K.K.K.P.P.K.K.P.P.K.K.K.P.K.K.P.K.K.K.K.P.K.P.K.K.K.K.K.K.P.c.o w w 0 w 1           ",
"  # + & < . a.P.K.K.K.K.K.K.P.K.P.P.I.I.I.I.I.I.I.I.P.I.K.P.P.K.K.P.P.K.K.P.z.. . . . . .           ",
"  % % & < . f.P.K.K.P.K.P.K.K.P.P.8.[ ' ' ' ' }  . .} ^ A.P.P.K.K.P.K.K.K.K.A...*.,.,.1.m . 0 : %   ",
"  % + * < . d.I.J.P.P.K.K.P.K.P.P.N . . . . . . . . . . j.I.K.K.P.K.K.K.K.K.K.P.P.P.K.P.K . 6 @ @ $ ",
"  % % & 1 . i.P.K.K.K.K.K.K.P.K.P.L . i r r t t q t t . k.I.K.P.K.P.P.K.K.K.J.F.F.F.V.G.K . 6 @ # $ ",
"  % & & 6 . i.P.K.K.K.P.P.K.P.J.P.~ . r : - - - % : 1 . j.I.K.K.K.P.P.K.K.K.F.B.B.V.B.G.P . 6 = @ + ",
"  & % & 1 . i.P.K.P.P.K.K.P.K.P.P.[ . r - : : : : : 4 . C.I.I.I.I.I.K.P.K.K.J.F.D.V.B.G.J . 6 @ # % ",
"  : % : 1 . i.P.K.K.P.K.K.K.P.J.P.O.. r : : : # & : < . %.r.e.e.8.C.P.K.K.K.K.G.F.F.V.K.J . 7 @ - $ ",
"  : # , 6 . i.I.J.K.K.P.P.K.K.J.P.%.. r : : & : & & # , . . . . . 9.I.K.K.K.G.G.G.G.G.K.P . 7 @ @ % ",
"  , # * 1 . y.I.K.K.K.P.K.P.K.K.I.&.. e : : : ; & # # - 7 e r u . d.I.K.K.K.K.G.G.G.G.K.P . 6 @ - $ ",
"  : % % 6 . 0.P.K.K.K.K.K.P.K.K.P.&.. r : : : : & : & & 3 3 4 r . h.I.K.K.K.G.K.K.K.G.P.L . 0 @ # $ ",
"  , # & 6 . t.P.K.K.K.K.K.P.K.K.P.:.. r : : : & & : & & : : 6 8 . h.I.K.K.K.K.G.K.K.J.P.I . 0 @ @ % ",
"  : $ & 6 . 1.P.J.J.K.K.K.K.K.K.P.:.. r 3 : : & & & : : 3 3 8 r . d.P.K.K.K.K.K.K.J.F.P.I . 7 @ % $ ",
"  , # & 1 . | v.l.l.m.K.K.K.K.K.P.;.. r : : & : : : & : : 3 8 8 . h.P.J.K.K.K.K.K.K.J.P.I . 6 @ @ % ",
"  , # ; 6 . ] z.p.u.m.K.K.K.K.K.I.:.. r : : : & : - : : 3 3 8 8 . h.P.K.G.K.K.G.K.K.J.P.L . 0 @ % % ",
"  , # & 6 . | b.l.z.M.K.K.K.K.K.P.>.. 0 & : : : : : : : 3 8 7 8 . g.P.K.K.K.K.K.G.G.J.P.L . 4 @ # > ",
"  & + & 1 . ..M.c.c.M.K.K.J.K.J.P.*.. 0 & : & : & & & , 7 8 r 8 . j.P.K.K.K.K.K.K.K.F.P.L . 6 @ @ ; ",
"  & + & 1 . X.N.b.M.N.K.G.K.K.J.P.*.. 0 : : & : & : & * . . @ o . j.P.K.G.K.K.J.K.K.J.P.Y . 0 @ @ > ",
"  + + * 1 . >.K.B.F.F.G.K.G.K.K.P.*.. 0 & - & & & : 6 . %.a.i.i.i.H.K.K.K.K.K.K.K.J.J.K.T . 6 @ O % ",
"  # + & 6 . 0.P.G.K.K.G.K.G.K.G.P.:.. 0 & & & : & : 7 . 0.G.F.F.F.G.K.K.K.K.K.K.K.K.J.P.T . 7 = # & ",
"  & + & 6 . 0.K.G.K.K.G.K.K.K.G.K.:.. 0 % # # # # # 0 . *.F.B.B.B.G.K.K.K.K.K.P.K.H.J.P.E . 0 @ # % ",
"  % & & 6 . 1.P.G.K.G.K.K.K.K.G.K.<.. u e t e t t t i . %.K.D.D.H.F.K.J.K.K.K.K.K.K.G.P.Q . 8 @ @ % ",
"  & + & 0 . 1.P.K.K.K.K.K.K.K.K.P.*.. . . . . . . . . . } K.D.J.G.F.F.K.K.K.K.K.P.K.K.I.Q . 7 @ + o ",
"  % + & 0 . 0.P.K.K.K.K.K.K.K.K.P.0.G U L L P U U E Q U e.K.F.J.G.K.J.K.K.J.K.Z.j.x.Z.L.G . 4 @ @ o ",
"  & + & 6 . t.P.K.K.K.K.K.K.K.K.K.K.P.P.P.P.P.P.P.P.P.I.P.K.K.K.K.K.K.K.K.K.P.T p j z V y o & @ # + ",
"  & # & 1 . i.P.K.K.P.K.K.K.K.K.K.K.K.K.K.J.K.K.K.K.K.K.K.K.K.K.K.K.K.K.K.K.P.Q l D Z j 3 @ - @ @ o ",
"  + + , < . f.P.K.K.K.K.K.P.K.P.K.K.K.P.K.K.K.P.K.P.K.K.K.K.P.K.K.K.K.K.K.K.P.Q l D Z v 3 @ - # # o ",
"  % + * < . f.I.K.K.K.K.K.K.K.P.P.P.P.P.P.P.K.K.K.K.P.K.K.K.K.K.K.K.K.K.P.K.I.) n H F Z 3 o @ @ @   ",
"  : % : 1 . g.I.P.P.P.P.P.P.P.P.P.P.P.P.P.P.P.P.P.P.P.P.P.P.P.P.P.P.P.P.K.P.P.L s j j f 2 ; ; - %   ",
"  - % & 1 . } x.h.h.f.h.f.f.f.f.f.f.d.r.e.q.9.8.8.8.6.9.e.e.e.e.8.>.>.$.+.@.( = . . . . O           ",
"  % % % < . R -.#.=.#.=.#.$.#.#.#.#.#.#.#.@.#.+.+.o.{ o.o.o.{ { { _ _ _ _ _ R @ & & + + O           ",
"  % + , * . { w.6.6.6.6.4.5.5.4.4.4.4.3.3.3.3.2.3.2.#.#.#.#.@.@.@.#.+.+.+.@.! @ o O O o $           ",
"  ; $ : & . #.w.-.6.4.6.4.3.3.3.3.3.3.3.3.3.=.2.#.#.#.@.@.@.@.@.#.+.+.+.} @.( = @ O O o +           ",
"  % # : # . 4.s.q.q.7.7.7.7.7.7.7.7.7.5.3.5.4.3.3.2.2.#.$.$.$.$.$.#.2.#.@.$.) @ % # + O O           ",
"  , # & & X g B x M c V C S C C S C V c z x x x x x z z c c B b z k k k g g p ,   > * % %           ",
"  , # # # & . . . . . . . . . . . . . . . . . . . . . . . . . . . . . . . . .                       ",
"  : # # # # < 1 < 1 1 1 1 4 4 1 1 4 1 1 1 < 1 1 1 1 1 < < 1 2 1 < 1 < , , , %                       ",
"  % # # % # O # O # # # # # # + # # # # # # # O # # # # # # # # # # O O O @ @                       ",
"  % & # % % % + & # # & + + & # + % % # + + $ # % % + % % % # # $ # # @ # + @                       ",
"            % % : & # # # & % % + > > ; : & & & & & % : & , , : , , > < & # O                       ",
"            O & # & & - & : % % $ 2 4 3 2 , 4 7 8 8 0 4 4 4 4 8 4 4                                 ",
"            O % : # - # & & & % + 4 5 5 3 3 5 e e y 9 4 8 8 8 8 e 4                                 "
};
