/* XPM */
static char *out[] = {
/* columns rows colors chars-per-pixel */
"50 63 103 2 ",
"   c None",
".  c black",
"X  c #010000",
"o  c #000001",
"O  c #010101",
"+  c #020001",
"@  c #010102",
"#  c #000103",
"$  c #010103",
"%  c #030202",
"&  c gray1",
"*  c #060103",
"=  c #060203",
"-  c #050503",
";  c #020205",
":  c #040004",
">  c #060306",
",  c #070306",
"<  c #040404",
"1  c #040406",
"2  c #060606",
"3  c #090305",
"4  c #0B0306",
"5  c #01010A",
"6  c #070709",
"7  c #090608",
"8  c #070809",
"9  c #0B0B0C",
"0  c #131314",
"q  c #29171E",
"w  c #1B1723",
"e  c #242321",
"r  c #2F292B",
"t  c #352227",
"y  c #3E2B32",
"u  c #303133",
"i  c #31303B",
"p  c #36363E",
"a  c #37373E",
"s  c #423033",
"d  c #45393A",
"f  c #553031",
"g  c #5B3435",
"h  c #5B3636",
"j  c #523339",
"k  c #573538",
"l  c #5B3738",
"z  c #583A3D",
"x  c #4F4545",
"c  c #4A4A49",
"v  c #4A4A4B",
"b  c #564C4C",
"n  c #5B4F4F",
"m  c #5C5D5A",
"M  c #615556",
"N  c #78575E",
"B  c #795D5E",
"V  c #645F60",
"C  c #686967",
"Z  c #6D6D6B",
"A  c #6F706E",
"S  c gray44",
"D  c #777676",
"F  c #815D5F",
"G  c #835C62",
"H  c #866464",
"J  c #8C6C6C",
"K  c #8C6E6E",
"L  c #8F8E8A",
"P  c #9C8E8D",
"I  c #A8A8A2",
"U  c #B4ABA8",
"Y  c #BCB3AF",
"T  c #C4BAB5",
"R  c #C2BAB9",
"E  c #D7D0CA",
"W  c #DAD4CE",
"Q  c #DCD5D1",
"!  c #DED7D3",
"~  c #DADAD6",
"^  c #DED8D6",
"/  c gainsboro",
"(  c #DDDDDD",
")  c #E3E3D8",
"_  c #E6E5E3",
"`  c #EFEEE5",
"'  c #EEEEE8",
"]  c #EFEFE9",
"[  c #F2F2F0",
"{  c #FDFFF2",
"}  c #FEFFF3",
"|  c #FFFFF3",
" . c #FFFFF4",
".. c #FEFFF5",
"X. c #FFFFF5",
"o. c #FDFDF6",
"O. c #FCFDF7",
"+. c #FFFFF6",
"@. c #FFFFF9",
"#. c #FFFFFA",
"$. c #FFFFFC",
"%. c #FFFFFD",
"&. c white",
/* pixels */
"                                                                                                    ",
"                                                                                                    ",
"                                                                                                    ",
"                                                                                                    ",
"                                                                                                    ",
"                                                                                                    ",
"                                                                                                    ",
"                                                                                                    ",
"                                                                                                    ",
"                                                                                                    ",
"                                                                                                    ",
"                                                                                                    ",
"                                                                                                    ",
"                                                                                                    ",
"                                                                                                    ",
"                                                                                                    ",
"                                                                                                    ",
"                                                                                                    ",
"                                                                                                    ",
"                                                                                                    ",
"                                                                                                    ",
"                                                                                                    ",
"                    . . . . . . . . . :                                                             ",
"                    o . . . a v m C u @ >                                                           ",
"                    . c I ) ` ' ] [ L e ;                                                           ",
"                    . Z ~ $.| X. .@.Y b , O                                                         ",
"                    . A / &.{ | } o.T M 4 .                                                         ",
"                    . S ( &...+. .O.Y n * .                                                         ",
"                    . D _ &.#.$.%.&.U x X .                                                         ",
"                    . V R Q E W ! ^ P d + .                                                         ",
"                    o y N G F H J K B s 3 .                                                         ",
"                    5 q j k l h g f z t = .                                                         ",
"                    w . . . . . . . . . . .                                                         ",
"                    i 7 . . . . . . . . . $                                                         ",
"                      r 2 . . . . . . . 8                                                           ",
"                          1 < & % - 0 9                                                             ",
"                                                                                                    ",
"                                                                                                    ",
"                                                                                                    ",
"                                                                                                    ",
"                                                                                                    ",
"                                                                                                    ",
"                                                                                                    ",
"                                                                                                    ",
"                                                                                                    ",
"                                                                                                    ",
"                                                                                                    ",
"                                                                                                    ",
"                    . . . . . . . . . :                                                             ",
"                    o . . . p v m C u @ >                                                           ",
"                    . c I ) ` ' ] [ L e ;                                                           ",
"                    . Z ~ $.| X. .@.Y b , O                                                         ",
"                    . A / &.{ | } o.T M 4 .                                                         ",
"                    . S ( &...+. .O.Y n * .                                                         ",
"                    . D _ &.#.$.%.&.U x X .                                                         ",
"                    . V R Q E W ! ^ P d + .                                                         ",
"                    o y N G F H J K B s 3 .                                                         ",
"                    5 q j k l h g f z t = .                                                         ",
"                    w . . . . . . . . . . .                                                         ",
"                    i 7 . . . . . . . . . #                                                         ",
"                      r 2 . . . . . . . 6                                                           ",
"                          1 < & % - 0 9                                                             ",
"                                                                                                    "
};
