/* XPM */
static char *out[] = {
/* columns rows colors chars-per-pixel */
"50 69 217 2 ",
"   c None",
".  c #010101",
"X  c #090506",
"o  c #05040A",
"O  c #090509",
"+  c #06090C",
"@  c #0B0B0C",
"#  c #030805",
"$  c #160E09",
"%  c #1C0000",
"&  c #0F110F",
"*  c #16120E",
"=  c #060811",
"-  c #0C0D12",
";  c #040311",
":  c #110110",
">  c #100C11",
",  c #1B0F15",
"<  c #120E1B",
"1  c #0E1215",
"2  c #121313",
"3  c #171817",
"4  c #15171A",
"5  c #16181A",
"6  c #1C1C1C",
"7  c #1E1611",
"8  c #200C12",
"9  c #39001D",
"0  c #23171D",
"q  c #211B1D",
"w  c #29171E",
"e  c #1D1D22",
"r  c #221E22",
"t  c #2B1D23",
"y  c #271E2B",
"u  c #3D1F39",
"i  c #1F2122",
"p  c #232224",
"a  c #262429",
"s  c #2A232B",
"d  c #2B2D2E",
"f  c #282123",
"g  c #34252B",
"h  c #382A2E",
"j  c #2C2E31",
"k  c #3D2A32",
"l  c #342D34",
"z  c #2F3132",
"x  c #333434",
"c  c #3A3135",
"v  c #3B3639",
"b  c #3C3B3C",
"n  c #37383E",
"m  c #420829",
"M  c #52092A",
"N  c #451533",
"B  c #4A1F39",
"V  c #481C34",
"C  c #4A1031",
"Z  c #4A2336",
"A  c #422D32",
"S  c #542D3A",
"D  c #592537",
"F  c #43343B",
"G  c #453A3D",
"H  c #4B3B3E",
"J  c #483236",
"K  c #5A343D",
"L  c #53393E",
"P  c #57313C",
"I  c #61363E",
"U  c #3C3C41",
"Y  c #373944",
"T  c #522D42",
"R  c #4C3E43",
"E  c #4C3741",
"W  c #5B3441",
"Q  c #523D43",
"!  c #5C3B43",
"~  c #533E49",
"^  c #5A3748",
"/  c #632D40",
"(  c #683447",
")  c #633B44",
"_  c #643C4B",
"`  c #6B3C4E",
"'  c #613446",
"]  c #723D51",
"[  c #4D4144",
"{  c #464946",
"}  c #4A4B4B",
"|  c #444749",
" . c #534245",
".. c #54424A",
"X. c #5A424B",
"o. c #504E4E",
"O. c #4D514C",
"+. c #5D4E55",
"@. c #4E5550",
"#. c #535453",
"$. c #5D5856",
"%. c #644247",
"&. c #62444A",
"*. c #6C464D",
"=. c #65494E",
"-. c #664B51",
";. c #6B4C53",
":. c #674955",
">. c #714B54",
",. c #74495A",
"<. c #78485A",
"1. c #6C5257",
"2. c #64535B",
"3. c #6B535A",
"4. c #675C5E",
"5. c #755356",
"6. c #74545C",
"7. c #79545C",
"8. c #755A5D",
"9. c #7B595F",
"0. c #5E615E",
"q. c #61615F",
"w. c #6C5461",
"e. c #695C61",
"r. c #745A63",
"t. c #7B5D63",
"y. c #775460",
"u. c #636563",
"i. c #6A6668",
"p. c #756264",
"a. c #7A6165",
"s. c #7B666A",
"d. c #746C6D",
"f. c #7E6A6D",
"g. c #75636B",
"h. c #7B6C72",
"j. c #7F7176",
"k. c #815966",
"l. c #816265",
"z. c #82666B",
"x. c #85696D",
"c. c #836A66",
"v. c #8A6C75",
"b. c #886D76",
"n. c #827274",
"m. c #8E7B78",
"M. c #927A77",
"N. c #927978",
"B. c #89706C",
"V. c #878489",
"C. c #8C8A8E",
"Z. c #8A8586",
"A. c #978A8C",
"S. c #918E93",
"D. c #949493",
"F. c #999693",
"G. c #9C9997",
"H. c #9D9A9C",
"J. c #9C969B",
"K. c #97938F",
"L. c #A39D9C",
"P. c #A49895",
"I. c #AAA39E",
"U. c #9E9FA0",
"Y. c #A2A0A1",
"T. c #ABA7A7",
"R. c #B4ABAA",
"E. c #B1A3A3",
"W. c #BEB6AD",
"Q. c #B1ABB0",
"!. c #BEB9BA",
"~. c #BBB6B2",
"^. c #C1B6AF",
"/. c #C3BCBD",
"(. c #CABEBA",
"). c #C5B9B2",
"_. c #CDC3BF",
"`. c #CBC5B7",
"'. c #D1CCBF",
"]. c #C5BDC0",
"[. c #CBC4C4",
"{. c #CFCCCB",
"}. c #C9C5C4",
"|. c #D2CBCA",
" X c #D6C5C7",
".X c #DAD4CB",
"XX c #D7D5C9",
"oX c #D6D6D0",
"OX c #DDD6D1",
"+X c #DBDBD5",
"@X c #DEDCDA",
"#X c #E4DCD5",
"$X c #E4DEDA",
"%X c #DFE2D5",
"&X c #E4E3DB",
"*X c #EAE6DE",
"=X c #E7EBDD",
"-X c #EAECDD",
";X c #E3E0D7",
":X c #EAEBE3",
">X c #EAE7E4",
",X c #F3EEEA",
"<X c #F0EFE4",
"1X c #EBF1E4",
"2X c #E7F0E0",
"3X c #F2F5E5",
"4X c #F5F9E6",
"5X c #F5F6EC",
"6X c #F8F7ED",
"7X c #F6F9EB",
"8X c #FAFBEE",
"9X c #FAFEE7",
"0X c #F4F2F1",
"qX c #FAF7F4",
"wX c #F7FAF1",
"eX c #FCFCF2",
"rX c #FFFFFB",
/* pixels */
"                                                                                                    ",
"1 4 5 5 6 p p p p p p i i e 6 5 4 - f                 p # 3 p p 4 6 4 4 4 1 1 - + + O # + - & X a   ",
". . . . @ X @ X O O @ @ @ & . . . o e                 a . . . O @ + @ @ @ @ - - @ & o o o . . . p   ",
". . X . . . . . . . . . . . . o . o y b               z . X . . . . . . . . . . . . . o o o o . U   ",
". X . { q.$.0.q.0.u.u.i.i.i.} o - . y l 6             x . . i @.#.O.{ { { { O.O.@.O.d . . o o . U   ",
". 6 . ~.eX6XqXeXwXwXeXwX7XrXQ.u 1. .y : a             x . . b :XeX3X1X1X:X-X2X1X1X:XT.:.w.s . . n   ",
". 6 . I.rXqXqXeXwXeX8X5X5XeXU.E k.=.o X $ 5           z . @ . &XeXeX8X7X7X5X4X4X3X6XR.v.b.Y . . j   ",
". 6 . L.rXqXqX6XwXeXeXqX0XqXU.T 7.+.o . . 4 Y         i . 2 . %XeX5X9X7X7X4X4X4X4X<XE.x.v.E . X O   ",
". 6 . L.rXqXqXqXqX8X8XeX5XeXH.Z 6.! . . . e           - . 2 . %XrX6X8X9X9X4X4X4X4X3XP.z.b.~ . X .   ",
". 6 . L.rXqXeXeXeXqXqXeX5XeXD.B 7.~ . X . -           + # 3 . +XeX6X8X6X7X9X7X4X8X1XA.x.b.... X .   ",
". e . G.rXqXeXqX8XqXeX6XwXwXS.B 6.Q . X . O           o # 6 . +XrX6X8X9X7X7X4X4X9X:Xm.v.b.... X .   ",
". 6 . F.rXqXqXeXeX8X8XeX5XrXS.N 5.L . X . .           . . 6 . +XeX6X8X8X7X7X8X9XeX&XB.z.x.... O .   ",
". 6 . F.rXqXqXqXeX8XeX8XwXeXC.N >.H . X . .           . . i . oXrX6X8X8X9X8X7X7X8X&Xf.l.x. .. X .   ",
"O r . F.rXqXrXeXeXeXeX8X5XeXV.N >.J . X . .           o . p . oXrX6X8X9X9X8XwX7XeX&Xp.z.z.R . O .   ",
"o 6 . G.rXqXeXqXeX8XeXeX8XqXV.N -.A . . . .           o . q . +XeX6X8X8X8X9X8X4XeX&X8.z.z.[ . O .   ",
". r . L.rXqXeXeXeXeXeXeX8XqXV.B =.k . o . .           = . 6 . +XrX7X8X9X8X8X8X8XeX&X1.s.f.R . O .   ",
"o r . T.eXqXeXeXeXeXeXeXqXeXV.Z -.k . . . .           = o 6 . @XeX8X8X8X7X8X8X7XeX$X1.t.z.[ . O .   ",
"o r . R.rXeXeXeXeXeXeXeXqXeXZ.Z =.g . X . .           - . 3 . @XrX9X8X8X8X8X8X8XeX&X1.z.s.[ . O .   ",
"o r . Q.rX8XeXqXeXeXeXeXeXeXC.Z =.g . . . .           - . & . @XeX8X8X8X8XwXeXwXeX&X;.a.a.Q . # .   ",
". y . ~.rXqXeX8XeXeXeXeXeXrXC.B =.g . . . @         | 2 O # . &XrX8X8X8X8XwXwX7XeX&X1.t.a.[ . X .   ",
"o r . ~.rXqXeXeX8XeXeX8XqXrXS.V =.g . . . e         U - O . : @XeXeX8X8X8X8XeX7XeX&X;.a.a.Q . X .   ",
". r . /.rXeXeXeX8XeXeXeXqXrXU.m =.g . X . . U       z + @ . o >XeXeXeX8X8X8X8X8XeX&X;.t.p. .. X .   ",
". y . _.rXeXqXeXeXeXeXeXqXrXU.9 =.g . . . . . @ X @ . . & . d >XeXeXeX8X8X8X8X6XeX&X;.a.t.[ . O .   ",
". f . [.rXqXeXeX8XeX8X8XqXeXU.9 X.g # 2 & 2 & & & 2 3 3 6 . } ,XrXeX8X8X8XeX8X7XeX&X;.t.p.[ . # .   ",
". r . |.rXqXeXeXeXeXeXeX8XrXQ.M =.% . . . . . . . . . . . . #.0XeX8X8X8X8X8X8X8XeX$X;.t.p.[ . X .   ",
". f . |.rX6XeXeXeX8XeX8XeXeX5X*X*X&X=X&X=X=X&X=X=X&X&X&X&XoX}.eX8X8X8X8X8X8X8X9XeX*X-.9.a.Q . O . i ",
". p . |.rXqXeXeXeXeXeX8XeXeX8X8XeXeXeXeXeXeXeXeXeXeXeXrXeXeXeX8X8X8X8X8X8X8X8X8XeX$X=.8.r.[ . X . p ",
". q . |.rXeX8X8X8X8XeXeX8XeXeX8X8X8X8XeX8X8XeXeXeXeX8X8XeXeX9X9X8X8X8X8X8X8X8X7XeX$X) 8.8.R . O . p ",
". r . |.rX6XeX8X8XeXeX8X8X8X8X8XeX8XeXeX8XeXeXeXeXeXeXeXeXeX8X9X8X8X9X8X8X8X8X8XeX$X! 8.8.R . # . a ",
". q . |.rX6XeX8X8XeXeXeXeXeXeX8XeXeX8X8X8X8XeXeXeXeXeXrXeXeX8X8X8X9X8X8X8X8XwX8XeX#X) 8.8.H . X . p ",
". r . |.rX8XeXeX8XeXeX8X8X8XeXeX8X8XeXeXeX8XeXeXeXeXrXeXeXeX8X8X8X8X8X8X8XwX8X8XeX#XL 5.1.R . X .   ",
". p . {.rXqX8X8X8XeX8XeXeXeXeX8XeXeX8XeXeXeXeXeXeXeXeXeXeXeXeXeXeXeXeX8X8XwXwX7XeX#XP 8.1.R . X . d ",
". i . [.rX8XeX8X8XeXeXeXeXeXeXeXeXeXeXeXeXeXeXeXeXeXeXrXeXeXeXeXeX8XeX8X8XeX8X8XeX#XP 6.6.H . X .   ",
". q . }.rXeXeXeXeXeX8X8XeXeXeXeXrXeXrXeXeXrXrXeXrXeXrXeXrXrXeXeXeX8X8XeX8X8XwX5XeX#XS >.1.G . X .   ",
". r . }.rXqXeXeXeXeXeXeXeXeXeXrXeXrXeXrXrXrXeXrXeXrXrXeXeXeXrXeXeXeXeX8XeXwX8X8XeX+XS 6.1.H . # .   ",
". r . [.rX8XeXrXeXeXeXeXeXrXeXrXrXeXrXrXrXrXrXrXeXrXeXrXrXrXqXrXrXeXeXeX8X8XwX8XeXOXS ,.1.H . X .   ",
". r . [.rXqXeXeXeXeXeXeXeXrXrXrXrXrXrXrXrXrXqXrXrXrXrXrXrXrXqXrXeXeXeX8XwX8X8X7XrXOXP 6.3.R . X .   ",
". p . [.rXeXeXeXeX8XeXeXeXrXrXrXrXrXrXrXrXrXrXrXrXrXrXrXrXrXrXrXeXeXeXwXeX8XwXwXeX#XK 8.8.R . X .   ",
". r . }.rXeXeXeX8XeXeXeXeXrX0X0X0X0X0X0X5X5X0X0X0X0X0X,X>X@XoXqXrXeXeX8XeXwXwX8XeXOXW 6.r.R . X .   ",
". r . }.rXeXeXeXeXeXeX8XeXeXZ.3.h.f.f.f.s.s.a.p.p.a.p.e.t.L Z.rXwXwXeX8X8X8XwX8XeXoX! 6.8.R . X .   ",
". f . }.rXeXeXeXeXeX8X8XeX6Xn.-.8.,.,.8.,.6.>.5.5.9.9.8.l.*.L.rXwXwXeXwXwX8XwX7XeXOX! y.r.R . X .   ",
". r . /.rXeXeXeX8XeXeX6XeX,Xn.>.y.8.7.7.7.7.5.5.5.5.5.8.9.I L.rXeXeX8XeX8X8X8X7XeX+X%.t.r.R . . #   ",
". f . ].rXeXeXeX8XeX8X8X8X,Xn.*.k.5.>.;.>.=.-.-.;.-.1.:.1.V P.eXqXeXeX8XeX8XwX4X6X#X%.8.t.R . X #   ",
". r . ].rXeXeXqXeXeX6X8XqX,Xz.) &.g g s t w q w 0 0 r t h . K.eX6X8XeX8XwX5X8X8XeX#X=.6.r.G . O .   ",
". a . ].rXqXeXqX8XeX6X6XeX:Xd.%.L . . . . . . . . . . . 3 . D.rX6XeX8X8XeX8X8X5X8X;X*.8.r.E . . #   ",
". f . /.rXrXeXeX8X8X6X6X6X=Xd.%. .. $ . . . # . # . . . 6 . D.rX6XeXeX8X8X6XwX5X8X#X;.8.r.F . X .   ",
". f . !.rXqXeXeX8XeX8X6XqX:Xd.' L . . . . . . . . . . . 5 . F.rXeXeX8X6X8X5X8X4X8X#X5.y.r.F . . .   ",
". a . !.rXeXqXeX8XeX6X6X6X&Xi.) L . X . . . . . . . . . 6 . J.rXeX6X8X7X8X4X7X4X8X&X;.y.r.v . O .   ",
". s . !.rXqXeXqX8X8XqX4XqX&Xe.) L . X . . . . . . . . . 6 . H.rXeX8X8X8X5X7X7X4X6X#X1.6.w.c . X .   ",
"X s . }.rX6XeXqX8X6X6X5X6X&Xe.) L . X . . 2 e 6 6 3 . . 6 . L.rXqXqX9X7X5X7X4X4X8X$X6.y.r.c . X .   ",
"o s . [.rXqXqX8X6X6X6X4X6X+X2.S A . . . .           | . 6 . Y.rX6X8X5X8X8X4X5X7X6X&X8.r.e.c . . .   ",
"O s . |.rX6X8X8X8X6X8X6X6X&X2.S A . . . .             + 6 . Y.rXeX9XeX5X8X5X5X5X7X&Xa.w.r.c . O .   ",
"o y . |.rXqXeX6X8X8X8X5X6X$X4.S A . . . .             O 5 . Y.rX6X8X8X7X7X6X4X5X7X;Xa.r.g.v . . .   ",
"O y . |.rX6X8X6X8X6X5X5X8X&Xw.W A . # . .             o 5 . U.rX6X8X8X7X7X4X5X5X5X&Xt.r.h.b . X .   ",
". r . |.eX5X6X6X6X6XwX5X5X$Xp.W A . X . .             o 6 . Y.rX6X9X6X7X5X5X5X4X3X#Xp.p.j.n . O .   ",
"o 0 . R.rX6X6XqX8X5X5X4X5X@Xi.! A . . . .             . 6 . I.rX6X6X9X6X5X4X3X2X3X|.$.+.e.s . X .   ",
". 6 . S.eX8XeXqX8X8X8X6XeX*Xh.! J . . . .             . 6 . C.rX6X9X7X9X9X3X-X%X%XW.[ c s $ . . X   ",
". $ . g. X_.(.(.(.(.^.^.^.E.r.! J . X . .             . & . o.|..X.X.X|.'.'.`.`.W.P.R g y O . . X   ",
". X . E k.] ` ( ( I D D M M W ! J . . . .             . . . . 8.c.B.N.N.M.M.M.M.m.c.L w , o . . $   ",
". . . Z k.] ] ` ` ` ` ` ` _ _ ^ J . . . .             . X . t *.) I I I %.%.%.*.%.%.J , - . . . $   ",
". X . g y.,.<.<.,.,.,.,.,.:.:.:.G . . . .             = . . t >.>.>.>.>.>.*.*.*.%.%.J 8 o . . . $   ",
". . . f 2.w.w.w.w.w.w.3.:.+.X.+.U . . . #             1 . . 0 ~ Q Q X.X.X.%.X.Q E G k , o . . . 7   ",
". . . . . = = = = = o = o o o . . . . . &             6 . . . . . . . . . . . . . . . o o . . . 7   ",
". . . . . . . . . . . . . . . . . . . .                 . . . . . . . . . . . . . . . . . . 5 d q   ",
". . . . . . . . . . . . . . . . . . . .                 v . . . . . . . . . . . . . . . o . j       ",
"; o . . . . . . . . . . . . . . . . . 2                   @ . . . . . . . . . . . . . . . #         ",
"< . . . . . . . . . . . . . . . . . . 4                   @ . . . . . . . . . . . . . . . .         ",
"Y d e e 5 5 4 6 5 3 3 4 @ @ O . . o . 5                   . . . . . . . . . # X O O . X O @         ",
"                                                          d d d x n x z d                           "
};
