/* XPM */
static char *out[] = {
/* columns rows colors chars-per-pixel */
"50 71 181 2 ",
"   c None",
".  c #000000",
"X  c #00000B",
"o  c #050115",
"O  c #090416",
"+  c #0C0917",
"@  c #05021A",
"#  c #09041A",
"$  c #05081B",
"%  c #0C0A1C",
"&  c #110D1D",
"*  c #13121E",
"=  c #000023",
"-  c #090521",
";  c #0C0A21",
":  c #00002C",
">  c #110D21",
",  c #0F1121",
"<  c #141324",
"1  c #191624",
"2  c #171923",
"3  c #1C1A25",
"4  c #151328",
"5  c #18142C",
"6  c #1D1C2A",
"7  c #000033",
"8  c #1E1F34",
"9  c #191337",
"0  c #201E27",
"q  c #211E2B",
"w  c #221E33",
"e  c #24232C",
"r  c #28272E",
"t  c #29282F",
"y  c #252432",
"u  c #282532",
"i  c #262936",
"p  c #2A2932",
"a  c #25233C",
"s  c #2A243E",
"d  c #262939",
"f  c #2E2C3D",
"g  c #302F32",
"h  c #2E303B",
"j  c #31313B",
"k  c #272A40",
"l  c #2E2D42",
"z  c #2A284D",
"x  c #312F41",
"c  c #333344",
"v  c #3C3B44",
"b  c #333449",
"n  c #3A364F",
"m  c #3B3B4C",
"M  c #3B3643",
"N  c #2F2E53",
"B  c #322B52",
"V  c #3A3653",
"C  c #3D3C57",
"Z  c #433E47",
"A  c #413F49",
"S  c #3F405B",
"D  c #44444C",
"F  c #49464E",
"G  c #47484F",
"H  c #4B4B4C",
"J  c #414345",
"K  c #434453",
"L  c #494750",
"P  c #464954",
"I  c #4B4C51",
"U  c #42425C",
"Y  c #4B4C5B",
"T  c #4F5356",
"R  c #4E505D",
"E  c #515356",
"W  c #52555A",
"Q  c #565A5B",
"!  c #595C5E",
"~  c #444260",
"^  c #4F5060",
"/  c #525460",
"(  c #555862",
")  c #5B5D62",
"_  c #58576F",
"`  c #5C5D6A",
"'  c #5E5975",
"]  c #605F64",
"[  c #5F6265",
"{  c #5E6169",
"}  c #616165",
"|  c #64656C",
" . c #676A6E",
".. c #69696C",
"X. c #636472",
"o. c #656971",
"O. c #6A6C73",
"+. c #6C6F78",
"@. c #706F73",
"#. c #6F7174",
"$. c #6F727C",
"%. c #727176",
"&. c #71747D",
"*. c #7A797F",
"=. c #76797B",
"-. c #727681",
";. c #737788",
":. c #7C7A85",
">. c #7D8084",
",. c #828186",
"<. c #85858A",
"1. c #89898D",
"2. c #818594",
"3. c #949697",
"4. c #969B9A",
"5. c #9A9D9D",
"6. c #8E97A0",
"7. c #8F9BA6",
"8. c #949CA5",
"9. c #999EA9",
"0. c #96A0A8",
"q. c #9CA4AC",
"w. c #9EA6B1",
"e. c #A3A5AC",
"r. c #A2AAAE",
"t. c #ABABAB",
"y. c #A4A6A5",
"u. c #A5ABB3",
"i. c #A9AFB2",
"p. c #A7B0B2",
"a. c #ABB3B5",
"s. c #AEB8B7",
"d. c #AFB5BA",
"f. c #B6B6B7",
"g. c #B5B9B5",
"h. c #B1B7BC",
"j. c #B3BBBB",
"k. c #BCBDBA",
"l. c #BBC1BC",
"z. c #B5BCC1",
"x. c #BEC4C6",
"c. c #BCC2CA",
"v. c #B4C0C2",
"b. c #C3C3C1",
"n. c #C8C7C5",
"m. c #C7C8C7",
"M. c #CDCDCC",
"N. c #CACAC6",
"B. c #CFD1C6",
"V. c #D7DACE",
"C. c #DADBCC",
"Z. c #DADED5",
"A. c #D7D7D8",
"S. c #DDE1D4",
"D. c #DFE4DA",
"F. c #E2E3D4",
"G. c #E8EAD5",
"H. c #E3E4DA",
"J. c #E8E7DE",
"K. c #E6E9DA",
"L. c #E9EBDC",
"P. c #EFF2DF",
"I. c #F4F7DC",
"U. c #F4FADD",
"Y. c #F3F9D5",
"T. c #E5E7E4",
"R. c #E6E8E1",
"E. c #EAEDE5",
"W. c #ECEEEA",
"Q. c #EDF1E4",
"!. c #EFF1EC",
"~. c #F1F3E5",
"^. c #F6FBE4",
"/. c #FAFDE5",
"(. c #F2F5EA",
"). c #F6FAEB",
"_. c #FBFEEB",
"`. c #F6FAF2",
"'. c #FEFFF2",
"]. c #FDFFFB",
"[. c #F4F5F5",
/* pixels */
"            e 2 6 0 3 6 2 2 2 2 2 5 3                         6 < < ; * % % % % % $ + 2             ",
"            % o o o o o o O o o X o o                         o o o @ @ @ # # o @ o o 2             ",
"            < @ # % % % # % + % % % <                         # @ # # - @ # @ @ - @ - 8             ",
"            0 3 3 3 3 6 < # % # % $ <                         1 2 1 1 1 6 6 6 e w q w 8             ",
"            @ X X . . X o % % % % % 6                         o + + + o X . . . . . . o             ",
"            e @ & 1 e 3 o % > % % ; 8                         . . . . . # 6 p M S M J p             ",
"% O o < o . m.T.D.F.H.J.g.o x d i c y e f         % O @ * . E Z.C.C.C.C.F.F.G.G.G.G.J.=.. p = ; % @ ",
"% @ @ 1 o . H.].'.'.'.'.V.: V m n U f e m m       % # O 3 . } _././././.U././././././.#.. u o @ - o ",
"& O O < @ . Z.'./././._.V.7 V A U ~ k e m         + # # 0 . ] ~.U.U.U.U.I.I.I.I.I.Y.P.{ . e o @ $ $ ",
"& O O 1 O . Z.'./._._.'.V.7 C C C U a e v         & # @ 1 . ] (./.U././.^.U.I.I.I.Y.Q.{ . e o - @ @ ",
"& # # 3 o . Z.]._._./._.B.X B z z N 9 d           & O O 0 . ] ~.U./.U./.^.U.^.U.U.U.Q.` . e o # @ # ",
"& O # 3 @ . Z.'./._./.'.V.' ' ~ Y _ Y % j         & O O 1 . ] /./.U././.^.^.^.^.U.U.~.` . 8 o # @ $ ",
"& # # 0 o . S.'./._._._._.(.W.E.L.`.i.. 1 + + o + @ @ O 1 . ] )././././././.^.^.^./.Q.{ . e @ # - % ",
"& # # q o o S.'._._._._._._._._._.'.t.. 0 X o o O O O o 3 . ] )././././././._._./.^.!.{ . e @ # @ $ ",
"& # - q X < F.'./._._._._._._./.^._.t.. * X X o o o O o 3 . ] )./././._././././.^./.!.) . q @ @ @ $ ",
"& # - 0 . u H._./._._._._._._._./.'.t.. g r e e 1 o # o 0 . ] )././././././././././.!.) . e o - $ $ ",
"& # # q . j J._./._././._._./._./.'.e.. . . . . . & o o 1 . | './._./._._._._._._./.(.( . q O @ - $ ",
"& # # q . m L._././._._._._._._./.'.f.M Q E I ] D . & o 3 . | )./././._./._._._.).'.(./ . q o # $ - ",
"+ O # r . L Q._._._._._._._._._././.(.~.~.(.~.`.a.. t o 1 . ..)././._._./././._./._.!.W . q O @ - $ ",
"& O # q . I Q._./._._._./._./._././._._._._.'.'.b.. r O 3 . .._._._._._._._._._./._.(.Y . q @ # $ $ ",
"& O @ r . I Q._./._._._._././._._./._._._._./.'.b.. r + 3 . | _._./._._._._._./._._.!.Y . 6 o # - @ ",
"& # @ u . I ~._./._._._._._._._._._._._._._._.'.b.. e O 3 . @.'./._._._._._./._./.'.W.P . 6 @ # - $ ",
"& O @ e . I E._./._._._._._._._._._._._._._._.].b.. r # 3 . %._./._./._._._._._._._.W.K . 6 @ # @ @ ",
"& # @ r . I ~._._._._._._._._._._._._._.'._./.].n.. e + 0 . %.`./._./._._._._._._._.!.K . 6 @ # @ # ",
"& # O r . T Q._._._._._._._._._._._._._._.'._.].m.. e % 6 . *.'._._._._._._._._./._.W.S . 3 o @ $ $ ",
"# # O r . E ~._._._._._._._._._._._._._._._./.'.M.. 0 > e . ,.'./._._._._._._._._._.!.S . 3 o # @ @ ",
"O # O e . W ~._././._._._._._._._./._._._._./.'.M.. e 4 y . <.'._._._._._._._./._.).!.K . 3 # # @ o ",
"O # O e . W ~._._._._._._._._._._._._._._._./.'.M.. t u j . <.'._._._._._._._._._./.!.U . q o # - $ ",
"O + O e . W (._./._._._._._._._._._._._._._./.'.M.. . . . . :.'._._._._._._._._./._.!.Y . 6 @ # @   ",
"# + O r . Q (._._._._._._._._._._._._._._._./._.G.k.k.k.k.f.A.'._._._._._._._._.)._.!.^ . q @ @ @   ",
"# + # r . ! (._._._._._._._._._._._._._._._._.)._.'.'.'.'.].'._._._._._._._._./._._.!.^ . q @ @ #   ",
"O & O r . ! ^._./._._._._._._._._._._._._._._./._./.^.^./././._./._._._././._././._.W./ . q @ @ -   ",
"O + o u . ) (._._._._._._._._._._._._._./._._._./././././._._._._._.)./._._._._./._.!.^ X 6 o @ #   ",
"o % O r . ) /._._._._._._._._._._._._._._._._._._._._._._._._._._._._./././.)./.^.).!.^ . 6 o # #   ",
"O + O p . ) (._./._._._._._._._._._._._._._._._._._._._._._._._./.)._._././._./._.).!.R . 0 o @ #   ",
"# # o p . [ /._._._._._._._._._.'._._.'._._._._._._._.)._._./._._._./._._._._./._./.!.P . 6 o # -   ",
"+ # @ p . ` )._._._._._._._._._._.'._.'._._._._._._._._./._._._.)._._._._._._./._.).!.K . 6 O # -   ",
"# + O t . ] )._./._._._._./._._._._._._.`._._._._._._._._._.(._._._.)._._.).)./._._.!.S . 6 o # #   ",
"O % o t . ] )._._._.'._._.'.'._._.'._.`._._._._.'._._._._._./._._._._.).)._./.).)._.W.m . 3 o @ -   ",
"# % o t . ] )._._._._._._._._._._._._.'.'.'.'.'.'._._._._._././.)././._._._./._././.W.m . 3 O # @   ",
"+ + O r . } )._._._._._._._.).).).)._.`.!.!.E.E.(.'._._._._._._._./.)._._._.)._.(._.W.c . 1 @ @ -   ",
"+ # O t . } _.'._._._._._._._.^._.Q.1.$.o.{ ( d y.'._._._._._._._._._._._.)./._./._.E.l . 3 o # -   ",
"# & @ t . } (.'._._._._._._./._.'.R.s . : = 9 . 3.'._._._._._._./.)./.)./._._./.)._.E.f . 1 O # #   ",
"% # @ p . ` _._._.'._._._./.)._._.R.( a m j S $ 5.'./._._._._._._._._._._._.)._./._.E.l . 3 @ # -   ",
"# + @ r . ) )._._._.'.'.)._._.)._.E.W = f w b X 4.'._._._._._.'._._._././._._._.)._.E.c . 3 O @ -   ",
"& + # r . ) (.'.'._._._.)._.)._._.E.( o f 8 x . 5.'._._._._._._._._._./._._._./.)./.E.b . 1 O # #   ",
"O + @ r . Q ).'.'.'.'._._._./.)._.!.! . e 4 p . :._._._._./._./._._._._._./._.(./.).W.b . 1 @ # #   ",
"+ + @ r . Q (.'._._.'._.'.).).).).E.E . 1 o e . ` (._././._._./._._._._._.)._._._._.W.b . 3 @ @ ;   ",
"# O @ r . W ~.'._.'._.'._.'.).).).E.G . 3 O e . ..(._././._._.)._._._._._._.)._._._.W.b . 6 O # #   ",
"& O O r . W )._._._.'._._._.)._.'.E.D . 3 o e . #.)./././.)._._._._._._._._./._.)./.E.b . 3 O # #   ",
"& O @ r . W (._.'._.'.'.'._.)._.'.E.F . 3 O e . O.(./././._._._._._._._._._.)././._.W.b . 1 o @ #   ",
"+ # @ r . W (.'._.'._.'._.)._.).'.W.L . * O e . | (._./._._._._._.'._._._._._._.)._.W.b . 1 O # @   ",
"+ O # r . Q (.'._.'._.'.'._.'.)._.W.L . * o 0 . I H.I.L.L.E.W._._.'._._._._._.'._._.W.b . 3 @ O #   ",
"+ O @ r . Q (._.'._.'._._.)._.).'.W.L . 0 O O O o J H D H j X.(.'._._._._._._._./._.W.b . 3 o @ #   ",
"+ # # r . ! ~.'._.'.'.'.'.'.'._._.E.F . * + O O o . . . . . U [.'.'.'._._._._.'._._.E.b . 3 o O @   ",
"+ O O r . ! ).'.'._._.'._._.).).'.E.Z . 3 O O O # e r e g X X.]._._.'._.'._._._._.'.E.b . 1 o O #   ",
"O # @ r . [ ).'.)._._.'.'.`._.).'.T.c . 1 # # # # # # @ 1 . X.`._._._.'._._._._._.'.E.c . 1 O O #   ",
"O O @ r . [ `.'.'.'.'.'.'._._._.'.R.f . < o o X o # # # 6 . X.`._.'._._.'._._._./._.E.b . 1 O @ @   ",
"O O @ r . [ (.`.`.).).`.`.`.'.).].T.i . 6 2 1 6 3 O # o 1 . X.].'.'.'.'.'.).'.).).'.T.x . 1 @ @ #   ",
"& # @ 1 . h p.l.g.j.s.s.a.s.s.a.z.w.@ ; j         & X O > . K b.l.j.j.j.j.j.j.j.j.z.u.5 X > @ + #   ",
"+ O O < . i p.s.a.a.p.w.q.0.8.6.7.;.@ 4 c         % X O & . D i.r.r.w.u.r.u.u.u.u.u.9.= o % # O #   ",
"+ O O 3 . j a.l.s.s.a.p.p.w.q.0.u.>.o 4 c         # o o < . Y j.t.p.p.p.p.p.a.u.a.a.q.= X % o o #   ",
"O O O 3 . S h.l.s.s.a.p.r.q.q.0.w.>.o 4 c         o o o & . R z.p.p.i.p.p.u.u.a.u.a.q.$ o % o % #   ",
"o @ O 6 . P c.x.v.j.j.s.a.p.q.q.w.>.o 4           @ o o > . Y c.j.j.d.j.d.d.d.d.a.z.w.X o & % o o   ",
"& O # & X e ..O.O.O.O.| | { ) ( ( Y $ 6           # o @ % 4 h -.&.&.&.&.+.o.| o. .o.` o # % o O $   ",
"q @ # @ & X . . . . . . . . . . . . o 6                     4 . . . . . . . . . . . . $ # # % o %   ",
"5 # # + o + e 0 0 0 0 0 3 0 3 3 1 < o 6                     6 3 3 0 3 3 3 0 6 0 0 0 3 o # # # % %   ",
"> ; # @ # # o o o o o O o o O o o o @ 6                     6 o O o o o o O o o o o O # + # % # $   ",
"; # $ O # # o o @ + O O O O O # O O O 6                     y o # O O O O O O O @ O + # + # # # %   ",
"; ; % $ % % # % # + # # + # # # + O # 6                     w o $ # # # @ # # # # + # # & ; % % %   ",
"  6 8 5 6 6                                                     % , , < < % % % % %                 "
};
