/* XPM */
static char *out[] = {
/* columns rows colors chars-per-pixel */
"50 77 224 2 ",
"   c None",
".  c #010101",
"X  c #0A0606",
"o  c #05050A",
"O  c #0B060A",
"+  c #050B0D",
"@  c #0C0A0B",
"#  c #050A04",
"$  c #110D0E",
"%  c #160204",
"&  c #12120E",
"*  c #0C0C12",
"=  c #070716",
"-  c #120E12",
";  c #180F13",
":  c #141314",
">  c #1A1416",
",  c #141419",
"<  c #1C1C1D",
"1  c #1A131A",
"2  c #250913",
"3  c #201C1E",
"4  c #3A1719",
"5  c #290700",
"6  c #1D1E21",
"7  c #1A1B2F",
"8  c #08082B",
"9  c #231D21",
"0  c #2C1F25",
"q  c #361825",
"w  c #1C2028",
"e  c #232323",
"r  c #2A2121",
"t  c #242429",
"y  c #26292A",
"u  c #2A2B2C",
"i  c #2D262A",
"p  c #30292C",
"a  c #38292D",
"s  c #39342E",
"d  c #232536",
"f  c #2B2C31",
"g  c #21243F",
"h  c #352E31",
"j  c #3C2D31",
"k  c #2E3134",
"l  c #323234",
"z  c #3A3334",
"x  c #343439",
"c  c #3D3638",
"v  c #363839",
"b  c #3A3A3B",
"n  c #451F1E",
"m  c #42001E",
"M  c #431F21",
"N  c #4C2A33",
"B  c #453B3E",
"V  c #483738",
"C  c #53383A",
"Z  c #472C29",
"A  c #3F413F",
"S  c #4B433B",
"D  c #51403E",
"F  c #353544",
"G  c #4A3E41",
"H  c #573B42",
"J  c #633B45",
"K  c #6C3E55",
"L  c #673E53",
"P  c #3C4249",
"I  c #3A4046",
"U  c #434244",
"Y  c #4B4344",
"T  c #4A494A",
"R  c #54454A",
"E  c #554A4D",
"W  c #594A4E",
"Q  c #594547",
"!  c #484A56",
"~  c #5C4D51",
"^  c #5C4650",
"/  c #5D5C5D",
"(  c #585356",
")  c #63464C",
"_  c #6B444A",
"`  c #644B4D",
"'  c #6C4B4C",
"]  c #694746",
"[  c #714F4A",
"{  c #67544E",
"}  c #76534E",
"|  c #6E4153",
" . c #624D53",
".. c #674854",
"X. c #734B53",
"o. c #635255",
"O. c #6B5354",
"+. c #65565C",
"@. c #6C535C",
"#. c #6C5B5E",
"$. c #6A5D56",
"%. c #745555",
"&. c #72555B",
"*. c #745B5D",
"=. c #795C5D",
"-. c #7C5858",
";. c #6F625E",
":. c #5A5C62",
">. c #595767",
",. c #6C5C61",
"<. c #725C61",
"1. c #7B5D63",
"2. c #7E5965",
"3. c #686568",
"4. c #736263",
"5. c #7B6465",
"6. c #7C696A",
"7. c #766A68",
"8. c #79756F",
"9. c #6B6D72",
"0. c #7C6D71",
"q. c #737479",
"w. c #7A7978",
"e. c #815C6C",
"r. c #815D60",
"t. c #856B6B",
"y. c #886266",
"u. c #946166",
"i. c #88726E",
"p. c #8A6C72",
"a. c #837374",
"s. c #8E7471",
"d. c #8E7979",
"f. c #957878",
"g. c #B3787C",
"h. c #A26A77",
"j. c #8D847C",
"k. c #85807A",
"l. c #94837D",
"z. c #777882",
"x. c #B87D81",
"c. c #7A8185",
"v. c #7F848A",
"b. c #8D8E8E",
"n. c #868789",
"m. c #958C89",
"M. c #968885",
"N. c #99908B",
"B. c #91918A",
"V. c #8C8D95",
"C. c #93949B",
"Z. c #9C9996",
"A. c #89909A",
"S. c #A7898B",
"D. c #B38886",
"F. c #BA8489",
"G. c #BD848A",
"H. c #A29794",
"J. c #A29B96",
"K. c #AC9392",
"L. c #AAA49A",
"P. c #B8A89D",
"I. c #9B9DA3",
"U. c #A5A4A4",
"Y. c #AAAAA5",
"T. c #A9AAA9",
"R. c #B1ACA4",
"E. c #B8ADA8",
"W. c #ABB1AB",
"Q. c #BCB4AD",
"!. c #B4B3AB",
"~. c #AEB2B2",
"^. c #B7B6B5",
"/. c #C5979A",
"(. c #C89FA0",
"). c #C8A6A2",
"_. c #D4A8A8",
"`. c #C4BCB5",
"'. c #C7BCB7",
"]. c #D7B5B4",
"[. c #C0B3A6",
"{. c #C4C3BC",
"}. c #CAC4BE",
"|. c #CDC6B7",
" X c #D9C5BD",
".X c #C9C6C2",
"XX c #D2CBC4",
"oX c #D2CFC9",
"OX c #D7C9C0",
"+X c #D4D4CC",
"@X c #DDD9CE",
"#X c #D7D3CA",
"$X c #D9D7D4",
"%X c #DDDAD5",
"&X c #DCDDDB",
"*X c #D4D3D3",
"=X c #E0CBC4",
"-X c #E3D7C9",
";X c #E2DEDD",
":X c #E4DAD4",
">X c #F4D7D5",
",X c #E3E2DC",
"<X c #EAE6D7",
"1X c #F4E7DD",
"2X c #E3E3E1",
"3X c #ECE6E2",
"4X c #ECEBE4",
"5X c #EDEDEA",
"6X c #E6E9E5",
"7X c #F2EDE5",
"8X c #F1EDED",
"9X c #F9EDE7",
"0X c #F4F3E6",
"qX c #F5F5EA",
"wX c #FAF6EC",
"eX c #F7F9EC",
"rX c #FAFBED",
"tX c #F9F5E7",
"yX c #F4F3F2",
"uX c #FBF6F2",
"iX c #FCFDF3",
"pX c #FEFEFA",
"aX c #F7FDFA",
"sX c #EFF0EC",
/* pixels */
"                                  k u e e u y y u u k l l k l x x 6 < < < <                         ",
"                b . o . . . . . . . . . . . . . . . . . . . . . . . . . . . . :                     ",
"                v . # . : e e e e e e e e 6 3 6 6 6 < < 6 6 e t e e e o . . * t                     ",
"                : . . & . . . . . . . . . . . . . . . . . . . . . . . . o . F d u                   ",
"                # . : . w.!.W.W.W.T.L.U.U.I.C.C.C.C.V.V.C.I.T.~.~.~.T.v . * d = :                   ",
"                o . e . W.pXpXpXpXpXpXpXpXpXpXpXpXpXpXpXpXpXpXpXpXpXaXT . , o . .                   ",
"              u . . e . T.iXeXyXrXrXrXrXrXrXrXiXrXeXiXrXiXrXeXeXeXpX2Xy . @ . . .                   ",
"            T.b . : e . T.iXeXiXrXrXiXrXiXrXrXrXeXiXeXrXrXrXrXaXrXpX2X+ . = o o . e                 ",
"            w.. . . < . ~.pXrXrXeXiXrXiXrXrXrXaXrXiXrXrXrXrXeXiXaXpX&X. t e < < e .                 ",
"            T e S I v . ^.pXeXrXrXeXiXeXaXrXrXrXiXrXaXrXaXrXiXiXeXpX$X. . . . . . /   .             ",
"      y < . +X4X6X5X6X&XsXiXrXrXrXrXiXeXrXiXeXiXeXiXeXiXrXiXaXeXrXiX5X^.$X2X&X%X$X2X( . # h Y       ",
"  # # # : . ,XiXiXiXiXiXiXrXrXrXrXiXeXiXiXrXiXeXrXrXiXeXiXrXrXrXrXeXaXrXpXpXiXiXpX,X. . . > U       ",
"  o . @ # # ,XiXrXrXrXrXrXrXrXrXrXiXeXiXaXrXiXeXrXiXrXiXeXiXrXrXrXrXeXeXeXeXeXeXiX+X. @ X @ e l u   ",
"  * . : . T 4XiXrXrXrXrXrXrXrXrXrXrXiXeXrXrXrXiXaXeXrXeXiXeXrXrXaXrXeXiXrXrXeXeXpX{.. < . X . . .   ",
"  > . > . 7.wXrXrXrXrXrXrXrXrXiXeXrXiXiXiXrXrXrXrXiXiXrXiXiXyXrXeXeXiXeXrXrXeXeXpX.X. e j r . o .   ",
"  e . 6 . n.iXwXrXrXrXrXrXrXrXeXrXeXyXeXeXiXiXaXiXiXrXrXrXqX0XqXeXiXeXiXrXrXrXeXiXsX7.` t.Y . X . e ",
"  y . 3 . Z.iXrXrXrXrXrXrXrXrXiXrXL.M.M.m.N.Z.H.H.N.M.f.a.a.6.,.3XiXrXrXiXrXrXrXeXrXl.r.f.W . $ . y ",
"  y . 3 . R.iXrXwXrXrXrXrXiXrXiXwXH.' ) ..L K K K K K K K _ H ..8XpXrXrXrXrXrXrXeXrXl.-.s.E . @ . t ",
"  y . < . {.iXuXiXrXrXrXrXrXiXrXiXH.=.@.@.2.e.e.e.e.r.2.&.&.J p.uXiXrXrXrXrXrXeXrXtXM.} s.E . @ . w ",
"  < . : . #XiXiXrXrXrXrXrXrXrXiXwXN.*...a ^ ..@.@.@.@.@.) ^ q 3.uXiXiXrXrXrXeXiXwXrXN.} s.~ . @ . 1 ",
"  : . - . %XrXrXrXrXrXrXrXiXiXeXwXj.*. .o . O ; > > > $ . : . E 5XpXuXwXeXeXrXeXrXiXH.[ s.~ . $ . , ",
"  * . @ . ,XiXwXrXrXrXrXrXeXeXeXqXd.O.~ o o . . . . . . . * . c 6XpXiXiXiXrXiXrXrXiXL.[ i.W . @ . * ",
"  @ . O . <XiXwXrXeXeXrXrXrXrXiX8Xa.*. .. o . . . . . . . @ . e 2XpXwXiXrXiXrXrXrXiXR.] i.~ . $ . * ",
"  o X o . 4XiXrXrXrXrXrXrXeXrXiX7X5.*. .. o . . . . . . . @ . - ;XpXiXwXiXrXiXiXrXiXE.] t.E . @ . o ",
"  o X . O 4XiXwXrXrXrXrXeXrXrXiX<X*.4. .. # . . . o o . . @ . # ;XpXrXrXuXiXrXiXiXiXQ._ i.R . @ . o ",
"  . X . 1 4XiXiXrXrXrXrXrXrXrXrX,X@.5.W . # . . . . . . . @ . . &XpXrXiXrXrXrXrXrXiXQ.] t.W . @ . o ",
"  . . . 1 4XiXwXwXrXrXrXrXrXrXiX@X{ 5.W . o . . ! / U = . X @ . %XiXrXwXrXeXrXrXrXiXQ.' t.W . @ . o ",
"  . o . : 5XiXuXrXrXrXrXrXrXwXiX#XQ 6.E . @ . . :.v.q.k . @ : . $XiXwXiXrXiXrXrXrXiXQ._ t.W . @ . * ",
"  . # . , 4XiXiXrXrXrXrXrXrXrXiX#XC 5.R . X # . :.n.c.F . @ > . @XiXwXrXrXrXrXeXeXiXQ._ t.W . @ . * ",
"  . o . 9 8XiXrXwXrXrXrXrXrXrXiXXXC t.Y . o o . / v.c.I . @ < . +XpXrXrXeXrXrXrXeXiXQ._ t.R . @ . * ",
"  . o . t 5XiXiXiXrXrXrXrXeXeXiX.XV 5.B . X # . :.v.c.P . @ e . +XpXwXrXrXrXrXrXrXiXQ._ t.W . @ . = ",
"  . o . f 8XpXwXrXrXrXeXeXeXeXiX}.Z t.B . X o . 3.V.c.I . + e . oXiXwXrXrXrXrXrXiXiX[._ t.R . @ . o ",
"  . o . x yXiXiXrXeXrXeXeXeXeXiX}.n 6.G . o o . :.A.v.P . X e . XXpXwXrXrXrXrXrXrXiX`._ t.Q . @ . , ",
"  . X . x qXiXwXrXrXrXrXrXeX0XpX}.n 6.B . @ . . . 9.A.P . + e . }.iXwXrXrXrXrXrXrXiX`.] t.Q . @ . 6 ",
"  . @ . F 8XiXiXrXrXrXeXrXeX0XiX}.n 6.B . X : < @ 6 z.P . @ e . {.iXuXrXrXrXrXrXrXiX`.' t.R . @ . 6 ",
"  . @ . P yXiXuXiXrXrXrXrXeXwXiX'.4 4.c . @ . . . . ! ! . o e . Q.iXrXrXrXrXrXrXrXrX`.' t.R . @ . w ",
"  . @ . F yXiXrXrXrXrXrXrXeXtXiX{.4 4.z . . 3.n.z.( 8 g & O < . Y.iXeXrXrXrXrXrXrXiX'.' t.R . @ . u ",
"  . @ . ! yXiXuXrXrXrXrXrXeX0XiX`.M *.c . w.qXiXrX5X*Xz.. e e . B.rXeXrXrXeXrXrXrXiX'._ t.R . @ . f ",
"  . @ . ! yXrXrXrXrXrXrXrXrXwXiX`.Z #.c . b.pXiXiXiXaX3Xn.. . . 8.rXrXrXeXeXrXrXrXiX'.O.p.R . @ . f ",
"  . - . >.wXrXrXrXrXrXrXrXrXqXiX}.N @.z . b.pXpXpXiXuXiXiX.X( . / qXtXtXrXrXrXrXtXiX}.O.s.R . $ . f ",
"  . * . >.yXiXwXrXrXrXrXrXrX0XiXXXC o.h . b.pXiXiXiXiXiXwXiXqXM.p 9XwXrXrXrXrXrXrXiX X%.d.W . @ . f ",
"> . - . >.yXiXwXrXrXrXrXrXrXrXiX$XH o.i . n.uXpXpXiXpXiXiXiXiXwXS.:XrXtXtXrXrXrXtXrX|.*.d.~ . @ . t ",
": . : . 3.yXrXrXrXrXrXrXrXrXrXiX:X..W i . w.uXpXpXiXpXiXiXiXwXiX X].iXeXrXrXwXrXrXiXXX=.f.~ . @ . y ",
": . : . 3.wXiXrXiXrXrXrXrXrXrXrX:X1. .z . 3.yXpXiXpXiXpXiXiXrXrX0X[.<XrXtXrXrXrXrXiXXXy.M.~ . $ . t ",
"- . : . 9.yXrXwXrXrXrXiXrXiXuXiX3X) . . . . 5XpXiXpXiXiXiXiXiXrXiX@XL.qXrXqXrXrXeXrXXX5.M.+.. @ . e ",
"$ . : . 9.yXrXiXiXrXrXrXiXiXyXiXuX^.T.^.^.I.5XpXiXiXiXpXiXiXiXrXrXwX7X0XrXrXwXwXrXiXXXt.S.@.. $ .   ",
"@ . : . q.iXiXrXiXrXrXiXiXiXaXpXpXpXpXpXpXpXpXpXiXiXiXiXiXpXiXiXiXrXrXrXqXqXrXeXrXiX|.t.S.+.. $ .   ",
"@ . , . q.iXiXiXrXiXrXrXiXaXuXpXaXpXpXpXaXuXaXiXpXiXpXpXiXiXiXiXrXrXeXqXqXrXrXrXeXiXXXt.S.3.. & .   ",
"- . : . q.iXaXuXiXrXiXpXpXaXpXpXpXpXpXpXaXiXpXiXiXiXpXiXiXiXiXiXrXrXwXeX0XeXrXwXeXiX}.t.K.,.. $ .   ",
"& . : . 9.pXpXpXpXpXpXpXpXpXiXpXpXiXpXiXiXpXpXiXpXiXiXiXiXiXiXrXrXrXwXeX0X0XqXrXrXiXQ.=.S.+.. $ .   ",
": . @ . U *X$X.X{.E.Y.aXpXaXpXpXpXpXpXpXpXpXiXpXiXpXiXiXiXrXiXrXrXrXeXtX0X0XrX0X<XXX6.@.s.~ . @ o   ",
": . . o . . . . % . m.pXpXpXuXpXpXpXiXpXpXiXpXiXiXiXiXiXiXiXiXiXiXrXeXeXtXeXwXoXS Y H H 1.R . @ o   ",
": . . . o i B G W 5 &XpXaXaXiXpXpXpXpXpXiXpXiXiXpXiXiXiXiXiXiXrXrXrXwXrXwXtXqX7X7.4 Q Q o.B . X #   ",
"@ . . . . e T Y S Z 4XpXpXpXiXiXiXiXiXiXpXpXpXpXiXpXiXiXiXiXwXiXiXrXwXrXwXwX0XtXN.. H C Q j . . *   ",
"  X @ @ l 6 6 e . 8.uXpXaXaXpXpXiXpXpXpXpXpXpXpXpXpXiXiXrXiXrXiXiXiXwXwXrXtX7XiXJ.. j a a : . . y   ",
"          * . : # 3.uXpXpXpXpXiXiXrXrXrXrXiXpXpXpXiXiXiXiXiXwXiXiXpXiXiXiXiXwXiXY.. i 0 > . . . x   ",
"          . # . : . B.`.Q.Q.L.J.N.j.j.j.M.N.oXpXpXpXpXiXiXiXrX0X%X:X&X@X@X@X#X@XJ.. 9 9 O . . . x   ",
"        * o . . . : . N X.J J J ) _ ` ` ' m N.pXiXpXiXiXiXiXiXwX.Xq V { $.$.$.;.0.R . - X . . . f   ",
"        o . . . . @ . <.p.1.5.1.*.*.*.*.*.Q N.iXiXpXiXpXpXiXiXiXpXL.% $.;.4.4.7.a.,.X o . . . .     ",
"        @ . . . . O .  .y.1.1.1.*.*.&.@.@.o.#.8XpXpXpXiXpXiXiXiXiX;XN E 4.*.4.4.a.,.% . . . . .     ",
"        . . . o . . . B ~ o.~ ~ W W Q G B B . $XpXpXpXpXiXiXpXiXiXiXM.. / #.,.4.w.,.$ . . . X #     ",
"                l . o . . . . . . . . . . , . !.pXpXpXiXpXiXiXiXiXpXQ.. B T T T G z X . . : r b     ",
"                v . # . . . . . . . X . X > . d.pXpXpXiXiXpXpXpXaXpX:XQ 3 > . . . . . o . 9 s       ",
"                k . # . . . . . . . . . . > . 7.uXaXpXiXpXiXiXiXpXpX1Xl.E . - . X # . . . r V       ",
"                v . . . . . . . . . . . . - . V 3XpXiXpXiXpXiXiXiXiXrX[.j.D . & . . . . . 0 V       ",
"                v . # . # . . . . . . . . X t . E.iXiXiXiXiXiXiXiXiXrX-XP.L.s # & . . # . p V       ",
"                t . . . . . . . . . . . . . 1 . X.>XpXuXiXiXpXiXrXrXrX<X|.|.L.s . o . . . h         ",
"                    f f f l l           + . X . N ].1X9XwXwXiXiXrXeXtX1X-X X|.J.9 . # o k           ",
"                                          . X . 2 (._.(._.]. X=X=X-X>X-X X X].E.W . . w             ",
"                                          = X . . x./.x.G.F./././.).).).).).(.K.R . . d             ",
"                                          * . # . h./.g.g.g.g.x.F.F.G.D.l.G.D.f.h . . d             ",
"                                          , . o . e.h.u.u.r.u.r.r.=.-.%.{ } ` Q $ o . d             ",
"                                          x . o . N N 4 2 X . . . . . . . . . . . o # 7             ",
"                                            + . # . . . . . X X X X X X X X X X . . . 8             ",
"                                            < . . X O X . X . . . . . . . . . . . . . =             ",
"                                              . . . . . . . . . . . . . . . . . . . . o             ",
"                                              1 . . . . . . . . . . . . X . . . . . . o             "
};
