/* XPM */
static char *out[] = {
/* columns rows colors chars-per-pixel */
"50 66 199 2 ",
"   c None",
".  c #000001",
"X  c #0A0405",
"o  c #080802",
"O  c #06060A",
"+  c #09060B",
"@  c #0A0A0C",
"#  c #110C0E",
"$  c #0D110B",
"%  c #12120F",
"&  c #0C0B12",
"*  c #120D13",
"=  c #14091A",
"-  c #0E1316",
";  c #151413",
":  c #191416",
">  c #1A1917",
",  c #14161A",
"<  c #1A151C",
"1  c #15191B",
"2  c #1B1A1A",
"3  c #221B1E",
"4  c #191A21",
"5  c #241E22",
"6  c #2A1F23",
"7  c #1E2022",
"8  c #252424",
"9  c #292225",
"0  c #2D2C2D",
"q  c #2A222C",
"w  c #352C2E",
"e  c #35312A",
"r  c #2D2E35",
"t  c #3F2230",
"y  c #372C34",
"u  c #35343C",
"i  c #3B3C3D",
"p  c #353134",
"a  c #49382E",
"s  c #422633",
"d  c #552534",
"f  c #522934",
"g  c #5C293A",
"h  c #43333A",
"j  c #4D323E",
"k  c #413438",
"l  c #58313D",
"z  c #40413E",
"x  c #4D3B43",
"c  c #423A49",
"v  c #523642",
"b  c #5E3343",
"n  c #533B45",
"m  c #5C3D45",
"M  c #523D4B",
"N  c #5C3F4A",
"B  c #633A4A",
"V  c #613747",
"C  c #444443",
"Z  c #4A4B47",
"A  c #4F454E",
"S  c #4A4A49",
"D  c #47464A",
"F  c #51414C",
"G  c #5C444D",
"H  c #5C4646",
"J  c #4D4253",
"K  c #524453",
"L  c #534C52",
"P  c #5D4A53",
"I  c #5E4F58",
"U  c #5D545C",
"Y  c #5A5957",
"T  c #614245",
"R  c #62444B",
"E  c #684E4E",
"W  c #684C55",
"Q  c #644952",
"!  c #6B5156",
"~  c #62535C",
"^  c #6D545B",
"/  c #6D5A5D",
"(  c #655E58",
")  c #73545D",
"_  c #79555E",
"`  c #785257",
"'  c #6B645E",
"]  c #72635D",
"[  c #5F5C61",
"{  c #645463",
"}  c #6B5A65",
"|  c #6F5E69",
" . c #685664",
".. c #725662",
"X. c #765A63",
"o. c #7B5B62",
"O. c #7A5F6A",
"+. c #765B65",
"@. c #6A666B",
"#. c #75616D",
"$. c #7B626B",
"%. c #7B746E",
"&. c #6E6877",
"*. c #746572",
"=. c #786472",
"-. c #726875",
";. c #7D6B73",
":. c #7C6D7E",
">. c #7E7974",
",. c #797278",
"<. c #835C66",
"1. c #885F67",
"2. c #885F69",
"3. c #81666B",
"4. c #83696D",
"5. c #8E636D",
"6. c #82776B",
"7. c #846B72",
"8. c #856B78",
"9. c #847075",
"0. c #8B7576",
"q. c #847B75",
"w. c #847379",
"e. c #817E7D",
"r. c #887278",
"t. c #84827E",
"y. c #8F837D",
"u. c #8D887E",
"i. c #7E7282",
"p. c #807584",
"a. c #9E7C85",
"s. c #848483",
"d. c #8D8D8A",
"f. c #8E8984",
"g. c #9F8089",
"h. c #908C86",
"j. c #8E9089",
"k. c #92948D",
"l. c #9D938C",
"z. c #949493",
"x. c #9E9994",
"c. c #9C9A9A",
"v. c #9A9691",
"b. c #A0978D",
"n. c #A29A94",
"m. c #A49E9B",
"M. c #A49993",
"N. c #A8A097",
"B. c #ABA39D",
"V. c #A2A19E",
"C. c #BAAB99",
"Z. c #B8B09E",
"A. c #A6A4A1",
"S. c #A9A6A4",
"D. c #ADABAA",
"F. c #ABA7AB",
"G. c #B2ABAB",
"H. c #BBB3AD",
"J. c #BCB4A7",
"K. c #BDBAB6",
"L. c #BAB6B6",
"P. c #C7BDAC",
"I. c #C8B8A7",
"U. c #C1BAB5",
"Y. c #C3BFBC",
"T. c #C5C2BE",
"R. c #CBC4BB",
"E. c #D5C4B6",
"W. c #CAC5C2",
"Q. c #C7C9C4",
"!. c #CBCAC6",
"~. c #CDCBC8",
"^. c #C7C6C1",
"/. c #D1CCC7",
"(. c #D2CCC9",
"). c #D6D3CE",
"_. c #DDD5C7",
"`. c #DAD6D2",
"'. c #DCD9D5",
"]. c #E0DBD7",
"[. c #E2DCDA",
"{. c #E8EADB",
"}. c #E6E3DD",
"|. c #F1EDD9",
" X c #EFF0DF",
".X c #EBE5E3",
"XX c #EEEEE4",
"oX c #EEECEA",
"OX c #F1EDED",
"+X c #EFF1E4",
"@X c #F2F2E6",
"#X c #F4F4EC",
"$X c #F9F7EB",
"%X c #F6F9ED",
"&X c #FAFBEE",
"*X c #F5F5F2",
"=X c #F7FAF0",
"-X c #FCFDF2",
";X c #FFFFFA",
/* pixels */
"                                                                                                    ",
"                                                                                                    ",
"                                                                                                    ",
"                                                                                                    ",
"                                                                                                    ",
"                                                                                                    ",
"                                                                                                    ",
"                                                                                                    ",
"                                                        . . . . . . . . . . . . . . . . . . . .     ",
"                                                      . . . . . . . . . . . . . . . . . . . . @     ",
"                                                      . . . . . . . . . . . . . . . . . . . . @     ",
"                                                      @ . . o ; ; % ; ; ; ; ; % ; . . . . . . @     ",
"  . . . . . . . . . . . . . . . . . . . . ;           O . o . . . . . . . . . . . . . . . . O 7     ",
"  . . . . . . . . . . . . . . . . . . . . ,           O . . C z.k.k.k.k.d.j.j.k.k.D 5 w w # . .     ",
"  . . . . . o . . . . . o . o o . . O . . . .         X ; . s.;X;X-X;X-X-X-X-X&X;XY.H / P X . . ,   ",
"  . . . . . . . . . . . . . . . . . . . . . .         . ; . s.;X%X&X%X%X&X%X%X$X-X'.#.%.#.: . . 4   ",
"  + * ; 8 z Z S Z z i i z Z Y ~ w k k . . . .         . > . s.;X-X=X&X=X&X%X%X%X-X`./ 0.9.2 . . 1   ",
", . ; . >.@X+X@X+X+X+X+X@X@X&X[.) 1.` . . . .         . ; . s.;X=X=X&X&X%X%X%X%X-X`./ 0.;.: . . 2   ",
"& . ; . f.-X&X&X&X&X&X&X&X&X-X{.^ 5.) . X . .         . > . s.;X-X=X=X&X&X=X&X%X-X'.^ 0.9.2 . . 1   ",
"@ . ; . f.-X%X%X%X%X%X%X%X&X;X[.T o.G . . . .         . ; . s.;X-X=X&X=X&X&X&X%X-X`.! 0.9.2 . . -   ",
"+ . ; . l.-X%X$X&X&X&X&X&X&X&X].v ) h . . . .         . , . s.;X=X=X=X&X=X&X&X%X;X`.E 9.8.2 . . $   ",
"+ . : . v.-X%X-X&X&X&X&X&X&X-X].b X.M . . . .         . , . s.;X=X=X=X&X&X&X=X%X-X`.E 4.3.2 . . O   ",
"o . : . x.-X$X-X&X&X&X&X&X%X-X'.v X.F . . . .         . > . s.;X=X&X=X-X&X=X&X%X;X).R 4.$.> . . .   ",
". . : . n.-X&X&X&X&X&X&X&X%X;X'.j X.P . . . .         . ; . s.;X=X&X=X&X&X&X&X&X-X/.T 4.+.* . . .   ",
". . : . x.-X&X&X&X&X-X$X&X%X;X`.v O.{ . X . .         . ; . s.;X&X&X=X&X&X&X=X&X;X!.H 3.O.* . . .   ",
". . ; . c.;X&X*X&X&X&X-X%X%X-X`.v O.{ . . . .         . ; . s.;X&X=X&X=X=X&X&X%X;XW.N 3.$.: . . .   ",
". . ; . c.;X*X-X&X&X&X&X%X%X;X`.v O.~ . . . .         o ; . s.;X%X&X&X&X=X&X=X%X;XT.m 3.o.: . . .   ",
". . : . m.;X&X-X&X&X&X&X&X&X;X'.v =.~ . . . .         . ; . s.;X=X=X&X&X&X=X&X=X;X^.m 3.3.3 . . .   ",
". . > . m.;X&X&X&X&X&X&X&X&X;X'.v =.{ . . . .         O : . s.;X=X&X&X=X&X&X=X&X;XT.H 3.$.3 . . .   ",
". . ; . V.;X-X&X&X-X&X-X&X&X;X].M =.{ . O . .         . ; . c.;X%X&X&X&X=X&X&X=X;XR.T 3.3.3 . . O   ",
". . > . A.;X-X&X&X-X&X&X-X&X;X].M #.{ . . . .         . ; . c.;X=X&X&X&X&X=X&X&X;X!.B 3.7.5 . . .   ",
". . > . A.;X-X&X&X&X&X-X&X-X;X].v #.{ . . . .         . ; . c.;X&X=X&X&X=X&X=X%X;X!.T 3.7.5 . . O   ",
". . : . A.;X&X&X&X-X&X-X&X-X;X].M =. .. . . .         . ; . c.;X&X=X&X&X&X&X=X%X;X~.T 3.7.5 . . O   ",
"o . 1 . F.;X-X-X&X&X&X&X&X&X;X).j *.{ . . . .         . ; . z.;X=X=X&X&X=X&X=X%X;X(.T 3.4.5 . . O   ",
"o . : . F.;X&X&X&X&X&X&X&X-X;X/.s @.L . . . .         . ; . z.=X=X=X-X=X&X=X&X%X-X(.R 4.7.3 . . O   ",
"O . < . F.;X&X&X-X&X&X&X&X%X;XW.s | K . . . .         . ; . d.;X=X-X&X&X=X&X=X&X;X(.Q 4.;.3 . . .   ",
"+ . 2 . F.;X=X&X&X&X&X&X&X=X;XW.t | A . . . .         . ; . s.-X=X-X&X&X&X&X&X=X;X).E 4.7.3 . . o   ",
"@ . 2 . L.;X&X-X-X&X&X&X&X%X;XW.s +.A . . . O         . ; . s.-X=X=X&X-X&X=X=X%X;X).Q 7.8.5 . . O   ",
"@ . 2 . L.-X-X&X&X&X&X&X&X&X;X/.j #.K . . .             ; . >.-X-X&X&X&X&X&X=X&X;X).W 7.7.8 . . .   ",
"@ . 2 . U.;X&X-X&X&X&X&X&X&X;XW.j #.K . . . i         O - . s.-X=X=X&X&X=X=X&X%X-X'.! 7.9.5 . . O   ",
"& . 2 . Y.;X$X&X&X&X&X&X$X$X;X/.v | K . o . 8 C z i i . ; . s.-X&X&X&X&X&X&X=X%X-X'.^ 7.r.9 . . .   ",
"@ . 2 . T.;X$X&X&X&X&X&X&X$X;X/.G *.K @ 2 2 ; . o . o > 8 . s.=X=X&X&X-X=X&X&X&X;X[.^ 9.r.9 . . .   ",
"@ . 2 . R.;X$X$X$X&X&X&X&X$X-XR.X M . . . . . . . . . . . . ,.=X%X&X&X&X&X=X%X%X-X}.! 4.w.9 . . .   ",
"O . : . R.&X$X&X&X&X&X&X$X$X&X}.U./.W.!.Q.Q.Q.!.!.!.!.!.~.Q.`.&X%X&X&X&X&X=X=X=X;X.X/ 4.9.9 . . O   ",
"@ . > . Q.-X%X$X$X&X&X$X&X&X&X-X-X-X;X;X;X;X;X-X;X-X;X-X-X&X&X&X%X&X&X&X&X&X=X=X;XXXX.$.q.9 . . O   ",
"O . > . !.;X&X&X$X&X&X&X&X&X&X&X&X&X&X&X%X&X&X&X&X&X&X&X&X$X$X$X$X&X&X&X&X&X-X=X;XoX#.$.w.9 . . @   ",
"O . 2 . U.&X X$X$X&X&X&X&X$X-X&X&X&X&X&X&X&X&X&X&X&X&X&X&X&X$X&X&X&X&X&X&X&X&X-X-XoX$.$.w.5 . . &   ",
"+ . @ . %.J.Z.P._.@X&X&X&X-X-X&X&X&X-X&X-X-X&X-X&X&X&X&X&X&X&X&X&X&X&X&X-X-X-X-X;XOX#.#.:.8 . . ;   ",
"+ . # . b.E.I.I.C.I.|. X{. X-X&X&X&X-X-X&X-X-X&X-X-X&X&X&X&X&X&X&X-X%XoX*X*X*X*X;X.XQ } ,.5 . . ;   ",
"O . . . ' q.] ( a H 6.u.e B.;X&X&X&X&X-X&X-X-X&X-X&X-X&X&X&X&X&X&X&X@X( q J J [ @.L & y U 2 . . 2   ",
"+ . . . . . . . o q.] y.9 K.;X%X-X&X&X-X-X-X-X-X-X-X&X&X&X&X&X&X&X$X-Xd.c -.| [ . . . . : O . . 2   ",
". . . . . + . . . t.6.b.e R.;X&X-X-X-X-X-X-X&X-X&X-X-X-X-X-X&X&X&X%X;XS.J i.i.-.q . . . . . . . ;   ",
"u r r r @ . . X . e.y.M.p /.-X&X%X&X-X&X&X&X-X&X-X-X-X-X&X-X&X&X%X$X-XK.= i.i.&.4 . . . . 8         ",
"        * . . X . @.>.h.+ .X;X;X;X;X;X-X-X;X-X-X-X-X-X&X&X&X-X-X-X-X;X/.. [ &.&.= . . . @           ",
"        . . . . . . . . . G.U.Y.Y.U.I.G.B.B.m.m.M.M.b.l.b.M.N.B.H.P.R.n.. . & u & . . . 7           ",
"        . . . . . . . . . 3.g d g d g l V B B B V V b l l f f f f f m F . . . . . . . . 2           ",
"        O . . O . . . . h g.5.3.<._ 3.<.o.o._ ] X.o.X.X.X.X.X.o.O.$.8.=.. . . . . . . .             ",
"              i . . X . ~ g.<.<._ ) _ _ ) _ ) ) ) ) ^ ^ ........O.O.8.;.. . . . . . . .             ",
"                , . . . U 7.R G H n F n j n n x x x x x x c x A L ~  .{ . . . . . O @               ",
"                - . . . 3 . . . . . . . . . . . . . . . . . . . . . . . . . . o 0                   ",
"                  r 4 . . . . . . . . . . . . . . . . . . . . . . . . . . . . 8                     ",
"                    r . . . . . . . . . . . . . . . . . . . . . . . . . . . . 8                     ",
"                    r . . . . . . . . . . . . . . . . . . . . . . . . . . . o 0                     ",
"                    0 . . . . . . . . . . . . . . . . . . . . . . . . . . . . 4                     ",
"                    0 . . . . . o O o @ ; ; ; ; O . . . . . . . . . . O . O ;                       ",
"                    D 8                                                                             "
};
