/* XPM */
static char *a62b79907bfb4a86c89e3dade72c28f1eHQmfP8OvNShujKd_11[] = {
/* columns rows colors chars-per-pixel */
"61 47 13 1 ",
"  c None",
". c #101010",
"X c #736B4A",
"o c #EF5A31",
"O c #8C4242",
"+ c #E6737B",
"@ c #ADA573",
"# c #FF845A",
"$ c #FFADAD",
"% c #E6DEBD",
"& c #FFD6D6",
"* c #FFE6E6",
"= c white",
/* pixels */
"                                                             ",
"                                                             ",
"                                                             ",
"                         $$$$++++                            ",
"                       $$*****&&&++                          ",
"                     $$********&&&&++                        ",
"                    +**********&&&&&&O                       ",
"                   +&**********&&&&&&$.                      ",
"                  +&&**********&&&&&$$$.                     ",
"                 +&&&&********&&&&&&$$$$.                    ",
"                +&&&&&&*****&&&&&&&&$$$$$.                   ",
"               O+&&&&&&&&&&&&&&&&&&&&$$$$$.                  ",
"              O+&&&&&&=&&&&&=&&&&&&&&$$$$$$O                 ",
"             O&$&&&&&&.&&&&&.&&&&&&&&&$$$$&&OO               ",
"           OO&$&&&&&&&.&&&&&.&&&&&&&&&&$$$+&&&OOOOO          ",
"         OO&+&&&&&&&&&&&&&&&&&&&&&&&&&&+$$$++&&&##oOO        ",
"       OO$&+&$&&&&&&&&&.....&&&&&&&&&&&&O$&&&OO$##oooO       ",
"      O##OO&+&&&&&&&&&&$OooO&&&&&&&&&$&&&O&&&&&...oooO       ",
"     OoOO#$O&&&&&&&&&&&&$OO$&&&&&&&&&&$&&&OO&&&$##...        ",
"     OOoo#O$&&&$&&&&&&&&&&&&&&&&&&&&&&&+&&&&..$###oooO       ",
"    Ooooo.##$&+&&&&&&&&&&$$&&&&&&&&&&&&&+&&&$#..#oooooO      ",
"    Ooo..####O&&&&&&&&&&&&&&&&&&&&&&&&&&&O$$####..ooooO      ",
"     O.ooo##.&&&&&&&&&&&&XXX&&&&&&&&&&&&&$.#####oo.OOO       ",
"     .ooooo.&&&&&&&&&&&XX%%@XX&&&&&&&&&&&$$..###ooo.         ",
"     .ooo..&&&&&&&&$&&X====%%@X&&&&&&&&&&$$$$..oooo.         ",
"      ... +&&&&&&&$$&X======%%@X&&$&&&&&&$$$$$$....          ",
"          +&&&&&&&&&+X======%%%X&+$$&&&&$$$$$$$$.            ",
"          +&&&&&&&**+========%%@+&&&&&&&$$$$$$$$.            ",
"          +$&&&++&***+=======%%&+**&&&&&$$$$$$$$.            ",
"          +$&&&&&O&**+=======%%+***&&++$$$$$$$$$.            ",
"           O$&&&&&OOOOO======%O+**&&O&&$$$$$$$$$.            ",
"           O$$&&&&&O$$#OOOOOOO##OOOO&&$$$$$$$$$.             ",
"           O$$&&&&&O$$$$$$$$$####.&&&&$$$$$$$$$.             ",
"            O$$&&&&O#$$$$$$$$###o.&&&$$$$$$$$$$.OOOOO        ",
"            O$$$$&&&O$$$$$$$####.&&$$$$$$$$$$$.$$$$$$O       ",
"             O$$$$$$O#$$$$#####o.$$$$$$$$$$$$$.$$$$$.        ",
"             O$$$$$$$Oo#######o.$$$$$$$$$$$$$.$$$$$.         ",
"              O$$$$$$$OOo###o..$$$$$$$$$$$$$.$$$$..          ",
"               O$$$$$$$$O....$$$$$$$$$$$$$$.$$OOO            ",
"                O$$$$$$$$$$$$$$$$$$$$$$$$$..OO               ",
"                 .$$$$$$$$$$$$$$$$$$$$$$$.                   ",
"              ...O..$$$$$$$$$$$$$$$$$$$...                   ",
"             .OOOOOO..$$$$$$$$$$$$$$$..Ooo.                  ",
"              .OOOOOO.....$$$$$$.....OOOoo$o.                ",
"               ......     ......    .OOOoooo.                ",
"                                     ..Oo...                 ",
"                                       ..                    "
};
