/* XPM */
static char *a62b79907bfb4a86c89e3dade72c28f1eHQmfP8OvNShujKd_77[] = {
/* columns rows colors chars-per-pixel */
"61 47 13 1 ",
"  c None",
". c #101010",
"X c #736B4A",
"o c #EF5A31",
"O c #8C4242",
"+ c #E6737B",
"@ c #ADA573",
"# c #FF845A",
"$ c #FFADAD",
"% c #E6DEBD",
"& c #FFD6D6",
"* c #FFE6E6",
"= c white",
/* pixels */
"                                                             ",
"                      $$$$++++                               ",
"                    $$*****&&&++                             ",
"                  $$********&&&&++                           ",
"                 +**********&&&&&&O                          ",
"                +&**********&&&&&&$.                         ",
"               +&&**********&&&&&$$$.                        ",
"              +&&&&********&&&&&&$$$$.                       ",
"             +&&&&&&*****&&&&&&&&$$$$$.                      ",
"            O+&&&&&=&&&&&=&&&&&&&&$$$$$.                     ",
"           O+&&&&&&.&&&&&.&&&&&&&&$$$$$$O                    ",
"          O&$&&&&&&.&&&&&.&&&&&&&&&$$$$&&OO                  ",
"        OO&$&&&&&&&&&&&&&&&&&&&&&&&&$$$+&&&OOOOO             ",
"      OO&+&&&&&&&&&&.....&&&&&&&&&&&+$$$++&&&##oOO           ",
"    OO$&+&$&&&&&&&&&$OooO&&&&&&&&&&&&O$&&&OO$##oooO          ",
"   O##OO&+&&&&&&&&&&&$OO$&&&&&&&&&$&&&O&&&&&...oooO          ",
"  OoOO#$O&&&&&&&&&&&&&&&&&&&&&&&&&&$&&&OO&&&$##...           ",
"  OOoo#O$&&&$&&&&&&&&&$$&&&&&&&&&&&&+&&&&..$###oooO          ",
" Ooooo.##$&+&&&&&&&&&&&&&&&&&&&&&&&&&+&&&$#..#oooooO         ",
" Ooo..####O&&&OOO+&&&&&&&&&&&&&&&&&&&&O$$####..ooooO         ",
"  O.ooo##.&&&&O&**+&&&&&&&&&&&&&&&&&&&$.#####oo.OOO          ",
"  .ooooo.&&&++&**+&&&&XXX&&&&&&&$$&&&&$$..###ooo.            ",
"  .ooo..&&&&&&&**+&&XX%%@XX&&&++$$&&&&$$$$..oooo.            ",
"   ... +&&&&&&&&&+&X====%%@+&+*&&&&&&&$$$$$$....             ",
"       +&&&&&&&$$&X======%%+***&&&&&&$$$$$$$$.               ",
"       +&&&&&&&&$&X======%%+***&&&&&&$$$$$$$$.               ",
"       +$&&&&&&&&X========%OOO&&O&&&&$$$$$$$$.               ",
"       +$&&&&&&&&X========%%&XO&&++&$$$$$$$$$.               ",
"        O$&&&&&&&O========%%%.&&&&&&$$$$$$$$$.               ",
"        O$$&&&&&O#OO======%OO#.&&&&$$$$$$$$$.                ",
"        O$$&&&&&O$$#OOOOOOO###.&&&&$$$$$$$$$.                ",
"         O$$&&&&O$$$$$$$$$####.&&&$$$$$$$$$$.OOOOO           ",
"         O$$$$&&O#$$$$$$$$###o.&$$$$$$$$$$$.$$$$$$O          ",
"           $$$$$$O$$$$$$$####.$$$$$$$$$$$$$$$$$$$.           ",
"          O$$$$$$O#$$$$#####o.$$$$$$$$$$$$.$$$$$.            ",
"           O$$$$$$Oo#######o.$$$$$$$$$$$$.$$$$..             ",
"            O$$$$$$OOo###o..$$$$$$$$$$$$.$$OOO               ",
"             O$$$$$$$O....$$$$$$$$$$$$$..OO                  ",
"               ..$$$$$$$$$$$$$$$$$$$.....                    ",
"                ...$$$$$$$$$$$$$$$..OOOooo.                  ",
"              ...OO....$$$$$$......OOOOoo$o.                 ",
"             ..OOOO..  ......     .OOOOoooo.                 ",
"            .OOOOO..              ....Oo...                  ",
"            .OOOOO.                   ..                     ",
"             .....                                           ",
"                                                             ",
"                                                             "
};
