/* XPM */
static char *_9826ce84b354666bab7eade826f79dermcZGnqov4tDfErS_67[] = {
/* columns rows colors chars-per-pixel */
"62 57 15 1 ",
"  c None",
". c black",
"X c #63313A",
"o c #313152",
"O c #5A4A73",
"+ c #DE3131",
"@ c #7363AD",
"# c #527BC5",
"$ c #E66384",
"% c #6BBDCE",
"& c #8484BD",
"* c #9C9CB5",
"= c #FF9CB5",
"- c #BDBDE6",
"; c #EFEFFF",
/* pixels */
"                                                              ",
"                                                              ",
"                  ..O             OO.o.                       ",
"                 .oo;O@           O;&ooo                      ",
"                .ooO&;;..        O@;;;Ooo                     ",
"                ooo;&;;.O. ..   O@;;;;O;oo.                   ",
"               oooO&;;;.o.@ .o. O;;;;;;;oo.                   ",
"               oo;;&;O;;.o...o. ;;;;;O;&&oo                   ",
"              .oo;;;O;;;;;...o. ;;;;;O;-;oo.                  ",
"              .o;;;;;;O;;;;.  ..;;;;;;;;;;o.                  ",
"              .o;;;;;;;o&;;;.  .;;;;o;O;;;oo                  ",
"              .o;;;;;Oooo&;;.. .;;&ooo&;;;;o.                 ",
"              oo;;;;;ooooo;;.. O;.ooooo;;;oo                  ",
"              oo;;;;;ooo;o;;;;.;;.oooooo;;-o.                 ",
"             .oo&;;;ooo;;;o;;;.;;.o;;;oo;;-o.                 ",
"              ooO;;;oo;;;;o;;;.;;;.;;;oo;;&o.                 ",
"              oooOO;&o;;;;;o;;O.;o.;;;oo;O;o.                 ",
"              oo;;;O;oo;;;;o;;;;.;.;;oo;O;;oo                 ",
"              oo;;;;Ooo;;;;&;;Oo.o;.;o;;;;;o.                 ",
"              .O;;;;;;ooo;;oo;;o.oo..oOO;;;oo                 ",
"              oo&;;;;;;;oo;;.oo&.&o&OO;;;;;&.                 ",
"              .o&;;;;;;;;o;ooX&&.&&.&@OO;;&oo                 ",
"              .oOO;;;;;;;ooo++X&.&&.&@@@o;OO.                 ",
"               o;;&O;;;;;;X$=$X&&O&O&@@@@o;;o                 ",
"              .o&;;OOO;;;X+==$X&&&&&@OOO@o;;.                 ",
"              .o;;;;;&OOOX+==+@&&&&@X$$+X@o;o                 ",
"               .&;;;;;;;;X+++X@@@@@O$==++Xo;o                 ",
"               oo&;;;;;;;X++X@@@@@@+===+++oOo                 ",
"               .oOO;;;-OO.O@#%#O@@@+==++++.-o                 ",
"               .o;;OOO&;-.@O%%%%o@OX++++++.oo                 ",
"                o&;;;;;;--.Oo%%%#oO.+++++X.o.                 ",
"                .o;;;;;;;-.@;oo##oOO.+++X.-..                 ",
"                .o&;;;;;O-O.OOO;oOOOO...O.&                   ",
"                .oo;;&OOOO--.OOOOOOOOOOO.O.                   ",
"                 .ooo;;;---o@oOOOOOOOO...                     ",
"                  oo;;;;--o@@@OOOOOoo....o.                   ",
"                  ..&;;;--o@@ooOOOOOo..---o.                  ",
"                 .......Oo@@#%ooOOOo##.O---oo                 ",
"                 .o&--&-*o@O%%%%oOO###.-OO-oo.                ",
"                .o&;;O--*.@O%%%ooOOo##.------.                ",
"                .o;;O&--*OoOo%%%oOO##.-.----Oo                ",
"                oo;&;--O.*.OOoooOOOoo..-O--OOo.               ",
"                oo;;;OO-*.#.OOOOOOOO.--OO--O-o.               ",
"               .oo;;O---*o##.OOOOO..  .-O-OO-o.               ",
"                .o;;;;--o###. ....o   o-O----o.               ",
"                oo;O;--o#%##.  .##o    .-----o.               ",
"                .oO;;--o%%%#.  .###.    --O-Oo                ",
"                .oO;;;o##%%%o  o###o     -Oooo                ",
"                 oo;;;.o%%%%.   o%%#.     ....                ",
"                 oo;;. o%%%#    o%%%.                         ",
"                 .ooo  o#%%.     o%#.                         ",
"                  ..    ...       o.                          ",
"                                                              ",
"                                                              ",
"                                                              ",
"                                                              ",
"                                                              "
};
