/* XPM */
static char *out[] = {
/* columns rows colors chars-per-pixel */
"50 68 223 2 ",
"   c None",
".  c #010101",
"X  c #090505",
"o  c #040409",
"O  c #0A0609",
"+  c #0C0B0C",
"@  c #090A08",
"#  c #170A09",
"$  c #12110F",
"%  c #101403",
"&  c #0F0E10",
"*  c #040610",
"=  c #110E12",
"-  c #1B0C16",
";  c #0D1415",
":  c #141314",
">  c #161618",
",  c #1A161A",
"<  c #171919",
"1  c #1B1A1B",
"2  c #1B1315",
"3  c #0E110F",
"4  c #221819",
"5  c #2E0E04",
"6  c #24211F",
"7  c #1D1D25",
"8  c #261E22",
"9  c #361F23",
"0  c #1F2021",
"q  c #1F2031",
"w  c #222222",
"e  c #2A2324",
"r  c #2A2B26",
"t  c #262629",
"y  c #2C2B2B",
"u  c #282A26",
"i  c #332629",
"p  c #342A2B",
"a  c #3B2B2C",
"s  c #352525",
"d  c #30322B",
"f  c #3F3A29",
"g  c #2A2B31",
"h  c #3D2E34",
"j  c #2F3237",
"k  c #393435",
"l  c #3B3C3B",
"z  c #373834",
"x  c #433233",
"c  c #46363A",
"v  c #4B373A",
"b  c #45393D",
"n  c #4C3A3B",
"m  c #463636",
"M  c #402F2F",
"N  c #45473E",
"B  c #53473E",
"V  c #3C3B41",
"C  c #493B40",
"Z  c #454543",
"A  c #4D4243",
"S  c #494A46",
"D  c #4B454B",
"F  c #4A4C49",
"G  c #42424E",
"H  c #514445",
"J  c #53464A",
"K  c #534B4B",
"L  c #5C4C4E",
"P  c #594C52",
"I  c #545451",
"U  c #5B5857",
"Y  c #52504F",
"T  c #694A4D",
"R  c #64494B",
"E  c #6A4F52",
"W  c #654E54",
"Q  c #655256",
"!  c #6D5354",
"~  c #6E545A",
"^  c #6D5A5C",
"/  c #655759",
"(  c #755456",
")  c #75545B",
"_  c #7A565D",
"`  c #745A5C",
"'  c #7C5B5C",
"]  c #6D4E4F",
"[  c #71635E",
"{  c #63655D",
"}  c #595A65",
"|  c #6D5B61",
" . c #755D62",
".. c #7B5E62",
"X. c #6B6465",
"o. c #666866",
"O. c #756164",
"+. c #7B6163",
"@. c #7A6A66",
"#. c #766269",
"$. c #7B656A",
"%. c #7B6C6C",
"&. c #746966",
"*. c #737366",
"=. c #72736B",
"-. c #787A6C",
";. c #7D6B71",
":. c #7B6572",
">. c #787978",
",. c #6D6F71",
"<. c #825D5E",
"1. c #81605F",
"2. c #835D62",
"3. c #895E62",
"4. c #836263",
"5. c #8B6364",
"6. c #83666A",
"7. c #8C656A",
"8. c #846A6B",
"9. c #8D6B6B",
"0. c #94696D",
"q. c #91676C",
"w. c #82736E",
"e. c #8F736F",
"r. c #846D73",
"t. c #896D73",
"y. c #857574",
"u. c #8C7573",
"i. c #8C7A75",
"p. c #8C737B",
"a. c #857C7D",
"s. c #8D7C7B",
"d. c #917376",
"f. c #937C7C",
"g. c #90767A",
"h. c #85827C",
"j. c #8C827B",
"k. c #94827E",
"l. c #99827F",
"z. c #9A7B80",
"x. c #A07F87",
"c. c #7F8085",
"v. c #848484",
"b. c #898987",
"n. c #958381",
"m. c #958A83",
"M. c #9D8D8A",
"N. c #9B8A85",
"B. c #9B928C",
"V. c #999285",
"C. c #9B9A9C",
"Z. c #989695",
"A. c #8B9094",
"S. c #A38A8C",
"D. c #A39692",
"F. c #AA9C96",
"G. c #A29D9B",
"H. c #A69C92",
"J. c #A1928F",
"K. c #AAA496",
"L. c #A8A49C",
"P. c #B0A59C",
"I. c #989EA0",
"U. c #9DA4A6",
"Y. c #ACA4A2",
"T. c #ADAAA5",
"R. c #A5ADAD",
"E. c #B4ABA5",
"W. c #BBACA5",
"Q. c #B4ADAA",
"!. c #B9ACA7",
"~. c #BCB4AD",
"^. c #BAB8B4",
"/. c #ADB4B4",
"(. c #C3B5AC",
"). c #C4BDB4",
"_. c #C8BCB2",
"`. c #C1AFA9",
"'. c #BEC2BE",
"]. c #C3C3BE",
"[. c #C9CBBF",
"{. c #C9C4B9",
"}. c #CBCAC6",
"|. c #CCCDC9",
" X c #C7C5C5",
".X c #CED1CC",
"XX c #D3D3CA",
"oX c #DBD6CA",
"OX c #DDDBCD",
"+X c #D1D3C6",
"@X c #D6D6D1",
"#X c #DCDEDA",
"$X c #D8D9D6",
"%X c #D0CECC",
"&X c #E1D8CD",
"*X c #E1DED1",
"=X c #E5E5DA",
"-X c #E6E8DD",
";X c #ECECDE",
":X c #E8E5D8",
">X c #F0EDDE",
",X c #ECECE4",
"<X c #E9E8E4",
"1X c #F2EEE9",
"2X c #FAEEE9",
"3X c #F4EDE5",
"4X c #EFF2E6",
"5X c #EEF1EA",
"6X c #F4F2E5",
"7X c #FAF4E6",
"8X c #F6F9E6",
"9X c #F3F2EC",
"0X c #F9F4EB",
"qX c #F6FAEC",
"wX c #FAFBED",
"eX c #F8F9E7",
"rX c #F4F4F2",
"tX c #F9F6F1",
"yX c #F5FAF4",
"uX c #FCFEF4",
"iX c #FEFFFB",
"pX c #F7FDF9",
"aX c #F2ECF1",
/* pixels */
"                                                                                                    ",
"    l t o o o o o o o o o o . o o . o . . . . . . . . . . . . . . . . o . o . . . . o +             ",
"o . . . . . . . . . . . . . . . . . . . . . . . . . . . . . . . . . . . . . . . X . o ;             ",
". o o . + w w w 1 w 0 6 0 6 0 6 6 w w 0 w w w 0 0 0 w 1 0 w 1 0 1 1 1 1 1 1 , 1 < ; * <             ",
"o . . 3 . . . . . . . . . . . . . . . . . . . o . . . . . . . . . . . o . . . . o . o j             ",
". o 1 . v.#X.X.X.X.X|.|.|..X.X.X.X.X.X|..X X X X X'.'.'.'.'.^././.R.R.U.U.C.C.A.c.,.3 < 1           ",
". o 0 . Z.iXiXiXiXiXiXiXiXiXiXiXiXiXiXiXiXiXiXiXiXiXiXiXiXiXiXiXiXiXpXpXpXyXyXyXiX.X. . . <         ",
"o . 0 . b.iXyXuXuXwXuXuXwXuXwXuXuXuXiXuXuXiXuXuXiXpXiXuXuXiXuXpXyXyXqXqXqX4X,X<XwX^.. , . < Z       ",
". X 0 . b.uXuXuXuXuXuXuXuXuXuXuXuXuXuXuXuXuXuXiXiXiXiXiXiXuXuXuXuXuXuXuXwXqX5X4XwX}.. @ X . l       ",
"o X 1 . c.uXpXuXuXwXuXwXuXuXuXuXuXiXuXiXiXuXuXiXuXuXuXuXuXuXiXuXuXuXuXuXyXwXqXqXpX|.. 3 X . 3       ",
". . 1 . >.wXuXpXuXuXuXuXuXiXuXuXuXuXuXuXuXuXuXuXiXuXuXiXuXiXuXiXiXuXuXuXuXwXqXqXuX}.. 3 . . . .     ",
"X X 1 . ,.qXuXuXuXwXuXuXuXuXuXuXuXuXiXiXuXiXiXuXiXuXuXiXuXuXiXuXuXuXiXuXpXyXqXwXuX}.. $ X . . +     ",
"o o < . o.qXiXpXuXwXuXuXuXuXpXuXuXuXuXuXuXiXuXiXuXiXuXuXuXuXuXuXuXuXuXuXuXtXyXwXuX X. : . . . :     ",
". . < . U 5XuXuXuXwXuXuXuXuXuXuXiXiXiXiXiXiXiXiXiXiXiXiXiXuXiXiXiXiXiXiXiXiXuXuXiX{.. , X . . 1     ",
"o . : . I 6XiXuXuXuXuXuXuXuXuXyX,X3X1X1X9X9X9X9XrX9X9X9X6X6X8X>X9X9X1X1X5X3X,X=X=XZ.. $ . . . 8     ",
". @ : . F ,XiXuXuXuXuXuXuXuXuX-X[ [ %.y.s.z.n.n.n.k.f.i.i.w.w.w.@.@.@.&.&.[ ^ ! W c X . X X . e     ",
"o o = . l ,XiXuXuXuXuXuXuXuXiX,Xw...1.<.5.1.5.[ 1.1.1.<.<.1.( ( ` ) ( E ! T R ( ' H . . . . . y     ",
"@ o : . d <XiXuXuXuXuXuXuXuXuX5Xk.5.q.1.5.5.5.5.5.1.1.1.1.<.<.<.` _ ) ( ! E T T ! n . X X . . y     ",
"+ . : . u <XiXuXuXwXuXuXuXuXuX9Xm.9.0.' ' ' 1.5.1.4.1.1.1.<.<.<._ ' ( ( E T R R E v X . . X . d     ",
"+ o : . u -XiXuXuXuXuXuXuXuXuXqXN.u.e.# 4 6 s a a x v v n n m m v v v v x M a s a i X . X . . p     ",
"= o : . u -XiXuXuXuXuXuXuXuXuX0XM.i.i.. . . . . . . . . . . . . . . . . . . . . . . . . . X . y     ",
": . : . z =XiXuXuXuXuXuXuXuXiX0Xn.l.i.. # X . . X X X X X X X X X X X . X . . . . . . . . . . e     ",
": . > . N ,XuXuXuXuXuXuXuXuXuX9Xy.N.k.. + @ X + + @ + : > > < < < < 1 < 1 X . . . . . . . . . 1     ",
", . > . S ,XiXuXuXiXuXuXuXyXuX>X[ N.k.. % $ $ @ . . . . . . . o . . . . . . X . . . 6 > @ > t       ",
"= o > . I 4XiXuXuXuXiXuXuXuXuX,XM.!.Y.l . . . . * q G } ,.>.c.c.v.b.Z.Z.C.D . @ o . l               ",
"& o < . U 6XuXuXuXiXuXuXuXuXuXwX7X0X1X<X#X@XXX$X$X#X<X5XpXiXiXpXiXiXiXiXiXa.. > . . +               ",
"+ . < . { 6XuXuXuXuXiXuXuXuXuXuXuXuXtXuXuXwXwXwXuXwXqXqX8X8XqXwXwXqXqXeXeX=.. : . . .               ",
": . 1 . =.wXuXuXuXuXuXuXuXuXuXwXwXuXwXuXwXeXwX8X8XeXqXqXqXqXqXwXwXwXeXwXeX-.. : . . +               ",
"= o , . o.=X=X;X6X;X8XwXuXuXuXuXuXwXuXwXwXwXwXwXeXwXwXwXwXwXwXwXwXuXwXwXeX*.. : . X . S             ",
": o O . . r y d S Z B >XiXuXuXuXwXuXwXuXwXwXwXwXwXwXwXwXwXwXwXwXuXwXwXwX8X*.. 4 $ + . 1 y     w >   ",
", . X . . . . . 0 . K.wXuXuXuXuXuXuXwXwXwXwXwXwXwXwXwXwXwXwXwXwXwXuXwXuX>XN . . . . . . . . . . 3   ",
", . o . X + + & g f :XwXwXuXuXwXuXwXuXuXuXwXwXwXwXuXwXwXyXwXwXyXwXuXwXuX*X*.=.o.U N o o X . . . :   ",
", O . . + : ; y . K.wXuXwXuXuXuXuXuXuXuXuXtXwXwXuXwXwXuXwXwXwXuXuXuXuXuXwXuXuXuX9X9Xv.. , . . . :   ",
"> : . > : . . . l ,XuXuXuXuXuXuXuXuXuXuXuXuXuXiXuXuXuXuXuXiXuXpXiXuXuXuXwXwXuXuXuXiXZ.. 8 4 o . >   ",
": = > . . S o.C.#XuX9XuXuXuXuXuXuX0X0X0X9XtXtXtXtX9X9X1X1X<X3XiXuXuXuXuXwXuXuXwX9XuX^.^ p.:.. . X   ",
"& w . v.@X,XiXiXiXwXwXuXuXtXtX3XD.f.f.u.d.f.f.f.f.f.t.' T . G.iXpXiXiXuXuXuXuXwXuXuX_.p.S.z.. . .   ",
"o w . C.iXiXiXyXuXuXyXuXyXwXuX3XT ( <.3.3.3.2.2.2._ _ _ ) # F.iXtXiXuXiXuXuXuXwXqXuX).6.x.p.. X . @ ",
"o < . >.rXiXyXuXuXuXuXuXuXuXuX2Xg.<.0.0.q.q.7.7.7.7.3._ ) . Y.iXiXiXiXuXuXuXuXuXwXuX^...z.r.. X . O ",
". : . o.rXiXuXpXuXtXuXuXuX0XtX2Xi.7.0.7.r.r.r.t.t.7... .~ . G.iXuXiXiXuXuXuXuXwX0XuX~...g.;.. . . + ",
". : . o.rXtXuXiXuXuXuXuXuXuXuX2Xf.0.J 8 h h h x b b C b C . G.iXpXiXuXuXuXuXuXuXyXuXQ. .d.$.. . . o ",
"@ $ . U rXuXpXuXiXuXuXuXuXqXwX2Xl.p.D . . . . . . . . . : . Z.iXiXiXuXuXuXuXuXuXwXuXQ...d.$.. . . O ",
"+ $ . I 9XiXyXuXtXuXuXuXuXyXuX0Xl.p.A . + . X . . . X O 1 . b.iXiXuXuXiXuXuXuXuXwXuXQ.` p.#.. . . o ",
"X 3 . I 1XiXuXuXuXiXuXuXwXwXyX2Xl.g.J . O . . . . o o o 1 . a.tXiXiXiXuXuXuXuXuXwXuXT.| u. .. . . o ",
"@ + . K rXuXuXuXuXtXuXqXuXwXuX6Xk.g.J . # . . . . o o o > . ,.rXiXuXuXuXuXuXuXuXuXuXT.^ t. .. . . o ",
"+ + . I 9XiXuXuXuXuXuXuXyXwXwX2Xl.f.L . $ X X o o o o o : . U rXiXuXuXuXuXuXuXuXwXuXE.| r.| . . . o ",
"+ $ . I 9XiXtXuXuXuXuXuXwXwXwX2XS.f.I . + + $ : > 1 < 1 w o J aXiXuXuXuXuXuXuXuXuXuXE.| r./ . . . X ",
"+ & . I 9XiXuXuXuXuXuXwXuXqXwX0Xl.w./ % . . . . . . . . . . . ,XiXuXuXuXuXuXuXuXuXuX!.| :.X.. . . 3 ",
"O & . U 9XuXtXuXwXyXuXuXwXqXeX0XoXOXOXOX+X+X+X[.[.[.].'.).~.T.6XiXuXuXtXuXuXuXuXwXuXE. .:.P . o . @ ",
"X + . Y 5XiXuXwXuXqXwXuXwXwX9XeX0X0XeXwXwXwXwXwXeXwXwXwXwXwXwXeXwXwXwXuXiXuXiXiXuXuX~.^ $.P . X . O ",
"o + o F 5XuX9XuXyXwXyXwXwXwXwXeX7X7X7XeXeXeX8X8XeXeXwXeXeXeXeXwXeXwXeX&XOXOX=X:X-X,XE.Q #.P . . . & ",
". & . F ,XtXqXwXwXuXwXuXwXwXwXwXwX0XwXwXeXwXwXeXwXwXwXwXwXwXwXwXwXeXwX{.K.P.K.H.M.k.y.O.| J . . . = ",
"o + . S ,XuXyXyXqXqXwX0XtXtXwXwXwXwX0XwXwXwXwXqXwXwXwXwXwXwXeXeXwXeXwX&X(._.(.W.E.K.%.^ ^ P . . . : ",
". + . F <XqX0X9X9XwXwXwXwXwXtXwXtXwXwXwXwXwXwXwXwXwXwXuXwXeXqXwXwXeXwX&XW.(.(.W.W.P.! n L C + . . > ",
". + . N ,XuX0X0X9X0XuXwXtXwXwXuXwXuXtXwXtXtXuXtXuXwXuXuXuXwXqXwXwXwXwX*XE._.(.(.(.P.` 9 v h O . . , ",
". O . i  X}._.W.P.eXwXyXwXwXuXuXuXwXtXwXuXuXuXpXuXpXuXtXuXwXwXwXwXqXwXOX*.m.B.D.H.F.@.a 9 - . . . 1 ",
". . . + m a v 5 n >XiXuXuXuXuXuXtXuXuXuXuXuXiXiXiXiXiXiXuXwXwXwXwXuXiXXX. . . . O t f 6 = . . . .   ",
". . . . . + X . 4 D.P.D.J.S.M.M.M.M.M.M.M.S.M.D.L.H.C.m.n.v.h.h.b.j.T.T.y . + . . . . . . . . . .   ",
". o . o X . @ . 4 ` ' ( ) ( ( ( ( ( ( ( ( ( ! ! W W T Q Q E Q Q Q U / >.P . + . . @ . . . . . : j   ",
"o . X . . . . . 2  .8.6.6.4.5.4.6.6.4.6.6.6.6.6.6.$.$.$.$.O.O.#.$.#.$.z.O.. X . . . . . . . u l     ",
". . . . . . . . 4 ) 2.2.3.2.2.2.2.4.2.2.+.+.1.+...O...#... . .O. . . .y.;.O . o . . . . . X Z       ",
"j C V t . . . . e ~ ) _  ._ _ _ ' ' ........[ O.O.[  ...O.O.O.+.O.O.&.y.a.p . . . . . . . 1 S       ",
"        j . X . 2 i p p 9 h a M k x m c b v n n n H A A A H H J K K K U X.z . X . . w r             ",
"          . . . . . . . . . . . . . . . . . . . . . . . . . . . . . . . . X . . . . I               ",
"          > . . . . O . . X X . X . X X X X X X X X X . . X @ . o X . @ . . . . . <                 ",
"          0 o o . . o . o . . . . . . . . . . . . . . . . . . . . . . . . . . . . >                 ",
"          0 . . . o . . o . . . . . . . . . . . . . . . . . . . . . . . . . . . . :                 ",
"          7 & . . . . . . . . . o . . . . . . . . . . . . . . . . . . . . . . . . +                 ",
"          t t . . . o o . . . o . . o . o o . . . . . . . o . . . . . . . . . . . @                 "
};
