/* XPM */
static char *out[] = {
/* columns rows colors chars-per-pixel */
"50 63 202 2 ",
"   c None",
".  c #000001",
"X  c #0A0304",
"o  c #04030A",
"O  c #09040A",
"+  c #070A0B",
"@  c #0B0C0C",
"#  c #110E0C",
"$  c #13010D",
"%  c #11100D",
"&  c #0A0A13",
"*  c #070713",
"=  c #130D13",
"-  c #140915",
";  c #0F1313",
":  c #131315",
">  c #1B1114",
",  c #15131A",
"<  c #15181B",
"1  c #1B1B1C",
"2  c #181815",
"3  c #291C1B",
"4  c #211517",
"5  c #1B1722",
"6  c #1B1B25",
"7  c #231E24",
"8  c #2A1F22",
"9  c #1F2021",
"0  c #232423",
"q  c #2A2323",
"w  c #2D2B2D",
"e  c #28262A",
"r  c #362C2D",
"t  c #382A2A",
"y  c #312424",
"u  c #2F312F",
"i  c #2A2734",
"p  c #332D30",
"a  c #3C2C31",
"s  c #2C3232",
"d  c #323134",
"f  c #3C3434",
"g  c #36343D",
"h  c #3C363A",
"j  c #393A3C",
"k  c #343C3E",
"l  c #35352D",
"z  c #422E2D",
"x  c #40302E",
"c  c #412C31",
"v  c #473431",
"b  c #4C3635",
"n  c #43353C",
"m  c #483A3E",
"M  c #533B3C",
"N  c #44433A",
"B  c #3B3544",
"V  c #3E3E44",
"C  c #3E3C49",
"Z  c #4D3741",
"A  c #443C41",
"S  c #443B46",
"D  c #503B46",
"F  c #3C4245",
"G  c #43464B",
"H  c #4B474C",
"J  c #4C4C4D",
"K  c #474445",
"L  c #544244",
"P  c #5D4346",
"I  c #53474B",
"U  c #5D454B",
"Y  c #564B4D",
"T  c #5C4B4E",
"R  c #4D4E51",
"E  c #4A4B57",
"W  c #584E51",
"Q  c #535154",
"!  c #5E5354",
"~  c #5D5B5D",
"^  c #55565C",
"/  c #614446",
"(  c #64464B",
")  c #634D4D",
"_  c #6C4D4D",
"`  c #724F4F",
"'  c #65514E",
"]  c #644D51",
"[  c #6B4F51",
"{  c #774F51",
"}  c #784F51",
"|  c #645253",
" . c #6B5354",
".. c #645659",
"X. c #6E545B",
"o. c #655B5B",
"O. c #6C5C5C",
"+. c #695854",
"@. c #745355",
"#. c #7B5455",
"$. c #7F5856",
"%. c #75565C",
"&. c #7C555B",
"*. c #745A5C",
"=. c #7C5B5D",
"-. c #745855",
";. c #6D615F",
":. c #75615E",
">. c #5C5D67",
",. c #6C5B60",
"<. c #7C5662",
"1. c #715E61",
"2. c #7D5C62",
"3. c #646265",
"4. c #6D6463",
"5. c #6C6A68",
"6. c #746264",
"7. c #7B6465",
"8. c #746A67",
"9. c #7B6967",
"0. c #7D6A6A",
"q. c #786669",
"w. c #78706B",
"e. c #7C7572",
"r. c #7A7876",
"t. c #815756",
"y. c #805857",
"u. c #80575B",
"i. c #805A5C",
"p. c #805A60",
"a. c #826B6A",
"s. c #85706D",
"d. c #816E71",
"f. c #867272",
"g. c #897675",
"h. c #847A76",
"j. c #857779",
"k. c #867A7A",
"l. c #8D7B7B",
"z. c #8B7777",
"x. c #917D7C",
"c. c #8B817E",
"v. c #85847B",
"b. c #92807E",
"n. c #937F80",
"m. c #878A86",
"M. c #8C8F8A",
"N. c #868481",
"B. c #948383",
"V. c #998B88",
"C. c #8F948F",
"Z. c #9A948E",
"A. c #989B99",
"S. c #A0928E",
"D. c #A19393",
"F. c #A59A97",
"G. c #A59B99",
"H. c #A99B99",
"J. c #ACA39C",
"K. c #A4A6A3",
"L. c #A9ADAA",
"P. c #AAA9A4",
"I. c #B0ABA6",
"U. c #B9B2AC",
"Y. c #B5B3A9",
"T. c #BFB9B6",
"R. c #B6B5B5",
"E. c #C3BFBC",
"W. c #C4BBB6",
"Q. c #C6C1BC",
"!. c #C8C3BE",
"~. c #CEC6C1",
"^. c #CCCBC8",
"/. c #C9CAC4",
"(. c #D2CCC7",
"). c #CFD0C9",
"_. c #D4D3CD",
"`. c #D9D0CB",
"'. c #D6D5D3",
"]. c #D9D6D4",
"[. c #DBDAD5",
"{. c #DDDDDB",
"}. c #E3DED6",
"|. c #E4DDDA",
" X c #E0D6D1",
".X c #DFE2DA",
"XX c #E4E4DD",
"oX c #EAE3DE",
"OX c #E6EBE2",
"+X c #ECECE4",
"@X c #EDE9E7",
"#X c #F0EAE3",
"$X c #F3ECEA",
"%X c #ECF1E9",
"&X c #F4F3EB",
"*X c #F7FCEC",
"=X c #FBFDED",
"-X c #F4F7E6",
";X c #FCF7F1",
":X c #FDFEF4",
">X c #FFFFFB",
",X c #F6FBF2",
/* pixels */
"                                                                                                    ",
"                            & + o . . . . . . . . . . . . . . . . . . . . X 7 g                     ",
"              d : + + . . . . . . . . . . . . . . . . . . . . . . . . . . . . O o o O =             ",
". @ : ; . . + + . . . . . . . . . . . . . . . . . . . . . . . . . . . . . . . . . . . . O           ",
". . . . . . . . . . . . . . . . . . . . . . . . . . . . . . . . . . . . . . . . . . . . +           ",
". . . . . . . . . . . . . . . . . . . . . . . . . . . . . . . . . . . . . . . . X . X . o 6         ",
". . . . . . . . . . . . . . . . . . . . . . . . . . . . . . . . . . . . . . . X . . . . X ,         ",
". . . . . . . . . . . . . . . . . . . . . . . . . . . . . . . . . . . . . . . . X . . . . =         ",
". . . . . . . . . . . . . . & g G 6 C B S Q 3.5.r.v.m.M.C.A.A.K.K.L.L.A.V . . . . . . . . =         ",
". . o . o . . . . . . . . l m.K.R.P.R.T.E./.^.'.'..XXXOXOX%X%X%X,X,X>X{.~ . . . . . . . . 1         ",
". . . o . . . w l N 4.v.Z.Y.XX+X%X,X,X:X>X>X:X:X>X:X:X:X,X=X,X=X=X*X;X'.Q . . . . . . . . < G       ",
". . o . . . e M.Y.Y._.+X=X:X=X=X=X:X*X:X,X:X=X=X=X=X=X=X=X=X=X*X-X*X:X|.~ . . . . . . . . 1 F       ",
". . . . o . Q _.:X:X:X=X=X=X=X*X=X*X,X=X=X=X=X=X=X=X=X=X=X=X=X=X-X=X=X#X4.. . . . X . . . < F       ",
". . . . . . d ).:X=X;X=X=X*X*X=X*X*X=X:X=X=X=X=X=X=X=X=X=X=X=X=X=X=X=X#X5.. . X O O . . . ; k ^     ",
". . . . . . o ).>X*X=X*X*X*X=X*X*X*X*X=X=X=X=X=X=X=X=X=X=X=X=X-X*X;X:X@Xr.> 4 8 f p X . . + s G R   ",
". . . . . . . ^.:X=X;X=X;X*X=X=X,X*X=X=X=X=X=X=X=X=X=X=X=X=X=X=X=X;X:X@Xr.Y o.o.,.I . . . . . : < < ",
". . . . . . . ^.:X:X:X,X=X=X=X=X:X=X:X:X=X:X=X:X:X=X=X:X=X:X=X:X=X:X:XoXc.4.0.f.k.! . . . . . . . . ",
". . . . . . . ^.>X,X:X,X,X=X:X:X=X=X:X=X:X:X:X:X:X:X:X:X:X=X:X:X:X:X:XoXc.7.s.x.B.o.. . . . . . . . ",
". . . . . . . ^.>X;X:X:X,X:X:X,X=X=X=X:X:X=X=X:X:X:X:X=X:X=X=X:X:X:X:XXXc.9.s.B.V.o.. . . . . . . . ",
". . . . o . . ^.>X:X;X,X:X,X:X,X:X=X:X:X:X:X:X:X:X=X=X:X=X:X=X:X:X:X:X Xc.9.s.b.B.... . . . . . . . ",
". . . . . . . ^.>X:X:X,X>X:X:X:X:X=X:X:X:X:X:X:X:X:X:X=X:X=X:X:X:X:X>X].k.7.f.n.B.... . . . . . . . ",
". o . o o . . ^.>X:X>X>X,X:X:X:X:X:X:X:X:X:X:X:X:X:X:X:X:X:X:X:X:X:X:X_.h.7.g.n.B.~ . . . . . . . . ",
"o . . . . . . ^.>X:X;X>X>X;X>X:X:X:X:X:X:X=X:X:X:X:X:X:X=X:X:X:X:X:X:X(.e.9.g.x.B.! . . . . . . . . ",
". o . o o . . ^.>X;X>X,X:X,X:X:X:X:X:X:X:X:X:X:X:X:X:X:X:X:X:X:X:X:X:X/.e.0.d.z.n.! . . . . . . . . ",
"o o . o . . . ^.>X;X>X:X,X>X>X:X:X:X:X:X:X:X:X:X:X:X:X:X:X=X:X:X:X:X>X!.w.9.a.z.k.! . . . . . . . . ",
"o o . . o . . ^.>X,X:X>X>X:X:X,X:X:X>X:X:X:X>X:X:X:X:X:X:X:X:X:X:X>X:XQ.8.6.a.z.z.Y . . . . . . . . ",
"o o . . . . - ^.>X:X:X>X:X:X:X>X:X:X:X:X:X>X>X:X:X:X:X:X:X:X:X:X:X:X:XQ.8.:.0.f.f.Y . . . . . . . . ",
"o . . o o . p _.>X:X:X:X:X:X:X:X:X:X>X:X:X:X:X:X:X:X:X=X:X:X:X:X:X:X>XQ.4.;.9.d.e.I . . . . . . . . ",
"o o . o . . A _.>X:X:X:X:X:X:X:X:X:X:X>X:X:X:X:X:X:X:X:X:X:X:X:X:X:X>XW.4.*.7.a.0.H . . . . . . . . ",
"o o . . o . J '.>X:X:X:X:X:X>X:X>X:X:X:X>X:X:X>X:X:X:X:X:X:X:X:X>X:X>XT.4.,.7.q.q.D . . . . . . . . ",
"o . . . . . Q ].>X:X:X:X:X:X>X:X>X:X:X>X:X:X:X>X:X:X:X:X:X:X:X>X:X>X>XU.;.O.6.q.6.K . . . . . . . . ",
"o o . . o . >.{.>X>X:X:X:X:X:X:X:X:X:X:X>X:X:X:X:X:X:X:X:X:X:X>X>X>X>XI.o.+.1.1.o.n . . . . . . . . ",
"o . . . . . 3.{.>X:X:X:X:X:X:X>X:X>X:X:X>X:X:X>X>X:X:X:X:X:X>X:X>X>X>XP.o.+.O.1.o.n . . . . . . . . ",
"o . . o o . Q {.>X;X:X>X>X:X:X:X:X>X>X:X>X:X:X>X>X:X:X:X:X:X:X>X:X:X>XF.| | O.O.! a . . . . . . . . ",
"o . X . . . B T.$X;X;X;X:X>X>X>X>X>X>X>X>X>X>X:X>X>X>X>X>X>X:X>X>X>X>XZ.' | ....T f . . . . . . . . ",
"o o . . . . Z d.D.H.H.D.D.G.G.G.G.F.G.J.J.P.U.W.E.~.(.`. X|.oX#X$X#X|.j.) ' [ | T r . . . . . . . . ",
"o . . . o . A ,.7.7.2.%.<.%.%.%.*.*.@.-.$.:.a.a.s.g.z.l.b.V.V.V.S.V.c.+.' ' U T T r . . . . . . . . ",
"o . . o . . A X.2.2.2.<.<.<.<.2.2.p.<.=.$.:.$.:.%.&.-.@.@.@. . .[ _ ) '  .) ] ] T a . . . . . . . . ",
"o o . . . X Z X.2.p.<.<.<.&.%.<.<.i.p.i.7.u.i.i.i.i.a.2.=.2.2.=.=.&.@. .' [ ] ] T a . . . . . . . . ",
"o . . . . o Z X.<.<.&.&.&.&.&.u.u.p.i.i.u.u.i.i.i.i.$.u.=.p.=.=.&.@.@. ._ ) ] ] U a . . . . . . . . ",
"o . . . . O Z X.<.<.} &.#.#.&.u.&.=.u.u.t.t.y.y.u.i.u.u.i.i.$.#.} } ` _ _ ( ( ( U a . . . . . . . . ",
"o o . . X $ D X.%.&.&.&.#.#.} u.$.$.u.t.t.$.$.y.y.y.y.u.$.$.$.#.} { ` _ ( ( ( / P a . . . . . . . . ",
"& o . o . - D | X.@.@.@.} } &.} #.$.#.#.#.#.#.#.#.#.$.$.#.#.} } } { _ _ / / / ( P c . . . . . . . . ",
"- o . . . > n L L P / / ( / U ( ) _ _ _ _ _ _ _ ` _ _ ` _ ` _ ` _ ` ` ` N / / ( U c X . . . . . . . ",
"5 . . . . X = > > 4 3 3 8 3 8 y t t a x z x v v v v b b b b b M M M M M M M L L L t . . . . . . . . ",
"5 . . . . . . . . . . . . . . . . . . . . . . . . . . . . . . . . X . X . . X X X . . . . . . . . . ",
"i o . . . . . . . . . . . . . . . . . . . . . . . . . . . . . . . . . . . . . . . . . . . . . . . . ",
"i * o . . . . . . . . . . . . . . . . . . . . . . . . . . . . . . . . . . . . . . . . . . . . . . . ",
"B , . . . . . . . . . . . . . . . . . . . . . . . . . . . . . . . . . . . . . . . . . . . . . . . . ",
"C 5 o . . . . . . . . . . . . . . . . . . . . . . . . . . . . . . . . . . . . . . . . . . . . . . . ",
"E e o . . . . . . . . . . . . . . . . . . . . . . . . . . . . . . . . . . . . . . . . . . . . . . . ",
"E B & . . . . . . . . . . . . . . . . . . . . . . . . . . . . . . . . . . . . . . . . . . . . . . . ",
">.S , X X : : X . . . . . . . . . . . . . . . . . . . . . . . . . . . . . . . . . . . . . . . . . + ",
">.H 7 7 h h w = . . . . . . . . . . . . . . . . . . . . . . . . . . . . . . . . . . . . . . . . . < ",
"  J h h K J H 0 . . . . . . . . . . . . . . . . . . . . . . . . . . . . . . . . . . . . . + . . @   ",
"            Q p . . . . . . . . . . . . . . . . . . . . . . . . . . . . . . . . . . . . . 1 i = 0   ",
"              w O . . . . . . . . . . . . . . . . . . . . . . . . . . . . . . . . . . . . 0 G d     ",
"                1 . . . . . . . . . . . . . . . . . . . . . . . . . . . . . . . . . . . . 9 Q       ",
"                e . X . . . . . . . . . . . . . . . . . . . . . . . . . . . . . . . . . . 9         ",
"                w 1 6 , O o o o . . o . . X . . . . . . . . . . . . . . . . . . . . . . % u         ",
"                h K           d u w 0 0 9 1 1 1 1 2 % % % % % @ @ @ ; @ @ o + . . . . . :           ",
"                                                                      K F j d w 1 : 1 d             ",
"                                                                      J J J R Q                     "
};
