/* XPM */
static char *out[] = {
/* columns rows colors chars-per-pixel */
"30 86 186 2 ",
"   c None",
".  c #000001",
"X  c #01000C",
"o  c #030113",
"O  c #0A0415",
"+  c #05021A",
"@  c #0B041B",
"#  c #0D0A1B",
"$  c #07091C",
"%  c #120D1C",
"&  c #10061A",
"*  c #05101F",
"=  c #14121D",
"-  c #19171F",
";  c #050320",
":  c #0C0521",
">  c #060A22",
",  c #0C0D23",
"<  c #110621",
"1  c #110C21",
"2  c #180D20",
"3  c #130A29",
"4  c #0E1125",
"5  c #141323",
"6  c #191524",
"7  c #1A1924",
"8  c #141329",
"9  c #18132A",
"0  c #16192B",
"q  c #1B1C2B",
"w  c #171A25",
"e  c #1D1D33",
"r  c #171235",
"t  c #211D2C",
"y  c #221F31",
"u  c #1E232C",
"i  c #1D2231",
"p  c #25212E",
"a  c #242334",
"s  c #2A2634",
"d  c #272934",
"f  c #2A2A36",
"g  c #232339",
"h  c #2A263D",
"j  c #2B2C3C",
"k  c #332D3C",
"l  c #2D323C",
"z  c #35333E",
"x  c #38323F",
"c  c #292E42",
"v  c #2E3242",
"b  c #2E3942",
"n  c #333443",
"m  c #3B3443",
"M  c #333B45",
"N  c #3B3B45",
"B  c #353A4A",
"V  c #3C3C4B",
"C  c #3F3F52",
"Z  c #413F51",
"A  c #3D434E",
"S  c #414A4B",
"D  c #464554",
"F  c #4D4E54",
"G  c #46495C",
"H  c #474854",
"J  c #4E5855",
"K  c #53535C",
"L  c #4E5066",
"P  c #5A5767",
"I  c #585863",
"U  c #5B5C6A",
"Y  c #515369",
"T  c #575870",
"R  c #5F5E71",
"E  c #605E63",
"W  c #5E6168",
"Q  c #67666C",
"!  c #68726E",
"~  c #646474",
"^  c #6C6C74",
"/  c #6A6C7C",
"(  c #656E72",
")  c #6E7175",
"_  c #6D727C",
"`  c #727376",
"'  c #7A7B7D",
"]  c #76787C",
"[  c #757E86",
"{  c #7C7E84",
"}  c #767F8A",
"|  c #7B7C8D",
" . c #757487",
".. c #7C838B",
"X. c #7E8793",
"o. c #838586",
"O. c #83858B",
"+. c #8B8B8D",
"@. c #8E938F",
"#. c #90908F",
"$. c #848B94",
"%. c #8A8E94",
"&. c #868C99",
"*. c #898E9A",
"=. c #818695",
"-. c #918F90",
";. c #908F98",
":. c #8C9196",
">. c #8D939A",
",. c #939394",
"<. c #92959C",
"1. c #999698",
"2. c #949A9D",
"3. c #9A9B9F",
"4. c #959CA2",
"5. c #9B9DA2",
"6. c #9B9DAA",
"7. c #9DA2A3",
"8. c #A1A5A5",
"9. c #A3AAA6",
"0. c #A2A5A9",
"q. c #A3ABAC",
"w. c #AAAEAC",
"e. c #A7B2AF",
"r. c #ACB1AC",
"t. c #AFB3A5",
"y. c #B3B8AE",
"u. c #AAAEB3",
"i. c #A6B2B3",
"p. c #ABB4B2",
"a. c #ACB6BA",
"s. c #B1B4B2",
"d. c #B5BAB4",
"f. c #B8BFB6",
"g. c #B2BDBC",
"h. c #B9BDBB",
"j. c #BBC2B7",
"k. c #BDC4BB",
"l. c #C0C9B7",
"z. c #C1C7BD",
"x. c #C2C9BD",
"c. c #CACFBD",
"v. c #CBD0BF",
"b. c #B9BCC3",
"n. c #BFC4C2",
"m. c #C1C6C1",
"M. c #C5CCC2",
"N. c #CACEC4",
"B. c #C2C8CD",
"V. c #CCD2C5",
"C. c #C7D2CA",
"Z. c #CCD3CA",
"A. c #D1D6C6",
"S. c #D6DBC6",
"D. c #D9DEC6",
"F. c #D1D5C9",
"G. c #D5DACA",
"H. c #DADECB",
"J. c #CFDCD1",
"K. c #D5DBD3",
"L. c #D9DFD0",
"P. c #DCE0C7",
"I. c #DDE1CB",
"U. c #DDE3D1",
"Y. c #E0E4CB",
"T. c #E4E6D3",
"R. c #E6E9D5",
"E. c #E8EAD6",
"W. c #E6E7DC",
"Q. c #E6EADA",
"!. c #EAECDA",
"~. c #EDF1DE",
"^. c #F1F5DF",
"/. c #EDEEE3",
"(. c #E3EBE8",
"). c #EEF3E2",
"_. c #F2F5E3",
"`. c #F6FAE6",
"'. c #F9FBE6",
"]. c #F4F6EC",
"[. c #F6FAEA",
"{. c #F9FDEB",
"}. c #F5F5F7",
"|. c #F7FCF0",
" X c #FBFDF3",
".X c #FDFEFA",
/* pixels */
"                          q a d d d d d f d d u             ",
"                u + o o o o X . X o X X o o o o o $ q       ",
"                4 o o o o o + o o + > + + ; ; ; ; : e       ",
"                0 o X o o X + + o + + + + + + + + ; e       ",
"                4 o X o o + o + o + + + + + + + ; + e       ",
"                8 o o o o o o + + o + + + + + + ; ; a       ",
"                8 * % = = 5 5 4 1 1 # # # , # # : : a       ",
"                > . . . . . . . . . X X o o o o + : f       ",
"                u Q ] ] ' ] ` ^ Q F N n a y q q , o q       ",
"q X o o o o 5 . ..}..X.X.X.X X].).(.N.n.m.h.f.n.5.. % # + g ",
"7 X o o + o 5 . :..X X X X X{.{. X_.I.C.M.V.V.K.q.. # o o i ",
"= X o o + + 6 . %. X|.|.{.{. X{.{.[.K.m.z.k.k.N.0.. = @ ; g ",
"= X X o + o 6 . %..X X{.{.{.{.{.[.`.U.n.k.k.k.C.0.. = O o g ",
"= X o o o o 5 . %..X[. X{.{.{.'.{._.J.k.k.z.k.C.5.. = + + a ",
"% X o o o O 5 . O..X X{.{.{.{.'.'.`.U.C.m.z.k.C.2.. 7 + + g ",
"= X o o o o 5 . O..X{.{.{.'.{.{.{._.Z.r.a.k.j.C.,.. 7 + $ g ",
"= X o o o o 6 . O..X].{.{.{.{.'.'.).i...X.i.j.n.o.. 5 + @ B ",
"% X O o O o 6 . %..X]. X{.{.'.'.`.).n.4.4.i.j.n.' . 5 + e G ",
"= . o o o O 6 . ;..X{.{.{.'.'.'.`.Q.n.7.4.q.i.i.I . % + a   ",
"= X o o O o 6 . ;..X{. X{.{.{.'.`.).n.j.i.e.q.X.z X @ + q   ",
"6 X o o o o 6 . ;..X X{.{.'.'.'.).(.C.a.a.i.i.4.f X # + a   ",
"- X o o o o 6 . <..X{.{.{.'.{.'.`.(.J.g.a.i.i.4.a X @ o a   ",
"  X o o o o 6 . 1..X{.{.'.{.'.'.`.).J.g.j.e.i.4.p X @ o j   ",
"  X O o o O 6 . +. X{.{.'.'.'.'.`.).J.j.i.e.e.4.a X @ @ v   ",
"  X o O + O 2 . { .X.X.X.X.X.X.X X|.(.B.b.g.a.6.j X @ % M   ",
"  o o O O o @ . K b.s.s.s.s.s.s.r.r.2..._ _ / U 8 o o q H   ",
"  O O + + @ o + . . X . . . . . . . . . . . . . X o o v     ",
"  O @ @ + @ @ + @ 7 7 7 7 7 7 7 7 6 5 % # # # + o o o v     ",
"  @ @ @ @ @ @ + o X X X o X X X X X o o X o X o o o $ b     ",
"  % @ @ @ @ @ + o X o o X o o o o o X o o o o o o X $ A     ",
"  # @ < @ : @ @ o o o o o o o X X X o X X o X o o X 5 A     ",
"  1 : < & : < @ + + o o o X X o o o o o o o o X X X a       ",
"  3 @ @ + O + + + 1 1 # % # & & # O O O @ # # # # X f       ",
"  s y y t p q 7 X . . . . . . X X + . . . . . . . + B       ",
"  V V n z z N : 2.K.N.N.C.V.F.F.V.F.v.M.z.j.y.y.e.( A       ",
"  V m k n j m . 7..X{.{.{.'.'.]._._.~.R.T.T.I.P.V.! b       ",
"  V m f h c n . #.[._._._._._._.~.~.R.P.I.P.S.S.l.J M       ",
"  N m f s s c . +.{._._._._._._._.~.E.Y.G.I.P.S.j.S M       ",
"  N x f s a v . +.|._._._.`._._.^.~.E.I.P.I.P.A.y.l v       ",
"  N k s s a j . o.|._._._._._.'.^.~.E.I.P.P.A.P.r.* n       ",
"  N s s s y h . { {._._.].'.'.^.^.E.Q.P.P.S.S.A.9.. b       ",
"  N p p t t a .  .|._._.`.`.^._.^.~.U.S.A.P.P.Z.,.. n       ",
"  z 5 7 7 9 u . ` |._.`.].`.'.'._.~.R.I.S.A.V.M.' . h B     ",
"  z O % # # 7 . ^ ].`.`.'.].'.'.`.~.E.I.A.V.G.k.W X i v     ",
"  z O # # # 0 . ) |._.`.'.`.'.].`.).!.H.A.v.A.g.C ; e c     ",
"  x X & O @ 5 . ^ ].`.`.`.'.'.[.`._.Q.G.v.v.V.p.r 5 8 h     ",
"  z X & O @ 5 . ` |.[.'.'.`.[.{.`./.R.G.A.N.N.0.+ 9 3 g     ",
"  k O O O @ 5 . ] {.[.[.'.`.`.[.`._.R.G.v.M.N.5.X q < g     ",
"  k O O X O 6 . ' {.[.'.'.'.'.[.`.).Q.G.c.k.V.:.. q < g     ",
"  x O O O O - . o. X'.[.{.'.{.[.{.).R.Z.k.k.x.%.. 7 : i     ",
"  m O O O O 7 . o.|.`.].'.'.'.'.{.).R.C.k.j.k.o.. 6 @ g     ",
"  m & X O o 7 . +.|.`.{.{.'.[.`.`.).U.V.k.j.k.] . 6 + a     ",
"    & O X O 7 . -. X[.[.`.'.'.`.`.).U.V.d.s.f.^ . 6 + i     ",
"    % X X O 7 . ;.{.'.'.[.`.`.`.`.).R.V.f.d.d.^ . 6 o u     ",
"    2 X X X - . ;.{.[.[.].`.`.`._.).I.N.s.r.s.~ . 5 o q     ",
"    6 X O O 7 . ;.{.`.].].`.`.`.`.).U.z.d.s.p.R . 5 o q     ",
"    6 X o o 7 . 1. X'.].'.'._._._.).U.c.y.e.w.W . 5 o w     ",
"    t . o X 7 . 1. X_.].]._.'._._.).I.k.r.9.9.P . = o q     ",
"    p X O X 7 . 3.{._.'._._.]._._.~.H.j.r.9.8.P . 5 o q     ",
"    p . o O 7 . 5.]._._._._._.^._.!.G.f.9.7.7.U . % o 5     ",
"    s . O X 6 . 1.]._.^._./.^.^.).~.V.8.7.7.5.U . 2 + w     ",
"    s . O X = . 1._.!.^.^.^.^./.).Q.z.7.5.4.4.R . 1 o q     ",
"    k . X O t . -./.!.~./.^.!.^.~.Q.k.7.4.4.2.R . % X q     ",
"    f . O O = . -./.!.!.!.!.!.!.!.T.a.>.<.>.>.~ X % X u     ",
"    f . O o = . -.!.E.E.!.!.!.!.E.L.w.1.4.&.>.~ X % o q     ",
"    f . O o - . +.W.E.E.!.E.!.T.E.H.9.<.>.%.:.~ X # o u     ",
"    f . O o 5 . -.E.T.E.E.E.E.E.R.A.8.:.>.%.&./ + # o q     ",
"    p . O o = . -.T.T.T.E.E.E.T.U.A.9.<.<.>.>. .+ O o 5     ",
"    a . o o - . ,.W.T.T.R.R.T.T.T.l.2.>.>.>.>.| : O o 4     ",
"  D p . o O = . 1.!.T.E.R.R.Q.T.E.t...&.&.&.&.| : o o 5     ",
"  H p . o o w . 1.!.E.E.E.E.!.!.E.s.O.>.*.&.&.| 3 o o 5     ",
"  D p X O o 5 . -.!.T.E.!.W.!.E.!.s...&.&.=.%.| 9 + o =     ",
"  D t X o o 5 . #.!.E.!.E.!.!.E.Q.s...&.$.$.$.| 9 o o 2     ",
"  Z q X O o 5 . +.!.E.!.!.!.!.Q./.s.[ &.$.$.$.| 9 o + 5     ",
"  C 6 X + o 5 . +.!.E.E.E.W.E.E.Q.s.[ X.$.$.$.| 9 O O 6     ",
"  D 5 X + o 5 . ' W.W./._.)./.)./.k...&.X...=. .9 + o q     ",
"  A 5 o + $ , a F %.,.5.7.9.0.q.8.{ Y T L G C n < + + t     ",
"                f . . . . X . . . . . . . . . X o + # B     ",
"                % = % % = = = - - # o O O + o + o o $       ",
"                O o X X X X X o X o o o o o o o o o $       ",
"                + o o o o o o o o o o o o X o o o o $       ",
"                + o X o o o o o o o o o o o o X o o $       ",
"                # o X o o o o o o o o o o X o o o X ,       ",
"                # X X X X X X X X X X X X X X o o o 4       ",
"                8 > : , , , 8 8 , , 0 0 0 0 0 0 8 8 i       ",
"                  v                                         "
};
