/* XPM */
static char *_[] = {
/* columns rows colors chars-per-pixel */
"64 64 50 1 ",
"  c None",
". c #181818",
"X c #2A2A2A",
"o c #373737",
"O c #393939",
"+ c gray26",
"@ c #494949",
"# c gray34",
"$ c #585858",
"% c gray38",
"& c #686868",
"* c #68767E",
"= c #717171",
"- c #BE2C2C",
"; c #B53939",
": c #DE0000",
"> c #D40D0D",
", c #D80808",
"< c #CF1515",
"1 c #C81E1E",
"2 c #D01313",
"3 c #C32424",
"4 c #845231",
"5 c #845638",
"6 c #83583C",
"7 c #F75A08",
"8 c #EF5D10",
"9 c #E75F18",
"0 c #EF7B18",
"q c #D3652C",
"w c #C46A3C",
"e c #825C41",
"r c #9F5555",
"t c #9A5C5C",
"y c #AA4646",
"u c #AA4848",
"i c #A15353",
"p c #826551",
"a c #816C5E",
"s c #BC6D44",
"d c #826E61",
"f c #8C6F6F",
"g c #827369",
"h c #9B7764",
"j c #F7B521",
"k c #EFA573",
"l c gray74",
"z c #EFBD9C",
"x c #EFDECE",
"c c white",
/* pixels */
"                                                                ",
"                                                                ",
"                                                                ",
"                                                                ",
"                                                                ",
"                                                                ",
"                                                                ",
"                                                                ",
"                                                                ",
"                                                                ",
"                                                                ",
"                                                                ",
"                                                                ",
"                                                                ",
"                                                                ",
"                                                                ",
"                                                                ",
"                              -w    f                           ",
"                       fh    3707- 27u                          ",
"                       7:7:0:00007:7:7                          ",
"                     u707:07000j007:7::                         ",
"                    877:0077j0jcj0j7:7::7,                      ",
"                   9:0:0:j7j0jjxjj0j7j77:7:                     ",
"                  s:7:0:j7j0jjxcxjj0j7j7j:02                    ",
"                  77770j7j0jxjxxcxjj0j7j:j:7;                   ",
"                 q:70007j0jxjxccxxxjx0j0j0j00h                  ",
"                 :070jjj0jxjxxxccxjxjxjxjjjj0:                  ",
"                :0:j7jxjjxjxxxccxcxxxjxxxcx00j>                 ",
"               :0:07jjcxxjxxcxcccxcxczxcxxj0j0j*                ",
"              :0:j:j7jxcxcxcxcccccxccxcxcj0j0j:0*               ",
"            1:7:j7j0jxjxcxccccccccccccccxjx0j0j:02              ",
"          t::7:07jxjxjxxcccl lcccl lcccxjxjxjj7j:0,             ",
"         3::707jjjjxjxxcl $         $ lxxjxjj0j0j7::            ",
"       i7:77:7000jxjxjxl$$$OO$$$$$OO$$$lxxjx0j0j7:0:7-          ",
"      <::7:77:07jjjxjxl OOO..$   $..OOO lcxjj0j7:0:4:7:r        ",
"    i:::7:77:07j:j7xcx O$$... lll ...$$O ccxjj0:7:4:4:::6       ",
"      27:7:47707jjxcxc$$ lO.OlxcxlO.Ol $$cccj7j7:7:4:74d        ",
"       y7:7::07j0xxxxxO lxO.$lxcxl$.Oxl Ojxcxj777:444p          ",
"         ::47:00jjjj0j$lccO. lxcxl .Occ $7jjj7j:7444            ",
"          4:47:j0jj0j0 llllllzccczllllll j7j:j77444             ",
"          44::70j007:$    $$$$$$$$$$$    $j:7:4:444             ",
"          d444:70:0$ $OO..OO lcccl OO..OO$ $:4:4444             ",
"           44:4440$$OOOO..O$lxcccxl$O..OOOO$$:444:p             ",
"           a44:44OOOO l$..O$lxcccxl$O..$l OOOO44:4              ",
"            6:4:4$O.$ lO..O lxcccxl O..Ol $.O$4:4d              ",
"             5:44O.O$ lO..O lxcccxl O..Ol $O.O44d               ",
"              ge4O.O       kzccccczk       O.O4                 ",
"                 O.O$ $O...............O$ $O.@                  ",
"                 O$ O.OOOOOOO O.O OOOOOOO.O $+                  ",
"                % $OO$$$$$$$$ O.O $$$$$$$$OO$ $                 ",
"              = $O..O$$$ $$$$ O.O $$$$ $$$O..O$                 ",
"              $O...O$$$$O$$$$lO.Ol$$$$O$$$$O...O$               ",
"             @..O..OOOOOOOOOO O.O OOOOOOOOOO..O..#              ",
"            &......O$$$$$$$$$ O.O $$$$$$$$$O......&             ",
"            .O....O$$$$ $$$$$ O.O $$$$$ $$$$O....O.             ",
"           %...O..O$$$$O$$$$$ O.O $$$$$O$$$$O..O...%            ",
"           .......O.OOOOOOOOO O.O OOOOOOOOO.O.......            ",
"          $.O.....O          lO.Ol          O.....O.$           ",
"          ....O..O$$$$$$$$$$$ O.O $$$$$$$$$$$O..O....           ",
"         $.......O$$$$ $$$$$$ O.O $$$$$$ $$$$O.......#          ",
"         ..O....$$$$$$O$               $O$$$$$$....O..          ",
"        &.....OO.OOOOOOO$.............$OOOOOOO.OO.....#         ",
"        X...OO....OO$OOO$.............$OOO$OO....OO....         ",
"         =&&##@+Ooo@X++O$.............$OOO.O.......OO..$        "
};
