/* XPM */
static char *_[] = {
/* columns rows colors chars-per-pixel */
"63 64 47 1 ",
"  c None",
". c #181818",
"X c #2A2A2A",
"o c gray20",
"O c #393939",
"+ c gray26",
"@ c #4C4C4C",
"# c #505050",
"$ c #585858",
"% c #606060",
"& c #6D6D6D",
"* c #68757E",
"= c gray45",
"- c #BB3030",
"; c #B33A3A",
": c #DE0000",
"> c #D70A0A",
", c #D80808",
"< c #CD1818",
"1 c #C81F1F",
"2 c #D01313",
"3 c #845231",
"4 c #84583B",
"5 c #F75A08",
"6 c #E4611B",
"7 c #EF7B18",
"8 c #CE6731",
"9 c #825D45",
"0 c #9E5757",
"q c #9C5B5B",
"w c #AE4040",
"e c #A44E4E",
"r c #82634F",
"t c #826755",
"y c #826958",
"u c #A77459",
"i c #816E62",
"p c #8D6D6D",
"a c #976060",
"s c #817267",
"d c #81746C",
"f c #F7B521",
"g c #EFA573",
"h c gray74",
"j c #EFBD9C",
"k c #EFDECE",
"l c white",
/* pixels */
"                                                               ",
"                                                               ",
"                                                               ",
"                                                               ",
"                                                               ",
"                                                               ",
"                                                               ",
"                                                               ",
"                                                               ",
"                                                               ",
"                                                               ",
"                                                               ",
"                                                               ",
"                              09p                              ",
"                             <553;                             ",
"                           u:55f5:2                            ",
"                          8:5:777::5                           ",
"                         3:5:5f7f55:5;                         ",
"                       w3:7:777ff755:5>                        ",
"                      >5:7:f7ffkff755:7:                       ",
"                   y:35:f:f7ffklkkf5:f:f:5a                    ",
"                   :35:f:f5fkfklkfk75:7:f:52                   ",
"                  -5::5:7:fkfklklkff5f:f:7:5:<                 ",
"                  5:55:f:f7kkkklkkkf7575755:53,                ",
"                q5:5:5f5f5fkfllklkfkf7577755:55<               ",
"                5:5:557ff7kfklllklkfkf7ff75:5::3               ",
"               5:5:757fkfffklklllklkffkfkf55::3:y              ",
"              6:5575757fkkkkllllllllkklkf5f:5::3:              ",
"             e:5575f7f5fklklklllllklklkkkf:5:5::3              ",
"             35:7577f7kfkklklllllklllkkkf5f:f:53:4             ",
"            i::5577f7kfkklklklllllklklkfkf5f5f:53:i            ",
"            >3::57f7ffkllklh hlllh hlklkkff7f55:53,            ",
"            3:55777f7kllh $         $ hlkkfff755:53            ",
"            :35:5555ffl $$$OO$$$$$OO$$$ kfkf555:53:            ",
"            r::5:5:f7fh OO.$  O.O  $.OO hkf7f::53:3            ",
"             3535:57f7 O$.O h O.O h O.$O 7ff5:5:53:d           ",
"             :35357f77$$ .$ k O.O k $. $$fff75:5:33            ",
"            s3::35375fO$hO$ l O.O l $Oh$O7f7f75:333            ",
"            y333:353f7O$l$ hl O.O lh $l$Of7f7f73333            ",
"            t3533:375f hhhhfgjllljgfhhhh 7373735333            ",
"            d:3533757$    $$$$$$$$$$$    $7373:3:33            ",
"             r333:3$ $OO$ hh $O.O$ hh $OO$ $353333s            ",
"              t333$$OOOO$hhkh O.O hkhh$OOOO$$3333i             ",
"               t3OOOO$.O$hhlh O.O hlhh$O.$OOOO3t               ",
"                *$O.O$.O$hklh O.O hlkh$O.$O.O$                 ",
"                 O..O$.O kklh O.O hlkk O.$O..O                 ",
"                 O..      7gjllllljg7      ..O                 ",
"                 O..$$$O...............O$$$..O                 ",
"                 O$ O.OOOOOOO O.O OOOOOOO.O $O                 ",
"                $ $OO$$$$$$$$ O.O $$$$$$$$OO$ $                ",
"              = $O..O$$$ $$$$ O.O $$$$ $$$O..O$ =              ",
"              $O...O$$$$O$$$$hO.Oh$$$$O$$$$O...O$              ",
"             @..O..OOOOOOOOOO O.O OOOOOOOOOO..O..@             ",
"            &......O$$$$$$$$$ O.O $$$$$$$$$O......=            ",
"            .O....O$$$$ $$$$$ O.O $$$$$ $$$$O....O.            ",
"           %...O..O$$$$O$$$$$ O.O $$$$$O$$$$O..O...%           ",
"           .......O.OOOOOOOOO O.O OOOOOOOOO.O.......           ",
"          $.O.....O          hO.Oh          O.....O.$          ",
"          ....O..O$$$$$$$$$$$ O.O $$$$$$$$$$$O..O....          ",
"         $.......O$$$$ $$$$$$ O.O $$$$$$ $$$$O.......$         ",
"         ..O....$$$$$$O$               $O$$$$$$....O..         ",
"        $.....OO.OOOOOOO$.............$OOOOOOO.OO.....&        ",
"        ....OO....OO$OOO$.............$OOO$OO....OO...X        ",
"       $..OO.......O.OOO$.............$O++X@ooO+@##&&=         "
};
