/* XPM */
static char *_e0044226d1d401ff8115b207c9261d7VsPYo243VVLcvZLO_31[] = {
/* columns rows colors chars-per-pixel */
"72 57 15 1 ",
"  c None",
". c #101010",
"X c #424A10",
"o c #5A4A10",
"O c #636B21",
"+ c gray45",
"@ c #B50000",
"# c #FF5252",
"$ c #8C9442",
"% c #9C8C52",
"& c #B5BD63",
"* c #D6B55A",
"= c #F7DE8C",
"- c #CECECE",
"; c white",
/* pixels */
"                                                                        ",
"                                                                        ",
"                                                                        ",
"                                                                        ",
"                                                                        ",
"                                         XXO                            ",
"                               ..XXXX  XX&&&OO                          ",
"                              .O&&&&&X.$&&&&&&$OO                       ",
"                          XX..O$&&&&&.$&&&&&&&&&&X                      ",
"                        OX&$X.XXXOOO.$&&&&&&&&&&&&X                     ",
"                       O&&&&OO.XXXO.$$$$&&&&&&&&&$$X                    ",
"                     XO&&&$OXO.....X$$$$$$&&&&&&$$$.                    ",
"                    X&&&$OOXX.$$$$$XX$$$$OOOOOOOX$$.         o          ",
"                   X&&$OOOXO$&&&&&&&&XXXOOOOOOOOOX$.       .o*oo        ",
"                   .OOOOX..&&&&&&&&&&&&$XOOOOOOOOXXX  o o ..***         ",
"                   ..OOO..O&&&&&&&&&&&&&$.XXXXXXXX..oo*..%****%..       ",
"                  .XXXX...$&&&&&&&&&&&&&XO..O&&&&&&$.*******%;;--       ",
"                 .$&&&OX..$$&&&&&&&&&&&$OO.O$&&&&&&.*****%%%%+.;.       ",
"                 X&&&&$XX.O$&&&&&&&&&&&OOO.O&&&&&&&&%**%%%%%%%;...      ",
"                X$&&&&&OX.X$$&&&&&&.&o.XOOXOO$&&&&&&%%%-..%%%%..;;      ",
"                X&&&&&&$XX.$$&&&&&.%o**..oXOOOO$&&&&..;;;;%%**+--;+     ",
"                X&&&&&&&XX.O$$$.%%********oOOOOOO$&&$.-;;.*****--;.     ",
"               X.$&&&&&$XX..$$Xo%o*********%.OOOOOOOO..;;+****o..;;     ",
"              X$.O&&&&&OXX..OO.%%o******====...OOOOO......%ooo.  ...    ",
"             X$&$.X&&$OXX.....%%%.******====*oXX......%%%.%%oo.         ",
"             X&&&&............%%%;o******====*o$OXOX..%%%%%oo..         ",
"             X&&oo%o...OOOXX.%%%%##******====%o$$OO..%%%%%ooo.          ",
"             X&&o%%%oo.XXXOO.%%%.#;.*****=====$$$$O..%%%%ooo.           ",
"             X&&o%**%%O$$XXX.%%%+#;o****=====*o$OOOO.%%%%oo.            ",
"          ooo Xo%**%..O&&&$...%o%%-.%****===O%oOOOOO.%%%%oo.            ",
"         o***..****.%.&&&&$...o.%%%%%*******o%oOO.....%%oo.             ",
"         .****.%o.oo%.&&$$$...%...%%o******#;*.OO.XXXX.%oo.             ",
"        .;%;+***.***o.$$$$O...%.@@%%o****%.-*..O.XOOOOO...              ",
"       ..;;+%%*%****oo.$$$O....%@.%%o%***o%*o....OXOOOXXX.              ",
"       ..;.%%%%%****%o$$$O....%@@@o%ooo*%%**..O.OOOXXXXXX.              ",
"      +.;..%%%%%.%%*..OOO.....o%@@..%%*o***..XO.OOOXXXXXX.              ",
"      +;-.*%*%%.;-...$.........%@+@@...**oo..XOXOOOXXXXXX.              ",
"      ;;--***%..;;-.OOOOXXX...%.;+@@@@o*....O...OOOOXXXXX.              ",
"      .;-.*****+;--..OOOOOOO...%;+@@++......OO...OOOXXXX.               ",
"     .;.. oo*o*.;..OOOOOOOOOX..%***@+;.....OOOX...OOOX..                ",
"      .        ..O.OOOOOOOOOX....****.....oOOOOXXXX....o                ",
"                ...$OOOOOOOOX.XX.....OOOO.OOOOOX..******o               ",
"               oo*.OOO$O$OOOX.XOOOO.OOOOOXOOOO.X%*******%               ",
"              o%***.O$O$OOOO.XXOOOOOOOOOO.OOO..%%********o              ",
"              .%****.O$OO$..XXOOOOOOOOOOO.XX..%%%%********o             ",
"              %%%****..OX.....OOOOOOOOOO..XX.%%%%%%%******o             ",
"              o%%%%%%%......X............XX..%%*%%%%%%****o             ",
"               .%%%%%%%%%%.XXXX...........X...%o%%%%%%%%.o              ",
"               ..o%%%%%%%%o.XXXXXXXXXXXXXX... .%%%%%%%%%o.              ",
"              .%o.%%%%%%%o. ..XXXXXXXXXXXX.. .%%%%%%%%%***.             ",
"             o+o%%..%o%%%.     X.XOOOOO...   .%%%%%%******.             ",
"            o-+-+%.%%%...         X....       .%%%%****+.+;.            ",
"            ..+-..+-...                       .%oo+%+.+-;.-;.           ",
"              ... .;;                          .--.+--..-;...           ",
"              .   ...                          .-;..;;. ..              ",
"                                                .;. .;.                 ",
"                                                                        "
};
