/* XPM */
static char *_e0044226d1d401ff8115b207c9261d7VsPYo243VVLcvZLO_38[] = {
/* columns rows colors chars-per-pixel */
"72 57 15 1 ",
"  c None",
". c #101010",
"X c #424A10",
"o c #5A4A10",
"O c #636B21",
"+ c gray45",
"@ c #B50000",
"# c #FF5252",
"$ c #8C9442",
"% c #9C8C52",
"& c #B5BD63",
"* c #D6B55A",
"= c #F7DE8C",
"- c #CECECE",
"; c white",
/* pixels */
"                                                                        ",
"                                         XXO                            ",
"                               ..XXXX  XX&&&OO                          ",
"                              .O&&&&&X.$&&&&&&$OO                       ",
"                          XX..O$&&&&&.$&&&&&&&&&&X                      ",
"                        OX&$X.XXXOOO.$&&&&&&&&&&&&X                     ",
"                       O&&&&OO.XXXO.$$$$&&&&&&&&&$$X                    ",
"                     XO&&&$OXO.....X$$$$$$&&&&&&$$$.                    ",
"                    X&&&$OOXX.$$$$$XX$$$$OOOOOOOX$$.                    ",
"                   X&&$OOOXO$&&&&&&&&XXXOOOOOOOOOX$.                    ",
"                   .OOOOX..&&&&&&&&&&&&$XOOOOOOOOXXX                    ",
"                   ..OOO..O&&&&&&&&&&&&&$.XXXXXXXX...                   ",
"                  .XXXX...$&&&&&&&&&&&&&XO..O&&&&&&$$.   oooo           ",
"                 .$&&&OX..$$&&&&&&&&&&&$OO.O$&&&&&&&$$.  .***..         ",
"                 X&&&&$XX.O$&&&&&&&&&&&OOO.O&&&&&&&&&$. .***%;-.        ",
"                X$&&&&&OX.X$$&&&&&&&&&&XOOXOO$&&&&&&&$.o%**+;;;..+      ",
"                X&&&&&&$XX.$$&&&&&&$$$$XOXXOOOO$&&&&o...***%+.;.;;+     ",
"                X&&&&&&&XX.O$$$$$$$$$$$XO..OOOOOO$&o****%%%%%..-;;.     ",
"               X.$&&&&&$XX..$$$$$$o...ooO...OOOOOOOo****%%%%%*+--;;     ",
"              X$.O&&&&&OXX..OOO.o******%o.....OOOOO.***%..%%***.....    ",
"             X$&$.X&&$OXX....X.%******===*oOOOXX....%*%-;.%%***o   .    ",
"             X&&&oo...........%******=====*$$$$$OXO..%.;;;.***o         ",
"             X&&&o%%o..OOOXX.%o******======o$$$$$OO....--;+*oo          ",
"             X&&&o%%%o.XXXO.o%o*******=====%$$$$$$O..%%..;;.            ",
"             X&&o%**%%O$$XX.%%%.*******=====o$$$OOOO.%%%%...            ",
"           oooXo%**%..O&&&$.%%%;o******====*o.OOOOOO.%%%oo.             ",
"           ***o****.%.&&&&$.%%%##.******==*O%oOOO.....%%oo.             ",
"         ..%**.o**%%%.&&$$$.%%%.#;o*******#o%.OOO.XXXX....              ",
"        .-;;+**.*o%%%.$$$$O.%%%+#-.%******.;*.OO.XOOOOOO..              ",
"      +..;;+%**%o%%%%o.$$$O.%%o%%%%%*****%%-*....OXOOOXXX.              ",
"     +;;.;.%%%%**..oo.$$$O..o%o.%%%%o****o**o.O.OOOXXXXXX.              ",
"     .;;-..%%%%%****o.OOO....o%...%%o%***%**.XO.OOOXXXXXX.              ",
"    .;;--+*%%%%%****o$........oo@@.%%oooo***.XOXOOOXXXXXX.              ",
"    .....***%%..%***oOOOXXX....%.@@o%%%***ooO...OOOOXXXXX.              ",
"        o****.;;-%*%oOOOOOOO...%@@.....o@*..OO...OOOXXXX.               ",
"         o***+;;;.%.OOOOOOOOX..o%@+@@@@o*..OOOX...OOOX..                ",
"          oo.;;--..OOOOOOOOOX.X.%.;+@@+;..oOOOOXXXX....                 ",
"            .......$OOOOOOOOX.XX.%*****.O.OOOOOX..****o                 ",
"                  .OOO$O$OOOX.XOO......OOXOOOO.X*******o                ",
"                 oo.O$O$OOOO.XXOOOOOOOOOO.OOO..%********o               ",
"                o***.O$OO$..XXOOOOOOOOOOO.XX..%%%*******%               ",
"               o*****..OX.....OOOOOOOOOO..XX.%%%%********o              ",
"               o******......X............XX..%%%%%********o             ",
"              o%*******%%%.XXXX...........X..%%%%%%%******o             ",
"             .%%***%%%%%%%%.XXXXXXXXXXXXXX...%%*%%%%%%****o             ",
"             .%%%%%%%%%%%%o ..XXXXXXXXXXXX.. .%%*%%%%%%%%o              ",
"              o%%%%%%%%%%o..   X.XOOOOO...    .*%%%%%%%%%o              ",
"              ..%%%%%%%%%%.-.     X....        o%%%%%%%%.               ",
"             o.%.o%%%oo%%%%--.                .%%%%%%%%%o.              ",
"            o-+o%%...%%%%%%..                .%%%%%%%%%***.             ",
"            ..+-+%.%%%%%%..                  .%%%%%%******.             ",
"             .;-..+-%%...                     .%%%%****+.+;.            ",
"             ... .;;..                        .%oo+%+.+-;.-;.           ",
"                 ...                           .--.+--..-;...           ",
"                                               .-;..;;. ..              ",
"                                                .;. .;.                 ",
"                                                                        "
};
