/* XPM */
static char *_e0044226d1d401ff8115b207c9261d7VsPYo243VVLcvZLO_52[] = {
/* columns rows colors chars-per-pixel */
"72 57 15 1 ",
"  c None",
". c #101010",
"X c #424A10",
"o c #5A4A10",
"O c #636B21",
"+ c gray45",
"@ c #B50000",
"# c #FF5252",
"$ c #8C9442",
"% c #9C8C52",
"& c #B5BD63",
"* c #D6B55A",
"= c #F7DE8C",
"- c #CECECE",
"; c white",
/* pixels */
"                                                                        ",
"                                                                        ",
"                                                                        ",
"                                                                        ",
"                                         XXO                            ",
"                               ..XXXX  XX&&&OO                          ",
"                              .O&&&&&X.$&&&&&&$OO                       ",
"                          XX..O$&&&&&.$&&&&&&&&&&X                      ",
"                        OX&$X.XXXOOO.$&&&&&&&&&&&&X                     ",
"                       O&&&&OO.XXXO.$$$$&&&&&&&&&$$X                    ",
"                     XO&&&$OXO.....X$$$$$$&&&&&&$$$.                    ",
"                    X&&&$OOXX.$$$$$XX$$$$OOOOOOOX$$.                    ",
"                   X&&$OOOXO$&&&&&&&&XXXOOOOOOOOOX$.        oo          ",
"                   .OOOOX..&&&&&&&&&&&&$XOOOOOOOOXXX       o**o         ",
"                   ..OOO..O&&&&&&&&&&&&&$.XXXXXXXX...   o.****..        ",
"                  .XXXX...$&&&&&&&&&&&&&XO..O&&&&&&$o*..o%**+%;-        ",
"                 .$&&&OX..$$&&&&&&&&&&&$OO.O$&&&&&&&o*****%%+;;-.       ",
"                 X&&&&$XX.O$&&&&&&&&&&&OOO.O&&&&&&&.*****%%%%.;...      ",
"                X$&&&&&OX.X$$&&&&&&&o&&XOOXOO$&&&&&.%**%%%%%%%..;+      ",
"                X&&&&&&$XX.$$&&&&&.o*...OXXOOOO$&&&..*%%..%%%*+.-;+     ",
"                X&&&&&&&XX.O$$$...%*****ooO.OOOOO$&&..;;;;%%***--;.     ",
"               X.$&&&&&$XX..$$.%o*********%oOOOOOOOOO.-;;.*****..;;     ",
"              X$.O&&&&&OXX..OXo%o******====*..OOOOOO...-;+*o*oo  ...    ",
"             X$&$.X&&$OXX.....%%o******====*oOXX......%...%ooo.         ",
"             X&&&&...........%%%.*******====*o$$OXO..%%%%.oo.           ",
"             X&&&o%%o..OOOXX.%%%;o*****======%$$$OO..%%%%%oo.           ",
"             X&&&o%%%o.XXXOO.%%%##.*****=====o$$$$O..%%%%ooo.           ",
"             X&&o%**%%O$$XX.%%%%.#;*****====*o$$OOOO.%%%%oo.            ",
"          ooooXo%**%..O&&&$.%%o%#-.******===O%OOOOOO.%%%ooo.            ",
"          o**.o****.%.&&&&$..o%.%%%%******#oo%oOO.....%%oo.             ",
"        ..*****.o*o%%.&&$$$..o@.%%%%******#;*.OOO.XXXX...o.             ",
"        .-;;+**%..*o%.$$$$O..oo...%%o****%.-*.OO.XOOOOOO..              ",
"        .;;+%*******oo.$$$O...%.@.%o%****o%*o....OXOOOXXX.              ",
"       ..;.%%%%%****o.$$$O......@@o%oo**%**...O.OOOXXXXXX.              ",
"      +;;..%%%%%****%oOOO.....%@@@o%%%oo***..XO.OOOXXXXXX.              ",
"      +;-+*%%%%..-%%.$........o%@@....***oo..XOXOOOXXXXXX.              ",
"     .;---***%%;;;.%.OOOXXX....%@+@@@@o*....O...OOOOXXXXX.              ",
"     .;...****.;;--.OOOOOOOO...%.;+@@@+.....OO...OOOXXXX.               ",
"     ... ooo*o*;;-..OOOOOOOOX..%**@@++;....OOOX...OOOX..                ",
"            o .....OOOOOOOOOX.X.*****;....oOOOOXXXX....                 ",
"               ....$OOOOOOOOX.X.....*.OOO.OOOOOX..*****o                ",
"               o**.OOO$O$OOOX.XOOOO..OOOOXOOOO.X********o               ",
"               o***.O$O$OOOO.XXOOOOOOOOOO.OOO..%%*******%               ",
"              o%****.O$OO$..XXOOOOOOOOOOO.XX..%%%********o              ",
"             .%%%****..OX.....OOOOOOOOOO..XX.%%%%%********o             ",
"              o%%%*%%%......X............XX..%%%%%%%******o             ",
"              ..%%%%%%%%%%.XXXX...........X..%%*%%%%%%****o             ",
"                %%%%%%%%%%o.XXXXXXXXXXXXXX....%o%%%%%%%%.o              ",
"               ..o%%%%%%%%%-..XXXXXXXXXXXX..  .%%%%%%%%%o.              ",
"             o.%o...oo%%%%%..  X.XOOOOO...   .%%%%%%%%%***.             ",
"            o-+o%%%.%%%%%..       X....      .%%%%%%******.             ",
"            ..+-+%.%%%...                     .%%%%****+.+;.            ",
"             .;-..+-...                       .%oo+%+.+-;.-;.           ",
"              ... .;;                          .--.+--..-;...           ",
"                  ...                          .-;..;;. ..              ",
"                                                .;. .;.                 ",
"                                                                        "
};
