/* XPM */
static char *_e0044226d1d401ff8115b207c9261d7VsPYo243VVLcvZLO_57[] = {
/* columns rows colors chars-per-pixel */
"72 57 15 1 ",
"  c None",
". c #101010",
"X c #424A10",
"o c #5A4A10",
"O c #636B21",
"+ c gray45",
"@ c #B50000",
"# c #FF5252",
"$ c #8C9442",
"% c #9C8C52",
"& c #B5BD63",
"* c #D6B55A",
"= c #F7DE8C",
"- c #CECECE",
"; c white",
/* pixels */
"                                                                        ",
"                                                                        ",
"                                         XXO                            ",
"                               ..XXXX  XX&&&OO                          ",
"                              .O&&&&&X.$&&&&&&$OO                       ",
"                          XX..O$&&&&&.$&&&&&&&&&&X                      ",
"                        OX&$X.XXXOOO.$&&&&&&&&&&&&X                     ",
"                       O&&&&OO.XXXO.$$$$&&&&&&&&&$$X                    ",
"                     XO&&&$OXO.....X$$$$$$&&&&&&$$$.                    ",
"                    X&&&$OOXX.$$$$$XX$$$$OOOOOOOX$$.                    ",
"                   X&&$OOOXO$&&&&&&&&XXXOOOOOOOOOX$.                    ",
"                   .OOOOX..&&&&&&&&&&&&$XOOOOOOOOXXX                    ",
"                   ..OOO..O&&&&&&&&&&&&&$.XXXXXXXX...     oooo          ",
"                  .XXXX...$&&&&&&&&&&&&&XO..O&&&&&&$$.   .***..         ",
"                 .$&&&OX..$$&&&&&&&&&&&$OO.O$&&&&&&&$$. .***%;-         ",
"                 X&&&&$XX.O$&&&&&&&&&&&OOO.O&&&&&&&&&$.o%**+;;;.        ",
"                X$&&&&&OX.X$$&&&&&&&&&&XOOXOO$&&&&&&oo..***%+.;..+      ",
"                X&&&&&&$XX.$$&&&&&&$$$$XOXXOOOO$&&&o****%%%%%%..;;+     ",
"                X&&&&&&&XX.O$$$$$$$o.$$XO..OOOOOO$&.****%%%%%*+-;;.     ",
"               X.$&&&&&$XX..$$$$$.o**..ooO..OOOOOOO.%**%..%%***--;;     ",
"              X$.O&&&&&OXX..OOO.%********%o...OOOOOO.*%-;;%%***.....    ",
"             X$&$.X&&$OXX....X.%*******===*oOOXX.....%.;;;.****o   .    ",
"             X&&&&o.........X.%o******=====*$$$$OXO...--;+*oooo         ",
"             X&&&o%%o..OOOXX.o%o******======o$$$$OO..%...;.o.           ",
"             X&&&o%%%o.XXXOO.%%%.******=====%$$$$$O..%%%%...            ",
"             X&&o%**%%O$$XXX.%%%;o******=====o$$OOOO.%%%%oo.            ",
"           oooXo%**%..O&&&$..%%%##.*****====*oOOOOOO.%%%oo.             ",
"           ***o****.%.&&&&$.%%%.#;oo*****===O%oOO.....%%oo.             ",
"         ..%**.o**%%%.&&$$$.%%%+#-.%******#o%..OO.XXXX....              ",
"        .-;;+**.oo%%%.$$$$O.%%o%%%%%******.;*.OO.XOOOOOO..              ",
"       ..;;+%**%..o%%o.$$$O..%%.%%%%*****%%-*....OXOOOXXX.              ",
"      +;.;.%%%%*****o.$$$O...o%...%%o****o**o.O.OOOXXXXXX.              ",
"      +;-..%%%%%****o.OOO.....oo@@.%o%***%**.XO.OOOXXXXXX.              ",
"     .;--+*%%%%%****o$.........%.@@%%oooo***.XOXOOOXXXXXX.              ",
"    .;;..***%%..%%*%oOOOXXX....%@@@o%%%***ooO...OOOOXXXXX.              ",
"    ... o****.;;-.%%.OOOOOOO...o%@+....o*...OO...OOOXXXX.               ",
"         oo*o*+;;-..OOOOOOOOX...%.;@@@@+...OOOX...OOOX..                ",
"           o .;;-..OOOOOOOOOX.XX.%*+@@+;..oOOOOXXXX....                 ",
"             ......$OOOOOOOOX.XXO..****.O.OOOOOX..*****o                ",
"                 o.OOO$O$OOOX.XOOO.....OOXOOOO.X********o               ",
"                o**.O$O$OOOO.XXOOOOOOOOOO.OOO..%%*******%               ",
"               o****.O$OO$..XXOOOOOOOOOOO.XX..%%%********o              ",
"               o*****..OX.....OOOOOOOOOO..XX.%%%%%********o             ",
"              o%******......X............XX..%%%%%%%******o             ",
"             .%%***%%%%%%%.XXXX...........X..%%*%%%%%%****o             ",
"              o%%%%%%%%%%%o.XXXXXXXXXXXXXX....%%*%%%%%%%%o              ",
"              ..%%%%%%%%%o....XXXXXXXXXXXX..  .*%%%%%%%%%o              ",
"                %%%%%%%%%%.-.  X.XOOOOO...     o%%%%%%%%.               ",
"               ..o%%%oo%%%%--.    X....       .%%%%%%%%%o.              ",
"             o.%o....%%%%%%..                .%%%%%%%%%***.             ",
"            o-+o%%%.%%%%%..                  .%%%%%%******.             ",
"            ..+-+%.%%%...                     .%%%%****+.+;.            ",
"             .;-..+-...                       .%oo+%+.+-;.-;.           ",
"              ... .;;                          .--.+--..-;...           ",
"                  ...                          .-;..;;. ..              ",
"                                                .;. .;.                 ",
"                                                                        "
};
