/* XPM */
static char *f959a84bc8284256943f4eeff3022381jagN9rnhjB3szKBB_94[] = {
/* columns rows colors chars-per-pixel */
"89 91 14 1 ",
"  c None",
". c black",
"X c #084252",
"o c gray39",
"O c #843119",
"+ c #E64210",
"@ c #CE5242",
"# c #F7A510",
"$ c #EF8429",
"% c #EFB55A",
"& c #EFDE7B",
"* c #217394",
"= c #CECECE",
"- c white",
/* pixels */
"                                                                +                        ",
"                                                               ++                        ",
"                                                               +                         ",
"                                                                                         ",
"                                                                                         ",
"                                                                   +                     ",
"                                                                   +    +                ",
"                                                                  ++   ++                ",
"                                                             +   ++++  +                 ",
"                                                                 ++#+                    ",
"                                                                ++##+     +              ",
"                                                               ++##+++   ++              ",
"                                                              +++###+++  +               ",
"                                                              ++++###++                  ",
"                                                               ++####+                   ",
"                                                              ++####++++                 ",
"                                                              ++#####+++                 ",
"                                                             +++######+++                ",
"                                           OO                +++###OO#+++                ",
"                                          O%%O                +++#OO$++++                ",
"                      OO                  O%%@@                +++$$OO+                  ",
"                     O%%O                 .@$$O@    OOOOOO      +OO$ ++                  ",
"                    O@%%O                  .$$$$@OOO$$$$$$OO     $$$O                    ",
"                    O$$O                   .@$$$$$$$$$$$$$$$@@  OO$OO                    ",
"              OOO  O$$$O                    .$$$$$$$@OOOOO@$$$@@@@@@                     ",
"             O$$$OO$$$@O                    .$$$$...XXXXXXXO@$$$$@@@                     ",
"           OO$$$$$$$$$O                      O$$.XXXXXX*****XX@$%%%@                     ",
"          O$$$$$$$$$$$O                      O$.XXXXX*********XX@%%%O                    ",
"         O$$$....@$$$$O                      O$.XXXX************X@$$@                    ",
"        O$$XXXXXXX.@$$O                      O$.XXXX*************X@$@                    ",
"      OO$$XXXXOOXXX.$$@O                     O$.XXXX*************X@$$O                   ",
"     O$$$XXXXO@@.XXX.$OO                     O$.XXXXX*************X@$@                   ",
"     O@$XXXXXO@@.XXX.O$$.                    O$.XXXXX*************X@$@                   ",
"     O@XXXXXO@@@.XXXO$$@.                    O$.XXXXX*************XX$$O                  ",
"     O@XXXXXO@@.XXXO$$$.O                   O@$.XXXXXX************XX@$@                  ",
"    O@@XXXXXO@@.XXO$$$.$O                   O$$.XXXXXX************XX@$@                  ",
"    O@XXXXX.@@@.OO$$$OX$O                   O$@XXXXXXX************XXX$$O                 ",
"   O@@XXXXX.@OO$@$$$$.X$$O                 .@@XXXXXXXXX**********XXXX@$@                 ",
"   O@@XXXX.@$$$$$$$$.XXX$O                OO@@XXXXXXXXX**********XXXX@$@                 ",
"  O@@XXXXX.$$$$$$$$$..XX@@.               .@@XXXXXXXXXX**********XXXXX$$O                ",
" .@@XXXXX.$$$$$$$$$$$O.X.@@.            ..@@XXXXXXXXXXXX*********XXXXX@$@                ",
" .@XXXXX.$$$$$$$$$$$$$O.........      ..$@@XXXXXXXXXXXXX*********XXXXXX$$O               ",
" .@XXXX.$$$$$$$$$$$$$$$@@$$$$.$$..   .$$$@.XX*XXXXXXXXXXX*****XXXXXXXXX@@.               ",
" .@XXXX.$$$@%%$$O@$$$$$@@@$$$$$$$$   O$$@.XXXX*XXXXXXXXXX****X  .XXXXXXX@.               ",
" .@@XX.$$$@%%$@=O$$$$$$$@@$$$$$$$$...@@@.XXXX*X*XXXXXXXXX***X    .XXXXXX@.               ",
"  O@XX.O@@@$$@.--$$$$$$$@@$$$$$$$$$@O@@@.XXXXX*XXX...XXXXX*X      .XXXXX@.               ",
"  O@XXX.@@O$$*.-@$$$$$$$OO$$$$$$$$$$..@.XXXXX*X*XX   ...XX*X       .XXXX@.               ",
"   O@X. .O@$OOO@$$@O.O$$O ..$$$$$$$$@.@.XXXXXX*X        .XX       ..XXXX@.               ",
"   O@.   O@$$$$$$$...@@@O  .@@@$$$$$$$.XXXXXXXX          .X        .XXXX@.               ",
"    .   O$$$$$$$$@.+.O@@O   .O@$$$$$$$$.X...XX                     @.XXX@.               ",
"       O$$$$$$$$@.+++O@@     O@@@$$$$$$$O$$$.                      ..XXX@.               ",
"       O$$$$$$$..+++..@@O OO@@@@@$$$$$$@$$$$$.O                    O@.XX@.               ",
"      O$$$$$$$. .+++.@@.OO@@@@@@@$$$$$$$$$$$$$$O                   @@.X@@O               ",
"     O$$$O$$@.  .+++.@@.@@@@@@$$$$$$$$$$$$$$$$$$OOO               O@@.X@.O               ",
"     .$$@$$@-. ..++..@.@@@@@@@$$$$$$$$$$$$$$$$$$$$OO.             @@@.@@@                ",
"      .$$@@...O-+.--O@.@@@O@@@$$$$$$$$$$$$$$$$$$$$$$@.           OO@@.@.@O               ",
"        ...   .$OOO$OO@@@O@@@$$$$$$$$$$$$$$$$OO.$$$$@.            @@@@@@@O               ",
"               .$$$..@@@OO@$$$$$$$$$$$$$$@O$@@OOOO@@@.           O@@@@.@@.               ",
"               ....O@@OOO@$$&&&&&$$$$$$$$$$O$@@@O .@@.          O@@@@@@@O.               ",
"                O@@O@O  .$&&&&&&&&$$$$$$$$$$$$@@@O.@@@.         @@@@@@@@@O               ",
"                @@@@O  .@&&&&&&&&&&$$$$$$$$$$$$@@.@@@@.        @@@@@@@@@.                ",
"               O@@@O   .$&&&&&&&&&&&&$$$$$$$$$$$@.@@@@.       O@@@@@@@@@.                ",
"             OO@@@O   .@&&&&&&&&&&&&&&$$$$$$$$$.OO$@@@.      OO@@@@@@@@@O                ",
"          OOO@@@@@.  .$&&&&&&&&&&&&&&&&$$$$$$O.$$$$$$@.     O@@@@@@@@@@@.                ",
"         O@@@@@@@.   .&&&&&&&&&&&&&&&&&&$$$$$.@$$$$$$@@.   O@@@@@@@@@@@O                 ",
"        O@O@@@@@@@.   &&&&&&&&&&&&&&&&&&$$$$$.@@O.$$$@@O O$O@@@@@@@@@@@.                 ",
"        ..@@@@@@@@. .$&&&&&&&&&&&&&&&&&&$$$$$$.=.@$$@@@@.$$$$$@$@$@@@@O                  ",
"         .@@@.OO@.  .$&&&&&&&&&&&&&&&&&&&$$$$$@O$$$O.@@@.$$$$$$$@$@@@OO                  ",
"          O@@O  .  O$$&&&&&&&&&&&&&&&&&&&$$$$$$$O@@OO.=.$$$$$$$@$@@@@O                   ",
"           ..-O   O$$$@&&&&&&&&&&&&&&&&&&&$$$$$$O.=O$O..$$$$$$$@$@@@@@.                  ",
"            O..  O$$$$O%&&&&&&&&&&&&&&&&&&$@$$$$$$..$@@O$$$$$$$$$@@@@..                  ",
"                 @$$$$O%%&&&&&&&&&&&&&&&&&$@$$$$$$$$$@@.$$$@$@@$@@@@@.                   ",
"                @$$$$$$O%%&&&&&&&&&&&&&&&&@$$$$$$$$$$$@@.@@@@@@@@@@@@.                   ",
"                @$$$$$$O%%%%%&&&&&&&&&&&&%O$$$$$$$$$$$@@.@@@@@@@@@@@.                    ",
"                @$$$$$$$O%%%%%%%&&&&&%%%%%O$$$$$$$$$$$@@.@@@@@@@@@@%.                    ",
"               O$$$$$$$$$.%%%%%%%%%%%%%%%%O@$$$$$$$$$$@@@.@@@@@@@%.                      ",
"               O$$$$$$$$@@.%%%%%%%%%%%%%%%.@$$$$$$$$$$@@@.@@@@@%%.                       ",
"               O$$$$$$$@@@@.%%%%%%%%%%%%%%.@@$$$$$$$$$@@@.%$%%%..                        ",
"               O@$$$$@@@@@@@..%%%%%%%%%%%%.@@@$$$$$$$@@@@.%%%%.                          ",
"               O@@@@@@@@@@@@. ..%%%%%%%%%%.@@@@@$$$@@@@@@.%.                             ",
"                O@@@@@@@@@@.    %%%%%%%%%OO.@@@@@@@@@@@@@@.                              ",
"                O@@@@@@@@@@O    ...%%%OOO%%.@@@@@@@@@@@@@@.                              ",
"                  .@@@@@@@@.       OOO%%%%%%..@@@@@@@@@@@@.                              ",
"                   .@@@@@@@.          OOOOOOO .@@@@@@@@@@$.                              ",
"                  o=.=@@@@@@.                  .@@@@@@@@@@@.                             ",
"                 o-o==o==@@@.                   .@@@@@$@$@@.                             ",
"                 ..-=.-=....                    .@@@@@@@@@-.                             ",
"                  ... ...                       ..@@=O@=-@--.                            ",
"                                                 ..---.---o=.                            ",
"                                                   .-. .=-...                            ",
"                                                    ..  ..                               "
};
