/* XPM */
static char *f959a84bc8284256943f4eeff3022381jagN9rnhjB3szKBB_127[] = {
/* columns rows colors chars-per-pixel */
"89 91 15 1 ",
"  c None",
". c black",
"X c #084252",
"o c gray39",
"O c #843119",
"+ c #E64210",
"@ c #CE5242",
"# c #F7A510",
"$ c #EF8429",
"% c #FFD610",
"& c #EFB55A",
"* c #EFDE7B",
"= c #217394",
"- c #CECECE",
"; c white",
/* pixels */
"                                                                              +++        ",
"                                                                               ++++  +   ",
"                                                                                ++++ +   ",
"                                                                                ++++     ",
"                                                                             + +++#++    ",
"                                                                             +++++#++    ",
"                                                                            ++++#%#++    ",
"                                                                           +++++%%%++    ",
"                                                                           +++%%%%%++    ",
"                                                                          +++%%%%%++     ",
"                                                                          +++%%%%++++    ",
"                                                                          +++%%%#++%#++  ",
"                                                                           ++#%%##%%%#+++",
"                                                                           ++#%%%%%%%%+++",
"                                                                            +++#%%%%%%++ ",
"                                                                             +++#%%%%%++ ",
"                                                                             +++#%%%%#++ ",
"                                           OO                                 +#%%%#%++  ",
"                     OO                   O&&O                                +#%%%#+    ",
"                    O&&O                  O&&@@                               ++OO%++    ",
"                   O@&&O                  .@$$O@    OOOOOO                     +$$$+     ",
"                   O$$O                    .$$$$@OOO$$$$$$OO                  OO$OO      ",
"             OOO  O$$$O                    .@$$$$$$$$$$$$$$$@@               O$$O        ",
"            O$$$OO$$$@O                     .$$$$$$$@OOOOO@$$$@@@           OO@$O        ",
"          OO$$$$$$$$$O                      .$$$$...XXXXXXXO@$$$$@@         O@@@O        ",
"         O$$$$$$$$$$$O                       O$$.XXXXXX=====XX@$&&&@       O@@@O         ",
"        O$$$....@$$$$O                       O$.XXXXX=========XX@&&&O      @@@@O         ",
"       O$$XXXXXXX.@$$O                       O$.XXXX============X@$$@      @@@O          ",
"     OO$$XXXXXXXXX.$$@O                      O$.XXXX=============X@$@     O@@@O          ",
"    O$$$XXXXXXXXXXX.$$O                      O$.XXXX=============X@$$O   OO@@@@          ",
"    O@$XXXXXXXXXXXX.$$O                      O$.XXXXX=============X@$@    O@@@O          ",
"    O@XXXXXXXXXXXXXX.$O                      O$.XXXXX=============X@$@   O@@@@O          ",
"    O@XXXXXXXXXXXXXX.$$O                     O$.XXXXX=============XX$$O  O@@@@O          ",
"   O@@XXXXXXXXXXXXXXXX$O                    O@$.XXXXXX============XX@$@   O@@@O          ",
"   O@XXXXXXOOXXXXXXXXX$O                    O$$.XXXXXX============XX@$@   @@@O           ",
"  O@@XXXXXO@@.XXXXXOOX$$O                   O$@XXXXXXX============XXX$$O O@@@@O          ",
"  O@@XXXXXO@@.XXXXO$$.X$O                  .@@XXXXXXXXX==========XXXX@$@  @@@@O          ",
" O@@XXXXXO@@@.XXXO$$@.X@@.                OO@@XXXXXXXXX==========XXXX@$@ O@@@@O          ",
".@@XXXXXXO@@.XXXO$$$.XXO@@.               .@@XXXXXXXXXX==========XXXXX$$OO@@@@O          ",
".@XXXXXXXO@@..XO$$$.XXXXO@@..           ..@@XXXXXXXXXXXX=========XXXXX@$@O@@@@O          ",
".@XXXXXX.@@@.OO$$$O.XXXXXX@@@O        ..$@@XXXXXXXXXXXXX=========XXXXXX$$O@@@@           ",
".@XXXXXX.@OO$@$$$$. .XXXXXX@@@O      .$$$@.XX=XXXXXXXXXXX=====XXXXXXXXX@@.@@@@O          ",
".@@XXXX.@$$$$$$$$.   .XXX.......     O$$@.XXXX=XXXXXXXXXX====X  .XXXXXXX@.@@@@           ",
" O@XXX..$$$$$$$$$..  ...$$..$$$$.   O@@@.XXXX=X=XXXXXXXXX===X    .XXXXXX@.@@@O@          ",
" O@XXX.$$$$$$$$$$$O...@$$$$$$$$$$.  O@@@.XXXXX=XXX...XXXXX=X      .XXXXX@.@@@@@          ",
"  O@X.$$$$$$$$$$$$$O@@@@$$$$$$$$$@...@@.XXXXX=X=XX   ...XX=X       .XXXX@.@@@O@          ",
"  O@.$$$$$$$$$$$$$$$@@@@@$$$$$$$$$$@..@.XXXXXX=X        .XX        .XXXX@.@@@O@          ",
"   ..$$$@&&$$O@$$$$$@@@@@$$$$$$$$$$$$@.XXXXXXXX          .X        .XXXX@.@@@O@          ",
"   .$$$@&&$@-O$$$$$$$@@@O$$$$$$$$$$$$$$.XXXXXX                      .XXX@.@@@@@          ",
"   .O@@@$$@.;;$$$$$$$@OO ..@@@@$$$$$$$$$X...X                       .XXX@.@@@@@          ",
"    .@@O$$=.;@$$$$$$$O     ..O@@@$$$$$$$O$$$.                        .XX@.@@@@O          ",
"     .O@$OOO@$$@O.O$$O    OOOO@@@$$$$$$@$$$$$.O                      .X@@@@@@@O          ",
"      O@$$$$$$$...@@@O  OO@@@@@@@$$$$$$$$$$$$$$O                     .X@.@@@@@           ",
"     O$$$$$$$$@.+.O@@O O@@@@@@$$$$$$$$$$$$$$$$$$OOO                  .@@@@@@@O           ",
"    O$$$$$$$$@.++.@@@OO@@@@@@@$$$$$$$$$$$$$$$$$$$$$OO.               .@.@@@@@O           ",
"    O$$$$$$$...+++O@@@@@@@O@@@$$$$$$$$$$$$$$$$$$$$$$@.               O@@@@@@@            ",
"   O$$$$$$$. ++++..@@O@@@O@@@$$$$$$$$$$$$$$$$OO.$$$$@.               O.@@@@@@            ",
"  O$$$O$$@.  .+++.@@.@@OOO@$$$$$$$$$$$$$$@O$@@OOOO@@@.              O@@@@@@@O            ",
"  .$$@$$@;.  .+++.@@.@OOO@$$*****$$$$$$$$$$O$@@@O .@@.              O@@@@@@@O            ",
"   .$$@@...  .++..@.@O  .$********$$$$$$$$$$$$@@@O.@@@.           OO@@@@@@@@             ",
"     ...    .O+.;O@.O  .@**********$$$$$$$$$$$$@@.@@@@.        O  @@@@@@@@@@             ",
"            O;OOO$OO  .$*************$$$$$$$$$$$@.@@@@.      OO@@@@@@@@@@@O.             ",
"          OO.$$$$$.  .@***************$$$$$$$$$.OO$@@@.    OOO@@@@@@@@@@@@@O             ",
"         O@@@......  .$****************$$$$$$O.$$$$$$@.    O@@@@@@@@@@@@@@.              ",
"        O@O@@@@@@O   .******************$$$$$.@$$$$$$@@.OO$@$@@@@@@@@@@@@..              ",
"        ..@@@@@@@@.   *******************$$$$.@@O.$$$@@O.$$$$$@@$@@@@@@@@O               ",
"         .@@@.OO@@. .$*******************$$$$$.-.@$$@@@@.$$$$$$$@@@@@@@@.                ",
"          O@@O  ..  .$*******************$$$$$$@O$$$O.@@.$$$$$@$$$@@@@@@                 ",
"           ..;O    O$$*******************$$$$$$$$O@@OO.-.$$$$$$@@@@@@@O.                 ",
"            O..   O$$$@*******************$$$$$$$O.-O@O..$$$$$$$@@@@@OO                  ",
"                 O$$$$O&******************$@$$$$$$$..@@O@@@@@@$@@@@@@.                   ",
"                 @$$$$O&&*****************$@$$$$$$$$$@@.@@@@@@@@@@@@.                    ",
"                @$$$$$$O&&****************@$$$$$$$$$$$@@.@@@@@@@@@@..                    ",
"                @$$$$$$O&&&&&************&O$$$$$$$$$$$@@.@@@@@@@@@&.                     ",
"                @$$$$$$$O&&&&&*******&&&&&O$$$$$$$$$$$@@.@@@@@@@@.                       ",
"               O$$$$$$$$$.&&&&&&&&&&&&&&&&O@$$$$$$$$$$@@@.@@@&&.&.                       ",
"               O$$$$$$$$@@.&&&&&&&&&&&&&&&.@$$$$$$$$$$@@@.&&&&&.                         ",
"               O$$$$$$$@@@@.&&&&&&&&&&&&&&.@@$$$$$$$$$@@@.&..                            ",
"               O@$$$$@@@@@@@.&&&&&&&&&&&&&.@@@$$$$$$$@@@@.                               ",
"               O@@@@@@@@@@@@..&&&&&&&&&&&&.@@@@@$$$@@@@@@.                               ",
"                O@@@@@@@@@@.  ..&&&&&&&&&OO.@@@@@@@@@@@@@@.                              ",
"                O@@@@@@@@@@O    ...&&&OOO&&.@@@@@@@@@@@@@@.                              ",
"                  .@@@@@@@@.       OOO&&&&&&..@@@@@@@@@@@@.                              ",
"                   .@@@@@@@.          OOOOOOO .@@@@@@@@@@$.                              ",
"                  o-.-@@@@@@.                  .@@@@@@@@@@@.                             ",
"                 o;o--o--@@@.                   .@@@@@$@$@@.                             ",
"                 ..;-.;-....                    .@@@@@@@@@;.                             ",
"                  ... ...                       ..@@-O@-;@;;.                            ",
"                                                 ..;;;.;;;o-.                            ",
"                                                   .;. .-;...                            ",
"                                                    ..  ..                               "
};
