/* XPM */
static char *_600746956694fba956b54b764dea6e65QXNtyjREpDNW4xB_51[] = {
/* columns rows colors chars-per-pixel */
"52 41 15 1 ",
"  c None",
". c #101010",
"X c #730019",
"o c #5A3119",
"O c #5A5221",
"+ c #D63A4A",
"@ c #A55A5A",
"# c #847B4A",
"$ c #C57342",
"% c #FF6B5A",
"& c #B5AD73",
"* c #DE9C5A",
"= c #FFAD94",
"- c #E6E6B5",
"; c white",
/* pixels */
"                         @@@ooo                     ",
"                       oo******oo                   ",
"                      oo********$o                  ",
"                     .**********$$                  ",
"                     .$***;****$$$o                 ",
"                    o$$$**.***$$$$$o                ",
"                   Xo$$$$$.$$$$$$$$o                ",
"                  X+XXXXX$$$$$$$$$@@o               ",
"                  .+===%XX$$$$$$$@@@o               ",
"                  X+%%%++.$$$$$$$@@@o               ",
"                  X.++++XX$$$$$$@@@@o               ",
"                  o$...X$$$$$$$@@@@o                ",
"                  .$$$$$$$$$$$@@@@@o                ",
"                  .$$$$$$$$$$$@@@@@o                ",
"                  .$$$$$$$$$ooo@o@@o                ",
"            @@@o  .$$$$$$ooo***o$$oo                ",
"          @@****oo.$$$$$$*******o*oo                ",
"         @********oo$$$$o******o***o                ",
"       @***********$o$$o*o***oo$**$oo               ",
"      @@o******o***$o@o**;o***;;*$$$@o              ",
"      @**o****o****$o@o***.****.*$$$@o              ",
"      @$*;o**o;****$$oo$$*.**$$.$$$$@o              ",
"      o$$.****.***$$$oo$$$$$$XX$$$$$$@.             ",
"      o$$.$$$$.$$$$$@oo$$$XXX%%XX$$$$@.             ",
"      .$$XXXXX$$$$$$@@.$$$X==%%+.$$$@@.             ",
"      .$X=%%%XX$$$$$@@.$$$+%%%+XX$$$@@.             ",
"      .$+%%+++.$$$$@@@.$$$X+++.X$$$$$@@.            ",
"      oX++++XX$$$$$@@@.@$$$$..$$$$$$@@.             ",
"      .$....X$$$$@@@@...@$$$$$$$$$@@@@.  ...        ",
"    OOoo@$$$$$@$@@@@@o..@@$$$$$$$$@@@@@..O&#.       ",
"   O--Oo@@OOO@@@@@@@@OOO.@$@$$@@@@OOOO..#&&&#.      ",
"  #---&OOO---O@@@@@@O--&&.@@@@@@@O--&&O.#&&##.      ",
" OO--&&O#----&OOOOOO&---&&O@@OOO.---&&#.#####O..    ",
"O###&&O#---&&#.&&&&.#---&&&OO&&&.--&&###O####O##.#. ",
" &&&&###&&&&##.&&&##.&&&&##O#&&#.&&&####.OO.####.&&.",
"&&&&&&##&&&&##.#&###.&&####O#####&&###O.#&&#.#&&&&& ",
" &&&& &&#####&#.###########&&&######OO###&&##.#& &  ",
"   & & &&&&&&&&#######&&&&&&&&&&&&###########O& &   ",
"    & &  &&&&&& & & #&#&&&&&&&& & & #### # ##       ",
"         &&&&&   & & & &&&&& & & & &    # # #       ",
"          &&&         & &&& & &          #          "
};
