/* XPM */
static char *_5f3b021cfcd49dcaad0acdd106b68bbzWiWYAsTMhy8hZ6H_61[] = {
/* columns rows colors chars-per-pixel */
"79 65 13 1 ",
"  c None",
". c #101010",
"X c #4A294A",
"o c #6B637B",
"O c #FF5A5A",
"+ c #5A4A9C",
"@ c #7B63A5",
"# c #9473B5",
"$ c #B58CBD",
"% c #BDADBD",
"& c #FF9494",
"* c #DED6DE",
"= c #FFF7FF",
/* pixels */
"                                                                               ",
"                                                                               ",
"                                                                               ",
"                                                                               ",
"                                                                               ",
"                                                                               ",
"                                                    +                          ",
"                                                  ++$.                         ",
"                                                ++$$#.                         ",
"                                   +X          +$$$#@.                         ",
"                                  +#X         ++$$$#@+.                        ",
"                                 +##X        +$$$$##+.                         ",
"                                +###X  +X    $$$$##@+.                         ",
"           ++         +X  +X    ####X +#X  ++$$$$##++.                         ",
"          X##+++ +++  +$X +$X  +####X+##X +$$$$$##@+.                          ",
"          X###$$+$$$++X$$X+$#X+#########++$$$#$###++.                          ",
"           X###$$$$$$$X$$#X##+############$$$$###@++.                          ",
"            X###$$$$$$X#$$#+###############$####@+++.                          ",
"            X###$$#$$$XX####################$###+++.                           ",
"             X####$#$$#X###$$#$################@+++.                           ",
"              X######+$$$$$$#$#$###############++++.      X                    ",
"               X####X$$$$$$$$#$###############@+++.X      .#X                  ",
"                X##.$$$$$$$$$#################++++.     ..##X  X               ",
"                 XX.$$$$$$$$$################@++++X   ..$$###XX.               ",
"       .  .       .#$$$$$$$$#################@++++X...$$$$X####                ",
"       X$.X$X     .##$$$$$#############+####+++++X###$#$$X$X##.                ",
"       X$$$$$XX  .###################XX#####+++++###$#$$$$$X##.                ",
"        X$$$$$#XX.#X############$$##XOO+####+++++####$#$$$$$$.                 ",
"        X##$$$##@X##X##########$$$#XOOO+####@++++###$####$$#.                  ",
"       X######$#+##+OX#########$$#.&&OO+###+#++++###########.                  ",
"       ########@+##+OOX+#######$$..&&&O+###X#@+++@########@.                   ",
"      XXX#####@++##+O&&.X######+XO.&&&O+##X###++++######@+.                    ",
"         X###@++X###+&&.OX######+&&&&O+##X.###++++@###@++.                     ",
"          X@++++.#+#+O&&&+#######+OOO+##X%.###++++++++++.                      ",
"           X++++.#X##+OO+#############XX%=.###++++++++..                       ",
"            X+++.##XX###############XX%==.####++++++X.+.                       ",
"             XX+.##+%XX##########XXXo====.####+++++++++X                       ",
"               X.###+=oXXXXXXXXXX%==o===.####@+++++++++X                       ",
"                .###+=o===o====o====%*==.####++++++++++X                       ",
"                 X###+o===o====o=====o=.#####++++++++++X                       ",
"                 .####+===%*===%*====o.#####@++++++++++X                       ",
"                 .#####X===o====o===XX######+++++++++++X                       ",
"                  X#####XX=o====o=XX#######@++++++++++X                        ",
"                  .#######XXXXXXXX#########+++++++++++XXX                      ",
"                   X######################@+++++++++++X++X                     ",
"                   .#####################@++++++###++X++++XXX                  ",
"                    .@##################@+++++######XX+++++++.                 ",
"                    .+@################@+++++########.+++++++.                 ",
"                    X+++@############@++++++######$$##.+++++.                  ",
"                   X+++++++@######@+++++++++#####$$$$#.++++.                   ",
"                   X++++X++++++++++++++++++@#####$$$$##.+..                    ",
"                   X+++++XX+++++++++++++++X######$$$###..                      ",
"                   X+++++++..+++++++++++++X############.                       ",
"                    X##@+++++...+++++++...+X#####.+..##.                       ",
"                    X####@++++X .......     X###.+.++.#.                       ",
"                     X#####@+.               X#.++++++.                        ",
"                    X#+#+###+.                X.++++++.                        ",
"                    .X#X##...                  X+++++.                         ",
"                     .....                      .....                          ",
"                                                                               ",
"                                                                               ",
"                                                                               ",
"                                                                               ",
"                                                                               ",
"                                                                               "
};
