/* XPM */
static char *_5f3b021cfcd49dcaad0acdd106b68bbzWiWYAsTMhy8hZ6H_74[] = {
/* columns rows colors chars-per-pixel */
"79 65 13 1 ",
"  c None",
". c #101010",
"X c #4A294A",
"o c #6B637B",
"O c #FF5A5A",
"+ c #5A4A9C",
"@ c #7B63A5",
"# c #9473B5",
"$ c #B58CBD",
"% c #BDADBD",
"& c #FF9494",
"* c #DED6DE",
"= c #FFF7FF",
/* pixels */
"                                                                               ",
"                                                                               ",
"                                                     +                         ",
"                                                   ++$.                        ",
"                                                 ++$$#.                        ",
"                                    +X          +$$$#@.                        ",
"                                   +#X        ++$$$#@+.                        ",
"                                  +##X       +$$$$##+.                         ",
"            ++                   +###X  +X ++$$$$##@+.                         ",
"           X##+++      +X  +X    ####X +#X+$$$$$$##++.                         ",
"           X###$$++++  +$X +$X  +####X+##X$$$$$$##@+.                          ",
"            X###$$$$$++X$$X+$#X+#########+$$$#$###++.                          ",
"             X###$$$$$$X$$#X##+############$#$###@++.                          ",
"             X###$$$$$$$X#$#+###############$###@+++.                          ",
"              X###$#$$$#X#######################+++.                           ",
"               X###$#$$XX######################@+++.                           ",
"                X#####$##$$$$$#$###############++++.        X                  ",
"                X#####+$$$$$$#$#$#############@+++.X       .#X                 ",
"                 X###X$$$$$$$$#$##############++++.      ..##X                 ",
"         .  .     X#.$$$$$$$$$###############@+++++X   ..$$###XXX              ",
"        X$.X$X    X#.$$$$$$$$$###############@+++++X...$$$$X####.              ",
"        X$$$$$XX   .#$$$$$$$$###########+####+++++X###$#$$X$X##.               ",
"         X$$$$$#XX .##$$$$$###########XX#####+++++###$#$$$$$X##.               ",
"         X##$$$##@.##################XOO+####+++++####$#$$$$$$.                ",
"        X######$#+.#X############$$#XOOO+####@++++###$####$$#.                 ",
"       X########@+X##X##########$$$#&&OO+###+#++++###########.                 ",
"        XX#####@++##+OX#########$$#.&&&O+###X#@+++@########@.                  ",
"          X###@+++##+OOX+#######$$..&&&O+##X###++++######@+.                   ",
"           X@+++++##+O&&.X######+XO.&&O+##X.###++++@###@++.                    ",
"            X+++++#+#+&&.OX######+&&OO+##X%.###++++++++++.                     ",
"             X+++X#X#+O&&&+#######+O###XX%=.###++++++++..                      ",
"              XX+.##XX+OO+###########XX%==.####++++++X.++X                     ",
"                X.##+%XX##########XXXo====.#####+++++++++X                     ",
"                 .###+=oXXXXXXXXXX%==o===.#####@+++++++++X                     ",
"                  .##+=o===o====o====%*==.#####++++++++++X                     ",
"                  .###+o===o====o=====o=.######++++++++++X                     ",
"                   X###+===%*===%*====o.######@++++++++++X                     ",
"                   .####X===o====o===XX#######++++++++++X                      ",
"                   .#####XX=o====o=XX########@++++++++++X                      ",
"                    X######XXXXXXXX##########+++++++++++XX                     ",
"                    .#######################@++++++++++X++XXX                  ",
"                     X#####################@+++++++++++X+++++.                 ",
"                     .####################@++++++++++++++++++.                 ",
"                   X++.@#################@++++++++++++++++++.                  ",
"                    ...+@##############@++++++++###++++++++.                   ",
"                     .++++@##########+++++++++######X++++..                    ",
"                     .X++++++@######@++++++++########.+..                      ",
"                      ++++X+++++++++++++++++######$$##.                        ",
"                     X+++++XX++++++++++++++@#####$$$$##.                       ",
"                     XX++++++..++++++++++.X######$$$###.                       ",
"                      X++#@+@++...++++....X############.                       ",
"                      XX#######@+. ...     X#####.+..##.                       ",
"                        X#######.            X#.++++++.                        ",
"                         X+#+#..              X.++++++.                        ",
"                        X###X..                X+++++.                         ",
"                         ....                   .....                          ",
"                          .                                                    ",
"                                                                               ",
"                                                                               ",
"                                                                               ",
"                                                                               ",
"                                                                               ",
"                                                                               ",
"                                                                               ",
"                                                                               "
};
