/* XPM */
static char *_e37bfde64b94cf4953c661276f270c8TanVV7LZyKEUWsCE_46[] = {
/* columns rows colors chars-per-pixel */
"76 73 12 1 ",
"  c None",
". c #101010",
"X c #B51000",
"o c #DE2110",
"O c #846319",
"+ c #FF6B29",
"@ c #EF8429",
"# c #FFA53A",
"$ c #CE9C4A",
"% c #E6C552",
"& c #F7E67B",
"* c white",
/* pixels */
"                                                                            ",
"                                                                  O.        ",
"                                                                OO%.        ",
"                                                                O&.         ",
"                                                              OO&&.         ",
"                                                           OOO&&&%.         ",
"                                                         OOO&&&&&%.         ",
"                                O                     OOOO&&&&&&%%.         ",
"                            OOOO&OO                 OO&&&&&&&&&%%.          ",
"             OOOOO OO     OO&&&&&&&O               O.&&&&&&&&&&OOOOO        ",
"             &&&&%OO%OO OO&&&&&&&&&&O             O.&.&&&&&&&&&&%%%%OO O    ",
"           OO&&&&&&&&&&O&&&&&&&&&&&&&O            &.&%.&&&&&&&&&%%%%%%OOO   ",
"         OO&&&&&&&&&&&&&&OO&&&&&&&&&&&O      ..  O&&.O&..&&&&&&%%%%%%%%%O   ",
"         O&&&&&&&&&&&&&&&&O&&&&&&&&&&&O      .&. O&&.%O%.&&&&&&%%....%%%OO  ",
"        .&&&&&&&&&&&&&&&&&&O&&&&&&&&&&&O     .&&O&&&.%O&.%%&&%%%%$$$$..%%O  ",
"        &&&&&&&&&&&&&&&&&&&O%%&&&&&&&&&&O     .&%O...%%O%.%%%%%%%%O$$O  .%O ",
"       .&&&&&&&&&&&&&&&&&%%O%%%%&&&&%&%&%O    .&..&&&O%O&.%%%%%%%%O.$$O  .O ",
"       .&&&&&&&&&&&&&&&&%&&&%O%%%%%%&%&%&OO    .&&&&&%OO&.%%%..$$%%OO...  . ",
"      .&&&&&&&&&&&&&&&&&&&%%&O%%%%%%%%%&%O&OO .&&%O.%%%O%.%%%   .$$%O       ",
"      ..&&&&&&&&&&&&&&&%%%&&%O%%%%%%%%%%&O&&O.$&%O*X%%%%%%...    .$$$O      ",
"       .&&&&&&&&&&&&&&%%%%%%%O%%%%%%%%%%%O&..&&&Oo+%%%%%%%.       .$$O      ",
"      .%%&&&&&&&&&&&&%%%%%%%%O%%%%%%%%%%%O..&&&&&&%%%%%%%%%.      .$$.      ",
"      .%%%%&&&&&&&&&%%%%%%%%%O%%%%%%%%%%..&&&&&&&%%%%%%%%%%..      .$.      ",
"      .%OOOOO%&%%%%%%%%%%%%%%OO%%%%%%%%%.O&&&&&&%O%%%%%%%%%%.       .$.     ",
"      OO&&&&%OOO%%%%%%%%%%%%%O%%%%%%%%%%.%%&OOOOO%%%%%%%%%%%%.      .$.     ",
"    OO&&&&&&&&&&%O%%%%%%%%%%%O%%%%%%%%%%O&.%O%%%%%%%%%%%%%%%%%.      .      ",
"    O&&&&&&&&&&&&&O%%%%%%%%%%O%%%%%%%%%%%O%.....%%%%%%%%%%%%%%.      .      ",
"   O&&&&&&&&&&&&&&&O%%%%%%%%%O%%%%%%%%%%O%%&&&O ...%%&%%%%%%%%.             ",
"   &&&&&&&&&&&&&&&&O%%%%%%%%O%%%%%%%%%%%O%%%&%OO   .&%&%%%%%%%.             ",
"  O&&&&&&&&&&&&&&&&%O%%%%%%%O%%%%%%%%%%O%%%%%%O&OO .%&%&%%%%%%%.            ",
"  O&&&&&&&&&&&&&&&%&OOO%%%%%%O%%%%%%%%%O%%%%%O&&&&O.&%&%%%%%%%%.            ",
" O&&&&&&&&&&&&&&&&&&%&O%%%%%O%%%%%%%%%O%%%%%%O%&&&&.%&%&&%%%%%%.            ",
" OO&&&&&&&&&&&&&&&&%&%%O%%%%O%%%%%%%%O%%%%%%%%%%%%$.&&&&&&%&%%%.            ",
"  O&&&&&&&&&&&&&&&%&%&&O%%%%O%%%%%%%$O%%%%%%O%%%%%.%&&&&&&&&%%%%..          ",
"  O&&&O&&&&&&&&&&&&%&%%O%%%%O%%%%%%%O%%%%%%O%%%%%$.&&&&&&&&&&%%%..          ",
"  .&&&O%&&&&&&&&%%%%%&%$O%%%O%%%%%%$O%%%%%%O%%%%%.%&&&&&&&&&&%%%..          ",
"  .&&&%O%&%&&&&&%%%%%%%%OO$%$O%%%%%$O%%%%%%O%%%%%.%&&&&&&&&&&%%%..          ",
"  .%&%%O%%%%%%%%%%%%%%%%%O$$$O$$%%%$O$%%%%O%%%%%.%&&&&&&&&&&%%%%..          ",
"  .%.%%%O%%%%%%%%%%%%%%%%O$$$O$$$$$$O$$%$O$%%%%%.%%&&&&&&&&&%%%%..          ",
"    .%%%%O%%%%%%%%%%%%%%%$O$$O$$$$$$O$$$O$%%%%$$.%%%&%&&&&&%%%%$..          ",
"     .%%%OO%%%%%%%%%%%%%%$O$$O$$$$$$O$$O$$%%%%$.$.$%&%%&%&&%%%$O..          ",
"     .%%%%O%%%%%%%%%%%%%%$O$$$O$$$$O$$$O$$$%%$$.&&O%%%%%%&%%%%$.            ",
"      .%%%%O%%%%%%%%%%%%$$OO$$$O$$$O$$O$$$$$$$.&&&.$O%%%&%%%%$O.            ",
"       .%%%%O%%%%%%%%%%%%$$O$$$O$$$O$$O$$$$$$$.&&&.$.%%%%%%%%.$.            ",
"         ..%O%O%%%%%%%%$$$$$O$$O$$$O$$O$$$$$$.&&&&%..$%%%%%%$.$.            ",
"      OOOOOO&OOO%$%%%%%$$$$$OO$O$$$O$O$$$$$$$.&&O&&%.$$O%%%$.$.             ",
"     O%&&&&&&&%&%OOO$$$$$$$$$O$$O$$O$O$$$$$$.&&&O&&&%.$.%%$.$$.             ",
"     %&&&&&&&&&%&%%%O$$$$$$$$$O$O$$OO$O$$$$.&&&&O&&&&O..$$.$$$.             ",
"    O&&&&&&&&&%&%&%%%OO$$$$$$$$$O$O$O$O$...%%&&%O&&&&O$$..$$%.              ",
"   O&&&&&&&&&&&%&%%%%%$OO$O$$$$$$O$OOO..%%%%O%%%%O&&%O$$$O$%%.              ",
"  O%&&&&&&&&&&&&&&%%%%%$$O$OO$$$$$O$$.%%%%%%%O%%%O&&%O$$$O$%%.              ",
" O%&&&&&&&&&&&&&&%%OOO%%$$O$$OO$$$$O.%%%%%%%%O%%%O&%%O$$$O%%%.              ",
" O&&&&&&&&&&&&%OOOO&&%%OOO%$OOO$OOO.$%%%%%%%%%O%$O%%%O$$$O%%%.              ",
"O&%&&&&&&&&&&%OO&&&&&&&%%%%%$$$OO$$.$%%%%%%%%%O$$O%%%O$$$......             ",
" O%&%&&&&&&&OO&&&&&&&&&&&%%%%%$OOOO.$%%%%%%%%%O$$O%%%O$..######..           ",
" .&%&&%&&&&%&&&&&&&&&&&&&&&%%OOOO$$....%%%%%%%O$$O%%%..&&######@@.          ",
" .%&%&%%%%%O&&&&&&&&&&&&&&OOO%%%%%%O%%%...%%%%O$$O%..&&&##@@@@@@@@.         ",
" .&%&%%%%%.&&&&&&&&&&&&&OO&&&&&&%%%O%%%%%%.........&&&%@@@@.....@@@.        ",
" .%&%&%%%.%&&&&&&&&&&&&&O&&&&&&&&&O%%%%%%%&&&&&&&&&&&%%@@..&.   ..@.        ",
"  .%%%%%%.&&&&&&&&&&&&&O&&&&&&&&&&O%%%%%%%&&&&&&&&&%%%@..&&&&.    ..        ",
"  .%%%%%..%&&&&&&&&&&&&O&&&&&&&&&&O%%%%%%%%&&&&&%%%%%%.$.&&$&&.             ",
"    .%%%%.&&&&&&&&&&&&O&&&&&&&&&&&&OO%%%%%%%%%%%%%%%%.....%%O%.             ",
"    .%%%%.&&&&&&&&&&&&O%&&&&&&&&&&&%%OOOO%%%%%%%%%..%$.   ....              ",
"     ..%%.&&&&&&&&&&&&O%&&&&&&&&&&%%%%%%%OO..%%%......                      ",
"       ...%&&&&&&&&&&%O%%&&&&&&&%%%%%%%%%@@@@...                            ",
"         .%&&&&&&&&&%%O%%%%%%%%%%%%%%%@@@@@@@@@.                            ",
"          .%&&&&&&&%%%%.%%%%%%%%%%%%%%%%@@@@@@@@.                           ",
"           .%%%%%%%%%%%%.%%%%%%%%%%.........@@@@@.                          ",
"            .%.%%%%%%%%%%..%%%%%%%%         ...@@@.                         ",
"             . ...%%%..... ........            ..@.                         ",
"                  ...                            ..                         ",
"                                                                            ",
"                                                                            "
};
