/* XPM */
static char *_9826ce84b354666bab7eade826f79dermcZGnqov4tDfErS_75[] = {
/* columns rows colors chars-per-pixel */
"62 57 14 1 ",
"  c None",
". c black",
"X c #63313A",
"o c #313152",
"O c #5A4A73",
"+ c #DE3131",
"@ c #7363AD",
"# c #527BC5",
"$ c #E66384",
"% c #6BBDCE",
"& c #8484BD",
"* c #FF9CB5",
"= c #BDBDE6",
"- c #EFEFFF",
/* pixels */
"                                                              ",
"                                                              ",
"                                                              ",
"                                                              ",
"                                                              ",
"                                                              ",
"                                                              ",
"                                                              ",
"                          .                                   ",
"                   .@     .O                                  ",
"                   ...    .o.                                 ",
"                  ..O.@@  ..o.                   O            ",
"                   .ooo.    ..                 @-o.           ",
"                  .o&...O   ...               O--o.           ",
"                   o&---.     .               ---O.           ",
"                   o-O---.     ..            ---&o            ",
"                   o---o--.     .           o----o            ",
"                   o--ooo-..    .           ----&.            ",
"                   .--ooo-O .    .         --o-=o             ",
"                   .-----o- . .  .        o-oo--o             ",
"                    o--o-o-   .   .       -ooo--.             ",
"                    o--o---.  ..  .      o-ooo-o              ",
"                    oO-o--o-   ..o...    -o-o--o              ",
"                     oO-o---.oo..&o&OO  .---o-o               ",
"                     o-O-o-ooX&&.&.&&@OO---o-&o               ",
"                     o---ooo++X&.&&.&@@@o=oo&o.               ",
"                     .----X$*$X&&O&O&@@@@ooO-o                ",
"                      &--X+**$X&&&&&@OOO@oO-&                 ",
"                      o--X+**+@&&&&@X$$+X@o-.                 ",
"                      oOOX+++X@@@@@O$**++Xoo                  ",
"                       --X++X@@@@@@+***+++o.                  ",
"                       &-.O@#%#O@@@+**++++.                   ",
"                       o-.@O%%%%o@OX++++++.                   ",
"                       .--.Oo%%%#oO.+++++X.                   ",
"                        oO.@-oo##oOO.+++X.                    ",
"                        o--.OOO-oOOOO...O.                    ",
"                        .&--.OOOOOOOOOOO.                     ",
"                         o-o@oOOOOOOOO..                      ",
"                         .o@@@OOOOOoo.o                       ",
"                          o@@OOooOo.o&.                       ",
"                         o@@OO#%oo##..                        ",
"                         o@OOO%%%###..                        ",
"                         .@OOO%%%o##..                        ",
"                         OoOOOo%%##.O.                        ",
"                          .OOOOoooo.O.                        ",
"                         .#.OOOOOOOO.                         ",
"                         o##.OOOOO..                          ",
"                         o###.....o                           ",
"                         #%##.=.##o                           ",
"                        o#%%%%..##o                           ",
"                         o%%%o=o###.                          ",
"                        o#%%%.=o%#o                           ",
"                        o%%%%..o%%#.                          ",
"                         o#%%o..o%%.                          ",
"                         o#.. o- %#.                          ",
"                              .o o.                           ",
"                               .                              "
};
