/* XPM */
static char *_9826ce84b354666bab7eade826f79dermcZGnqov4tDfErS_62[] = {
/* columns rows colors chars-per-pixel */
"62 57 15 1 ",
"  c None",
". c black",
"X c #63313A",
"o c #313152",
"O c #5A4A73",
"+ c #DE3131",
"@ c #7363AD",
"# c #527BC5",
"$ c #E66384",
"% c #6BBDCE",
"& c #8484BD",
"* c #9C9CB5",
"= c #FF9CB5",
"- c #BDBDE6",
"; c #EFEFFF",
/* pixels */
"                                                              ",
"          ...O           ..                  OO.. .           ",
"        ..ooo;O@@        .O.   ..          O@;;oo.o.          ",
"       ..oooO&;;;@@      .o.    .O.      O@;;;;;oooo.         ",
"       .ooo;;&;;;;;@@     .o.   .o.      ;;;;;;;;Ooo.         ",
"      .oooOO&;O;;;;;;@@     ..  .o.      ;;;;;;;&Oooo.        ",
"      .oo&;;&O;;;;;;;;;@     .   ..     O;;;;;;O-;O&o.        ",
"      .oo;;;;;;O;;;;;;;;     .   ..    o;;;;;;O;;&;;o.        ",
"      .oo;;;;;;;O;;;;;;;O     .   .   o;;;;;;O;;O-;;oo        ",
"      .oo;;;;;O;;oo&;;;;;.    .    . o;;;;&ooo;O;;;;oo.       ",
"      .oo;;;;;;Oooooo&;;;;.   .    . O;;;;ooooo;;;;;oo.       ",
"      .oo;;;;;;ooooooo;;;;;O   .   . o;;;ooooooo;;;;oo.       ",
"      .oo&;;;;;oooo;;oo;;;;O   .   .o;;;oo;;oooo;;;oo.        ",
"      .ooo&;;;;ooo;;;;oo;;;;.  .    .;;;o;;;;ooo;;;oo.        ",
"      .ooo&;;;;ooo;;;;;oo;;;O   .  o.;;oo;;;;oo&;;;Oo.        ",
"       .oo&OO;;&oo;;;;;;o;;;;   .  o.;;o;;;;ooo;;;&oo         ",
"       .o;;;;;;;ooo;;;;;&o;;O   . .;.;o&;;;;oo;;&O;oo.        ",
"       .o&;;;&OOOoo;;;;;;oo;;. o.ooo.-o;;;;oo;OO;;;oo.        ",
"        oO;;;;;;;;ooo;;;;;o-.oo&.&&.OO---;oOOOO;;;&o.         ",
"       .oo&;;;;;;;;;ooo;;;oooX&&.&&.&@OO--&-;;;;;;oo.         ",
"        .oo&;;;;;;;;;;ooo-oo++X&.&&.&@@@oo---;;;;&o.          ",
"        .ooOO;;;;;;;;;;;o-X$=$X&&O&O&@@@@o----;;;&o.          ",
"         .o;;O;;;;;;;;;;-X+==$X&&&&&@OOO@o----;;OOo.          ",
"         .o&;;OOOO-;;;;;-X+==+@&&&&@X$$+X@o--&OO;;o.          ",
"         .oO;;;;;;&OOOOOOX+++X@@@@@O$==++XoOO--;;Oo.          ",
"          .o;;;;;;;;;;;--X++X@@@@@@+===+++o----;;o.           ",
"          .o&;;;;;;;;;---.O@#%#O@@@+==++++.----;&o.           ",
"           .&&;;;;;;-OOOO.@O%%%%o@OX++++++.---&Oo.            ",
"           .oOOOOOOO&;----.Oo%%%#oO.+++++X.OOO--o.            ",
"           .o;;;;;;;;;----.@;oo##oOO.+++X.O----oo.            ",
"            o&;;;;;;;;;--OO.OOO;oOOOO...O.----oo.             ",
"            .o;;;;;;;;&OO---.OOOOOOOOOOO.---&o..              ",
"            .oo&;;;&OO&----o@oOOOOOOOO..---O..                ",
"             .ooooO;;;;---o@@@OOOOOoo.----&                   ",
"              ..o;;;;;;;--o@@ooOOOOOo......o.                 ",
"                ..&;;;;;Oo@@#%ooOOOo##.---ooo.                ",
"                o......O*o@O%%%%oOO###.O---oo.                ",
"               .o&---&O-*.@O%%%ooOOo##.-----oo.               ",
"               o&;;;O---*OoOo%%%oOO##.O------o.               ",
"              oo;;-O&---.*.OOoooOOOoo..---O--o.               ",
"              oo;O&;O--**.#.OOOOOOOO..-O---OOo.               ",
"             .ooO;;;;OO-*o##.OOOOO..-O-O---O--.               ",
"             .oo;;;;O---o###. ....o o-O-O--O-oo               ",
"             .oo&;;O;;-o#%##.  .##o o-O--OO--o.               ",
"              .oo;;O;--o%%%#.  .###. .---O--oo.               ",
"              .oo&O;;-o#%%%%   o###o o--O-O-o.                ",
"               .ooO;;;o%%%%o    o%%#. .-O-Oo.                 ",
"               .ooo;;;o%%%#.    o%%%.  ..ooo                  ",
"                .oo;;;o#%%.      o%#.    ...                  ",
"                 .ooo. ...        o.                          ",
"                  ...                                         ",
"                                                              ",
"                                                              ",
"                                                              ",
"                                                              ",
"                                                              ",
"                                                              "
};
