/* XPM */
static char *_9826ce84b354666bab7eade826f79dermcZGnqov4tDfErS_68[] = {
/* columns rows colors chars-per-pixel */
"62 57 14 1 ",
"  c None",
". c black",
"X c #63313A",
"o c #313152",
"O c #5A4A73",
"+ c #DE3131",
"@ c #7363AD",
"# c #527BC5",
"$ c #E66384",
"% c #6BBDCE",
"& c #8484BD",
"* c #FF9CB5",
"= c #BDBDE6",
"- c #EFEFFF",
/* pixels */
"                                                              ",
"                                                              ",
"                                                              ",
"                  ..                  OO.                     ",
"                 .ooO@@.              --o..                   ",
"                ..oO--.O. .          O---oo.                  ",
"                .oo-&-.O...         O-----oo                  ",
"                ooO&O-.oo..o.       -----O-o.                 ",
"                o&-&-O---..o.      O----O--oo                 ",
"               .o----O----.O..     o------O&o                 ",
"               .o---O-O---.O..     ----O-O--o.                ",
"               .o-----oo---.. .   o---oo----o.                ",
"               .o----Oooo---.  .  O--&oo&---o.                ",
"               .o----ooooo---.  . ---oooo---o.                ",
"               .o----oo--o---.  .o--oo-oo---o.                ",
"               .o&---oo---o--..  .--o---oo--o.                ",
"               ooO---oo---o--O . .--o---o&--o.                ",
"               .ooO--oo------- . ..----oo--&o.                ",
"               .o----oo----o-- . ..o&--oo-&-o.                ",
"               .o&-&OOoo---o--.o.o.o.--o-O--o.                ",
"                o------oo---.oo&.&o&OO-OO---o                 ",
"                o&------oo-ooX&&.&.&&@OO----o.                ",
"                .o&------ooo++X&.&&.&@@@o--&o                 ",
"                .oO-------X$*$X&&O&O&@@@@o-&o                 ",
"                 o-O-----X+**$X&&&&&@OOO@oOOo                 ",
"                .o-&OO=--X+**+@&&&&@X$$+X@o-.                 ",
"                .o----&OOX+++X@@@@@O$**++XoOo                 ",
"                 o&------X++X@@@@@@+***+++o-.                 ",
"                 oo------.O#%#O@@@@+**++++.&.                 ",
"                 .o&---=O.@%%%%o@@OX++++++.o.                 ",
"                 .oOOOO&-=.o%%%#oOO.+++++X.o.                 ",
"                  o------=.-oo##oOOO.+++X.=o                  ",
"                  .------==.OO-oOOOOO...O.o.                  ",
"                  .------OO=.OOOOOOOOOOO.&.                   ",
"                   o---&O==o@oOOOOOOOO..O.                    ",
"                   oooO--=o@@@OOOOOoo.==                      ",
"                   .oo----o@@ooOOOOOo...o.                    ",
"                    ..&--o@@#%ooOOOo##.=oo                    ",
"                    .....o@O%%%%oOO###.==o.                   ",
"                   .o&==O.@O%%%ooOOo##.O=oo                   ",
"                   .o--O=OoOo%%%oOO##.====o                   ",
"                   o--O&=O.OOoooOOOoo.==O=o.                  ",
"                   o-O-==.#.OOOOOOOO..O==OO.                  ",
"                  .oO--OOo##.OOOOO...O===O=.                  ",
"                  .o---=o###. ....o o=OO==oo                  ",
"                  .o&-Oo#%##.. .##o o=O=O==.                  ",
"                   oo---o%%%%. .##o  .O=O=o.                  ",
"                   ooO-o#%%%o  o###. o=O=Oo                   ",
"                   .oO-o%%%%.   o##o  .O=O.                   ",
"                   .oo-o%%%#.   o%%#.  .oo.                   ",
"                    oo-o#%%.     %%%.   ..                    ",
"                    .oo. ...     o%#.                         ",
"                     ..           o.                          ",
"                                                              ",
"                                                              ",
"                                                              ",
"                                                              "
};
