/* XPM */
static char *_9826ce84b354666bab7eade826f79dermcZGnqov4tDfErS_77[] = {
/* columns rows colors chars-per-pixel */
"62 57 15 1 ",
"  c None",
". c black",
"X c #63313A",
"o c #313152",
"O c #5A4A73",
"+ c #DE3131",
"@ c #7363AD",
"# c #527BC5",
"$ c #E66384",
"% c #6BBDCE",
"& c #8484BD",
"* c #9C9CB5",
"= c #FF9CB5",
"- c #BDBDE6",
"; c #EFEFFF",
/* pixels */
"                                                              ",
"                                                              ",
"                                                              ",
"                                                              ",
"                                                              ",
"                                                              ",
"                                                              ",
"                          ...                                 ",
"                 .O@       .O.                                ",
"                .o;;@      .o.                                ",
"                .o...@@     .o.                 OO.           ",
"                oo.O.;.@     ..                @;;o.          ",
"                oO...o.;     ..               O;;;o.          ",
"                o&&;;.;.O      .             O;;;;Oo          ",
"                o;;O;;;.;       .           o;;;;&o.          ",
"                .;;;;oo;;.       .          ;;;;O;o.          ",
"                .o;;;ooo;...     .         O;;;O;Oo.          ",
"                .o;;;ooo;;O.     .         ;;&o;O;o           ",
"                 o;;;oo;o;; .     .       ;;ooo;;;.           ",
"                 o;;;o;;;o;  ..   .      o;oooo;;o.           ",
"                 oo;;o;;;o;.  .   .      ;o;;oo;;o            ",
"                 .o&;&o;;&;;   ..oo..   o;o;;oo;;o            ",
"                  o&O;oo;;o;.oo.&&o&OO o;o;;;o;;o             ",
"                  o;;Oooo;;ooX&&.&.&&@OO;o;;o;;-.             ",
"                  o&;;;;oooo++X&.&&.&@@@o-;oo;;o.             ",
"                   O;;;;;oX$=$X&&O&O&@@@@oooO;;.              ",
"                   o;;;;;X+==$X&&&&&@OOO@o-O;;o.              ",
"                   .o;;;;X+==+@&&&&@X$$+X@o;;;o               ",
"                   .oO;O;X+++X@@@@@O$==++Xo;;o.               ",
"                    o;OO&X++X@@@@@@+===+++o;o.                ",
"                    .;;;;.O#%#O@@@@+==++++.Oo                 ",
"                    .O;;;.@%%%%o@@OX++++++.;.                 ",
"                     o;;;-.o%%%#oOO.+++++X.O                  ",
"                     o&;OO.;oo##oOOO.+++X.;.                  ",
"                      oO;;;.OO;oOOOOO...O.o                   ",
"                      o;;;;;.OOOOOOOOOOO.O.                   ",
"                      .&;;;o@oOOOOOOOO..-o                    ",
"                       o&;o@@@OOOOOoo.--o.                    ",
"                       oooo@@OOooOo.o&-o                      ",
"                        .o@@OO#%oo##...                       ",
"                         o@OOO%%%###..                        ",
"                         .@OOO%%%o##..                        ",
"                         OoOOOo%%##.O.                        ",
"                         o.OOOOoooo.O.                        ",
"                         .#.OOOOOOOO..                        ",
"                         o##.OOOOO..o                         ",
"                         o###.....oOo                         ",
"                         #%##.*.##o-.                         ",
"                        o%%%%.-.##oo                          ",
"                        o%%%%o-o###.                          ",
"                        o%%%%.--o##o                          ",
"                        o%%%#;-.o%%#.                         ",
"                        o%%%.;o o%%%.                         ",
"                         o...;. .%#..                         ",
"                            .o   o.                           ",
"                             .                                ",
"                                                              "
};
