/* XPM */
static char *_e0044226d1d401ff8115b207c9261d7VsPYo243VVLcvZLO_54[] = {
/* columns rows colors chars-per-pixel */
"72 57 15 1 ",
"  c None",
". c #101010",
"X c #424A10",
"o c #5A4A10",
"O c #636B21",
"+ c gray45",
"@ c #B50000",
"# c #FF5252",
"$ c #8C9442",
"% c #9C8C52",
"& c #B5BD63",
"* c #D6B55A",
"= c #F7DE8C",
"- c #CECECE",
"; c white",
/* pixels */
"                                                                        ",
"                                                                        ",
"                                                                        ",
"                                         XXO                            ",
"                               ..XXXX  XX&&&OO                          ",
"                              .O&&&&&X.$&&&&&&$OO                       ",
"                          XX..O$&&&&&.$&&&&&&&&&&X                      ",
"                        OX&$X.XXXOOO.$&&&&&&&&&&&&X                     ",
"                       O&&&&OO.XXXO.$$$$&&&&&&&&&$$X                    ",
"                     XO&&&$OXO.....X$$$$$$&&&&&&$$$.                    ",
"                    X&&&$OOXX.$$$$$XX$$$$OOOOOOOX$$.                    ",
"                   X&&$OOOXO$&&&&&&&&XXXOOOOOOOOOX$.                    ",
"                   .OOOOX..&&&&&&&&&&&&$XOOOOOOOOXXX      oooo          ",
"                   ..OOO..O&&&&&&&&&&&&&$.XXXXXXXX...     .***          ",
"                  .XXXX...$&&&&&&&&&&&&&XO..O&&&&&&$$.  ..***%..        ",
"                 .$&&&OX..$$&&&&&&&&&&&$OO.O$&&&&&&&$o.o%**+;;--.       ",
"                 X&&&&$XX.O$&&&&&&&&&&&OOO.O&&&&&&&&o**.***%+.;..       ",
"                X$&&&&&OX.X$$&&&&&&&&&&XOOXOO$&&&&&.*****%%%%.;.;+      ",
"                X&&&&&&$XX.$$&&&&.&o...XOXXOOOO$&&&.****%%%%%%..;;+     ",
"                X&&&&&&&XX.O$$$$.%o***.ooO.OOOOOO$&.%*%%..%%**+-;;.     ",
"               X.$&&&&&$XX..$$.%*********%o.OOOOOOO.%.%-;;%%***.-;;     ",
"              X$.O&&&&&OXX..X.%o*******===*...OOOOOO..;;;.*****o....    ",
"             X$&$.X&&$OXX...Xo%o******=====oOOXX.....%--;+*ooo     .    ",
"             X&&&&o..........%%%.*****=====*o$$$OXO..%...;.oo           ",
"             X&&&o%%o..OOOX.%%%%;******=====%$$$$OO..%%%%.oo.           ",
"             X&&&o%%%o.XXXO.%%%##*******=====o$$$$O..%%%%oo..           ",
"             X&&o%**%%O$$XX.%%%.#.*****====*o$$$OOOO.%%%%oo.            ",
"           oo Xo%**%..O&&&$.%%%+#;o*****===O%oOOOOOO.%%%oo.             ",
"          o**oo****.%.&&&&$.%%o%%-.%*******o%.OOO.....%%oo.             ",
"        ...%***.**%%%.&&$$$.%%..%%%%******#;*.OOO.XXXX....              ",
"        .-;;+**%ooo%%.$$$$O.o%..%%%o*****%.-*.OO.XOOOOOO..              ",
"        .;;+%***..**oo.$$$O..oo@.%%o%***o**o.....OXOOOXXX.              ",
"      +..;.%%%%%****o.$$$O....%@@.%%o***%**...O.OOOXXXXXX.              ",
"      +;-..%%%%%****o.OOO.....%.@@o%%ooo***..XO.OOOXXXXXX.              ",
"     .;;-+*%%%%.%***%o........%@@@...%***oo..XOXOOOXXXXXX.              ",
"     .;--***%%%;;-.%.OOOXXX...o%@+@@@.o*....O...OOOOXXXXX.              ",
"    .;...o****.;;;..OOOOOOOO...%.+@@@@o*....OO...OOOXXXX.               ",
"     .    o*o*+;--.OOOOOOOOOX....;+@@@+....OOOX...OOOX..                ",
"           o ..;...OOOOOOOOOX.X.%***@+;...oOOOOXXXX....                 ",
"              .....$OOOOOOOOX.X....***.OO.OOOOOX..*****o                ",
"                 o.OOO$O$OOOX.XOOO...OOOOXOOOO.X********o               ",
"                o**.O$O$OOOO.XXOOOOOOOOOO.OOO..%%*******%               ",
"               o****.O$OO$..XXOOOOOOOOOOO.XX..%%%********o              ",
"              o%*****..OX.....OOOOOOOOOO..XX.%%%%%********o             ",
"              .%%*****......X............XX..%%%%%%%******o             ",
"             .%%%**%%%%%%%.XXXX...........X..%%*%%%%%%****o             ",
"              o%%%%%%%%%%%%.XXXXXXXXXXXXXX....%%*%%%%%%%%o              ",
"              ..%%%%%%%%%o.-..XXXXXXXXXXXX..  .o%%%%%%%%.o              ",
"               ..o%%%%%%%%%--. X.XOOOOO...    .%%%%%%%%%o.              ",
"             o.%o..%%ooo%%%..     X....      .%%%%%%%%%***.             ",
"            o-+o%%%.%%%%%..                  .%%%%%%******.             ",
"            ..+-+%.%%%...                     .%%%%****+.+;.            ",
"             .;-..+-...                       .%oo+%+.+-;.-;.           ",
"              ... .;;                          .--.+--..-;...           ",
"                  ...                          .-;..;;. ..              ",
"                                                .;. .;.                 ",
"                                                                        "
};
