/* XPM */
static char *e09c064248f34853a16eb353adadd810cHMZ2RD7gSbV5z6E_5[] = {
/* columns rows colors chars-per-pixel */
"70 76 16 1 ",
"  c None",
". c black",
"X c #5A4221",
"o c gray26",
"O c #635A42",
"+ c #B54242",
"@ c #A57B5A",
"# c #B5A57B",
"$ c #CE9C52",
"% c #EFC573",
"& c #848484",
"* c #F784A5",
"= c #EFDEAD",
"- c #D6CECE",
"; c #FFD6E6",
": c white",
/* pixels */
"                             o                                        ",
"                             o                                        ",
"                            o&o                                       ",
"                            o&o                                       ",
"                            o&&.         oooo.                        ",
"                            .&&.   X  ooo&&&.                         ",
"                            .&&. XX$@o&&&&&.                          ",
"                             .&o.$@$o&&&&o.                           ",
"                             .oo.$$.oo&o..                            ",
"                            X$.o.$.ooo..@@X                           ",
"                            X$...@.o..$$$@@X                          ",
"                           X$$$..X..$$$$$@@@X                         ",
"                          X$$$$$...$$$$$$@@.      oooooo              ",
"                           X@X@$$.$$$XX$@@@X   ooo&&..    .           ",
"                           X$:X$$$$XX::$@@@@Xoo&&&..     o.           ",
"                            X-:.OO@:.:$@@@@@o&&&..    ooo&.           ",
"                           X$$@O==OO$$@@@@@o&&&.    oo&&&&.           ",
"                            X$O====O.@@@@@..o&.   .o&&&&&.            ",
"                             O#==###.@@@@@X.o.  ..o&&&&o.             ",
"                             O==#.OO@@@@@...o. ..ooo...               ",
"                            O==#O#==OOX@X.  ........                  ",
"                          OO==#.#=====OO..XX@X.X@XX                   ",
"                         O===#. ....#===OO@$$$@@$$$X                  ",
"                        O===..      ..#===OOOX$$$$$@X.                ",
"                        O==.        ...#O====:XX$$$$@@.               ",
"         oo.            O=.        .....##O==:.:XX$$@.                ",
"        o&.             ..         .... .###.$::%$$$@@X               ",
"       o&&.     oooo.             ......@O..@$$$$$$$@@.               ",
"      o&&.    oo&&&.              ..o. X@@@@@@$$$$@@@@.               ",
"      .&&.   o&&&&.               .oooX@@@@@@@@@@@@@@..               ",
"      .&o.  .o&&&.                .ooo.X@@@@@@@@@@@@@@.               ",
"      .oo.X.oooo.                  .oo. .X@@@@@@@@@@X..               ",
"       .o.$.ooo.@X                 .ooo  .@@X@@@@@@@...               ",
"       .oo$.oo.$$$.  ........      .ooo.X$X...X.@@X...                ",
"      X$.o.oo.$$$$.........ooo..X.o@.oo.@$@@@@.......                 ",
"      $$$$.o$$$$$$$X........oooo.$@$.oo.$$$@@oooo...                  ",
"     X$$$$$$$$$X@$$@... .....oooo$$$.ooo.@$..ooooo.                   ",
"     X$X$$$$$$X:@$@@.        ..oo.$$$@o@$$.ooooo..XX                  ",
"    X$$:.$$$$X.:@@@X         XX.oo.$@$@$$$oooo...@@XX                 ",
"     X@::@OOX::-@@@X.        X.o@o$$$$$$$$$@..X@@@@@@.                ",
"    .X@@@O==O@@@@@@@X       X$$$@$$$$$@$$$$@@@@$$@@@X                 ",
"    X@@@O====O@@@@@.        X@$$@$$$@@$$$$@$$$@@@@@X.                 ",
"     .OO=====.@@@@X         X$$$$$$$@$$$$$$$@@@@@@@@X                 ",
"   OOO====....@@@X.        X$$$@$$$$$$@$$$$$@@@$$@@@@.                ",
"  O====#..++#.@X..         .X@@$$@$$$@@$$@@@$@@@$$@@.                 ",
" O===#..  O+=..             X@@$X@$$$@@@@@@@@@@@@@@@.                 ",
" O==..    O+=.             .@@@@X@@$@@@@X@@@@@@X@@@@                  ",
" ...      O#=O              .X@@.@@@@@@@.@@@@@@.@@@.                  ",
"          O=.                .@@...@@@@X&@@@@@@.X@@.                  ",
"          O=.                .o..o.@@@@.&X@@X@.oo@.*+++               ",
"         O=.                     oo.@.@.&...&.oooX.****+              ",
"         ..                       .ooo&&&&&&&&ooo.******++            ",
"                                   oo..o&&&&&ooo.*++******+++         ",
"                                  .ooo...&&&oooo.***+*****;;;++       ",
"                                  .oo.   ...ooo.+****++;*;;;;*+       ",
"                                    #.     ..o#.*++***++;;;;;;.       ",
"                               OO####.       .#.;**+;;;;+++;;;.       ",
"                             OO#===##        .##.;;+++;;;;;..         ",
"                            O#====O..        .##.+;;;;++.;;;.         ",
"                           O====..           .##. ..;..  .            ",
"                           ===#.            O#=O                      ",
"                         OO#=oo::o          O==.                      ",
"                         =#===#o-..         O==.                      ",
"                        OO##==.. .         O==O                       ",
"                        ==O=#O             O==.                       ",
"                       O==O=:...          O==O                        ",
"                       OO#O#&-..        OO#==Oo                       ",
"                       .O:#-&&.       OO##===O-o                      ",
"                        ..:.       OO#=#=====#.                       ",
"                                  &-#========o                        ",
"                                 &::#.O====#==o                       ",
"                                 .:..o#=##..##O                       ",
"                                 .. &-:#..  .:-O                      ",
"                                    o:-.    .-:o                      ",
"                                    o-.      .-.                      ",
"                                    ..        .                       "
};
