/* XPM */
static char *e09c064248f34853a16eb353adadd810cHMZ2RD7gSbV5z6E_66[] = {
/* columns rows colors chars-per-pixel */
"70 76 16 1 ",
"  c None",
". c black",
"X c #5A4221",
"o c gray26",
"O c #635A42",
"+ c #B54242",
"@ c #A57B5A",
"# c #B5A57B",
"$ c #CE9C52",
"% c #EFC573",
"& c #848484",
"* c #F784A5",
"= c #EFDEAD",
"- c #D6CECE",
"; c #FFD6E6",
": c white",
/* pixels */
"                                                                      ",
"                                                                      ",
"                                                                      ",
"                                                                      ",
"                             o                                        ",
"                             o                                        ",
"                            o&o                                       ",
"                            o&o                                       ",
"                            o&&.         oooo.                        ",
"                            .&&.   X  ooo&&&.                         ",
"                            .&&. XX$@o&&&&&.                          ",
"                             .&o.$@$o&&&&o.                           ",
"                             .oo.$$.oo&o..                            ",
"                            X$.o.$.ooo..@@X           oooooo          ",
"                            X$...@.o..$$$@@X       ooo&&..    .       ",
"                           X$$$..X..$$$$$@@@X    oo&&&..     o.       ",
"                          X$$$$$...$$$$$$@@.    o&&&..    ooo&.       ",
"                           X@X@$$.$$$XX$@@@X   o&&&.    oo&&&&.       ",
"                           X$:X$$$$XX::$@@@@X  .o&.   .o&&&&&.        ",
"                            X-:.OO@:.:$@@@@@.  .o.  ..o&&&&o.         ",
"                           X$$@O==OO$.OO@@@O   .o. ..ooo...           ",
"                            X$O====OO#==OO.     ........              ",
"                             O#==##.#=====OO  XX@X.X@XX               ",
"                             O==#==.....#===OO@$$$@@$$$X              ",
"                            O==#=..@@@X@..#===OOOX$$$$$@X.            ",
"                          OO==#.. XX@XX.. .#O====:XX$$$$@@.           ",
"        oo.              O===#.   ..X..    .##O==:.:XX$$@.            ",
"       o&.              O===..   ....       .###.$::%$$$@@X           ",
"      o&&.     oooo.    O==.     ....      .@O..@$$$$$$$@@.           ",
"     o&&.    oo&&&.     O=.      ....      X@@@@@@$$$$@@@@.           ",
"     .&&.   o&&&&.      ..       ..o.     X@@@@@@@@@@@@@@.            ",
"     .&o.  .o&&&.                .ooo.     X@@@@@@@@@@@@@@.           ",
"     .oo.X.oooo.                 .ooo.      .X@@@@@@@@@@X..           ",
"      .o.$.ooo.@X  . ..  ..       .oo.  X    .@@X@@@@@@@.             ",
"      .oo$.oo.$$$.............    .ooo.X$.  X X...X.@@X..             ",
"     X$.o.oo.$$$$..........ooo   o.ooo.@$@.XX@..... ..                ",
"     $$$$.o$$$$$$$X.........ooo..@@.oo.$@@@@@..o...                   ",
"    X$$$$$$$$$X@$$@..     ...oooo$$.ooo.@$@@@oooo..                   ",
"    X$X$$$$$$X:@$@@.        .oooo$$$.oo@$$@..ooo.X                    ",
"   X$$:.$$$$X.:@@@X         X..oo.$$@@@$$$$oooo.@@XX                  ",
"    X@::@OOX::-@@@X.       o$XX.oo.$$$$$$@.oooX@@@@@.                 ",
"   .X@@@O==O@@@@@@@X       .$$.o@o$$$$$$$$$@..$$@@@X                  ",
"   X@@@O====O@@@@@.        X$$$@@$$$$@$$$$$@@@$@@@X.                  ",
"    .OO=====.@@@@X        X$$$@$$$$@@$$$$@$$$@@@@@@X                  ",
"  OOO====....@@@X.        X@$$@@$$$@$$$$$$$@@@@$@@@@..          +++   ",
" O====#..++#.@X..         X$$$$$$$$$$@$$$$$@@@$$$@@..+*+++*+++;;;;;.  ",
"O===#..  O+=..            X$$$@$$$$$@@$$@@@$@@@@@@@@.**********;;;;.  ",
"O==..    O+=.            XXX@@$$@$$$@@@@@@@@@@@@@@@@**********;;;;.   ",
"...      O#=O             .X@@$X@$$@@@@X@@@@@@XX@@@.+*++*+++++++;;;.  ",
"         O=.               @@@@X@@@@@@@.@@@@@@@.X@@.********;;;;;;    ",
"         O=.              ..X@@.@@@@@@X&@@@@@@@.o@.++++**+;;++++      ",
"        O=.                 .@@...@@@@.&X@@@X@.ooX..*****;+;;;.       ",
"        ..                  .oo.o..@.@.&.&..&.ooo.  ..+;;;;;;         ",
"                                ooooo&&&&&&&&&oo.        ..           ",
"                                    ...o&&&&&ooo..                    ",
"                                    .o#...&&oooo.                     ",
"                                  OO###.. ..oooo.                     ",
"                                OO#==##..   ..o#.                     ",
"                               O#===O..      .##.                     ",
"                              O===..         .=#.                     ",
"                              ==#.          O#=O                      ",
"                            O=#ooo.         O==.                      ",
"                           O===:o.          O==.                      ",
"                           O==#.           O==O                       ",
"                          O#===.           O==.                       ",
"                         OO##=O...        O==O                        ",
"                          O#O##.:.      OO#==Oo                       ",
"                         OO=#=#-&.    OO##===O-o                      ",
"                          ==OO#&&  OO#=#=====#.                       ",
"                          O=##-.  &-#========o                        ",
"                          OO:::& &::#.O====#==o                       ",
"                           ...   .:..o#=##..##O                       ",
"                                 .. &-:#..  .:-O                      ",
"                                    o:-.    .-:o                      ",
"                                    o-.      .-.                      ",
"                                    ..        .                       "
};
