/* XPM */
static char *e09c064248f34853a16eb353adadd810cHMZ2RD7gSbV5z6E_69[] = {
/* columns rows colors chars-per-pixel */
"70 76 16 1 ",
"  c None",
". c black",
"X c #5A4221",
"o c gray26",
"O c #635A42",
"+ c #B54242",
"@ c #A57B5A",
"# c #B5A57B",
"$ c #CE9C52",
"% c #EFC573",
"& c #848484",
"* c #F784A5",
"= c #EFDEAD",
"- c #D6CECE",
"; c #FFD6E6",
": c white",
/* pixels */
"                                                                      ",
"                                                                      ",
"                                                                      ",
"                                                                      ",
"                                                                      ",
"                           o                                          ",
"                           o                                          ",
"                          o&o                                         ",
"                          o&o                                         ",
"                          o&&.         oooo.                          ",
"                          .&&.   X  ooo&&&.                           ",
"                          .&&. XX$@o&&&&&.                            ",
"                           .&o.$@$o&&&&o.              oooooo         ",
"                           .oo.$$.oo&o..            ooo&&..    .      ",
"                          X$.o.$.ooo..@@X         oo&&&..     o.      ",
"                          X$...@.o..$$$@@X       o&&&..    ooo&.      ",
"                         X$$$..X..$$$$$@@@X     o&&&.    oo&&&&.      ",
"                        X$$$$$...$$$$$$@@.      .o&.   .o&&&&&.       ",
"                         X@X@$$.$$$XX$@@@X      .o.  ..o&&&&o.        ",
"                         X$:X$$$$XX::$.OO@X     .o. ..ooo...          ",
"                          X-:.OO@:.:$O#==OO      ........             ",
"                         X$$@O==OO$$.#=====OO  XX@X.X@XX              ",
"                          X$O====O.@@....#===OO@$$$@@$$$X             ",
"                           O#==###.@@@@@X..#===OOOX$$$$$@X.           ",
"                           O==#==.@@@@@..  .#O====:XX$$$$@@.          ",
"                          O==#=..@@@X@X     .##O==:.:XX$$@.           ",
"                        OO==#.. XX@XX..      .###.$::%$$$@@X          ",
"         oo.           O===#.    .X..       .@O..@$$$$$$$@@.          ",
"        o&.           O===..     ....       X@@@@@@$$$$@@@@.          ",
"       o&&.     oooo. O==.       ..o.      X@@@@@@@@@@@@@@.           ",
"      o&&.    oo&&&.  O=.        .ooo.      X@@@@@@@@@@@@@@.          ",
"      .&&.   o&&&&.   ..         .ooo.       .X@@@@@@@@@@X..          ",
"      .&o.  .o&&&.      .         .oo.  X     .@@X@@@@@@@.            ",
"      .oo.X.oooo.  . ........     .ooo.X$.   X X...X.@@X..            ",
"       .o.$.ooo.@X.........oo.   o.ooo.@$$@.X@. .... ..               ",
"       .oo$.oo.$$$..........oo...@@.oo.$$@@@@.......                  ",
"      X$.o.oo.$$$$...........ooo.$$.ooo.@$@@@ooooo.                   ",
"      $$$$.o$$$$$$$X.        oooo$$$.oo@$$@..ooo..                    ",
"     X$$$$$$$$$X@$$@.       X..oo.$$$@@$$$.oooo.@XXX                  ",
"     X$X$$$$$$X:@$@@.      o$XX.oo.@$$$$$@oooo.@@@@@.                 ",
"    X$$:.$$$$X.:@@@X       .$$.o@o$$$$$$$$$@..X@@@@X                  ",
"     X@::@OOX::-@@@X.      X$$$@@$$$$@$$$$$@@@$$@@X.            ++    ",
"    .X@@@O==O@@@@@@@X     X$$$$@$$$@@$$$$@$$$@@@@@@X          ++;*..  ",
"    X@@@O====O@@@@@.      X@@$$@$$$@$$$$$$$@@@@@@@@@.    ++++;;;;;;.  ",
"     .OO=====.@@@@X        X$$$$$$$$$@$$$$$@@@$$@@@.++*+*******;;;+   ",
"   OOO====....@@@X.       X$$$@$@$$$@@$$@@@$@@@$$@@.**********;;+..   ",
"  O====#..++#.@X..        .X@@$$@$$$@@@@@@@@@@@@@@@********+;+++;;.   ",
" O===#..  O+=..            X@@$X@@$@@@@X@@@@@@X@@@@.++*+*++*+;;;;.    ",
" O==..    O+=.            .@@@@X@@@@@@@.@@@@@@.@@@@.********;;++      ",
" ...      O#=O             .X@@...@@@@X&@@@@@@..X@.+*****++;++.       ",
"          O=.               .@@.o.@@@@.&X@@X@..oo@.*+++*+*;;;.        ",
"          O=.               .oo.oo.@.@.&...&&.oooX.*.***;;;;;.        ",
"         O=.                     .ooo&&&&&&&&&ooo.    .+.. .          ",
"         ..                        ...o&&&&&&ooo.                     ",
"                                    .o....&&oooo.                     ",
"                                    .o#.  ..ooo.                      ",
"                                  OO###..   .o#.                      ",
"                                OO#==##..    .##.                     ",
"                               O#===O..      .##.                     ",
"                              O===..         .##.                     ",
"                            O===#..         O#=O                      ",
"                           O===oo.          O==.                      ",
"                           O==#.            O==.                      ",
"                          O#===.           O==O                       ",
"                         OO##=O...         O==.                       ",
"                          O#O##.:.        O==O                        ",
"                         OO=#=#-&.      OO#==Oo                       ",
"                          ==OO#&      OO##===O-o                      ",
"                          O=##-.   OO#=#=====#.                       ",
"                          O.:.:&  &-#========o                        ",
"                           ...   &::#.O====#==o                       ",
"                                 .:..o#=##..##O                       ",
"                                 .. &-:#..  .:-O                      ",
"                                    o:-.    .-:o                      ",
"                                    o-.      .-.                      ",
"                                    ..        .                       "
};
