/* XPM */
static char *e09c064248f34853a16eb353adadd810cHMZ2RD7gSbV5z6E_11[] = {
/* columns rows colors chars-per-pixel */
"70 76 16 1 ",
"  c None",
". c black",
"X c #5A4221",
"o c gray26",
"O c #635A42",
"+ c #B54242",
"@ c #A57B5A",
"# c #B5A57B",
"$ c #CE9C52",
"% c #EFC573",
"& c #848484",
"* c #F784A5",
"= c #EFDEAD",
"- c #D6CECE",
"; c #FFD6E6",
": c white",
/* pixels */
"                                                                      ",
"                                                                      ",
"                                  o                                   ",
"                                  o                                   ",
"                                 o&o                                  ",
"                                 o&o                                  ",
"                                 o&&.         oooo.                   ",
"                                 .&&.   X  ooo&&&.                    ",
"                                 .&&. XX$@o&&&&&.                     ",
"                                  .&o.$@$o&&&&o.                      ",
"                                  .oo.$$.oo&o..                       ",
"                                 X$.o.$.ooo..@@X                      ",
"                                 X$...@.o..$$$@@X                     ",
"                                X$$$..X..$$$$$@@@X                    ",
"                               X$$$$$...$$$$$$@@.                     ",
"                                X@X@$$.$$$XX$@@@X    oooooo           ",
"                                X$:X$$$$XX::$@@@@Xooo&&..    .        ",
"                                 X-:.OO@:.:$@@@@oo&&&..     o.        ",
"                                X$$@O==OO$$@@@@o&&&..    ooo&.        ",
"                                 X$O====O.@@@@o&&&.    oo&&&&.        ",
"                                  O#==###.@@@@.o&.   .o&&&&&.         ",
"                                  O==#==.@@@@@.o.  ..o&&&&o.          ",
"                                 O==.OO.@@@X@X.o. ..ooo...            ",
"                               OO==O#==OO@XX.. ........               ",
"                              O===.#=====OO. XX@X.X@XX                ",
"                             O===......#===OO@$$$@@$$$X               ",
"                             O==.    ....#===OOOX$$$$$@X.             ",
"                             O=.    ......#O====:XX$$$$@@.            ",
"           oo.               ..     ....  .##O==:.:XX$$@.             ",
"          o&.                      .....   .###.$::%$$$@@X            ",
"         o&&.     oooo.            ..o.   .@O..@$$$$$$$@@.            ",
"        o&&.    oo&&&.             .ooo   X@@@@@@$$$$@@@@.            ",
"        .&&.   o&&&&.              .ooo. X@@@@@@@@@@@@@@.             ",
"        .&o.  .o&&&. ..  ..         .oo.X X@@@@@@@@@@@@@@.            ",
"        .oo.X.oooo............     .oooX$. .X@@@@@@@@@@X..            ",
"         .o.$.ooo.@X.......ooo   oo.ooo.$@.X.@@X@@@@@@@.              ",
"         .oo$.oo.$$$........ooo..@@$.oo.@@@@@X...X.@@X..              ",
"        X$.o.oo.$$$$..    ...oooo$$$.oo.$$@@@oooo....                 ",
"        $$$$.o$$$$$$$X      .oooo$$$.ooo.@@..ooo.X                    ",
"       X$$$$$$$$$X@$$@.     X..oo.$$@@o@$$$oooo.@@XX                  ",
"       X$X$$$$$$X:@$@@.    o$XX.oo.$$$@$$@.oooX@@@@@.                 ",
"      X$$:.$$$$X.:@@@X     .$$.o@o$$$$$$$$$@..$$@@@X                  ",
"       X@::@OOX::-@@@X.    X$$$@@$$$$@$$$$$@@@$@@@X.                  ",
"      .X@@@O==O@@@@@@@X   X$$$@$$$$@@$$$$@$$$@@@@@@X                  ",
"      X@@@O====O@@@@@.    X@$$@@$$$@$$$$$$$@@@@$@@@@..                ",
"       .OO=====.@@@@X     X$$$$$$$$$$@$$$$$@@@$$$@@..                 ",
"     OOO====....@@@X.     X$$$@$$$$$@@$$@@@$@@@@@@@@.                 ",
"    O====#..++#.@X..     XXX@@$$@$$$@@@@@@@@@@@@@@@@**+               ",
"   O===#..  O+=..         .X@@$X@$$@@@@X@@@@@@XX@@@.****+++           ",
"   O==..    O+=.           @@@@X@@@@@@@.@@@@@@@.X@@.+******+++        ",
"   ...      O#=O          ..X@@.@@@@@@X&@@@@@@@.o@.**+++*****;;;+++   ",
"            O=.             .@@...@@@@.&X@@@X@.ooX.****+++***;;;;;+   ",
"            O=.             .oo.o..@.@.&.&..&.ooo.**+*****++;;;;;;.   ",
"           O=.                  ooooo&&&&&&&&&oo. .***++;;;;;+++.+    ",
"           ..                       ...o&&&&&ooo..  +;;;+++;;;;;;.    ",
"                                   .oo....&&oooo.     +;;;;. ..       ",
"                                     #... ..oooo.      ...            ",
"                                  OO####.   ..o#.                     ",
"                                OO#===..     .##.                     ",
"                               O#====O       .##.                     ",
"                               ====..        .##.                     ",
"                            O====#.         O#=O                      ",
"                           O==#ooo          O==.                      ",
"                           O==#.            O==.                      ",
"                          O#==.            O==O                       ",
"                          O##=O...         O==.                       ",
"                          O#O#::.         O==O                        ",
"                         O==#=#-&       OO#==Oo                       ",
"                          ==OO&       OO##===O-o                      ",
"                          =O##-.   OO#=#=====#.                       ",
"                          OO::&  &::#.O====#==o                       ",
"                           .     .:..o#=##..##O                       ",
"                                 .. &-:#..  .:-O                      ",
"                                    o:-.    .-:o                      ",
"                                    o-.      .-.                      ",
"                                    ..        .                       "
};
