/* XPM */
static char *e09c064248f34853a16eb353adadd810cHMZ2RD7gSbV5z6E_86[] = {
/* columns rows colors chars-per-pixel */
"70 76 16 1 ",
"  c None",
". c black",
"X c #5A4221",
"o c gray26",
"O c #635A42",
"+ c #B54242",
"@ c #A57B5A",
"# c #B5A57B",
"$ c #CE9C52",
"% c #EFC573",
"& c #848484",
"* c #F784A5",
"= c #EFDEAD",
"- c #D6CECE",
"; c #FFD6E6",
": c white",
/* pixels */
"                                                                      ",
"                                                                      ",
"                                o                                     ",
"                                o                                     ",
"                               o&o                                    ",
"                               o&o                                    ",
"                               o&&.         oooo.                     ",
"                               .&&.   X  ooo&&&.                      ",
"                               .&&. XX$@o&&&&&.                       ",
"                                .&o.$@$o&&&&o.                        ",
"                                .oo.$$.oo&o..                         ",
"                               X$.o.$.ooo..@@X                        ",
"                               X$...@.o..$$$@@X                       ",
"                              X$$$..X..$$$$$@@@X                      ",
"                             X$$$$$...$$$$$$@@.                       ",
"                              X@X@$$.$$$XX$@@@X                       ",
"                              X$:X$$$$XX::$@@@@X    oooooo            ",
"                               X-:.OO@:.:$@@@@@. ooo&&..    .         ",
"                              X$$@O==OO$$@@@@@Ooo&&&..     o.         ",
"                               X$O====O.@@@@@.o&&&..    ooo&.         ",
"                                O#==###.@@@@@o&&&.    oo&&&&.         ",
"                                O==#==.@@@@@..o&.   .o&&&&&.          ",
"                               O==#=..@@@X@X..o.  ..o&&&&o.           ",
"                             OO==#..OOX@XX....o. ..ooo...             ",
"                            O===#.O#==OO....  ........                ",
"       o                   O===...#=====OO..XX@X.X@XX                 ",
"      o.                   O==.   ....#===OO@$$$@@$$$X                ",
"     o&.       o.          O=.        ..#===OOOX$$$$$@X.              ",
"     o&.     oo&.          ..        ....#O====:XX$$$$@@.             ",
"    o&&.    o&&.                     ..o..##O==:.:XX$$@.              ",
"    o&&.   o&&&.                     .ooo .###.$::%$$$@@X             ",
"    .&&.  o&&&.                      .ooo.@O..@$$$$$$$@@.             ",
"    .&o.X@.o&&.         .            .oo.X@@@@@@$$$$@@@@.             ",
"    .oo.$.ooo.@X   . ........       X.ooX@@@@@@@@@@@@@@.              ",
"     .o.$.ooo.$$...........oo.   oo.$ooooX@@@@@@@@@@@@@@.             ",
"    X.oo$.oo.$$$............oo...@@$$.oo.@.X@@@@@@@@@@X..             ",
"    X$.o.oo.$$$$$X...........ooo.$$$$.oo.$@.@@X@@@@@@@.               ",
"   X$$$....$$$$$$@. .        oooo$$$$.ooo.@.X...X.@@X..               ",
"   X$$$$.o$$$$$$@@.         X..oo.$$$@@o@$.oooo..X..                  ",
"  X$$$$$$$$$$X@@@X         o$XX.oo.@$$$@$@oooo.@@@@@.                 ",
"   X$X$$$$$$X:@@@X.        .$$.o@o$$$$$$$$$@..X@@@@X                  ",
"  .X$:.$$$$X.:@@@@X        X$$$@@$$$$@$$$$$@@@$$@@X.                  ",
"  X@@::@OOX::-@@@.        X$$$$@$$$@@$$$$@$$$@@@@@@X                  ",
"   .@@$O=#O@@@@@X         X@@$$@$$$@$$$$$$$@@@@@@@@@.                 ",
"    .X@O==#O@@@X.          X$$$$$$$$$@$$$$$@@@$$@@@.                  ",
"     ..O===.@X..          X$$$@$@$$$@@$$@@@$@@@$$@@.                  ",
"       O===..             .X@@$$@$$$@@@@@@@@@@@@@@@                   ",
"       O===.               X@@$X@@$@@@@X@@@@@@X@@@@.                  ",
"       O==#.              .@@@@X@@@@@@@.@@@@@@.@@@@.+                 ",
"       O==O                .X@@...@@@@X&@@@@@@..X@.**++               ",
"       #==.                 .@@.o.@@@@.&X@@X@..oo@.****+              ",
"      O==#.                 .oo.oo.@.@.&...&&.oooX++****++            ",
"      O==O                        ooo&&&&&&&&&ooo.********;++         ",
"      O==.                         o..o&&&&&&ooo.+***++****;;++       ",
"       O=.                        .ooo....&&oooo.++****+;;;;;;*+      ",
"        O                         .oo.    ..ooo.+;*;;;*;++;;;;;.      ",
"                                    #.      .o#. .;;;++;;;;+.+        ",
"                               OO####.       .##. .;;;;++;;;;.        ",
"                             OO#===##        .##.   ...   .           ",
"                            O#====O..        .##.                     ",
"                            ====..          O#=O                      ",
"                           O==#.o.          O==.                      ",
"                          O==ooo.           O==.                      ",
"                          O==#.            O==O                       ",
"                         O#===.            O==.                       ",
"                        OO##=O...         O==O                        ",
"                         O#O##.:.       OO#==Oo                       ",
"                        OO=#=#-&.     OO##===O-o                      ",
"                         ==OO#&    OO#=#=====#.                       ",
"                         O=##-.   &-#========o                        ",
"                         O.:.:&  &::#.O====#==o                       ",
"                          ...    .:..o#=##..##O                       ",
"                                 .. &-:#..  .:-O                      ",
"                                    o:-.    .-:o                      ",
"                                    o-.      .-.                      ",
"                                    ..        .                       "
};
