/* XPM */
static char *e09c064248f34853a16eb353adadd810cHMZ2RD7gSbV5z6E_91[] = {
/* columns rows colors chars-per-pixel */
"70 76 16 1 ",
"  c None",
". c black",
"X c #5A4221",
"o c gray26",
"O c #635A42",
"+ c #B54242",
"@ c #A57B5A",
"# c #B5A57B",
"$ c #CE9C52",
"% c #EFC573",
"& c #848484",
"* c #F784A5",
"= c #EFDEAD",
"- c #D6CECE",
"; c #FFD6E6",
": c white",
/* pixels */
"                                                                      ",
"                                                                      ",
"                                                                      ",
"                               o                                      ",
"                               o                                      ",
"                              o&o                                     ",
"                              o&o                                     ",
"                              o&&.         oooo.                      ",
"                              .&&.   X  ooo&&&.                       ",
"                              .&&. XX$@o&&&&&.                        ",
"                               .&o.$@$o&&&&o.                         ",
"                               .oo.$$.oo&o..                          ",
"                              X$.o.$.ooo..@@X                         ",
"                              X$...@.o..$$$@@X                        ",
"                             X$$$..X..$$$$$@@@X      oooooo           ",
"                            X$$$$$...$$$$$$@@.    ooo&&..    .        ",
"                             X@X@$$.$$$XX$@@@X  oo&&&..     o.        ",
"                             X$:X$$$$XX::$@@@@Xo&&&..    ooo&.        ",
"                              X-:.OO@:.:$@@@@@o&&&.    oo&&&&.        ",
"                             X$$@O==OO$$@@@@@O.o&.   .o&&&&&.         ",
"                              X$O====O.@@@@@. .o.  ..o&&&&o.          ",
"                               O#==#.OO@@@@@X..o. ..ooo...            ",
"                               O==#O#==OO@@..  ........               ",
"                              O==#.#=====OO  XX@X.X@XX                ",
"                            OO==#......#===OO@$$$@@$$$X               ",
"                           O===#.    .X..#===OOOX$$$$$@X.             ",
"                          O===..    .... .#O====:XX$$$$@@.            ",
"          o               O==.      ....  .##O==:.:XX$$@.             ",
"         o.               O=.      .....   .###.$::%$$$@@X            ",
"        o&.       o.      ..       ....   .@O..@$$$$$$$@@.            ",
"        o&.     oo&.              .....   X@@@@@@$$$$@@@@.            ",
"       o&&.    o&&.               ..o.   X@@@@@@@@@@@@@@.             ",
"       o&&.   o&&&.               .ooo.   X@@@@@@@@@@@@@@.            ",
"       .&&.  o&&&.                .ooo.    .X@@@@@@@@@@X..            ",
"       .&o.X@.o&&...........       .oo.X    .@@X@@@@@@@.              ",
"       .oo.$.ooo.@X...........    X.ooo$.  X.X...X.@@X..              ",
"        .o.$.ooo.$$.........ooo  .$.ooo.@.X@.........                 ",
"       X.oo$.oo.$$$.. .. ...ooo..$$$.oo.@@@@@..oo.                    ",
"       X$.o.oo.$$$$$X.     ..oooo$$$.oo.@@@@@ooo..                    ",
"      X$$$....$$$$$$@.     .@.ooo.$$.ooo.@@..oooX X                   ",
"      X$$$$.o$$$$$$@@.     @$$.oo.$@$@o@$$@ooo..@XX.                  ",
"     X$$$$$$$$$$X@@@X     X$$$X.oo.$$$@$@$.oooX@@@@                   ",
"      X$X$$$$$$X:@@@X.   oo$$$.o@o$$$$$$$$$@..$@@@X                   ",
"     .X$:.$$$$X.:@@@@X    .$$$@$@$$$@$$$$$@@@@@@@X.                   ",
"     X@@::@OOX::-@@@.     X$$@$$$$@@$$$$@$$$@@@@@@X..                 ",
"      .@@$O=#O@@@@@X     X$$$@$$$$@$$$$$$$@@@$$@@@@.                  ",
"       .X@O==#O@@@X.     X@$$$$$$$$$@$$$$$@@@@$$@@@.****+++++         ",
"        ..O===.@X..      X$$@@$$$$$@@$$@@@$@@@@@@@@**********++++++++ ",
"          O===..        X$$$@$$@$$$@@@@@@@@@@XX@@@@*+++*********;;;;;.",
"          O===.         .XX@@$X@$$@@@@X@@@@@@@.@@@.****++******;;;;;;.",
"          O==#.           X@@@X@@$@@@@.@@@@@@@.X@@.+*********++++++.. ",
"          O==O           .@@@@.@@@@@@X&@@@@@@@oo@..****+++;;;;;;;;;.  ",
"          #==.            .X@@...@@@@.&X.@@X@.ooX...*****;++++++...   ",
"         O==#.             .oo.o.@@.@.&&&..&.oooo.     .+;;;;.        ",
"         O==O              ..  oo.oo&&&&&&&&&ooo.                     ",
"         O==.                    o ...o&&&&&oooo.                     ",
"          O=.                       .o...&&oooo.                      ",
"           O                            ....oo##.                     ",
"                                   OO####.  .o##.                     ",
"                                 oO#==...    .##.                     ",
"                               oO#===        ..##.                    ",
"                             O=O===.         ..##.                    ",
"                            O====#.         O##=O                     ",
"                            O==#oo          O===.                     ",
"                           O#==.            O===.                     ",
"                           O#=O...         O===O                      ",
"                          O=#=#.:.        O==OO                       ",
"                          O=O=#-&       OO#==OOo                      ",
"                          O=#O#       OO##===OO-o                     ",
"                          O=#O-.  OOO#=#=====##.                      ",
"                          O=::& &:::#.O====#===o                      ",
"                          O.:.& .:...o#=##..###O                      ",
"                           .    ..  &-:#..  .::-O                     ",
"                                    o:-.    .--:o                     ",
"                                    o-.      ..-.                     ",
"                                                                      "
};
