/* XPM */
static char *e09c064248f34853a16eb353adadd810cHMZ2RD7gSbV5z6E_124[] = {
/* columns rows colors chars-per-pixel */
"70 76 16 1 ",
"  c None",
". c black",
"X c #5A4221",
"o c gray26",
"O c #635A42",
"+ c #B54242",
"@ c #A57B5A",
"# c #B5A57B",
"$ c #CE9C52",
"% c #EFC573",
"& c #848484",
"* c #F784A5",
"= c #EFDEAD",
"- c #D6CECE",
"; c #FFD6E6",
": c white",
/* pixels */
"                                                                      ",
"                                                                      ",
"                           o                                          ",
"                           o                                          ",
"                          o&o                                         ",
"                          o&o                                         ",
"                          o&&.         oooo.                          ",
"                          .&&.   X  ooo&&&.                           ",
"                          .&&. XX$@o&&&&&.                            ",
"                           .&o.$@$o&&&&o.                             ",
"                           .oo.$$.oo&o..                oooooo        ",
"                          X$.o.$.ooo..@@X            ooo&&..    .     ",
"                          X$...@.o..$$$@@X         oo&&&..     o.     ",
"                         X$$$..X..$$$$$@@@X       o&&&..    ooo&.     ",
"                        X$$$$$...$$$$$$@@.       o&&&.    oo&&&&.     ",
"                         X@X@$$.$$$XX$@@@X       .o&.   .o&&&&&.      ",
"                         X$:X$$$$XX::$@@@@X      .o.  ..o&&&&o.       ",
"                          X-:.OO@:.:$@@.OO.      .o. ..ooo...         ",
"                         X$$@O==OO$$@@O#==OO      ........            ",
"                          X$O====O.@@.#=====OO  XX@X.X@XX             ",
"                           O#==###.@@@....#===OO@$$$@@$$$X            ",
"                           O==#==.@@@@@.. ..#===OOOX$$$$$@X.          ",
"                          O==#=..@@@X@X     .#O====:XX$$$$@@.         ",
"                        OO==#.. XX@XX..      .##O==:.:XX$$@.          ",
"                       O===#.    .X..         .###.$::%$$$@@X         ",
"         oo.          O===..    ....         .@O..@$$$$$$$@@.         ",
"        o&.           O==.      ....         X@@@@@@$$$$@@@@.         ",
"       o&&.     oooo. O=.       ....        X@@@@@@@@@@@@@@.          ",
"      o&&.    oo&&&.  ..        ..o.         X@@@@@@@@@@@@@@.         ",
"      .&&.   o&&&&.             .ooo.         .X@@@@@@@@@@X..         ",
"      .&o.  .o&&&.              .ooo.          .@@X@@@@@@@.           ",
"      .oo.X.oooo.                .oo.    XX     X...X.@@X..           ",
"       .o.$.ooo.@X               .ooo.X  @$.  X    .....              ",
"       .oo$.oo.$$$.  ........    .ooo.$XX$$@.X@.  ....                ",
"      X$.o.oo.$$$$.........ooo..X..oo.$$@$@@@@.......                 ",
"      $$$$.o$$$$$$$X........oooo.$.ooo.@$$$@@oooo...                  ",
"     X$$$$$$$$$X@$$@... .....oooo$$.oo@@$$$..ooooo.                   ",
"     X$X$$$$$$X:@$@@.        ..oo.$$@@@$$$.ooooo..XX                  ",
"    X$$:.$$$$X.:@@@X         XX.oo.$@$$$$$oooo...@@XX                 ",
"     X@::@OOX::-@@@X.        X.o@o$$$$$$$$$@..X@@@@@@.                ",
"    .X@@@O==O@@@@@@@X       X$$$@$$$$$@$$$$@@@@$$@@@X                 ",
"    X@@@O====O@@@@@.        X@$$@$$$@@$$$$@$$$@@@@@X.                 ",
"     .OO=====.@@@@X         X$$$$$$$@$$$$$$$@@@@@@@@X         +++*+   ",
"   OOO====....@@@X.        X$$$@$$$$$$@$$$$$@@@$$@@@@.   + +++;;;;.   ",
"  O====#..++#.@X..         .X@@$$@$$$@@$$@@@$@@@$$@@.++++****;;;;;;   ",
" O===#..  O+=..             X@@$X@$$$@@@@@@@@@@@@@@@.*********;;;;+   ",
" O==..    O+=.             .@@@@X@@$@@@@X@@@@@@X@@@@*********;;;+..   ",
" ...      O#=O              .X@@.@@@@@@@.@@@@@@.@@@.*+**+**+;+++;;.   ",
"          O=.                .@@...@@@@X&@@@@@@.X@@.***+*+**+;;;;;    ",
"          O=.                .o..o.@@@@.&X@@X@.oo@.**********;;+..    ",
"         O=.                    .oo.@.@.&...&.oooX.+******+;+++       ",
"         ..                      ..ooo&&&&&&&&ooo.+***+*++;+;;.       ",
"                                   .o..o&&&&&ooo.  ..****;;;;;.       ",
"                                    .oo..&&&oooo.    .*++.+;..        ",
"                                    .o#. ...ooo.           .          ",
"                                  OO###..  ..o#.                      ",
"                                OO#==##..    .#.                      ",
"                               O#===O..      .##.                     ",
"                              O===..         .##.                     ",
"                             O==#.           .##.                     ",
"                            OO=oo           O#=O                      ",
"                          OO#==#::o         O==.                      ",
"                          =#===#o-..        O==.                      ",
"                         OO##==.. .        O==O                       ",
"                         ==O=#O            O==.                       ",
"                        O==O=:...         O==O                        ",
"                        OO#O#&-..       OO#==Oo                       ",
"                        .O:#-&&.      OO##===O-o                      ",
"                         ..:.      OO#=#=====#.                       ",
"                                  &-#========o                        ",
"                                 &::#.O====#==o                       ",
"                                 .:..o#=##..##O                       ",
"                                 .. &-:#..  .:-O                      ",
"                                    o:-.    .-:o                      ",
"                                    o-.      .-.                      ",
"                                    ..        .                       "
};
