/* XPM */
static char *e09c064248f34853a16eb353adadd810cHMZ2RD7gSbV5z6E_139[] = {
/* columns rows colors chars-per-pixel */
"70 76 16 1 ",
"  c None",
". c black",
"X c #5A4221",
"o c gray26",
"O c #635A42",
"+ c #B54242",
"@ c #A57B5A",
"# c #B5A57B",
"$ c #CE9C52",
"% c #EFC573",
"& c #848484",
"* c #F784A5",
"= c #EFDEAD",
"- c #D6CECE",
"; c #FFD6E6",
": c white",
/* pixels */
"                                                                      ",
"                                                                      ",
"                                o                                     ",
"                                o                                     ",
"                               o&o                                    ",
"                               o&o                                    ",
"                               o&&.         oooo.                     ",
"                               .&&.   X  ooo&&&.                      ",
"                               .&&. XX$@o&&&&&.                       ",
"                                .&o.$@$o&&&&o.                        ",
"                                .oo.$$.oo&o..                         ",
"                               X$.o.$.ooo..@@X                        ",
"                               X$...@.o..$$$@@X    o                  ",
"                              X$$$..X..$$$$$@@@X   o                  ",
"                             X$$$$$...$$$$$$@@.   oo    .             ",
"                              X@X@$$.$$$XX$@@@X  o&o   o.             ",
"                              X$:X$$$$XX::$@@@@Xo&&o   o.             ",
"                               X-:.OO@:.:$@@@@@o&&.   o&.             ",
"                              X$$@O==OO$$@@@@@o&&&.   o&.             ",
"                               X$O====O.@@@@@o&&&.   o&&.             ",
"                                O#==###.@@@@@o&&.   o&&.              ",
"                                O==#==.@@@@@.o&.   .&&&.              ",
"                               O==#=..@@@X@X.oo. ..o&&.               ",
"                             OO==#.. XX@XX...o. ..ooo.                ",
"                            O===#.    .X.... ........X                ",
"           o               O===..      .....X@X.X@$$$$X               ",
"          o.               O==.       .....X$$$@@$$$$$@X.             ",
"         o&.       o.      O=.       OOOO.X$$$$X$$$$$$$@@.            ",
"         o&.     oo&.      ..      OO====OOOO$$:XX$$$$$@.             ",
"        o&&.    o&&.              O==========OO:.:XX$$$@@X            ",
"        o&&.   o&&&.             O=##....##====$::%$$$$@@.            ",
"        .&&.  o&&&.              .....ooo.OOO==O@$$$$@@@@.            ",
"        .&o.X@.o&&.     .            .oo.  .+OO.@@@@@@@@.             ",
"        .oo.$.ooo.@X ........       X.oo..X.+##.@@@@@@@@@.            ",
"         .o.$.ooo.$$.......oo.   oo.$oooo.O++=.@@@@@@@@X..            ",
"        X.oo$.oo.$$$........oo...@@$$.oo.@O+==.@@@@@@@@.              ",
"        X$.o.oo.$$$$$X.......ooo.$$$$.oo.$O+=...@@.@@X.               ",
"       X$$$....$$$$$$@.      oooo$$$$.ooo.O==.ooXX ..                 ",
"       X$$$$.o$$$$$$@@.     X..oo.$$$@@o@O==.oo.@XXX                  ",
"      X$$$$$$$$$$X@@@X     o$XX.oo.@$$$@$O..oo.@@@@@.                 ",
"       X$X$$$$$$X:@@@X.    .$$.o@o$$$$$$$$$@..X@@@@X                  ",
"      .X$:.$$$$X.:@@@@X    X$$$@@$$$$@$$$$$@@@$$@@X.                  ",
"      X@@::@OOX::-@@@.    X$$$$@$$$@@$$$$@$$$@@@@@@X                  ",
"       .@@$O=#O@@@@@X     X@@$$@$$$@$$$$$$$@@@@@@@@@.                 ",
"        .X@O==#O@@@X.      X$$$$$$$$$@$$$$$@@@$$@@@.                  ",
"         ..O===.@X..      X$$$@$@$$$@@$$@@@$@@@$$@@.                  ",
"           O===..         .X@@$$@$$$@@@@@@@@@@@@@@@                   ",
"           O===.           X@@$X@@$@@@@X@@@@@@X@@@@.                  ",
"           O==#.          .@@@@X@@@@@@@.@@@@@@.@@@@.+                 ",
"           O==O            .X@@...@@@@X&@@@@@@..X@.**++               ",
"           #==.             .@@.o.@@@@.&X@@X@..oo@.****+              ",
"          O==#.             .oo.oo.@.@.&...&&.oooX++****++            ",
"          O==O                    ooo&&&&&&&&&ooo.********;++         ",
"          O==.                     o..o&&&&&&ooo.+***++****;;++       ",
"           O=.                    .ooo....&&oooo.++****+;;;;;;*+      ",
"            O                     .oo.    ..ooo.+;*;;;*;++;;;;;.      ",
"                                    #.      .o#. .;;;++;;;;+.+        ",
"                               OO####.       .##. .;;;;++;;;;.        ",
"                             OO#===##        .##.   ...   .           ",
"                            O#====O..        .##.                     ",
"                            ====..          O#=O                      ",
"                           O==#.o.          O==.                      ",
"                          O==ooo.           O==.                      ",
"                          O==#.            O==O                       ",
"                         O#===.            O==.                       ",
"                        OO##=O...         O==O                        ",
"                         O#O##.:.       OO#==Oo                       ",
"                        OO=#=#-&.     OO##===O-o                      ",
"                         ==OO#&    OO#=#=====#.                       ",
"                         O=##-.   &-#========o                        ",
"                         O.:.:&  &::#.O====#==o                       ",
"                          ...    .:..o#=##..##O                       ",
"                                 .. &-:#..  .:-O                      ",
"                                    o:-.    .-:o                      ",
"                                    o-.      .-.                      ",
"                                    ..        .                       "
};
