/* XPM */
static char *e09c064248f34853a16eb353adadd810cHMZ2RD7gSbV5z6E_143[] = {
/* columns rows colors chars-per-pixel */
"70 76 16 1 ",
"  c None",
". c black",
"X c #5A4221",
"o c gray26",
"O c #635A42",
"+ c #B54242",
"@ c #A57B5A",
"# c #B5A57B",
"$ c #CE9C52",
"% c #EFC573",
"& c #848484",
"* c #F784A5",
"= c #EFDEAD",
"- c #D6CECE",
"; c #FFD6E6",
": c white",
/* pixels */
"                                                                      ",
"                                                                      ",
"                                                                      ",
"                               o                                      ",
"                               o                                      ",
"                              o&o                                     ",
"                              o&o                                     ",
"                              o&&.         oooo.                      ",
"                              .&&.   X  ooo&&&.                       ",
"                              .&&. XX$@o&&&&&.                        ",
"                               .&o.$@$o&&&&o.       o                 ",
"                               .oo.$$.oo&o..        o                 ",
"                              X$.o.$.ooo..@@X      oo    .            ",
"                              X$...@.o..$$$@@X    o&o   o.            ",
"                             X$$$..X..$$$$$@@@X  o&&o   o.            ",
"                            X$$$$$...$$$$$$@@.  o&&.   o&.            ",
"                             X@X@$$.$$$XX$@@@X o&&&.   o&.            ",
"                             X$:X$$$$XX::$@@@@o&&&.   o&&.            ",
"                              X-:.OO@:.:$@@@@@o&&.   o&&.             ",
"                             X$$@O==OO$$@@@@@.o&.   .&&&.             ",
"                              X$O====O.@@@@@..oo. ..o&&.              ",
"                               O#==###.@@@@@X.o. ..ooo.               ",
"                               O==#==.@@@@@.. ........X               ",
"          o                   O==#=..@@@X@X  X@X.X@$$$$X              ",
"         o.                 OO==#.. XX@XX.. X$$$@@$$$$$@X.            ",
"        o&.       o.       O===#.    .OOOO X$$$$X$$$$$$$@@.           ",
"        o&.     oo&.      O===..    OO====OOOO$$:XX$$$$$@.            ",
"       o&&.    o&&.       O==.     O==========OO:.:XX$$$@@X           ",
"       o&&.   o&&&.       O=.     O=##....##====$::%$$$$@@.           ",
"       .&&.  o&&&.        ..      .....   .OOO==O@$$$$@@@@.           ",
"       .&o.X@.o&&.                .....     .+OO.@@@@@@@@.            ",
"       .oo.$.ooo.@X               ..o.     X.+##.@@@@@@@@@.           ",
"        .o.$.ooo.$$.              .ooo.    O++=.@@@@@@@@X..           ",
"       X.oo$.oo.$$$..             .ooo.    O+==.@@@@@@@@.             ",
"       X$.o.oo.$$$$$X.......       .oo.X   O+=...@@.@@X.              ",
"      X$$$....$$$$$$@.........    X.ooo$.  O==. .XX ..                ",
"      X$$$$.o$$$$$$@@.......ooo  .$.ooo.@.O==......                   ",
"     X$$$$$$$$$$X@@@X .. ...ooo..$$$.oo.@@O....oo.                    ",
"      X$X$$$$$$X:@@@X.     ..oooo$$$.oo.@@@@@ooo..                    ",
"     .X$:.$$$$X.:@@@@X     .@.ooo.$$.ooo.@@..oooX X                   ",
"     X@@::@OOX::-@@@.      @$$.oo.$@$@o@$$@ooo..@XX.                  ",
"      .@@$O=#O@@@@@X      X$$$X.oo.$$$@$@$.oooX@@@@                   ",
"       .X@O==#O@@@X.     oo$$$.o@o$$$$$$$$$@..$@@@X                   ",
"        ..O===.@X..       .$$$@$@$$$@$$$$$@@@@@@@X.                   ",
"          O===..          X$$@$$$$@@$$$$@$$$@@@@@@X..                 ",
"          O===.          X$$$@$$$$@$$$$$$$@@@$$@@@@.                  ",
"          O==#.          X@$$$$$$$$$@$$$$$@@@@$$@@@.****+++++         ",
"          O==O           X$$@@$$$$$@@$$@@@$@@@@@@@@**********++++++++ ",
"          #==.          X$$$@$$@$$$@@@@@@@@@@XX@@@@*+++*********;;;;;.",
"         O==#.          .XX@@$X@$$@@@@X@@@@@@@.@@@.****++******;;;;;;.",
"         O==O             X@@@X@@$@@@@.@@@@@@@.X@@.+*********++++++.. ",
"         O==.            .@@@@.@@@@@@X&@@@@@@@oo@..****+++;;;;;;;;;.  ",
"          O=.             .X@@...@@@@.&X.@@X@.ooX...*****;++++++...   ",
"           O               .oo.o.@@.@.&&&..&.oooo.     .+;;;;.        ",
"                           ..  oo.oo&&&&&&&&&ooo.                     ",
"                                 o ...o&&&&&oooo.                     ",
"                                    .o...&&oooo.                      ",
"                                        ....oo##.                     ",
"                                   OO####.  .o##.                     ",
"                                 oO#==...    .##.                     ",
"                               oO#===        ..##.                    ",
"                             O=O===.         ..##.                    ",
"                            O====#.         O##=O                     ",
"                            O==#oo          O===.                     ",
"                           O#==.            O===.                     ",
"                           O#=O...         O===O                      ",
"                          O=#=#.:.        O==OO                       ",
"                          O=O=#-&       OO#==OOo                      ",
"                          O=#O#       OO##===OO-o                     ",
"                          O=#O-.  OOO#=#=====##.                      ",
"                          O=::& &:::#.O====#===o                      ",
"                          O.:.& .:...o#=##..###O                      ",
"                           .    ..  &-:#..  .::-O                     ",
"                                    o:-.    .--:o                     ",
"                                    o-.      ..-.                     ",
"                                                                      "
};
