/* XPM */
static char *e09c064248f34853a16eb353adadd810cHMZ2RD7gSbV5z6E_102[] = {
/* columns rows colors chars-per-pixel */
"70 76 16 1 ",
"  c None",
". c black",
"X c #5A4221",
"o c gray26",
"O c #635A42",
"+ c #B54242",
"@ c #A57B5A",
"# c #B5A57B",
"$ c #CE9C52",
"% c #EFC573",
"& c #848484",
"* c #F784A5",
"= c #EFDEAD",
"- c #D6CECE",
"; c #FFD6E6",
": c white",
/* pixels */
"                                                                      ",
"                          oo                                          ",
"                           oo              .                          ",
"                           o&o            o.                          ",
"                           o&&o         oo&.                          ",
"                           o&&&.   X  oo&&.                           ",
"                            .&&. XX$@o&&&&.                           ",
"                            .&&o.$@$o&&&&.                            ",
"                             .oo.$$.oo&o.                oooooo       ",
"                            X.oo.$.ooo..@@X           ooo&&..    .    ",
"                            X$...@.o..$$$@@X        oo&&&..     o.    ",
"                           X$$$..X..$$$$$@@@X      o&&&..    ooo&.    ",
"                          X$$$$$...$$$$$$@@.      o&&&.    oo&&&&.    ",
"                           X@X@$$.$$$XX$@@@X      .o&.   .o&&&&&.     ",
"                           X$:X$$$$XX::$@@@@X     .o.  ..o&&&&o.      ",
"                            X-:.OO@:.:$@.OO@.     .o. ..ooo...        ",
"                        OOOX$$@O==OO$$@O#==OO      ........           ",
"                      OO===========O.@.#=====OO  XX@X.X@XX            ",
"                     O=========#.OO#.@@....#===OO@$$$@@$$$X           ",
"                     O=#O.......++##.@@@@....#===OOOX$$$$$@X.         ",
"                     ...        .+#.@@X@X    .#O====:XX$$$$@@.        ",
"                                .+=..XX..     .##O==:.:XX$$@.         ",
"                                .+=....        .###.$::%$$$@@X        ",
"          o                     .=...         .@O..@$$$$$$$@@.        ",
"         o.                    .#=..          X@@@@@@$$$$@@@@.        ",
"        o&.       o.           .=...         X@@@@@@@@@@@@@@.         ",
"        o&.     oo&.           .....          X@@@@@@@@@@@@@@.        ",
"       o&&.    o&&.             ..o.           .X@@@@@@@@@@X..        ",
"       o&&.   o&&&.             .ooo.           .@@X@@@@@@@.          ",
"       .&&.  o&&&.              .ooo.            X...X.@@X..          ",
"       .&o.X@.o&&.               .oo. X  XX         .....             ",
"       .oo.$.ooo.@X              .ooo.$XX@$.  X    ....               ",
"        .o.$.ooo.$$.   .....    X.ooo.$$@$$@.X@.  .....               ",
"       X.oo$.oo.$$$.......ooo...@$.oo.$$$$@@@@........                ",
"       X$.o.oo.$$$$$X......oooo.$$.ooo.@$$$..oooo....                 ",
"      X$$$....$$$$$$@.......oooo.$$.oo@$$$.ooooooo..                  ",
"      X$$$$.o$$$$$$@@..     ..ooo.$$@@$$$$oooooo...                   ",
"     X$$$$$$$$$$X@@@X        X.oo@$$$$$$$$@oo...@@XX                  ",
"      X$X$$$$$$X:@@@X.      X$.o@$$$$$@$$$@..X$@@@@@.                 ",
"     .X$:.$$$$X.:@@@@X      X@$$@$$$@@$$$$$$@@$$@@@X                  ",
"     X@@::@OOX::-@@@.       X$$$$$$$@$$$$$@$$@@@@@X.                  ",
"      .@@$O=#O@@@@@X       X$$$@$$$$$$@$$$$@@@@@@@@X                  ",
"       .X@O==#O@@@X.       .X@@$$@$$$@@$@$$@@@$$@@@@.                 ",
"        ..O===.@X..         X@@$X@$$$@@@@@@$@@@$$@@.                  ",
"          O===..           .@@@@X@@$@@@X@@@@@@@@@@@.                  ",
"          O===.             .X@@.@@@@@@.@@@@@@X@@@@+++                ",
"          O==#.              .@@..@@@@X&@@@@@@.@@@.***++++            ",
"          O==O               .o.o.@@@@.&X@@@@@.X@@.*******+++++++     ",
"          #==.                 .oo.@.@.&.@@X@.oo@.+*********;;;;*+    ",
"         O==#.                  .oooo&&&&..&.oooX.*++********;;;;.    ",
"         O==O                    ..o..o&&&&&&ooo.****++*****;;;;;.    ",
"         O==.                      .oo..&&&&ooo.*+*****+++;;;;;;+     ",
"          O=.                       .oo..&&oooo.+*+*******+++++..     ",
"           O                        .o#. ..ooo...**++*****;;;;;;.     ",
"                                  OO###.   .ooo. .***+++;;;;;;;.      ",
"                                OO#==##.   ..o#.  .****;+++++..       ",
"                               O#===O..      .#.   .+;;;;;;.          ",
"                              O===..        ..##.    .+;;;.           ",
"                         OOOOO==#.          ..##.      ...            ",
"                       OO=##===oo           ..##.                     ",
"                      O==##===#o           O#=O                       ",
"                     O==#O===#::o          O==.                       ",
"                     .O#O=#O..o-o          O==.                       ",
"                     .:#O#:.   ..         O==O                        ",
"                      .:-&-:.             O==.                        ",
"                       &. &..            O==O                         ",
"                                        O#==Oo                        ",
"                                      OO#===O-o                       ",
"                                   OO#=#====#.                        ",
"                                  &-#=======o                         ",
"                                 &::#.O===#==o                        ",
"                                 .:..o#=#..##O                        ",
"                                 .. &-:#.  .:-O                       ",
"                                    o:-.   .-:o                       ",
"                                    o-.     .-.                       ",
"                                    ..       .                        "
};
