/* XPM */
static char *a62b79907bfb4a86c89e3dade72c28f1eHQmfP8OvNShujKd_65[] = {
/* columns rows colors chars-per-pixel */
"61 47 13 1 ",
"  c None",
". c #101010",
"X c #736B4A",
"o c #EF5A31",
"O c #8C4242",
"+ c #E6737B",
"@ c #ADA573",
"# c #FF845A",
"$ c #FFADAD",
"% c #E6DEBD",
"& c #FFD6D6",
"* c #FFE6E6",
"= c white",
/* pixels */
"                              $$$$++++                       ",
"                            $$*****&&&++                     ",
"                          $$********&&&&++                   ",
"                         +**********&&&&&&O                  ",
"                        +&**********&&&&&&$.                 ",
"                       +&&**********&&&&&$$$.                ",
"                      +&&&&********&&&&&&$$$$.               ",
"                    O+&&&&&=&&&&&=&&&&&&&&$$$$$.             ",
"                   O+&&&&&&.&&&&&.&&&&&&&&$$$$$$.            ",
"                  O&$&&&&&&.&&&&&.&&&&&&&&&$$$$O&OO OOOOOO   ",
"                  O &&&&&&&&&&&&&&&&&&&&&&&&$$$&&&&O&##oooO  ",
"                 O&$&&&&&&&&.....&&&&&&&&&&&$$$+&+&&$##oooO  ",
"               OO+&&&&&&&&&&$OooO&&&&&&&&&&&&+$$&&&OO...O..  ",
"              OO+&$&&&&&&&&&&$OO$&&&&&&&&&&&&&O$&&&&&$##.ooO ",
"             O$O&+&&&&&&&&&&&&&&&&&&&&&&&&&$&&&OOO&&$###ooooO",
"            O#O$&O&&&$&&&&&&&&$$&&&&&&&&&&&&$&&&&&..O.#ooooo ",
"           OoOO#O$$&+&&&&&&&&&&&&&&&&&&&&&&&&+&+&&&$###..OOO ",
"           OOoo.###O&&&&&&&&&&&&&&&&&++OO&&&&&$$O$$####ooo.  ",
"          Ooo..###.&&&&&&&&&&&&&&&&&&+**&OO&&&$$$.#####ooo.  ",
"          Oo.oooo.&&&&&&&&&&&&XXX&&&&+**&&&&&&$$$$.$..oo..   ",
"           .oooo..&&&&&$$&&&XX%%@XX&&&**&&O+&&$$$$$$$...     ",
"            .oo.&&&&&&&&&&&X====%%@X&&+&&&&&&&$$$$$$$.       ",
"             ..+&&&&&&&*+&X======%%@X&+&&&&&&$$$$$$$$.       ",
"               +&&&&+O&**+X======%%%X&&$$&&&&$$$$$$$$.       ",
"               +$&&&&&&**+========%%@X&&&&&&&$$$$$$$$.       ",
"               +$&&&&OO**+========%%&X&&&&&&$$$$$$$$$.       ",
"                O$&&&&&O&O========%%%.&&&&&&$$$$$$$$$.       ",
"                O$$&&&&&O#OO======%OO#.&&&&$$$$$$$$$.        ",
"                O$$&&&&&O$$#OOOOOOO###.&&&&$$$$$$$$$.        ",
"                 O$$&&&&O$$$$$$$$$####.&&&$$$$$$$$$$.O       ",
"                 O$$$$&&O#$$$$$$$$###o.&$$$$$$$$$$$.$$O      ",
"                  O$$$$$$O$$$$$$$####.$$$$$$$$$$$$$.$.       ",
"                  O$$$$$$O#$$$$#####o.$$$$$$$$$$$$.$.        ",
"               ... O$$$$$$Oo#######o.$$$$$$$$$$$$.$.         ",
"               .OOO.O$$$$$$OOo###o..$$$$$$$$$$$$.OO          ",
"               .OOOOOO$$$$$$$O....$$$$$$$$$$$$$.O            ",
"               ..OOOOO.$$$$$$$$$$$$$$$$$$$$$$$.              ",
"                 .OOOOO..$$$$$$$$$$$$$$$$$$$..               ",
"                  . ...O...$$$$$$$$$$$$$$$..                 ",
"                           ....$$$$$$.......                 ",
"                               ......  .OOOO..               ",
"                                       .OOOOo.               ",
"                                       .OOOoo.               ",
"                                       ..Ooo$o.              ",
"                                         Ooooo.              ",
"                                         ....o.              ",
"                                            .                "
};
