/* XPM */
static char *_12e2e77955d4a97868bfd6f4135965c5EJBHMT08QLpY1Zj_31[] = {
/* columns rows colors chars-per-pixel */
"81 74 12 1 ",
"  c None",
". c #101010",
"X c #523A7B",
"o c #9C1000",
"O c #C54219",
"+ c #F7734A",
"@ c #EFE652",
"# c #7B63AD",
"$ c #A584C5",
"% c #C5A5EF",
"& c #C5C5C5",
"* c white",
/* pixels */
"                                                                                 ",
"                                                                                 ",
"                                                                                 ",
"                                                                                 ",
"                                                                                 ",
"                                                                                 ",
"                                              #######                            ",
"                                           ###%%%%%%$###                         ",
"                                         ##%%%%%%%$##$$$$                        ",
"                                        X%%%%%%%%.**X$$$###X                     ",
"                                      X%%%%%%%%$..**X$$$$$#X                     ",
"                                     X%#%%#%%%%$$$$$#$$$$$$#XX                   ",
"                                     X%$X.......$$$$X$$$$$$$X$XX                 ",
"                                     X#XXXX.&.oo...X$$$$$$$$$$$$XX               ",
"                                      .&....*.ooooo.$$X$$$$$$$$$$$XXX            ",
"                                       .   ...ooO++.$$####$$$#####$$$XX          ",
"                                          #$$$.O+++X$$X##############$$X         ",
"                                        ##$$$$.++++X$X.################$X        ",
"                                       #$$$.$.O+.+X$$X######X..#########$X       ",
"                                     XX$$$.*.OO.*OX$X#####...#####...X###$X      ",
"                                    X$$$$$.*&OO&*X$X####....####......####.      ",
"                                    X$$$$$.#X...X$$...X...X###....OOO.#####X     ",
"                                   X$$$..#$.%%%%$$.......###....OOOOO.#####.     ",
"                                   X$.....$$..XXXXo.oo..###...OO+@@@O.######X    ",
"                                  X$$..OOO..XXX##......###..OO+@@@@@O.######.    ",
"                                  .$$..O@@OOO..###....###..OO@@@@@++OX######.    ",
"             XX                   .$$..O@@OOO..###....###..OO@@@@@++OX######.    ",
"           XX$$XX                 .$$..oO@@@OOO.X##.####..OO@@@@@@OO.#$######.   ",
"          X$$$$$$X                .$$...O@@@@@OO.#######..O@@@@@@+OO.$$$#####.   ",
"           XX$X$$$XX              .$$XX.o@@@@@@O.X#####..OO@+O@@@O...$$$#####.   ",
"             XXXX$XX$X            .$$##..O@@++@+..#####..OOOO@@+OO..$$$$$####.   ",
"                XX$$$X            .$$$$X..O@@OOO..$$$$$X..OOOOOO..$$$$$$$####.   ",
"                 X$$$$X           X#$$$$X..oOOOO.X$$$$$$...OOO...$$$.$$$$####.   ",
"                 X$$$$X            X$$$$$X.......$$X$$$$#.......$$...$$$####.    ",
"                 XX$$$$.           .$$$$.$$#X...$$....$$$$X...$$#...X$$$####.    ",
"                  X$$$$.           .#$$$X.#$$$$$$......#$$$$$$#.....$$$$####.    ",
"                  XXXX$.            X$$$$...#$$#.........#$$#.....XX$$$####.     ",
"                  X%$$X.            .XX$$$........................$$$$$####.     ",
"                  X%$$$$.            ..$$$$......................$$$$$####.      ",
"                  X$%$$$.              .$$$$....................$$$$$$####X      ",
"                  X%$$$$X               .#$$$.................X$$$$$$####.       ",
"                 X$%$$$X                ..#$$$X..............#$$$$$$####.        ",
"                 XXXX$$..               ..#$$$X..............#$$$$$$####.        ",
"                 X$%%$$X                 XX#$$$$..........#$$$$$$######.         ",
"                 X$%%$$X                  .###$$$#.....#$$$$$$$$#####.X          ",
"                 X%%%$$.                   .###$$$#.##$$$$$$$$$#####.            ",
"                 X%%$$$.                    .##$$$$$$$$$$$$$$####...             ",
"                X$%%%$$$.                    .#$$$$$$$$$$$$####..                ",
"                 X$%XXX$.                   XX.$$$$$$$$$$$####.X..               ",
"                 .$XX$$X.                 XX$$.$$$$$$$$$$$###.####...            ",
"                 .X%%$$$X                X$$$$.$$$$$$$$$$###.#####...            ",
"                 .$%%%%$$$X           XXX#X#$.$$$$$$$$$$$###.###XX###..          ",
"                  .$%%%$$$XX       XXX$$$$X$X.$XXXXX##$$$##.###X#######.         ",
"                  .$%%%XXX$XXXXXXXXX$$$$$$$XX.X$$$$$#XX####.##X#########.        ",
"                  .$$%%X$$$$$X$$$$$$$$$$$$$$.X$$$$$$$$$XX#.##XX##########.       ",
"                  XX$%X%%%$$$X$$$$$$$$$$$$$$.$$$$$$$$$$##.###X#####XXXXXX#.      ",
"                    X$X%%%%%$X$$$$$$$$$$$$##.$$$$$$$$$$##.###X###XX######X.      ",
"                    .$X$%$%%X$$$$$$$$$$$####X$$$$$$$$$###.###X##X#########X.     ",
"                    .X$$$$$XX$$$$$$########.$$$$$$$$$$###.###.#.###########.     ",
"                     X#$$$$$X$$$##########.$$$$$$$$$$$###X.....XXXX########.     ",
"                       .#$$#X#############.$$$$$$$$$$$###X#.#X#####X.######.     ",
"                        .X##X##########..X.$$$$$$$$$$$##X####X#####X.######.     ",
"                         X.XXXX#####..X   .X$$$$$$$$$$#X######X######.#####.     ",
"                           .XXXX.....     .$X#$$$$$$XX$#######X######X####.      ",
"                                           X$$$$$$$$$$$########X######.###.      ",
"                                           .$$$$$$$$$$#########X######.##.       ",
"                                            .$$$$$$$$##########X######.#.        ",
"                                            .$$$$$$############X#####.#.         ",
"                                             .$###############X######..          ",
"                                              ..##############.###X..            ",
"                                                ...##########.#X...              ",
"                                                ...##########.#X...              ",
"                                                   .............                 ",
"                                                                                 "
};
