/* XPM */
static char *_d469782b7144e3bf26137ea44100a29hXYrP5WjZWoZRWr8_3[] = {
/* columns rows colors chars-per-pixel */
"50 46 14 1 ",
"  c None",
". c black",
"X c gray16",
"o c #633108",
"O c #42424A",
"+ c #C52119",
"@ c #9C5200",
"# c #E65A42",
"$ c #DE9400",
"% c #F7BD21",
"& c #F7E652",
"* c #737384",
"= c #FFF7A5",
"- c white",
/* pixels */
"                                                  ",
"      .                                           ",
"     .X.                                          ",
"     .XXX.                                        ",
"      .XX.                                        ",
"     .XXXo                 XXXXX.                 ",
"     .XXXo                XOOOOO..                ",
"     .XO%%o             XXX&OOOO.                 ",
"      .O%%%o           @@%&&OOO.                  ",
"      .%%%%o  @@@@@   @&&&&*OOO                   ",
"      .%%%%@@$===&&$@@&&&&&OO..                   ",
"       o%%$$======&&&&&&&&&..                     ",
"       o%$&======&&&&&&&&&&                       ",
"        @&&&&&&&&%..%&&$$@.              @@       ",
"       o$.%&&&&&&O-.X&&&.               @&&@      ",
"       o.-%&&&&&&..OX&&&.              @&&&&@     ",
"       oO.&&o$&&&%..%&&&@           $$&&&&&@      ",
"       @X@&&&&&&&&&&&##&$o        $$&&&&&&&&@     ",
"      o&&&&&o@$&&&&&###+%.       @&&&&&&&&&&@     ",
"      o#%&$o@++@@$&%++++%.      @&&&&&&&&&&&@     ",
"      o+%%%%@+++@%%%++++%.     @&&&&&&&&&&&&&@    ",
"      o+%%%%%@##@%%%%++%%.     @%&&&&&&&&&&&&@    ",
"       @%%%%%@##@%%%%%%%%.    @%%%%&&&&&&&&&&@    ",
"        .%%%%%@@%%%%%%%%%o   @%%%%%%%&&&&&&&.     ",
"        .%%%%%%%%%%%%%%%%&.  @%%%%%%%&&&&&..      ",
"        .&%%%%%%@%%%%%%%&&.   o%%%%%%%%&..        ",
"        .&&&%@@$&%%%%%%&&&.    o%%%%.%..          ",
"        .&&@$&&&&@%%%%%&&&.    o%%@               ",
"        &&&&&&&&&$@&%%&&&&o     o%%o              ",
"       ...&&&&&&&@&&$%&&&&&.   .$%%o              ",
"       .&&$&&$@@@&&&&&&&&%&.  .$%%%%o             ",
"       .&&&....&&&&$$&&&%$%. o$$$%$oo             ",
"       .&&&&&&&&&&&&$&&&&@%..$$$$oo .             ",
"       .&&&&&&&&&&&@@&&&&%%%..$$.                 ",
"      .&&&&&&&&&&&&&@&&&&%%%. .@@.                ",
"      @&&&&&&&&&&&&@@$&$@%%%.  .@@.               ",
"     .%&&&&&&&&&&&&&.$&&@%%%o..@@@.               ",
"     .%%&&&&&&&&&&&&&%&@&%%%%.o@..                ",
"     .%%%%%&&&&&&&%%%&%&%%%%%...                  ",
"      @%%%%%%%%%%%%%%%%%%%%%o                     ",
"      .%%%%%%%%%%%%%%%%%%%%$.                     ",
"       ..%%%$$....o%%%%%%%$.                      ",
"      oo$@@@@.     .o@@$$@.                       ",
"     o&@&$o..         o%%%@.                      ",
"      ...o            ..&@&.                      ",
"                        ...                       "
};
