/* XPM */
static char *_d469782b7144e3bf26137ea44100a29hXYrP5WjZWoZRWr8_37[] = {
/* columns rows colors chars-per-pixel */
"50 46 14 1 ",
"  c None",
". c black",
"X c gray16",
"o c #633108",
"O c #42424A",
"+ c #C52119",
"@ c #9C5200",
"# c #E65A42",
"$ c #DE9400",
"% c #F7BD21",
"& c #F7E652",
"* c #737384",
"= c #FFF7A5",
"- c white",
/* pixels */
"        .                                         ",
"       .X.                                        ",
"       .X.                                        ",
"       .XX.                                       ",
"      .XXX.                                       ",
"      .XXXo                                       ",
"      .XO%o                 XXXX                  ",
"      .O%%%o             XXXOOOOX.                ",
"      .%%%%o           @@%&&OOOOO.                ",
"      .%%%%o  @@@@@  @@&&&&&OOOO.                 ",
"       o%%%@@$===&&$@&&&&&&*OOO.                  ",
"       o%%$$======&&&&&&&&&OO..                   ",
"        o$&======&&&&&&&&&...          @@         ",
"        @&&&&&&&&%..%&&$@.            @&&@        ",
"       o$.%&&&&&&O-.X&&&.            @&&&&@       ",
"       o.-%&&&&&&..OX&&&.           $&&&&&@       ",
"       oO.&&o$&&&%..%&&&@          $&&&&&&&@      ",
"       @X@&&&&&&&&&&&##&$o       $$&&&&&&&&@      ",
"      o&&&&&o@$&&&&&###+%.      @&&&&&&&&&&@      ",
"      o#%&$o@%%@@$&%++++%.     @&&&&&&&&&&&&@     ",
"      o+%%%%%%%%%%%%++++%.    @&&&&&&&&&&&&&@     ",
"      o+%@@%%%%%%%%%%++%%.    @%&&&&&&&&&&&&@     ",
"       @@&$@%%%%%%%%%%%%%.   @%%%%&&&&&&&&&.      ",
"       @&&&&@%%%%%%%%%%%%o  @%%%%%%%&&&&&..       ",
"      .@&&&$%%%%%%%%%%%%%&. @%%%%%%%%%&..         ",
"      .$&&&@%%%%%%%%%%%%%%%  o%%%%%%%..           ",
"      .&&&&@%%%%%%%%%%%&&&%$  o%%%%..             ",
"      .&&&$&&&%%%%%%%&&&&&&&$  o%%@               ",
"       $&&@&&&&&&&&&&&&&&&&&$   o%%o              ",
"       .&&&&&&&&&&&&&&&%&&&&&@ .$%%o              ",
"       .&&&&&&&&&&&&&&&$%&&&&@.$%%%%o             ",
"       .&&&&&&&&&&&&&&&&@&&&&&@$$%$o.             ",
"       .&&&&&&&&&&&&&&&&&@&&&$.$$oo               ",
"       .&&&&&&&&&&&&&&&&&%@$&.$$.                 ",
"      .&&&&&&&&&&&&&&&&&&%%@@ .@@.                ",
"      @&&&&&&&&&&&&&&&&&%%%%.  .@@.               ",
"     .%&&&&&&&&&&&&&&&%&%%%%o..@@@.               ",
"     .%%&&&&&&&&&&&&&%&%&%%%%.o@..                ",
"     .%%%%%&&&&&&&%%%&%&%%%%%...                  ",
"      @%%%%%%%%%%%%%%%%%%%%%o                     ",
"      .%%%%%%%%%%%%%%%%%%%%$.                     ",
"       ..%%%$$....o%%%%%%%$.                      ",
"      oo$@@@@.     .o@@$$@.                       ",
"     o&@&$o..         o%%%@.                      ",
"      ...o            ..&@&.                      ",
"                        ...                       "
};
