/* XPM */
static char *_5f3b021cfcd49dcaad0acdd106b68bbzWiWYAsTMhy8hZ6H_49[] = {
/* columns rows colors chars-per-pixel */
"79 65 13 1 ",
"  c None",
". c #101010",
"X c #4A294A",
"o c #6B637B",
"O c #FF5A5A",
"+ c #5A4A9C",
"@ c #7B63A5",
"# c #9473B5",
"$ c #B58CBD",
"% c #BDADBD",
"& c #FF9494",
"* c #DED6DE",
"= c #FFF7FF",
/* pixels */
"                                                                               ",
"                                                                               ",
"                                                                               ",
"                                                                               ",
"                                                                               ",
"                                                                               ",
"                                                                               ",
"                                                                               ",
"                                                                               ",
"                                                                               ",
"                                                                               ",
"                                                                               ",
"                                                                               ",
"                                                                               ",
"                          +                                         +          ",
"                         X#+                      +X              ++$          ",
"                        X##++++     +X          +#X            +++$$#.         ",
"                         X##$$      +$X +X     +##X         ++$$$$#@@.         ",
"                          ###$++++  X$$X+$X  ++###X      +++$$$$$#@+.          ",
"                          X###$$$$  X$$#+$#X+#####X  +X +$$$$$$###+.           ",
"                          ####$$$$++X#$#X##+######X#+#X+$$$$$$$##@+.           ",
"                          X###$$$$$X###############+##X$$$#$$$###++.           ",
"                           X##$#$$$X###$#############+##$#$$###++.             ",
"                            X##$#$X$$$$$$$$#$############$####@++.             ",
"                       .   X#####.$$$$$$$$#$#$###############@+++.             ",
"                      X$.X. X####.$$$$$$$$$#$################++++.             ",
"                      X$$$$X ###.#$$$$$$$$$################@++++.         X    ",
"                      X$$$$XXX#..##$$$$$$$$################++++.      . .#X    ",
"                      X##$$$##.#####$$$###################@+++..X.  ....##X    ",
"                     X###$$$#X.#X########################@++++.X#...$$$$###    ",
"                    X#######$+X##X##################+####@++++#####$#$$$X##XXX ",
"                    XXX######+##+OX##########$$###XX#####+++++###$#$$$X$X####. ",
"                      X####@++##+OOX########$$$##XOO+####+++++####$#$$$$X##.   ",
"                       X@#@+X##+O&&&+#######$$##XOOO+####+++++###$####$$$$..   ",
"                        X+++.###+&&.X######$$$..&&OO+####@++++@#######$$#.     ",
"                         +++.###+O&.OX#####+XO.&&&O+######++++###########.     ",
"                         X++.####+O&&+######+&&&&&O+###+#@++++@#####@+@.       ",
"                         XX+.#+####O+########+O&&O+####X##+++++++#@+++.        ",
"                           X.#X################OO+###XX###++++++++++..         ",
"                           .###XX###################X%.###++++++++..           ",
"                            X##+%XX###############XX%=.###++++++.+.            ",
"                            .##+%=oX############XX%===.##+++++++++@.           ",
"                            .#++%=oXXXXXXXXXXXXXo====%.##+++++++++.            ",
"                             ##+=o===o====o==%==o====..#@+++++++++.            ",
"                             X#+=o===o====o====o====.###++++++++++X            ",
"                             ###+o===o====o====o===.####++++++++++X  X         ",
"                             X###+===%*===%*===%*==.###@++++++++++XXX+.        ",
"                             .####X===o====o====o=.###++++++++++++X+++.        ",
"                              .@###===o====o====o.###@+++++++++++X+++..        ",
"                              .+@##XX=o====o===XX####++++++++++++X+++.         ",
"                              X+++###XXXXXXX=XX#####@+++++++++++X++++          ",
"                              ++++##########X#####@@++++++++++++X++..          ",
"                             XX#+X++@###########@++++++++++++X++X..            ",
"                              ##@+++++++###@+#@++++++++@######.X.              ",
"                            X#X##+XX+++++++++++++++++@#########.               ",
"                           ..#+##@++..++++++++++++++@#####$$$$##.              ",
"                            .#X###++++.++++++++++++X######$$$$##.              ",
"                             .X####@++X.+++++++++++X#######$$$##.              ",
"                              ..###+.+X .....++...++X#######$###.              ",
"                               . ..+.        ..      X##########.              ",
"                                                      X########.               ",
"                                                       X######+.               ",
"                                                       X####+##+               ",
"                                                        X..##X..               ",
"                                                                               "
};
