/* XPM */
static char *_5f3b021cfcd49dcaad0acdd106b68bbzWiWYAsTMhy8hZ6H_66[] = {
/* columns rows colors chars-per-pixel */
"79 65 13 1 ",
"  c None",
". c #101010",
"X c #4A294A",
"o c #6B637B",
"O c #FF5A5A",
"+ c #5A4A9C",
"@ c #7B63A5",
"# c #9473B5",
"$ c #B58CBD",
"% c #BDADBD",
"& c #FF9494",
"* c #DED6DE",
"= c #FFF7FF",
/* pixels */
"                                                                               ",
"                                                                               ",
"                                                                               ",
"                                                                               ",
"                                                                               ",
"                                                                               ",
"                                                                               ",
"                                                                               ",
"                                           +                                   ",
"                                           +..                                 ",
"                                          ++#.                                 ",
"                                        ++$$@.                                 ",
"                                        $$$#+.                                 ",
"                                       +$$#@+.                                 ",
"                             +X       ++$$##+.                                 ",
"                            +##X     +$$$##@+.                                 ",
"                            +##X  +X $$$$##++                                  ",
"                           +###X +#X+$$$$#@@+.                                 ",
"                     +X    ####X ##X$$$$$##++.                                 ",
"                 +X  +$X  +####X+##+$$#$##@++.                                 ",
"                 +$X +$#X+##########$#$##@+++                                  ",
"                 X$$X+##+###########$$###++++.     #X                          ",
"      ++  ++  ++ +X$$#+##################@+++.    .#X XX                       ",
"      X##+$$++$$++X#$####################@+++X  ..######.                      ",
"      X####$$$$$$$X######################+++.X   $$####.                       ",
"       X####$$$$$$X######$##############@@+++. ..$$XX##.                       ",
"         X###$$#$X#$$$$$##$##############++++X.$$$X$$X#.                       ",
"         XX####$###$$$$#$$##############@++X..$$#$$$$$$                        ",
"           X####+$$$$$$$###############@+++X##$#$$$$$#.                        ",
"            X##X$$$$$$$$################+++X##$$#$#$###                        ",
"             X.$$$$$$$$$###########+####+++####$#####@.                        ",
"    .         ..$$$$$$$$#########XX#####++++#########.                         ",
" . X$XXX XX X .#$$$$$$##########XOO+####@+++#######@@.                         ",
"X$.$$$$$##@X+X.##$$$########$$##OOO+#####+++@#####@++                          ",
" X$$$$$$##++++#############$$$#X&OO+###+#@++++####++.                          ",
"  X##$##$@@++.#X###########$$#.&&&OO+##X###+++@#+++..                          ",
"  X#######+++.##X###########$$..&&&O+#X####+++++++++.                          ",
"  X######@++++X#+OX#+#######+XO.&&O+#X.####++++++X.+.                          ",
" X######@@++++##+OOX+X#######+&&OO+##X%.###+++++++++X                          ",
"  XX X#@++++++##+O&&.OX#######+O####X%=.###+++++++++X                          ",
"      XX++++++###+&&.&+############X===.###++++++++++X                         ",
"       XXXXX+X###+O&&+###########XX%==%.###@+++++++++X                         ",
"          X X.#+##+OO#########XXXo====.####++++++++++X                         ",
"             ..X##############%==o====.####++++++++++X                         ",
"              .#XX#X#####XXXXX====o===.###@+++++++++X                          ",
"              .#+%XooXXXX====o====o===.###++++++++++XX                         ",
"              .##+%=o===o====o====%*=.###@@+++###++++X                         ",
"              .##+%=o===o====o=====o=#####++######X+XX                         ",
"               X##+=o===o*===%*====o.####@+########.X+XX                       ",
"                .#++o===%o====o===XX####@+######$$##.+++                       ",
"                 X##+====o=====o=XX####@++#####$$$$#.+++X                      ",
"                 .####X===o====XX######++@#####$$$$##.++XXX                    ",
"                X+X####XXXXXXXX#######@+X######$$$###.+++++                    ",
"                X+.##################@++X############.+++++.                   ",
"                X+++.@@###########@++++++X#####.+..##.+++.                     ",
"                X+++.+++@#########++++++++X###.+.++.#..+.                      ",
"                 X##@++++++@+++++++++++++++X#.++++++.. .                       ",
"                 X####@+X+++++++++++++++..+ X.++++++.                          ",
"                  X#####@XX+.+++++++++++     X+++++.                           ",
"                 X#+#+###+.   ...+......      .....                            ",
"                 .X#X##...       .                                             ",
"                  .....                                                        ",
"                                                                               ",
"                                                                               ",
"                                                                               "
};
