/* XPM */
static char *_5f3b021cfcd49dcaad0acdd106b68bbzWiWYAsTMhy8hZ6H_68[] = {
/* columns rows colors chars-per-pixel */
"79 65 13 1 ",
"  c None",
". c #101010",
"X c #4A294A",
"o c #6B637B",
"O c #FF5A5A",
"+ c #5A4A9C",
"@ c #7B63A5",
"# c #9473B5",
"$ c #B58CBD",
"% c #BDADBD",
"& c #FF9494",
"* c #DED6DE",
"= c #FFF7FF",
/* pixels */
"                                                                               ",
"                                                                               ",
"                                                                               ",
"                                                                               ",
"                                                                               ",
"                                                                               ",
"                                                                               ",
"                                                                               ",
"                                                                               ",
"                                              +                                ",
"                                            ++$.                               ",
"                                           +$$#.                               ",
"                                          +$$#@.                               ",
"                                         +$$#@++                               ",
"                             +X         ++$$##+.                               ",
"                             +#X       +$$$##@+.                               ",
"                            +##X  +X   $$$$##++.                               ",
"                           +###X  #X ++$$$$#@+.                                ",
"                     +X    ####X +#X+$$$$$##+++.                               ",
"                 +X  +$X  +####X+##+$$$$#$##@++.                               ",
"       +++++  ++ +$X +$#X+###########$$#$###+++.                               ",
"      X###$$++$$+X$$XX##+#############$$###@++.                                ",
"      X####$$$$$$XX$$#+####################+++.                                ",
"        XX###$$$$$X#$#####################@++++.        X                      ",
"         X###$$#$$X########################+++.X       .#X                     ",
"          X####$#$X######$################@+++.      ..##X                     ",
"           X#####X#$$$$$$#$###############++++     ..$$###XXX                  ",
"            X#####$$$$$##$###############@+++++X...$$$$X####.                  ",
"             X##+$$$$$$$################@+++++X###$#$$X$X##.                   ",
"              XX$$$$$$$$$###############++++++###$#$$$$$X##.                   ",
"               .$$$$$$$$$##########+####++++++####$#$$$$$$.                    ",
"               .$$$$$$$$#########XX#####++++++###$####$$#.                     ",
"              .#$$$$$$##########XOO+####@+++++###########.                     ",
"   .X X XX X X.##$$#########$$##OOO+###+#+++++@########@.                      ",
". X$$$$##@X+X.#############$$$#X&OO+###X##@++++######@+.                       ",
"X$$$$$$##++++.#X############$$#.&&&O+##X###++++@###@++.                        ",
"X$$$$$$#$@+++X##XX##########$$..&&&O+#X.###++++++++++.                         ",
" XX######+++++##+OXX+#######+XO.&&O+##%.###++++++++..                          ",
"  X######+++++##+OO&.X#######+&&OO+##X=.###++++++X.+X                          ",
" X######@+++++##+O&&.OX#######+O###XX%.####++++++++++X                         ",
" X#X####+++++X#+#+&&&&+##########XX%==.#####+++++++++X                         ",
"  X  XX@+++++.#X#+OOO+########XXXo====#####@+++++++++X                         ",
"       XX+XX+.##XX+###########%==o===.#####++++++++++X                         ",
"          X X..#+%XX###XXXXXXX====%*==#####++++++++++X                         ",
"              .##+=ooXX=o====o=====o=.####@+++++++++X                          ",
"              .###+=o===o====o=====o.#####++++++++++X                          ",
"              .####+o===%*===%*===XX#####@+++++++++++X                         ",
"               X####+====o====o=XX########++++###+++++                         ",
"               .#####X=X=o====oX#########@++######X+X+X                        ",
"               .######X#XXXXXXX#########@++########.X++X                       ",
"                 X######################++######$$##.+++XX                     ",
"                 .#####################@++#####$$$$#.+++++X                    ",
"                X+X###################@++@#####$$$$##.+++++.                   ",
"                X+.#################@+++X######$$$###.+++..                    ",
"                X++.@@############@+++++X############.++..                     ",
"                X++.+++@@##@######+++++++X#####.+..##...                       ",
"                 X##@+++++++++++++++++++++X###.+.++.#.                         ",
"                 X####@+X++++++++++++++++.+X#.++++++.                          ",
"                  X#####@XX+.++++++++++..   X.++++++.                          ",
"                 X#+#+###+.. ...++.....      X+++++.                           ",
"                 .X#X##...      ..            .....                            ",
"                  .....                                                        ",
"                                                                               ",
"                                                                               ",
"                                                                               "
};
