/* XPM */
static char *_5f3b021cfcd49dcaad0acdd106b68bbzWiWYAsTMhy8hZ6H_69[] = {
/* columns rows colors chars-per-pixel */
"79 65 13 1 ",
"  c None",
". c #101010",
"X c #4A294A",
"o c #6B637B",
"O c #FF5A5A",
"+ c #5A4A9C",
"@ c #7B63A5",
"# c #9473B5",
"$ c #B58CBD",
"% c #BDADBD",
"& c #FF9494",
"* c #DED6DE",
"= c #FFF7FF",
/* pixels */
"                                                                               ",
"                                                                               ",
"                                                                               ",
"                                                                               ",
"                                                                               ",
"                                                                               ",
"                                                                               ",
"                                                                               ",
"                                               +                               ",
"                                             ++$.                              ",
"                                             +$#.                              ",
"                                           ++$#@.                              ",
"                                          +$$$@+.                              ",
"                               +X        ++$$$#+.                              ",
"                              +#X       +$$$$#@+.                              ",
"                             +##X   X   $$$$##++.                              ",
"                            +###X  +X ++$$$$##+.                               ",
"                      +X    ####X +#X+$$$$$##@+.                               ",
"       ++         +X  +$X  +####X+##+$$$#$###++.                               ",
"       ##+++  ++  +$XX+$#X+##########$$$$####@++.                              ",
"      X###$$$+$$$+X$$#X##+#############$$###@++.                               ",
"       XX###$$$$$$$X$$#+####################+++.     X                         ",
"         X###$$$$$$X#######################@+++.     #X                        ",
"         X###$$#$$#X#######################++++X    .#X                        ",
"          X####$#X#X#####$################@+++.    ..###XX.                    ",
"           X#######$$$$$$#$###############++++.  ..$$#####                     ",
"            X###+$$$$$$$$#$###############@++++X $$$$XX##.                     ",
"             X##X$$$$$$$$################++++X...#$$X$X##.                     ",
"              XX$$$$$$$$$###############++++X###$$$$$$$$..                     ",
"     ..        .$$$$$$$$###########+####++++###$#$#$$$$#.                      ",
"   ..X$XXX     .$$$$$$$$#########XX#####+++++########$##.                      ",
"  X$$$$$X#XX X.#$$$$$$##########XOO+####@++++###$#####@.                       ",
"  X$$$$$$##@XX.#############$$##OOO+######+++#########.                        ",
"   X##$$$$#++.##############$$$#&&OO+#####@++@######@+                         ",
"   X#######@+.##XX##########$$#.&&&O+###+##+++#####@++.                        ",
"   X######@+++X##OX#########$$..&&&O+###X##++++@##+++.                         ",
"  X#X####@++++##+OOX+#######+XO.&&O+###X###++++++++..                          ",
"   X X###+++++##+O&&.X#######+&&OO+###X.###+++++++.+.                          ",
"      X@++++++##++&&.OX#######+O#####X%.###++++++X++X                          ",
"        XX+++X###+O&&&+############XX%=.###++++++++++X                         ",
"         XXX+.#+##+OO+###########XX%===.###@+++++++++X                         ",
"            X.#X##############XXXo====%.###++++++++++X                         ",
"             ..#XX#X##########%==o====.####++++++++++X                         ",
"              .#+%XoXXXXXXXXXX====o====.##@++++++++++X                         ",
"              .##+%=o===o====o====o===.###++++++++++X                          ",
"              .##+%=o===o====o====%*==.##@++++++++++X                          ",
"               X##+=o===o====o=====o=.###++++++++++++X                         ",
"               .##++o===%*===%*====o.####@++++###+++XXX                        ",
"               .####+====o====o===XX#####+++######X+X++X                       ",
"                 X###X===o====o=XX######@++########.++++X                      ",
"                 .X###XX=o====oX#######@++######$$##.+++XXX                    ",
"                 X.#####XXXXXXX#######@+++#####$$$$#.+++++.                    ",
"                X++.@###############@++++@#####$$$$##.++++.                    ",
"                X++.+@############++++++X######$$$###.+++.                     ",
"                X++++++@##@######@++++++X############....                      ",
"                X++++++++++++++++++++++++X#####.+..##.                         ",
"                 X##@+++X+X++++++++++++++.X###.+.++.#.                         ",
"                 X####@++X+..++++++++++... X#.++++++.                          ",
"                  X#####@+.  ...++.....     X.++++++.                          ",
"                 X#+#+###+.     ..           X+++++.                           ",
"                 .X#X##...                    .....                            ",
"                  .....                                                        ",
"                                                                               ",
"                                                                               ",
"                                                                               "
};
