/* XPM */
static char *_[] = {
/* columns rows colors chars-per-pixel */
"65 65 74 1 ",
"  c None",
". c black",
"X c gray6",
"o c #111111",
"O c #282008",
"+ c #382810",
"@ c #202020",
"# c gray18",
"$ c #343434",
"% c gray22",
"& c #403018",
"* c #483818",
"= c #503818",
"- c #584020",
"; c #5D4C35",
": c #684820",
"> c #704828",
", c #6E5537",
"< c #000040",
"1 c #000048",
"2 c #000060",
"3 c #1E1E67",
"4 c #000078",
"5 c #414141",
"6 c #484848",
"7 c #505050",
"8 c #645D52",
"9 c #6B665E",
"0 c #606060",
"q c #6D6D6D",
"w c #797065",
"e c #63747D",
"r c #6B777E",
"t c gray45",
"y c #805028",
"u c #885830",
"i c #905830",
"p c #986038",
"a c #A06038",
"s c #8B654A",
"d c #856B56",
"f c #836E5D",
"g c #8C705D",
"h c #A86840",
"j c #B07040",
"k c #B87848",
"l c #AB7A55",
"z c #BC7951",
"x c #947562",
"c c #947A66",
"v c #927E6F",
"b c #C87848",
"n c #9B8276",
"m c #B08465",
"M c #A68371",
"N c #B08C79",
"B c #D08050",
"V c #D88850",
"C c #E88858",
"Z c #F09058",
"A c #F89860",
"S c #F8A070",
"D c #000088",
"F c #0000A0",
"G c #0000F8",
"H c gray58",
"J c #989898",
"K c gray66",
"L c gray69",
"P c #F8B080",
"I c #F8B890",
"U c #F8B898",
"Y c #C0C0C0",
"T c #D0D0D0",
/* pixels */
"                                                                 ",
"                                                                 ",
"                                                                 ",
"                                                                 ",
"                                                                 ",
"                                                                 ",
"                                                                 ",
"                                                                 ",
"                                                                 ",
"                                                                 ",
"                                                                 ",
"                                                                 ",
"                                                                 ",
"                                                                 ",
"                                                                 ",
"                                                                 ",
"                                                                 ",
"                                                                 ",
"                              H  q                               ",
"                             K0t76#q                             ",
"                              tt76%#                             ",
"                              tt776##                            ",
"                            YTYK t77%t                           ",
"                           6.aGayGy.@0                           ",
"                          t@>SUBjUS>@t                           ",
"                           $*VAZZAV*@                            ",
"                            *kVbaVk*e                            ",
"                           o.pAPSA*..                            ",
"                          0.77*uj*77..w                          ",
"                         h0%LJ....J .ih                          ",
"                        VCj0=.6*O*..jVVV                         ",
"                       zCBB%0iCCpVVVVBbbk                        ",
"                       VCkjj%%iBpBiiy>aial                       ",
"                      mCkhybi@%i=BiBB>>:iy                       ",
"                      BCk:*iii@%%i>pp**+yy;                      ",
"                      bBi:&=ii=.@%i>*+O+>>y                      ",
"                     nChi:OO>yy-..@%+O++&-:                      ",
"                     Mkp--OO&---+=...OO*-aaw                     ",
"                     vCCiy+@... 00....@*aaaf                     ",
"                     vBbay*@...006....OOaIVd                     ",
"                      BIB:***:::=:-**&&OIVVg                     ",
"                      IVuh-->uhh=yhhhu=&VVV                      ",
"                      NSVh>-->iuyakkkau 9mc                      ",
"                       xhuu::>>:yakZZau                          ",
"                         ppp>>>=y>uuy:-                          ",
"                         =-:::==+yBZZky                          ",
"                         iiipppyhBZZAZB                          ",
"                         sjjjaayhBZZSCB                          ",
"                         fBjjaauhBZASAk                          ",
"                          BjjaauibSSSSS                          ",
"                          BjjaaubZVZZVZ                          ",
"                          BVBaaubZaphhk                          ",
"                          Baaau=u=jhyy:                          ",
"                          i:auu=O*O=yy=                          ",
"                          ,::::**&O&&&&                          ",
"                          8O&***O@.OOO@                          ",
"                           .2@...D2<..#                          ",
"                           .2@...14<..r                          ",
"                           XD<........                           ",
"                           %D2........                           ",
"                            D2....D<..q                          ",
"                            .D....D<.X                           ",
"                           7DFF1.e.X5                            ",
"                           3DD211.                               ",
"                           2@@@...                               "
};
