/* XPM */
static char *_9b895b7ccde44cd9810329572cc8bb6PbIIwTxp22dvxavu_107[] = {
/* columns rows colors chars-per-pixel */
"68 59 16 1 ",
"  c None",
". c #101010",
"X c #3A3131",
"o c #524A4A",
"O c #EF1900",
"+ c #5A8463",
"@ c #FF8C4A",
"# c #2984AD",
"$ c #52CEF7",
"% c gray55",
"& c #8CB5A5",
"* c gray71",
"= c #B5D6BD",
"- c gray84",
"; c #D6F7DE",
": c white",
/* pixels */
"                                                                    ",
"                                                                    ",
"                              o.                                    ",
"                             oOO                   XX               ",
"                             oOOo.               X-:X               ",
"                            o@@OOX..             X%*%%              ",
"                            oO@@OXXX..            Xo%-%             ",
"                             XX@oXXXXX.    +++    .oo**%            ",
"                           ..  X%%XXXXX  ++=;;+++.%%oo%.            ",
"                         o##..  %%%XXXXX+=&++;;&&&..X..             ",
"                        oo###X....%%X++=&-:::&;;==&&                ",
"                        o$$##XX.  .XX+=&-::::-+;;=&&                ",
"                        o#$$oXXX..XX+=;+::::::-&;;&&+               ",
"                         XX$%oXXXX%**=;+::.::::+;;&&&+              ",
"                           oo%%XX%-.:*;+:::::::+;;=&&+              ",
"                             ooXXo.o.%;&-::::::+;;;&&&+             ",
"                              X%X*.*o;;;&-::::-&;;;&&&+             ",
"                               .%...&;;;&+++&&;;;;;&&&XXoo          ",
"                                   .&=;;;;;;;;;;;=.Xoo%%%oo         ",
"                            &&&     .&;;;;;;%;;;;&.XXXXoo%oo        ",
"                          &&===++++ .&=;;;;%-**;=.XXXXXXXX%%oo      ",
"                         &:;;;;=&&&++.&&===o-.:*&.XXXXXXXXo%%@oo    ",
"                  X   &:::::;;;;%**&&.&&&&&X.o.%&.XXXoo..XXXX@@@o   ",
"                o %oX &;::::;;%-.:*&&.&&&&&&*.*o=.XXooX  .XXOOO@o   ",
"                oo%oX&=;:::;;;o.o.%&&+..&&&&..==.XXXX%%oo .XOOOX    ",
"                o%%XX&;;;:;;;;X*.*o&&&+ ....&==...XXo%%%oo.XOOX     ",
"               oo%oXX&;;;&+++&;...&&&&+     ..&&&&.XXXo%%$  ..      ",
"               oo#XXX+;;&-:::-;;;=&&&&&.   &&&=;;;=XXXXXX$oo        ",
"              oo$#XXX+;&-:::::+;;;&&&&&.  &==;;;;:;..XXX##$$o       ",
"              o$##Xo+;+:::::::-&;;=&&&&. &=%;;;;:::;=..X###$o       ",
"               $#X.%+=+::.:::o+;;;&&&&.  &%-**;::::;;=&.X##X        ",
"               o$o %%++::::oo%oXX;&&&&.&;o.o:*;:::;;;;&&&.#X        ",
"                $  %o+&-::o%%%%%oX&&&&.&;X*..%=;:;;;;=&&+.          ",
"                . oOXX++oo%%oXXXXX.&&&.&;;..*o==&+;;;;&&&           ",
"                 o@@XXo.$$#XXXXXXXX&&. +;;;..==&-:++&;&&&+          ",
"                 o@OOXo$$##XXXXXXXX.&. +;;;===&-::::-+&&&+.ooo      ",
"                X@@X..o$###X.XXXoXX..  +;;;;;=+::::::-&&&.o%%%oo    ",
"                 X@o. o$$#...Xo%XX.   +=;;;;;;+:::::::+&..XXo%%%    ",
"                 X@   X$$.  XX%%XX.    +=;;;;+::::::::+&.XXXXo#$oo  ",
"                  X.   .. oX%%%XXX.    +...;;+-:::.::+&.X..XX##$#oo ",
"                         o@@O%oXX.    Xo%oX.;;+-::::-+&.XXo.X##$$o  ",
"                        X@@OOXXXX.   X%oXXXX..;+++:-+&&.Xooo.X#$$o  ",
"                        X@@OOXXX.   X%oXXXXXXX.&&&++&&+.Xo%. ..$$X  ",
"                        X@@O.XX.   XX%XXXXXXXX.&&&&&&+ .XX%%o  $$.  ",
"                        X@@. .    X%oXXX.ooXXXX...&+..  XXo%%oX..   ",
"                         ..      X@OXXX. .%XXX.  ..o*ooX.XXo%%%     ",
"                                 X@OXX.  X%XXX.   .%o**XXXXoO@@X    ",
"                                X@OOOO. o%%XXX.    .*%.X.XXXOO@OX   ",
"                                X@@OO.  o%oXX.     X*.%o .XXOO@@X   ",
"                                oX@OO. o$#XXX.      X.o   ..XO@@X   ",
"                                  X@.  o$#XX.               ..@@.   ",
"                                     X$#####.                 .@.   ",
"                                     X$$##.                    .    ",
"                                     oX$$..                         ",
"                                       XX                           ",
"                                                                    ",
"                                                                    ",
"                                                                    ",
"                                                                    "
};
