/* XPM */
static char *_9b895b7ccde44cd9810329572cc8bb6PbIIwTxp22dvxavu_85[] = {
/* columns rows colors chars-per-pixel */
"68 59 16 1 ",
"  c None",
". c #101010",
"X c #3A3131",
"o c #524A4A",
"O c #EF1900",
"+ c #5A8463",
"@ c #FF8C4A",
"# c #2984AD",
"$ c #52CEF7",
"% c gray55",
"& c #8CB5A5",
"* c gray71",
"= c #B5D6BD",
"- c gray84",
"; c #D6F7DE",
": c white",
/* pixels */
"                            XX                                      ",
"                            X-:X%%                                  ",
"                            X%*%-*%                                 ",
"                             Xo%*%.                                 ",
"                             .ooo.                                  ",
"           o.               .%%X.                                   ",
"          oOO         ++++++&..                                     ",
"          oOOo. .     ==;;;&;=&&+                                   ",
"          @OOOOXX.   +&+++&;;;=&&++                                 ",
"         oO@@oXXXX. +=-:::-+&;;&&&+                                 ",
"          OX@%XXXXX+=&:::::-+;;&&&&+                                ",
"        ..X XX%X%X+=&-::::::+;;=&&&+                                ",
"       o##   .%%%X+;+::.::::+;;;;&&&.   oo                          ",
"     oo###.....%%+=;++::::::-&;;;&&&Xoo %%oooo@o                    ",
"     o$$###XXX  .**=;+::::::&;;;;&&X%%%ooo%%@@@o                    ",
"      o#$$#XXX..%.:*;&--:::-;;;;=&ooXoo%XXXXOOX                     ",
"      XXX$oXXXX%-o.%;;&&+++&;;;;&.XXXXXXXXXOOOX                     ",
"        ooo%XXXo..*o;;;;;;;;;*;=.XXXXXXX...XOO..                    ",
"          %o%%XX*..&;;;;;;;%*::*&&.XXoo.    .                       ",
"          o X.XX.X..&=;;;;;%-o.%&&XXXoX oooo  o                     ",
"              %%*   .&=&===o..*o=.XXXo%%o%%$ooo                     ",
"                 ++ .&&&&&&X*..==..XXXo%%%X$$$X                     ",
"            &&&++&&++.&&&&&&.&==...XXXXXoXX###X                     ",
"            ====&&*&&+...&&&&..&&&..XXXXXXXX###                     ",
"          &&;;;;%*:*&&++ .... &&=;;:;;......X##                     ",
"         &:;;;;%--o.%&&&+    &=;;;;::;;=&&&+ ..                     ",
"         &::::;;o..*o&&&&.   =;;;;::::;;&&&+                        ",
"      XX&::::;;;X*..&&&&&.  &=**;::::;;;=&&&+    o                  ",
"     o%%&;::;;;;;.;=&&&&&. &=%.:*;::;;;;;&&&+oo%%o%ooo              ",
"    oo%&=;;:+++&;;;;&&&&&. &%-o.%=;:++++&+&&&.oo%%%$#o              ",
"   o%%%&;;;&:::-+;;;=&&&&..&;o*.*o==-:::--&&.o%Xo#$$$$o             ",
"   %%oX&;;&-:::::-+;;;&&&&.&;X...==&:::::-+&.XXXXX##$$X             ",
" oo##XXX+;&-::::::XX;;&&&&.&;;;===&-::::::+.XXXo.X##$$.             ",
" o$$#XX.+;+::.::::o%oX.&&. +;;;;;=+:::::::+&.X.oo.X.$.              ",
" $$##XXo+;+::::::ooXXX.&&. +;;;;;;+::::.::+&.XXX%. . X              ",
"o$$##..%+=+::::oo%%XXXX..  +;;;;;;++-:::::+&&.Xo%%%ooXXXX           ",
"o$$#X o%%++-:::%%%XXXXXXX.  +==;;;;++-:::-&&+.XoXo%%o%@OX           ",
"oo$$o o%o+&+-++o%oXXXXoXX.   +.....;;+++++&+  .XXXo%%@@@@X          ",
"   .. oOXXX+&ooo#XXXXo%XX.   ..XXXX.&&&&&&..  .XXXXoOOO@@.          ",
"     o@OXXX.+.$$#XX.X%%XX.   .oXXXX..&&&&+o*oX ...XXXOOO@@.         ",
"    o@OOXX.  $$###X %%%XX. Xo%XXXXXX......%oo**X   .XX..@@          ",
"   o@@OO..   $$##.. X%oXX X%oXXXXXXXXX.    .*%.X    ..   .          ",
"   X@@OX    o o$$. X%XXXX. %oXXX.ooXXX.    X*.%o                    ",
"   X@@o.     o X$$ @@OXXX. X%XX. .%XX.      X.o                     ",
"    X@@         ..o@OOOOX  %oXX  X%XXX.                             ",
"      X.          @@@OO.. X%XXX  o%XX.                              ",
"                  X@@@.   X%XX.. o%XX.                              ",
"                   X@@    X@OOO. o$#X.                              ",
"                   X  ..   X@OO. o$###.                             ",
"                          X@OOO. X$##.                              ",
"                          X@@@.  X$$#                               ",
"                           oXXX  oX$$                               ",
"                                   XX                               ",
"                                                                    ",
"                                                                    ",
"                                                                    ",
"                                                                    ",
"                                                                    ",
"                                                                    "
};
