/* XPM */
static char *_9b895b7ccde44cd9810329572cc8bb6PbIIwTxp22dvxavu_122[] = {
/* columns rows colors chars-per-pixel */
"68 59 16 1 ",
"  c None",
". c #101010",
"X c #3A3131",
"o c #524A4A",
"O c #EF1900",
"+ c #5A8463",
"@ c #FF8C4A",
"# c #2984AD",
"$ c #52CEF7",
"% c gray55",
"& c #8CB5A5",
"* c gray71",
"= c #B5D6BD",
"- c gray84",
"; c #D6F7DE",
": c white",
/* pixels */
"                                                                    ",
"                                                                    ",
"                                                                    ",
"                                                                    ",
"                                                                    ",
"                                       XX                           ",
"                                      X-:X%                         ",
"                                      X%*%-%                        ",
"                    o.                 Xo%**%                       ",
"                   oOOo                .ooo%.                       ",
"                   oOOO...      ++++++.%%X..                        ",
"                  o@@OOXXX..  ++=;;;&&&..                           ",
"                  oO@@oXXXXX.+=&+++&;;=&&+                          ",
"                   XX@%XXXXX+=&-:::-+;;=&&+                         ",
"                 ..  XX%X%X+=&-:::::-&;;&&&+                        ",
"               o##..  .%%%X+;+:::::::+;;&&&+                        ",
"              oo###X....%X+=;+::.::::+;;=&&&+                       ",
"              o$$##XXX  .**=;+:::::::+;;;&&&+                       ",
"              o#$$oXXX..%.:*;&-:::::-&;;;&&&.                       ",
"               XX$%oXXX%-o.%;;&-:::-&;;;;&&&XXooooo                 ",
"                 oo%%XXo.o*o;;;&+++&;;;;=&.oo%%%%%%oo               ",
"                   oo%XX*..&;;;;;;;;;;;;&.XXXXooXo%%@oo             ",
"                     X%X...&=;;;;;;%**;=&.XXXXXXXXXX@@@o            ",
"                      %%** .&=;;;;%-.:*&&XXXXXXXXXXOOO@o            ",
"                           .&&&===o.o.%&.XXXoo....XOOOX             ",
"                   &&&++++++.&&&&&X*.*o=.XXooX     .XOOX            ",
"                 &&====&&&&&+.&&&&&...===.XXX%%oooo  ..             ",
"                &:;;;;;%**&&&+..&&&&&==...XXXo%%%%$oo               ",
"               &:::;;;%-.:*&&&+ ......&&&&.XXXXo%X$$$o              ",
"          oXXX&:::::;;o.o.%&&&+     &&=;;;=.XXXXX###$o              ",
"         oo%%X&;:::;;;X*.*o&&&&.   &=;;;;:;;..XXX###X               ",
"         o%%o&=;;:;;;;;...&&&&&.  &=;;;;:::;;=..XX##X               ",
"        o%oXX&;;;&+++&;;;=&&&&&. &=%**;:::::;;&&.+..                ",
"      oo%%XXX&;;&-:::-+;;;&&&&&. &%-.:*;:::;;;=&&+                  ",
"      $$$#XXX+;&-:::::-&;;=&&&&.&;o.o.%=;:;;;;;&&&+                 ",
"      $$##XX.+;+:::::::+;;;&&&&.&;X*.*o==&+++&;&&&+ oo              ",
"     o$$##..o+;+::.::::XX;;&&&&.&;;...==&-:::-+&&&++.%%%oo          ",
"     o$$#X o%+=+::::::o%%oX&&&. +;;;===&-::::::-&&&.oXo%%%oo        ",
"     oo$$o.o%%++-:::oo%XXXX.&&. +;;;;;;=+:::::::+&&.XXXo#$$#o       ",
"      o..  %%o+&+-:o%%%XXXXX...  +;;;;;;+:::::::+&.XX.XX##$$o       ",
"         ooOXXX+&oo%%oXXXXXXX.   +=;;;;;+::::.::+&.X.o.X##$$o       ",
"        o@@OOXX...$$#XXXXXoXX.    +=;;;;+-:::::-+&.XXoo.X#$$X       ",
"        oo@@OOXX $$##XXXXo%XX.    +....;;+-:::-+&&.Xo%. ..$$.       ",
"         X@@OX..o$$###X.X%%XXX.    %oXX..;+++++&&+.Xo%%%o  ..       ",
"         X@@o.  oo$$#.. %%%XX.   XoXXXXXX.&&&&&&+  .XXo%%oX         ",
"         X@@      X$$.  X%oXX.  X%oXXXXXX.&&&&+..  .XXXo%%%XXX      ",
"           X.      .. oX%XXXX  X%oXXXXXXXX.....o*oX .XXXoO@@OX      ",
"                     o@@OXXX.  X%XXX.ooXXX.   .%o**X.XXXXOO@@X      ",
"                    X@@OOOX.  X%oXX. .%XXX.    .*%.X ..XXOO@@X      ",
"                    X@@OO..   X%XXX  X%XXX.    X*.%o   ..XO@@.      ",
"                     X@@O     @OXX.  o%oXX.     X.o      ..@@.      ",
"                     X@@.    XX@OOO. o%XXX.                 ..      ",
"                       ..     @OOO. o$#XX.                          ",
"                             X@@OO. o$###.                          ",
"                             XX@@.  $###.                           ",
"                             oXXX  X$$##.                           ",
"                                   XX$$.                            ",
"                                   o XX                             ",
"                                                                    "
};
