/* XPM */
static char *_9b895b7ccde44cd9810329572cc8bb6PbIIwTxp22dvxavu_39[] = {
/* columns rows colors chars-per-pixel */
"68 59 16 1 ",
"  c None",
". c #101010",
"X c #3A3131",
"o c #524A4A",
"O c #EF1900",
"+ c #5A8463",
"@ c #FF8C4A",
"# c #2984AD",
"$ c #52CEF7",
"% c gray55",
"& c #8CB5A5",
"* c gray71",
"= c #B5D6BD",
"- c gray84",
"; c #D6F7DE",
": c white",
/* pixels */
"                                                                    ",
"                              XX                                    ",
"                             X--:X%%                                ",
"                              X%*%-*%                               ",
"                               Xo%*%.                               ",
"                               .ooo.                                ",
"            o.o             ++.%%X.                                 ",
"           oOOO.        ++++&&&..                                   ",
"           oOOOX..    ++=;;;;;=&&+                                  ",
"          o@@OOXXX..  =&+++&+;;;=&&&+                               ",
"          oO@@oXXXXXX.=&-:::--&;;&&&+                               ",
"            XX@X%XXXX+&-::::::+;;&&&&+                              ",
"          ..  X.%%%X+=+:::::::+;;=&&&+                              ",
"        o##..  ..%%X+;+::.::::+;;;&&&.     o                        ",
"        o###X..  .X+=;+::::::-&;;;&&&XXoooo%oo                      ",
"       o$$##XXX..%**=;&-:::::&;;;;&&oo%%%%%o%%@oo                   ",
"       o#$$oXXXX%-.:*;;&-:::-&;;;;=&XXXXooXXXX@@@o                  ",
"       oXX$%oXXXoo.o.%;;;&+++;;;;;&.XXXXXXXXXOOO@o                  ",
"           oo%%%XX*.*o;;;;;;;%**;=&.XXXXXXX.XOOOX                   ",
"             ooX%X...&=;;;;;;-.:*&&XXXoo...  .XOOX                  ",
"               X%%**.&&=;;;;%.o.%&.XXooX   oo  ..                   ",
"                     .&&&===o*.*o=.XXXX%%oo%$oo                     ",
"                ++++ .&&&&&&X*..===.XXXo%%%%X$$$o                   ",
"             &&&=&&&++..&&&&&&&&==....XXXXoX###$o                   ",
"           &&===;;%**&&&+..&&&...&&&&=.XXXXX###X                    ",
"           &:;;;;%-.:*&&&+ ... &&=;;;;;..XXXX##X                    ",
"          &:::;;;o.o.%&&&+    &=;;;;::;;=..X+..                     ",
"         &:::::;;X*.*o&&&&.   =;;;;::::;;&&.+                       ",
"     oXXX&;:::;;;;...&&&&&.  &%**;::::;;;=&&&+                      ",
"    oo%%X=;;:;;;&;;;=&&&&&. &=-.:*;::;;;;;;&&&+ oo oo               ",
"    o%%o&;;;&+++-+;;;&&&&&.. &o.o.%=;&+++&;&&&+.%%%%%oo             ",
"   o%oXX&;;&-:::::-&;;=&&&&.&;X*.*o==-:::-+&&&.oXo%#$$#o            ",
"   o%%XXX&;&-::::::+;;;&&&&.&;;...==&:::::-&&&.XXXo##$$o            ",
"  o$$#XXX+;+:::::::XX;;&&&&.&;;;===&-::::::+&.XX.XX##$$o            ",
"  $$##XX.+;+::.:::o%%oX&&&. +;;;;;=+:::::::+&.X.o.XX#$$X            ",
"  $$##..o+=+:::::o%XXXX.&&. +;;;;;;+::::.::+&.XXoo. ..$$.           ",
" o$$#X o%+++-:::o%%XXXXX..  +;;;;;;+:::::::-&&.Xo%.%o  ..           ",
" o$$$o.o%%+&+-:o%oXXXXXX.    +==;;;;+--:::-+&+.Xo%%%%oX             ",
" oo..  %%oX+&ooo%XXXXXoXX.    +....;;++++++&&  .XXo%%%%XXX          ",
"      ooOXXX..$$#XXXXo%XX.    +%oXX..;&&&&&&+  .XXXooO@@OX          ",
"     o@@OOXX $$###X.X%%XXX.    XXXXXX.&&&&+..oX .XXXXOO@@X          ",
"     o@@OO..o$$##.. %%%XX.   XoXXXXXX......o***X.XXXXOO@@X          ",
"     X@@OX  oo$$#.  X%oXX.  X%oXXXXXXX.   .%o%.X .....XO@@.         ",
"     X@@o.    X$$ oX%XXX.  X%oXX.ooXXXX.    .*.%o     ..@@.         ",
"     X@@       ..o@@OXXX    X%XX. .%XXX.    XX.o         ..         ",
"       X.         @@OOOX   X%oXX  X%XXX.                            ",
"                 X@@OO..   X%XX.  o%oXX.                            ",
"                 XX@@O    X@OXX.. o%XX.                             ",
"                  X@@.     X@OOO o$#XX.                             ",
"                    ..    X@OOO. o$###.                             ",
"                          X@@OO. $####.                             ",
"                           oX@@. X$$##.                             ",
"                             XX  XX$$.                              ",
"                                 o XX                               ",
"                                                                    ",
"                                                                    ",
"                                                                    ",
"                                                                    ",
"                                                                    "
};
