/* XPM */
static char *_9b895b7ccde44cd9810329572cc8bb6PbIIwTxp22dvxavu_55[] = {
/* columns rows colors chars-per-pixel */
"68 59 16 1 ",
"  c None",
". c #101010",
"X c #3A3131",
"o c #524A4A",
"O c #EF1900",
"+ c #5A8463",
"@ c #FF8C4A",
"# c #2984AD",
"$ c #52CEF7",
"% c gray55",
"& c #8CB5A5",
"* c gray71",
"= c #B5D6BD",
"- c gray84",
"; c #D6F7DE",
": c white",
/* pixels */
"                                                                    ",
"                                                                    ",
"                                                                    ",
"                                                                    ",
"                                              XX                    ",
"                          o.                 X-:                    ",
"                         oOOo.               X%*X%                  ",
"                        ooOOOX..              Xo%-%                 ",
"                        o@@OOXXX..            .o%**%                ",
"                         O@@oXXXXX.    ++++++.%%oo%.                ",
"                       ..XX@%%XXXXXX ++=;;;&&&..X..                 ",
"                      o##  XX%%%XXX++=&+++&;;=&&                    ",
"                      o##..  ..%%X+==&-:::-+;;=&+                   ",
"                     o$$##X..  .XX+;&-:::::-&;;&&+                  ",
"                     o#$$#XXX..XX+=;+:::::::+;;&&&+                 ",
"                     XX$%XXXXX%**=;+:::.::::+;;=&&+                 ",
"                       o%oXXX%-.:*;&:::::::+;;;&&&+                 ",
"                        o%%XXo.o.%;;-:::::-&;;;&&&+                 ",
"                         oo%%X*.*o;;&-:::-&;;;;&&&XXoo              ",
"                           X.%...&;;;&+++&;;;;=..oo%%%ooo           ",
"                                .&=;;;;;;;;;;;&.XXXXoo%%%oo         ",
"                                 .&=;;;;;%**;=.XXXXXXXXo%%@         ",
"                       & &&&++++ .&&;;;;%-.:*&.XXXXXXXXXXX@oo       ",
"                      &:&====&&&++.&&===o.o.%&.XXXoo..XXXOO@@o      ",
"                     &::;;;;;%**&&+.&&&&X*.*o=.XXooX  ..XOOO@o      ",
"                 oXX&::::;;;%-.:*&&+&&&&&...==.XXX%%oo  .XOOX       ",
"              oo%%o&;:::::;;o.o.%&&&..&&&&&==..XXXo%%%oo  .OX       ",
"              o%%o&=;;:;;;;X*.*o&&&+ ......&&&&.XXXXo%%$oo .        ",
"              %%oX&;;;&+;;;;...&&&&&     &&=;;;.XXXXXX$$$o          ",
"           ooo#XXX&;;&-:++&;;;=&&&&&.   &=;;;;:=..XXX###$o          ",
"           $$$#XXX+;&-::::-+;;;&&&&&.  &=;;;;::;;=..X###X           ",
"           o$##XX.+;+::::::-&;;=&&&&. &=%**;::::;;=&.X##X           ",
"           o$##..o+;+::.::::+;;;&&&&. &%-.:*;::::;;&&&..            ",
"           o$$X o%+=+::::::ooXX;&&&&.&;o.o.%=;::;;;=&&+             ",
"            $$oo%%o++-:::oo%%%oX&&&&.&;X*.*o==&;;;;;&&&+            ",
"            .. o%oX+&+ooo%%%XXXX.&&&.&;;...==&-+++&;&&&+.oo         ",
"              o@OXXX+.$$%%oXXXXXX&&. +;;;===&-::::-+&&&.o%oo        ",
"             o@OOXXXo$$##XXXXXXXX... +;;;;;=+::::::-&&&.XX%%oo      ",
"            @@OOXX.o$$##XXXXXoXXX.   +;;;;;;+:::::::+&.XXXo%%%oo    ",
"            @@OX..  o$$##X.Xo%XX.   +=;;;;;+:::::::+&..X..Xo#$$#o   ",
"            X@o.    X$$#...X%%XX.    +=;;;;+-:::.::+&.XXo.X##$$o    ",
"            X@       ...  X%%XXX.    +....;;+-::::-+&.XoooX##$$o    ",
"             X.         oX%%oXX.    Xo%oXX..;++::-+&&.Xo%..X#$$X    ",
"                      Xo@@OXXXX.  XX%oXXXXXX.&&+++&&+.XX%% ..$$.    ",
"                      X@@OOXXX.   X%oXXXXXXX.&&&&&&+ .XXo%o  ..     ",
"                       @@OOOX.   X%%XXXXXXXXX.&&&+..  .XXo%oX       ",
"                       X@@O..    X%oXXX.ooXXX.....o*oX.XXX%%%XX     ",
"                       X@@.     X@OXXX. .%XXX.   .%o**X.XXoO@@OX    ",
"                        ..      X@OXX.  X%XXX.    .*%.X .XXOO@@X    ",
"                               X@OOOO. o%oXX.     X*.%o  .XOO@@X    ",
"                              X@@OO.  o%%XXX.      X.o    .XO@@.    ",
"                              oX@@.. o$#XX.               ..@@@.    ",
"                                XX.  o$###.                 ..      ",
"                                    X$###.                          ",
"                                    X$$##.                          ",
"                                    oX$$.                           ",
"                                      XX                            ",
"                                                                    ",
"                                                                    "
};
