/* XPM */
static char *_46e5657b759458ace6fa36706edd330KNGxWf31U7CSxgSd_50[] = {
/* columns rows colors chars-per-pixel */
"76 59 16 1 ",
"  c None",
". c black",
"X c #523A10",
"o c #4A3A29",
"O c #634A31",
"+ c #3A3A4A",
"@ c #8C6321",
"# c #8C6B52",
"$ c #B58431",
"% c #AD8C73",
"& c #DEA54A",
"* c #E6C57B",
"= c #6B6B84",
"- c #9C9CAD",
"; c #CECEDE",
": c white",
/* pixels */
"                                                                            ",
"                                                                            ",
"                                              +++                           ",
"                                              +-+                           ",
"                                             +--+++                         ",
"                                             +=----+                        ",
"                                             .==--+                         ",
"                                              =====+                        ",
"                                             ..===.=+                       ",
"                                               .+.o.=+                      ",
"                                                +--..+                      ",
"                                                 +-o...                     ",
"                                                  ++oo..                    ",
"                                                      oo.                   ",
"                                                       o..                  ",
"                                                       ooo.                 ",
"                      O. .  XXXXXX                       .o.                ",
"                     O%#.%..&&&&&&XX                    o.O.                ",
"                   OO%%%%%%%oo&&&&&&XXX                  . o.               ",
"                 OO%%%%%%%%%%%oo&&&&&&&XX               o. o.               ",
"                O%%%%%%%%%%%%%%%o&&&&&&&&XXXXXXXXX     oo. o.               ",
"               O%%%%%%%%%%%%%%%%%o&&&&&&&&&XX&&&&&XXX  o.  .                ",
"              O%%%%%%%%%%%%%%%%%%%o&&&&&&&&&&&&&&&&$$Xo.. o.                ",
"             O%%%%%%%....%%%%%%%%%o&&&&&&&&&&&&&&&&&$$.. o.o                ",
"            O%%%%%%%%%.--.%%%%%%%%%.&&&&&&&&&&&&&&&&$$$.o.O                 ",
"            .%%%%%%%%%.--.%%%%%%%%%.&&&&&&&&&&&&&&&&&$$$.o                  ",
"           .%%%%%%%%%.=-=..%%%%%%%%%.&&&&&&&&&&&&&&&&$$$..o                 ",
"           .%...%X%%..--==.%%%%%%%%%.&&&&&&&&&&&&&&&&$$$.O.o                ",
"          ...$$$@$...---=.%#%#%%%#%##.&&&&&&&&&&&&&&&$$$$.o.                ",
"          .&&&&&$&+-=;-==.##%##%%####.&&&&&&&&&&&&&&$$$$$. o.               ",
"   +     .*-+&&&&+;+;-===.######%####.&&&&&&&&&&&&&&$$$$$. o.               ",
"  ++    .***&&&&&&+-+====O###########.&&&&&&&&&&&&&&$$$$$. o.               ",
" +-+   .***-+&&&&&+=++=..O###########.&&&&&&&&&&&&&&$$$$$. o.               ",
".----++-.*-:+&&&&&$+=+.OOOO##########.&&&&&&&&&&&&&&$$$$$. o.               ",
" .-----.**-+$&&&&&$$+$$.OO#O########.&&&&&&&&&&&&&&$$$$$$.Oo.               ",
" .==-;;.**-*&&&&&&X$$$.OO#O#O#######.&&&&&&&&&$&$&$$$$$$. o.                ",
" .=====..**-;+&&X;:$$$.OOO#O########.$&&&&&&&$&$&$$X$$$$.o.                 ",
"   ...=..**+-+&$X:@$$$OOOOO#O###O###.$$&&&&$$$$&$$$X$$$$..                  ",
"      . .$**+$&X.:$$$$OOOOOOOO#OO##.$$$$$$$$$$$$$$X@$$$$.                   ",
"         X*&&&&&X:@$$.OOOOOOOO#OOO#.$$$X$$$$$$$$$$X.$$$$.                   ",
"          X&&&&&&$$$.OOOOOOOOOOOOO.&&$X$$$$$$$$$$. .$$$$$.                  ",
"          X&&&&&$$$.OOOOOOOOOOOOO.&&&&X$$$$$$$$$.   .$$$$.                  ",
"           X&&&&$$$$.OOOOOOOOOOO.$&&&&.$$$$$$$..    .$$$$@.                 ",
"            X&&&OO$.OOOOOOOOOOOO.$&&&&.$$$$$..X.     .$$@@@.                ",
"            X&&&OO$OOOOOOOOOOOO.$$&&&&.$$$..XXXX.     .@@@@.                ",
"            .###OO.OOOOOOOOOOOO.$$&&&&.... .XXXX.      .@@@.                ",
"             ..#...OOOOOOOOOOO..$$$&&.     .XXX.       .@@@.                ",
"             ...OOOOOOOOOOOOOO. .$$$$.   .XXXX.         .@@@.               ",
"              ...OOOOOOOOOOOOO. .$X$$.  .+++X.          .@@@.               ",
"               ......OOOOOOOO.   .X@@.  .++++.          .++=+.              ",
"                 ..@@...OO.OO.   .@X@.  .....           .++=+.              ",
"                   .+++..O..O.   .@@@.                   .....              ",
"                    ...  .  .    .$$@.                                      ",
"                                 .$$$.                                      ",
"                                .$$$.                                       ",
"                                .$$$.                                       ",
"                               .+=+@.                                       ",
"                               .+=++.                                       ",
"                               .....                                        "
};
