/* XPM */
static char *_46e5657b759458ace6fa36706edd330KNGxWf31U7CSxgSd_56[] = {
/* columns rows colors chars-per-pixel */
"76 59 16 1 ",
"  c None",
". c black",
"X c #523A10",
"o c #4A3A29",
"O c #634A31",
"+ c #3A3A4A",
"@ c #8C6321",
"# c #8C6B52",
"$ c #B58431",
"% c #AD8C73",
"& c #DEA54A",
"* c #E6C57B",
"= c #6B6B84",
"- c #9C9CAD",
"; c #CECEDE",
": c white",
/* pixels */
"                                                                            ",
"                                                                            ",
"                                                                            ",
"                                                             ++             ",
"                                                            ++              ",
"                                                          ++--+             ",
"                                                          +--=+             ",
"                                                           --==             ",
"                                                          +--==+            ",
"                                                           +--+             ",
"                                                            +++             ",
"                                                             o              ",
"                                                              .             ",
"                                       +                     o.             ",
"                      O. .  XXXXXX ++++-++                    o             ",
"                     O%#.%..&&&&&&XX-----+                    o             ",
"                   OO%%%%%%%oo&&&&&&XXX--= .     .             .            ",
"                 OO%%%%%%%%%%%oo&&&&&&&XX=.o.+...o..          Oo.           ",
"                O%%%%%%%%%%%%%%%o&&&&&&&&XXXXXXXXXoo.         O.            ",
"               O%%%%%%%%%%%%%%%%%o&&&&&&&&&XX&&&&&XXXo.       oo            ",
"              O%%%%%%%%%%%%%%%%%%%o&&&&&&&&&&&&&&&&$$X...     o.            ",
"             O%%%%%%%%%..%%%%%%%%%o&&&&&&&&&&&&&&&&&$$.o.o   .o.            ",
"            O%%%%%%%%%%.-.%%%%%%%%%.&&&&&&&&&&&&&&&&$$$..   o.              ",
"            .%%%%%%%%%%.--.%%%%%%%%.&&&&&&&&&&&&&&&&&$$$.o..o.              ",
"           .%....%%%%%.=--..%%%%%%%%.&&&&&&&&&&&&&&&&$$$..OO                ",
"           ..$$$$@.X%..---=.%%%%%%%%.&&&&&&&&&&&&&&&&$$$.                   ",
"  +++     ..&+&&&$$..=---==.%#%%%#%##.&&&&&&&&&&&&&&&$$$$.                  ",
"  +-+    .**-+&&&&&+-;;-==.#%##%%####.&&&&&&&&&&&&&&&$$$$.                  ",
" .--+ ++.****&&&&&+;+--===.#####%####.&&&&&&&&&&&&&&$$$$$.                  ",
" .---+--.**-+&&&&&+-+====.###########.&&&&&&&&&&&&&&$$$$$.                  ",
" .=---;.**-:+&&&&&+=++=..O###########.&&&&&&&&&&&&&&$$$$$.                  ",
" .==-;=.**-+$&&&&&$+=+.OOOO##########.&&&&&&&&&&&&&&$$$$$.                  ",
"  .====.****&&&&&&$$+$$.OO#O########.&&&&&&&&&&&&&&$$$$$$.                  ",
"   ..==.***-;+&&X;X$$$.OO#O#O#######.&&&&&&&&&$&$&$$$$$$$.                  ",
"      . .$*+-+&$X::$$$.OOO#O########.&&&&&&&&$&$&$$X$$$$.                   ",
"         X**+$&X.:@$$$OOOOO#O###O###.&&&&&&$$$$&$$$X$$$$.                   ",
"         X&&&&&X:@$$$.OOOOOOOO#OO##.$&&&$$$$$$$$$$X@$$$$.                   ",
"         X&&&&&&$$$$.OOOOOOOOO#OOO#.$$$$$$$$$$$$$$X@$$$$.                   ",
"          X&&&&$$$$.OOOOOOOOOOOOOO.$$$$$$$$$$$$$$. .$$$$.                   ",
"          X&&&&$$$.OOOOOOOOOOOOOO.$$$$$$$$$$$$$$.  .$$$$$.                  ",
"          X&&&&OO$$.OOOOOOOOOOOO.$$$$$$X$$$$$$..    .$$$$.                  ",
"           X&&&OO$.OOOOOOOOOOOOO.$$&&$X$$$$$...     .$$$$@.                 ",
"          ..###OO.OOOOOOOOOOOOO.$$&&&&X$$$..XXX.     .$$@@@.                ",
"         .$&.#O..OOOOOOOOOOOOOO.$$&&&&.....XXXXX.     .@@@@.                ",
"        .@&&&..OOOOOOOOOOOOOOO.$$$&&&&.    .XXXX.      .@@@.                ",
"      ..$&&&&@.OOOOOOOOOOOOOOO.$$$&&&&.    .XXX.       .@@@.                ",
"      .@$&&&@@...OOOOOOOOOOOOO..$$&&&&.   .XXXX.        .@@@.               ",
"     .@@@&&@@@.@.....OOOOOOOO. .$$$&&.   .XXXX.         .@@@.               ",
"    .+@@@@@..@       ...OO.OO.  .$$$$.  .+++X.          .@@@.               ",
"    .+@@@.X             .O..O.  .$X$$.  .++++.          .++=+.              ",
"    .++@.                .  .    .X@@.  .....           .++=+.              ",
"    ..+.                         .@X@.                   .....              ",
"      .                          .@@@.                                      ",
"                                 .$$@.                                      ",
"                                 .$$$.                                      ",
"                                .$$$.                                       ",
"                               .+=+@.                                       ",
"                               .+=++.                                       ",
"                               .....                                        "
};
