/* XPM */
static char *f959a84bc8284256943f4eeff3022381jagN9rnhjB3szKBB_61[] = {
/* columns rows colors chars-per-pixel */
"89 91 15 1 ",
"  c None",
". c black",
"X c #084252",
"o c gray39",
"O c #843119",
"+ c #E64210",
"@ c #CE5242",
"# c #F7A510",
"$ c #EF8429",
"% c #FFD610",
"& c #EFB55A",
"* c #EFDE7B",
"= c #217394",
"- c #CECECE",
"; c white",
/* pixels */
"                                                                                         ",
"                                                                                         ",
"                                                           +++                           ",
"                                                            ++++  +                      ",
"                                                             ++++ +                      ",
"                                                             ++++                        ",
"                                                          + +++#++                       ",
"                                                          +++++#++                       ",
"                                                         ++++#%#++                       ",
"                                                        +++++%%%++                       ",
"                                                        +++%%%%%++                       ",
"                                                       +++%%%%%++                        ",
"                                                       +++%%%%++++                       ",
"                                                       +++%%%#++%#++                     ",
"                                                        ++#%%##%%%#+++                   ",
"                                                        ++#%%%%%%%%+++                   ",
"                                                         +++#%%%%%%++                    ",
"                                                          +++#%%%%%++                    ",
"                                                          +++#%%%%#++                    ",
"                                                           +O$%%#%++                     ",
"                                        O                  O$$O%#+                       ",
"                         OO            O&O                 O$O#%++                       ",
"                        O&&O           O&&@     OOOOO     OO$O+++                        ",
"                       O@&&O           .@$$@   O$$$$$OO@   $$$                           ",
"                  OOO  O$$O             .$$$@OO$$$$$$$$$@@@@$@                           ",
"                 O$$$ O$$$O             .@$$$$$$@OOOO@$@$$$@@OO                          ",
"               OO$$$$O$$$@               .$$$$$.XXXXXXOXX@&&&@                           ",
"             OO$$$$$$$$$$                .$$$$.XXXX======XX&&&O                          ",
"            OO$$$...@$$$O                 O$$.XXX==========@$$@                          ",
"           O$$$XXXXXX$$$O                 O$.XXX============@$@O                         ",
"          $$$$XXXXXXX.$$O                  $.XXXX===========X$$@                         ",
"         O@$XXXXXXXXX.$$@O                 O.XXXX============X$@                         ",
"         O@XXXXXXXXXXX.$$O                 O$XXXXX===========X@$O                        ",
"         O@XXXXXXXXXXX.$$O                 O$.XXXX===========XX@@                        ",
"        O@@XXXXXXXXXXXX.$                  O$.XXXX===========XX@$                        ",
"        O@XXXXXXXXXXXXX.$O                 O$.XXXXX==========XX@$$                       ",
"       O@@XXXXXXXXXXXXXX$O                 @$.XXXXX==========XXX@$@                      ",
"       O@@XXXXXXXXXXXXXX$O                 $$.XXXXX==========XXX@$@                      ",
"      O@@XOOXXXXXXXXXXXX$$O                O@XXXXXXX=========XXXX$$O                     ",
"     .@@XO@@.XXXXXOOXXXXX$                .@@XXXXXXX=========XXXX@$@                     ",
"     .@XXO@@.XXXXO$$.XXXX@.              OO@@XXXXXXX=========XXXXX$$O                    ",
"     .XXO@@@.X..O$$@.XXXO@@.             .@@XXXXXXXXX========XXXXX@@.                    ",
"     @XXO@@.X. O$$$.XXXXXO@@             .@XXXXXXXXXXX=====XXXXXXXX@.@                   ",
"    .@@XO@@.. O$$$....XXXXX@.           .@@XXXXXXXXXXXX===X  XXXXXX@.@                   ",
"     O@.@@@.OO$$$O.  .XXXXX@@O        ..$@.X=XXXXXXXXXX==X    XXXXXX.@                   ",
"     O@.@OO$@$$$$.    .XXX....O       .$$.XXX=XXXXXXXXX==      XXXXX@O@                  ",
"      .@$$$$$$$$.     ....$$$$...     O$@XXXX==XX...XXXX=X      XXXX@.O                  ",
"      .$$$$$$$$$..  ...$$$$$$$$$@..  O@@@XXXXX=XX   ..XX=       .XXX@.OO                 ",
"     .$$$$$$$$$$$O...@$$$$$$$$$$$$@..O@@@XXXX=X=X     .XX       ..XX@.@                  ",
"    .$$$$$$$$$$$$$O@@@@$$$$$$$$$$$$$@.@@.XXXXX=X       .X       ..XX@.@                  ",
"   .$$$$$$$$$$$$$$$@@@@@$$$$$$$$$$$$$$.@.XXXXXX                 ...X@.@O                 ",
"   .$$$@&&$$O@$$$$$@@@@@$$$$$$$$$$$$$$$.XXXXXX                   @.X@@@O                 ",
"  .$$$@&&$@-O$$$$$$$@@@O..@@@@$$$$$$$$$$$X...                    @.X@.@@                 ",
"  .O@@@$$@.;;$$$$$$$@OO   ..O@@@$$$$$$$$...$.O                   O.@@@@O                 ",
"   .@@O$$=.;@$$$$$$$O    OO@OO@@@$$$$$$O$$$$$$OOOO O.           O@.@.@@OO                ",
"    .O@$OOO@$$@O.O$$OOOO@@@@@@@@@$$$$$$$$$$$$$$$$$O$$@.         OO@@@@@@                 ",
"     O@$$$$$$$...@@@O@@@@@@@@@@@@$$$$$@$$$$$$$$$$$$$$@.         O@@.@@@@                 ",
"    O$$$$$$$$@.+.O@@O@@@@@@@@@@@$$$$$$$$$$$$$$$$.$$@@@.         O@@@@@@@.                ",
"   O$$$$$$$$@.++..@@@O@@OO@@@@@$$$$$$$$$$$$$$$OO OO@@@..       O@@@@@@@OO                ",
"   O$$$$$$$..+++.@@.O O O@@@$$$$$$$$$$$$$$$$$@@O    .@@@.      O@@@@@@@.O                ",
"  O$$$$$$$.O.+++.@@.    O@$$$$$$$$$$$$$$$$$$OO@O    @@@@.      @@@@@@@@@                 ",
" O$$$O$$@.@..++..@.    O@$$****$$$$$$$$$$$$@$@@@O  .@@@@.     @@@@@@@@@O                 ",
" .$$@$$@;.O;+.;$@@.    .$*******$$$$$$$$$$$$$$@@@O .$@@@@.    O@@@@@@@@O                 ",
"  .$$@@....$OOO$OO    .@*********$$$$$$$$$$$$$$@@O.O$$$$@@.  O@@@@@@@@@.                 ",
"    ...O@@@.$$$..     .$***********$$$$$$$$$$$$$O.$$$$$$@@O. O@@@@@@@@@                  ",
"        .@O ...O     .@***************$$$$$$$$$$O@$$.$$$@@@.@@@@@@@@@@..                 ",
"         .;O ..      .$****************$$$$$$$$$.@@O.$$@O.@@.$$@@$@@@@OO                 ",
"         O..         .******************$$$$$$$$$@.-.$$$OO.-.$$@$@@@@@O                  ",
"                    .$******************$$$$$$$$$@@@OO@@O$O..$$$@$$@@@O                  ",
"                    .$*******************$$$$$$$$$@@@O.-O$$$$$$$@$@@@@@.                 ",
"                   O$$*******************$$$$$$$$$@@@@O$.$$$$$$$$$@@@@.                  ",
"                 O$$$$********************$$$$$$$$$$$@O$$$$$$$$$$$@@@@.                  ",
"                 @$$$$@*******************$@$$$$$$$$$@@O$$@$@@@@@@@@@@.                  ",
"                @$$$$$O&******************$@$$$$$$$$$@@.@@@@@@@@@@@@@.                   ",
"                @$$$$$O&&*****************@$$$$$$$$$$$@@.@@@@@@@@@@@&.                   ",
"                @$$$$$$O&&***************&O$$$$$$$$$$$@@.@@@@@@@@@&&.                    ",
"               O$$$$$$$O&&&&&********&&&&&O$$$$$$$$$$$@@.@@@@@@@@&..                     ",
"               O$$$$$$$@O&&&&&&&&&&&&&&&&&.@$$$$$$$$$$@@@.@@$@@&&&.                      ",
"               O@$$$$@@@@.&&&&&&&&&&&&&&&&.@@$$$$$$$$$@@@.&&&&&..                        ",
"               O@@@@@@@@@@.&&&&&&&&&&&&&&&.@@@$$$$$$$@@@@.&&&&.                          ",
"                O@@@@@@@@@@.&&&&&&&&&&&&&&.@@@@@$$$@@@@@@.....                           ",
"                O@@@@@@@@@@O..&&&&&&&&&&&&&.@@@@@@@@@@@@@@.                              ",
"                  .@@@@@@@@.  ..&&&&&&&&&OO.@@@@@@@@@@@@@@.                              ",
"                   .@@@@@@@.    ...&&&OOO&&&&&.@@@@@@@@@@$.                              ",
"                  o-.-@@@@@@.      OOO&&&&&&&OO.@@@@@@@@@@@.                             ",
"                 o;o--o--@@@.         OOOOOOO   .@@@@@$@$@@.                             ",
"                 ..;-.;-....                    .@@@@@@@@@;.                             ",
"                  ... ...                       ..@@-O@-;@;;.                            ",
"                                                 ..;;;.;;;o-.                            ",
"                                                   .;. .-;...                            ",
"                                                    ..  ..                               "
};
