/* XPM */
static char *f959a84bc8284256943f4eeff3022381jagN9rnhjB3szKBB_109[] = {
/* columns rows colors chars-per-pixel */
"89 91 15 1 ",
"  c None",
". c black",
"X c #084252",
"o c gray39",
"O c #843119",
"+ c #E64210",
"@ c #CE5242",
"# c #F7A510",
"$ c #EF8429",
"% c #FFD610",
"& c #EFB55A",
"* c #EFDE7B",
"= c #217394",
"- c #CECECE",
"; c white",
/* pixels */
"                                                                                         ",
"                                                                                         ",
"                                                                                         ",
"                                                                                         ",
"                                                                                         ",
"                                                                                         ",
"                                                                                         ",
"                                                                                         ",
"                                                                                         ",
"                                                                                         ",
"                            +++                                                          ",
"                             ++++  +                                                     ",
"                              ++++ +                                                     ",
"                              ++++                                                       ",
"                           + +++#++                                                      ",
"                           +++++#++                                                      ",
"                          ++++#%#++                                                      ",
"                         +++++%%%++                                                      ",
"                         +++%%%%%++                                                      ",
"                        +++%%%%%++                                                       ",
"                        +++%%%%++++                                                      ",
"                        +++%%%#++%#++    OO                                              ",
"                    OO   ++#%%##%%%#+++ O&&O                                             ",
"                   O@@.  OO#OO%%%%%%+++ O&&@@                                            ",
"                   O@@. O&&O$$.%%%%%++  .@$$O@    OOOOOO                                 ",
"                  O@@@.O@&O$$@.%%%%%++   .$$$$@OOO$$$$$$OO                               ",
"                  O@@. O$O$$$.#%%%%#++   .@$$$$$$$$$$$$$$$@@                             ",
"                 OO@@.O$O$$$.#%%%#%++     .$$$$$$$@OOOOO@$$$@@@                          ",
"                O.@@@.OO$$$O+#%%%#+       .$$$$...XXXXXXXO@$$$$@@                        ",
"              OO$.@OO$@$$$$.++#O$O+        O$$.XXXXXX=====XX@$&&&@                       ",
"             O$$.@$$$$$$$$.  ++O$O         O$.XXXXX=========XX@&&&O                      ",
"            O$$$.$$$$$$$$$..   O$$O        O$.XXXX============X@$$@                      ",
"           O$$X.$$$$$$$$$$$O.   O$$O       O$.XXXX=============X@$@                      ",
"         OO$$X.$$$$$$$$$$$$$O   O$$@O      O$.XXXX=============X@$$O                     ",
"        O$$$X.$$$$$$$$$$$$$$$    O@@@O     O$.XXXXX=============X@$@                     ",
"        O@$XX.$$$@&&$$O@$$$$$.   O@@@@OO   O$.XXXXX=============X@$@                     ",
"        O@XX.$$$@&&$@-O$$$$$$$..  O@@@@@OO O$.XXXXX=============XX$$O                    ",
"        O@XX.O@@@$$@.;;$$$$$$$@.   O@@@@@@O@$.XXXXXX============XX@$@                    ",
"       O@@XXX.@@O$$=.;@$$$$$$$O$$.  O@@@@@O$$.XXXXXX============XX@$@                    ",
"       O@XXXXX.O@$OOO@$$@O.O$$O$$$.  OO@@@O$@XXXXXXX============XXX$$O                   ",
"      O@@XXXXXXO@$$$$$$$...@@@O$$$$$. OO@.@@XXXXXXXXX==========XXXX@$@                   ",
"      O@@XXXXXO$$$$$$$$@.+.O@@O$$$$$$.  OO@@XXXXXXXXX==========XXXX@$@                   ",
"     O@@XXXXXO$$$$$$$$@.++O@@.$$$$$$$.. .@@XXXXXXXXXX==========XXXXX$$O                  ",
"    .@@XXXXXXO$$$$$$$..++..@@@.$$$$$$...@@XXXXXXXXXXXX=========XXXXX@$@                  ",
"    .@XXXXXXO$$$$$$$.++++.@@@.@$$$$$$$.@@XXXXXXXXXXXXX=========XXXXXX$$O                 ",
"    .@XXXXXO$$$O$$@.+..+.@@@OX.@$$$$$$.@.XX=XXXXXXXXXXX=====XXXXXXXXX@@.                 ",
"    .@XXXXX.$$@$$@;.O;;O@.@.XXOO@$$$$$..XXXX=XXXXXXXXXX====X  .XXXXXXX@.                 ",
"    .@@XXXX..$$@@...$O$O@.XXXXO@$$$$$$$.XXX=X=XXXXXXXXX===X@O  .XXXXXX@.                 ",
"     O@XXX.   ...  .....O.X..@@@@$$$$$$$XX...XXX...XXXXX=X@@@O  .XXXXX@.                 ",
"     O@XXX.         O     .@@@@@@$$$$$$$$O$$$.XX   ...XX=X@@@@O  .XXXX@.                 ",
"      O@X.                 @@@@@$$$$$$$$@$$$$$.O      .XX@@@@@@O .XXXX@.                 ",
"      O@.                 OO$@@$$$$$$$$$$$$$$$$$O      .X@@@@@@@..XXXX@.                 ",
"       .                OO@@$$$$$$$$$$$$$$$$$$$$$O      O@@@@@@@OO.XXX@.                 ",
"                       O@@@@@$$$$$$$$$$$$$$$$$$$$$O     O@@@@@@@@..XXX@.                 ",
"                       @@@@@@@$$$$$$$$$$$$$$$$$$$$$OO.   O@@@@@@@@..XX@.                 ",
"                     OO@@@O@@@$$$$$$$$$$$$$$$$OO.$$$$@.  O@@@@@@@@O.X@@                  ",
"                   OO@@@@O@@@$$$$$$$$$$$$$@O$@@O O$$$@.   O@@@@@@@@.X@.                  ",
"                  OO@@@@OO@$$$$$$$$$$$$$$$$$O$O   O@@@.   O@@@@@@@@.@@                   ",
"                  O@@@@@O@$$*****$$$$$$$$$$$$@@O   .@@.   O@@@@@@@@.@.                   ",
"                  @@@@OO.$********$$$$$$$$$$$@@@O..@@@.   O@@@@@@@@@@                    ",
"                 O@@@O .@**********$$$$$$$$$$$@@@.@@@@.  O@@@@@@@@@@.                    ",
"                O@@@O  .$************$$$$$$$$$$.OO@@@@.  O@$$@$@$@@@@.                   ",
"               O@@@O  .@**************$$$$$$$O.$$O$@@@. O$$$$$@$@@@@@.                   ",
"             OO@@@@O  .$***************$$$$$$.@$$$$$$@.O$$$$$$$@$@@@@.                   ",
"             O@@@@@.  ******************$$$$.@@O.$$$$@@O$$$$$$$$$@@@@.                   ",
"           OO@@@@@@   ******************$$$$$.-.@$$$@@O$$$$$$$$$@@@@@.                   ",
"          O@@@@@@@..  ******************$$$$$$@O$$$@@@@.$$$$$$@@@@@@&.                   ",
"         O@O@@@@@@@..$*******************$$$$$$$O$$O.@@.$$$$@@@@@@@@.                    ",
"         ..@@@.OO@@ .$*******************$$$$$$$O@@OO.-.$$@@@@@@@@@&.                    ",
"          .@@@OO  .O$$@*******************$$$$$$$.-O@O..@@@@@@@@@@&.                     ",
"            O..;O O$$$O&******************$$$$$$$...$@O.@@@@@@@@@&&.                     ",
"              O..O$$$$O&&*****************$@$$$$$$$$$@@O@@@@@@@@&&.                      ",
"                 @$$$$$O&&****************$@$$$$$$$$$@@.@@@@@@$&&.                       ",
"                @$$$$$$O&&&&&************&@$$$$$$$$$$$@@.@@$&&&&.                        ",
"                @$$$$$$$O&&&&&&&&****&&&&&O$$$$$$$$$$$@@.&&&&&&.                         ",
"               O$$$$$$$$$.&&&&&&&&&&&&&&&&O$$$$$$$$$$$@@.&&&&..                          ",
"               O$$$$$$$$@.&&&&&&&&&&&&&&&&O@$$$$$$$$$$@@@.&..                            ",
"               O$$$$$$$@@@.&&&&&&&&&&&&&&&.@$$$$$$$$$$@@@..                              ",
"               O@$$$$@@@@@@..&&&&&&&&&&&&&.@@$$$$$$$$$@@@.                               ",
"               O@@@@@@@@@@@@...&&&&&&&&&&&.@@@@@$$$@@@@@@.                               ",
"                O@@@@@@@@@@.   ..&&&&&&&OO..@@@@@@@@@@@@@@.                              ",
"                O@@@@@@@@@@O     .&&&OOO&&&.@@@@@@@@@@@@@@.                              ",
"                  .@@@@@@@@.      OOO&&&&&&&..@@@@@@@@@@@@.                              ",
"                   .@@@@@@@.         OOOOOOOOO.@@@@@@@@@@$.                              ",
"                  o-.-@@@@@@.                  .@@@@@@@@@@@.                             ",
"                 o;o--o--@@@.                   .@@@@@$@$@@.                             ",
"                 ..;-.;-....                    .@@@@@@@@@;.                             ",
"                  ... ...                       ..@@-O@-;@;;.                            ",
"                                                 ..;;;.;;;o-.                            ",
"                                                   .;. .-;...                            ",
"                                                    ..  ..                               "
};
