/* XPM */
static char *f959a84bc8284256943f4eeff3022381jagN9rnhjB3szKBB_120[] = {
/* columns rows colors chars-per-pixel */
"89 91 15 1 ",
"  c None",
". c black",
"X c #084252",
"o c gray39",
"O c #843119",
"+ c #E64210",
"@ c #CE5242",
"# c #F7A510",
"$ c #EF8429",
"% c #FFD610",
"& c #EFB55A",
"* c #EFDE7B",
"= c #217394",
"- c #CECECE",
"; c white",
/* pixels */
"                                                                                         ",
"                                                                                         ",
"                                                                                         ",
"                                                                                         ",
"                                                             +++                         ",
"                                                              ++++  +                    ",
"                                                               ++++ +                    ",
"                                                               ++++                      ",
"                                                            + +++#++                     ",
"                                                            +++++#++                     ",
"                                                           ++++#%#++                     ",
"                                                          +++++%%%++                     ",
"                                                          +++%%%%%++                     ",
"                                                         +++%%%%%++                      ",
"                                                         +++%%%%++++                     ",
"                                                         +++%%%#++%#++                   ",
"                                                          ++#%%##%%%#+++                 ",
"                                                          ++#%%%%%%%%+++                 ",
"                                                           +++#O%%%%%++                  ",
"                                          OO                ++O$$%%%%++                  ",
"                       OO                O&&O               +O$$O%%%#++                  ",
"                      O&&O               O&&@@               O$$%%#%++                   ",
"                     O@&&O               .@$$O@    OOOOOO    O$OO%#+                     ",
"                     O$$O                 .$$$$@OOO$$$$$$OO  O$O#%++                     ",
"               OOO  O$$$O                 .@$$$$$$$$$$$$$$$@@@@@+++                      ",
"              O$$$OO$$$@O                  .$$$$$$$@OOOOO@$$$@@@                         ",
"            OO$$$$$$$$$O                   .$$$$...XXXXXXXO@$$$$@@                       ",
"           O$$$$$$$$$$$O                    O$$.XXXXXX=====XX@$&&&@                      ",
"          O$$$.OO.@$$$$O                    O$.XXXXX=========XX@&&&O                     ",
"         O$$XXO@@.X.@$$OO                   O$.XXXX============X@$$@                     ",
"       OO$$XXXO@@.XX.$O$$.                  O$.XXXX=============X@$@                     ",
"      O$$$XXXO@@@.XXXO$$@.                  O$.XXXX=============X@$$O                    ",
"      O@$XXXXO@@.XXXO$$$.                   O$.XXXXX=============X@$@                    ",
"      O@XXXXXO@@.XXO$$$.O                   O$.XXXXX=============X@$@                    ",
"      O@XXXX.@@@.OO$$$O$$O                  O$.XXXXX=============XX$$O                   ",
"     O@@XXXX.@OO$@$$$$.X$O                 O@$.XXXXXX============XX@$@                   ",
"     O@XXXX.@$$$$$$$$.XX$O                 O$$.XXXXXX============XX@$@                   ",
"    O@@XXXX.$$$$$$$$$..X$$O                O$@XXXXXXX============XXX$$O                  ",
"    O@@XXX.$$$$$$$$$$$O.X$O               .@@XXXXXXXXX==========XXXX@$@                  ",
"   O@@XXX.$$$$$$$$$$$$$O.... .           OO@@XXXXXXXXX==========XXXX@$@                  ",
"  .@@XXX.$$$$$$$$$$$$$$$@@@$$....        .@@XXXXXXXXXX==========XXXXX$$O                 ",
"  .@XXXX.$$$@&&$$O@$$$$$@@@$$$$$$..    ..@@XXXXXXXXXXXX=========XXXXX@$@                 ",
"  .@XXX.$$$@&&$@-O$$$$$$$@@$$$$$$$$  ..$@@XXXXXXXXXXXXX=========XXXXXX$$O                ",
"  .@XXX.O@@@$$@.;;$$$$$$$@@$$$$$$$...$$$@.XX=XXXXXXXXXXX=====XXXXXXXXX@@.                ",
"  .@@XXX.@@O$$=.;@$$$$$$$O@$$$$$$$$$.$$@.XXXX=XXXXXXXXXX====X  .XXXXXXX@.                ",
"   O@XXX..O@$OOO@$$@O.O$$O..$$$$$$$$@.@.XXXX=X=XXXXXXXXX===X    .XXXXXX@.                ",
"   O@XXX. O@$$$$$$$...@@@O  @@$$$$$$$@@.XXXXX=XXX...XXXXX=X     O.XXXXX@.                ",
"    O@X. O$$$$$$$$@...O@@O ..@@$$$$$$@.XXXXX=X=XX   ...XX=X     ...XXXX@.                ",
"    O@. O$$$$$$$$@.++O@@     O@$$$$$$$@.XXXXX=X        .XX       @.XXXX@.                ",
"     .  O$$$$$$$..++..@@     OO@@$$$$$$.X...XX          .X       @.XXXX@.                ",
"       O$$$$$$$..+++.@@O     @@@@$$$$$$$O$$$.                    .@.XXX@.                ",
"      O$$$O$$@..++++.@@.  OO@@@@@$$$$$$@$$$$$.O                  O@.XXX@.                ",
"      .$$@$$@;.O++.O@...OO@@@@$$$$$$$$$$$$$$$$$O                 O@@.XX@.                ",
"       .$$@@...OO.;$@. O@@@@@@$$$$$$$$$$$$$$$$$$OOO              O@@.X@@O                ",
"         ...  $$$O$OOOO@@@@@@$$$$$$$$$$$$$$$$$$$$$OO.            @@@.X@.                 ",
"              ...$..O@@@@@O@@@$$$$$$$$$$$$$$$$$$$$$$@.          OO@@.@@@                 ",
"                .O @@@@@@O@@@$$$$$$$$$$$$$$$$OO.$$$$@.          O@@@.@.@O                ",
"                   @@@@@OO@$$$$$$$$$$$$$$@O$@@OOOO@@@.          O@@@@@@@.                ",
"                  O@@@OOO@$$*****$$$$$$$$$$O$@@@O .@@.         O@@@@@.@OO                ",
"                 O@@@O  .$********$$$$$$$$$$$$@@@O.@@.         O@@@@@@@.O                ",
"                O@@@O  .@**********$$$$$$$$$$$$@@.@@@@.       O@@@@@@@@@                 ",
"               O@@@@   .$************$$$$$$$$$$$@.@@@@.       @@@@@@@@@.                 ",
"             OO@@@@O  .@**************$$$$$$$$$.OO$@@@.     O@@@@@@@@@@O                 ",
"          OOO@@@@@O  ..$***************$$$$$$O.$$$$$$@.     O@@@@@@@@@@.                 ",
"          @@@@@@@@.  .******************$$$$.@$$$$$$@@.   OO@@@@@@@@@@O                  ",
"         OO@@@@@@.    ******************$$$$.@@O.$$$@@.  O$@$$@@@@@@@@..                 ",
"        O@@@@@@@@@. .$******************$$$$$.-.@$$@@@O.O$$$$$@$$@@@@OO                  ",
"        ..@@@.OO@@. .$*******************$$$$$@O$$$O.@@.$$$$$$$@@$@@@O                   ",
"           O@@O  ..O$$*******************$$$$$$$O@@OO@@.$$$$$$$@@@@@@@                   ",
"            ..;O  O$$$@*******************$$$$$$O.-OO.-.$$$$$$$$$@@@@..                  ",
"             O.. O$$$$O&******************$$$$$$$$..$O..$$$$$$$$$@@@@.                   ",
"                 @$$$$O&&*****************$@$$$$$$$$$@@.$@$@@@@@@@@@@.                   ",
"                @$$$$$$O&&****************@$$$$$$$$$$$@@.@@@@@@@@@@@.                    ",
"                @$$$$$$O&&&&&************&O$$$$$$$$$$$@@.@@@@@@@@@@&.                    ",
"                @$$$$$$$O&&&&&&&&****&&&&&O$$$$$$$$$$$@@.@@@@@@@@@@.                     ",
"               O$$$$$$$$$.&&&&&&&&&&&&&&&&O@$$$$$$$$$$@@@.@@@@@@&..                      ",
"               O$$$$$$$$@@.&&&&&&&&&&&&&&&.@$$$$$$$$$$@@@.@$@@&&&.                       ",
"               O$$$$$$$@@@@.&&&&&&&&&&&&&&.@@$$$$$$$$$@@@.&$&&&.                         ",
"               O@$$$$@@@@@@@..&&&&&&&&&&&&.@@@$$$$$$$@@@@.&&&..                          ",
"               O@@@@@@@@@@@@. ..&&&&&&&&&&.@@@@@$$$@@@@@@...                             ",
"                O@@@@@@@@@@.    &&&&&&&&&OO.@@@@@@@@@@@@@@.                              ",
"                O@@@@@@@@@@O    ...&&&OOO&&.@@@@@@@@@@@@@@.                              ",
"                  .@@@@@@@@.       OOO&&&&&&..@@@@@@@@@@@@.                              ",
"                   .@@@@@@@.          OOOOOOO .@@@@@@@@@@$.                              ",
"                  o-.-@@@@@@.                  .@@@@@@@@@@@.                             ",
"                 o;o--o--@@@.                   .@@@@@$@$@@.                             ",
"                 ..;-.;-....                    .@@@@@@@@@;.                             ",
"                  ... ...                       ..@@-O@-;@;;.                            ",
"                                                 ..;;;.;;;o-.                            ",
"                                                   .;. .-;...                            ",
"                                                    ..  ..                               "
};
