/* XPM */
static char *f959a84bc8284256943f4eeff3022381jagN9rnhjB3szKBB_58[] = {
/* columns rows colors chars-per-pixel */
"89 91 14 1 ",
"  c None",
". c black",
"X c #084252",
"o c gray39",
"O c #843119",
"+ c #E64210",
"@ c #CE5242",
"# c #F7A510",
"$ c #EF8429",
"% c #EFB55A",
"& c #EFDE7B",
"* c #217394",
"= c #CECECE",
"- c white",
/* pixels */
"                                                                +                        ",
"                                                               ++                        ",
"                                                               +                         ",
"                                                                                         ",
"                                                                                         ",
"                                                                   +                     ",
"                                                                   +    +                ",
"                                                                  ++   ++                ",
"                                                             +   ++++  +                 ",
"                                                                 ++#+                    ",
"                                                                ++##+     +              ",
"                                                               ++##+++   ++              ",
"                                                              +++###+++  +               ",
"                                                              ++++###++                  ",
"                                                               ++####+                   ",
"                                                              ++####++++                 ",
"                                                              ++#####+++                 ",
"                                                             +++######+++                ",
"                                                             +++###OO#+++                ",
"                                         OO                   +++#OO$++++                ",
"                        OO              O%%O                   +++$$OO+                  ",
"                       O%%O             O%%@@       OOO         +OO$ ++                  ",
"                      O@%%O             .@$$O@   OOO$$$OO        $$$O                    ",
"                      O$$O               .$$$$@OO$$$$$$$$@      OO$OO                    ",
"                $OO  O$$$                .@$$$$$$$$$OOO@$$$@@   @@@@                     ",
"              O$$$$OO$$$@                 .$$$$$$$OOXXXXO@$$$@@ O@@@                     ",
"             O$$$$$$$$$$                  .$$$$...XX*****XX@$%%@O@@O                     ",
"            O$$..$$$$$$O                   O$$.XXXXX*******XX@%%@@@O                     ",
"           O$XXXX..@$$$O                    $.XXXXX**********X@$@@@OO                    ",
"         OO$XXXXXXXX.$$O                    $.XXXX************X$$O@@                     ",
"        O$$XXXXXXXXX.$$@O                   O.XXXX************X@$@@@O                    ",
"        O@XXXXXXXXXXX.$$O                   O$XXXX*************X@@@@                     ",
"        OXXXXXXXXXXXX.$$O                   O$.XXXX************XX$O@O                    ",
"        @XXXXXXXXXXXXX.$O                   O$.XXXX************XX@$@@                    ",
"       @@XXXXXXXXXXXXX.$$O                  O$.XXXX************XX@$@O                    ",
"      O@XXXXXXXXXXXXXXXX$                  O@$.XXXXX***********XXX$$OO                   ",
"     O@@XXXXXXXXXXXXXXXXO                  O$$.XXXXX***********XXX@$@@O                  ",
"    OO@@XXOOXXXXXXXXXXX$$O                 O$@XXXXXX**********XXXX@$@@                   ",
"   .O@@XXO@@.XXXXXOOXXXX$O                 @@XXXXXXXX*********XXXXX$$OO                  ",
"   .@@XXXO@@.XXXXO$$.XXX@@.               OO@XXXXXXXX**********XXXX@$@@                  ",
"   .@XXXO@@@....O$$@.XXXO@@.              .@@XXXXXXXXX*********XXXXX$$O@                 ",
"   .@XXXO@@..  O$$$.XXXXXO@@             .@@XXXXXXXXXXX********XXXXX@@.O                 ",
"   .@XXXO@@.  O$$$...XXXXXX@.           .@@XXXXXXXXXXXXX****XXXXXXXXX@.O@                ",
"    @@X.@@@.OO$$$O.  .XXXXX@@O        ..$@.XX*XXXXXXXXXX***X  .XXXXXX@.O@                ",
"    O@X.@OO$@$$$$.    .XXX....O       .$$.XXXX*XXXXXXXXX**X    .XXXXX@.O@                ",
"    O@.@$$$$$$$$.     ....$$$$...     O$@XXXX*X*XXXXXXXXX*X     ..XXX@.@O                ",
"     O.$$$$$$$$$..  ...$$$$$$$$$@..  O@@@XXXXX*XXX..X..XX*X      .XXX@.@@O               ",
"     .$$$$$$$$$$$O...@$$$$$$$$$$$$@..O@@@XXXX*X*XX  .  .XX       .XXXX.@@                ",
"    .$$$$$$$$$$$$$O@@@@$$$$$$$$$$$$$@.@@.XXXXX*X        .X        .XXX@@@O               ",
"   .$$$$$$$$$$$$$$$@@@@@$$$$$$$$$$$$$$.@.XXXXXX                   .XXX@.@O               ",
"   .$$$@%%$$O@$$$$$@@@@@$$$$$$$$$$$$$$$.XXXXXX                     .XX@.@O               ",
"  .$$$@%%$@=O$$$$$$$@@@O..@@@@$$$$$$$$$$$X...                      .X@@@@O               ",
"  .O@@@$$@.--$$$$$$$@OO   ..O@@@$$$$$$$$...$.O                     .X@.@@O               ",
"   .@@O$$*.-@$$$$$$$O    OO@OO@@@$$$$$$O$$$$$$O  O                O.@@@@@O               ",
"    .O@$OOO@$$@O.O$$O OOO@@@@@@@@$$$$$@$$$$$$$$OO$OO.             @.@.@@@                ",
"     O@$$$$$$$...@@@OO@@@@@@@@@@@$$$$$$$$$$$$$$$$$$$$@.          OO@@@@@@O               ",
"    O$$$$$$$$@.+.O@@O@@@@@@@@@@@$$$$$$$$$$$$$$$$$$$$$@.           @@.@@@@O               ",
"   O$$$$$$$$@.++..@@O@@@@O@@@@@$$$$$$$$$$$$$$$OO.OO@@@.          O@@@@@@@.               ",
"   O$$$$$$$..+++.@@.@OO O@@@$$$$$$$$$$$$$$$$$@@O O .@@..        O@@@@@@@O.               ",
"  O$$$$$$$. .+++.@@.O   O@$$$$$$$$$$$$$$$$$$O@@O   .@@@.        @@@@@@@@@O               ",
" O$$$O$$@.OO.++..@.O   O@$$&&&&$$$$$$$$$$$@O$@@@O .@@@@@.      @@@@@@@@@.                ",
" .$$@$$@-.@.O+.-O@.    .$&&&&&&&$$$$$$$$$$$$$$@@@O .@@@@.     O@@@@@@@@@.                ",
"  .$$@@...@O-OOO$OO   .@&&&&&&&&&&&$$$$$$$$$$$$@@OOO$@@@.    OO@@@@@@@@@O                ",
"    ....@@.$$$$..     .$&&&&&&&&&&&&$$$$$$$$$$$$@.$$$$$@@.  O@@@@@@@@@@@.                ",
"       .@@@....O.    .@&&&&&&&&&&&&&&&$$$$$$$$$O.$$$$$$@@O.O@@@@@@@@@@@O                 ",
"        O@@.OO@@.    .$&&&&&&&&&&&&&&&&$$$$$$$$.@$O.$$$@@@.O@@@@@@@@@@@.                 ",
"         ..O  ..     .&&&&&&&&&&&&&&&&&&$$$$$$$.@@..@$$@.@@.$$@$@$@@@@O                  ",
"          O-O       .$&&&&&&&&&&&&&&&&&&$$$$$$$$$.@O$$$OO.=.$$$$@$@@@OO                  ",
"           ..       .$&&&&&&&&&&&&&&&&&&&$$$$$$$$$@@O@@O$O..$$$@$@@@@O                   ",
"                   O$$&&&&&&&&&&&&&&&&&&&$$$$$$$$$@@O.=O$$$$$$$@$@@@@@.                  ",
"                  O$$$&&&&&&&&&&&&&&&&&&&&$$$$$$$$$$$@..$$$$$$$$$@@@@..                  ",
"                 O$$$$@&&&&&&&&&&&&&&&&&&&$@$$$$$$$$$@@O$$$@$@@$@@@@@.                   ",
"                 @$$$$O%&&&&&&&&&&&&&&&&&&$@$$$$$$$$$@@.@@@@@@@@@@@@@.                   ",
"                @$$$$$O%%&&&&&&&&&&&&&&&&&@$$$$$$$$$$$@@.@@@@@@@@@@@.                    ",
"                @$$$$$$O%%&&&&&&&&&&&&&&&%O$$$$$$$$$$$@@.@@@@@@@@@@%.                    ",
"               O$$$$$$$O%%%%%&&&&&&&&%%%%%O$$$$$$$$$$$@@.@@@@@@@@%.                      ",
"               O$$$$$$$$O%%%%%%%%%%%%%%%%%O@$$$$$$$$$$@@@.@@@@@%%.                       ",
"               O$$$$$$$@@.%%%%%%%%%%%%%%%%.@$$$$$$$$$$@@@.%$%%%..                        ",
"               O@$$$$@@@@@.%%%%%%%%%%%%%%%.@@$$$$$$$$$@@@.%%%%.                          ",
"               O@@@@@@@@@@@.%%%%%%%%%%%%%%.@@@@@$$$@@@@@@.%.                             ",
"                O@@@@@@@@@@...%%%%%%%%%%%%%.@@@@@@@@@@@@@@.                              ",
"                O@@@@@@@@@@O  ..%%%%%%%%%OO.@@@@@@@@@@@@@@.                              ",
"                  .@@@@@@@@.    ...%%%OOO%%%..@@@@@@@@@@@@.                              ",
"                   .@@@@@@@.       OOO%%%%%%%O.@@@@@@@@@@$.                              ",
"                  o=.=@@@@@@.         OOOOOOO  .@@@@@@@@@@@.                             ",
"                 o-o==o==@@@.                   .@@@@@$@$@@.                             ",
"                 ..-=.-=....                    .@@@@@@@@@-.                             ",
"                  ... ...                       ..@@=O@=-@--.                            ",
"                                                 ..---.---o=.                            ",
"                                                   .-. .=-...                            ",
"                                                    ..  ..                               "
};
