/* XPM */
static char *_77ebec35fc44466f96d1d3cfea6f225j7L0vfxL5Mq2VTvU_42[] = {
/* columns rows colors chars-per-pixel */
"58 68 14 1 ",
"  c None",
". c #101010",
"X c #5A3A29",
"o c #73524A",
"O c #8C3A21",
"+ c #D63119",
"@ c #AD7B5A",
"# c #BD7B7B",
"$ c #EF6342",
"% c #E6B563",
"& c #E6A59C",
"* c #FFE68C",
"= c #C5B5C5",
"- c white",
/* pixels */
"                                                          ",
"                                                          ",
"                o                                         ",
"           ooooo*...o..                                   ",
"          o*************....                              ",
"        ooo*****%$$$$$$$$$$$.                             ",
"       oo*******$$$$$$OOOOOO$.                            ",
"      o******%$$$$$$$O++++++++.                           ",
"      ******$$$$$$$OO%+++++++++++.                        ",
"    OO*****$$$$$$..%%%++++++++++O.                        ",
"   O$$*****$$$$$...+%+%+++++++++++.                       ",
"  O$$$%****$$$$$ooo.++%%%%%++++++++.                      ",
"   O$$%*%**$$$..o@@.+++%%%%%%%+++++++.                    ",
"    O$%*@**$$...@@@@@.oo++++%%%++++++.                    ",
"    .$+%@%+$.-....@@@.  +++++%%%++++++.                   ",
"    .++%@%+O--.....@@.  o+o+++%%%++++++.                  ",
"     ....@++--......@.   o O+++%%%%++++.                  ",
"    .o&&o...X%%.....@o.     O+++%%%+++++.                 ",
"   X&&&&&#.%%****...oo.      O++%%%%+++++                 ",
"   X&&&&&##%*****..oooo.      O++%+%%%++++.               ",
"   X&&&o.#.*****..ooooo..      O+++%%%++++.               ",
"    X&.##o.*****..oooooooo      X++%%%++++.               ",
"     .###.******.ooooooooo      X+++%%%+++.               ",
"      ...*******%ooooo.XXXX  X  X+++%%%+++.               ",
"      .X%********%oo..@@@@@XX@.. X+++%%+++.               ",
"     .X***********..@@@@@@@@@@@@.X+++%%%+++.              ",
"     oX**********.@@@@@@@@@@@@@@@.++++%%+++.              ",
"    XX*********oX@@@@@@@@@@@@@@@@@@.++%%%+++.             ",
"   XoX**********.@@@@@@@@@@@@@@@@@@@.%%%+++.              ",
"  XoX***********X@@@@@@@@@@@@@@@o@@@@..%%+++.             ",
"  XX%***********.@@@@@@@@@@@@@@@@o@@@@.%%+++.             ",
" XoX************.@@@@@@@@@@@@@@@@@X@@@@.%%+++.            ",
" XoX************.o@@@@@@@@@@@@@@@@oX@@@.+%%+++.           ",
" XoX************Xo@@@@@@@@@@@@@@@@@oX@X*.%%%+++.          ",
" XoX************Xoo@@@@@@@@@@@@@@@@o*X***..%%+++.         ",
" XoX************Xoo@@@@@@@@@@@@@@@@@@o****%.%%+++.        ",
" XoX***********%Xoooo@@@@@@@@@@@@@@@@o*****.%%%++....     ",
" XoX************%%Xooo@@@@@@@@oo@@@@@o*****%.%%%++++..    ",
" .oX*********%*%*%.ooooo@@@@@@@@X@@@@o******.%%%%...      ",
" .oX%*******%*%*%%.oooooo@@@@@@@@X@@X%*****%%.+%%%%%.     ",
" .oo.%***%*%*%*%%%%.ooooooo@@@@@@XXX%%%%**%%%..+%%%%%.    ",
"   ..%%%%*%*%%%%%%%.oooooooXo@@@X%%%%%%%%%%%%%..+.%%%.    ",
"   .o.%%%%%%%%%%%%%%.ooooooXXX@X%%%%%%%o%%%%o%%%.+.o%%.   ",
"   .oo%%%%%%%%%%%%%%.ooooooooX%%%%%%%%%%o%%%%o%%.+. o%.   ",
"    .%.%%%%%%%%%%%%%%%.ooooooX%%%%%%%%%%%o%%%%o%%.  ...   ",
"    .oo%%%%%%%%%%%%%%%%...oooX%%%%%%%%%%%%o%%%oo%.   .    ",
"     .%.%%%%%%%%%%%%%%%%%%...%%%%%%%%%%%%%%o%%%%oo        ",
"      ..%%%%%%%%%%%%%%%%%%%.%%%%%%%%%%%%%%%o%%%%%.        ",
"        .%%%%%%%%%%%%%%%%%%%.%%%%%%%o%%%%%%%o%%%%%.       ",
"        o%%%%%%%%%%%%%%%%%%%%.%%%%%%%o%%%%%%%o%o%%%.      ",
"         .%%%%%%%%%%%%%%%%%%%%.%%%%%%%%oo%%%%%%o%%%%.     ",
"          .%%%%%%%%%o%%%%%%%%%%%X..%%%%%%o.%%%%%o%%%.     ",
"           .%%%%o%%%.%%%%%%%%%%XO++.%%%%%%%o%%%%%o%%%.    ",
"            .%%%%oo%%X%%%%%%%%%X+OO+X%%%%%%%.%%%%%o%%.    ",
"             .X%%%o   .%%%%%%%.O++++O..%%%%%%o%%%%%.%.    ",
"             X#X..    .%%%%%%X++O+++++O..%%%%%.%%%%%.     ",
"           .X###.      .X%%X.++++O++++OO+..%%%%..%%%%o    ",
"     ooo...#####.o      .XX..OOOO OOOO  OOO...%%. oo%%.   ",
"    o&&@&&&&####X=o     .###.                 ..    oo    ",
"   o-=X&&&#o#&###=o     o####.                            ",
"   .=X--&Xo&&##o...   o.######...                         ",
"    .X--..o-&..      o&&###&&X#&&..                       ",
"     X-.  o--.      o&&&&##&&&X#&--.                      ",
"      X.  oo-.      .--&o.o#&&X##--.                      ",
"           ..       .--.  .#--.XXX-.                      ",
"                    ..o    X--.  X.                       ",
"                           .-X                            ",
"                            ..                            "
};
