/* XPM */
static char *_9b895b7ccde44cd9810329572cc8bb6PbIIwTxp22dvxavu_0[] = {
/* columns rows colors chars-per-pixel */
"68 59 16 1 ",
"  c None",
". c #101010",
"X c #3A3131",
"o c #524A4A",
"O c #EF1900",
"+ c #5A8463",
"@ c #FF8C4A",
"# c #2984AD",
"$ c #52CEF7",
"% c gray55",
"& c #8CB5A5",
"* c gray71",
"= c #B5D6BD",
"- c gray84",
"; c #D6F7DE",
": c white",
/* pixels */
"                                                                    ",
"                                                                    ",
"                                                                    ",
"                                                                    ",
"                                                                    ",
"                                                                    ",
"                                        XX                          ",
"                                       X-:X%                        ",
"                    o.                 X%*%-%                       ",
"                   oOOo.                Xo%**%                      ",
"                   oOOOX..              .ooo%.                      ",
"                  o@@OOXXX..     ++++++.%%X..                       ",
"                  oO@@oXXXXX.  ++=;;;&&&..                          ",
"                   XX@%%XXXXXX+=&+++&;;=&&+                         ",
"                 ..  XX%%%XXX+=&-:::-+;;=&&+                        ",
"                o##..  ..%%X+=&-:::::-&;;&&&+                       ",
"                o###X..  .XX+;+:::::::+;;&&&+                       ",
"               o$$##XXX..XX+=;+::.::::+;;=&&&+                      ",
"               o#$$oXXXXX%**=;+:::::::+;;;&&&+                      ",
"                XX$%oXXX%-.:*;&-:::::-&;;;&&&XXoo                   ",
"                  oo%%XXo.o.%;;&-:::-&;;;;&.oo%%%ooo                ",
"                    oo%%X*.*o;;;&+++&;;;;=.XXXXoo%%%oo              ",
"                      X.%...&;;;;;;;;;;;;&.XXXXXXXo%%@oo            ",
"                           .&=;;;;;;%**;=.XXXXXXXXXXX@@@o           ",
"                            .&=;;;;%-.:*&.XXXoo..XXXOOO@o           ",
"                    &&&++++ .&&&===o.o.%&.XXooX  ..XOOOX            ",
"                  &&====&&&++.&&&&&X*.*o=.XXX%%oo  .XOOX            ",
"                 &:;;;;;%**&&+.&&&&&...==.XXXo%%%oo  ..             ",
"                &:::;;;%-.:*&&+..&&&&&==...XXXXo%%$oo               ",
"             oX&:::::;;o.o.%&&&+ ......&&&&.XXXXXX$$$o              ",
"           oo%%&;:::;;;X*.*o&&&+     &&=;;;=..XXX###$o              ",
"          o%%%&=;;:;;;;;...&&&&&.   &=;;;;:;;=..X###X               ",
"        oo%%oX&;;;&+++&;;;=&&&&&.  &=;;;;:::;;=&.X##X               ",
"       o$$#XXX&;;&-:::-+;;;&&&&&. &=%**;:::::;;&&&..                ",
"      o$$##XXX+;&-:::::-&;;=&&&&. &%-.:*;:::;;;=&&+                 ",
"      o$$##XX.+;+:::::::+;;;&&&&.&;o.o.%=;:;;;;;&&&+                ",
"      o$$#X..o+;+::.:::ooXX;&&&&.&;X*.*o==&+++&;&&&+.ooo            ",
"      o$$o. o%+=+::::oo%%%oX&&&&.&;;...==&-:::-+&&&.o%%%oo          ",
"       ..  o%%o++-::o%%%XXXX.&&. +;;;===&-:::::-&&&.XXo%%%oo        ",
"         oo%%oX+&+oo%%oXXXXXX&&. +;;;;;=+:::::::+&.XXXXo#$$#o       ",
"        o@@OXXXX+.$$#XXXXXXXX..  +;;;;;;+:::::::+&.X..XX##$$o       ",
"       o@@OOXXX.o$$##XXXXXoXX.   +=;;;;;+::::.::+&.XXo.X##$$o       ",
"       X@@OOXX. o$$###X.Xo%XX.    +=;;;;+-:::::-+&.Xooo.X#$$X       ",
"       X@@OX..   o$$#...X%%XX.    +....;;+-:::-+&&.Xo%. ..$$.       ",
"       X@@o.     X$$.  X%%XXX.   Xo%oXX..;+++++&&+.XX%%o  ..        ",
"        X.        .. oX%%oXX.   X%oXXXXXX.&&&&&&+ .XXo%%oX          ",
"                    o@@OXXXX.  X%oXXXXXXX.&&&&+..  .XXo%%%XX        ",
"                   X@@OOXXX.   X%XXXXXXXXX.....o*oX.XXXoO@@OX       ",
"                   X@@OOOX.   X%oXXX.ooXXX.   .%o**X.XXXOO@@X       ",
"                    X@@O..    X%XXX. .%XXX.    .*%.X .XXOO@@X       ",
"                    X@@.     X@OXX.  X%XXX.    X*.%o  ..XO@@.       ",
"                     ..      X@OOO. o%oXX.      X.o     ..@@.       ",
"                            X@OOO.  o%XXX.                ..        ",
"                            X@@OO. o$#XX.                           ",
"                            oX@@.  o$###.                           ",
"                              XX  X$###.                            ",
"                                  X$$##.                            ",
"                                  oX$$.                             ",
"                                    XX                              "
};
