/* XPM */
static char *_9b895b7ccde44cd9810329572cc8bb6PbIIwTxp22dvxavu_60[] = {
/* columns rows colors chars-per-pixel */
"68 59 16 1 ",
"  c None",
". c #101010",
"X c #3A3131",
"o c #524A4A",
"O c #EF1900",
"+ c #5A8463",
"@ c #FF8C4A",
"# c #2984AD",
"$ c #52CEF7",
"% c gray55",
"& c #8CB5A5",
"* c gray71",
"= c #B5D6BD",
"- c gray84",
"; c #D6F7DE",
": c white",
/* pixels */
"                                                                    ",
"                                                                    ",
"                                    o                               ",
"                                 ooOO               XX              ",
"                                 OoOOo             X-:X%            ",
"                                 O@OOX.            X%*%-%           ",
"                             o..X@@@OXX             Xo%**           ",
"                           oo##. @%XXX.   ++=++++++ .ooo%%          ",
"                           o$###.XX%XXX. +=&+;;;&&&%%X....          ",
"                           o###X. .%%XXX+=&-:++&;;=..               ",
"                           XX$oXX...%XX+=&-::::-+;;&&+              ",
"                             $oXXX  XX++;+::::::-&;=&&+             ",
"                           oo%XXX.X%%**=;+::.::::+;;&&&+            ",
"                             o%XXX%-.:*;+::::::::+;;&&&+            ",
"                              %%XXo.o.%;&-::::::+;;=&&&+            ",
"                              X.XXX*.*o;;&-::::-&;;;&&&+            ",
"                                %XX...o;;;&+::-&;;;;&&&.            ",
"                                 *XX .&;;;;;++&;;;;;&&XXo o         ",
"                             &&&     .&=;;;;;;;;;;;=&.oo%o%%oo      ",
"                          &&&===++++ .&=;;;;;%**;;;&&&XXoo%%%oo     ",
"                   oX    &&:;;;;=&&&++&&&===%-.:*&&&.XXXXXXXX@@o    ",
"                   o%XXX&::::;;;;%**&&.&&&&&o.o.%&&&&XXXXXXXOO@     ",
"                 ooo%%XX&;::::;;%-.:*&+.&&&&X*.*o=&=.XXXo...OOX     ",
"                o%%XoX&=;;::;;;;o.o.%&&+..&&&...====..XoX   .OO     ",
"                o%%XXX&;;;:;;;;;*.*o&&&++ ..&&&====. .Xo%ooo  .     ",
"               oo#XXXX&;;&&+++&;...&&&&+   ....&&.    XXo%%%$o      ",
"              o$$#XXXX+;&--:::-+;;=&&&&&.    &&=;&&+++.XXoX$$oo     ",
"              o$$##XX.+;+::::::-;;;&&&&&.   &=;;;;;=&&+XXXX##$o     ",
"             o$$#X.o.o+;+:::::::&;;=&&&&. &&=;;;;;:;;=&..XXX#X      ",
"              $$$o.o%+=+::.:::::+;;;&&&&. &=%**;::::;;=&+ ..X#X     ",
"              o$$  %%%++-::::::+;;;&&&&.&;;%-.:*;::::;;&&+  X.      ",
"               ..oo@%o+&+:::::o+;o;oX&&.&;X.o.%=;::;;;;&&&+  .      ",
"                 o@@OXX+&-:::.$+o%%%X&&.&;;*.*o==:;;;;=&&+          ",
"                 @@@OXX.++++o$#o%o%Xo&. +;;...==&&+++&;&&&+         ",
"               oX@@OXXX. &&&$$##XXXXXX. +;;;===&&-:::-;&&&+         ",
"                X@@OX.   +&o$##XXXXXX.  +;;;;;=+-:::::+&&&+         ",
"                X@@o.     +$$#.XXXoX.  +=;;;;;;+::::::-&&&+    oo   ",
"                  X        .   .X%XX    .=;;;;+:::::::++&&+  .o%o   ",
"                   .        oo%%%%X.   .XX.;;;+-:::.::+&&+ .XXo%o   ",
"                           X@@O%%XX.  o%XX..;;;+:::::-+&&+.XXXX%%   ",
"                          X@@OOoXX.   %XXXXX=;;;-:::-++&+ .X.XX#$o  ",
"                          XOOOXX.     oXXXXXX.&&+++++&&&+ XXo.X#$o  ",
"                         X@@.XX..   X%XX.oXX.&&&&&&&&&&+ .Xoo.##$#  ",
"                          .. ..      oXX .XXX...&&&+.+  ..X%. X$$o  ",
"                          .         X%XX  %XX   ....o.  .X%% .$.    ",
"                                     %XX o%XX      .%*oX.Xo%o...    ",
"                                    X@OO. %XX.      .o**.Xo%%       ",
"                                   XXXOO. %XX       X*%..XXO%X      ",
"                                    @@O. $##.        *.%oXOO@OX     ",
"                                    X@@.X$##.        .o .X@O@X      ",
"                                    oXX  $##.           ..@@X       ",
"                                         X$$.             @@        ",
"                                         oXX              @.        ",
"                                           X              .         ",
"                                                                    ",
"                                                                    ",
"                                                                    ",
"                                                                    ",
"                                                                    "
};
