/* XPM */
static char *_9b895b7ccde44cd9810329572cc8bb6PbIIwTxp22dvxavu_66[] = {
/* columns rows colors chars-per-pixel */
"68 59 16 1 ",
"  c None",
". c #101010",
"X c #3A3131",
"o c #524A4A",
"O c #EF1900",
"+ c #5A8463",
"@ c #FF8C4A",
"# c #2984AD",
"$ c #52CEF7",
"% c gray55",
"& c #8CB5A5",
"* c gray71",
"= c #B5D6BD",
"- c gray84",
"; c #D6F7DE",
": c white",
/* pixels */
"                                                                    ",
"                                                                    ",
"                                                                    ",
"                                                                    ",
"                                              XX                    ",
"                             .               X-:                    ",
"                           oOO               X%*X%                  ",
"                           oOOo.              Xo%-%                 ",
"                          o@@OO..             .o%**%                ",
"                        . o@@oXXX.     ++++++.%%oo%.                ",
"                       o#.XX@%XXXX.  ++=;;;&&&..X..                 ",
"                       o##  XX%XXX.++=&+++&;;=&&                    ",
"                      o$$#.. .%%XX+==&-:::-+;;=&+                   ",
"                     o#$$#X....%%X+;&-:::::-&;;&&+                  ",
"                      XX$#XXX  .X+=;+:::::::+;;&&&+                 ",
"                       o%XXX..%**=;+:::.::::+;;=&&+                 ",
"                        %oXXX%-.:*;&:::::::+;;;&&&+                 ",
"                        %%XXXo.o.%;;-:::::-&;;;&&&+                 ",
"                        oo%%XX*.*o;;&-:::-&;;;;&&&Xoo o             ",
"                          X.XX...&;;;&+++&;;;;=&&&o%%o%%o o         ",
"                           %%* X.&=;;;;;;;;;;;&&.oXXo%o%%@@         ",
"                                 .&=;;;;;%**;=&&.XXXXXXXX@Oo        ",
"                       & &&&++++ .&&;;;;%-.:*&&&.XXXXXXXOOO@        ",
"                      &:&====&&&++.&&===o.o.%&&&XXXoo...XOOX        ",
"                     &::;;;;;%**&&+.&&&&X*.*o===.XXoX   .X.X        ",
"                oXXX&::::;;;%-.:*&&+&&&&&...====.XX%%ooo  .         ",
"              oo%%X&;:::::;;o.o.%&&&..&&&&&==....XXXo%%%$o          ",
"              o%%o&=;;:;;;;X*.*o&&&+ ......&&&&  XXXXX%X$$$         ",
"           o o%oXX&;;;&+;;;;...&&&&&     &&=;;;++.XXXXX##$          ",
"           $o%%XXX&;;&-:++&;;;=&&&&&.   &=;;;;:=&&+.XXX##X          ",
"           $$$#XXX+;&-::::-+;;;&&&&&.  &=;;;;::;;=&&+..X##          ",
"          o$$##XX.+;+::::::-&;;=&&&&. &=%**;::::;;=&&+  ..          ",
"          o$$##..o+;+::.::::+;;;&&&&. &%-.:*;::::;;&&&+             ",
"          oo$#X o%+=+:::::::+;;;&&&&.&;o.o.%=;::;;;=&&+             ",
"           o$$o.o%%++-::::::+o;oXX&&.&;X*.*o==&;;;;;&&&+            ",
"            ..  %%o+&+-::::-o%%%%o&&.&;;...==&-+++&;&&&+            ",
"              ooOXXX+&++:.oo%o%XXX&. +;;;===&-::::-+&&&+            ",
"             o@@OOXX.+&&o$$#XXXXXX.. +;;;;;=+::::::-&&&+ . ooo      ",
"            o@@OOXX  ++$$##XXXXXXX   +;;;;;;+:::::::+&&+.Xo%%%      ",
"            X@@OX..    o$##X.XXoX.  +=;;;;;+:::::::+&&&+.XXX%%o     ",
"            X@@o.      X$#...X%XX.   +=;;;;+-:::.::+&&+.X.Xo#%o     ",
"            X@@         ..  %%%XX    ...;;;;+-::::-+&+ XooXX#$#o    ",
"              X.        . o%%%XX.    .XX.X;;;++::-+&&+.Xoo.X#$$o    ",
"                         @@O%oX..  Xo%XXXX.&&&&+++&&+ .X%..X#$$     ",
"                        @@OOXXX.  XXoXXXXXX.&&&&&&&+  .X%% .#$X     ",
"                        @@OOXX.   X%oXXXXXX...&&&+..  .Xo%o $$.     ",
"                        X@O.X.    X%XXXooXXX  ....o*oX.XX%oX..      ",
"                        @@. .     XoXX. %XXX.    .%o**XXXo%%        ",
"                        ..        X%XX  X%X.      .*%.X.XXO@X       ",
"                                  XOXX o%oX.      X*.%o XOO@OX      ",
"                                 XOOO. %%XX.       X.o  .XO@@X      ",
"                                X@@O. o$#X.             ..@X        ",
"                                 X@OO o$##               .@.        ",
"                                 o@@. X###.               @.        ",
"                                   X  X$##                .         ",
"                                      oX$$                          ",
"                                        XX                          ",
"                                                                    ",
"                                                                    "
};
