/* XPM */
static char *_9b895b7ccde44cd9810329572cc8bb6PbIIwTxp22dvxavu_71[] = {
/* columns rows colors chars-per-pixel */
"68 59 16 1 ",
"  c None",
". c #101010",
"X c #3A3131",
"o c #524A4A",
"O c #EF1900",
"+ c #5A8463",
"@ c #FF8C4A",
"# c #2984AD",
"$ c #52CEF7",
"% c gray55",
"& c #8CB5A5",
"* c gray71",
"= c #B5D6BD",
"- c gray84",
"; c #D6F7DE",
": c white",
/* pixels */
"                                                                    ",
"                                                                    ",
"                                                                    ",
"                                                                    ",
"                                                                    ",
"                                          XX                        ",
"                                         X-X                        ",
"                      o.                 X%:X%                      ",
"                     oOOo.                X*%-%                     ",
"                     oOOOX..              .o%**%                    ",
"                    o@@OOXXX..     ++++++.%ooo%.                    ",
"                    oO@@oXXXXX.  ++=;;;&&&.%X..                     ",
"                     XX@%%XXXXXX+=&+++&;;=&.                        ",
"                   ..  XX%%%XXX+=&-:::-+;;&&+                       ",
"                  o##..  ..%%X+=&-:::::-&;=&&+                      ",
"                  o###X..  .XX+;+:::::::+;;&&&+                     ",
"                 o$$##XXX..XX+=;+::.::::+;;&&&+                     ",
"                 o#$$oXXXXX%**=;+:::::::+;;=&&&+                    ",
"                  XX$%oXXX%-.:*;&-:::::-&;;;&&&+                    ",
"                    oo%%XXo.o.%;;&-:::-&;;;;&&&XXoo                 ",
"                      oo%%X*.*o;;;&+++&;;;;;&.oo%%%ooo              ",
"                        X.%...&;;;;;;;;;;;;=.XXXXoo%%%oo            ",
"                             .&=;;;;;;%**;;&.XXXXXXXo%%@oo          ",
"                              .&=;;;;%-.:;=.XXXXXXXXXXX@@@o         ",
"                      &&&++++ .&&&===o.o.*&.XXXoo..XXXOOO@o         ",
"                    &&====&&&++.&&&&&X*.*%&.XXooX  ..XOOOX          ",
"                   &:;;;;;%**&&+.&&&&&...o=.XXX%%oo  .XOOX          ",
"                  &:::;;;%-.:*&&+..&&&&&.==.XXXo%%%oo  ..           ",
"              oXX&:::::;;o.o.%&&&+ .....==...XXXXo%%$oo             ",
"            oo%%o&;:::;;;X*.*o&&&+     &.&&&&.XXXXXX$$$o            ",
"            o%%o&=;;:;;;;;...&&&&&.   &=&=;;;=..XXX###$o            ",
"            %%oX&;;;&+++&;;;=&&&&&.  &=;;;;;:;;=..X###X             ",
"          oo#XXX&;;&-:::-+;;;&&&&&. &=%*;;;:::;;=&.X##X             ",
"         o$$#XXX+;&-:::::-&;;=&&&&. &%-.*;:::::;;&&&..              ",
"         $$##XX.+;+:::::::+;;;&&&&.&;o..:*;:::;;;=&&+               ",
"        o$$##..o+;+::.:::ooXX;&&&&.&;X*o.%=;:;;;;;&&&+              ",
"        o$$X o%+==+::::oo%%%oX&&&&.&;;..*o==&+++&;&&&+.ooo          ",
"        o$$oo%%o++-::o%%%%XXXX.&&. +;;;..==&-:::-+&&&.o%%%oo        ",
"         .. o%oX+&+oo%%oXXXXXX&&&. +;;;===&-:::::-&&&.XXo%%%oo      ",
"           o@OXXX+.$$#XXXXXXXX..  +;;;;;;=+:::::::+&.XXXXo#$$#o     ",
"          o@OOXXXo$$##XXXXXoXX.   +=;;;;;+::::::::+&.X..XX##$$o     ",
"         o@@OOXX.o$$###X.Xo%XX.    +=;;;;+::::.::+&..XXo.X##$$o     ",
"          @@OX..  o$$#...X%%XX.    +..;;;+-:::::-+&.Xooo.X##$$X     ",
"          X@o.    X$$.  X%%XXX.   Xo%o..;;+-:::-+&&.Xo%. ..$$.      ",
"          X@       .. oX%%oXX.   X%oXXXX..;+++++&&+.XX%%o  ..       ",
"           X.        o@@OXXXX.  X%oXXXXXXX.&&&&&&+ .XXo%%oX         ",
"                    X@@OOXXX.   X%XXXXXXXX.&&&&+..  .XXo%%%XX       ",
"                    X@@OOOX.   X%oXXX.XXXXX.....o*oX.XXXoO@@OX      ",
"                     X@@O..    X%XXX..ooXXX.   .%o**X.XXXOO@@X      ",
"                     X@@.     X@OXX.  .%XXX.    .*%.X .XXOO@@X      ",
"                      ..      X@OOO.  X%XXX.    X*.%o  ..XO@@.      ",
"                             X@OOO.  o%oXX.      X.o     ..@@.      ",
"                             X@@OO. oo%XXX.                ..       ",
"                             oX@@.  o$#XX.                          ",
"                               XX  X$$###.                          ",
"                                   X$###.                           ",
"                                   o$$##.                           ",
"                                    X$$.                            ",
"                                     XX                             "
};
