/* XPM */
static char *_9b895b7ccde44cd9810329572cc8bb6PbIIwTxp22dvxavu_109[] = {
/* columns rows colors chars-per-pixel */
"68 59 16 1 ",
"  c None",
". c #101010",
"X c #3A3131",
"o c #524A4A",
"O c #EF1900",
"+ c #5A8463",
"@ c #FF8C4A",
"# c #2984AD",
"$ c #52CEF7",
"% c gray55",
"& c #8CB5A5",
"* c gray71",
"= c #B5D6BD",
"- c gray84",
"; c #D6F7DE",
": c white",
/* pixels */
"                                                                    ",
"                                o.                                  ",
"                               oOO                                  ",
"                               oOOo.                XX              ",
"                              o@@OOX..             X-:X%            ",
"                              oO@@OXXX.            X%*%-%           ",
"                              XX@%oXXXX.            Xo%**           ",
"                           o..  X%%XXXX.  ++=++++++ .ooo%%          ",
"                           o##.. X%%%XXXX+=&+;;;&&&%%X....          ",
"                          oo###X. ..%%XX+=&-:++&;;=..               ",
"                          o$$##XX.  .XX+=&-::::-+;;&&+              ",
"                           #$$oXXX..XX++;+::::::-&;=&&+             ",
"                           X$%oXXXX%%**=;+::.::::+;;&&&+            ",
"                            oo%%XX%-.:*;+::::::::+;;&&&+            ",
"                              oo%Xo.o.%;&-::::::+;;=&&&+            ",
"                                X%X*.*o;;&-::::-&;;;&&&+            ",
"                                 .%...o;;;&+::-&;;;;&&&X            ",
"                                     .&;;;;;++&;;;;;&.ooXoo         ",
"                             &&&     .&=;;;;;;;;;;;=.XXX%%%ooo      ",
"                          &&&===++++ .&=;;;;;%**;;;&.XXXXoo%%o      ",
"                         &&:;;;;=&&&++&&&===%-.:*&.XXXXXXXXoo%oo    ",
"                    ooX &::::;;;;%**&&.&&&&&o.o.%&.XXXoXXXXXX%@oo   ",
"                    o%%X&;::::;;%-.:*&+.&&&&X*.*o=.XXooo..XXXX@@@o  ",
"                  o%%o&=;;::;;;;o.o.%&&+..&&&...==.XXX%X  ..XOOO@o  ",
"                 o%%oX&;;;:;;;;;*.*o&&&++ ..&&&===.XXXo%oo  .OOOX   ",
"                o$$XXX&;;&&+++&;...&&&&+   ....&&...XXX%%%oo XOOX   ",
"                $$##XX+;&--:::-+;;=&&&&&.    &&=;&&.XXXo%%$oo...    ",
"                o$##X.+;+::::::-;;;&&&&&.   &=;;;;;=..XXXX$$$       ",
"               o$$X ..+;+:::::::&;;=&&&&. &&=;;;;;:;;=.XX###$o      ",
"               o$$o o+=+::.:::o:+;;;&&&&. &=%**;::::;;=.X###Xo      ",
"                ..  %%++-:::oo%oXX;&&&&.&;;%-.:*;::::;;&.X##X       ",
"                  oo%o+&+::o%%%%%oX&&&&.&;X.o.%=;::;;;;&&&..X       ",
"                  o@OXX+.oo%%oXXXXX.&&&.&;;*.*o==:;;;;=&&+          ",
"                 o@@OXXo$$$#XXXXXXXX&&. +;;...==&&+++&;&&&+         ",
"                X@@OXXXo$$##XXXXXXXX.&. +;;;===&&-:::-;&&&+.        ",
"                 X@OX. o$###X.XXooXX..  +;;;;;=+-:::::+&&&.oooo     ",
"                 X@o.  X$$#...Xo%XX.   +=;;;;;;+::::::-&&&.X%%%oo   ",
"                  X     .$.  X%%%XX.    +=;;;;+:::::::++&.XXXo%%%o  ",
"                   .     . oX%%%XXX.    +.;;;;+-:::.::+&.X..Xo#$$#o ",
"                          o@@OXoXX.    Xo%...;;+:::::-+&.XXoXX##$#o ",
"                         X@@OOXXXX.   X%oXoXX..;-:::-++&.Xoo.X##$$o ",
"                         @@OOOXX.    X%oXXXXXXX.+++++&&&.Xooo.X#$$o ",
"                         X@@O.X.   XX%XXXXXXXXX.&&&&&&&+.XX%. ..$$X ",
"                         X@@. .    X%oXXX.XXXXX.&&&+.+ .XXX%%o  .$. ",
"                          ..      X@%XXX. ooXXX.....o.  .XX%%oX     ",
"                                  X@OXX.  .%XXX.   .%*oX.XXo%%%XX   ",
"                                 X@OOOO. oX%XXX.    .o**X.XXoO@@O   ",
"                                X@@OOO.  o%oXX..    X*%.X .XXOO@@X  ",
"                                oX@@O. o$%XXX.       *.%o  XXOO@@X  ",
"                                  X@.  o$#XX.        .o    ..XO@@X  ",
"                                   X  X$####.               ..@@.   ",
"                                      X$$##.                  ...   ",
"                                      oX$##.                        ",
"                                        X$.                         ",
"                                                                    ",
"                                                                    ",
"                                                                    ",
"                                                                    ",
"                                                                    "
};
