/* XPM */
static char *_9b895b7ccde44cd9810329572cc8bb6PbIIwTxp22dvxavu_79[] = {
/* columns rows colors chars-per-pixel */
"68 59 16 1 ",
"  c None",
". c #101010",
"X c #3A3131",
"o c #524A4A",
"O c #EF1900",
"+ c #5A8463",
"@ c #FF8C4A",
"# c #2984AD",
"$ c #52CEF7",
"% c gray55",
"& c #8CB5A5",
"* c gray71",
"= c #B5D6BD",
"- c gray84",
"; c #D6F7DE",
": c white",
/* pixels */
"                                                                    ",
"                                                                    ",
"                                                                    ",
"                                  XX                                ",
"                                  X-:X%                             ",
"                                  X%*%-%                            ",
"                   .               Xo%**%                           ",
"                  oO               .ooo%.                           ",
"                 oOOo.         +++.%%X..                            ",
"               o@OOOX.      +++;&&&..                               ",
"               oO@OOXX.   ++=;;&;;=&&+                              ",
"             . X@@@XXXX. +=&+++-+;;=&&+                             ",
"            o#. X@%%XXXX+=&-::::-&;;&&&+                            ",
"          oo###. XX%%XX+=&-::::::+;;&&&+                            ",
"          o$$##X  ..%XX+;+:::::::+;;=&&&+                           ",
"          ##$##X... .%+=;+::.:::::+;;;&&&+                          ",
"           XX$oXXXX.X%**=;+::::::-&;;;&&&.  oo o  o                 ",
"             o%oXXXX%-.:*;&-::::-&;;;;&&&.oo%%%%@o@o                ",
"             oo%XXXXo.o.%;;&-::+&;;;;=&XXo%o%o%X@@@oo               ",
"              ooXXXXX*.*o;;;&++;;;;;;&&oo%oXXXXXOOOX                ",
"                %%XXX...&;;;;;;;%**;=&.oXXXXXXXXOOOX                ",
"                X.X*XXX.&=;;;;;%-.:*&.XXXXX....XXOO.                ",
"                  %*    .&=;;;;o.o.%&..XXXX       .                 ",
"                    +++ .&&&===X*.*o==XXXoo%oooooo                  ",
"                &&&+&&&++.&&&&&&...==.XXooo%%%%$o$$o                ",
"              &&====%**&&+.&&&&&&&==...XXX%XXoXX$#$                 ",
"             &:;;;;;-.:*&&+..&&....&&&.XXXoXXXXX###X                ",
"            &:::;;;%.oo.%&&&+ .   &&=;;..XXXXXXXX###X               ",
"        X   &:::::;;X*.*o&&&+    &=;;;;:;..=.&...X..                ",
"        %oX &;:::;;;;...&&&&&.  &=;;;;:::;;;&&&+  .                 ",
"        %oX&=;;:;;;;;;;=&&&&&.  =%**;:::::;;=&&+                    ",
"      oo%XX&;;;&+++&+;;;&&&&&. &%-.:*;:::;;;;&&&+                   ",
"      o%oXX&;;&-:::--&;;=&&&&. &o.o.%=;:;;;&;&&&+o oo oo            ",
"      o%XXX+;&-::::::+;;;&&&&.&;X*.*o==&+++-+&&.o%%o%o#$o           ",
"     oo#XXX+;+:::::::X;X;&&&&.&;;...==&-::::-&&o%o%%$$$$o           ",
"     o$##Xo+;+::.:::o%oX.&&&&.&;;;===&-::::::+.XXXXo##$$XX          ",
"     o$##.%+=+:::::o%XXXX&&&. +;;;;;=+:::::::+&XXXXX##$$$.          ",
"     o$#X %%++-::::%XXXXXX.&. +;;;;;;+:::::::+.X...XXX#..           ",
"      $$o %o+&+-:oo%XXXXXX..  +;;;;;;;+::::.:-+..XXoo..             ",
"      o$ oOXX++&++o%XXXXooXX.  ++=;;;;+-::::-+&&.Xo%.  oXXXX        ",
"        .o@@XX.+&&%%XXXXo%XX.   ..X...;+-:::+&&+.Xo%%%%%%@OOX       ",
"         o@OOX. oo#XXX.X%%XXX   oXXXX.;;++++&&+  .XXo%%oOO@@X       ",
"         X@@X....$###. %%%XX.  .XXXXXXX.&&&&+..  .XXXo%XOO@@.       ",
"          X@o.  $$###  X%oXX. o%XXXXXXX.&&&&.o*oX  .XXXXOOO@@.      ",
"          X@   o$$$$#oX%XXXX.XoXXXXoXXX......%o**X ..XX..X.@.       ",
"           X.    o$$.@@@OXX. XoXX.oo%XXX.    .*%.X  . .  . ..       ",
"                 X$. o@OOOX X%XXX. .%XX.     X*.%o                  ",
"                     @@OOO. X%oXX  XoXXX.     X.o                   ",
"                    XXX@@.  X%oX.  o%XX.                            ",
"                      X@@   X%XXO. o#XX.                            ",
"                      X .    @@OO. o$###.                           ",
"                             X@OOO. o$##.                           ",
"                             XOOO. X$###.                           ",
"                             X@@O  XX$$$.                           ",
"                             XX@@   oXXX                            ",
"                             o  X     X                             ",
"                                                                    ",
"                                                                    ",
"                                                                    "
};
