/* XPM */
static char *_9b895b7ccde44cd9810329572cc8bb6PbIIwTxp22dvxavu_117[] = {
/* columns rows colors chars-per-pixel */
"68 59 16 1 ",
"  c None",
". c #101010",
"X c #3A3131",
"o c #524A4A",
"O c #EF1900",
"+ c #5A8463",
"@ c #FF8C4A",
"# c #2984AD",
"$ c #52CEF7",
"% c gray55",
"& c #8CB5A5",
"* c gray71",
"= c #B5D6BD",
"- c gray84",
"; c #D6F7DE",
": c white",
/* pixels */
"                                                                    ",
"                                                                    ",
"                                                                    ",
"                                                                    ",
"                                                                    ",
"                                            XX                      ",
"                            o              X-:X%                    ",
"                          oOO.             X%*%-%                   ",
"                         o@OOo.             Xo%**%                  ",
"                         O@OOOX      +      .ooo%.                  ",
"                   o o.. X@@OX..   ++=+++++.%%X..                   ",
"                   o o##  @%oXXX  +=&+;;;&&&..                      ",
"                   #$$##..XX%XXX.+=&-:++&;;=&&+                     ",
"                   X#$##X  .%%XX+=&-::::-+;;=&&+                    ",
"                    X$oXX....%XX+;+::::::-&;;&&&+                   ",
"                     $%XXX.  %%+=;+::.::::+;;&&&+                   ",
"                     o%XXXX.X%**=;+:::::::+;;=&&&+                  ",
"                      %%XXXX%-.:*;&-::::::+;;;&&&+                  ",
"                      o%XXXXo.o.%;;&-::::-&;;;&&&.                  ",
"                      X%XXXX*.*oo;;;&:::-&;;;;&&&.  oooo            ",
"                       .%XXX...&;;;;;++&;;;;=&&&oo%o%%%@ooo         ",
"                        %*XXXX.&=;;;;;;;;;;;&&X%%o%ooXXO@@o         ",
"                               .&=;;;;;%**;=&&o%ooXXXXOOOX          ",
"                       &&&++++ .&&&==;%-.:*&..XXXXXXXXXOOOX         ",
"                     &&====&&&++.&&&&=o.o.%&.XXXXX.....OOO          ",
"                    &:;;;;;%**&&+.&&&&X*.*o=..XXoo     X .          ",
"             oXXXX&&:::;;;%-.:*&&+..&&&...===XXXooXoooo             ",
"             o%%XX&:::::;;o.o.%&&&+ .&&&&==...XXo%%%%%%oo$o         ",
"            oo%oX&=;:::;;;X*.*o&&&+  .....&&&.XXXXoXoXX$$$o         ",
"           o%%XXX&=;;:;;;;;...&&&&&.    &&=;;;.XXXXXXXX###X         ",
"           o%%XXX&;;;&+++&;;;=&&&&&.   &=;;;;:.XXXXXXXX###X         ",
"          oo#XXXX+;;&-:::-+;;;&&&&&.  &=;;;;:::;;..... #X#.         ",
"         o$$#XXX.+;&-:::::-&;;=&&&&. &=%**;:::::;;&&&+ . .          ",
"         o$$##X.o+;+:::::::+;;;&&&&. &%-.:*;:::;;;=&&+              ",
"         o$$#X.o%+;+::.::::X;X;&&&&.&;o.o.%=;:;;;;;&&&+             ",
"         o$$$o.o%%=+::::::oXoX.&&&&.&;X*.*o==&+++&;&&&o             ",
"         o$$   %%o++-::::o%%XXXX.&. &;;...==&-:::-+&&oo ooooo       ",
"          ..oo@OXX&+-::o%%XXXXXX... +;;;===&-:::::-&.%o%o%o##o      ",
"            o@@OXX+&+++%%XXXXoXX.  +;;;;;==+:::::::.oX%%%#$$$o      ",
"            @@OOXX.+&&o%ooXXXoXXX. +;;;;;;+:::::::+.XXXoo##$$$X     ",
"           oX@@OX.. ++o%XXXXXo%XX.  =;;;;;+::::.::+XX.XXX##$$.      ",
"            X@@o.    o$#XXX.X%XXX. .+=;;;;+-:::::-+.XX..XX#.$.      ",
"            X@@     ..$###. %%%XX....X.X.;;+-:::-+&..Xooo . .       ",
"              X.     $$###. X%oXX.%oXXXX...;+++++&&+.Xo%.o oXXXX    ",
"                    oo$$$. X%OXXXooXXXXXXX.&&&&&&&+  .o%%%%o%XOOX   ",
"                      o$$. @@OXXX%XXXXXXXXX.&&&&+..  .XXo%%%O@@@X   ",
"                       X..o@OOOOXooXXXooXXX......o*oX XXXXXoOO@@@.  ",
"                          X@@OO.X%XXX.o%XXX.    .%o**X .XXXXXOO@@.  ",
"                          X@@@@.XooXX. X%XX.     .*%.X ...XXXXO.@.  ",
"                            X@. X%XXX  %oXX.     X*.%o    . . . .   ",
"                            X . X%OX.  o%XX.      X.o               ",
"                                X@OXO. o####                        ",
"                                X@OO.  o$##.                        ",
"                                 @OOO. o####                        ",
"                                X@@OO  X$$#.                        ",
"                                 oX@@  X$X$X                        ",
"                                   X    o X                         ",
"                                                                    ",
"                                                                    "
};
