/* XPM */
static char *_9b895b7ccde44cd9810329572cc8bb6PbIIwTxp22dvxavu_120[] = {
/* columns rows colors chars-per-pixel */
"68 59 16 1 ",
"  c None",
". c #101010",
"X c #3A3131",
"o c #524A4A",
"O c #EF1900",
"+ c #5A8463",
"@ c #FF8C4A",
"# c #2984AD",
"$ c #52CEF7",
"% c gray55",
"& c #8CB5A5",
"* c gray71",
"= c #B5D6BD",
"- c gray84",
"; c #D6F7DE",
": c white",
/* pixels */
"                                                                    ",
"                                                                    ",
"                                                                    ",
"                                                                    ",
"                                                                    ",
"                                                                    ",
"                                        XX                          ",
"                                       X-:X%                        ",
"                      o.               X%*%-%                       ",
"                     oOO                Xo%**%                      ",
"                     oOOo.              .ooo%.                      ",
"                   o@@OOOX..     ++++++.%%X..                       ",
"                    O@@oXXX.   ++=;;;&&&..                          ",
"                  ..XX@%XXXX. +=&+++&;;=&&+                         ",
"                 o##  XX%XXXX+=&-:::-+;;=&&+                        ",
"               oo###.  .%%%X+=&-:::::-&;;&&&+                       ",
"               o$$##X....%%X+;+:::::::+;;&&&+                       ",
"               o#$$#XXX  .X+=;+::.::::+;;=&&&+                      ",
"               XXX$oXXX..%**=;+:::::::+;;;&&&+                      ",
"                 oooXXXX%-.:*;&-:::::-&;;;&&&.                      ",
"                   %%XXXo.o.%;;&-:::-&;;;;&&&Xoo oo                 ",
"                   oo%%XX*.*o;;;&+++&;;;;=&&X%%%o%%oooo             ",
"                     X.XX...&;;;;;;;;;;;;&.ooXoo%oo%%@@@o           ",
"                      %%**X.&=;;;;;;%**;=.XXXXXXXXXXXOO@o           ",
"                            .&=;;;;%-.:*&&.XXXXXXXXXOOOX            ",
"                    &&&++++ .&&&===o.o.%&&XXXoo....XOOOX            ",
"                  &&====&&&++.&&&&&X*.*o=.XXXoX     . ..            ",
"                 &:;;;;;%**&&+.&&&&&...==..XXo%%oooo                ",
"                &:::;;;%-.:*&&+..&&&&&==...XXXo%%%%$ooo             ",
"          oXXXX&:::::;;o.o.%&&&+ ......&&&.XXXXXo%X$$$o             ",
"          o%%XX&;:::;;;X*.*o&&&+     &&=;;;.XXXXXXX###X             ",
"         oo%oX&=;;:;;;;;...&&&&&.   &=;;;;:;;...XXX###X             ",
"        o%%XXX&;;;&+++&;;;=&&&&&.  &=;;;;:::;;=&...X##              ",
"        o%%XXX&;;&-:::-+;;;&&&&&. &=%**;:::::;;&&&+ ..              ",
"       oo#XXXX+;&-:::::-&;;=&&&&. &%-.:*;:::;;;=&&+                 ",
"      o$$#XXX.+;+:::::::+;;;&&&&.&;o.o.%=;:;;;;;&&&+                ",
"      o$$##X.o+;+::.::::XX;;&&&&.&;X*.*o==&+++&;&&&+oo  o           ",
"      o$$#X.o%+=+::::::oo%oX.&&&.&;;...==&-:::-+&&&.o%%o%oo         ",
"      o$$$o.o%%++-:::oo%%XXX.&&. +;;;===&-:::::-&&.o%o%%%$#o        ",
"       o$$  %%o+&+-::%%%XXXXX.&. +;;;;;=+:::::::+&.XXXo#$$$o        ",
"        ..oo@OXX+&++o%oXXXXXXX.  +;;;;;;+:::::::+.XXXXXX##$$o       ",
"          o@@OXX.+ooo#XXXXXoXX.  +=;;;;;+::::.::+&.X.o.X##$$X       ",
"          @@OOXX. .$$#XXXXo%XX.   +=;;;;+-:::::-+&.XXoo.X.$$.       ",
"         oX@@OX.  $$###X.X%%XX.   ......;+-:::-+&&.Xo%. . ..        ",
"          X@@o.  o$$##.. %%%XX.   .oXXXX.;+++++&&+.Xo%%%ooX         ",
"          X@@    o o$$.  X%oXX. Xo%XXXXX.&&&&&&&+  .XXo%%o%XXX      ",
"            X.     X$$ oX%XXXX X%oXXXXXXX.&&&&+..  .XXXo%%@@OX      ",
"                    ..o@@OXXX. %oXXXXXXXXX.....o*oX .XXXoOO@@@X     ",
"                      @@OOOOX. X%XXX.ooXXX.   .%o**X...XXXOO@@.     ",
"                      X@@OO..  %oXX. .%XXX.    .*%.X   .XXXO@@.     ",
"                       X@@.   X%XXX  X%XX.     X*.%o    ....@@      ",
"                       X@@    X%XX.  o%XXX.     X.o          .      ",
"                         ..   X@OOO. o%XX.                          ",
"                              X@OO. o$#X#.                          ",
"                             X@OOO. o$##.                           ",
"                             X@@@.  X$###.                          ",
"                              oXXX  X$$#.                           ",
"                                    oX$$                            ",
"                                      XX                            "
};
