/* XPM */
static char *_9b895b7ccde44cd9810329572cc8bb6PbIIwTxp22dvxavu_29[] = {
/* columns rows colors chars-per-pixel */
"68 59 16 1 ",
"  c None",
". c #101010",
"X c #3A3131",
"o c #524A4A",
"O c #EF1900",
"+ c #5A8463",
"@ c #FF8C4A",
"# c #2984AD",
"$ c #52CEF7",
"% c gray55",
"& c #8CB5A5",
"* c gray71",
"= c #B5D6BD",
"- c gray84",
"; c #D6F7DE",
": c white",
/* pixels */
"                                                                    ",
"                                                                    ",
"                                                                    ",
"                                                                    ",
"                                     XX                             ",
"                                    X-:X%                           ",
"                                    X%*%-%                          ",
"                     o               Xo%**%                         ",
"                   oOO               .ooo%.                         ",
"                  ooOOo       ++++++.%%X..                          ",
"                  O@OOX.     +=;;;&&&..                             ",
"                  O@@OXX.   +&+++&;;=&&+                            ",
"               o..X@%XXX.. +=-:::-+;;=&&+                           ",
"              o##. XX%XXXX+=&:::::-&;;&&&+                          ",
"             o$###. .%%XX+=&-::::::+;;&&&+                          ",
"             o###X....%XX+;+::.::::+;;=&&&+                         ",
"             XX$oXXX  XX+=;+:::::::+;;;&&&+                         ",
"               $oXXX.X%**=;+::::::-&;;;&&&.o o  oo                  ",
"              oo%XXXX%-.:*;&--:::-&;;;;&&XX%o%%o@@@o                ",
"                o%XXXo.o.%;;&-+++&;;;;;=&.oooo%%X@O@                ",
"                 %%XXXX*.*o;;;;;;;;;;;;&&&XXXXXXXOOX                ",
"                  X.XXX...&;;;;;;;%**;=&&.XXXXXX.OOO                ",
"                    %*XX .&=;;;;;%-.:*&&&&XXXo.. . .                ",
"                          .&=;===o.o.%&&=.XXoX  o o                 ",
"                  &&&++++ .&&&&&&X*.*o===..Xo%oo%$oo                ",
"                &&====&&&++.&&&&&&...===. .XXo%%X$$$o               ",
"               &:;;;;;%**&&+.&.&&&&&==..   XXXXoX##X                ",
"              &:::;;;%-.:*&&+. ......&&&&+++.XXXXX##X               ",
"            X&:::::;;o.o.%&&&+     &&=;;;=&&+..X..X.                ",
"          oX%&;:::;;;X*.*o&&&+.   &=;;;;:;;=&&+ .  .                ",
"         oo%&=;;:;;;;;...&&&&&.  &=;;;;:::;;=&&+                    ",
"        o%%%&;;;&+++&;;;=&&&&&. &=%**;:::::;;&&&+                   ",
"        %%oX&;;&-:::-+;;;&&&&&. &%-.:*;:::;;;=&&++                  ",
"      oo#XXX+;&-:::::-&;;=&&&&.&;o.o.%=;:;;;;;&&&+                  ",
"     o$$#XXX+;+:::::::+;;;&&&&.&;X*.*o==&+++&;&&&+    oo            ",
"    o$$##XX.+;+::.::::+;;;&&&&.&;;...==&-:::-+&&&+  .o%o            ",
"    o$$##..o+=+:::::::+;o;oX&&.+;;;===&-:::::-&&&+ .XXXo%o          ",
"    o$$#X o%+++-:::::o+o%%%X&. +;;;;;=+::::::::+&&+ .XXX%%o         ",
"     o$$o o%%+&+-:::.$o%o%%XoX. +;;;;;;+:::::::+&&+.X.XX#$o         ",
"      .. o%%%XX+&+++o$##XXXXX.  +=;;;;;+::::.::+&+ .Xo.X#$#         ",
"         o@OXXX.+&&&$$#XXXXXXX   .=.;;;+-:::::-+&+ Xoo.##$o         ",
"        o@OOXX.  ++&o$##XXXoX.  .XX..;;;+-:::-+&& .X%. X$$o         ",
"       o@@OOX.     +$$#..X%XX  o%XXXX=;;;+++++&&+ .X%% .$.          ",
"       X@@OX.       .   %%%X.  %XXXXXX.&&&&&&&&+  .X%%o...          ",
"       X@@o.         oo%%%XX.  oXXXXXX.&&&&&&+..  .Xo%%             ",
"       X@@          X@@OoXX.   %XX.oXXX.......o*oX.XoO%X            ",
"         X.        X@@OXXX.   XoXX .%XX      .%o**.XXO@OX           ",
"                    XOOOX..    oXX  %XX       .*%.oXOO@X            ",
"                   X@@.X.     X%XX o%XX.      X*.% .X@@X            ",
"                    .. .       %OO. %XX        X.o ..@@             ",
"                    .         X@OO.o$##.             @.             ",
"                               X@O. $##.             .              ",
"                              X@@@.X$##.                            ",
"                               XXX  X$$.                            ",
"                               o    oXX                             ",
"                                      X                             ",
"                                                                    ",
"                                                                    ",
"                                                                    "
};
