/* XPM */
static char *_9b895b7ccde44cd9810329572cc8bb6PbIIwTxp22dvxavu_45[] = {
/* columns rows colors chars-per-pixel */
"68 59 16 1 ",
"  c None",
". c #101010",
"X c #3A3131",
"o c #524A4A",
"O c #EF1900",
"+ c #5A8463",
"@ c #FF8C4A",
"# c #2984AD",
"$ c #52CEF7",
"% c gray55",
"& c #8CB5A5",
"* c gray71",
"= c #B5D6BD",
"- c gray84",
"; c #D6F7DE",
": c white",
/* pixels */
"                                                                    ",
"                                                                    ",
"                                                                    ",
"                                                                    ",
"                                     XX                             ",
"                                    X-:X%                           ",
"                                    X%*%-%                          ",
"                     o               Xo%**%                         ",
"                   oOO.              .ooo%.                         ",
"                  o@OOo.      ++++++.%%X..                          ",
"                  O@OOOX     +=;;;&&&..                             ",
"              o.. X@@OX..   +&+++&;;=&&+                            ",
"            o o##  @%oXXX  +=-:::-+;;=&&+                           ",
"            o$$##..XX%XXX.+=&:::::-&;;&&&+                          ",
"            ##$##X  .%%XX+=&-::::::+;;&&&+                          ",
"            XX$oXX....%XX+;+::.::::+;;=&&&+                         ",
"              $%XXX.  %%+=;+:::::::+;;;&&&+                         ",
"              o%XXXX.X%**=;+::::::-&;;;&&&.     oooo                ",
"               %%XXXX%-.:*;&--:::-&;;;;&&&.  ooo@@@@@o              ",
"               o%XXXXo.o.%;;&-+++&;;;;;=&&oo%o%%XXOOX               ",
"                X%XXXXX*.*o;;;;;;;;;;;;&&X%%o%ooXOOOOX              ",
"                  .%XXX...&;;;;;;;%**;=&&o%ooXXXXXOOO               ",
"                   %*XXXX.&=;;;;;%-.:*&..XXXXXXX..X .               ",
"                          .&=;===o.o.%&.XXXXX...                    ",
"                  &&&++++ .&&&&&&X*.*o=..XXoo   oooo$o              ",
"                &&====&&&++.&&&&&&...===XXXooXoo%%$$$o              ",
"               &:;;;;;%**&&+.&.&&&&&==...XXo%%%%XX###X              ",
"              &:::;;;%-.:*&&+. ......&&&.XXXXoXoXX###X              ",
"             &:::::;;o.o.%&&&+     &&=;;;.XXXXXXXX#X#.              ",
"          oXX&;:::;;;X*.*o&&&+.   &=;;;;:.XXXXXXX . .               ",
"         o%%&=;;:;;;;;...&&&&&.  &=;;;;:::;;.....                   ",
"         o%o&;;;&+++&;;;=&&&&&. &=%**;:::::;;&&&+                   ",
"        o%oX&;;&-:::-+;;;&&&&&. &%-.:*;:::;;;=&&++                  ",
"       o%%XX+;&-:::::-&;;=&&&&.&;o.o.%=;:;;;;;&&&o ooooo            ",
"      o$$XXX+;+:::::::+;;;&&&&.&;X*.*o==&+++&;&&&o%o%o##o           ",
"      $$##X.+;+::.::::X;X;&&&&.&;;...==&-:::-+&&o%%%#$$$o           ",
"      o$##..+=+::::::oXoX.&&&&.+;;;===&-:::::-&.%XXo###$$$X         ",
"      o$$X o+++-::::o%%XXXX.&. +;;;;;=+::::::::.oXXXXX##$$.         ",
"      o$$o %%+&+-::o%%XXXXXX... +;;;;;;+:::::::+.X...XX#.$.         ",
"       ..  %%XX+&+++%%XXXXoXX.  +=;;;;;+::::.::+XXXooo . .          ",
"          ooOXXX+&&o%ooXXXoXXX.  +=;;;;+-:::::-+..Xo%.o oXXXX       ",
"          o@OXX. ++o%XXXXXo%XX. ..X.X.;;+-:::-+&..Xo%%%%o%XOOX      ",
"         o@@OX.   o$#XXX.X%XXX...XXXX...;+++++&&+ .XXo%%%O@@@X      ",
"         X@@O.   ..$###. %%%XX.%oXXXXXX.&&&&&&&+  .XXXXXoOO@@@.     ",
"          X@o     $$###. X%oXX.oXXXXXXXX.&&&&+..    .XXXXXOO@@.     ",
"          X@     oo$$$. X%OXXXoXXXXooXXX......o*oXX ...XXXXO.@.     ",
"           X.      o$$. @@OXXX%oXX.o%XXX.    .%o**X    . . . .      ",
"                    X..o@OOOOXooXX. X%XX.     .*%.o                 ",
"                       X@@OO.X%XXX  %oXX.     X*.%                  ",
"                       X@@@@.XooX.  o%XX.      X.o                  ",
"                         X@. X%XXO. o####                           ",
"                         X . X%OO.  o$##.                           ",
"                             X@OOO. o####                           ",
"                             X@OOO  X$$#.                           ",
"                              @O@@  X$X$X                           ",
"                             X@@XX   o X                            ",
"                               o                                    ",
"                                                                    ",
"                                                                    "
};
