/* XPM */
static char *_9b895b7ccde44cd9810329572cc8bb6PbIIwTxp22dvxavu_56[] = {
/* columns rows colors chars-per-pixel */
"68 59 16 1 ",
"  c None",
". c #101010",
"X c #3A3131",
"o c #524A4A",
"O c #EF1900",
"+ c #5A8463",
"@ c #FF8C4A",
"# c #2984AD",
"$ c #52CEF7",
"% c gray55",
"& c #8CB5A5",
"* c gray71",
"= c #B5D6BD",
"- c gray84",
"; c #D6F7DE",
": c white",
/* pixels */
"                                                                    ",
"                                                                    ",
"                                                                    ",
"                                                                    ",
"                            o .                 XX                  ",
"                            oOOo               X-:X%                ",
"                           o@OOO.              X%*%-%               ",
"                           oO@OOX..             Xo%**%              ",
"                            X@@oXXX..    ++++++ .ooo%.              ",
"                          .. X@%XXXXX. ++=;;;&&.%%X..               ",
"                        o##..XXX%XXXX++=&+++&;;&..                  ",
"                        o##X. .%%XX+=&&-:::-++;=&&+                 ",
"                       o$##XX...%%X+;+-:::::-&;=&&+                 ",
"                      o#$$oXXX  .X+=;+:::::::+;;&&&+                ",
"                       XX$%oXX..%**=;+::.::::+;;&&&+                ",
"                         oo%%XX%-.:*;+:::::::+;;=&&&+               ",
"                           ooXXo.o.%;&-:::::-&;;;&&&+               ",
"                            o%XX*.*o;;&-:::-&;;;;&&&.               ",
"                             X%X...&;;;&+++&;;;;;&&&XXo             ",
"                             %%*  .&=;;;;;;;;;;;=&.oo%%ooo          ",
"                          &&      .&=;;;;;%**;;&&&.XXXo%%%%o        ",
"                        &&==&++++ .&&;;;;%-.:*=&&.XXXXXXo%%@o       ",
"                       &:;;;==&&&++.&&===o.o.%&&.XXXXXXXXXX@@o      ",
"                      &:::;;;;%**&&+.&&&&X*.*o&&.XXXoo.XXXOOO@o     ",
"                 oooX&:::::;;%-.:*&&+&&&&&...===.XXooX...XOOOX      ",
"                o%%%%&;:::;;;o.o.%&&&..&&&&&====.XXX%%   .XOOX      ",
"              oo%%o%&=;;:;;;;X*.*o&&&+ ......&...XXXo%ooo  ..       ",
"            o$$#XXX&;;;;&+++;;...&&&&+     &&&&&&+XXXX%%%$o         ",
"           o$$##XXX&;;&-:::-;;;=&&&&&&.   &=;=;;;=&XXXo%X$$$        ",
"           o$$##XX.+;&-:::::+;;;&&&&&.  &=;;;;;:;;;=.XXX###$o       ",
"           o$$#X..o+;+::::::-&;;=&&&&. &=%**;;:::;;=&.X###X         ",
"           o$$o. o%+;+::.::::+;;;&&&&. &%-.:*:::::;;&&XX##X         ",
"            ..  o%%+=+:::::::+;;;&&&&.&;o.o.%;:::;;;=&&+..          ",
"              oo%%oo++-:::::oooXX&&&&.&;X*.*o=;:;;;;;&&+            ",
"             o@@OXoX+&+-:ooo%%%%oX&&&.&;;...===&+++&;&&&+           ",
"            o@@OOXXXX+&+.$#%oXXXXX.&. +;;;====&-:::-+&&&+           ",
"           X@@OOXXX..+o$$##XXXXXXXX.. +;;;;;=&-:::::-&&&+ .ooo      ",
"           X@@OX...  o$$###XXXXXX.   ++;;;;;;+:::::::+&&+.X%%%      ",
"           X@@o.      o$$#.X.XXXX.   +=;;;;;+:::::::++&&.XXXo%oo    ",
"            X.        X$$. ..X%XX.    +=;;;;+::::.::+&&.X.XXo#%oo   ",
"                       .. o %%%XX.    +...;;;-:::::-+&&.XX.XX#$#o   ",
"                         o@%%%XXX.     oXX..;+-:::-+&&+.Xoo.##$$o   ",
"                        @@OO%oXX.    XoXXXXX;;+++++&&&+.Xoo.X#$$o   ",
"                       X@@OOXXXX.  XX%oXXXXX.&&&&&&&++ .X%. ..$$X   ",
"                        X@@OXXX.   X%oXXXXXX.&&&&&+..  .X%%o  $$.   ",
"                       X@@@OOX.    X%XXX.ooXX......o*  .Xo%%oX..    ",
"                        .....     X%XX. ..%XX.    .%ooX.XXo%%%      ",
"                                 X@%XX  X%XXX.    .*%*XX.XXoO@X     ",
"                                 X@OXX o%oXXX.    X*..X XXXO@@X     ",
"                                X@OOOO. %XXX.      X.%o .XOO@@X     ",
"                                 @@OO. o$XX..        o  ..XO@@X     ",
"                                 o@OO. o$##.              ..@@.     ",
"                                   @.  $###.                .@.     ",
"                                   X  X$$##.                 .      ",
"                                      XX$$.                         ",
"                                       XX                           ",
"                                                                    ",
"                                                                    ",
"                                                                    "
};
