/* XPM */
static char *_[] = {
/* columns rows colors chars-per-pixel */
"65 66 65 1 ",
"  c None",
". c #300000",
"X c #313101",
"o c #382810",
"O c #480000",
"+ c #700000",
"@ c #483818",
"# c #503818",
"$ c #404000",
"% c #484800",
"& c #585800",
"* c #686800",
"= c #717105",
"- c #71710B",
"; c #564125",
": c #5C4629",
"> c #5D492D",
", c #505021",
"< c #56562B",
"1 c #635038",
"2 c #505050",
"3 c #675743",
"4 c #6A5C4B",
"5 c #65654A",
"6 c #747440",
"7 c #6E6E5C",
"8 c #70675B",
"9 c #787867",
"0 c #767169",
"q c #68767D",
"w c #D00000",
"e c #E00000",
"r c #A14C4C",
"t c #8B7159",
"y c #808000",
"u c #909000",
"i c #989800",
"p c #8D8D15",
"a c #93931D",
"s c #A8A800",
"d c #B8B800",
"f c #ABAB1D",
"g c #8B8B25",
"h c #9D9D22",
"j c #898937",
"k c #989832",
"l c #ADAD26",
"z c #ADAD39",
"x c #C0C000",
"c c #D0D000",
"v c #DFDF01",
"b c #CBCB1C",
"n c #E0E000",
"m c #E8E800",
"M c #F8F800",
"N c #939345",
"B c #808050",
"V c #80805A",
"C c #A2A249",
"Z c #A1A172",
"A c #AAAA70",
"S c #F7F752",
"D c #F8F850",
"F c #CECE60",
"G c #F8F8F8",
/* pixels */
"                                                                 ",
"                                                                 ",
"                                                                 ",
"                                                                 ",
"                                                                 ",
"                                                                 ",
"                                                                 ",
"                                                                 ",
"                                                                 ",
"                                                                 ",
"                                                                 ",
"                                                                 ",
"                                                                 ",
"                                                                 ",
"                                                                 ",
"                                                                 ",
"                                                                 ",
"                                                                 ",
"                                                                 ",
"                                                                 ",
"                                                                 ",
"                                                                 ",
"                                                                 ",
"                                                                 ",
"                                                                 ",
"                                                                 ",
"                                                                 ",
"                                                                 ",
"                                                                 ",
"                                                                 ",
"                                                                 ",
"                                                                 ",
"                                                                 ",
"                                                                 ",
"                                                                 ",
"                                                                 ",
"                                                                 ",
"                                                                 ",
"                                                                 ",
"                                                                 ",
"                                                                 ",
"                                                                 ",
"                                                                 ",
"                                                                 ",
"                                                                 ",
"                                                                 ",
"                                                                 ",
"                                                                 ",
"                                                                 ",
"                         BjgaflzA                                ",
"                       C&*=uiidxcGt                              ",
"                       bGGMnncii*&,                              ",
"                       rGeMwx+iO*.5                              ",
"                        vumud=i%*X                               ",
"                        ZMmxsiu*&7                               ",
"                         FMxiu*&<                                ",
"                          y=&$$X                                 ",
"                           yy&X                                  ",
"                           sy&X                                  ",
"                          9GDy&0                                 ",
"                           &&&X                                  ",
"                          SGDdy$q  431>>10                       ",
"                        6mGmnDdu&$ooo@@##:                       ",
"                         VNkhp-=*2###;:18                        ",
"                                                                 ",
"                                                                 "
};
