/* XPM */
static char *_[] = {
/* columns rows colors chars-per-pixel */
"65 66 58 1 ",
"  c None",
". c black",
"X c #100000",
"o c #200800",
"O c #383000",
"+ c #400000",
"@ c #500000",
"# c #680000",
"$ c #700000",
"% c #483818",
"& c #503818",
"* c #404000",
"= c #484800",
"- c #485800",
"; c #686800",
": c #6A6A0D",
"> c #6D6D1A",
", c #564125",
"< c #584020",
"1 c #5D4B33",
"2 c #6F6F24",
"3 c #717134",
"4 c #007070",
"5 c #635542",
"6 c #6A5C4B",
"7 c #6A5F51",
"8 c #79795B",
"9 c #726B61",
"0 c #7A7A60",
"q c #7B7B69",
"w c #63747D",
"e c #6B777E",
"r c #A00000",
"t c #B00000",
"y c #A86840",
"u c #00F800",
"i c #588F58",
"p c #808000",
"a c #8E8E0B",
"s c #909000",
"d c #808015",
"f c #B8B800",
"g c #80803A",
"h c #A0A036",
"j c #D0D000",
"k c #E0E000",
"l c #80804A",
"z c #808051",
"x c #808058",
"c c #999958",
"v c #838363",
"b c #8B8B6D",
"n c #F8A858",
"m c #000088",
"M c #0000E0",
"N c #5860F8",
"B c #F8B080",
"V c #B8B8F8",
/* pixels */
"                                                                 ",
"                                                                 ",
"                                                                 ",
"                                                                 ",
"                                                                 ",
"                                                                 ",
"                                                                 ",
"                                                                 ",
"                                                                 ",
"                                                                 ",
"                                                                 ",
"                                                                 ",
"                                                                 ",
"                                                                 ",
"                                                                 ",
"                                                                 ",
"                                                                 ",
"                                                                 ",
"                                                                 ",
"                                                                 ",
"                                                                 ",
"                                                                 ",
"                                                                 ",
"                                                                 ",
"                                                                 ",
"                                                                 ",
"                                                                 ",
"                                                                 ",
"                                                                 ",
"                                                                 ",
"                                                                 ",
"                                                                 ",
"                                                                 ",
"                                                                 ",
"                                                                 ",
"                                                                 ",
"                                                                 ",
"                                                                 ",
"                                                                 ",
"                                                                 ",
"                                                                 ",
"                                                                 ",
"                                                                 ",
"                                                                 ",
"                                                                 ",
"                                                                 ",
"                                                                 ",
"                                                                 ",
"                                                                 ",
"                                                                 ",
"                                                                 ",
"                             ii                                  ",
"                       xghheu--Oecb                              ",
"                     x#rjppkoOo.VNM=a8                           ",
"                     l#psjynfo.<mMm<B<3                          ",
"                      z=s+fffffffffffffq                         ",
"                       es$p;XXXXXXXXXX;3                         ",
"                        s$pXX@@@@@@@@@@:                         ",
"                        s$pX@s@4s;4@s@@;                         ",
"                        s$pX@;;;**;;;X@;                         ",
"                     v8 stpX@;X4;;4X;X@;                         ",
"                   >;ww;wpp;@@X@XXXX@X;;%%&<                     ",
"                      0 32p;;;;;;;;;;;;;%=*&<6                   ",
"                            &&&&&&&&&&&&,1579                    ",
"                           d;s;wwwwe                             ",
"                                                                 "
};
