/* XPM */
static char *cd0e1e0e187e4506b309b3d5214307006djxz1rlDaJ6rgj9_55[] = {
/* columns rows colors chars-per-pixel */
"79 73 15 1 ",
"  c None",
". c #101010",
"X c #524210",
"o c #734210",
"O c #526329",
"+ c #A56B21",
"@ c #8C7342",
"# c #73AD31",
"$ c #B59C4A",
"% c #E6AD5A",
"& c #9CD64A",
"* c #FFDE6B",
"= c #FFEFA5",
"- c #CECECE",
"; c white",
/* pixels */
"                                                                               ",
"                                                                               ",
"                                                                               ",
"                     OOOO                         OOO.                         ",
"                   ..&&&&OOO           OO       OO&&.                          ",
"                     ..&&&&&O         O&O      O&&&.                           ",
"                       ..&&&&OO       O&O     O&&&.                            ",
"                         .&&&&&O     O&&O    O&&&.                             ",
"                          .&&&&&O    O&#O   O&&&.                              ",
"                           .&&&&&O   O&O   O&&&#.                              ",
"             OOOOOOOOOO     .&&&&&O O&&O  O&&&#.                               ",
"           OO&&&&&&&&&&OOO   .&&&&O O&#O  O&&##.        OOOOOO                 ",
"          ........&&&&&&&&OO .#&&&&O&&#O O&&&#.      OOO&&&&&&..               ",
"                  ...&&&&&&&OO.#&&&O&&##OO&&##.    OO&&&&&&...                 ",
"                     ...&&&&&#.##&&O&###O&&##.   OO&&&&&&..                    ",
"                        ..&&&&&O##&#&###O&&##.  .#&&&&&..                      ",
"              OOOOOOOOO   .&&&&&O###&###O####. .#&&&&&.                        ",
"           OOO&&&&&&&&&OOO .&&&&#O###########..#&&##...OOOOOOO                 ",
"         OO&&&&&&&&&&#####OO.&&&##.#########..#####..&&&&&&&&&OOO              ",
"        ............#########.##############.####..##&&&&&&&&&&&&OO            ",
"                    ....######.#################.######&&&&&&&&&&&&OO          ",
"                   OOOOOOOOO##..##############OO#########........&&&&O         ",
"                OOO&&&&&&&##OO#.#############O########...        ......        ",
"              OO&&&&&&&&######OO.###########O#######..                         ",
"             O&&&&&&&###########.################OOOOOOO                       ",
"           OO&&&&&........#####################OO##&&&&&OOO                    ",
"          O&&&....     oo....##############.....#####&&&&&&OO                  ",
"         O&&..       oo%%%%%...##########..**%%%..#####&&&&&&O                 ",
"        ....        o%%%%%%%%ooo..######o******%%%....#####&&#O                ",
"                   o%%%%%%%oo%*%%%..###o********%%%.  ....#####O               ",
"                   o%%%%%%o%*****%%%.##o*********%oo.     ...###O              ",
"                  o%;;.%%+*====****%%.o**********o.;.        ..##O             ",
"                  o%%;**+*=====****%%%o****%++***%;;+.         ..#O            ",
"                oo%%%**+*=======****%o%*+%%.;+****++%.           .#O           ",
"               o=******+====%===****%o%*+;;;%*****%%%%.           ..           ",
"                .****+*+=%===++++%**%.%**+%%*****%%%o%.                        ",
"                 ...o*%++%===;.;;;%*%.%%*******%%%o.o%.                        ",
"                  o+o*+;.%===;;;;;%*%.%%%****+o...oo%%.                        ",
"                   o%*o;;%===*;;;***%.%%%%%%%%oo+++o%%.                        ",
"                   o**o%%=====****+*%.%%%%%%%%%%o.o%%%.                        ",
"                  o**%***===***%+o*%%%.%%%%%%%%%%%%%%.                         ",
"                   o%%...ooooo++;.*%%%.%%%%%%%%%%%%%%.                         ",
"                    oo%%..;..+%%.+%%%%%.%%%%%%%%%%%%.                          ",
"                      oo.%.o.%%%%o%%%%%..%%%%%%%%%%.                           ",
"                         .%%o%%%+%%%%%.@@..%%%%%%..                            ",
"                          .%%+oo%%%%%.@@@@@......                              ",
"                           ..%%%%%%..@@@@@@@@@.                                ",
"                             ......@@@@@@@@@@@X.                               ",
"                             X$$$$$@@@@@@@@@XX@.                               ",
"                            X$@@$$$$@@@@@XXX@@@.                               ",
"                            X$$$@@@@XXXXX@@@@@@@.                              ",
"                            X$$$$$$$@@@@@@@@@@@@.                              ",
"                           X$$$$$$$$@@@@@@@@@@@@.                              ",
"                           X$$$$$$$$@@@@@@@@@@@@X.                             ",
"                           XX$$$$$$@@@@@@@@@@@@X@.                             ",
"                           .$@@$$$$@@@@@@@@@@XX@@.                             ",
"                           .$$$@@@$@@@@@@@XXX@@@@.                             ",
"                           .@$$$$$XXXXXXXX@@@@@XX.                             ",
"                           ..@$$@@@@@@@@@@@@@XX@@@.                            ",
"                          X$.@@@@@@@@@@@@@@@X$$@@@@.                           ",
"                         X$$$.@@@@@@@@@@@@@X$$$$@XX.                           ",
"                         X@$$$.@@@@@@@@@@@@X$$$@X@@@.                          ",
"                         .$@@@X..@@@@@@@@@X$$@@$$@@@.                          ",
"                         .$$$$@@@....@@@@.X$@$$$$@@@.                          ",
"                          .$$@@@@@@. .... .X$$$$@@@@.                          ",
"                          .X@@@@@@X.       .@$$@@@@@.                          ",
"                         .@@XXXXXX@@.      .X@@@@@@X.                          ",
"                         .X@@@@@@@@@.     .@@XXXXXX@@.                         ",
"                        .-X@XX@@@@@@.     .@@@@@@@@@@.                         ",
"                       .--XX--X@@@..      .@@@@@XX@@X-.                        ",
"                       ....;;-X...         ..@@X;-X@X--.                       ",
"                           ....              ..X;;;.....                       ",
"                                               ....                            "
};
