/* XPM */
static char *cd0e1e0e187e4506b309b3d5214307006djxz1rlDaJ6rgj9_87[] = {
/* columns rows colors chars-per-pixel */
"79 73 15 1 ",
"  c None",
". c #101010",
"X c #524210",
"o c #734210",
"O c #526329",
"+ c #A56B21",
"@ c #8C7342",
"# c #73AD31",
"$ c #B59C4A",
"% c #E6AD5A",
"& c #9CD64A",
"* c #FFDE6B",
"= c #FFEFA5",
"- c #CECECE",
"; c white",
/* pixels */
"                                                                               ",
"                                                                               ",
"                                                                               ",
"                                                                               ",
"                                                                               ",
"                      OO                O            OOO.                      ",
"                   OOO&&OOO            O&O         OO&&.                       ",
"                 ...&&&&&&&O           O&O        O&&&.                        ",
"                    ....&&&&OO        O&&O      O&&&&.                         ",
"                        .&&&&&O       O&#O    OO&&&.                           ",
"                         .&&&&&O      O&OO   O&&&&.                            ",
"                          .&&&&&O    O&&O   O&&&&#.                            ",
"                           .&&&&&O   O&#O   O&&&#.                             ",
"            OOOOOOOOOOOOO   .&&&&O  O&&#O  O&&&##.        OO                   ",
"          OO&&&&&&&&&&&&&OO .#&&&&OOO&&#O  O&&##.      OOO&&OOOO               ",
"         ........&&&&&&&&&&OO.#&&&&#O&###OO&&###.    OO&&&&&&&&&..             ",
"                 ...&&.&&&&&#..##&&##&###OO&&##.   OO&&&&&&.&...               ",
"                    .. ..&&&&&&O##&##&###O#####.  .#&&&&&.. .                  ",
"             OOOOOOOO&OOO .&&&&&O########O#####. .#&&&&&.                      ",
"            O&&&&&&&&####OO.&&&&#O#############..#&&##...                      ",
"          OO&&&&&&&&########.&&&#############...#####...&.OOOOO                ",
"        OO&&.......##..######.##############.#####...###&&&&&&&OO              ",
"       .....       ..OOOOOOO#O.#############.###OO.######&&&&&&&&OOO           ",
"                  OOO&&&&&##O#..###############O#########&&&&&&&&&&&O          ",
"               OOO&&&&&&#######.##############O############....&&&&&&O         ",
"             OO&&&&&&###########.############O########.....    ....&&OOO       ",
"             O&&&&&&&.....######.###############OO#OOOOO           ..&&O       ",
"             &&&&&...  oo....#.#############.....###&&&&OO           ....      ",
"           OO&....   oo%%%%%....#########...**%%%..###&&&&OOO                  ",
"          O&&.      o%%%%%%%%%ooo..#####o*******%%%.####&&&&OO                 ",
"         O&&.      o%%%%%%%ooo%*%%%..##o*********%%%...#&&&&&&                 ",
"        ....       o%%%%%%o%%*****%%%.#o**********%oo. .####&&O                ",
"                  o%;;.%%+*=====****%%o***********o.;.  ...####O               ",
"                  o%%;**+*======****%%o*****%++***%;;+.    ...##O              ",
"                oo%%%**+*========****o%*+%%%.;+****++%.       ###O             ",
"               o=******+=====%===****o%*+;;;;%*****%%%%.      ..##O            ",
"                .****+*+=%====++++%**.%**+%%%*****%%%o%.       ...#O           ",
"                 ...o*%++%====;.;;;%*.%%********%%%o.o%.         .#O           ",
"                  o+o*+;.%====;;;;;%*.%%%*****+o...oo%%.          ..           ",
"                   o%*o;;%====*;;;***.%%%%%%%%%oo+++o%%.                       ",
"                   o**o%%======****+*.%%%%%%%%%%%o.o%%%.                       ",
"                  o**%***====***%+o*%%.%%%%%%%%%%%%%%%.                        ",
"                   o%%...oooooo++;.*%%.%%%%%%%%%%%%%%%.                        ",
"                    oo%%..;...+%%.+%%%%.%%%%%%%%%%%%%.                         ",
"                      oo.%.oo.%%%%o%%%%%.%%%%%%%%%%%.                          ",
"                         .%%%o%%%+%%%%%.@...%%%%%%..                           ",
"                          .%%%+oo%%%%%.@@@@@......                             ",
"                           ...%%%%%%..@@@@@@@@@.                               ",
"                             .......@@@@@@@@@@@X.                              ",
"                             X$$$$$@@@@@@@@@@XX@.                              ",
"                            X$@@$$$$@@@@@@XXX@@@.                              ",
"                            X$$$@@@@XXXXXX@@@@@@@.                             ",
"                            X$$$$$$$@@@@@@@@@@@@@.                             ",
"                           X$$$$$$$$@@@@@@@@@@@@@.                             ",
"                           X$$$$$$$$@@@@@@@@@@@@@X.                            ",
"                           XX$$$$$$@@@@@@@@@@@@@X@.                            ",
"                           .$@@$$$$@@@@@@@@@@@XX@@.                            ",
"                           .$$$@@@$@@@@@@@@XXX@@@@.                            ",
"                           .@$$$$$XXXXXXXXX@@@@@XX.                            ",
"                           ..@$$@@@@@@@@@@@@@@XX@@@.                           ",
"                          X$.@@@@@@@@@@@@@@@@X$$@@@@.                          ",
"                         X$$$.@@@@@@@@@@@@@XX$$$$@XX.                          ",
"                         X@$$$.@@@@@@@@@@@@XX$$$@X@@@.                         ",
"                         .$@@@X..@@@@@@@@@X$$$@@$$@@@.                         ",
"                          .$$@@@@....@@@@@X$$@$$$$@@@.                         ",
"                          .X@@@@@@X. ..... ..@$$@@@@@.                         ",
"                         .@@XXXXXX@@.      ..X@@@@@@X.                         ",
"                         .X@@@@@@@@@.     .@@@XXXXXX@@.                        ",
"                        .-X@XX@@@@@@.     .@@@@@@@@@@@.                        ",
"                       .--XX--X@@@..      .@@@@@@XX@@X-.                       ",
"                       ....;;-X...         ...@@X;-X@X--.                      ",
"                           ....               ..X;;;.....                      ",
"                                                ....                           "
};
