/* XPM */
static char *_46e5657b759458ace6fa36706edd330KNGxWf31U7CSxgSd_66[] = {
/* columns rows colors chars-per-pixel */
"76 59 16 1 ",
"  c None",
". c black",
"X c #523A10",
"o c #4A3A29",
"O c #634A31",
"+ c #3A3A4A",
"@ c #8C6321",
"# c #8C6B52",
"$ c #B58431",
"% c #AD8C73",
"& c #DEA54A",
"* c #E6C57B",
"= c #6B6B84",
"- c #9C9CAD",
"; c #CECEDE",
": c white",
/* pixels */
"                                                                            ",
"                                                                            ",
"                                         +                                  ",
"                                         ++                                 ",
"                                         +-++-                              ",
"                                         +----+                             ",
"                                        ++=---+                             ",
"                                         .=====                             ",
"                                          ===.=..                           ",
"                                          ....oo.                           ",
"                                                o....                       ",
"                                                 oooo                       ",
"                                                     ..              +++++++",
"                                                     oo.             +----+ ",
"                      O. .  XXXXXX                     o             ---=+  ",
"                     O%#.%..&&&&&&XX                   o.           +--=++  ",
"                   OO%%%%%%%oo&&&&&&XXX       +        o.            +-==   ",
"                 OO%%%%%%%%%%%oo&&&&&&&XX    ++        o.            ++++   ",
"                O%%%%%%%%%%%%%%%o&&&&&&&&XXXXXXXXX     o.           o+      ",
"               O%%%%%%%%%%%%%%%%%o&&&&&&&&&XX&&&&&XXX  o.          oo.      ",
"              O%%%%%%%%%%%%%%%%%%%o&&&&&&&&&&&&&&&&$$Xo..           .       ",
"             O%%%%%%%.-.%%%%%%%%%%o&&&&&&&&&&&&&&&&&$$...o         o        ",
"            O%%%%%%%%.--.%%%%%%%%%%.&&&&&&&&&&&&&&&&$$$..         oo        ",
"            .%%%%%%%%.--..%%%%%%%%%.&&&&&&&&&&&&&&&&&$$$..       Oo.        ",
"           .%%%%%%%%%.=-=.%%%%%%%%%%.&&&&&&&&&&&&&&&&$$$..oo     ..         ",
"           .%%%.%X%%.--==.%%%%%%%%%%.&&&&&&&&&&&&&&&&$$$.O.oo  oo.          ",
"           ....@.X..---==.%#%#%%%#%##.&&&&&&&&&&&&&&&$$$$.O.......          ",
"          ..$$$$$.+-=;-==.##%##%%####.&&&&&&&&&&&&&&&$$$$.                  ",
"         .&&&&&&&&;+;-==.%######%####.&&&&&&&&&&&&&&$$$$$.                  ",
"         .*-&&&&&+-+-===.O###########.&&&&&&&&&&&&&&$$$$$.                  ",
" +++    .***&&&&&&+=++=.OO###########.&&&&&&&&&&&&&&$$$$$.                  ",
"  -+   .**-++&&&&&$+=+.OOOO##########.&&&&&&&&&&&&&&$$$$$.                  ",
" +-+ ++-.*-:+&&&&&$$+$$.OO#O########.&&&&&&&&&&&&&&$$$$$$.                  ",
"..------**-+$&&&&&&$$$.OO#O#O#######.&&&&&&&&&$&$&$$$$$$$.                  ",
" .=--;;.**-**+&&X;X$$$.OOO#O########.&&&&&&&&$&$&$$X$$$$.                   ",
" .==-===.**-;+&&X::$$$.OOOO#O###O###.&&&&&&$$$$&$$$X$$$$.                   ",
"  ..=.==.**+-+&&$.:$$$OOOOOOOO#OO##.$$&&$$$$$$$$$$X@$$$$.                   ",
"    .....$$**+&&X:@$$.OOOOOOOO#OOO#.$$$$$$$$$$$$$$X@$$$$.                   ",
"          X&&&&&X$$$$.OOOOOOOOOOOO.$$$$$$$$$$$$$$. .$$$$.                   ",
"          X&&&&&&$$$.OOOOOOOOOOOO.$$$$$X$$$$$$$$.  .$$$$$.                  ",
"           XX&&&&$$$.OOOOOOOOOOO.$$&&$X$$$$$$$..    .$$$$.                  ",
"            X&&&&$$$.OOOOOOOOOOO.$&&&&X$$$$$...     .$$$$@.                 ",
"            XX&&&OO$.OOOOOOOOOO.$$&&&&.$$$..XXX.     .$$@@@.                ",
"             X&##OO.OOOOOOOOOOO.$$&&&&.....XXXXX.     .@@@@.                ",
"             .##OO..OOOOOOOOOO.$$$&&&&.    .XXXX.      .@@@.                ",
"             ..O..OOOOOOOOOOOO..$$&&&&.    .XXX.       .@@@.                ",
"             ....OOOOOOOOOOOOO..$$$&&.    .XXXX.        .@@@.               ",
"             .$&&....OOOOOOOO.  .$$$$.   .XXXX.         .@@@.               ",
"              .@$$@@@...OO.OO.  .$X$$.  .+++X.          .@@@.               ",
"               ..@@@@@+..O..O.   .X@@.  .++++.          .++=+.              ",
"                 ..@@++. .  .    .@X@.  .....           .++=+.              ",
"                   .+++.         .@@@.                   .....              ",
"                    ...          .$$@.                                      ",
"                                 .$$$.                                      ",
"                                .$$$.                                       ",
"                                .$$$.                                       ",
"                               .+=+@.                                       ",
"                               .+=++.                                       ",
"                               .....                                        "
};
