/* XPM */
static char *_12e2e77955d4a97868bfd6f4135965c5EJBHMT08QLpY1Zj_48[] = {
/* columns rows colors chars-per-pixel */
"81 74 12 1 ",
"  c None",
". c #101010",
"X c #523A7B",
"o c #9C1000",
"O c #C54219",
"+ c #F7734A",
"@ c #EFE652",
"# c #7B63AD",
"$ c #A584C5",
"% c #C5A5EF",
"& c #C5C5C5",
"* c white",
/* pixels */
"                                                                                 ",
"                                                                                 ",
"                                                                                 ",
"                                                                                 ",
"                                                                                 ",
"                                              #######                            ",
"                                           ###%%%%%%$###                         ",
"                                         ##%%%%%%%$##$$$##                       ",
"                                        X%%%%%%%%.**X$$$$$#X                     ",
"                                       X%%%%%%%$..**X$$$$$$#XXX                  ",
"                                      X%#%%#%%%%$$$$$#$$$$$$$X$XX                ",
"                                      X%$X.......$$$$X$$$$$$$$$$$XX              ",
"                                      X#XXXX.&.oo...XX$$$$$$$$$$$XX              ",
"                                       .&....*.oooooo.$X###$$$$$$$$XXX           ",
"                                        . .$$..oooooo.$############$$$XX         ",
"                                         #$$$$$.oooo+.$$X#############$$X        ",
"                                       ##$$$$$$.ooO++X$$X###############$X       ",
"                                      #$$$$$$$$$.O+++X$X.###XX..#########$X      ",
"                                     X$$$$....##.++++$$X##....#####...X###$X     ",
"                                   XX$$$$$$$$...O+.+X$X#....#####......####.     ",
"                                   XX$$$$$$$.*.OO.*OX$X...X####....OOO.#####XX   ",
"                                  X$$$..#$$$.*&OO&*X$X...###.....OOOOO.#####..   ",
"                                  X$$$..#$$$.#X...X$$....###.....OOOOO.#####..   ",
"                                  X$$....$$$$.%%%%$$.o..###....OO+@@OO.#######X  ",
"                                 X$$$.OOO..XXX..XXXX...###..OOO+@@@@OO.#######.  ",
"                                 .$$$.O@@OOOO..###....###..OOO@@@@@+OOX#######.  ",
"         XX X                    .$$$.oO@@@OOOO.X##.####..OO@@@@@@@O..#$#######. ",
"       XX$$$X$X                  .$$$..O@@@@@@OO.#######..O@@@@@@@+O..$$$######. ",
"       X$$$$$$$XX                .$$$X.o@@@@@@@O.X#####..OO@++O@@@O...$$$######. ",
"       XXX$X$$$XX$X              .$$$#..O@@+++@+..#####..OOOOO@@+OO.$$$$$$#####. ",
"             XX$$$X              .$$$$X..O@@@OOO..$$$$$X..OOOOOOO..$$$$$$$#####. ",
"             XX$$$$$X            X#$$$$X..oOOOOO.X$$$$$$...OOOO...$$..$$$$#####. ",
"               X$$$$X            X#$$$$X..oOOOOO.X$$$$$$...OOOO...$$..$$$$#####. ",
"               X$$$$$.            X$$$$$X........$$X$$$$#........$$...$$$#####.  ",
"                X$$$$.            .$$$$.$$#XX...$$....$$$$X....$$#..XX$$$#####.  ",
"                X$XX$.            .##$$X.#$$$$$$$......#$$$$$$$#....$$$$$#####.  ",
"                XX%$$$.            XX$$$...##$$#.........#$$##.....X$$$$####..   ",
"                 X%$$$.            ..X$$$..........................$$$$$####..   ",
"                X$%$$$$X             .$$$$........................$$$$$####.     ",
"                XX%%$$$               .$$$$......................$$$$$$####X     ",
"                 X%$$$X                .#$$$$..................X$$$$$$####.      ",
"                X$XXX$$.               ..#$$$$X...............#$$$$$#####.       ",
"                 XX%$XX                ..#$$$$X...............#$$$$$#####.       ",
"                 $%%$$XX                XX#$$$$$..........#$$$$$$$######.        ",
"                X$$%%$$.                 .####$$$#.....#$$$$$$$$$#####.X         ",
"                 X%%%$$.                  .####$$$#.##$$$$$$$$$$####..           ",
"                 X%%$$$$.                  ..##$$$$$$$$$$$$$$$####..             ",
"                XX$%%$X$.                    .#$$$$$$$$$$$$#####..               ",
"                 X$%XXXX..                  X$.$$$$$$$$$$$#####...               ",
"                 .$X%%$$$X              X  XX$.$$$$$$$$$$$####.###...            ",
"                  .X%%$$$$X          XXXXX#$XX.$$$$$$$$$$###..##XX###..          ",
"                  .$%%%%$$$XX        XX$$$$X$$.$$$$$$$$$$###..#X#######.         ",
"                   .$%%%$$X$XXXXXXXXX$$$$$$$X.$$$$$$$$$$$###..X#########.        ",
"                   .$%%%XX$$$$$X$$$$$$$$$$$$$.$XXXXX##$$$##.##X#########.        ",
"                   .$$$%X%$$$$X$$$$$$$$$$$$$$.X$$$$$#XX####.#XX##########.       ",
"                    XX$%%%%%%$$$$$$$$$$$$$$#.X$$$$$$$$$XX#.##X#####XXXXXX#.      ",
"                     X$X%$%%%%X$$$$$$$$$$###.$$$$$$$$$$##.###X###XX######X.      ",
"                      X$X$$$%XX$$$$$########X$$$$$$$$$###.###X##X#########X.     ",
"                      .X$$$$$$X$$##########.$$$$$$$$$$###.###.#.###########.     ",
"                        .#$$$$X############.$$$$$$$$$$###......XXXX########.     ",
"                         .#$##XX########...$$$$$$$$$$$###X.#...XXXX########.     ",
"                           .X.XX#####..X  .$$$$$$$$$$$##X####X#####X.######.     ",
"                            X .XX.....    .X$$$$$$$$$$#X######X######.#####.     ",
"                                          .$X#$$$$$$XX$#######X######X####.      ",
"                                           X$$$$$$$$$$$########X######.###.      ",
"                                          $.$$$$$$$$$$#########X######.##.       ",
"                                            .$$$$$$$$##########X######.##.       ",
"                                            .$$$$$$############X######.#.        ",
"                                             .$################X#####.#.         ",
"                                             .$##############XX######..          ",
"                                              ..#############..###X..            ",
"                                                ...#########.#XX...              ",
"                                                   .............                 ",
"                                                                                 "
};
