/* XPM */
static char *_12e2e77955d4a97868bfd6f4135965c5EJBHMT08QLpY1Zj_70[] = {
/* columns rows colors chars-per-pixel */
"81 74 12 1 ",
"  c None",
". c #101010",
"X c #523A7B",
"o c #9C1000",
"O c #C54219",
"+ c #F7734A",
"@ c #EFE652",
"# c #7B63AD",
"$ c #A584C5",
"% c #C5A5EF",
"& c #C5C5C5",
"* c white",
/* pixels */
"                                                                                 ",
"                                                                                 ",
"                                                                                 ",
"                                                                                 ",
"                                                                                 ",
"                                                                                 ",
"                                              #######                            ",
"                                           ###%%%%%%$###                         ",
"                                         ##%%%%%%%$##$$$$                        ",
"                                        X%%%%%%%%.**X$$$###X                     ",
"                                      X%%%%%%%$$..**X$$$$$#$XX                   ",
"                                     X%#%%#%%%%$$$$$#$$$$$$#X$XX                 ",
"                                     X%$X.......$$$$X$$$$$$$X$$$XX               ",
"                                     X#XXXX.&.oo...X$$$$$$$$$$$$$$XX             ",
"                                      .&....*..O+++X$$X$$$$$$#####$$XX           ",
"                                       .  #$.$.++++X$X####$$$#######$$X          ",
"                                        ##$.$.O+.+X$$X################$XX        ",
"                                        ##.*.OO.*OX$X#################$XX        ",
"                                       #$$.*&OO&*X$X########X..########$$X       ",
"                                      X$$$.#X...X$$.######...#####..X####$X      ",
"                                     X$$$$$.%%%%$$.#####....####.....#####.      ",
"                                     X$$$$$$..XXXX##..X...X###....OO.######X     ",
"                                    X$$..#$$$$#..........###....OOOO.######.     ",
"                                    X$....$$$$##..o.oo..###...OO+@@O.#######X    ",
"                                   X$$.OOO..XXX##......###..OO+@@@@O.#######.    ",
"                                   .$$.O@@OOO..###....###..OO@@@@@+OX#######.    ",
"                                   .$$.oO@@@OOO.X##.####..OO@@@@@@O.#$#######.   ",
"                                   .$$..O@@@@@OO.#######..O@@@@@@+O.$$$######.   ",
"            XXXX                   .$$X.o@@@@@@O.X#####..OO@+O@@@O..$$$######.   ",
"            $$$$XXXX               .$$#..O@@++@+..#####..OOOO@@+OO.$$$$$$####.   ",
"             XX$$$$$X              .$$$X..O@@OOO..$$$$$X..OOOOOO..$$$$$$$####.   ",
"               XX$$$XX             X#$$$X..oOOOO.X$$$$$$...OOO...$$.$$$$$####.   ",
"                 X$X$$X             X$$$$X.......$$X$$$$#.......$$..$$$#####.    ",
"                 XX$$$X             .$$$.$$#X...$$....$$$$X...$$#..X$$$#####.    ",
"                  X$$$$X            .#$$X.#$$$$$$......#$$$$$$#....$$$$#####.    ",
"                  X$$$$$X            X$$$...#$$#.........#$$#.....X$$$#####.     ",
"                   X$$$$.            .X$$$........................$$$$#####.     ",
"                   X$$$$.             .$$$$......................$$$$#####.      ",
"                   XXXXX.              .$$$$....................$$$$$#####X      ",
"                   X%$$X.               .#$$$.................X$$$$$#####.       ",
"                  X$%$$$.               ..#$$$X..............#$$$$$####..        ",
"                  X%%$$$.               ..#$$$X..............#$$$$$####..        ",
"                  X$%$$$$                XX#$$$$..........#$$$$$$#####.          ",
"                  XXXX$$X                 .###$$$#.....#$$$$$$$$####.X           ",
"                  X%%$X$.                  .###$$$#.##$$$$$$$$$####.             ",
"                 X$%%$$X                    .##$$$$$$$$$$$$$$####..              ",
"                 X$%%$$X                     .#$$$$$$$$$$$$####..                ",
"                 X%%%$$.                      .$$$$$$$$$$$####.                  ",
"                X$%%$$$..                   XX.$$$$$$$$$$$###.                   ",
"                 X$%%$X$.                 XX$$.$$$$$$$$$$###.XXX..               ",
"                 .$XXX$X.                X$$$.$$$$$$$$$$$###.#####...            ",
"                 .X%%$$$X               X$$$$.$XXXXX##$$$##.####XX###..          ",
"                 .$%%$$$$X            XXX##$$.$XXXXX#$$$###.###X#######.         ",
"                 .$%%%$$$X        X XX$$$$XX$.X$$$$$#XX###.###X#########.        ",
"                 .$%%%$$X$X XXXXXXXX$$$$$$$X.$$$$$$$$$$##.###XX##########.       ",
"                 .$$$%%XX$$$XX$$$$$$$$$$$$$$.$$$$$$$$$$##.###X#####XXXXXX#.      ",
"                  XX$%X%$$$$$X$$$$$$$$$$$$$$X$$$$$$$$$###.###X###XX######X.      ",
"                   X$X%%%$%$X$$$$$$$$$$$$$#.$$$$$$$$$$###.###X##X#########X.     ",
"                   X$X$%%%%X$$$$$$$$$$$$###.$$$$$$$$$$###.###.#.###########.     ",
"                   .X$$$$%%X$$$$$$$#######.$$$$$$$$$$$###X.....XXXX########.     ",
"                    X#$$$$XX$$$$##########.$$$$$$$$$$$###X#.#X#####X.######.     ",
"                    ..#$$$$X##############.$$$$$$$$$$$##X####X#####X.######.     ",
"                       .X##X###########..X.X$$$$$$$$$$#X######X######.#####.     ",
"                        X.XX.XX#####..X   .$X#$$$$$$XX$#######X######X####.      ",
"                          .X XXX......     X$$$$$$$$$$$########X######.###.      ",
"                                           .$$$$$$$$$$#########X######.##.       ",
"                                            .$$$$$$$$##########X######.#.        ",
"                                            .$$$$$$############X#####.#.         ",
"                                             .$###############X######..          ",
"                                              ..##############.###X..            ",
"                                                ...##########.#X...              ",
"                                                   .............                 ",
"                                                                                 ",
"                                                                                 "
};
