/* XPM */
static char *out[] = {
/* columns rows colors chars-per-pixel */
"50 50 209 2 ",
"   c None",
".  c #010001",
"X  c #0C0606",
"o  c #03020E",
"O  c #0B050A",
"+  c #07090B",
"@  c #0C0A0B",
"#  c #120C0B",
"$  c #0C1008",
"%  c #14110E",
"&  c #0D0413",
"*  c #0C0C12",
"=  c #120E12",
"-  c #141313",
";  c #191516",
":  c #161518",
">  c #191618",
",  c #171B19",
"<  c #1C1A1C",
"1  c #1B1817",
"2  c #2D000B",
"3  c #211D1D",
"4  c #20151F",
"5  c #25221F",
"6  c #1D1D23",
"7  c #171021",
"8  c #221D21",
"9  c #2B1D20",
"0  c #242324",
"q  c #292424",
"w  c #272827",
"e  c #2B2926",
"r  c #262428",
"t  c #29262A",
"y  c #2B2B2B",
"u  c #27292A",
"i  c #332A27",
"p  c #322C2D",
"a  c #392B2C",
"s  c #2F312F",
"d  c #32312F",
"f  c #2D2D30",
"g  c #292631",
"h  c #312E32",
"j  c #2D3533",
"k  c #343333",
"l  c #3C3233",
"z  c #3D3A3A",
"x  c #383A39",
"c  c #44242C",
"v  c #403F2A",
"b  c #482C34",
"n  c #552F38",
"m  c #463639",
"M  c #4B343B",
"N  c #433E3D",
"B  c #483D3E",
"V  c #4A3534",
"C  c #54353B",
"Z  c #5E433E",
"A  c #473D40",
"S  c #583B42",
"D  c #663D46",
"F  c #3F4846",
"G  c #444244",
"H  c #4B4443",
"J  c #4D4945",
"K  c #474649",
"L  c #4B4949",
"P  c #474B4A",
"I  c #5C4347",
"U  c #524944",
"Y  c #534D4C",
"T  c #5B4648",
"R  c #53514E",
"E  c #5A524D",
"W  c #4D4E50",
"Q  c #534F52",
"!  c #555252",
"~  c #5A5352",
"^  c #5C595A",
"/  c #4E5553",
"(  c #67464C",
")  c #664C52",
"_  c #7A4D56",
"`  c #625356",
"'  c #6F565A",
"]  c #6A5C5E",
"[  c #665659",
"{  c #7C555C",
"}  c #73595D",
"|  c #745659",
" . c #5D615E",
".. c #67655D",
"X. c #7D635F",
"o. c #795C62",
"O. c #5D6361",
"+. c #646363",
"@. c #6C6C6B",
"#. c #6A6766",
"$. c #746568",
"%. c #7F6A6C",
"&. c #766565",
"*. c #6E7068",
"=. c #74726A",
"-. c #747474",
";. c #7D7272",
":. c #7B7B7B",
">. c #797975",
",. c #7B6D72",
"<. c #80625F",
"1. c #845D65",
"2. c #8A6368",
"3. c #936B6F",
"4. c #98676D",
"5. c #87706C",
"6. c #847475",
"7. c #837579",
"8. c #8A7877",
"9. c #987876",
"0. c #967C7C",
"q. c #977877",
"w. c #906B73",
"e. c #A07D7C",
"r. c #8B857E",
"t. c #95827E",
"y. c #98817F",
"u. c #A1807E",
"i. c #937D80",
"p. c #888686",
"a. c #8D8C8B",
"s. c #858583",
"d. c #9D8383",
"f. c #9D8986",
"g. c #9B8589",
"h. c #97988D",
"j. c #9C9D9A",
"k. c #989B94",
"l. c #A58B89",
"z. c #A7938F",
"x. c #A08D91",
"c. c #AA9797",
"v. c #B49F9B",
"b. c #9EA19E",
"n. c #A4A49B",
"m. c #A9A89F",
"M. c #B3A49D",
"N. c #9DA8A1",
"B. c #AAA9A8",
"V. c #B3B5AC",
"C. c #B8B8AE",
"Z. c #BBB5AA",
"A. c #BCBCB3",
"S. c #B8B7B4",
"D. c #AFB3A9",
"F. c #C2BDB2",
"G. c #C2BBB5",
"H. c #C5C4BD",
"J. c #C9C8BB",
"K. c #D3C8BE",
"L. c #CDD2BD",
"P. c #D2D0B2",
"I. c #C5C4C0",
"U. c #CBCBC4",
"Y. c #CDCDCB",
"T. c #C8C6C4",
"R. c #D1CFC6",
"E. c #D0CFC9",
"W. c #D3D3CC",
"Q. c #D9D4CD",
"!. c #DCDBCC",
"~. c #DBDCC7",
"^. c #DDDBD3",
"/. c #DEDDDB",
"(. c #DAD7D0",
"). c #E2DECD",
"_. c #E1DFD5",
"`. c #DEE0DD",
"'. c #E8E6CD",
"]. c #E5E3D3",
"[. c #E9E9D5",
"{. c #E4E5DE",
"}. c #ECECDD",
"|. c #F1EFDA",
" X c #F1EBD2",
".X c #F9F5D6",
"XX c #DFE1E1",
"oX c #E3E4E1",
"OX c #ECEBE4",
"+X c #EEEDE8",
"@X c #E7E8E2",
"#X c #F0EFE2",
"$X c #EDF4EC",
"%X c #EFF0E6",
"&X c #F1F1E4",
"*X c #F8F7E3",
"=X c #F4F4EC",
"-X c #F9F7ED",
";X c #F6F9EE",
":X c #F9FCED",
">X c #FCFAE3",
",X c #EEF1F0",
"<X c #F4F5F4",
"1X c #FAF7F1",
"2X c #F5F9F1",
"3X c #FCFDF4",
"4X c #F6F5F8",
"5X c #FEFEFC",
"6X c #F8F7F8",
/* pixels */
"          s y q r 0 < < > ; - # O .                                                                 ",
"        - - @ > 8 , - % = - , , < < @ O                                                             ",
"        @ . O . . . . . . . . . . . . . =                                                           ",
"        : - . P O.F x j j x F / O.O.k . * z                                                         ",
"        @ y . j.3X$X$X$X$X$X$X$X;X3Xb.. y y                                                         ",
"        r k . a.5X3X3X5X3X3X3X:X:X5Xb.. x . p                                                       ",
"        . . . R ;X2X:X:X3X3X:X:X;X3Xk.. s . < H                                                     ",
"y + . ! :.@.-.s.=X3X:X;X:X;X:X:X:X:Xb.. y . . ; <                                                   ",
"0 0 . :.<X4X<X=X+X3X;X;X:X:X:X:X:X5XY.m 6.$.: . . :                                                 ",
"* e . @.4X5X5X3X=X3X3X3X3X3X:X3X3X5X/.o.x.7.& . @ 0                                                 ",
"@ w . #.=X5X1X5X$Xb.D.V.S.n.@X5X5X5X/.] g.,.o . . r                                                 ",
"@ w . #.<X5X3X3X@X. . . . . oX5X5X5XoXo.g.,.o . O ,                                                 ",
"@ u . #.<X5X3X5XOXy . 0 . . XX5X5X5XoXo.f.;.* . @ . u s f k                                         ",
"@ u . @.=X5X3X3XOXy * f > $ oX5X5X5XoX%.f.7.* . @ . + 6 6 6                                         ",
"- w . *.$X5X1X5X+X. . . . . XX5X6X5X@X5.f.6.* . @ . .                                               ",
"- w . @.=X5X1X5X+X. . h o k oX5X5X5X{.%.f.;.= . + . a.    S.                                        ",
". w . @.%X5X1X3X<X^.XXoXoXoX2X5X6X5X_.} i.,.> . . f I.^.Y.I.U.S.                                    ",
"* y . -.2X5X3X3X3X5X5X5X5X5X3X3X3X5XR.( 8.$.< . . :.W.Y.H.H.A.U.      U U                           ",
"  y . #.XX`._.1X3X1X3X4X3X6X3X3X3X3XU.C 6.#.: . . D.(.T.U.R.Y.W.A.    E E                           ",
"  : . 0 ^ 0 ~ =X5X3X3X6X3X3X3X3X;X3XH.b %.[ < . k T.W.Y.U.I.I.U.T.  H z l Z                         ",
"  6 : . . . . T.5X3X5X5X5X3X5X3X5X3XA.2 &.~ r . +.Y.Q.U.s.^ W K r 0 > O O , 5 q                     ",
"  f 4 < 8 p . U D.F.C.C.Z.C.A.J.R.].k.. ] A . . K U.^.G.s . > . % : - ; - - = , - + @ X             ",
"  x p = . O . n _ _ ( D C C n n M ~ H & l S.Q.B.+.A.].F.d . . . . . . . . . . . . . . . . y         ",
"    A 3 # # . ( 4.4.4.2.2.1.o.} ' ) b . i _.3X-X{.Q.].|._.U.H.S.D.m.n.k.h.r.>.;.$.3 8 = . * G J     ",
"      N z z @ C { | ' ) ) T I A m l h . < W.;X}.*X[.].*X3X3X3X5X5X3X3X3X5X3X:X3X-Xt.] p . . . N     ",
"            q . . . . . . . . . . . . . 7 U.-X}.[.`.!.&X;X;X3X:X1X3X3X3X3X:X:X:X-Xz.8.N . - . e     ",
"            3 . X X X X X X @ @ X . h 0 . A.;X}.&X[.`.:X3X:X:X3X3X3X3X:X:X:X3X3X&Xf.y.L . ; . -     ",
"            @ . . . + X X . . X . 0 V.U...p.&X{.).L.V.].3X3X3X3X3X3X5X3X3X3X3X3X&Xt.y.~ . 1 . #     ",
"            # + + . . . . . + : . k (.*X'.C.L.h.E H . s.6X5X5X5X=X{.@X}.#X3X3X5X{.5.t.` . 1 . #     ",
"              k k k z h q ; . . . s U.}. X XL.  . . . @.6X5X6X5Xj.0 ^ z =.+X5X5XQ.X.f.` . ; . #     ",
"                    ! P K y o g . . L.>X.X'..X    l . :.6X5X5X5Xa.. . . v #X5X5XQ.<.y.[ . ; . #     ",
"                      K 0 ! A.^.J.*.k.[.'.'.P.    i . :.6X5X6X5Xk.. z . ..=X5X5X).5.l.] . ; . -     ",
"                      K . @.).|.|.!.              i . -.4X5X6X5Xp.. . . ..<X5X5XQ.q.l.] . > . <     ",
"                      K . *.!.[.[.].            Z q . @.4X5X6X5XY.S.B.p.A.5X5X5XK.q.l.[ . > O a     ",
"                      K . +.).*X|.*X            V < . @.<X5X4X5X5X5X5X5X5X5X5X5XG.e.z.` . > ; M     ",
"                      W 0   ].].].).            l < . #.<X5X5X5X6X2X3X6X6X6X5X3Xc.9.l.L . * b A     ",
"                        h                       a , .  .,X5X+X<X:X;X;X-X<X-X3X@X8.e.0.r . - Z       ",
"                                                y - . L A.A.B.T.{.}.}.}.#X}.>XK.} e.q.3 . < N       ",
"                                                i . . y 7.l.d.c.v.M.Z.F.K.K.).F.&.9.q.: . 3         ",
"                                              ~ k . . , $.0.q.w.1.2.2.w.9.0.z.y.&.5.[ . . :         ",
"                                              ~ N . . + B ( ' { 1.{ { 1.{ { 1.) z p + . . *         ",
"                                              E N X . . . . . 3 c c c V M M m # . . . o . @         ",
"                                              R N 0 . . X X X . . . . . . . . . . O . . . @         ",
"                                              ! H a z # . . X X . . . . . . . . X . O O . +         ",
"                                                J z ~ k e 5 % . . . . . . . X . . . . . . q         ",
"                                                        G A q . X X X . . X . . O . O 0 p z         ",
"                                                        U U G < . . . . . . < f u                   ",
"                                      Y R ~             R E ~ ! N q 3 < 3 r z                       ",
"                                  Y Q ! Y ~ !           Y     ~ E Y H N V Z                         ",
"                                ! ! Y Q Q Q                         Y U U U                         "
};
