/* XPM */
static char *out[] = {
/* columns rows colors chars-per-pixel */
"50 81 143 2 ",
"   c None",
".  c #010102",
"X  c #01010C",
"o  c #07090A",
"O  c #0C0C0C",
"+  c #040214",
"@  c #090515",
"#  c #0B0A16",
"$  c #06031A",
"%  c #0A051B",
"&  c #07091D",
"*  c #0B0B1B",
"=  c #110E1A",
"-  c #0E111C",
";  c #12121D",
":  c #19151F",
">  c #0A0621",
",  c #0C0C21",
"<  c #110F23",
"1  c #0D1222",
"2  c #0E1820",
"3  c #131323",
"4  c #191724",
"5  c #151A24",
"6  c #1A1923",
"7  c #14132A",
"8  c #191728",
"9  c #16182A",
"0  c #1A1B2A",
"q  c #151034",
"w  c #191532",
"e  c #1A1F31",
"r  c #221E29",
"t  c #1D242D",
"y  c #1F292D",
"u  c #1F2534",
"i  c #252525",
"p  c #292827",
"a  c #22232C",
"s  c #20282E",
"d  c #2D2C2A",
"f  c #212633",
"g  c #232932",
"h  c #2B2B34",
"j  c #302C37",
"k  c #2C3135",
"l  c #323137",
"z  c #30333B",
"x  c #2E3340",
"c  c #323344",
"v  c #333C42",
"b  c #393E44",
"n  c #32324D",
"m  c #3A3F4A",
"M  c #323252",
"N  c #413F45",
"B  c #3C414C",
"V  c #3F4450",
"C  c #42444F",
"Z  c #4A4A4F",
"A  c #454A54",
"S  c #484F58",
"D  c #4E535B",
"F  c #50565E",
"G  c #555D65",
"H  c #5C6267",
"J  c #5E666B",
"K  c #656769",
"L  c #65696B",
"P  c #6A6C6E",
"I  c #646B73",
"U  c #6B6D74",
"Y  c #6D7074",
"T  c #6E737A",
"R  c #737475",
"E  c #74767C",
"W  c #7C7D7E",
"Q  c #767881",
"!  c #797B83",
"~  c #7D8185",
"^  c #7C8088",
"/  c #7F8793",
"(  c #818282",
")  c #828789",
"_  c #88898A",
"`  c #808794",
"'  c #838B96",
"]  c #8A8E96",
"[  c #8C949B",
"{  c #9C9F9F",
"}  c #949BA2",
"|  c #9D9BA0",
" . c #98A2A3",
".. c #9CA3A8",
"X. c #9DADAE",
"o. c #9FAAB3",
"O. c #A2A4A7",
"+. c #A6ABAD",
"@. c #A9AAAD",
"#. c #ABB2AF",
"$. c #A3ACB3",
"%. c #ABAFB2",
"&. c #ABB4B5",
"*. c #AFB9B7",
"=. c #ACB6BB",
"-. c #AFB8BB",
";. c #B2B9B7",
":. c #B2BBBC",
">. c #BDBEB8",
",. c #BAC2BE",
"<. c #C1C2BB",
"1. c #B3BBC2",
"2. c #BBBEC1",
"3. c #BBC3C5",
"4. c #BCC4C9",
"5. c #BFC8C8",
"6. c #C6C7C3",
"7. c #C0CAC1",
"8. c #C8C9C6",
"9. c #CBCBCA",
"0. c #D4D5CF",
"q. c #C5CFD0",
"w. c #C9D2D5",
"e. c #D3D4D1",
"r. c #D6DCD5",
"t. c #DADAD6",
"y. c #DDDCD9",
"u. c #E2DFDC",
"i. c #DBE2D7",
"p. c #DCE2D9",
"a. c #E2E3DD",
"s. c #E5EBDE",
"d. c #E6E4E1",
"f. c #E8E7E5",
"g. c #E5E9E3",
"h. c #ECEDE5",
"j. c #EDEDEC",
"k. c #EFF0E8",
"l. c #F2F4EC",
"z. c #F7FBEC",
"x. c #FBFEEE",
"c. c #FDFFF3",
"v. c #FFFFFB",
/* pixels */
"                                                                                                    ",
"                                                                                                    ",
"                                                                                                    ",
"                                                                                                    ",
"                                                                                                    ",
"                                                                                                    ",
"                                                                                                    ",
"                                                                                                    ",
"                                + + + + + + + + + + + + X + + X + X + + + X + X + + + + + + +       ",
"                                + + + + + + + + + + + + + + + + + + + + + + + + + + + $ $ + +       ",
"                                # @ @ @ + + + @ @ @ @ @ @ @ @ @ @ @ @ @ @ @ @ # + + + + + + +       ",
"                                X . . . . o o . . . . . . . . . . . . . . . . . . + + + + + @       ",
"                        1 , & - 4 # t G I J H G F F S A B x x c c c c V A A C m a X + + + X +       ",
"                      1 & + X . # . a ..,.&.&.$.$.$.$.$.$.o.o.o.$.$.o.=.=.1.&.1.^ O ; + @ + +       ",
"                        & + X X 3 . h +.,.&.=.*.*.-.;.;.1.1.1.1.1.1.1.3.1.4.3.q.] O ; + + + +       ",
"                        & + + X = . a +.,.&.&.&.&.&.&.-.=.=.$.=.=.=.1.1.1.1.:.4.^ o ; + + X X       ",
"                        & @ + X 1 . 6 O.,.&.&.&.&.&.&.&.*.=.=.=.=.1.=.1.1.1.:.4.Y o # X + + +       ",
"                        * + X X ; . r +.7.:.;.#.#.&.*.&.&.&.&.&.=.=.;.:.>.:.1.4.H . # + + X X       ",
"                        * + X . 6 . l 9.h.s.s.a.i.p.a.a.p.t.i.i.r.p.p.g.g.g.g.j.) o ; + + X X       ",
"                      - * X X X 6 . l e.x.x.x.x.x.x.x.x.x.c.c.z.x.x.z.c.c.c.c.v.{ O 6 + + + +       ",
"                        # + + X 6 . N t.x.x.x.x.x.x.x.x.c.c.c.c.c.x.x.x.c.c.c.l.( o ; X + X X       ",
"                        - + + X 6 . j 0.x.x.x.x.z.x.x.x.x.x.x.x.x.x.c.c.c.c.c.c.W . : + + + +       ",
"                        - & + X 6 . h y.v.c.x.c.c.c.c.c.c.c.c.x.x.x.x.c.c.x.c.v.E . ; $ + + X       ",
"                        2 & $ + 8 . j 2.a.s.h.k.h.j.l.l.l.v.c.z.x.x.x.x.x.c.c.c.P . = + + @ X       ",
"                        0 0 0 1 3 3 < O O O 3 7 q q q w b K P y.c.x.x.c.c.x.c.v.K . = + + + X       ",
"                        u f u t t a 9 < * @ X X X . . X . . d t.c.z.x.c.x.c.c.c.K . = + + + +       ",
"                        s g g y y f f < $ $ & $ $ $ $ @ % @ p y.c.x.x.x.c.c.c.v.K . # $ + + X       ",
"                        s g g g g f f 7 > % $ $ $ $ + + + . p u.v.x.x.x.c.c.c.c.P . # + + + +       ",
"                          g g g g g f 7 > > & $ $ + $ + $ . d a.c.x.x.c.x.c.c.c.L . ; $ + X +       ",
"                        y g g g g g g 9 > > & $ @ + + + + . d a.c.x.x.x.x.x.c.v.L . = + + + +       ",
"                          s y     5 8 - @ + + + + + + & $ X p u.v.x.x.x.x.x.c.v.P . = $ + + X       ",
"                                        + $ & > + & & & + X d a.c.x.x.c.x.c.c.v.U . = + + X X       ",
"                                        + $ $ % + $ $ $ + X d u.c.x.x.x.c.x.c.v.Y . ; + + X X       ",
"                                        + + $ $ @ + $ $ + . d d.c.z.x.c.c.x.c.v.Y . = + + X +       ",
"                                        + + $ $ + + $ $ + . d f.c.z.x.x.c.c.c.v.U . = + + X X       ",
"                                        + + @ % & + @ % + . d d.v.x.c.c.c.c.c.v.P . = + X + X       ",
"                                        * + + $ * + + $ * . h f.c.z.x.c.c.x.c.v.E . ; + + + X       ",
"                                          + + + - + + $ # . c j.c.x.x.x.x.c.v.v.! . 3 + + + .       ",
"                                          + $ + = + + $ # . M j.v.x.x.c.c.x.c.v.Q . ; + $ + X       ",
"                                          + + + 3 + + $ # . M j.c.z.x.c.x.c.v.v.Q . = + $ + .       ",
"                                          + @ $ < + $ % # . M l.c.z.c.c.c.c.c.v.E . ; + + + X       ",
"                                          + + $ * + + % # . n j.c.x.c.c.x.c.v.v.T . * + + + X       ",
"                                          + + $ = + + % # . n j.c.x.x.c.c.c.v.v.T . = + + X X       ",
"                                          + + $ % + $ $ # . c j.v.z.x.c.c.c.v.v.U . # + + + X       ",
"                                          + + $ * + $ $ # . n j.c.z.c.c.c.c.v.v.U . = + + + X       ",
"                                          + @ $ * + $ $ @ . c j.v.z.z.c.c.x.v.v.U . # + + X X       ",
"                                          + + $ % @ $ % + . c j.v.z.c.c.x.c.c.v.U . = + + X X       ",
"                                          + @ $ & + + $ @ . x j.c.z.c.c.c.x.c.v.I . = + X + X       ",
"                                          @ @ $ % @ $ $ @ X z f.c.z.x.c.x.c.v.v.L . = + + + X       ",
"                                          + $ $ % + $ $ @ . d f.v.z.c.c.c.c.c.v.K . = X X + X       ",
"                                          $ + $ % + @ % @ X d d.c.x.c.x.c.x.c.v.P . = + + X X       ",
"                                          @ + % % @ % % % . d d.c.z.c.x.c.c.c.v.P . = + + + X       ",
"                                          $ + $ # @ $ $ @ . d d.v.z.c.x.c.c.c.v.Y . = + + + X       ",
"                                          + $ $ % $ $ % @ X d a.c.x.x.c.c.x.c.v.Y . = + + X X       ",
"                                          $ $ > % @ $ $ $ X d u.c.x.x.x.x.x.c.v.Y . ; + + X X       ",
"                                  5 5 1 + @ & + @ & $ & & X p a.c.x.x.c.c.c.c.c.U . = + + X +       ",
"                        y g g g g g f 9 > $ $ + + + + + + . d a.c.c.x.x.x.x.c.v.L . ; + + + X       ",
"                        u g g g g g g 9 > > > $ $ $ $ $ + . d a.c.z.c.x.c.x.c.c.K . = $ + + +       ",
"                          g s g g f u 7 > $ $ $ $ + + + $ . d u.v.x.c.x.c.x.c.v.K . = $ + X +       ",
"                        g g g s u f f 3 $ > > % $ @ $ @ & @ p y.c.x.x.x.x.c.c.v.K . = + + + +       ",
"                        t u f t u a 0 8 ; % + X + X . X . . i t.c.x.x.x.c.x.c.v.K . = + + @ @       ",
"                        t e 0 5 3 8 , . . . . X X + + X ; b Z t.c.x.c.c.c.x.c.c.K . = + + + X       ",
"                        5 1 % $ 9 . h | >.<.6.8.8.8.9.9.r.f.s.l.x.x.x.x.c.c.c.v.P . = + + + X       ",
"                        - $ + X 8 . h t.c.c.c.c.c.c.c.c.c.c.c.x.x.x.x.c.x.x.c.v.R . = $ + + X       ",
"                        - & + X 5 . h 0.x.z.x.z.z.z.x.x.x.x.x.x.x.x.x.c.x.c.c.v.~ . : $ + X +       ",
"                        - + + X 0 . j 0.x.z.z.z.z.z.z.z.z.z.x.l.z.k.z.z.z.z.z.c._ . : + + + X       ",
"                        & + + X 3 . 6 @.3.*.&.&.@.&.&.;.=.=.=.=.=.1.=.1.1.1.1.4.E . ; + + X +       ",
"                        - + X X 3 . p @.,.&.&.&.#.&.&.&.%.=.=.=.=.=.1.1.1.1.1.4.~ . ; + + + X       ",
"                        , + X X ; . h %.3.*.-.-.*.:.-.-.1.1.1.1.1.1.3.4.5.4.4.w.[ o 5 + + + +       ",
"                        1 $ X . = . a [ X. .} { [ [ [ [ ] / / / ' ' ' [ } [ } } I o # X + + +       ",
"                        2 & , 1 4 = 4 h v k k h s a 0 : - X + + X @ + - 3 3 3 # X + + + + + +       ",
"                        - $ + + 3 . . . . . . . . . . . . . . . . . . . . . . . . + + + + + +       ",
"                          + + X 3 , $ @ % % % $ # % $ % % % @ % % % % % # = % = $ + + $ + + +       ",
"                        1 + X . ; $ + X + + + + + + + + + + + + + + + + + + + + + + + + + + +       ",
"                                  + + + + + + $ + + + + + + + + + + + + @ $ + $ $ + + + $ $ +       ",
"                                  % > $ > @ $ @ % > > > % + @ + + + @ + + $ $ $ > 7 9 7 , > $       ",
"                                                                                                    ",
"                                                                                                    ",
"                                                                                                    ",
"                                                                                                    ",
"                                                                                                    "
};
