/* XPM */
static char *out[] = {
/* columns rows colors chars-per-pixel */
"50 83 199 2 ",
"   c None",
".  c #000000",
"X  c #0B0403",
"o  c #050906",
"O  c #0A0907",
"+  c #04060B",
"@  c #0A040C",
"#  c #0B0C0C",
"$  c #07090E",
"%  c #190000",
"&  c #140B0E",
"*  c #110609",
"=  c #0E100C",
"-  c #10110E",
";  c #0E0C11",
":  c #140C11",
">  c #1C0E14",
",  c #07101E",
"<  c #161616",
"1  c #1A1416",
"2  c #161619",
"3  c #1A1519",
"4  c #1A1A1C",
"5  c #14181E",
"6  c #220000",
"7  c #23000A",
"8  c #2B0013",
"9  c #2E001B",
"0  c #32001D",
"q  c #310217",
"w  c #24161C",
"e  c #231C1D",
"r  c #28191D",
"t  c #1B1C21",
"y  c #380024",
"u  c #241E23",
"i  c #2B1D23",
"p  c #2B1F28",
"a  c #301F25",
"s  c #232324",
"d  c #24242A",
"f  c #2A292C",
"g  c #292724",
"h  c #322329",
"j  c #3F2421",
"k  c #2F332E",
"l  c #2A2A30",
"z  c #3A2832",
"x  c #24303D",
"c  c #343133",
"v  c #393338",
"b  c #3E3B36",
"n  c #461934",
"m  c #41232A",
"M  c #4A2C3E",
"N  c #45353B",
"B  c #443839",
"V  c #563F3F",
"C  c #563339",
"Z  c #373843",
"A  c #3E3E42",
"S  c #512749",
"D  c #542C42",
"F  c #4C3A43",
"G  c #453F43",
"H  c #5B344D",
"J  c #5E394F",
"K  c #633E42",
"L  c #663A4F",
"P  c #703C42",
"I  c #643D51",
"U  c #6D3951",
"Y  c #3A424B",
"T  c #424144",
"R  c #4E4842",
"E  c #564149",
"W  c #5B454C",
"Q  c #584748",
"!  c #474F58",
"~  c #5E4653",
"^  c #5A5453",
"/  c #5A544D",
"(  c #644D4E",
")  c #684246",
"_  c #704B4F",
"`  c #7D554F",
"'  c #634653",
"]  c #644C54",
"[  c #6C4D53",
"{  c #6C4E5A",
"}  c #7C4F58",
"|  c #675056",
" . c #6A5256",
".. c #6D535B",
"X. c #6D585D",
"o. c #75535D",
"O. c #78535D",
"+. c #725C5E",
"@. c #7C585F",
"#. c #775251",
"$. c #7D4E61",
"%. c #765661",
"&. c #7B5663",
"*. c #755C64",
"=. c #7B5B64",
"-. c #7C5D6A",
";. c #5D626B",
":. c #756262",
">. c #7A6264",
",. c #7E6068",
"<. c #767673",
"1. c #855658",
"2. c #805765",
"3. c #825C67",
"4. c #835E69",
"5. c #8B5F64",
"6. c #83626B",
"7. c #8B636A",
"8. c #836869",
"9. c #92676C",
"0. c #8B766D",
"q. c #866471",
"w. c #866A74",
"e. c #8A6270",
"r. c #946B7A",
"t. c #926B73",
"y. c #8D7975",
"u. c #8B7A7C",
"i. c #887673",
"p. c #927C76",
"a. c #917B7C",
"s. c #997276",
"d. c #94827F",
"f. c #99827D",
"g. c #8D7B82",
"h. c #968482",
"j. c #9B8682",
"k. c #9B8A86",
"l. c #9E8D8B",
"z. c #918E86",
"x. c #9D948E",
"c. c #919189",
"v. c #998B95",
"b. c #969791",
"n. c #9D9E99",
"m. c #999B93",
"M. c #A18C88",
"N. c #A18984",
"B. c #A29394",
"V. c #A89D97",
"C. c #AC9E9C",
"Z. c #9FA09B",
"A. c #A2A39D",
"S. c #AEA59E",
"D. c #A4A4A0",
"F. c #B0A6A0",
"G. c #B9ABAF",
"H. c #B4B2B8",
"J. c #BAB6BD",
"K. c #BEB9BF",
"L. c #C2BBB5",
"P. c #C6BDBC",
"I. c #C8BEBC",
"U. c #BEBCC1",
"Y. c #CCC4C1",
"T. c #CEC9CF",
"R. c #C5C2C7",
"E. c #D1C4C6",
"W. c #DBCECE",
"Q. c #D6CACB",
"!. c #D5D2CE",
"~. c #D3CDD3",
"^. c #DCD3D1",
"/. c #DAD8D8",
"(. c #E4D7D6",
"). c #E5DADA",
"_. c #E2DCD4",
"`. c #E4E2D4",
"'. c #E5E5DF",
"]. c #EAE5DD",
"[. c #EDEADD",
"{. c #F2EFDF",
"}. c #FAECDF",
"|. c #EDE4E1",
" X c #ECECE4",
".X c #E6E6E1",
"XX c #F3ECE2",
"oX c #F9ECE1",
"OX c #F4F4E5",
"+X c #FCF2E6",
"@X c #F7FAE6",
"#X c #F6F5EA",
"$X c #F9F6EA",
"%X c #F7F9EA",
"&X c #FBFBEC",
"*X c #F6F6F0",
"=X c #F7FAF0",
"-X c #FDFDF3",
";X c #FFFEF9",
/* pixels */
"                                                                                                    ",
"                                                                                                    ",
"                                                                                                    ",
"                                                                                                    ",
"                                                                                                    ",
"                                                                                                    ",
"                                                                                                    ",
"                                                                                                    ",
"                                                                                                    ",
"                                                                                                    ",
"Y d . + + + o + + + + + + ; + + + + . + . + o o o + + . + . + + + $ + + + + + + + + + + + d Y       ",
";.Z . . . . . . . . . . . . . . . . . . . . . . . . . . . . . . . . . . . . . . . . . . . Z ;.      ",
";.d . . . - 2 2 2 2 2 2 2 < 2 2 < 2 2 2 2 2 2 2 < 2 2 2 < 2 2 2 2 2 2 2 2 2 < < < ; . . . d ;.      ",
"! 2 . . . . . . . . . . . . . . . . . . . . . . . . . . . . . . . . . . . X . . . . . . . 5 !       ",
"Y . . + . <.b.m.A.A.D.D.A.D.A.A.A.n.Z.n.n.n.n.n.n.n.Z.n.Z.Z.A.A.D.D.A.D.A.A.A.m.b.<.. X . . Y       ",
"x . . X . /.;X-X-X-X-X-X-X-X-X;X;X;X-X;X;X-X;X;X-X;X;X-X;X-X-X;X-X-X-X-X-X-X-X-X;X/.. o . . x       ",
", . + . f .X=X%X&X&X&X&X&X=X&X&X&X=X-X&X&X=X&X-X&X-X&X=X&X&X&X=X&X-X-X&X&X%X&X&X=X.Xl . + . ,       ",
"+ . + . G  X=X&X-X&X&X&X&X=X-X&X&X-X&X&X&X&X&X&X&X&X&X&X&X-X&X-X&X&X&X&X=X&X&X&X=X XA . + . +       ",
". + 2 . T  X=X&X&X&X&X-X&X&X&X&X&X&X&X&X-X&X&X-X-X&X-X&X&X&X-X&X&X-X&X&X&X=X&X@X-X XT . 3 + .       ",
". . . . t .X-X&X&X&X&X&X-X&X&X-X&X&X-X&X&X&X&X&X&X&X&X&X&X&X&X&X&X&X&X-X&X&X&X&X-X.Xt . . . .       ",
". / Z.A.<. X&X&X&X&X&X&X&X&X&X&X&X-X&X-X&X&X&X&X&X&X&X&X-X&X-X&X&X&X&X&X&X&X-X&X&X X<.A.m.^ .       ",
". z.`.[..X%X@X&X&X&X&X&X&X-X&X-X&X&X&X&X&X-X-X&X&X-X-X&X&X&X&X&X&X-X&X-X&X&X&X&X@X%X[.[.`.c..       ",
". c.`.[.{.OX@X@X&X&X&X-X&X-X&X&X&X&X&X&X&X&X&X&X&X&X&X&X&X&X&X&X&X&X&X&X&X&X@X@X@XOX{.[.`.c..       ",
". x.[.{.OX@X@X@X&X&X&X&X&X&X&X&X&X-X&X-X&X-X&X&X&X-X&X&X-X&X-X&X-X&X-X&X&X%X&X@X@X@XOX{.[.x..       ",
". A.}.OX#X@X+X%X%X$X&X&X&X&X-X-X&X&X-X&X-X&X-X&X-X-X&X&X&X-X&X&X&X&X&X&X&X&X&X+X@XOX#XOXXXV..       ",
". F.+XOXOX#X%X%X%X&X&X&X-X&X&X&X-X&X&X-X&X=X&X&X&X&X&X-X&X-X&X-X&X-X&X&X&X&X%X%X%X#XOXOX+XF..       ",
". F.+XOXOX@X#X%X$X&X&X&X&X-X&X-X-X-X-X-X-X-X-X&X-X-X-X-X-X-X-X-X-X-X&X&X&X$X$X%XOX@X#X+X+XF..       ",
". F.+XOX$XOX%X%X+X+X&X&X%X&X-X&X=X$X$X$X$XOX$X#XOX#X#X#X$X*X&X&X-X&X%X&X&X$X$X%X%XOX#XOX+XF..       ",
". F.$X+X$X$X$X$X%X%X&X+X&X[.f.f.h.u.p.y.0.0.i.i.y.0.0.y.p.y.d.f.f.{.&X$X$X&X+X%X$X$X#X$X$XF..       ",
". S.$X#X#X$X$X$X+X&X%X$X&X].C P } =.=.6.6.>.=.>.=.>.,.-.=.=.1.) C ].&X$X&X+X$X%X$X$X#X#X$XF..       ",
". V.+X$X$X$X$X%X%X%X&X@X-X[.o.1.t.g.u.u.g.g.u.u.u.g.g.u.u.g.t.1...[.&X$X&X@X&X$X$X$X$X$X+XV..       ",
". x.+X$X$X$X$X%X&X+X&X+X&X].( 1.8.B c c c c v G v v c c c B 8.` ( [.&X$X$X$X$X$X$X$X$X$X+Xx..       ",
". k.+X*X$X$X&X$X%X$X%X%X&X[.| #.:.. . . . . . . . . . . . . :.#.[ ].&X+X%X+X%X&X$X$X$X*X+Xk..       ",
". M.+X$X$X$X$X$X$X&X@X+X$X[. ._  .. . . . . . . . . . . . .  ._  .[.%X@X%X&X+X&X&X$X$X$X+XM..       ",
". M.+X$X$X$X$X&X&X+X%X+X%XXX .) ( . . . . . . . . . . . . . ( ) ..|.%X+X&X$X%X&X&X$X$X$X+XM.+       ",
". N.+X&X$X%X&X$X@X&X$X$X%XXXX.K W . . . . . . . . . . . . . ) ) X.XX&X$X+X$X&X@X&X*X$X$X+XN..       ",
". N.oX&X$X&X$X$X&X&X+X@X%XXX+.K Q . X . o o o O O o X . X . Q C *.XX$X@X%X$X$X$X$X&X$X$XoXN..       ",
". j.oX&X$X$X%X&X$X$X%X$X$XXX:.C B . . . . . . . . . . . . . B C :.oX@X$X&X$X&X@X$X&X$X$X+Xj..       ",
". f.oX&X$X&X&X&X$X$X&X+X&XOXQ m R 2 4 e g b R / R b g e 4 2 R m Q OX$X$X&X@X&X$X&X&X$X$XoXf..       ",
". s.oX&X$X$X&X@X$X$X&X%X@X@X^._.].'.'.[.'.[.{.{.[.[.].[.].'.'._.^.OX&X$X$X$X$X$X$X&X$X&X}.p..       ",
". y.}.&X$X$X$X&X$X$X@X$X@X&X-X&X-X;X-X-X-X&X-X-X-X&X-X-X-X-X-X-X-X&X@X%X$X$X$X$X@X&X&X$X}.y..       ",
". y.}.$X$X$X%X+X@X$X$X@X@X&X&X&X&X&X&X&X&X&X&X&X&X&X&X&X&X&X&X&X&X&X&X@X@X$X$X@X$X$X+X$XoXy..       ",
". a.}.%X@X@X%X$X$X@X$X@X&X&X&X&X&X&X&X&X&X&X&X&X-X&X&X&X&X&X&X&X&X&X$X$X@X@X@X$X+X&X%X$X}.p..       ",
". a.oX$X+X$X$X$X@X$X@X$X@X&X&X&X&X&X&X&X&X&X&X-X&X&X&X&X&X&X&X&X&X&X@X$X$X@X$X@X@X%X+X$X+Xa..       ",
". j.+X@X%X%X$X$X$X@X@X$X&X&X&X&X&X&X&X&X&X&X&X&X&X&X&X&X&X&X&X&X&X@X&X@X$X@X@X$X@X$XOX$X+Xh..       ",
". j.$X+X+X%X$X$X@X$X&X&X&X&X&X&X&X&X&X-X&X-X-X&X&X-X&X-X-X&X&X&X&X&X&X&X&X@X$X@X%X$X$X$X$Xh..       ",
". h.+X+X$X$X@X$X$X&X&X&X&X&X&X&X&X&X&X&X&X&X&X&X&X&X&X&X&X&X&X&X&X&X&X&X&X$X$X$X+X+X%X+X+Xj..       ",
". k.@X$X$X$X$X@X@X$X&X&X&X&X&X&X&X-X&X-X&X&X-X&X&X&X-X&X-X&X&X&X&X&X&X&X&X&X$X@X%X&X%X$X$Xj..       ",
". l.$X$X$X&X$X@X&X&X&X&X&X&X&X&X=X&X=X&X&X-X-X&X&X&X&X-X&X&X&X&X&X&X&X&X&X$X@X&X$X$X$X#X&Xk..       ",
". M.&X$X$X&X$X@X$X&X&X&X&X&X&X&X&X&X&X-X&X&X=X%X&X-X&X&X-X%X-X&X&X&X&X&X$X&X&X@X$X$X$X$X*Xl..       ",
". l.&X$X&X+X$X@X@X$X&X&X-X%X-X-X-X;X;X;X;X;X-X;X;X;X;X-X;X;X-X-X-X-X&X&X@X&X@X&X&X$X&X$X*XM..       ",
". l.$X$X&X&X@X$X@X&X&X&X&X-X;X;X;X-X*X*X#X*X*X*X*X#X*X*X*X*X;X;X;X-X&X&X&X$X@X$X&X%X&X$X-XM..       ",
". k.$X$X*X&X&X$X$X&X*X&X-X^.B.C.B.h.u.8.:.+.:.+.:.+.:.8.u.h.B.C.B.!.-X$X&X&X$X$X$X$X&X$X&Xh..       ",
"+ g.$X$X*X&X$X&X&X&X&X&X-XY.K 4.&.&.} o.o.{ [ [  .{ %.} O.O.@.6.) Y.-X%X&X&X$X&X&X&X&X&X$Xd..       ",
". i.+X&X&X*X&X$X&X&X%X%X-X!.6.s.9.5.4.3.=.@.O.o.O.&.2.3.4.5.t.s.6.!.-X*X&X$X$X&X$X-X&X&X+Xi..       ",
". >.OX-X*X&X&X&X+X&X%X#X-X!.o.7.5.3.3.=.&.O.o.{ o.O.&.=.-.3.5.7...!.-X$X&X&X&X$X&X&X*X*X+X>..       ",
". | oX-X&X-X&X$X&X&X=X$X-X^.' 6.=.E E F F N B B B N F F F E >.7.' ^.=X$X=X&X&X&X&X&X$X*XoX ..       ",
". V XX-X&X&X&X$X&X&X$X#X-X^.' 6.X.. . . . . . . . . . . . . X.6.I ^.-X&X=X&X$X$X&X&X*X-XoXF .       ",
"@ m |.-X$X*X&X&X&X&X$X#X-X^.H 4.Q . X . . . . . . . . . + . Q 4.H ~.-X#X&X&X&X$X&X-X$X-XXXm @       ",
"@ q |.;X*X&X&X&X&X%X-X#X*X~.D =.M . . . . . . . . . . . . . M -.D ~.=X%X*X&X&X&X&X&X*X;X|.q @       ",
"; 6 |.-X$X*X&X&X&X=X=X#X-XT.n %.z . . . . . . . . . . . . . z %.n T.-X#X&X&X&X&X&X&X&X;X|.6 ;       ",
": X ).;X&X&X*X&X&X$X&X#X-XR.y %.h . . . . . . . . . . . . . h %.y R.*X#X*X&X&X&X&X-X$X;X).X :       ",
"1 . ).;X-X&X&X&X&X&X=X$X-XU.y ..i . . . . . . . . . . . . . p ..y U.-X$X&X&X&X&X*X&X%X;X).. 1       ",
"3 . ).-X*X*X&X&X&X-X=X#X-XJ.9 | i . . . . < f s f < . . . . i { 8 U.-X$X*X-X&X&X&X&X-X;X(.. 3       ",
"u . ^.;X%X$X&X-X-X%X-X$X-XU.7 ] r . . . . T       A . . . . r ] % U.;X*X*X&X-X&X&X&X&X;X(.. w       ",
"i . W.;X-X-X&X&X&X&X&X$X;XH.% ] r . . . .         k . . . . r ] % J.;X#X&X-X&X&X&X-X*X;XW.. i       ",
"p . W.;X*X-X-X&X&X&X%X-X;XH.7 ] w . . . .         g . . . . w ] 7 H.;X&X*X-X&X&X-X-X-X;XW.. p       ",
"p . Q.;X=X-X$X-X-X&X-X%X;XH.8 ' w . . . .         4 . . . . w ] 7 H.;X&X&X&X&X-X&X=X*X;XQ.. p       ",
"i . E.;X%X=X=X-X&X%X%X%X;XH.9 ] w . . . .         < . . . . w ] 9 H.-X#X%X=X$X-X=X=X*X;XE.. p       ",
"1 . G.;X;X;X;X-X-X-X-X-X;XU.9 | r . . . .         4 . . . . r ] 9 U.;X-X-X-X-X-X;X;X;X;XG.. 3       ",
"@ . ^ E.Y.I.P.L.L.J.L.L.U.v.D ~ i . . . .         2 . . . . h ] D v.P.L.P.L.L.L.P.I.Y.E.^ . @       ",
". + . &.$.U L L I J H H S ~ ' ] h . . . O           + . . . h ~ ~ ~ S H H J J I L U } &.. X .       ",
". . . w.r.e.e.6.,.-.-.-.*.{ ' ] h . . . #           O . . . h ] ' { *.*.-.-.4.q.q.e.r.w.. . .       ",
". . . q.r.4.4.4.4.-.&.+...{ ] ' h . . . =           O . . . h ' ' { %.%.&.-.3.=.4.4.r.w.. . .       ",
". . . *.w.*.%.+... .] ] ~ W E E h . . . <           # . . . h Q E W ~ ] | { ..+.%.=.w.*.. . .       ",
". . . s u 2 1 1 & & : : & : : > * . . . <           # . . . @ > < & & : : & & 1 1 < u u . . .       ",
". . . . . . . . . . . . . . . . . . . . =           + . . . . . . . . . . . . . . . . . . . .       ",
". . . . . . . . . . . . . . . . . . . . &           4 . . . . . . . . . . . . . . . . . . . .       ",
". . . . . . . . . . . . . . . . . . . . #           c . . . . . . . . . . . . . . . . . . . .       ",
". . . . . . . . . . . . . . . . . . . . #           < . . . . . . . . . . . . . . . . . . . .       ",
". . . . . . . . . . . . . . . . . . . . =           - . . . . . . . . . . . . . . . . . . . .       ",
". . . . . . . . . . . . . . . . . . . .             - . . . . . . . . . . . . . . . . . . . .       ",
"t 5 t t 4 2 5 t u d d f f f f f d s                       s d f f f f f d d u t 5 2 4 t t 5 t       "
};
