/* XPM */
static char *out[] = {
/* columns rows colors chars-per-pixel */
"64 64 233 2 ",
"   c None",
".  c #050606",
"X  c #060607",
"o  c #070707",
"O  c #070A09",
"+  c gray4",
"@  c #0B0A0B",
"#  c #0C0B0A",
"$  c #090C0B",
"%  c #0B0C0A",
"&  c #0B0C0B",
"*  c #0C0D0B",
"=  c #0D0D0B",
"-  c #090A0C",
";  c #0B0B0C",
":  c #0A0A0E",
">  c #0B0C0C",
",  c #0B0D0C",
"<  c #0B0C0D",
"1  c #0B0D0D",
"2  c #0B0E0C",
"3  c #0A0C0E",
"4  c #0B0E0F",
"5  c #0C0C0C",
"6  c #0D0D0C",
"7  c #0C0D0D",
"8  c gray5",
"9  c #0C0E0D",
"0  c #0D0F0D",
"q  c #0F0F0C",
"w  c #0E0E0D",
"e  c #0F0F0D",
"r  c #0C0E0E",
"t  c #0D0E0E",
"y  c #0C0F0E",
"u  c #0C0F0F",
"i  c #0D0F0F",
"p  c #0E0E0E",
"a  c gray6",
"s  c #100F0F",
"d  c #0B110F",
"f  c #0D100E",
"g  c #0D100F",
"h  c #0E100E",
"j  c #0F100F",
"k  c #11100C",
"l  c #10100F",
"z  c #0B0C10",
"x  c #0C0C10",
"c  c #0E0D11",
"v  c #0D0E10",
"b  c #0D0E11",
"n  c #0E0E10",
"m  c #0F0F10",
"M  c #0D0E13",
"N  c #100E10",
"B  c #0B1013",
"V  c #0C1010",
"C  c #0D1010",
"Z  c #0D1110",
"A  c #0D1011",
"S  c #0E1010",
"D  c #0F1010",
"F  c #0E1110",
"G  c #0F1110",
"H  c #0E1011",
"J  c #0E1111",
"K  c #0E1210",
"L  c #0C1112",
"P  c #0E1112",
"I  c #0D1312",
"U  c #0C1313",
"Y  c #0E1212",
"T  c #0E1214",
"R  c #0C1718",
"E  c #0E1718",
"W  c #101010",
"Q  c #111010",
"!  c #101110",
"~  c #101011",
"^  c #111011",
"/  c #101111",
"(  c #111111",
")  c #101211",
"_  c #111211",
"`  c #101311",
"'  c #131211",
"]  c #101012",
"[  c #111012",
"{  c #101112",
"}  c #111112",
"|  c #101013",
" . c #111113",
".. c #101212",
"X. c #111212",
"o. c #101312",
"O. c #111312",
"+. c #101213",
"@. c #111213",
"#. c #101313",
"$. c #111313",
"%. c gray7",
"&. c #121312",
"*. c #131312",
"=. c #121213",
"-. c #121313",
";. c #131313",
":. c #111413",
">. c #121413",
",. c #131413",
"<. c #111114",
"1. c #111115",
"2. c #121114",
"3. c #111314",
"4. c #121214",
"5. c #131214",
"6. c #121314",
"7. c #131314",
"8. c #121215",
"9. c #131217",
"0. c #131317",
"q. c #111414",
"w. c #111415",
"e. c #121414",
"r. c #131414",
"t. c #131514",
"y. c #131415",
"u. c #121515",
"i. c #131515",
"p. c #121715",
"a. c #121417",
"s. c #121517",
"d. c #131517",
"f. c #131717",
"g. c #141415",
"h. c #151515",
"j. c #141717",
"k. c #161716",
"l. c #161617",
"z. c gray9",
"x. c #121817",
"c. c #131817",
"v. c #131318",
"b. c #121718",
"n. c #131719",
"m. c #141419",
"M. c #151519",
"N. c #141718",
"B. c #15151A",
"V. c #17171B",
"C. c #17171C",
"Z. c #101818",
"A. c #111818",
"S. c #131918",
"D. c #131819",
"F. c #131A19",
"G. c #13191A",
"H. c #121A1B",
"J. c #131A1B",
"K. c #131B1B",
"L. c #141819",
"P. c #141919",
"I. c #161818",
"U. c #171818",
"Y. c #14181A",
"T. c #14191A",
"R. c #15191A",
"E. c #15191B",
"W. c #151A1A",
"Q. c #151A1B",
"!. c #171A1A",
"~. c #121B1E",
"^. c #141A1C",
"/. c #151B1C",
"(. c #171B1C",
"). c #171C1C",
"_. c #141C1E",
"`. c #151C1F",
"'. c #171C1E",
"]. c #191A19",
"[. c #18191A",
"{. c #181B1B",
"}. c #191B1B",
"|. c #1A1B1A",
" X c #18181C",
".X c #1B1B1D",
"XX c #18181E",
"oX c #1A1D1D",
"OX c #191C1E",
"+X c #1A1C1E",
"@X c #191E1E",
"#X c #1A1F1E",
"$X c #1A1E1F",
"%X c #1D1E1E",
"&X c #1E201F",
"*X c #1F201F",
"=X c #141E20",
"-X c #141E22",
";X c #1B1C21",
":X c #1C1C21",
">X c #1B1F24",
",X c #142023",
"<X c #142024",
"1X c #1D2121",
"2X c #1E2020",
"3X c #1F2120",
"4X c #1F2222",
"5X c #152328",
"6X c #202221",
"7X c #212221",
"8X c #212122",
"9X c #212323",
"0X c #222223",
"qX c #202424",
"wX c #212424",
"eX c #232426",
"rX c #232827",
"tX c #252825",
"yX c #232929",
"uX c #272A29",
"iX c #272B29",
"pX c #25282B",
"aX c #2A2A2A",
"sX c #282C2A",
"dX c #2D2D2D",
"fX c gray18",
"gX c #2F3433",
"hX c #343434",
"jX c #343936",
"kX c #3A3B3D",
"lX c #3C3C3D",
"zX c #414543",
"xX c #40464A",
/* pixels */
"                                                                                                                                ",
"                                                      !.1XsXtXyXiXjXzXgXP.                                                      ",
"                                                      4.-.%.%.%.%.=.d.c.L.                                                      ",
"                                                      4.a W W W W W _ ..s.                                                      ",
"                                                      7.a W W p W W F J E.                                                      ",
"                                                      5.a W W W F W ! H OX                                                      ",
"                                                      =.l W W ) W W Q l #X                                                      ",
"                                                      4.W ( ( ( W W ( a $X                                                      ",
"                                                      0.l ( ( ( ( ( ( a $X                                                      ",
"                                                      m.e ( ( ( ( ( ( ( @X                                                      ",
"                                                      B.q ( ( ( ( ( ( ) +X                                                      ",
"                                                      B.6 ( ( ( ( ( _ _ OX                                                      ",
"                                                      B.q ( ( ( / W W ! OX                                                      ",
"                                                      C.6 ( ( ( W W / F (.                                                      ",
"                                                      m.e ( ( W S W / F P.                                                      ",
"                                                      v.l ( ! W W W W ! T.                                                      ",
"                                                      V.e ( ( / W W / ( R.                                                      ",
"                                                       X0 X._ ( / / _ X.W.                                                      ",
"                                                      XX= ( / ( / ( ( o.Q.                                                      ",
"                                                      XX* ( ( Q Q / _ O.Q.                                                      ",
"                                                      ;X% ( ( W ! / ( X./.                                                      ",
"                                                      :X# ( ( W S W ( ) ).                                                      ",
"                                                      V.6 ( W W W W / o.(.                                                      ",
"                                                      8.e W ( W W W ( %.'.                                                      ",
"                                                      <.l ( ( W W W ( X.`.                                                      ",
"                                                      4.W ( ( ( ( ( ( ` b.                                                      ",
"                                                      $.( } ( ( / ( ( ) p.                                                      ",
"  : H { } { o.-.l.z.k.I.[.].|.*X7XeX0X6X3X&XoX{.f.a.+X;.;.;.X.( ( ( ( X.+.u.L.qXuXrXwX9X4X2X2X%X{.}..XU.u.@. .X.*.} / ! ! d 4   ",
"  z P / / ) ( ! / } / ~ ~ W N 8 5 ; < , 1 1 r C +.$.( ;.;.;.%.( ( ( / ( J A v - X o + $ > 7 7 t S n n S S ~ ~ / ( } ( ( ) K V   ",
"  x A W W W ! W ! W ! ) ( ( ( Q / / ( / ) _ ) _ ( ( ;.;.$.;.%.) ( ) ( ( ) J J ..X./ / ( %._ _ ( W ) ( W W S W W W p p p S h u   ",
"  c C W W W W W W W W W W W W W W W W S ! ( ( ( ( ( ( ( %.%.X./ ! / ( ( ( / W W W W W W W W W W W / ( ( W W W W W p p p p f r   ",
"  b t W W W W W W W W W W W W W W S F W W ^ ( ( ( ( / ( ) ( ..( K ! ( ( ) ^ W W W W W W W W W W W ( ( ( W W W W W p p p p f v   ",
"  1.w W W W W ( ( W W W W W W p S S W W ! ( ( ( ( ( / ( ( ( ) ( / / ) ( ( ( ! ! W W W W W W W W W W W F W W W W W p p p p f F   ",
"  M.6 W W W W ( ( ( ( W W W W S W W W W / ( / ( ( ( ) / ( ( ) ( ( ( / ( ( / W W W W W ! ( ! W W W W W W W W W W W W W W h f q.  ",
"  9.8 W W W W W W W ! S W W W / W W W W W ( ( ( ( ( ( ( W W ( ( ) ( ( ( ( W W ( / W W ! ( W W W W W W W W F W / W W W W S 9 w.  ",
"  M 2 8 i i g a j j g a a a j j a a a g j D D G ! ( _ %.%.( ( ( ( %.;.&.) i 8 m j W j ! W l a a g a a a g a a j a a a a e y L   ",
"  T Y $.>.t.6.;.O.e.i.i.j.j.j.i.t.i.d.e.-.$.$.X.+.q.q.$.%.%.( ( ( ;.;.r._ h.N.e.O.X.:.O.o.$.6.r.y.g.r.-.r.r.y.r.r.e.7.,.-.+.B   ",
"                                                    >X+.! ( ) ( ( =.-.' ~.xX                                                    ",
"                                                      { l ( ( ( ( _ 7.k 5X                                                      ",
"                                                      H W W ! W ! ) $.( <X                                                      ",
"                                                      H W W W W W W ) X.,X                                                      ",
"                                                      ~ W W W W W W / ) -X                                                      ",
"                                                      ~ W W W W W ^ ( ..=X                                                      ",
"                                                      } l W ( ( ( ( ( o._.                                                      ",
"                                                      [ l / ( ( ( ( ( #.H.                                                      ",
"                                                      ] l ! ( ( ( ( ( $.G.                                                      ",
"                                                      | l W ( ( ( ( ( #.S.                                                      ",
"                                                      | l W ( ( ( ( ( :.F.                                                      ",
"                                                      ] l W ( ( ) ( ( q.^.                                                      ",
"                                                      ] l W ( ( / ( ( 3.^.                                                      ",
"                                                      ~ l W ( ( ( ( ) #.K.                                                      ",
"                                                      ~ W W ( ( ( ( / #.J.                                                      ",
"                                                       .W ( ( ( ( ( ( #.D.                                                      ",
"                                                      } l W ( ( W ! ) O.x.                                                      ",
"                                                       .l W ( ( W W / X.P.                                                      ",
"                                                       .l ~ ( ( W W ! ..Y.                                                      ",
"                                                      2.l W ( ( W W ! ) n.                                                      ",
"                                                      @.l W W W W W W ..D.                                                      ",
"                                                       .s W W W W W W J A.                                                      ",
"                                                      ] a p p p p p W Z Z.                                                      ",
"                                                       .G W W D D a j Z E                                                       ",
"                                                      3 . . O + @ & 9 I R                                                       ",
"                                                      pXkXlXhXfXdXaX8X{.U                                                       ",
"                                                                                                                                "
};
