/* XPM */
static char *out[] = {
/* columns rows colors chars-per-pixel */
"50 63 214 2 ",
"   c None",
".  c black",
"X  c #010000",
"o  c #000001",
"O  c #010001",
"+  c #010101",
"@  c #020101",
"#  c #030101",
"$  c #000002",
"%  c #010102",
"&  c #010103",
"*  c #020002",
"=  c #030003",
"-  c #020202",
";  c #030302",
":  c #020203",
">  c gray1",
",  c #040102",
"<  c #050102",
"1  c #040203",
"2  c #050203",
"3  c #070203",
"4  c #020305",
"5  c #050204",
"6  c #070204",
"7  c #070304",
"8  c #070305",
"9  c #040307",
"0  c #060206",
"q  c #060306",
"w  c #060605",
"e  c #040406",
"r  c #050406",
"t  c #060406",
"y  c #060606",
"u  c #060707",
"i  c #090305",
"p  c #0D0407",
"a  c #020208",
"s  c #060508",
"d  c #07060E",
"f  c #0E070D",
"g  c #080809",
"h  c #080909",
"j  c #08080A",
"k  c #0B090B",
"l  c #090B0C",
"z  c #0B0B0C",
"x  c #0B0B0F",
"c  c #0C0C0C",
"v  c #0D0D0E",
"b  c #110709",
"n  c #10060A",
"m  c #130A0D",
"M  c #120A0E",
"N  c #120F12",
"B  c #170C10",
"V  c #190D13",
"C  c #101210",
"Z  c #131413",
"A  c #171215",
"S  c #151615",
"D  c #1A161F",
"F  c #1F1E1E",
"G  c #28171F",
"H  c #25181B",
"J  c #2C191F",
"K  c #262627",
"L  c #28292B",
"P  c #3F2222",
"I  c #36262C",
"U  c #3A2528",
"Y  c #38252A",
"T  c #3E2429",
"R  c #3F2529",
"E  c #2B2935",
"W  c #3E3736",
"Q  c #383837",
"!  c #32303A",
"~  c #432424",
"^  c #432525",
"/  c #432727",
"(  c #422729",
")  c #412829",
"_  c #432829",
"`  c #452C33",
"'  c #423033",
"]  c #453839",
"[  c #483C3D",
"{  c #563C3F",
"}  c #5D3E42",
"|  c #613E43",
" . c #454647",
".. c #4F4646",
"X. c #46464B",
"o. c #5B4249",
"O. c #574D4D",
"+. c #544E4F",
"@. c #5A4D4D",
"#. c #51514F",
"$. c #535354",
"%. c #5E5252",
"&. c #5C5A5A",
"*. c #634040",
"=. c #644042",
"-. c #654142",
";. c #664242",
":. c #674343",
">. c #614244",
",. c #605455",
"<. c #6B5153",
"1. c #79575F",
"2. c #61615F",
"3. c #616260",
"4. c #636362",
"5. c gray39",
"6. c #676864",
"7. c #6A6A67",
"8. c #6C6A67",
"9. c #696868",
"0. c #7D6162",
"q. c #717371",
"w. c #825C61",
"e. c #825D61",
"r. c #815E60",
"t. c #866363",
"y. c #8B6A6A",
"u. c #8C6C6C",
"i. c #8C6E6E",
"p. c #847575",
"a. c #8C7F7E",
"s. c #8C8484",
"d. c #8C8784",
"f. c #8F8F8B",
"g. c #979791",
"h. c #9C9491",
"j. c #9A9695",
"k. c #9C9B97",
"l. c #A39996",
"z. c #A79998",
"x. c #A49A98",
"c. c #A89D9A",
"v. c #ABA19D",
"b. c #A4A4A1",
"n. c #A6A6A5",
"m. c gray65",
"M. c #A7A7A7",
"N. c #AEADAC",
"B. c #B3A8A6",
"V. c #BAB0AF",
"C. c #BAB7B3",
"Z. c #C4C4BB",
"A. c #C7C1BE",
"S. c #C4C4BF",
"D. c #CDC2BD",
"F. c #CCC5C1",
"G. c #CFC4C0",
"H. c #CFC4C1",
"J. c #CFC6C0",
"K. c #CDC6C3",
"L. c #CDC6C4",
"P. c #D0C8C3",
"I. c #D3C9C5",
"U. c #D2CBC5",
"Y. c #D4CAC7",
"T. c #D4CBC9",
"R. c #D1D0C7",
"E. c #DAD9D1",
"W. c #DBDBD5",
"Q. c #DDDDD7",
"!. c #DCDCD8",
"~. c #DFDFD8",
"^. c gray87",
"/. c #E1DCD7",
"(. c #E3DED9",
"). c #E3DFDA",
"_. c #E3DEDB",
"`. c #E1E2DF",
"'. c #E5E0DD",
"]. c #E6E1DE",
"[. c gray88",
"{. c #E6E2E0",
"}. c #E6E5E3",
"|. c #EDEEE8",
" X c #F4F3EC",
".X c #F7F6EC",
"XX c #F6F6EE",
"oX c #F7F7EE",
"OX c #F8F8EF",
"+X c #FDFFF2",
"@X c #FEFFF3",
"#X c #FFFFF3",
"$X c #F8F8F4",
"%X c #FDFFF4",
"&X c #FFFFF4",
"*X c #FFFFF5",
"=X c #FDFDF6",
"-X c #FCFDF7",
";X c #FEFFF6",
":X c #FFFFF6",
">X c #FFFFF7",
",X c #FCFDF8",
"<X c #FEFFF8",
"1X c #FFFFF8",
"2X c #FEFFF9",
"3X c #FFFFF9",
"4X c #FDFDFA",
"5X c #FEFFFA",
"6X c #FFFFFA",
"7X c #FDFDFD",
"8X c #FFFFFC",
"9X c #FFFFFD",
"0X c #FEFEFE",
"qX c white",
/* pixels */
"                                                                                                    ",
"                                                                                                    ",
"                                                                                                    ",
"                                                                                                    ",
"                                                                                                    ",
"                                                                                                    ",
"                                                                                                    ",
"                                                                                                    ",
"                                                                                                    ",
"                                                                                                    ",
"                                                                                                    ",
"                                                                                                    ",
"                                                                                                    ",
"                                                                                                    ",
"                                                                                                    ",
"                                                                                                    ",
"                                                                                                    ",
"                                                                                                    ",
"                                                                                                    ",
"                                                                                                    ",
"                                                                                                    ",
"                                                                                                    ",
"                                                                                                    ",
"                                                                                                    ",
"                                                                                                    ",
"                                                                                                    ",
"                                                                                                    ",
"                                                                                                    ",
"                                                                                                    ",
"                                                                                                    ",
"                                                                                                    ",
"                                                                                                    ",
"                                                                                                    ",
"                                                                                                    ",
"                                                                                                    ",
"                                                                                                    ",
"                                                                                                    ",
"                                                                                                    ",
"                                                                                                    ",
"                                                                                                    ",
"                                                                                                    ",
"                                                                                                    ",
"                                                                                                    ",
"                        . . . . . . . . . . . . =                                                   ",
"                      . . . . . % j z C Z S h e * 0                                                 ",
"                      o . + > w K X.$.3.6.q. .L : q t                                               ",
"                      . Q 7.g.Z.R.E.W.Q.~.`.k.8.F s 9                                               ",
"                      + #.f.S.|. X.XXXoXOX$XC.d.W f r                                               ",
"                      + 2.b.!.4X1X#X*X&X*X3XK.x.O.M 5 +                                             ",
"                      + 4.n.^.7X<X+X#X@X@X=XU.v.,.B 3 .                                             ",
"                      + 5.m.^.7X2X%X&X&X#X-XP.c.%.m < .                                             ",
"                      + 5.M.[.7X5X;X>X*X:X,XF.l.@.b # .                                             ",
"                      + 9.N.}.0X8X6X8X9X9XqXA.h...i X .                                             ",
"                      + &.j.L._.(./.).'.].{.B.a.[ 7 X .                                             ",
"                      + +.s.V.H.G.D.J.I.Y.T.z.p.] 8 O .                                             ",
"                      $ I o.1.w.e.r.t.y.u.i.0.<.' n 2 .                                             ",
"                      a G ` } | =.-.;.:.:.*.>.{ Y p , .                                             ",
"                      d V J T R ( _ / ^ ~ P ) U H 6 @ .                                             ",
"                      D . . . . . . . . . . . . . . . .                                             ",
"                      E k @ . . . . . . . . . . . . . &                                             ",
"                      ! N 1 . . . . . . . . . . . + % 4                                             ",
"                          A y . . . . . . . . . . u l                                               ",
"                              > > > > - - ; c v g x                                                 "
};
