/* XPM */
static char *out[] = {
/* columns rows colors chars-per-pixel */
"50 76 224 2 ",
"   c None",
".  c #010101",
"X  c #090405",
"o  c #0A0907",
"O  c #05050A",
"+  c #0B060B",
"@  c #07080A",
"#  c #0B0A0B",
"$  c #070907",
"%  c #120D0D",
"&  c #150507",
"*  c #0D0B12",
"=  c #050116",
"-  c #130D12",
";  c #190F15",
":  c #1D041B",
">  c #150E1B",
",  c #1D0E1C",
"<  c #150513",
"1  c #0E1014",
"2  c #141313",
"3  c #191416",
"4  c #191917",
"5  c #15131A",
"6  c #1A151A",
"7  c #13191B",
"8  c #1B1B1B",
"9  c #13100D",
"0  c #240001",
"q  c #2C0001",
"w  c #20080C",
"e  c #2B0514",
"r  c #33001C",
"t  c #360117",
"y  c #21131A",
"u  c #231B1D",
"i  c #281819",
"p  c #31121C",
"a  c #1F211F",
"s  c #1B1C23",
"d  c #1D1B24",
"f  c #0C1526",
"g  c #241D22",
"h  c #2C1D24",
"j  c #231926",
"k  c #1E2020",
"l  c #242223",
"z  c #2C2325",
"x  c #24242A",
"c  c #2C242A",
"v  c #24292E",
"b  c #2C2A2C",
"n  c #2B2927",
"m  c #342225",
"M  c #32252B",
"N  c #332A2D",
"B  c #3A272C",
"V  c #32302F",
"C  c #2B2E32",
"Z  c #352D33",
"A  c #3B2D34",
"S  c #372731",
"D  c #2D3235",
"F  c #333233",
"G  c #3A3433",
"H  c #34353A",
"J  c #3E3739",
"K  c #383A3D",
"L  c #4C2B1F",
"P  c #412E2D",
"I  c #4A3229",
"U  c #52332A",
"Y  c #452F38",
"T  c #422B33",
"R  c #443235",
"E  c #41363A",
"W  c #423A3E",
"Q  c #4A3A3E",
"!  c #583A36",
"~  c #48423D",
"^  c #60493E",
"/  c #453C41",
"(  c #493B40",
")  c #533C44",
"_  c #3F4149",
"`  c #4C4343",
"'  c #44434A",
"]  c #4D4A4B",
"[  c #494446",
"{  c #544245",
"}  c #54464B",
"|  c #554B4B",
" . c #5C4A4E",
".. c #5D4649",
"X. c #594C54",
"o. c #5D5353",
"O. c #595355",
"+. c #6B4B4C",
"@. c #644847",
"#. c #6A544E",
"$. c #634C54",
"%. c #655352",
"&. c #6B5454",
"*. c #6E5A54",
"=. c #6C535A",
"-. c #655D5C",
";. c #675858",
":. c #735656",
">. c #71565D",
",. c #7B5A5A",
"<. c #775757",
"1. c #73504F",
"2. c #7D635C",
"3. c #7F5C61",
"4. c #6B6364",
"5. c #746463",
"6. c #7A6869",
"7. c #7E6F70",
"8. c #797774",
"9. c #7B766E",
"0. c #815C5B",
"q. c #8C665B",
"w. c #876558",
"e. c #836363",
"r. c #8A6666",
"t. c #836C6B",
"y. c #8C6A6D",
"u. c #896969",
"i. c #926D65",
"p. c #87716B",
"a. c #86756C",
"s. c #9A7268",
"d. c #926E71",
"f. c #8E7D7A",
"g. c #867774",
"h. c #957274",
"j. c #937E79",
"k. c #967A79",
"l. c #8C6C71",
"z. c #A2776A",
"x. c #84827E",
"c. c #94817B",
"v. c #96827A",
"b. c #A3867E",
"n. c #827E80",
"m. c #947F81",
"M. c #858482",
"N. c #8A8A85",
"B. c #8C8987",
"V. c #958482",
"C. c #968A83",
"Z. c #9B8A83",
"A. c #988B89",
"S. c #9C928C",
"D. c #90918D",
"F. c #9A9A95",
"G. c #A2928C",
"H. c #AD948C",
"J. c #A39691",
"K. c #A59993",
"L. c #A89D99",
"P. c #B59E91",
"I. c #A2A59D",
"U. c #ADA29C",
"Y. c #A2A99C",
"T. c #B6A79E",
"R. c #AAAAA4",
"E. c #B5ABA4",
"W. c #BAADA4",
"Q. c #B7AEAB",
"!. c #B3B1AC",
"~. c #BBB4AB",
"^. c #BBB9AD",
"/. c #B8B5B3",
"(. c #ADB4A7",
"). c #C7B6AD",
"_. c #C2BBB4",
"`. c #C7BEB9",
"'. c #D5BEB3",
"]. c #BAC0B3",
"[. c #C3C3BC",
"{. c #CAC5BB",
"}. c #CCC8B5",
"|. c #D3C8BC",
" X c #D8D0BD",
".X c #BFBFC1",
"XX c #C5C6C4",
"oX c #C5CAC4",
"OX c #CDCAC4",
"+X c #CACCC8",
"@X c #D1CDC6",
"#X c #D9CDC3",
"$X c #CED1CA",
"%X c #D6D2CB",
"&X c #DBD3CC",
"*X c #D7D4C7",
"=X c #DCD9D2",
"-X c #D8D7D2",
";X c #E4DCD4",
":X c #E5DFD9",
">X c #E1D2CB",
",X c #E6E3CC",
"<X c #EBE5D2",
"1X c #E4E3DA",
"2X c #EAE5DC",
"3X c #EBE9D7",
"4X c #EFF1DC",
"5X c #F5F3DD",
"6X c #EDE7E0",
"7X c #ECEBE2",
"8X c #F2EDE5",
"9X c #F1EAE5",
"0X c #EFF3E8",
"qX c #EFF0E5",
"wX c #F3F4E5",
"eX c #FAF9E5",
"rX c #F5F6EB",
"tX c #FAF5EC",
"yX c #F6F9ED",
"uX c #FAFAED",
"iX c #F9F1E7",
"pX c #F7F9F0",
"aX c #FCFCF2",
"sX c #FFFFFB",
/* pixels */
"                                                                                                    ",
"                                                                                                    ",
"                                                                                                    ",
"                                                                                                    ",
"                                                                                                    ",
"                                                                  k 7 7 7 7 s v H K K H D v v C     ",
"7 l 2 * @ O O O O O O $ $ $ $ O O . .                 5 2 * @ @ = $ $ @ @ @ * * * * * @ O O O #     ",
". . . . 4 8 7 8 8 4 4 4 2 4 2 . . . . a               @ . . . 1 s 8 6 7 2 % $ . . O * . . . . .     ",
". . O . . . . . . . . . . . . . . . . 2               $ . . @ . . . . . . . . = f v H H 8 . . .     ",
". . . . D.Y.Y.(.(.].XX].[.oXI.l + X . 8               O O . k !.+XXXXXoXoX$X$X$X-XR.n.M.] . $ .     ",
". $ # . -XuXyXyXuXaXaXaXaXaX1XO.< 2 . 7               . @ $ . -XsXyXyXyXyXyXyXyXpX[.C.A.o.. o . H   ",
". . 1 . $XuXrXyXuXyXyXrXyXyX2X4.< 2 . .               . $ 2 . OXpX0X0XrX0X0X0X0XwX^.A.S.-.. o . C   ",
". $ 1 . XXaXyXyXuXyXyXyXyXyX7X8., 4 . . K             . O 2 . +XaXrXyXyXrXrXrX0XrX~.Z.G.-.. # . s   ",
". . 7 . .XsXrXyXuXyXyXyXyXyXpXn.j l . . l             . $ 9 . +XaXpXrXyXrXrXrXrXrXQ.Z.G.-.. $ . #   ",
"O . 4 . /.sXrXrXuXuXyXyXyXyXrXn.: g . . .             . O 2 . [.aXpX0XyXyXrXrX0X0XQ.v.G.;.. $ . .   ",
". . 8 . /.sXrXrXpXtXyXyXyXyXpX  : z . . %             . . l . !.sXpXpXyXyXyXrXyX0XR.v.A.o.. # . .   ",
". . 8 . !.aXyXpXpXyXyXuXyXyXrX  S E . . X             . 2 . x.1XuXrXrXuXyXrXrXyXqXL.c.Z.o.. $ . .   ",
". . 8 . R.aXtXyXyXyXyXyXyXyXyX  Y } . . . 4           . 7 . *XaXrXuXpXrXyXyXyXpX8XK.j.C.| . $ . .   ",
". . 8 . R.aXrXyXaXyXyXyXyXyXyX    $.u . . u           . 9 . *XaXrXuXuXuXyXuXyXyX7XK.f.v.| . $ . O   ",
". . a . F.aXrXuXuXyXpXyXyXyXyX      N . . 4           X # . =XaXuXuXaXtXuXpXyXaXqXJ.f.V.` . X . .   ",
". . 8 . F.aXrXyXuXpXyXyXyXyXyX      A . . #           X . X ,XaXrXuXuXuXuXuXyXuXwXJ.g.V.` . O . .   ",
". . a . D.aXtXuXyXpXyXyXpXyXpX      W . . # E         # . z 1XaXrXyXuXuXeXuXyXuXiXJ.g.f.~ . X . .   ",
". . u . D.aXyXuXuXyXpXuXyXyXaX        - . . c         # . G 2XaXtXuXuXuXuXuXyXuXrXK.t.j.Q . O . .   ",
". . 8 . D.uXtXuXyXaXyXuXyXaXaX        g . . N         # . ` 6XaXyXuXuXuXuXuXuXyXtXL.t.f.` . $ . X   ",
". . 8 . N.uXyXuXuXaXyXaXyXyXaX        z . . z         2 . -.7XyXyXuXuXuXuXuXuXuXtXU.t.f.` . X . .   ",
". . 8 . N.uXyXuXuXuXuXyXaXyXsX-X      m . . 6         4 . g.uXyXyXuXuXuXuXuXuXeXuXT.p.f.` . O . .   ",
". . 8 . M.yXeXyXaXuXaXyXaXuXsX1X      N . . ; A       4 . S.aXuXuXuXaXuXuXuXuXuXuXW.t.c.} . O . X   ",
". . 8 . N.yXyXyXuXuXuXaXaXpXsX7X      A . X % M       2 . ~.aXaXaXyXuXuXuXuXuXuXuXT.p.c.| . X . .   ",
". . 8 . M.yXyXyXuXuXuXaXaXuXsX7X      / . X % N       . l #XuXuXuXuXuXuXuXuXuXuXaXW.p.c. .. X . O   ",
". . 4 . x.rXeXyXuXuXaXaXaXpXaX7X      / + . ; z W     6   <XuXuXaXuXuXuXuXuXuXuXuXW.p.v.o.. X . .   ",
"O . 4 . 8.0XyXuXaXuXaXaXaXaXaXaX        ; . 3 z /     Z   ,XeXuXaXuXtXyXaXaXaXuXaXW.w.c.%.. . . o   ",
"= O 4 . 8.yXyXuXaXaXaXaXaXaXaXsX        y X y M W         eXuXuXuXyXuXwX;X6X9XtXtXU.a.c.2.o . . 2   ",
"O O 7 . 8.rXiX6XpXsXaXaXaXaXaXsXOX      g % c J [       }.eXuXuXyXuXaX;Xm %.4.6.5.%.5.6.*.u . . 5   ",
"* . # . ' oXR.8.{.aXaXaXaXaXsXsX%X      J J         }. X<XuXeXuXuXtXaX2X| m R p . X u u u X . . 4   ",
"* . . . . * O A L.sXaXaXsXaXaXsX:X                _.<X,X4XuXuXeXuXeXuXiX5.A { Q u O . . . . . . 8   ",
"5 . O . * 2 5 A E.aXsXaXaXaXaXsXuXQ.        X.O.  E. X<X5XuXuXuXuXuXuXaXg.p } R % . X X O . X . l   ",
"s . O O + - = M ~.aXaXaXaXaXaXaXrX`.        } X.     X<XeXuXuXuXuXaXaXaXS.& | G & . X X X . . . b   ",
"x . O . + * * , ~.aXaXaXsXaXaXaXuX2X%X%X            }.3XuXaXuXuXuXpXaXsXE.. | G + . . . . . X . F   ",
"Z d - * * + 2 : ^.sXsXaXaXaXaXaXuXeXuXaXtX8X8X5X3X3X3X4XuXaXaXaXaXuXaXaX_.&  .A X X . . . . . . F   ",
"  v 5 j 7 O 6 : _.sXsXaXaXaXaXuXuXyXyXaXuXeXuXuXuXuX5XwXpXwX2XiXaXaXaXsX>Xp | n X . X X 3 6 4 4 ]   ",
"    F ' g . 7 , 9.*X6XwXiXuXuXaXaXuXuXuXtXrXyXrXrXyXrXrXaX@X:.m.J.L._.2X&XT g 4 . . . 4 J           ",
"        C . . + . y %.u.b.H.>XsXuXaXuXuXrXtXeXtXeXyXyXrXpX2Xm.d.e.<.+.:.5.m . X X X . 2             ",
"        b . X . 3 G :.q.s.z.'.uXaXuXuXuXeXuXyXyXiXyXrXrXaX2Xv.h.d.l.3.>.$.h X # X . . 3             ",
"        C . X . > Z *.q.z.z.'.aXuXuXtXaXuXyXtXyXyXrXyXeXuX2Xk.h.d.y.,.&.$.h X + + X . 4             ",
"          . . . > M &.w.s.z.).uXaXtXaXuXuXuXyXuXtXeXrXyXaX:Xk.h.d.u.=.$.) h + + $ o X 4             ",
"          . X X s j %.w.i.z.W.tXsXuXaXaXuXuXuXeXuXyXyXiXuX:Xd.h.l.l.&.( W g + # + o o 8             ",
"          + . . s 6 I ^ w.q.P.tXuXtXaXuXuXuXuXuXuXeXyXrXaX;Xy.h.d.u.{ u M 3 . + % X u               ",
"          @ . @ d 2 . & I ! k.iXsXaXuXuXuXuXuXuXyXtXyXiXuX>Xr.d.l.t.Z . # X . + - o n               ",
"          @ . @ d 7 % < @ 0 2.rXaXtXaXaXtXaXuXuXeXyXeXtXtX#Xr.d.y.6.l . O . . + 2 9 n               ",
"            * 1 k 5 @ < - w 1.9XaXaXaXtXuXaXuXuXyXtXyXiXaX|.0.d.y.>.. . . . . # 4 u                 ",
"            x C x 5 + + & & @.6XaXpXtXuXuXuXuXuXeXyXyXeXtX).0.r.r.*.. X . . . 8 G c                 ",
"              ' _ d + + % & ! 6XaXuXsXuXuXuXuXuXyXrXyXyXtXP.0.r.e.%.. $ . . . G ]                   ",
"                  b . % % & U 2XaXtXpXpXuXuXuXuXyXyXtXrXyXL.1.r.e.... O . . X J                     ",
"                  x # + o X U :XaXpXtXaXuXuXuXuXuXuXuXrXuXG.1.0.,.{ . X . . 3 R                     ",
"                    - . $ . L ;XaXaXuXuXuXuXuXuXeXuXuXrXtXV.1.,.:.R . . . . u W                     ",
"                    > X # . U ;XaXaXaXuXuXuXuXuXuXuXuXtXtXm.+.,.:.G . $ . . h W                     ",
"                    s . # . U ;XaXtXpXuXuXuXuXuXuXuXtXpXtXm.+.:.:.B . . . . z J                     ",
"                    j . # . I ;XsXtXtXaXuXuXuXuXuXaXtXpXtXf.+.:.&.N . $ . . N                       ",
"                    b . % . ! ;XuXuXuXuXaXuXaXuXaXuXtXtXqXg.+.&.&.N . . . 9 G                       ",
"                    x . % . ^ <XaXuXaXuXaXuXuXaXaXuXaXtXqX7.@.&.%.z . . . n `                       ",
"                    l . % .  .2XaXpXpXpXaXpXuXyXuXtXuXuX9Xt.@.&.$.z . . . ~  .                      ",
"                    l . # . ~ wXsXsXsXsXsXsXsXsXsXsXsXsXrX5...$. .z . . 9 ~                         ",
"                    8 . . . i L.Q.~./._.`.XXOX@X@X@X@XOXQ. .) ! R 3 . . a ]                         ",
"                    8 . . . 3 e 0 q q q q q q t t r r t r Y T h y X . . n                           ",
"                    2 O . . u  .$.$.=.>.>.>.>.>.>.=.=.=.X.) Y M y X X . V                           ",
"                      $ . . g ) ..$.$.=.=.=.=.&.=.$.$.X.} ( A h y + . O J                           ",
"                      O . . 2 c B S S S A A A A Z N c h g y : > @ . . 4 ~                           ",
"                      @ * - . . . . . . . . . . . . . . . . . . . . . l                             ",
"                        ' F . . . . . X . X . . O . . . . . . . . . . F                             ",
"                          G . O . . . . . . . . . . . . . . . O . . . G                             ",
"                          F . . . . . . . . . . . . . . O . . O O . 2 G                             ",
"                          F . . . . . . . . . . . . . . . . . . . . 2                               ",
"                          K . @ @ @ O @ @ @ @ # * * s D D C D b x 2                                 ",
"                                                                                                    ",
"                                                                                                    ",
"                                                                                                    "
};
