/* XPM */
static char *out[] = {
/* columns rows colors chars-per-pixel */
"50 67 205 2 ",
"   c None",
".  c #000000",
"X  c #02010D",
"o  c #050215",
"O  c #090416",
"+  c #0B0916",
"@  c #05011A",
"#  c #0A051A",
"$  c #0D0B1B",
"%  c #060818",
"&  c #110D1D",
"*  c #130C11",
"=  c #0E111C",
"-  c #14131D",
";  c #19151E",
":  c #151015",
">  c #020023",
",  c #0B0521",
"<  c #0D0924",
"1  c #00052B",
"2  c #120E23",
"3  c #140F29",
"4  c #160428",
"5  c #0E1126",
"6  c #151322",
"7  c #191623",
"8  c #171825",
"9  c #1C1A24",
"0  c #161329",
"q  c #1A152B",
"w  c #1D1C2A",
"e  c #161828",
"r  c #000031",
"t  c #200F2B",
"y  c #201F26",
"u  c #211E2A",
"i  c #1F212B",
"p  c #1E2333",
"a  c #23222C",
"s  c #28272D",
"d  c #29282F",
"f  c #222227",
"g  c #242432",
"h  c #292735",
"j  c #272932",
"k  c #2B2A34",
"l  c #24253B",
"z  c #2A263C",
"x  c #272939",
"c  c #2C2D3C",
"v  c #302F37",
"b  c #312F38",
"n  c #2E323D",
"m  c #34343A",
"M  c #3A3A3C",
"N  c #38363B",
"B  c #2C2E44",
"V  c #2D3040",
"C  c #363443",
"Z  c #363B44",
"A  c #3C3B41",
"S  c #3C3B49",
"D  c #363648",
"F  c #423E46",
"G  c #3F4146",
"H  c #3C414B",
"J  c #42454D",
"K  c #474A4E",
"L  c #4B4C4C",
"P  c #434544",
"I  c #4A4C51",
"U  c #444753",
"Y  c #4C5253",
"T  c #505356",
"R  c #54565D",
"E  c #55595B",
"W  c #595A5C",
"Q  c #535856",
"!  c #575B62",
"~  c #5C5E65",
"^  c #5A6171",
"/  c #636363",
"(  c #63656C",
")  c #6A6A6C",
"_  c #6A6867",
"`  c #75756D",
"'  c #686671",
"]  c #6C6B74",
"[  c #656871",
"{  c #6E7376",
"}  c #727375",
"|  c #74767B",
" . c #767B7C",
".. c #7A7E7E",
"X. c #83837E",
"o. c #747983",
"O. c #7C7E82",
"+. c #757B87",
"@. c #7D8181",
"#. c #7E848C",
"$. c #74818D",
"%. c #7A8295",
"&. c #838383",
"*. c #898A85",
"=. c #81878F",
"-. c gray54",
";. c #8E928E",
":. c #838A93",
">. c #8A8F96",
",. c #828C9E",
"<. c #808790",
"1. c #8D9295",
"2. c #85919D",
"3. c #8B939B",
"4. c #949592",
"5. c #92949D",
"6. c #959B9D",
"7. c #9A9C9B",
"8. c #9A9894",
"9. c #9BA09E",
"0. c #A3A29E",
"q. c #8D99A5",
"w. c #8C96A6",
"e. c #959BA4",
"r. c #9A9EA3",
"t. c #939EAA",
"y. c #9397A3",
"u. c #9DA4A5",
"i. c #9CA3A8",
"p. c #95A1AB",
"a. c #A2A6A5",
"s. c #A5ABAA",
"d. c #AAADAB",
"f. c #A5A8AB",
"g. c #ABB0AB",
"h. c #B2B6AF",
"j. c #A5ADB2",
"k. c #A9AFB4",
"l. c #A6AEB8",
"z. c #A7B0B4",
"x. c #ABB2B5",
"c. c #ADB5BB",
"v. c #AFB8BE",
"b. c #A7B2B8",
"n. c #B2B5B4",
"m. c #B2B8B4",
"M. c #B2BABD",
"N. c #BDC1B8",
"B. c #C2C5BD",
"V. c #CEC6B5",
"C. c #D3CBB7",
"Z. c #D9D2B7",
"A. c #B3BCC2",
"S. c #B5BBC3",
"D. c #B7C0C5",
"F. c #BCC1C2",
"G. c #BCC5C9",
"H. c #C3C4C3",
"J. c #C9CCC6",
"K. c #CDD2C8",
"L. c #D2D4CB",
"P. c #D2D9CE",
"I. c #DAD6C7",
"U. c #CED3D1",
"Y. c #D1D6D2",
"T. c #D5DBD3",
"R. c #DADED4",
"E. c #D7D9DA",
"W. c #DBDBDD",
"Q. c #D7D7D9",
"!. c #E5DCC2",
"~. c #E8DFC6",
"^. c #DCE2D6",
"/. c #DDE3DB",
"(. c #ECE3C5",
"). c #E6E5CD",
"_. c #EBE5CA",
"`. c #EFEACD",
"'. c #F4ECC4",
"]. c #F2EAC9",
"[. c #E2E6DE",
"{. c #E3E8DE",
"}. c #ECECDB",
"|. c #EAECD4",
" X c #F4EFDB",
".X c #ECF1DC",
"XX c #F4F4DD",
"oX c #F6F8DE",
"OX c #DDDDE2",
"+X c #E5EAE3",
"@X c #EBECE3",
"#X c #ECEFE9",
"$X c #E0E7E1",
"%X c #EDF1E4",
"&X c #EDF1E9",
"*X c #F2F5E4",
"=X c #F5F9E4",
"-X c #FAFCE4",
";X c #F2F3EB",
":X c #F5F9EB",
">X c #FBFEEC",
",X c #F7FBF1",
"<X c #FEFFF3",
"1X c #FFFFFB",
"2X c #F2F2F0",
/* pixels */
"        h h c D c & 6 & & & - ; ; 9 a a j k j j j a i w 0 7 6 7 0 & 2 6 7 6 w w w 0 7 6             ",
"        g z k D B @ @ , # , , @ @ @ O o o o o @ o o O @ O # O # # # @ # # O O @ @ @ @ O             ",
"        g g k c l @ @ > @ > > > @ @ @ @ @ , @ # , # # @ % @ # # # @ @ # # # @ # # # # #             ",
"        g g g c z w g i g a g a a a w w w w w e e 7 w 7 9 9 9 9 9 9 w 7 6 0 7 6 7 9 q u             ",
"        a g g h z . . . . . . . . . . . . . . . . . . . . . . . . . . . . . . . . . . .             ",
"        6 0 7 t 0 ] @. .O.O.@. .| { [ ( ~ ! ! R R E R E W W E E E Q Q Y I K I I T W _ ) k           ",
"        O # # 6 . OX1X:X>X>X,X>X>X:X:X:X:X;X=X:X:X:X:X:X:X:X=X=X=X=X=X*X%X.X|.).).~._.I.w . 7 O $ $ ",
"        * # # ; o W.<X>X>X>X>X>X-X>X>X>X>X>X>X>X>X>X>X-X>X>X>X>X>X>X>X>X>X-XoX|.].'.'.Z.3 o - O O % ",
"        * # # * > OX<X>X>X>X>X>X>X>X>X>X:X>X>X>X>X-X-X>X>X-X-X>X>X:X>X=X-X-X|._.].(.'.C.3 o 7 # O + ",
"        # & # * @ OX<X:X>X>X>X>X>X>X>X:X>X>X>X>X>X>X>X-X>X>X>X>X>X>X=X>X-X-X`.(.(.~.(.C.4 X ; O # = ",
"        # # * ; X W.<X:X>X>X>X>X>X<X>X>X>X>X>X>X>X>X>X>X>X-X>X>X>X>X>X>X:X-X_.!.~.!.~.V.t . 7 O O - ",
"        * & # ; . W.<X>X<X>X<X>X>X<X>X>X>X>X>X>X>X>X>X>X>X>X>X>X>X:X>X-X>X:X XXX X}.XXI.a . 9 O O 6 ",
"        * # O 9 . Q.<X>X<X<X<X>X<X<X<X<X<X<X<X,X>X>X>X>X>X>X>X>X>X>X>X>X>X>X>X<X>X>X<X}.h . 9 O o 6 ",
"      7 # # O y . Y.<X,X<X<X<X<X<X1X<X1X1X<X<X1X<X>X<X<X<X>X<X>X>X>X>X>X>X>X>X<X<X>X<X{.k . 9 + o 6 ",
"      7 # # o a . U.1X,X<X<X<X<X1X,X,X1X<X1X<X<X<X,X<X<X>X>X<X>X>X>X>X>X:X>X>X,X>X>X<X@Xk . 9 O % - ",
"      7 # * o a . U.1X1X1X1X1X1X1X1X1X1X1X1X1X1X1X1X<X<X<X<X>X<X>X>X>X<X>X>X<X<X<X,X1X@Xv . 9 O % = ",
"      ; # O o s . H.1X;X;X;X;X@X;X;X2X2X2X;X;X#X#X@X&X<X<X>X>X>X>X<X>X>X>X>X<X1X1X1X1X[.2 . 9 O % = ",
"      - O # O $ . L E L P A N m N N M M F A A A F . -.<X<X>X<X>X>X>X>X>X>X,Xn.d.S.H.U.d.. ; $ O + = ",
"      & o O O o + . . . . . . . . . . . . . . . 0 . &.<X>X<X>X<X<X>X>X,X>X,Xs.:.i.r.j.:.. 6 + O O = ",
"      + O O O O o 7 y y y y 9 y 9 y 9 y 9 y u 9 b . &.<X>X>X<X>X>X>X,X,X>X,Xn.y.j.j.c.>.. ; + O O $ ",
"      O o O O O O o O O O O # # # # # O 7 s s a N . O.,X>X>X>X>X>X>X>X<X>X>XM.y.j.j.l.:.. ; # O O = ",
"      X O O O O O O o O O o O + O # O ; . . . . . . ' <X>X>X>X>X>X>X>X>X>X<XF.p.b.b.v.5.. - O o % 5 ",
"      = & O O O O + $ $ $ 6 $ $ # # y . / d.0.0.8.X.d.>X>X>X>X>X>X>X>X>X>X,Xt.^ o.o.O.' . 6 $ % o   ",
"                            Z $ 6 # v . 0.<X>X>X>X-X>X>X>X>X>X>X>X>X>X>X>X,X/ . . . . . w     m n   ",
"                            n e 0 2 v . 8.oXoXoXoXoXoXoX-X>X>X>X>X-X>X>X>X,X( . s ; 9 -         H   ",
"                            a 6 0 2 v . 8.>XoXoXoXoX-X-X>X>X>X>X>X-X>X>X,X:X( . y o o X             ",
"                            i 6 0 3 k . *.-XoXoXoXoXoX>X>X>X>X>X-X>X>X>X<X,X) . f o X * 9           ",
"                              6 2 $ s . ` oXoXoXoXoXoX>X>X>X>X>X>X>X>X,X,X@XR . 9 O O X k           ",
"                              O O O y . _ oXoXoX>X-X>X>X>X>X>X>Xh.} @. .) G # O O o O X             ",
"                              # @ @ a . ` -X>X-X>X>X>X>X>X>X>X<XX.. . . . . @ O X O O X             ",
"                              O # # h . X.>X>X>X>X>X>X>X>X>X>X<X;.. m s f 6 # O O O + +             ",
"                              d 9 & d . *.>X>X>X>X>X>X>X>X>X>X<X4.. 9 o o O O O O O O +             ",
"                              . . . < . *.>X>X>X>X>X>X<X1X,X1X1X;.. a o o o O o # O O $             ",
"                  O   O - .   T.R.R.+X@X*X>X-X>X>X>X:X^./.OX/.Y./ . ; o o o O + # $ $ e             ",
"                  # # # 6 . J 1X1X<X<X>X>X>X>X>X-X<X+X%.%.w.w.+., . $ o O X                         ",
"                  @ @ @ 2 . G ;X>X-X-X>X>X>X>X>X>X>X+Xw.t.w.t.q.x . $ O o O                         ",
"                  0 9 u j X L ;X>X>X>X>X>X>X>X>X>X<X%Xq.q.q.t.q.c . $ O O X                         ",
"                  . . . . . o #X<X:X:X>X>X>X<X>X,X<X%Xq.t.t.p.p.S . & O O X                         ",
"                  A L / ) _ &.%X>X-X>X>X=X*X*X%X%X:X^.$.2.2.q.q.C . ; O o o                         ",
"        g l g m . m..XXX*X%X-X>X>X>X-X-X*X^.R.R.L.^.g.. g a c n $   + : 9 9                         ",
"        l l p B > K.-X*X-X:X-X:X-X>X-X>X*X^.^.T.T.^.g.. - . . . -                                   ",
"        x l l B 1 L.-X.X=X-X>X:X:X-X:X-X=X/.^.R.P.^.g.. 9 O + o -                                   ",
"        x g g B r I.>X*X=X=X-X-X>X>X-X>X=X/.^.T.Y./.d.. 9 o o X -                                   ",
"        x l g n o L.>X=X:X=X-X:X-X:X>X:X:X+X$X/./.#Xn.. 9 o o o +                                   ",
"        2 2 $ j . K.<X-X>X>X>X>X>X>X:X<XL.( o.@.-.7.| . & o O O + - 6 2 & & & & $ + + & 7 9 u u g n ",
"        O O X i . K.1X:X>X>X>X>X>X>X-X1XB.. . . . . . & @ O @ O O % O O # # $ O O & O $ & 2 ; & 9   ",
"      O # $ o f . L.1X>X<X>X>X>X>X>X>X<XB.. k a u u 7 # # # # # # # # # # # # # # # # $ 2 2 6 7 w   ",
"      % 6 6 $ f . L.<X,X<X>X>X<X>X<X>X<XB.. k w u w u w u u u u i f 9 a y u f a a f a y - 6 0 6 w   ",
"      % . . . f . Y.1X>X<X>X<X>X<X>X>X1XB.. X . . . . . . . . . . . . . . . . . . . . . 2 9 6 6 w   ",
"      6 F z 0 & . Q.1X<X<X>X<X>X>X<X>X<XH.> T I I I T W ~ ( ] ] ] ] ] ' ( ( ( ] { | | ( w $ 6 - 9 c ",
"  H Z 6 i.k.r.1.O.@X<X<X<X<X>X<X>X>X>X>X:X@X%X%X%X*X;X*X:X,X:X,X,X,X,X,X:X:X:X>X>X:X,X[.Z . 9 O % - ",
"  H U @ 7.m.g.s.u.@X<X<X<X>X<X>X<X>X<X>X>X<X<X<X<X<X<X<X>X>X<X>X>X>X>X>X>X>X>X>X>X>X>X@XA . y + o 9 ",
"  U H 5 u.m.d.u.7.@X<X<X<X<X>X<X>X<X>X<X>X>X>X>X>X>X>X,X>X>X>X>X>X>X>X>X>X:X>X:X>X>X>X@Xm . 9 O O 9 ",
"      q u.m.s.u.9.%X<X>X>X>X>X>X<X>X>X>X>X>X,X>X,X>X<X<X>X<X<X>X>X>X,X>X>X>X>X>X>X>X<X[.h . 9 # o 9 ",
"      x g.N.m.f.1.@X1X<X<X<X<X<X<X<X<X<X<X<X<X<X<X<X<X<X<X<X<X<X<X<X<X<X>X<X<X>X<X<X1X{.$ X 9 % % 8 ",
"      w ] O.} ~ > h./.E.E.E.T.T.T.Y.T.Y.U.L.U.P.L.Y.T.T.R./.[.[.[.[.[.[.[.[.^.{.$X+X%XB.. $ - + O - ",
"      ; . . . . . 1.c.f.j.j.j.j.j.l.j.l.l.l.j.f.j.z.j.j.j.k.k.x.k.d.j.f.i.u.6.e.u.i.c.3.. ; $ # + - ",
"      & w u w g . e.D.v.A.A.A.A.M.A.A.A.A.A.A.A.M.M.v.v.M.v.v.c.c.c.c.b.z.j.s.j.x.z.M.y.. 6 $ # + = ",
"      & @ @ o 7 . 5.M.c.c.c.b.b.c.c.v.c.l.v.c.v.c.c.c.c.c.x.b.x.x.x.j.j.j.j.j.j.j.j.v.5.. 6 $ # % + ",
"      # # # @ 9 . i.H.A.N.D.S.A.D.D.D.D.S.A.A.A.D.A.A.A.A.A.A.v.M.v.v.v.A.c.b.A.v.M.G.t.. ; # @ O % ",
"      6 # , # 0 . #.f.e.t.e.e.e.e.y.3.3.3.3.3.3.3.3.2.:.:.=.#.#.=.%.:.:.%.:.>.2.3.3.q.+.. - & & - 6 ",
"      w # # # # $ . . . . . . . . . . . . . . . . . . . . . . . . . . . . . . . . . . .             ",
"      i # # # # # 2 6 7 6 6 9 7 6 9 7 7 w 9 6 9 7 6 9 9 6 7 7 6 9 9 6 6 6 6 6 7 6 6 6 6             ",
"      i # # # # # # @ O @ o o O o O @ @ O @ O o O O O O O O O O O o O O O O O O O O O #             ",
"      0 # # # % # # # # # @ O @ # # # @ # # # # # # # # O # # O % # # # # # # # # # O #             ",
"      0 < # # # # # # # # # # # # # # # # , # # # # , $ # # # # # # # # # # # # # $ # $             ",
"                0 0 0 0 3 3 3 0 0 3 3 3 0 5 < < , , @ @ # # # # # , # , < + $ $ $ 2 $ 0             "
};
