/* XPM */
static char *_[] = {
/* columns rows colors chars-per-pixel */
"64 64 41 1 ",
"  c None",
". c #181818",
"X c #222222",
"o c #393939",
"O c #3F3F3F",
"+ c #464646",
"@ c #4B4B4B",
"# c gray36",
"$ c gray38",
"% c gray42",
"& c #6A767E",
"* c #BC2E2E",
"= c #B03E3E",
"- c #DE0000",
"; c #D60B0B",
": c #CD1616",
"> c #CD1818",
", c #C02929",
"< c #F75A08",
"1 c #E75F18",
"2 c #EF7B18",
"3 c #DD6221",
"4 c #C16B3E",
"5 c #D27C33",
"6 c #975F5F",
"7 c #9D5858",
"8 c #AD4343",
"9 c #A54E4E",
"0 c #A84848",
"q c #A15454",
"w c #AD7152",
"e c #8F6A6A",
"r c #976060",
"t c #906A6A",
"y c #F7B521",
"u c #EFA573",
"i c gray63",
"p c gray74",
"a c #EFBD9C",
"s c #EFDECE",
"d c white",
/* pixels */
"                                                                ",
"                                                                ",
"                                                                ",
"                                                                ",
"                                                                ",
"                                                                ",
"                                                                ",
"                                                                ",
"                                                                ",
"                                                                ",
"                                                                ",
"                                                                ",
"                                                                ",
"                                                                ",
"                                                                ",
"                                                                ",
"                                                                ",
"                                                                ",
"                                                                ",
"                                                                ",
"                                                                ",
"                                                                ",
"                                                                ",
"                                                                ",
"                                                                ",
"                                                                ",
"                                                                ",
"                                                                ",
"                                                                ",
"                                                                ",
"                                                                ",
"                                                                ",
"                                                                ",
"                                                                ",
"                                                                ",
"                           t08qr                                ",
"                          >------<-& 6                          ",
"                         ------<<------8                        ",
"                        ------<2<<<---<<;                       ",
"                      r--<<<<<<22222-<----                      ",
"                     e---<<<2222222222<----                     ",
"                     ;--<<222y2yy222222<<-<w                    ",
"                     ----2<yyyyyayyyyy22-<-q                    ",
"                    -<-<<22yyyssyyyyyyy22--                     ",
"                   ;--<<22ayysssssyyyyyy2<-3                    ",
"                   ---<2yyyyssdddssyyauy22<<4                   ",
"                   --222yyyssdpppdssyyyyy2225                   ",
"                   ;222yyyssdpp #pdsdyyu22<29                   ",
"                   7<2222yysp p # pdsayy2<<-                    ",
"                    1<<222yy #dp # syyyyy<<q                    ",
"                     --2222y#O###O#2yyy22<*                     ",
"                     e--222uOO p OO22222<,                      ",
"                       -2222.O# #O.2222<=                       ",
"                        *<--.O# #O.-<<:e                        ",
"                          :-.O# #O.-=                           ",
"                            .# p #.                             ",
"                            O#OOO#O@                            ",
"                           + OOOOO X                            ",
"                           .OO# #OO.                            ",
"                          O.O# p #O.O                           ",
"                          .O## p ##O.                           ",
"                       $# ps # p # sp #$                        ",
"                      @  ###O# p #O###  @                       ",
"                          @@#% i %#@@                           "
};
