/* XPM */
static char *_[] = {
/* columns rows colors chars-per-pixel */
"65 65 38 1 ",
"  c None",
". c black",
"X c #282008",
"o c #382810",
"O c #202020",
"+ c #282828",
"@ c gray20",
"# c gray22",
"$ c #483818",
"% c #503818",
"& c #574226",
"* c #584020",
"= c #59462C",
"- c #684820",
"; c #704828",
": c #734F33",
"> c #6E5537",
", c gray25",
"< c #484848",
"1 c gray31",
"2 c #515151",
"3 c #5A5A5A",
"4 c #73614B",
"5 c #796758",
"6 c #606060",
"7 c #676767",
"8 c gray43",
"9 c #786D60",
"0 c #63747D",
"q c #C80000",
"w c #885A33",
"e c #986038",
"r c #A06038",
"t c #866346",
"y c #989898",
"u c gray66",
"i c gray69",
"p c #C0C0C0",
/* pixels */
"                                                                 ",
"                                                                 ",
"                                                                 ",
"                                                                 ",
"                                                                 ",
"                                                                 ",
"                                                                 ",
"                                                                 ",
"                                                                 ",
"                                                                 ",
"                                                                 ",
"                                                                 ",
"                                                                 ",
"                                                                 ",
"                                                                 ",
"                                                                 ",
"                                                                 ",
"                                                                 ",
"                                                                 ",
"                                                                 ",
"                                                                 ",
"                    88                                           ",
"                   2rr                                           ",
"                  ###<2                                          ",
"                 +<. 3<                                          ",
"                +..q.u <                                         ",
"               @.# uy 7 2                                        ",
"              3+# y 2<+2 2                                       ",
"             32O+. 2.iO+272                                      ",
"             7e<..2.7OO2+272                                     ",
"               <,<@ ..OO<+<27                                    ",
"               28#O.<.OOi.#<28                                   ",
"                2 <O.2.2+.<<3<                                   ",
"                228,++ +.+2783,                                  ",
"                 2 2<#..O,7  7<3                                 ",
"                 2772<#+,3    2,                                 ",
"                 7  22<<3 72  7<<                                ",
"                  p 2233832<7  <#                                ",
"                 <<3 22772<+2  2<8                               ",
"                 ,<<2@,222#+2  2<7                               ",
"                 p,##+#<<<@O# y 23                               ",
"                 72+OO+#,#@O2yu 77                               ",
"                 72<#+++#@@# p i<7                               ",
"                 7222#+++@#O#222#                                ",
"                 72<22,++++O...OO                                ",
"                 822<<@+++OO...O+                                ",
"                  72,,++++OO..O+@                                ",
"                  77#++++OO...#O3                                ",
"                  83@O++OO...O2@                                 ",
"                  8 2OOOO...O#7#                                 ",
"                    2+O....O#222                                 ",
"                    2#+O..O#27<                                  ",
"                    7##OOO+<7<<                                  ",
"                    72#@oo#22,                                   ",
"                     2@@Xo#2<2                                   ",
"                     7@@XX#<,                                    ",
"                     7<@0X<,#5                                   ",
"                     7<@00<,,w                                   ",
"                     7#000<,,,t                                  ",
"                     2#0000<2,*:                                 ",
"                     2#0000272o*;>                               ",
"                    72@0000   2o%%%;                             ",
"                      20XXX y2yXXooo$$%%=49                      ",
"                     3y%$oooXXXXXXXXXoooooo$$$$%&4               ",
"               t      00-----%%$$$$$$$$$$%%%----0                "
};
