/* XPM */
static char *_039457e8a5446b5c3f1e14764f82edaKaPN96TCh3itUKBa_45[] = {
/* columns rows colors chars-per-pixel */
"80 82 16 1 ",
"  c None",
". c black",
"X c #5A3A21",
"o c #104231",
"O c #196B63",
"+ c gray39",
"@ c #DE733A",
"# c #9C5A4A",
"$ c #21A57B",
"% c #EF9C3A",
"& c #AD8C42",
"* c #F7BD5A",
"= c #EFBD8C",
"- c #FFEFBD",
"; c #CECECE",
": c white",
/* pixels */
"                                                                                ",
"                                                                                ",
"                                                                                ",
"                                 X                                              ",
"                                 X-X                                            ",
"             XX                  X--.                                           ",
"            X--                   X-.                                           ",
"           X-.XX                  X=.                                           ",
"          X-. X       X           X=.                                           ",
"          X-.        X%.          X.                                            ",
"         X-.        X%%%X         X=                                            ",
"          X=..      X%%@..    XXXX=.                                            ",
"           .==XX   X%##%%%..XX====.                                             ",
"            ..==XX.%%%%%%##===....                                              ",
"              ..=.%**%%%#==XX..                                                 ",
"                .%****%%=XX%%%.                                                 ",
"                .%****%#XX%%%%@.                                                ",
"               .%%%**%%%#%%%%%@.                                                ",
"               .%%%%%%%%%%%%%%@.                                                ",
"               ..%%%%%%%%..%%@@.                                                ",
"               .;%%%%%%%.;;.%@@.          XX XXXX......                         ",
"         ...... .%%%%%%%:.;.%@@.        XX#XX%%%%%%@@@@                         ",
"         @@@@%%XX%%%%%%%.X:.@@@.       .%%%%%@OOO@OOOOOX..                      ",
"      ..XOOOOO@%@***%%%%.X;@@@@.       .%%O@OOOOOOOOOOO@@@X.                    ",
"    .XX@@OOOOOO.*****%%%@@@@@@@.       .%@OOO$$$OOOOOOOOOO@@.                   ",
"    .@@OOOOOOO.******%%%%%@@@@@@.    .@@Oo$$$$$$OOOOO..O....@                   ",
"   X@.......$$.%*****%%%%%%X@@@@.   ..@@Oo$$$$$$$O..       .@X                  ",
"   ..       .$$.%%%%%%%%%%%X@X@@.   .@@OOOo$$$$$..          .                   ",
"             .$.%%%%%@%%%%X@X@@@.  .%@OOOOO$$$$$.                               ",
"              .$.%%%X%%%@XXX@@@@@..%@@OOOOOo$$$.                                ",
"              .$o..@@@@XX=#@@@@%%.@OOOO$$$Oo$$$.                                ",
"               .o......####@@@%%%%.OOO$$$$OO$.                                  ",
"                .. .###===#@@@@%%%.OOOO$$$OoO.                                  ",
"                  X.======#@@@%%%%.O.OO...$Oo.                 X X              ",
"                 X%.===####@@%%%%%%....   ...               XX@XX@X@XX          ",
"                X%.=###===@@@%%%%%%.                    XX%X%%%%%%%@%XXX        ",
"               X%%.=======@@@%%%%%%@.                  XX@%%%%%%%%%%%%%XX       ",
"             XX%%%.=====--#@%%%%%%%%.                 .@%%%%%%%%%%%%%%%@X       ",
"           XX%%%%.#====-&&&@%%%%%%%%%.              .@@%%%%%%%%%%%%X@X%%@X      ",
"       XXXX%%%%%%.=###&&---&%%%%%%%%%@.            ..@@%%%%%%%%XX   X XXX       ",
"      X%%%%%%%%%.====------&%%.%%%%%%%.            .@@@%%%%%%@XX                ",
"     X@%%%%%%%%%.===-------&%%.%%%%%%%%.          .@@@@%%%%%%X                  ",
"    XX@%%%%%%%%.#=------&&&&%%%.%%%%%%%@..        .@@@@@%%%%X                   ",
"   .:.@@%%%%%%.==&&&&&&&===&%%%.%%%%%%%@@@..      @@@@@@@@@@X                   ",
"  .:;.@@@%%%@@.------------&%%%%%.%%%%%%%@@.      .@@@@@@@@.                    ",
"  ...+X@@@@@@.=------------&%%%%%.%%%%%%%@@@.    .@@@@@@@@@.                    ",
"    .::.X@@@@.-------------&%%%%%%.%%%%%%@@@.    .@@@@@@@@@.                    ",
"   .;...;X@@.=&&&&&&&&&&---&%%%%%@.@@%%%@@@@@. ..@@@@@@@@@..                    ",
"   .. .;.....&---------=&&&&%%%%%@@.@@@@@@@@@..@@@@@@@@@@@.                     ",
"      ..   .----------------&%%%@@@.@@@@@@@@XX.@@@@@@@@@@@..                    ",
"           .----------------&%%@@@@@.@@@@XX@;;.@@@@@@@@@@@..                    ",
"          .-----------------&%%@@@@@@.XX@;;.;;.@@@@@@@@@@@.                     ",
"          .--&&&&&&&&&------&%@@@@@@@.:;+;;..;.@@@@@@@@@@@.                     ",
"         X.&&=-------=&&&&&-=&@@@@@@@.:;..;.@.@@@@@@@@@@@@.                     ",
"        X%.---------------=&&&.%%%%@@.;.@@.@@@@@@@@@@@@@@@.                     ",
"       X*.------------------=.%%%%%%@@@..@@@@@@@@@@@@@@@@@.                     ",
"      X**.-----------------=.%%%%%%%%%@@@.@@@@@@@@@@@@@@@@.                     ",
"      X**.----------------===.***%%%%%%@@@.@@@@@@@@@@@@@.                       ",
"     X***.=-&&&&&&&&&&&=====.%****%%%%%@@@.@@@@@@@@@@@@@.                       ",
"     X***.&&----------=&&&&&.*****%%%%%@@@.@@@@@@@@@@@@@.                       ",
"     X**%%.==-------========.*****%%%%%@@@@.@@@@@@@@@@#.                        ",
"     X%%%%.================.%*****%%%%%@@@@.@@@@@@@@##&.                        ",
"     .%%%%.================.%%***%%%%%@@@@@.@@@@@@##&.                          ",
"     .%%%@@.&===========&&&.@%%%%%%%%@@@@@@.@@@@@#&#..                          ",
"      .@@@@.=&&&&&&&&&&&===.@@%%%%%%@@@@@@@.@@#@##&#.                           ",
"      .@@@@@.==============.@@@@%%%@@@@@@@@.####&#&.                            ",
"       .@@@@.&=============&.@@@@@@@@@@@@@@.&&#&#&.                             ",
"       .@@@@@.&========&&&&&.@@@@@@@@@@@@@.&#&&#..                              ",
"        .@@@@@.&&&&&&&&&&&&##.@@@@@@@@@@@@.&#.&.                                ",
"         .@@@@@..##########&&&.@@@@@@@@@@.&.. .                                 ",
"         X.@@@@@@..&&&&&&&&&&&&.@@@@@@@@@..                                     ",
"       XXX@#@@@@@@@....&&&&&&##&..@@@@@@@..                                     ",
"     ..%%%#@@@@@@@@.   ............@@@@@@@.                                     ",
"    .:+@%%@@@@@@@@.             .@@@%%%%%@@.                                    ",
"   .:.;+@%%@@@@@@.              .@%%%%%%%%%.                                    ",
"   .+:.:;@@@@@...               .@%@%%%@%%@@.                                   ",
"    ..::;+@@..                  .@@:@@@:@@:@.                                   ",
"     .......                     .::@::::@::.                                   ",
"                                 .::.::::.::.                                   ",
"                                  .:...:..:.                                    ",
"                                   .   .  .                                     ",
"                                                                                "
};
