/* XPM */
static char *_039457e8a5446b5c3f1e14764f82edaKaPN96TCh3itUKBa_91[] = {
/* columns rows colors chars-per-pixel */
"80 82 16 1 ",
"  c None",
". c black",
"X c #5A3A21",
"o c #104231",
"O c #196B63",
"+ c gray39",
"@ c #DE733A",
"# c #9C5A4A",
"$ c #21A57B",
"% c #EF9C3A",
"& c #AD8C42",
"* c #F7BD5A",
"= c #EFBD8C",
"- c #FFEFBD",
"; c #CECECE",
": c white",
/* pixels */
"                                                                                ",
"                        X                                                       ",
"                       X%.                                                      ",
"                      X%%%X                                                     ",
"                     X%%@..                                                     ",
"         X-X        X%##%%%.X            X                                      ",
"        X-XX       .%%%%%%%%%.         X--                                      ",
"         -        .%**%%%%%%%%         X-X                                      ",
"        X.      X.%****%%##=##.        X-                                       ",
"        X-.  XX=X.%****%#X=====XX     XX-.                                      ",
"        X--=.==..%%%**%%%X%X%XX==XX   X=.                                       ",
"         XX==.. .%%%%%%%%%%%%%%..=XXX===.                                       ",
"             .  ..%%%%%%%%..%%%@..=.=..                                         ",
"                .;%%%%%%%.;;.%%@. .         .                                   ",
"                 .%%%%%%%:.;.%@@.       XXXX%...                                ",
"                 X%%%%%%%.X:.@@@.     X#%%%%O@@X.                               ",
"                .@***%%%%.X;@@@@.    .%%O@OOOOO@@                               ",
"               ..*****%%%@@@@@@@.    .%OOOOOOOOOO.                              ",
"               .******%%%%%@@@@@.    %@O$$OOOOO..@                              ",
"              .%****%%%%%%X@@@@@.   .@o$$$$O...  .X                             ",
"              .%%%%%%%%%%%X@X@@.   .@@o$$$$.     ..                             ",
"             X.%%%%%@%%%%X@X@@@.   @@OO$$$.                                     ",
"             ...%%%X%%%@XXX@@@@.  .@OOOo$$.                                     ",
"                ..@@@@XX=#@@@@@@..@OOOO$$.                                      ",
"                  ....===#@@@@@@@.OOO$OO$.                                      ",
"                    .==###@@@@@@%.OO$$OO.                                       ",
"                   .###==#@@@@@%%%OO$$$o                                        ",
"                   .=====#@@@@%%%..O...o                                        ",
"                   .===##@@@@%%%%. .                                            ",
"                  .=###==@@@%%%%%%.                                             ",
"                 X.======#@%%%%%%%.                                             ",
"                X%.=====-#%%%%%%%%@.                                            ",
"                %.#====-&&@%%%%%%%%.                           X                ",
"              XX%.=###&&--&%%%%%%%%%.                         XXXXX@XX          ",
"            XX%%.====-----&%%%%%%%%%@                     XX%%%@%@%@%XXX        ",
"          XX%%%%.===------&%%.%%%%%%%.                  X@%%%%%%%%%%%%%XX       ",
"        XX%%%%%.#=------&&&%.%%%%%%%%                  .X%%%%%%%%%%%%%%%@       ",
"       X%%%%%%.==&&&&&&&==&%%.%%%%%%%.               ..@%%%%%%%%%%X%X@X%@X      ",
"       X@%%%%%.-----------&%%.%%%%%%%@.             .@@@%%%%%%%%%XX X  XXX      ",
"       X@%%%%.=-----------&%%%.%%%%%%@@.            .@@%%%%%%%@X                ",
"      X.@@%%%.------------&%%%.%%%%%%%@@.          .@@@@%%%%%XX                 ",
"     .:.@@@@.=&&&&&&&&&&--&%%%%.%%%%%%@@.          .@@@@@%%%%X                  ",
"    .:;+X@@@.&---------=&&&%%%%.@@%%%%@@@.        .@@@@@@@@@.X                  ",
"    ...::.X.---------------&%%%@.@@@%@@@@.         .@@@@@@@@.                   ",
"      .;..;.---------------&%%@@.@@@@@@@@@.       .@@@@@@@@@.                   ",
"      .. ..----------------&%%@@.@@@@@@@@@.     ...@@@@@@@@@.                   ",
"      .. ..--&&&&&&&&&-----&%@@@@.XX@@@@XX.     ..@@@@@@@@@..                   ",
"          .&&=-------=&&&&-=&@@@@.:;@XX@;;. .. ..@@@@@@@@@@@                    ",
"          .--------------=&&&@@@@.:;+;;.;;..@.@@@@@@@@@@@@@@.                   ",
"         .-----------------=&@@@@.;..;;..;.@@@@@@@@@@@@@@@@..                   ",
"         .----------------==&@%%%@.@@.;.@.@@@@@@@@@@@@@@@@@.                    ",
"         .---------------===&.%%%%@@@@.@@@@@@@@@@@@@@@@@@@@.                    ",
"        X.=-&&&&&&&&&&&=====.%%%%%%@@@@.@@@@@@@@@@@@@@@@@@@.                    ",
"        X.&&----------=&&&&.%%%%%%%%%@@@.@@@@@@@@@@@@@@@@@.                     ",
"        X*.==-------========.***%%%%%%@@@.@@@@@@@@@@@@@@@@.                     ",
"        X*.================.%****%%%%%@@@.@@@@@@@@@@@@@@..                      ",
"        **.================.*****%%%%%@@@.@@@@@@@@@@@@@@.                       ",
"       X***.&===========&&&.*****%%%%%@@@@.@@@@@@@@@@@#..                       ",
"       X***.=&&&&&&&&&&&==.%*****%%%%%@@@@.@@@@@@@@##&.                         ",
"       X**%%.=============.%%***%%%%%%@@@@.@@@@@@@##&.                          ",
"       X%%%%.&============.@%%%%%%%%%@@@@@.@@#@##&#.&.                          ",
"       .%%%%@.&========&&&.@@%%%%%%%@@@@@@.####&#&#.                            ",
"       .%%%@@@.&&&&&&&&&&&.@@@@%%%%@@@@@@@.&#&##&&.                             ",
"        .@@@@@@..#########.@@@@@@@@@@@@@@@.#&&#.                                ",
"        .@@@@@@@@..&&&&&&&&.@@@@@@@@@@@@@@.#.&.                                 ",
"         .@@@@@@@@@....&&&&.@@@@@@@@@@@@@..                                     ",
"         .@@@@@@@@@@@. ......@@@@@@@@@@@@.                                      ",
"          .@@@@@@@@@@.       .@@@@@@@@@@.                                       ",
"           .@@@@@@@@@..       .@@@@@@@@@@.                                      ",
"           X@.@@@@@@@@.         ..@@@@@@@.                                      ",
"          X@X@@@@@@@@.            .@@@@@@.                                      ",
"        XXX@##@@@@@@.             .@#@@@@.                                      ",
"      ..%%%#@@@@@@@.              .@#@@@@.                                      ",
"     .:+@%%@@@@@@@.              .@@@%%%@@.                                     ",
"    .:.;+@%%%@@@@.               .@%%%%%%%.                                     ",
"    .+:.:;;@@@@@.                .@%@%@%%@@.                                    ",
"     ..:::;+@@..                 .@@:@:@@:@.                                    ",
"      ........                    .:::::@::.                                    ",
"                                  .:::::.::.                                    ",
"                                   .:.:..:.                                     ",
"                                    . .  .                                      ",
"                                                                                "
};
