/* XPM */
static char *_[] = {
/* columns rows colors chars-per-pixel */
"65 66 90 1 ",
"  c None",
". c black",
"X c gray4",
"o c #151515",
"O c #382810",
"+ c #202020",
"@ c #282828",
"# c #323232",
"$ c gray22",
"% c #403018",
"& c #483818",
"* c #503818",
"= c #543E21",
"- c #404000",
"; c #484800",
": c #585800",
"> c #707000",
", c #574226",
"< c #584020",
"1 c #584429",
"2 c #5B472E",
"3 c #5A492F",
"4 c #5D4B33",
"5 c #5F4E38",
"6 c #60503A",
"7 c #004040",
"8 c #005858",
"9 c #325959",
"0 c #006868",
"q c #007070",
"w c #007878",
"e c #2C6666",
"r c gray27",
"t c #4E4E4E",
"y c #565656",
"u c gray37",
"i c #635441",
"p c #655846",
"a c #695E4E",
"s c #747441",
"d c #71714F",
"f c #6F6557",
"g c #6F6558",
"h c #70675B",
"j c #71695F",
"k c #656565",
"l c #686868",
"z c #736B60",
"x c #767069",
"c c #78746F",
"v c #7C7C6A",
"b c #677373",
"n c #63747D",
"m c #69777E",
"M c #667B7B",
"N c #6B787E",
"B c #717171",
"V c #818103",
"C c #8F8F10",
"Z c #818124",
"A c #808061",
"S c #B7B76B",
"D c #EBEB56",
"F c #E0E05A",
"G c #F7F750",
"H c #CECE62",
"J c #008080",
"K c #008888",
"L c #009898",
"P c #0E9D9D",
"I c #208585",
"U c #00A0A0",
"Y c #20B0B0",
"T c #4B9A9A",
"R c #658080",
"E c #6A8585",
"W c #6F9494",
"Q c #76ABAB",
"! c #72B9B9",
"~ c #48C0C0",
"^ c #70C7C7",
"/ c #70C8C8",
"( c gray56",
") c #989898",
"_ c #90BBBB",
"` c gray66",
"' c #98D7D7",
"] c #98D8D8",
"[ c #B8E8E8",
"{ c #C0C0C0",
/* pixels */
"                                                                 ",
"                                                                 ",
"                                                                 ",
"                                                                 ",
"                                                                 ",
"                                                                 ",
"                                                                 ",
"                                                                 ",
"                                                                 ",
"                                                                 ",
"                                                                 ",
"                                                                 ",
"                                                                 ",
"                                                                 ",
"                                                                 ",
"                                                                 ",
"                                                                 ",
"                                                                 ",
"                                                                 ",
"                                                                 ",
"                                                                 ",
"                                                                 ",
"                                                                 ",
"                                                                 ",
"                                                                 ",
"                                                                 ",
"                                                                 ",
"                                                                 ",
"                                                                 ",
"                                                                 ",
"                                                                 ",
"                                                                 ",
"                                                                 ",
"                                                                 ",
"                                                                 ",
"                                                                 ",
"                                                                 ",
"                                                                 ",
"                                                                 ",
"                                                                 ",
"                                                                 ",
"                                                                 ",
"                                                                 ",
"                                                                 ",
"                                                                 ",
"                                     ASHFDGGGCZsv                ",
"                                    V>>>>>>>>:--;d               ",
"                              WTPUU0----------@.-;               ",
"                        Q!^/`]]]]']0tt$$$@@@@@@]]]]/UIR          ",
"     (_']))/[[[[[[[[[[[[[[[[0YYYYYYLJwqqqqqwJLY////UKJJM         ",
"     0077BB.JJJJJJJJJJJ8LYYL8JwJJJwwq00000000qwJJJJqq08e         ",
"    E{~~~kkqUUUUUUUUUUUUqqqq#888888888888888888888888889         ",
"     8777tt.77777777777.7777@77777777777777777777777777b         ",
"     Bo..$$.............++++.+++++++++++++++++++++++++@          ",
"                          t$$$$$@t+X....+.n..8.....$..           ",
"                           @tttt#        kt#X.........r          ",
"                          krtttt+              N$......k         ",
"                           #tttt$                $..$..t         ",
"                          urtttttl               k.....B         ",
"                           $++++#B                By$tB          ",
"          A                                                      ",
"            xzjfapi654322,,=***************=,,2246ipafjzc        ",
"          g<****&&&&&&&&&&&&%%%%%%%%%%%&&&&&&&&&&&&%%%%%%%&=f    ",
"          h<****&&&&&&&&&&&&%%OOOOOOO%%&&&&&&&&&&&&%OOOOO%&**z   ",
"   A        n<<<<***********&&&&&&&&&&&*************&&&&**<<<   m",
"                                                                 "
};
