/* XPM */
static char *_[] = {
/* columns rows colors chars-per-pixel */
"65 65 47 1 ",
"  c None",
". c black",
"X c #382810",
"o c #202020",
"O c #282828",
"+ c gray22",
"@ c #3F3F3F",
"# c #483818",
"$ c #503818",
"% c #404000",
"& c #584020",
"* c #5B4528",
"= c #5F4A2F",
"- c #5E4D36",
"; c #614E35",
": c #60513B",
"> c #004040",
", c #014040",
"< c #144A4A",
"1 c #005858",
"2 c #125D5D",
"3 c #2F6767",
"4 c #484848",
"5 c #565656",
"6 c #5F5F5F",
"7 c #645441",
"8 c #675A49",
"9 c #6A5E4C",
"0 c #6B6051",
"q c #6F6558",
"w c #71685C",
"e c #597B7B",
"r c #606060",
"t c #6C6C6C",
"y c #756F67",
"u c #767067",
"i c #78736D",
"p c #65757D",
"a c #6A767E",
"s c #657878",
"d c #687D7D",
"f c #717171",
"g c #979797",
"h c #989898",
"j c #A2A2A2",
"k c gray66",
"l c gray69",
/* pixels */
"                                                                 ",
"                                                                 ",
"                                                                 ",
"                                                                 ",
"                                                                 ",
"                                                                 ",
"                                                                 ",
"                                                                 ",
"                                                                 ",
"                                                                 ",
"                                                                 ",
"                                                                 ",
"                                                                 ",
"                                                                 ",
"                                                                 ",
"                                                                 ",
"                                                                 ",
"                                                                 ",
"                                                                 ",
"                                                                 ",
"                                                                 ",
"                                                                 ",
"                                                                 ",
"                                                                 ",
"                                                                 ",
"                                                                 ",
"                                                                 ",
"                                                                 ",
"                                                                 ",
"                                                                 ",
"                                                                 ",
"                                                                 ",
"                                                                 ",
"                                                                 ",
"                                                                 ",
"                                                                 ",
"                                                                 ",
"                                                                 ",
"                                                                 ",
"                                                                 ",
"                                                                 ",
"                                                                 ",
"                                                                 ",
"                                                                 ",
"                                     sf                          ",
"       lkjgg                       2>..oO@t                      ",
"       lhhhhh hhhhhggggggg6daggghhhhhhhhh  4pa    gggggh  4      ",
"       l     f            4rr             f466           f4      ",
"       kf  ff6ffffffff   f445  f    ffff t6455      fffft6%      ",
"       hrrrr6466666666rrr64@@r666rrr6666r644@@rrrr6r6r6664%      ",
"        44444@444444444444@oO44444444444444@Oo444444444444%      ",
"        @@@@@O@@@@@@@@@@@@O..@@@++@@@@@@@@@o..@@@@@@@@@@@@@      ",
"        44444@454555555555@oprtr65445555555@p rttrr66555554      ",
"        56rtf        @pp@..o         @o....o                     ",
"                     4@p@ooo          4ooooo4                    ",
"                      4@>ooo           1ooooOt                   ",
"                        1oo@            1OooO6                   ",
"                        e2<f            d>oO@f                   ",
"                                          34t                    ",
"                                                                 ",
"                                                                 ",
"           iuyw0097::--*--=***&&$$$$&**==-;:-:780wy              ",
"       q=&&&$$$$###XXXXXXXXXXXXXXXXXXXXXXXXXXXXXX#$&             ",
"           dp&&&&&&$$$$$$$$$$$$$$$$$$$$$$$$$$$$$$$&&             ",
"                                                                 "
};
