/* XPM */
static char *_[] = {
/* columns rows colors chars-per-pixel */
"65 65 102 2 ",
"   c None",
".  c black",
"X  c #0C0C0C",
"o  c #151515",
"O  c #1D1D1D",
"+  c #282008",
"@  c #382810",
"#  c #202020",
"$  c #282828",
"%  c #2F2F2F",
"&  c #373737",
"*  c gray22",
"=  c #400000",
"-  c #480000",
";  c #500000",
":  c #4D1B1B",
">  c #600000",
",  c #700000",
"<  c #403018",
"1  c #483818",
"2  c #503818",
"3  c #4E4024",
"4  c #584020",
"5  c #5C523C",
"6  c #684820",
"7  c #000048",
"8  c #004040",
"9  c #1A4D4D",
"0  c #005858",
"q  c #007070",
"w  c #464646",
"e  c #484848",
"r  c #505050",
"t  c gray36",
"y  c #6B6153",
"u  c #436161",
"i  c #516868",
"p  c #606060",
"a  c #6C6760",
"s  c DimGray",
"d  c #776767",
"f  c #746E66",
"g  c #776969",
"h  c #6A7575",
"j  c #63747D",
"k  c #68767E",
"l  c #800000",
"z  c #880000",
"x  c #980000",
"c  c #A00000",
"v  c #B80000",
"b  c #C90B0B",
"n  c #D00000",
"m  c #E00000",
"M  c #F80000",
"N  c #885830",
"B  c #986038",
"V  c #A06038",
"C  c #835252",
"Z  c #865F5F",
"A  c #925050",
"S  c #A44646",
"D  c #B07040",
"F  c #B87848",
"G  c #F05050",
"H  c #C87848",
"J  c #9A8275",
"K  c #D08050",
"L  c #D88850",
"P  c #E88858",
"I  c #F09058",
"U  c #F89860",
"Y  c #F8A070",
"T  c #008080",
"R  c #098080",
"E  c #009898",
"W  c #288080",
"Q  c #348080",
"!  c #00B0B0",
"~  c #458080",
"^  c #5A8E8E",
"/  c #628080",
"(  c #7CB8B8",
")  c #00C8C8",
"_  c #00E0E0",
"`  c #20F8F8",
"'  c #79D9D9",
"]  c #78F8F8",
"[  c #989898",
"{  c gray66",
"}  c gray69",
"|  c #F8B080",
" . c #F8B890",
".. c #F8C0A0",
"X. c #F8C8B0",
"o. c #B8F8F8",
"O. c #C0C0C0",
"+. c #D0D0D0",
"@. c #D8D8D8",
"#. c #D8F8F8",
"$. c gray91",
"%. c #F8F8F8",
/* pixels */
"                                                                            Z                                                     ",
"                                                                                                                                  ",
"                                                          t * % & % O e h                                                         ",
"                                                    s % % % % % e % . . . o                                                       ",
"                                                  w # # # # % e e % . . . . . t                                                   ",
"                                                # # # % # # % e p % . . . . . . w                                                 ",
"                                    ^ W q q q 0 %   % $.# $.w p * . p . p . e . . j   ~ ( Q q Q h                                 ",
"                                  ' 8 # e % O # % % % % & w } p e . . . . . . . . . T 8 # e # O T u                               ",
"                                ^ 8 # e { p % % . . T T e   $.e . 4 N N N N * # . T 8 # e { p % # T i                             ",
"                                R 8 # e p e % % . . ` ! F F B N p   t U L * #   . T 8 # e p e % # T 8                             ",
"                                l T 8 # % % # % . . ] ! P  .Y p $.Y $.p [ +.+.%.* . T 8 # % % # T 8 n b                           ",
"                              Z n ; T T T T T % . . #.q 7 l V   Y X.Y   [ +.+.%.* . . T T T T T 8 z z z S                         ",
"                              A > - j T 0 8 8 % . . ] ! P P | p $.Y $.p V * #   . . . j T q 8 8 j j j > c                         ",
"                              C ; - j _ 0 q 8 % . . ] ] ....| ..K p   p H V * # # . . j _ q E 0 j j > > ; d                       ",
"              p s             g - - = _ 0 q 8 % . . ` ` | K V N N K L V V L * # . . . j _ q E 0 j > > > -         s t w & p       ",
"            % p +.e % t         : = q _ 0 q 8 % . . ` ` K I Y I Y I D Y K 6 * # . . # T _ q E 0 - - - - j e p w w # % % &         ",
"            # # & & & & % % t     ) o.) ) ) o.% . . ` ` K [ +.@.+.O.D Y K D * # . . ) o.) ) ) o.q - = = p   % % # # # #           ",
"            # # O O O O # * # # # T q q q q q % . . ` ` K [ +.@.+.O.H Y K N * # . . 0 q q q q q 8 0 0 [ e # # # . . . .           ",
"          # # * # # # . . . . . % & 0 0 0 0 0 # # * T T | U |  .| U | B * * % # . . 0 0 0 0 0 0 8 % % # # # O . # . O . X         ",
"        # * *   % % # # # # . % * * * 0 * 0 * % # # # * * e B N B e * * % # # . . # & * 0 8 0 8 * * # # # e # # # # . O . #       ",
"      p   * [   % % # % O O % * & & * * * & & & # . # # % # % % % % % % O . . . # % * * * * * * * * # . # p # # # # # . # # r     ",
"        #   +.% * O # % O % * * & & & * * * * * * * % . . . . . . . . . . . # & * * * * * * * * * * # . #   # # # # # # # # k     ",
"      % # * * * r r r r w & * # . . p p p r r r r e e e e e . # $.      s t t e r r r r e e e w w e e r r e * * * * # % # # .     ",
"      o . . r * # ] ! 0 % # * * % # . # % % % % # # % % % # . .   w * * * & % # % % % % % % % # * # ] ! 0 & * * % * * * . . .     ",
"      % . & % % ! 8 . 8 0 % % % # # . . O # # # # % % % % . . . w & * & % % # # # # # % % % & & * ! 8 . 8 0 # * * % O O O . %     ",
"      % * % % % q . . . 0 # % % % # # . . # # # # % % % % . . . w % % % % % # # # # % % % * & & * q . . . 0 # * * * # O O # %     ",
"      * ] ! 0 % 0 8 . 8 8 O ] ! 0 # # # . O % % % % % % # . . . & * % % # # # # # # # % * ] ! 0 % 0 8 . 8 8 O ] ! 0 % % # # # s   ",
"      ! 8 . 8 0 % 0 0 8 # ! 8 . 8 0 # # . . % % % % % % # . . . # e % % # # # # # # # % ! 8 . 8 0 % 0 0 8 # ! 8 . 8 0 # . . . p   ",
"      q . . . 0 % % # # # q . . . 0 # . . . % % # # % % . . . . % e % # % % % % % % % * q . . . 0 # % % % % q . . . 0 # . . . t   ",
"    s 0 8 . 8 8 # ] ! 0 % 0 8 . 8 8 # . . . % % # # % O . . . - - e % # % % % % % % % * 0 8 . 8 8 # ] ! 0 % 0 8 . 8 8 # . . . e   ",
"    p % 0 0 8 % ! 8 . 8 0 % 0 0 8 # % . . . . . . . . . . . . - > * # . . . . . . . . * * 0 0 8 O ! 8 . 8 0 % 0 0 8 # % . . . w   ",
"    t % % % # # q . . . 0 % % % % % % . . . . . . . . . . . - , > . . . . . . . . . . * & * # % % q . . . 0 # # # # % % . . . &   ",
"    e # ] ! 0 % 0 8 . 8 8 # ] ! 0 % % . . . - - - - - - - - - ; z z z z > - - - - - - & # ] ! 0 % 0 8 . 8 8 O ] ! 0 % % . . . %   ",
"    r ! 8 . 8 0 % 0 0 8 % ! 8 . 8 0 % . . . - > > x v G M v x x z z z m l l l > - = = & ! 8 . 8 0 % 0 0 8 # ! 8 . 8 0 # . . . %   ",
"    s q . . . 0 % # % % # q . . . 0 # . . . [ e > , x G v x M x z l z z l z l > > - > * q . . . 0 # * % % % q . . . 0 # . . . *   ",
"      0 8 . 8 8 O ] ! 0 % 0 8 . 8 8 . . . % p # # * r   r * % # # O # # # # # # # % e p 0 8 . 8 8 # ] ! 0 % 0 8 . 8 8 . . . . t   ",
"      s 0 0 8 # ! 8 . 8 0 # 0 0 8 O . . . % e # # # % % % # # # # # # # # # # * r r * % % 0 0 8 O ! 8 . 8 0 % 0 0 8 # . . . .     ",
"        e % # # q . . . 0 # % % # . . . % % e # # # # . . . . . . . . . . . * e % # # # # * % % % q . . . 0 # * % % . . . . p     ",
"          & % % 0 8 . 8 8 # % # . . . . . . . . # # # # . % # # # # # # # * % # O O # # # . * * * 0 8 . 8 8 # * % . . . . t       ",
"            % % % 0 0 8 # O . . . # # # # O O # . . # # . . # # # # # # % # # # # . . . . # # * * % 0 0 8 # * . . . . .           ",
"              1 . . . . . < < % % % # % & & t # # . . . . . . # # # # # # # . . . # # # O % # # # * . . . . . < < < < <           ",
"              J P P P 6 6 1 < % % % % % & t   O # . # . . . . . . . . . . . . . # # # # O # # # # # j P P P P 6 1 1 < a           ",
"                / T T 8 8 8 # % % % & %   w * # # . # . . . . . . . . . . . # . # # # # O & O O # # j j T T T 8 8 9 i             ",
"                    # # # % # % % % % % *   * # # . # . . . . . . . . . . . # . # # # # O & # O # # # . # # .                     ",
"                  Z # # # # O # % & & * * { p # # . # . . . . . . . . . . . # . . # # # # * % O # # # . # # .                     ",
"                    # # # # # # & & * *   { # # . # . . . X           . . . # . . # # # # % * # # # # # . # .                     ",
"                    # # # % # # & % *   { & # # . # . . O             k . . . # . # # # # % * % # # # # . # .                     ",
"                  * * * e p t t t     +.+.e e # # . . .               r . . # . . # # # # % e % # # # # . # .                     ",
"                s # # # # # # # # # # * r r r * % . .                 s . . # % . . # O # % e % # # # # . . % t                   ",
"                  . . . . . . . . . . . . # # % % % O s                 # # . # % % * # . . . . . . % * % % # t                   ",
"                  . . . . . . . . . . . . . . . . O O                   O O # . . . # * e r p r e e * & # # . p                   ",
"                  % * * e e r r r p p +.* % % # . . o                   . O % % . . . # # # # # # # # . . . #   Z                 ",
"                  O # # # % * * * * * * % % % % O .       Z             . . # % % % % . . . . . . . . . . % e                     ",
"                  X . . . . . . . . . . . . . # % .                     j . . . # % % % * w e e w * & % # %                       ",
"                  w . O . % # # # % & # # . . . . w                     j . . O . . O O # # # # # O # # #                         ",
"                    . . # . % * O O # * % # . . .                       # . O O . . . . . . . . . . . .                           ",
"                    . # # . * # # % e # . . . . *                       & . # # . . . . . . . . . . . %                           ",
"                    w . # . e # O # r # . . . .                         w . # # # # # # O O . # . . .                             ",
"                      . . . e # # p % . . . . #                         e . # # . . . . . . . . . . .                             ",
"                      . . * * r   r % # . . .                           r . # % % % # # # # # . . # #                             ",
"                    & & * e e e * * * * * # . %                           . % % # # # . . . . . . . . r                           ",
"                  e * # % % % % % O # # % % # . . @ @ @ @ @ @ < < < 1 1 1 # # # # . . . . . . . . . . .                           ",
"                s % # # O # # # # O O O # # % . . + + + + + + + + + + + @ @ . . . . . . . . . . . . . . @ < 5 f   Z               ",
"                & # O . . . . . . . # O . . # . + + + + + + + + + + + + + + + + + @ @ @ @ @ @ @ @ @ @ @ @ < 1 3 5 y               ",
"                . . . . . . . . . . . . . . . @ @ < < < < < < < < < 1 1 1 1 1 1 1 1 1 2 2 2 2 2 2 2 j k           J               "
};
