/* XPM */
static char *_[] = {
/* columns rows colors chars-per-pixel */
"65 65 108 2 ",
"   c None",
".  c black",
"X  c gray6",
"o  c gray7",
"O  c gray10",
"+  c #282008",
"@  c #2B230C",
"#  c #382810",
"$  c #3F311B",
"%  c #202020",
"&  c #282828",
"*  c #353535",
"=  c gray22",
"-  c #400000",
";  c #480000",
":  c #500000",
">  c #600000",
",  c #700000",
"<  c #403018",
"1  c #483818",
"2  c #503818",
"3  c #493C2A",
"4  c #602A2A",
"5  c #584020",
"6  c #684820",
"7  c #704828",
"8  c #000048",
"9  c #004040",
"0  c #094545",
"q  c #005858",
"w  c #007070",
"e  c gray25",
"r  c #484848",
"t  c #5A5143",
"y  c #5F574A",
"u  c #505050",
"i  c gray32",
"p  c gray36",
"a  c #715858",
"s  c #6F665B",
"d  c #606060",
"f  c #686868",
"g  c #766565",
"h  c #7A7369",
"j  c #617676",
"k  c #63747D",
"l  c #727272",
"z  c #800000",
"x  c #880000",
"c  c #870909",
"v  c #980000",
"b  c #871616",
"n  c #A00000",
"m  c #B80000",
"M  c #843B3B",
"N  c #993E3E",
"B  c #D00000",
"V  c #F80000",
"C  c #805028",
"Z  c #885830",
"A  c #905830",
"S  c #986038",
"D  c #A06038",
"F  c #A86840",
"G  c #B07040",
"H  c #B87848",
"J  c #856363",
"K  c #C87848",
"L  c #D08050",
"P  c #D88850",
"I  c #E78858",
"U  c #E88858",
"Y  c #F09058",
"T  c #F89860",
"R  c #F8A070",
"E  c #000098",
"W  c #008080",
"Q  c #138080",
"!  c #268080",
"~  c #328080",
"^  c #3C8080",
"/  c #00B0B0",
"(  c #4B8080",
")  c #5B8080",
"_  c #5D8D8D",
"`  c #7F9696",
"'  c #00C8C8",
"]  c #00E0E0",
"[  c #20F8F8",
"{  c #7ADDDD",
"}  c #78F8F8",
"|  c #979797",
" . c #989898",
".. c #A7A7A7",
"X. c gray66",
"o. c gray69",
"O. c #F8B080",
"+. c #F8B890",
"@. c #F8C0A0",
"#. c #F8C8B0",
"$. c #F8D0B8",
"%. c #B8F8F8",
"&. c #C0C0C0",
"*. c #D0D0D0",
"=. c #D8D8D8",
"-. c #D8F8F8",
";. c gray91",
":. c #F8F8F8",
/* pixels */
"                                                                                                                                  ",
"                                                          & & & & = & . . .                                                       ",
"                                                      d & & & & & r & . . . . p                                                   ",
"                                                    f & & & & & = r & . . . . . d                                                 ",
"                                                  d % & & & & & = d & . . . . . . p                                               ",
"                                    ) ! Q ^     r % &   & o.& *.r d = . d . d . r . *     ( { W ~                                 ",
"                                ` 9 % r & % q k % % & & & & = r r   r . . . . . . . . k W 9 % r & % j                             ",
"                              _ 9 % r X.d & % 9 = % . Z W Z 5 r   o.r . 5 Z Z Z = . . W 9 % r X.d & % j                           ",
"                              W 9 % r d r & % 9 r = . G [ R H H S Z Z d   d R D = . l W 9 % r d r & % 9                           ",
"                            c B q 9 % & & % 9 d &.r . S } C U +.R L d ;.R ;.d  .*.*.:.. q 9 % & & % 9 B b                         ",
"                          J B x k 9 9 9 9 9 k d l e . G -.E 8 z D 7   R #.R    .o. .;.. k 9 9 9 9 9 k x B g                       ",
"                          N > k k k W k 9 k k d * * . G } T U U O.Y s ;.R ;.d A = . l . k k W k 9 k k k n 4                       ",
"                          M : : k k ] k w k k i * * . D } $.@.@.O.@.L d   d K A = . % . k k ] k w k k > : :                       ",
"      f l | l l           a - - - k ] k W k k r * * . Z [ O.O.L D Z Z L P G A F = . . . k k ] k W k > > - :         f p e * d     ",
"        * & d d r & i       - - - W ] w W w k r & & . 7 [ R G Y R Y R Y G R L 6 = . . . % W ] w W w - - - k r r & & & & & *       ",
"          % % = = = = & % % k - ' %.' ' ' %.w O O O . A [ R G &.*.=.*.&.G R L F = . . . ' %.' ' ' %.w - - d r & & % % % %         ",
"          % % % % % % % = % % % W q q q q q q q . . . Z [ R K &.*.=.*.&.K R L Z = . . * q q q q q q 9 q  .& % % % . . . .         ",
"        & % r % % % . . . . . % * 9 9 9 9 9 9 9 O O % = W L O.T O.+.O.T O.S = = . . . * 9 9 9 9 9 9 9 & % % % % . % . % . o       ",
"      r = d = % % % % % % . % * * * 9 * 9 * * * % % % % % = = r S Z S r = = . . . . % * & & 9 * 9 * * % % % & % % % % . % . r     ",
"      ..d = % % & % % % % . % & & & & & & & & & & % . % % % % % % . . . . . . . . % & & & & & & & & & & . % = % % % % % . % %     ",
"      % l r & = % % % % % . % & * * * * * & & % & & & % . . . . . . . . . . . % * & * & & & & & & & & & . % d % % % % % % % %     ",
"      . % = = = i i i i i r = * d d i r * * & & * * * * 9 * * * % X.d i r e e e & & * * * * * * * * & i i r i i r = % & % % .     ",
"      . . . d i = % } / q % % = = % % % % % O O % O % % % % % % . & & % % % % % % % % % % % % % % d r = % } / q % % = = . . .     ",
"      & .   = % % / 9 . 9 q % % % % % % % % % % % O O % % % % . . & & % % O % % % % % % % % % %   = % % / 9 . 9 q % % % % . &     ",
"      & d = % % % w . . . q % % % % O O % % % % % % % % % % % . . & & % % % % % % % % % % % % d = % % % w . . . q % % % % % &     ",
"      i = } / q % q 9 . 9 9 % W q q % O % % % % % % % % % % % . . & & & % % % % % % % % % % i = } / q % q 9 . 9 9 % W q q % %     ",
"      i / 9 . 9 q % q q 9 % W 9 . 9 q % % % % % % % % % % % % . . & & & % % % % % % % % % % i / 9 . 9 q % q q 9 % W 9 . 9 q %     ",
"    l = w . . . q % % % % % q . . . q % . % % % % % % % % % . . . & & & % % % % % % % % % i = w . . . q % % % % % q . . . q % d   ",
"    l = q 9 . 9 9 % W q q % q 9 . 9 9 % . % % % % % % % % % . . ; ; & & % % % % % % % % % i = q 9 . 9 9 % W q q % q 9 . 9 9 % d   ",
"    l = % q q 9 % W 9 . 9 q % q q 9 % % . . . . . . . . . . . . ; > & & . . . . . . . . . i = % q q 9 % W 9 . 9 q % . q 9 % % f   ",
"      = % % % % % q . . . q % % % % % % . . . . . . . . . . . ; , > > . . . . . . . . . . i = % % % % % q . . . q % % . % % % f   ",
"      % % ] w q % q 9 . 9 9 % w q q % % . ; ; ; ; ; ; ; ; ; ; > x x x x > ; ; ; ; - - - - i % % ] w q % q 9 . 9 9 % w q q % % l   ",
"      % / 9 . 9 q % q q 9 % w 9 . 9 q % . ; ; > > v m m V m v v x x x z z z z > ; - - ; ; i % / 9 . 9 q % q q 9 % w 9 . 9 q % l   ",
"      % w . . . q % % % % % q . . . q % & r  .r > , v V m v V v x x x x z x z > > - > ; ; i % w . . . q % % % % % q . . . q %     ",
"      * q 9 . 9 9 % w q q % q 9 . 9 9 . = = d % % = i l i = & % % % % % % % % % % % % . l  .% q 9 . 9 9 % w q q % q 9 . 9 9 &     ",
"      f % q q 9 % w 9 . 9 q % q q 9 % . & r = % % % & & & % % % % % % % % % % % % = r l = = % % q q 9 % w 9 . 9 q % q q 9 % l     ",
"      J e % % % % q . . . q % % % % . & & = & % % % % . . . . . . . . . . . . . = r & & = = = % % % % % q . . . q % % % % =       ",
"          * % % % q 9 . 9 9 % % % . . . . . . . % % % % . % % % % % % % % % % = & % & & & O . . % % % % q 9 . 9 9 % % % o         ",
"            % % % % q q 9 % % . . % % % % % % % . . % % % . % % % % % % % . % % % % % . . . & * = % % % % q q 9 % % . .           ",
"              7 1 . . . . . < % & * = =   & % % % . . % % . % % % % % % % . % % % . . % % & * = r % % 7 1 . . . . . <             ",
"              I U 6 6 6 1 1 < & & * * = r % % % % . % . . . . . . . . . . . . . . % % & & * = e r % % U U 6 6 6 1 1 y             ",
"              f Q 9 9 9 9 9 & & * * = r e O % % % . % . . . . . . . . . . . . % . % & & & * = r i & % % W 9 9 9 9 0               ",
"                      & % & & & * = = = i % % % % . % . . . . . . . . . . . . % . % & & & = e r d & % % % % . . .                 ",
"                      & % & & & = = e i r % % % . % . . . . . . . . . . . . . . . % % & * = e r   = % % % % . % .                 ",
"                      & % & & * = e r i % % % % . % . . . . .     J       . . . . % % & * = r i   = % % % % . % .                 ",
"                      & % & & * = e r = % % % % . % . . . .               k . . . % % & * = r i   = % % % % . % .                 ",
"                    l = = r r i d d     X.X.i & % . % . . o               e . . % . % & = e i d   r % % % % . % .                 ",
"                    l % % % % % % % % % = i i = = = & . .                 p . . % & . % = r i d X.d = % % % . . & p               ",
"                      . . . . . . . . . . . . . % & & & %                 d % % . % & . . . . . . . . . . . . & % i               ",
"                      . . . . . . . . . . . . . . . . % i                 l % % % . & r = % . . . . . . & r & % . r               ",
"                    l & = = r r i i d d X.= & % . . . . l                   . % & & . . r d l l X.l d i = * % . % d               ",
"                      % % % % & = = = = = & & & & & % &                     . . % & & . . % % % % % % % % . . & %                 ",
"                      X . . . . . . . . . . . . . % & l                     & . . . % & & . . . . . . . . . . % d                 ",
"                      i . % . % % & & r d % . . . . X                       i . . % . & * * = e r r e = * & & p                   ",
"                        . % . % % % & = r % . . . .                           . . . . . % % % % % % % % % % p                     ",
"                        p . % . % % & = & . . . . .                           . . . . . . . . . . . . . .                         ",
"                          X . % . % % % = % . . . .                           * . . . . . . . . . . . . .                         ",
"                            . . . % % % & . . . . .                           f . . . . . . . . . . . . &                         ",
"                          % . . = = i   i & % . . . i                           . . . . . . . . . . . .                           ",
"                          & = = r r r = = = = = % . O         J                 = . . . . . . . . . . f                           ",
"                        = = & & & & & & % O % & & % .         J                   . . . . . . . . . d                             ",
"                      f & & % % % % % % % % % % % & . @ + # # # # # # < 1 1 1 1 < < # . . . . . .                                 ",
"                      e % % . . . . . . . % % . . % . @ @ @ @ @ @ @ @ @ @ @ @ @ @ @ @ @ @ @ @ @ @ @ @ @ @ @ @ @ $ 3 t s           ",
"                      . . . . . . . . . . . . . . . @ @ @ @ @ @ @ @ @ @ @ @ @ @ @ @ @ # # # # # # # # # # # # # # # < < 2 h       ",
"                      6 6 6 2 2 2 1 1 1 1 < < < < < < < < < < < < < < < < < < < < < < < < 1 1 1 1 1 1 2 2 2 2 2 7 7 k             "
};
