/* XPM */
static char *f959a84bc8284256943f4eeff3022381jagN9rnhjB3szKBB_75[] = {
/* columns rows colors chars-per-pixel */
"89 91 15 1 ",
"  c None",
". c black",
"X c #084252",
"o c gray39",
"O c #843119",
"+ c #E64210",
"@ c #CE5242",
"# c #F7A510",
"$ c #EF8429",
"% c #FFD610",
"& c #EFB55A",
"* c #EFDE7B",
"= c #217394",
"- c #CECECE",
"; c white",
/* pixels */
"                                                                                         ",
"                                                                                         ",
"                                                                                         ",
"                                                                                         ",
"                                                                                         ",
"                                                                                         ",
"                                                                                         ",
"                                                                                         ",
"                                                                                         ",
"                                        +                                                ",
"                             +                                                           ",
"                            ++  ++                                                       ",
"                            +++++++                                                      ",
"                             ++++++                                                      ",
"                              +#++++                                                     ",
"                               +%+++++                                                   ",
"                              ++#%+#%+ ++                                                ",
"                              +++%%%%#+++                                                ",
"                                +#%%%%+++ OO                                             ",
"                       OO      +++%%%#+++O&&O                                            ",
"                      O&&O    ++%+%%%++++O&&@@                                           ",
"                     O@&&O    +#%#%%#+++#.@$$O@    OOOOOO O                              ",
"                     O$$O     +%%%%%+++#%+.$$$$@OOO$$$$$$O$@                             ",
"               OOO  O$$$O     +#%%%%#++%%+.@$$$$$$$$$$$$$$$$$@@                          ",
"              O$$$OO$$$@O      +%#%%%%%%%++.$$$$$$$@OOOOO@O@$$$$@                        ",
"            OO$$$$$$$$$O        +#%%%%%%#++.$$$$...XXXXXXX=XX@$&&&                       ",
"           O$$$$$$$$$$$O       +++%%%%#%++  O$$.XXXXXX=======XX@&&&O                     ",
"         OO$$$....@$$$$O       +++#%O$O+    O$.XXXXX===========X@$$@                     ",
"       OO$$$XXXXXXX.@$O         +++O$O++    O$.XXXX=============X@$@                     ",
"      O$$$$XXXXXXXXX$$@O          +O$$O     O$.XXXX=============X@$$O                    ",
"      O@$XXXXXXXXXXX.$$O            O$$O    O$.XXXX==============X@$@                    ",
"      O@XXXXXXXXXXXX.$$O            O$$@O    $.XXXXX=============X@$@                    ",
"      O@XXXXXXXXXXXXX.$O             O@@@O   O$XXXXX=============XX$$O                   ",
"     O@@XXXXXXXXXXXXX.$$O            O@@@O   O$.XXXX=============XX@$@                   ",
"     O@XXXXXXXXXXXXXXXX$O             O@@@OOO@$.XXXXX============XX@$@                   ",
"    O@@XXXXXXXXXXXXXXXX$O             OO@@@@O$$.XXXXX============XXX$$O                  ",
"    O@@XXXOOXXXXXXXXXXX$$O             O@@@@O$@XXXXXXX==========XXXX@$@                  ",
"   O@XXXXO@@.XXXXXOOXXXX$O              O@@.@@XXXXXXXXX=========XXXX@$@                  ",
"  .@XXXXXO@@.XXXXO$$.XXX@@.              OOO@@XXXXXXXXX=========XXXXX$$O                 ",
" .@XXXXXO@@@.XXXO$$@.XXXO@@.             O.@@XXXXXXXXXX=========XXXXX@$@                 ",
" .@XXXXXO@@....O$$$.XXXXXO@@             .@@XXXXXXXXXXXX========XXXXXX$$O                ",
" .@XXXXXO@@.  O$$$...XXXXXX@.           .@@XXXXXXXXXXXXX======XXXXXXXX@@.                ",
" .@@XXX.@@@.OO$$$O.  .XXXXX@@O        ..$@.XX=XXXXXXXXXXX====X  .XXXXXX@.                ",
"  O@XXX.@OO$@$$$$.    .XXX....O      .$$$.XXXX=XXXXXXXXXX===X    .XXXXX@.                ",
"  O@XX.@$$$$$$$$.     ....$$$$...     $$@XXXX=X=XXXXXXXXX===      .XXXX@.                ",
"   O@X.$$$$$$$$$..  ...$$$$$$$$$@..  O@@.XXXXX=XXX...XXXXX=XO      .XXXX.                ",
"   O@.$$$$$$$$$$$O...@$$$$$$$$$$$$@..O@@@XXXX=X=XX   ...XX=X@O     .XXXX@                ",
"    .$$$$$$$$$$$$$O@@@@$$$$$$$$$$$$$@.@@.XXXXX=X     .@@.XX@@@O    .XXXX@.               ",
"   .$$$$$$$$$$$$$$$@@@@@$$$$$$$$$$$$$$.@.XXXXXX       @@@.X@@@O     .XXX@.               ",
"   .$$$@&&$$O@$$$$$@@@@@$$$$$$$$$$$$$$$.....XXX       .@@@@@@@@     .XXX@.               ",
"  .$$$@&&$@-O$$$$$$$@@@O..@@@@$$$$$$$$$O$$$$.O         .@@@@@@@O     .XX@.               ",
"  .O@@@$$@.;;$$$$$$$@OO  O..O@@@$$$$$$@$$$$$$$O         O@@@@@@@O    .X@@                ",
"   .@@O$$=.;@$$$$$$$O   O@@@OO@@@$$$$$$$$$$$$$$OOO       O@@@@@@@.   .X@.                ",
"    .O@$OOO@$$@O.O$$O OO@@@@@@$$$$$$$$$$$$$$$$$$$$OO.    O@@@@@@@OO  .@@                 ",
"     O@$$$$$$$...@@@OO@@@@@@@@$$$$$$$$$$$$$$$$$$$$$$@.    O@@@@@@@.  .@.                 ",
"    O$$$$$$$$@.+.O@@O@@@@@@@@@$$$$$$$$$$$$$$$OO.$$$$@.    O@@@@@@@@.  @                  ",
"   O$$$$$$$$@..+++O@@@@OOO@@@@@$$$$$$$$$$$$$@@O OO@@@.    O@@@@@@@@O  .                  ",
"   O$$$$$$$..++++..@@OO O@@@$$$$$$$$$$$$$@OO@@O   .@@.    O@@@@@@@@.                     ",
"  O$$$$$$$.  .+++.@@.   O@$$$$$$$$$$$$$$$$$$@@@O  .@@@.   O@@@@@@@@O                     ",
" O$$$O$$@.OOO.+++.@@.  O@$$*****$$$$$$$$$$$$$@@@O.@@@@.    @@@@@@@@@.                    ",
" .$$@$$@;.@@@.++..@.   .$*********$$$$$$$$$$$$@@@.@@@@.    @@@@@@@@@OO                   ",
"  .$$@@...@@.O+.;O@.  .@************$$$$$$$$$$$.OO$@@@.    O@@@@@@@@OO                   ",
"    .....@@@O;OOO$OO  .$*************$$$$$$$$O.$$$$$$@.   O@@@@@$@@@@O                   ",
"        .@@@.$$$$$.  .@***************$$$$$$$.@$$$$$$@@.  O@$$@$@$@@@@.                  ",
"        O@@.O.....   .$****************$$$$$$.@@O.$$$@@O.O$$$$$@$@@@@@.                  ",
"         ..O  .. O   .******************$$$$$$.-.@$$@@@@.$$$$$$$@$@@@@.                  ",
"          O;O       .$******************$$$$$$$@O$$$O.@@.$$$$$$$$$@@@@.                  ",
"           ..       .$*******************$$$$$$$$O@@OO.-.$$$$$$$$@@@@@.                  ",
"                   O$$*******************$$$$$$$$O.-O@O..$$$$$$@@@@@@&.                  ",
"                  O$$$********************$$$$$$$$$..@O$$$$$$@@@@@@@@.                   ",
"                 O$$$$@*******************$@$$$$$$$$$@@O$$$@@@@@@@@@&.                   ",
"                 @$$$$O&******************$@$$$$$$$$$@@.@@@@@@@@@@@&.                    ",
"                @$$$$$O&&*****************@$$$$$$$$$$$@@.@@@@@@@@&&.                     ",
"                @$$$$$$O&&***************&O$$$$$$$$$$$@@.@@@@@@@&&.                      ",
"                @$$$$$$O&&&&&********&&&&&O$$$$$$$$$$$@@.@@@@@$&&.                       ",
"               O$$$$$$$$O&&&&&&&&&&&&&&&&&O@$$$$$$$$$$@@@.@$&&&&.                        ",
"               O$$$$$$$$@.&&&&&&&&&&&&&&&&.@$$$$$$$$$$@@@.&&&&&.                         ",
"               O$$$$$$$@@@.&&&&&&&&&&&&&&&.@@$$$$$$$$$@@@.&&&..                          ",
"               O@$$$$@@@@@@.&&&&&&&&&&&&&&.@@@$$$$$$$@@@@.&..                            ",
"               O@@@@@@@@@@@@..&&&&&&&&&&&&.@@@@@$$$@@@@@@..                              ",
"                O@@@@@@@@@@.  ..&&&&&&&&&OO.@@@@@@@@@@@@@@.                              ",
"                O@@@@@@@@@@O    ...&&&OOO&&.@@@@@@@@@@@@@@.                              ",
"                  .@@@@@@@@.       OOO&&&&&&..@@@@@@@@@@@@.                              ",
"                   .@@@@@@@.          OOOOOOO .@@@@@@@@@@$.                              ",
"                  o-.-@@@@@@.                  .@@@@@@@@@@@.                             ",
"                 o;o--o--@@@.                   .@@@@@$@$@@.                             ",
"                 ..;-.;-....                    .@@@@@@@@@;.                             ",
"                  ... ...                       ..@@-O@-;@;;.                            ",
"                                                 ..;;;.;;;o-.                            ",
"                                                   .;. .-;...                            ",
"                                                    ..  ..                               "
};
