/* XPM */
static char *f959a84bc8284256943f4eeff3022381jagN9rnhjB3szKBB_78[] = {
/* columns rows colors chars-per-pixel */
"89 91 15 1 ",
"  c None",
". c black",
"X c #084252",
"o c gray39",
"O c #843119",
"+ c #E64210",
"@ c #CE5242",
"# c #F7A510",
"$ c #EF8429",
"% c #FFD610",
"& c #EFB55A",
"* c #EFDE7B",
"= c #217394",
"- c #CECECE",
"; c white",
/* pixels */
"                                                                                         ",
"                                                                                         ",
"                                                                                         ",
"                                                                                         ",
"                                                                                         ",
"                                                                                         ",
"                                                                                         ",
"                                            +++                                          ",
"                                             ++++  +                                     ",
"                                              ++++ +                                     ",
"                                              ++++                                       ",
"                                           + +++#++                                      ",
"                                           +++++#++                                      ",
"                                          ++++#%#++                                      ",
"                                         +++++%%%++                                      ",
"                                         +++%%%%%++                                      ",
"                                        +++%%%%%++                                       ",
"                                        +++%%%%++++                                      ",
"                                        +++%%%#++%#++                                    ",
"                                         ++#%%##%%%#+++                                  ",
"                                       O ++#%%%%%%%%+++                                  ",
"                          OO           &O +++#%%%%%O++                                   ",
"                         O&&O         O&&@ +++OOOOO$OO                                   ",
"                        O@&&          O@$$O@+OO$$$$$$$@@ @@                              ",
"                 OOOO  OO$O           ..$$$$@$$$$$$OO@$$@$$@@                            ",
"               OO$$$$OOO$$O            .@$$$$$$$OOOXXXO@$@$&&@                           ",
"              O$$$$$$$$$$@O             .$$$$...XXX====XXXX@&&O                          ",
"             O$$$$$$$$$$$O               $$$$XXXXXX========X@$$                          ",
"          OOO$$XX...@$$$$O                O$.XXXX===========X@$$O                        ",
"         O$O$$XXXXXXX.@$$O                O$.XXX============X@$$@                        ",
"         O@$$XXXXXXXXX.$O                 O$.XXX=============X@$@                        ",
"         O@XXXXXXXXXXX.$@O                O$.XXXX============X@$$O                       ",
"         @XXXXXXXXXXXX.$$O                O$.XXXXX============X@$@                       ",
"       O@@XXXXXXXXXXXXX$$O                 $.XXXXX============XX$@                       ",
"       O@XXXXXXXXXXXXXX.$O                 O$XXXXX============XXX$O                      ",
"      O@@XXXXXXXXXXXXXX.$O                 O$.XXXXX===========XXX@$@                     ",
"      O@@XXXXXXXXXXXXXXX$O                O@$.XXXXX==========XXXX@$@                     ",
"    .O@@XXXXXXXXXXXXXXXX$O                O$$.XXXXX===========XXXX$$O                    ",
"    .@@XXXOOXXXXXXXXXXXX$$O               O$@XXXXXXXX=========XXXX@$@                    ",
"    .@XXXO@@.XXXXXOOXXXXX$O               .@XXXXXXXXX=========XXXXX$$O                   ",
"    @XXXXO@@.X..XO$$.XXXX@.              OO@@XXXXXXXXX========XXXXXX@.                   ",
"   .@XXXO@@@.   O$$@.XXXO@@.             .@@XXXXXXXXXX=====XXXXXXXXXX@                   ",
"    @@XXO@@.   O$$$..XXXXO@@             @@XXXXXXXXXXXX====X@.XXXXXXX@.                  ",
"    O@XXO@@.  O$$$.  .XXXXX@..          .@XXXXXXXXXXXXX===X@@@OXXXXXX@.                  ",
"    O@X.@@@.OO$$$O    XXXXX@@O        ..$@.X=XXXXXXXXXX===X@@@@O XXXX@.                  ",
"    O@X.@OO$@$$$$.    .XXX....O      .$$$.XXXXXXXXXXXXXXXX@@@@@OO.XXX@.                  ",
"    O@.@$$$$$$$$.     ....$$$$...    O$$@XXXX=XXX...X..XX=X@@@@@O.XXX@.                  ",
"     ..$$$$$$$$$..  ...$$$$$$$$$@..  O@@.XXXXX==XX  .  .XX.@@@@@@O.XXX@                  ",
"     .$$$$$$$$$$$O...@$$$$$$$$$$$$@..O@@@XXXX=XX        .X.@@@@@@@.XXX@.                 ",
"    .$$$$$$$$$$$$$O@@@@$$$$$$$$$$$$$@.@@.XX.XX=            .@@@@@@ .XX@                  ",
"   .$$$$$$$$$$$$$$$@@@@@$$$$$$$$$$$$$$.@...$.OX             @@@@@@O.X@@                  ",
"   .$$$@&&$$O@$$$$$@@@@@$$$$$$$$$$$$$$$O$$$$$$O             @@@@@@@O.@.                  ",
"  .$$$@&&$@-O$$$$$$$@@@O..@@@@$$$$$$$$@$$$$$$$$OOO  .       O@@@@@@O.@@                  ",
"  .O@@@$$@.;;$$$$$$$@OO@@@..O@@@$$$$$$$$$$$$$$$$$$$O$@.     O@@@@@@@.@.                  ",
"   .@@O$$=.;@$$$$$$$O@@@@@O@OO@@@$$$$$$$$$$$$$$$$$$$$@.     O@@@@@@@.@                   ",
"    .O@$OOO@$$@O.O$$OOO OO@@@@@$$$$$$$$$$$$$$$OO.$$$@@.     O@@@@@@@O.                   ",
"     O@$$$$$$$...@@@O     @@@@@$$$$$$$$$$$$$$@@O OO@@@.      O@@@@@@.                    ",
"    O$$$$$$$$@.+.O@@O    @@@@@@$$$$$$$$$$$$$O      .@@@.    O@@@@@@@@.                   ",
"   O$$$$$$$$@.+++O@@     O@@@@@$$$$$$$$$$$@O$O     .@@@.    O@@@@@@@O                    ",
"   O$$$$$$$..+++..@@    O@@@$$$$$$$$$$$$$$$$@@O   .@@@@.     @@@@@@@@.                   ",
"  O$$$$$$$.O.+++.@@O    O@$$$$$$$$$$$$$$$$$$@@@O  .@@@@.    @@@@@@@@@O                   ",
" O$$$O$$@.; .+++.@@.   O@$$*****$$$$$$$$$$$$$@@@.OO$@$@..    @@@@@@@@.                   ",
" .$$@$$@;..O++.O@@..   .$*********$$$$$$$$$$$$@O.$$$$$$@@. O@@@@@@@@@.                   ",
"  .$$@@...O;O.;$@.    .@************$$$$$$$$$$$.@$$$$$$@@O.O@@@@@@@@@O                   ",
"    ...   $$$OO$OO    .$*************$$$$$$$$$$.@@O.$$@@@@.@@@@@@@@@@O                   ",
"          ..$$..     .@***************$$$$$$$$$$.-.@$$O.@@.@$$@@$@@@@O                   ",
"            ..O      .$****************$$$$$$$$$$@O$$@OO.-.$$$@$@$@@@O                   ",
"                    ..******************$$$$$$$$$@@O@-OOO..$$$$@$@@@@@.                  ",
"                    .$******************$$$$$$$$$@@O...$$$$$$$$@$$@@@@.                  ",
"                   O$$*******************$$$$$$$$$@@@O$$$$$$$$$$$@@@@.                   ",
"                  O$$$*******************$$$$$$$$$$$$@O$$$$$$$$$@@@@@.                   ",
"                 O$$$$********************$@$$$$$$$$$@@O$$$$@@@@@@@@@.                   ",
"                 @$$$$@*******************$@$$$$$$$$$@@.$$@@@@@@@@@@&.                   ",
"                @$$$$$O&******************@$$$$$$$$$$$@@.@@@@@@@@@@@.                    ",
"                @$$$$$O&&*****************O$$$$$$$$$$$@@.@@@@@@@@&.&.                    ",
"               O$$$$$$$O&&***************&O$$$$$$$$$$$@@.@@@@@@@&&.                      ",
"               O$$$$$$$O&&&&&********&&&&&O@$$$$$$$$$$@@@.@@@@@&&.                       ",
"               O$$$$$$$@O&&&&&&&&&&&&&&&&&.@$$$$$$$$$$@@@.$&&$&&.                        ",
"               O@$$$$@@@@.&&&&&&&&&&&&&&&&.@@$$$$$$$$$@@@.&&&&&.                         ",
"               O@@@@@@@@@@.&&&&&&&&&&&&&&&.@@@@@$$$@@@@@@.&&.&.                          ",
"                O@@@@@@@@@@.&&&&&&&&&&&&&&&.@@@@@@@@@@@@@@.                              ",
"                O@@@@@@@@@@O..&&&&&&&&&&&&&.@@@@@@@@@@@@@@.                              ",
"                  .@@@@@@@@.  ..&&&&&&&&&OO...@@@@@@@@@@@@.                              ",
"                   .@@@@@@@.    ...&&&OOO&&&&&.@@@@@@@@@@$.                              ",
"                  o-.-@@@@@@.      OOO&&&&&&&OO.@@@@@@@@@@@.                             ",
"                 o;o--o--@@@.         OOOOOOO   .@@@@@$@$@@.                             ",
"                 ..;-.;-....                    .@@@@@@@@@;.                             ",
"                  ... ...                       ..@@-O@-;@;;.                            ",
"                                                 ..;;;.;;;o-.                            ",
"                                                   .;. .-;...                            ",
"                                                    ..  ..                               "
};
