/* XPM */
static char *f959a84bc8284256943f4eeff3022381jagN9rnhjB3szKBB_80[] = {
/* columns rows colors chars-per-pixel */
"89 91 15 1 ",
"  c None",
". c black",
"X c #084252",
"o c gray39",
"O c #843119",
"+ c #E64210",
"@ c #CE5242",
"# c #F7A510",
"$ c #EF8429",
"% c #FFD610",
"& c #EFB55A",
"* c #EFDE7B",
"= c #217394",
"- c #CECECE",
"; c white",
/* pixels */
"                                                                                         ",
"                                                                                         ",
"                                                                                         ",
"                                                                                         ",
"                                                                                         ",
"                                                                                         ",
"                                                         +                               ",
"                                              +                                          ",
"                                             ++  ++                                      ",
"                                             +++++++                                     ",
"                                              ++++++                                     ",
"                                               +#++++                                    ",
"                                                +%+++++                                  ",
"                                               ++#%+#%+ ++                               ",
"                                               +++%%%%#+++                               ",
"                                                 +#%%%%+++                               ",
"                                                +++%%%#++++                              ",
"                                               ++%+%%%+++++++                            ",
"                                               +#%#%%#+++#+++                            ",
"                                        OO     +%%%%%+++#%+++                            ",
"                        OO              &&O    +#%%O%#++%%++                             ",
"                       O&&O            O&&@@    +OOOOOO%%%++                             ",
"                      O@&&O             .$$O@    $$$$$$OO@++                             ",
"                 OO   O$$O               .$$$@OOO$$$$$$$$$$@@                            ",
"                $$$O O$$$O               .@$$$$$$@OOOOO@$$$$$@@                          ",
"              O$$$$$O$$$@O                .$$$$$$XXXXXXXO@X@$&&@                         ",
"            O$$$$$$$$$$$O                 .$$$$..XXX=====X=XX@&&&                        ",
"          OO$$$....@$$$$O                  O$$.XXXX==========X@$$@                       ",
"         O$$$XXXXXXX$$$$O                  O$.XXXX============X@$@                       ",
"       O$$$$XXXXXXXX.@$O                   O$.XXXX============X@$$O                      ",
"       O@$XXXXXXXXXXX$$@O                  O$.XXXX=============X@$@                      ",
"       O@XXXXXXXXXXXX.$$O                  O$.XXXXX============X@$@O                     ",
"       O@XXXXXXXXXXXX.$$O                   $.XXXXX============XX$$@                     ",
"      O@@XXXXXXXXXXXXX.$O                   O$XXXXX============XX@$@                     ",
"      O@XXXXXXXXXXXXXX.$$O                  O$.XXXXX============X@$$O                    ",
"     O@@XXXXXXXXXXXXXXXX$O                 O@$.XXXXX============XX$$@                    ",
"     O@@XXXXXXXXXXXXXXXX$                  O$$.XXXXX===========XXXX@@                    ",
"    O@@XXXOOXXXXXXXXXXX$$O                 O$@XXXXXXXX=========XXXXX$$                   ",
"   .@XXXXO@@.XXXXXOOXXXX$O                .@@XXXXXXXXX=========XXXXX@$@                  ",
"   @XXXXXO@@.XXXXO$$.XXX@@.               O@@XXXXXXXXX=========XXXXXX$$O                 ",
"  .@XXXXO@@@....O$$@.XXXO@@.              .@XXXXXXXXXXX========XXXXXX@@.                 ",
"  .@XXXXO@@..  O$$$.XXXXXO@@             .@@XXXXXXXXXXX======XXXXXXXXX@.                 ",
"  .@@XXXO@@.  O$$$...XXXXXX@.           .@@XXXXXXXXXXXXX====X@@.XXXXXX@.                 ",
"   O@XX.@@@.OO$$$O   .XXXXX@@O        ..$@.XX=XXXXXXXXXX===X@@@@.XXXXX@.                 ",
"   O@XX.@OO$@$$$$.    .XXX....O      .$$$.XXXX=XXXXXXXXX===@@@@@O.XXXX@.                 ",
"    O@.@$$$$$$$$.     ....$$$$...     $$@XXXX=X=XX...XXXX=X @@@@@O.XXX@.                 ",
"    O@.$$$$$$$$$..  ...$$$$$$$$$@..  O@@.XXXXX=XXX   ...X=XO@@@@@@.XXXX@                 ",
"    ..$$$$$$$$$$$O...@$$$$$$$$$$$$@..O@@@XXXX=X=XX      .X  .@@@@@.XXXX@.                ",
"    .$$$$$$$$$$$$$O@@@@$$$$$$$$$$$$$@.@@.XXXXX=X         .X .@@@@@@.XXX@.                ",
"   .$$$$$$$$$$$$$$$@@@@@$$$$$$$$$$$$$$.@.XX.XXX              @@@@@@..XX@.                ",
"   .$$$@&&$$O@$$$$$@@@@@$$$$$$$$$$$$$$$....$.OX              .@@@@@O.X@@                 ",
"  .$$$@&&$@-O$$$$$$$@@@O..@@@@$$$$$$$$$O$$$$$$O  O           O@@@@@@.X@.                 ",
"  .O@@@$$@.;;$$$$$$$@OOO@@..O@@@$$$$$$@$$$$$$$$OO$OO.         @@@@@@.@@                  ",
"   .@@O$$=.;@$$$$$$$OO@@@@@@OO@@@$$$$$$$$$$$$$$$$$$$$@.      O@@@@@@@@.                  ",
"    .O@$OOO@$$@O.O$$O@@@@@@@@@@@@$$$$$$$$$$$$$$$$$$$$@.       @@@@@@@O@                  ",
"     O@$$$$$$$...@@@O@@@O@@@@@@@$$$$$$$$$$$$$$OO.OO@@@.      OO@@@@@@..                  ",
"    O$$$$$$$$@...O@@OOO  @@@@@@$$$$$$$$$$$$$$@@O O .@@..      @@@@@@@O                   ",
"   O$$$$$$$$@.++O@@O     O@@@@@$$$$$$$$$$$$$OO     .@@@.      O@@@@@@.                   ",
"   O$$$$$$$..++..@@O    O@@@$$$$$$$$$$$$$$@O@@O   .@@@@@.    O@@@@@@@@                   ",
"  O$$$$$$$..+++.@@.     O@$$$$$$$$$$$$$$$$$$@@@O   .@@@@.    O@@@@@@@O.                  ",
" O$$$O$$@.@.+++.@@.    O@$$*****$$$$$$$$$$$$$@@@O OO$@@@.    @@@@@@@@@                   ",
" .$$@$$@;...++..@.     .$*********$$$$$$$$$$$$@@@.$$$$$@@.   @@@@@@@@@.                  ",
"  .$$@@...;+..;O@.    .@************$$$$$$$$$$$O.$$$$$$@@O.  O@@@@@@@O                   ",
"    ... ..$OOO$OO     .$*************$$$$$$$$$$.@$O.$$$@@@. OO@@@@@@@@.                  ",
"         O$$$$..     .@***************$$$$$$$$$.@@..@$$@.@@.O@@@@@@@@O                   ",
"          ....O      .$****************$$$$$$$$$$.@O$$$OO.-.@@@@@@@@@O                   ",
"                     .******************$$$$$$$$$@@@O@@O O..$@@@@@@@@@O                  ",
"                    .$******************$$$$$$$$$@@@O.-O O$$$$@$@@@@@OO                  ",
"                   O$$*******************$$$$$$$$$@@@O..O$$$$$$@$$@@@O                   ",
"                  O$$$*******************$$$$$$$$$$$$@O@O$$$$$$$@@@@@@.                  ",
"                 O$$$$********************$$$$$$$$$$$@O$$$$$$$$$$$@@@@.                  ",
"                 @$$$$@*******************$@$$$$$$$$$@@O$$$$$$$$@@@@@@.                  ",
"                @$$$$$O&******************$@$$$$$$$$$@@.$$$$$$@@@@@@@.                   ",
"                @$$$$$O&&*****************@$$$$$$$$$$$@@.$@@@@@@@@@@&.                   ",
"                @$$$$$$O&&***************&O$$$$$$$$$$$@@.@@@@@@@@@@@..                   ",
"               O$$$$$$$O&&&&&********&&&&&O@$$$$$$$$$$@@@.@@@@@@@@@&.                    ",
"               O$$$$$$$$O&&&&&&&&&&&&&&&&&.@$$$$$$$$$$@@@.@@@@@@@&.                      ",
"               O$$$$$$$@@.&&&&&&&&&&&&&&&&.@@$$$$$$$$$@@@.@@@@@&&&.                      ",
"               O@$$$$@@@@@.&&&&&&&&&&&&&&&.@@@$$$$$$$@@@@.$@@$&&&.                       ",
"               O@@@@@@@@@@@.&&&&&&&&&&&&&&.@@@@@$$$@@@@@@.&&&&&..                        ",
"                O@@@@@@@@@@...&&&&&&&&&&&&&.@@@@@@@@@@@@@@.&&.                           ",
"                O@@@@@@@@@@O  ..&&&&&&&&&OO.@@@@@@@@@@@@@@...                            ",
"                  .@@@@@@@@.    ...&&&OOO&&&..@@@@@@@@@@@@.                              ",
"                   .@@@@@@@.       OOO&&&&&&&O.@@@@@@@@@@$.                              ",
"                  o-.-@@@@@@.         OOOOOOO  .@@@@@@@@@@@.                             ",
"                 o;o--o--@@@.                   .@@@@@$@$@@.                             ",
"                 ..;-.;-....                    .@@@@@@@@@;.                             ",
"                  ... ...                       ..@@-O@-;@;;.                            ",
"                                                 ..;;;.;;;o-.                            ",
"                                                   .;. .-;...                            ",
"                                                    ..  ..                               "
};
