/* XPM */
static char *f959a84bc8284256943f4eeff3022381jagN9rnhjB3szKBB_84[] = {
/* columns rows colors chars-per-pixel */
"89 91 15 1 ",
"  c None",
". c black",
"X c #084252",
"o c gray39",
"O c #843119",
"+ c #E64210",
"@ c #CE5242",
"# c #F7A510",
"$ c #EF8429",
"% c #FFD610",
"& c #EFB55A",
"* c #EFDE7B",
"= c #217394",
"- c #CECECE",
"; c white",
/* pixels */
"                                                                                         ",
"                                                                                         ",
"                                                                                         ",
"                                                                                         ",
"                                                             +++                         ",
"                                                              ++++  +                    ",
"                                                               ++++ +                    ",
"                                                               ++++                      ",
"                                                            + +++#++                     ",
"                                                            +++++#++                     ",
"                                                           ++++#%#++                     ",
"                                                          +++++%%%++                     ",
"                                                          +++%%%%%++                     ",
"                                                         +++%%%%%++                      ",
"                                                         +++%%%%++++                     ",
"                                                         +++%%%#++%#++                   ",
"                                                          ++#%%##%%%#+++                 ",
"                                           OO             ++#%%%%%%%%+++                 ",
"                     OO                   O&&O             +++#O%%%%%++                  ",
"                    O&&O                  O&&@@             ++O$$%%%%++                  ",
"                   O@&&O                  .@$$O@    OOOOOO  +O$$O%%%#++                  ",
"                   O$$O                    .$$$$@OOO$$$$$$OO O$$%%#%++                   ",
"             OOO  O$$$O                    .@$$$$$$$$$$$$$$$@@$OO%#+                     ",
"            O$$$OO$$$@O                     .$$$$$$$@OOOOO@$$$@@@%++                     ",
"          OO$$$$$$$$$O                      .$$$$...XXXXXXXO@$$$$@@                      ",
"         O$$$$$$$$$$$O                       O$$.XXXXXX=====XX@$&&&@                     ",
"        O$$$....@$$$$O                       O$.XXXXX=========XX@&&&O                    ",
"       O$$XXXXXXX.@$$O                       O$.XXXX============X@$$@                    ",
"     OO$$XXXXXXXXX.$$@O                      O$.XXXX=============X@$@                    ",
"    O$$$XXXXXXXXXXX.$$O                      O$.XXXX=============X@$$O                   ",
"    O@$XXXXXXXXXXXX.$$O                      O$.XXXXX=============X@$@                   ",
"    O@XXXXXXXXXXXXXX.$O                      O$.XXXXX=============X@$@                   ",
"    O@XXXXXXXXXXXXXX.$$O                     O$.XXXXX=============XX$$O                  ",
"   O@@XXXXXXXXXXXXXXXX$O                    O@$.XXXXXX============XX@$@                  ",
"   O@XXXXXXXXXXXXXXXXX$O                    O$$.XXXXXX============XX@$@                  ",
"  O@@XXXXXOOXXXXXXXXXX$$O                   O$@XXXXXXX============XXX$$O                 ",
"  O@@XXXXO@@.XXXXXOOXXX$O                  .@@XXXXXXXXX==========XXXX@$@                 ",
" O@@XXXXXO@@.XXXXO$$.XX@@.                OO@@XXXXXXXXX==========XXXX@$@                 ",
".@@XXXXXO@@@.XXXO$$@.XXO@@.               .@@XXXXXXXXXX==========XXXXX$$O                ",
".@XXXXXXO@@...XO$$$.XXXXO@@..           ..@@XXXXXXXXXXXX=========XXXXX@$@                ",
".@XXXXXXO@@.  O$$$..XXXXXX@@@O        ..$@@XXXXXXXXXXXXX=========XXXXXX$$O               ",
".@XXXXX.@@@.OO$$$O  .XXXXXX@@@O      .$$$@.XX=XXXXXXXXXXX=====XXXXXXXXX@@.               ",
".@@XXXX.@OO$@$$$$.   .XXXX....O      O$$@.XXXX=XXXXXXXXXX====X  .XXXXXXX@.               ",
" O@XXX.@$$$$$$$$.    .X...$$$$...   O@@@.XXXX=X=XXXXXXXXX===X   @.XXXXXX@.               ",
" O@XXX.$$$$$$$$$..  ...$$$$$$$$$@.. O@@@.XXXXX=XXX...XXXXX=X    O@.XXXXX@.               ",
"  O@X.$$$$$$$$$$$O...@$$$$$$$$$$$$@..@@.XXXXX=X=XX   ...XX=X    @@@.XXXX@.               ",
"  O@.$$$$$$$$$$$$$O@@@@$$$$$$$$$$$$$@.@.XXXXXX=X        .XX     O@@.XXXX@.               ",
"   .$$$$$$$$$$$$$$$@@@@@$$$$$$$$$$$$$$.XXXXXXXX          .X     ..@.XXXX@.               ",
"   .$$$@&&$$O@$$$$$@@@@@$$$$$$$$$$$$$$$.XXXXXX                   @@@.XXX@.               ",
"  .$$$@&&$@-O$$$$$$$@@@O..@@@@$$$$$$$$$$$...X                    @@@.XXX@.               ",
"  .O@@@$$@.;;$$$$$$$@OO   ..O@@@$$$$$$$$...$.O                   .@@@.XX@.               ",
"   .@@O$$=.;@$$$$$$$O   OO@@OO@@@$$$$$$O$$$$$$O                  O@@@.X@@                ",
"    .O@$OOO@$$@O.O$$O  O@@@@@@@@@$$$$$@$$$$$$$$OOO               O@@@.X@.                ",
"     O@$$$$$$$...@@@OOO@@@@@@@@@@$$$$$$$$$$$$$$$$$$OO.           O@@@.@@O                ",
"    O$$$$$$$$@.+.O@@O@@@@@@@@@@$$$$$$$$$$$$$$$$$$$$$$@.          @@@@.@.                 ",
"   O$$$$$$$$@.+++.@@O@@@@O@@@@@$$$$$$$$$$$$$$$OO.$$$$@.         OO@@@@@@                 ",
"   O$$$$$$$..++++.@@.@@OO@@@$$$$$$$$$$$$$$$$$@@O OO@@@.         O@@@@@.@O                ",
"  O$$$$$$$.  .+++.@@.OO O@$$$$$$$$$$$$$$$$$$O@@O   .@@.         O@@@@@@@.                ",
" O$$$O$$@.   .+++.@.O  O@$$*****$$$$$$$$$$@O$@@@O  .@@@.       O@@@@@@@OO                ",
" .$$@$$@;.   .++.O@.   .$*********$$$$$$$$$$$$@@@O.@@@@.       O@@@@@@@.O                ",
"  .$$@@...  .O+.;$OO  .@***********$$$$$$$$$$$$@@O.@@@@.      O@@@@@@@@@                 ",
"    ...  OOOO;OOO$.   .$*************$$$$$$$$$$$.OO$@@@.      @@@@@@@@@.                 ",
"        O@@@.$$$$.   .@***************$$$$$$$$O.$$$$$$@.    O@@@@@@@@@@O                 ",
"       O@O@@@....O   .$****************$$$$$$$.@$$$$$$@@.   O@@@@@@@@@@.                 ",
"       ..@@@@@@@@.   .******************$$$$$$.@@O.$$$@@O.OO@@@@@@@@@@O                  ",
"        .@@@.OO@@.  .$******************$$$$$$$.-.@$$@@@@.$@$$@@@@@@@@..                 ",
"         O@@O  ..   .$*******************$$$$$$$@O$$$O.@@.$$$$@$$@@@@OO                  ",
"          ..;O     O$$*******************$$$$$$$$$O@@OO.-.$$$$$@@$@@@O                   ",
"           O..    O$$$********************$$$$$$$$O.-OOO..$$$$$@@@@@@@                   ",
"                 O$$$$@*******************$@$$$$$$$$..@O$$$$$$$$$@@@@..                  ",
"                 @$$$$O&******************$@$$$$$$$$$@@.$$$$$$$$$@@@@.                   ",
"                @$$$$$O&&*****************@$$$$$$$$$$$@@.@$@@@@@@@@@@.                   ",
"                @$$$$$$O&&***************&O$$$$$$$$$$$@@.@@@@@@@@@@@.                    ",
"                @$$$$$$O&&&&&********&&&&&O$$$$$$$$$$$@@.@@@@@@@@@@&.                    ",
"               O$$$$$$$$O&&&&&&&&&&&&&&&&&O@$$$$$$$$$$@@@.@@@@@@@@@.                     ",
"               O$$$$$$$$@.&&&&&&&&&&&&&&&&.@$$$$$$$$$$@@@.@@@@@@&..                      ",
"               O$$$$$$$@@@.&&&&&&&&&&&&&&&.@@$$$$$$$$$@@@.@$@@&&&.                       ",
"               O@$$$$@@@@@@.&&&&&&&&&&&&&&.@@@$$$$$$$@@@@.&$&&&.                         ",
"               O@@@@@@@@@@@@..&&&&&&&&&&&&.@@@@@$$$@@@@@@.&&&..                          ",
"                O@@@@@@@@@@.  ..&&&&&&&&&OO.@@@@@@@@@@@@@@..                             ",
"                O@@@@@@@@@@O    ...&&&OOO&&.@@@@@@@@@@@@@@.                              ",
"                 O@@@@@@@@O        OOO&&&&&&..@@@@@@@@@@@@.                              ",
"                  .@@@@@@@@.          OOOOOOO .@@@@@@@@@@$.                              ",
"                   .@@@@@@@.                   .@@@@@@@@$@$.                             ",
"                  o-.-@@@@@@.                   .@@@@@@@@@@.                             ",
"                 o;o--o--@@@.                   .@@@@@$@$@@.                             ",
"                 ..;-.;-....                    .@@@@@@@@@;.                             ",
"                  ... ...                       ..@@-O@-;@;;.                            ",
"                                                 ..;;;.;;;o-.                            ",
"                                                   .;. .-;...                            ",
"                                                    ..  ..                               "
};
