/* XPM */
static char *f959a84bc8284256943f4eeff3022381jagN9rnhjB3szKBB_93[] = {
/* columns rows colors chars-per-pixel */
"89 91 15 1 ",
"  c None",
". c black",
"X c #084252",
"o c gray39",
"O c #843119",
"+ c #E64210",
"@ c #CE5242",
"# c #F7A510",
"$ c #EF8429",
"% c #FFD610",
"& c #EFB55A",
"* c #EFDE7B",
"= c #217394",
"- c #CECECE",
"; c white",
/* pixels */
"                                                                              +          ",
"                                                                   +                     ",
"                                                                  ++  ++                 ",
"                                                                  +++++++                ",
"                                                                   ++++++                ",
"                                                                    +#++++               ",
"                                                                     +%+++++             ",
"                                                                    ++#%+#%+ ++          ",
"                                                                    +++%%%%#+++          ",
"                                                                      +#%%%%+++          ",
"                                                                     +++%%%#++++         ",
"                                                                    ++%+%%%+++++++       ",
"                                                                    +#%#%%#+++#+++       ",
"                                                                    +%%%%%+++#%+++       ",
"                                                                    +#%%%%#++%%++        ",
"                                                                     +%#%%%%%%%++        ",
"                                                                      +#%%%%%%#++        ",
"                                                                     +++%%%%#%++         ",
"                                           OO                        +++#%O%#+           ",
"                     OO                   O&&O                        ++OO$$++           ",
"                    O&&O                  O&&@@                         O$$O+            ",
"                   O@&&O                  .@$$O@    OOOOOO             OO$$              ",
"                   O$$O                    .$$$$@OOO$$$$$$OO           O$$O              ",
"             OOO  O$$$O                    .@$$$$$$$$$$$$$$$@@        O@$@O              ",
"            O$$$OO$$$@O                     .$$$$$$$@OOOOO@$$$@@@     O@@@               ",
"          OO$$$$$$$$$O                      .$$$$...XXXXXXXO@$$$$@@   @@@O               ",
"         O$$$$$$$$$$$O                       O$$.XXXXXX=====XX@$&&&@ O@@@O               ",
"        O$$$....@$$$$O                       O$.XXXXX=========XX@&&&OO@@O                ",
"       O$$XXXXXXX.@$$O                       O$.XXXX============X@$$@@@@@O               ",
"     OO$$XXXXXXXXX.$$@O                      O$.XXXX=============X@$@O@@@                ",
"    O$$$XXXXXXXXXXX.$$O                      O$.XXXX=============X@$$O@@@O               ",
"    O@$XXXXXXXXXXXX.$$O                      O$.XXXXX=============X@$@@@@                ",
"    O@XXXXXXOOXXXXXX.$O                      O$.XXXXX=============X@$@@@@O               ",
"    O@XXXXXO@@.XXXXXOO$O                     O$.XXXXX=============XX$$O@@O               ",
"   O@@XXXXXO@@.XXXXO$$.O                    O@$.XXXXXX============XX@$@@@O               ",
"   O@XXXXXO@@@.XXXO$$@.O                    O$$.XXXXXX============XX@$@@@O               ",
"  O@@XXXXXO@@.XXXO$$$.$$O                   O$@XXXXXXX============XXX$$O@@O              ",
"  O@@XXXXXO@@.XXO$$$.XX$O                  .@@XXXXXXXXX==========XXXX@$@@@O              ",
" O@@XXXXX.@@@.OO$$$OXXX@@.                OO@@XXXXXXXXX==========XXXX@$@@@O              ",
".@@XXXXXX.@OO$@$$$$.XXXO@@.               .@@XXXXXXXXXX==========XXXXX$$O@O              ",
".@XXXXXX.@$$$$$$$$.XXXXXO@@..           ..@@XXXXXXXXXXXX=========XXXXX@$@@O              ",
".@XXXXXX.$$$$$$$$$..XXXXXX@@@.        ..$@@XXXXXXXXXXXXX=========XXXXXX$$OO              ",
".@XXXXX.$$$$$$$$$$$O.........$...    .$$$@.XX=XXXXXXXXXXX=====XXXXXXXXX@@.O@             ",
".@@XXX.$$$$$$$$$$$$$O@.@$$$$$$$$$.   O$$@.XXXX=XXXXXXXXXX====X  .XXXXXXX@.O              ",
" O@XX.$$$$$$$$$$$$$$$@@@@$$$$$$$$$. O@@@.XXXX=X=XXXXXXXXX===X    .XXXXXX@.@@             ",
" O@XX.$$$@&&$$O@$$$$$@@@@@$$$$$$$$@..@@@.XXXXX=XXX...XXXXX=X      .XXXXX@.O@             ",
"  O@.$$$@&&$@-O$$$$$$$@@@@$$$$$$$$$$@@@.XXXXX=X=XX   ...XX=X       .XXXX@.@@             ",
"  O@.O@@@$$@.;;$$$$$$$@@O.$$$$$$$$$$$...XXXXXX=X        .XX        .XXXX@.O@             ",
"   . .@@O$$=.;@$$$$$$$OO ..@@$$$$$$$$@@.XXXXXXX          .X        .XXXX@.@OO            ",
"      .O@$OOO@$$@O.O$$O    ..@@$$$$$$$$.X...XX                      .XXX@.@@             ",
"       O@$$$$$$$...@@@O      O@@@$$$$$$$O$$$.                       .XXX@.@@             ",
"      O$$$$$$$$@.+.O@@O   OO@O@@@$$$$$$@$$$$$.O                      .XX@.@O             ",
"     O$$$$$$$$@..+++O@@ OO@@@@@@@$$$$$$$$$$$$$$O                    O.X@@@@O             ",
"     O$$$$$$$..++++..@@O@@@@@@$$$$$$$$$$$$$$$$$$OOO                  .X@.@@O             ",
"    O$$$$$$$.  .+++.@@.@@@@@@@$$$$$$$$$$$$$$$$$$$$OO.              OO.@@@@@O             ",
"   O$$$O$$@.   .+++.@@.@@@O@@@$$$$$$$$$$$$$$$$$$$$$$@.              @.@.@@@O             ",
"   .$$@$$@;.   .++..@.@@@O@@@$$$$$$$$$$$$$$$$OO.$$$$@.            OO@@@@@@@              ",
"    .$$@@...  .O+.;O@.@@OO@$$$$$$$$$$$$$$@O$@@OOOO@@@.             @@@.@@@@              ",
"      ...     O;OOO$OOOOO@$$*****$$$$$$$$$$O$@@@O .@@.            O@@@@@@@O              ",
"              .$$$$$.O  .$********$$$$$$$$$$$$@@@O.@@@.          O@@@@@@@@.              ",
"               .....O  .@**********$$$$$$$$$$$$@@.@@@@.        O @@@@@@@@OO              ",
"             OO@@@@O   .$************$$$$$$$$$$$@.@@@@.        O@@@@@@@@@.O              ",
"          OOO@@@@@O  ..@**************$$$$$$$$$.OO$@@@.      O@@@@@@@@@@@.               ",
"         O@@@@@@@@.  .$****************$$$$$$O.$$$$$$@.     OO@@@@@@@@@@O.               ",
"         @O@@@@@@.   .******************$$$$$.@$$$$$$@@.   O@@@@@@@@@@@@@                ",
"        O.@@@@@@@@.   *******************$$$$.@@O.$$$@@O.$O$@$$@@@@@@@@O.                ",
"        ..@@@.OO@@. .$******************$$$$$$.-.@$$@@@@.$$$$$$@$$@@@@@@                 ",
"          O@@O  ..  .$*******************$$$$$$@O$$$O.@@.$$$$$$@$$$@@@O.                 ",
"           ..;O    O$$*******************$$$$$$$$O@@OO.-.$$$$$$$$@@@@OO                  ",
"            O..   O$$$@*******************$$$$$$$O.-O@O..$$$$$$$$$@@@@.                  ",
"                 O$$$$O&******************$@$$$$$$$..@@O$$$$$$$$$@@@@@.                  ",
"                 @$$$$O&&*****************$@$$$$$$$$$@@.@@@@@@@@@@@@@.                   ",
"                @$$$$$$O&&****************@$$$$$$$$$$$@@.@@@@@@@@@@@@.                   ",
"                @$$$$$$O&&&&&************&O$$$$$$$$$$$@@.@@@@@@@@@@&.                    ",
"                @$$$$$$$O&&&&&&&*****&&&&&O$$$$$$$$$$$@@.@@@@@@@@@.&.                    ",
"               O$$$$$$$$$.&&&&&&&&&&&&&&&&O@$$$$$$$$$$@@@.@@@@@@&&.                      ",
"               O$$$$$$$$@@.&&&&&&&&&&&&&&&.@$$$$$$$$$$@@@.@$@&&&.                        ",
"               O$$$$$$$@@@@.&&&&&&&&&&&&&&.@@$$$$$$$$$@@@.&&&&&..                        ",
"               O@$$$$@@@@@@@..&&&&&&&&&&&&.@@@$$$$$$$@@@@.&..                            ",
"               O@@@@@@@@@@@@. .&&&&&&&&&&&.@@@@@$$$@@@@@@.                               ",
"                O@@@@@@@@@@.   .&&&&&&&&&OO.@@@@@@@@@@@@@@.                              ",
"                O@@@@@@@@@@O    ...&&&OOO&&.@@@@@@@@@@@@@@.                              ",
"                  .@@@@@@@@.       OOO&&&&&&..@@@@@@@@@@@@.                              ",
"                   .@@@@@@@.          OOOOOOO .@@@@@@@@@@$.                              ",
"                  o-.-@@@@@@.                  .@@@@@@@@@@@.                             ",
"                 o;o--o--@@@.                   .@@@@@$@$@@.                             ",
"                 ..;-.;-....                    .@@@@@@@@@;.                             ",
"                  ... ...                       ..@@-O@-;@;;.                            ",
"                                                 ..;;;.;;;o-.                            ",
"                                                   .;. .-;...                            ",
"                                                    ..  ..                               "
};
