/* XPM */
static char *f959a84bc8284256943f4eeff3022381jagN9rnhjB3szKBB_48[] = {
/* columns rows colors chars-per-pixel */
"89 91 15 1 ",
"  c None",
". c black",
"X c #084252",
"o c gray39",
"O c #843119",
"+ c #E64210",
"@ c #CE5242",
"# c #F7A510",
"$ c #EF8429",
"% c #FFD610",
"& c #EFB55A",
"* c #EFDE7B",
"= c #217394",
"- c #CECECE",
"; c white",
/* pixels */
"                                                                                         ",
"                                                                                         ",
"                                                                                         ",
"                                                                                         ",
"                                                             +++                         ",
"                                                              ++++  +                    ",
"                                                               ++++ +                    ",
"                                                               ++++                      ",
"                                                            + +++#++                     ",
"                                                            +++++#++                     ",
"                                                           ++++#%#++                     ",
"                                                          +++++%%%++                     ",
"                                                          +++%%%%%++                     ",
"                                                         +++%%%%%++                      ",
"                                                         +++%%%%++++                     ",
"                                                         +++%%%#++%#++                   ",
"                                                          ++#%%##%%%#+++                 ",
"                                                          ++#%%%%%%%%+++                 ",
"                                                           +++#O%%%%%++                  ",
"                                         OO                 ++O$$%%%%++                  ",
"                        OO              O&&O                +O$$O%%%#++                  ",
"                       O&&O             O&&@@       OOO      O$$%%#%++                   ",
"                      O@&&O             .@$$O@   OOO$$$OO    O$OO%#+                     ",
"                      O$$O               .$$$$@OO$$$$$$$$@   O$O#%++                     ",
"                $OO  O$$$                .@$$$$$$$$$OOO@$$$@@@@@+++                      ",
"              O$$$$OO$$$@                 .$$$$$$$OOXXXXO@$$$@@O                         ",
"             O$$$$$$$$$$                  .$$$$...XX=====XX@$&&@O                        ",
"            O$$..$$$$$$O                   O$$.XXXXX=======XX@&&@                        ",
"           O$XXXX..@$$$O                    $.XXXXX==========X@$@                        ",
"         OO$XXXXXXXX.$$O                    $.XXXX============X$$O                       ",
"        O$$XXXXXXXXX.$$@O                   O.XXXX============X@$@                       ",
"        O@XXXXXXXXXXX.$$O                   O$XXXX=============X@@                       ",
"        OXXXXXXXXXXXX.$$O                   O$.XXXX============XX$O                      ",
"        @XXXXXXXXXXXXX.$O                   O$.XXXX============XX@$                      ",
"       @@XXXXXXXXXXXXX.$$O                  O$.XXXX============XX@$@                     ",
"      O@XXXXXXXXXXXXXXXX$                  O@$.XXXXX===========XXX$$O                    ",
"     O@@XXXXXXXXXXXXXXXXO                  O$$.XXXXX===========XXX@$@                    ",
"    OO@@XXOOXXXXXXXXXXX$$O                 O$@XXXXXX==========XXXX@$@                    ",
"   .O@@XXO@@.XXXXXOOXXXX$O                 @@XXXXXXXX=========XXXXX$$O                   ",
"   .@@XXXO@@.XXXXO$$.XXX@@.               OO@XXXXXXXX==========XXXX@$@                   ",
"   .@XXXO@@@....O$$@.XXXO@@.              .@@XXXXXXXXX=========XXXXX$$O                  ",
"   .@XXXO@@..  O$$$.XXXXXO@@             .@@XXXXXXXXXXX========XXXXX@@.                  ",
"   .@XXXO@@.  O$$$...XXXXXX@.           .@@XXXXXXXXXXXXX====XXXXXXXXX@.                  ",
"    @@X.@@@.OO$$$O.  .XXXXX@@O        ..$@.XX=XXXXXXXXXX===X  .XXXXXX@.                  ",
"    O@X.@OO$@$$$$.    .XXX....O       .$$.XXXX=XXXXXXXXX==X    .XXXXX@.                  ",
"    O@.@$$$$$$$$.     ....$$$$...     O$@XXXX=X=XXXXXXXXX=X     ..XXX@.                  ",
"     O.$$$$$$$$$..  ...$$$$$$$$$@..  O@@@XXXXX=XXX..X..XX=X     O.XXX@.O                 ",
"     .$$$$$$$$$$$O...@$$$$$$$$$$$$@..O@@@XXXX=X=XX  .  .XX      ..XXXX.O                 ",
"    .$$$$$$$$$$$$$O@@@@$$$$$$$$$$$$$@.@@.XXXXX=X        .X       @.XXX@O                 ",
"   .$$$$$$$$$$$$$$$@@@@@$$$$$$$$$$$$$$.@.XXXXXX                  @.XXX@.                 ",
"   .$$$@&&$$O@$$$$$@@@@@$$$$$$$$$$$$$$$.XXXXXX                   .@.XX@.                 ",
"  .$$$@&&$@-O$$$$$$$@@@O..@@@@$$$$$$$$$$$X...                    O@.X@@@                 ",
"  .O@@@$$@.;;$$$$$$$@OO   ..O@@@$$$$$$$$...$.O                   O@.X@.@                 ",
"   .@@O$$=.;@$$$$$$$O    OO@OO@@@$$$$$$O$$$$$$O  O               O@.@@@OO                ",
"    .O@$OOO@$$@O.O$$O OOO@@@@@@@@$$$$$@$$$$$$$$OO$OO.            @@.@.@@                 ",
"     O@$$$$$$$...@@@OO@@@@@@@@@@@$$$$$$$$$$$$$$$$$$$$@.         OO@@@@@@                 ",
"    O$$$$$$$$@.+.O@@O@@@@@@@@@@@$$$$$$$$$$$$$$$$$$$$$@.         O@@@.@@@O                ",
"   O$$$$$$$$@.++..@@O@@@@O@@@@@$$$$$$$$$$$$$$$OO.OO@@@.         O@@@@@@@.                ",
"   O$$$$$$$..+++.@@.@OO O@@@$$$$$$$$$$$$$$$$$@@O O .@@..       O@@@@@@@OO                ",
"  O$$$$$$$. .+++.@@.O   O@$$$$$$$$$$$$$$$$$$O@@O   .@@@.       O@@@@@@@.O                ",
" O$$$O$$@.OO.++..@.O   O@$$****$$$$$$$$$$$@O$@@@O .@@@@@.     O@@@@@@@@@                 ",
" .$$@$$@;.@.O+.;O@.    .$*******$$$$$$$$$$$$$$@@@O .@@@@.     @@@@@@@@@.                 ",
"  .$$@@...@O;OOO$OO   .@***********$$$$$$$$$$$$@@OOO$@@@.   O@@@@@@@@@@O                 ",
"    ....@@.$$$$..     .$************$$$$$$$$$$$$@.$$$$$@@.  O@@@@@@@@@@.                 ",
"       .@@@....O.    .@***************$$$$$$$$$O.$$$$$$@@O.O@@@@@@@@@@O                  ",
"        O@@.OO@@.    .$****************$$$$$$$$.@$O.$$$@@@.@$$@@@@@@@@..                 ",
"         ..O  ..     .******************$$$$$$$.@@..@$$@.@@.$$@$$@@@@OO                  ",
"          O;O       .$******************$$$$$$$$$.@O$$$OO.-.$$$@@$@@@O                   ",
"           ..       .$*******************$$$$$$$$$@@O@@O$O..$$$@@@@@@@                   ",
"                   O$$*******************$$$$$$$$$@@O.-O$$$$$$$$$@@@@..                  ",
"                  O$$$********************$$$$$$$$$$$@..$$$$$$$$$@@@@.                   ",
"                 O$$$$@*******************$@$$$$$$$$$@@O$@$@@@@@@@@@@.                   ",
"                 @$$$$O&******************$@$$$$$$$$$@@.@@@@@@@@@@@@.                    ",
"                @$$$$$O&&*****************@$$$$$$$$$$$@@.@@@@@@@@@@&.                    ",
"                @$$$$$$O&&***************&O$$$$$$$$$$$@@.@@@@@@@@@@.                     ",
"               O$$$$$$$O&&&&&********&&&&&O$$$$$$$$$$$@@.@@@@@@@&..                      ",
"               O$$$$$$$$O&&&&&&&&&&&&&&&&&O@$$$$$$$$$$@@@.@$@@&&&.                       ",
"               O$$$$$$$@@.&&&&&&&&&&&&&&&&.@$$$$$$$$$$@@@.&$&&&.                         ",
"               O@$$$$@@@@@.&&&&&&&&&&&&&&&.@@$$$$$$$$$@@@.&&&..                          ",
"               O@@@@@@@@@@@.&&&&&&&&&&&&&&.@@@@@$$$@@@@@@...                             ",
"                O@@@@@@@@@@...&&&&&&&&&&&&&.@@@@@@@@@@@@@@.                              ",
"                O@@@@@@@@@@O  ..&&&&&&&&&OO.@@@@@@@@@@@@@@.                              ",
"                  .@@@@@@@@.    ...&&&OOO&&&..@@@@@@@@@@@@.                              ",
"                   .@@@@@@@.       OOO&&&&&&&O.@@@@@@@@@@$.                              ",
"                  o-.-@@@@@@.         OOOOOOO  .@@@@@@@@@@@.                             ",
"                 o;o--o--@@@.                   .@@@@@$@$@@.                             ",
"                 ..;-.;-....                    .@@@@@@@@@;.                             ",
"                  ... ...                       ..@@-O@-;@;;.                            ",
"                                                 ..;;;.;;;o-.                            ",
"                                                   .;. .-;...                            ",
"                                                    ..  ..                               "
};
