/* XPM */
static char *f959a84bc8284256943f4eeff3022381jagN9rnhjB3szKBB_57[] = {
/* columns rows colors chars-per-pixel */
"89 91 15 1 ",
"  c None",
". c black",
"X c #084252",
"o c gray39",
"O c #843119",
"+ c #E64210",
"@ c #CE5242",
"# c #F7A510",
"$ c #EF8429",
"% c #FFD610",
"& c #EFB55A",
"* c #EFDE7B",
"= c #217394",
"- c #CECECE",
"; c white",
/* pixels */
"                                                                              +          ",
"                                                                   +                     ",
"                                                                  ++  ++                 ",
"                                                                  +++++++                ",
"                                                                   ++++++                ",
"                                                                    +#++++               ",
"                                                                     +%+++++             ",
"                                                                    ++#%+#%+ ++          ",
"                                                                    +++%%%%#+++          ",
"                                                                      +#%%%%+++          ",
"                                                                     +++%%%#++++         ",
"                                                                    ++%+%%%+++++++       ",
"                                                                    +#%#%%#+++#+++       ",
"                                                                    +%%%%%+++#%+++       ",
"                                                                    +#%%%%#++%%++        ",
"                                                                     +%#%%%%%%%++        ",
"                                                                      +#%%%%%%#++        ",
"                                                                     +++%%%%#%++         ",
"                                          OO                         +++#%O%#+           ",
"                       OO                O&&O                         ++OO$$++           ",
"                      O&&O               O&&@@                          O$$O+            ",
"                     O@&&O               .@$$O@    OOOOOO              OO$$              ",
"                     O$$O                 .$$$$@OOO$$$$$$OO            O$$O              ",
"               OOO  O$$$                  .@$$$$$$$$$$$$$$$@@         O@$@O              ",
"              O$$$OO$$$O                   .$$$$$$$@OOOOO@$$$@@@@     O@@@               ",
"            OO$$$$$$$$O                    .$$$$...XXXXXXXO@$$$&&@    @@@O               ",
"           O$$$$$$$$$$O                     O$$.XXXXXX=====XX@$@&&O  O@@@O               ",
"          O$$$....@$$$O                      $.XXXXX=========XXX@$@  O@@O                ",
"         O$$XXXXXXX.$$O                      O.XXXX=============X@@ O@@@@O               ",
"       OO$$XXXXXXXX.$$@O                     O$XXXX=============X@$O O@@@                ",
"      O$$$XXXXXXXXXX.$$O                     O$.XXX==============X@@O@@@@O               ",
"      O@$XXXXXXXXXXX.$$O                     O$.XXXX=============X@$ @@@@                ",
"      O@XXXXXXXXXXXXX.$O                     O$.XXXX=============XX$$@@@@O               ",
"      O@XXXXXXXXXXXXX.$$O                    O$.XXXX=============XX@$@@@@O               ",
"     O@@XXXXXXXXXXXXXXX$O                   O@$.XXXXX============XX@$@@@@O               ",
"    OO@XXXXXXXXXXXXXXXX$O                   O$$.XXXXX============XXX$$O@@O               ",
"    O@@XXXOOXXXXXXXXXXX$$O                  O$@XXXXXX===========XXXX@$@@@@O              ",
"   O@@@XXO@@.XXXXXOOXXXX$O                 .@@XXXXXXXX==========XXXX@$@@@@O              ",
"  .@@@XXXO@@.XXXXO$$.XXX@@.               OO@@XXXXXXXX==========XXXXX$$O@@O              ",
"  .@XXXXO@@@.XXXO$$@.XXXO@@.              .@@XXXXXXXXXX=========XXXXX@$@@@O              ",
"  .@XXXXO@@....O$$$.XXXXXO@@             .@@XXXXXXXXXXXX========XXXXXX$$O@O              ",
"  .@XXXXO@@.  O$$$...XXXXXX@.           .@@XXXXXXXXXXXXX========XXXXXX@@.@O              ",
"  .@XXX.@@@.OO$$$O.  .XXXXX@@O        ..$@.XX=XXXXXXXXXXX====XXXXXXXXXX@.@O@             ",
"   O@XX.@OO$@$$$$.    .XXX....O       .$$.XXXX=XXXXXXXXXX===X  ..XXXXXX@.@O              ",
"   O@X.@$$$$$$$$.     ....$$$$...     O$@XXXX=X=XXXXXXXXX==X    ..XXXXX@.@@@             ",
"    @X.$$$$$$$$$..  ...$$$$$$$$$@..  O@@@XXXXX=XXX...XXXXX=X      .XXXX@.@O@             ",
"    @.$$$$$$$$$$$O...@$$$$$$$$$$$$@..O@@@XXXX=X=XX   ...XX=X      .XXXX@.@@@             ",
"    .$$$$$$$$$$$$$O@@@@$$$$$$$$$$$$$@.@@.XXXXX=X        .XX       .XXXX@.@O@             ",
"   .$$$$$$$$$$$$$$$@@@@@$$$$$$$$$$$$$$.@.XXXXXX          .X        .XXX@.@@OO            ",
"   .$$$@&&$$O@$$$$$@@@@@$$$$$$$$$$$$$$$.XXXXXX                     .XXX@.@@@             ",
"  .$$$@&&$@-O$$$$$$$@@@O..@@@@$$$$$$$$$$$X...                       .XX@.@@@             ",
"  .O@@@$$@.;;$$$$$$$@OO   ..O@@@$$$$$$$$...$.O                      .X@@@@@O             ",
"   .@@O$$=.;@$$$$$$$O    OO@OO@@@$$$$$$O$$$$$$O                     .X@.@@@O             ",
"    .O@$OOO@$$@O.O$$O   O@@@@@@@@$$$$$@$$$$$$$$OOO                  .@@@@@@O             ",
"     O@$$$$$$$...@@@O OO@@@@@@@@@$$$$$$$$$$$$$$$$$$OO.             O.@.@@@@O             ",
"    O$$$$$$$$@.+.O@@OO@@@@@@@@@@$$$$$$$$$$$$$$$$$$$$$@.             @@@@@@@O             ",
"   O$$$$$$$$@.+++..@@O@@@O@@@@@$$$$$$$$$$$$$$$OO.$$$$@.           OO@@@@@@@              ",
"   O$$$$$$$...+++.@@.@@OO@@@$$$$$$$$$$$$$$$$$@@O OO@@@.            @@@@@@@@              ",
"  O$$$$$$$.  .+++.@@.OO O@$$$$$$$$$$$$$$$$$$O@@O   .@@..          O@@@@@@@O              ",
" O$$$O$$@.   .++..@.O  O@$$*****$$$$$$$$$$@O$@@@O  .@@@.         O@@@@@@@@.              ",
" .$$@$$@;.  .O+.;O@.   .$*********$$$$$$$$$$$$@@@O.@@@@.       O @@@@@@@@OO              ",
"  .$$@@...OOO;OOO$OO  .@***********$$$$$$$$$$$$@@O.@@@@.       O@@@@@@@@@.O              ",
"    ... O@@@.$$$$$.   .$*************$$$$$$$$$$$.OO$@@@.     O@@@@@@@@@@@.               ",
"       O@O@@@.....   .@***************$$$$$$$$O.$$$$$$@..   OO@@@@@@@@@@O.               ",
"       ..@@@@@@@@O   .$****************$$$$$$$.@$$$$$$@@O. O@@@@@@@@@@@@@                ",
"        .@@@.OO@@.   .******************$$$$$$.@@O.$$$@@@..$@$$@@@@@@@@O.                ",
"         O@@O  ...  .$******************$$$$$$$$.-.@$$@@@@.$$$$@$$@@@@@@                 ",
"          ..;O      .$*******************$$$$$$$$@O$$$O..-.$$$$@$$$@@@O.                 ",
"          O..      O$$*******************$$$$$$$$$@O@@OOO..$$$$$$@@@@OO                  ",
"                  O$$$********************$$$$$$$$$O.-O$$$$$$$$$$$@@@@.                  ",
"                 O$$$$@*******************$@$$$$$$$$$..O$$$$$$$$$@@@@@.                  ",
"                 @$$$$O&******************$@$$$$$$$$$@@.@@@@@@@@@@@@@.                   ",
"                @$$$$$O&&*****************@$$$$$$$$$$$@@.@@@@@@@@@@@@.                   ",
"                @$$$$$$O&&***************&O$$$$$$$$$$$@@.@@@@@@@@@@&.                    ",
"                @$$$$$$O&&&&&********&&&&&O$$$$$$$$$$$@@.@@@@@@@@@.&.                    ",
"               O$$$$$$$$O&&&&&&&&&&&&&&&&&O@$$$$$$$$$$@@@.@@@@@@&&.                      ",
"               O$$$$$$$$@.&&&&&&&&&&&&&&&&.@$$$$$$$$$$@@@.@$@&&&.                        ",
"               O$$$$$$$@@@.&&&&&&&&&&&&&&&.@@$$$$$$$$$@@@.&&&&&..                        ",
"               O@$$$$@@@@@@.&&&&&&&&&&&&&&.@@@$$$$$$$@@@@.&..                            ",
"               O@@@@@@@@@@@@..&&&&&&&&&&&&.@@@@@$$$@@@@@@.                               ",
"                O@@@@@@@@@@.  ..&&&&&&&&&OO.@@@@@@@@@@@@@@.                              ",
"                O@@@@@@@@@@O    ...&&&OOO&&.@@@@@@@@@@@@@@.                              ",
"                  .@@@@@@@@.       OOO&&&&&&..@@@@@@@@@@@@.                              ",
"                   .@@@@@@@.          OOOOOOO .@@@@@@@@@@$.                              ",
"                  o-.-@@@@@@.                  .@@@@@@@@@@@.                             ",
"                 o;o--o--@@@.                   .@@@@@$@$@@.                             ",
"                 ..;-.;-....                    .@@@@@@@@@;.                             ",
"                  ... ...                       ..@@-O@-;@;;.                            ",
"                                                 ..;;;.;;;o-.                            ",
"                                                   .;. .-;...                            ",
"                                                    ..  ..                               "
};
