/* XPM */
static char *e09c064248f34853a16eb353adadd810cHMZ2RD7gSbV5z6E_110[] = {
/* columns rows colors chars-per-pixel */
"70 76 16 1 ",
"  c None",
". c black",
"X c #5A4221",
"o c gray26",
"O c #635A42",
"+ c #B54242",
"@ c #A57B5A",
"# c #B5A57B",
"$ c #CE9C52",
"% c #EFC573",
"& c #848484",
"* c #F784A5",
"= c #EFDEAD",
"- c #D6CECE",
"; c #FFD6E6",
": c white",
/* pixels */
"                                                                      ",
"                               o                                      ",
"                               o                                      ",
"                              o&o                                     ",
"                              o&o                                     ",
"                              o&&.         oooo.                      ",
"                              .&&.   X  ooo&&&.                       ",
"                              .&&. XX$@o&&&&&.                        ",
"                               .&o.$@$o&&&&o.                         ",
"                               .oo.$$.oo&o..                          ",
"                              X$.o.$.ooo..@@X                         ",
"                              X$...@.o..$$$@@X                        ",
"                             X$$$..X..$$$$$@@@X                       ",
"                            X$$$$$...$$$$$$@@.                        ",
"                             X@X@$$.$$$XX$@@@X     oooooo             ",
"                             X$:X$$$$XX::$@@@@X ooo&&..    .          ",
"                              X-:.OO@:.:$@@@@@oo&&&..     o.          ",
"                             X$$@O==OO$$@@@@@o&&&..    ooo&.          ",
"                              X$O====O.@@@@@o&&&.    oo&&&&.          ",
"                               O#==###.@@@@@.o&.   .o&&&&&.           ",
"                               O==#==.@@@@@..o.  ..o&&&&o.            ",
"                              O==#.OO@@@X@X .o. ..ooo...              ",
"                            OO==#O#==OOXX..  ........                 ",
"                           O===#.#=====OO. XX@X.X@XX                  ",
"                          O===.. ....#===OO@$$$@@$$$X                 ",
"                          O==.       ..#===OOOX$$$$$@X.               ",
"                          O=.      .....#O====:XX$$$$@@.              ",
"          o               ..       .... .##O==:.:XX$$@.               ",
"         o.                        ....  .###.$::%$$$@@X              ",
"        o&.       o.               ..o. .@O..@$$$$$$$@@.              ",
"        o&.     oo&.               .ooo X@@@@@@$$$$@@@@.              ",
"       o&&.    o&&.               .ooooX@@@@@@@@@@@@@@.               ",
"       o&&.   o&&&.                .oo. X@@@@@@@@@@@@@@.              ",
"       .&&.  o&&&.   .  ...        .ooo @.X@@@@@@@@@@X..              ",
"       .&o.X@.o&&. ..........    oo.ooo.$$.@@X@@@@@@@.                ",
"       .oo.$.ooo.@X........ooo..o@@$.oo.$@@X...X.@@X..                ",
"        .o.$.ooo.$$.........oooo.$$$.oo.$$@@@oo.o...                  ",
"       X.oo$.oo.$$$....    ..oooo$$$.ooo.@@..ooo...                   ",
"       X$.o.oo.$$$$$X.      X..oo.$$$@o@$$.ooooo@XX                   ",
"      X$$$....$$$$$$@.     o$XX.oo.@$$@$$@oooo..@@XX.                 ",
"      X$$$$.o$$$$$$@@.     ..$.o@o$$$$$$$$$@..X@@@@@                  ",
"     X$$$$$$$$$$X@@@X       X$$@@$$$$@$$$$$@@@$$@@@X                  ",
"      X$X$$$$$$X:@@@X.     X$$$@$$$@@$$$$@$$$@@@@@X.                  ",
"     .X$:.$$$$X.:@@@@X     X@$$$$$$@$$$$$$$@@@@@@@@X.                 ",
"     X@@::@OOX::-@@@.      X$$@$$$$$$@$$$$$@@@$$@@@@                  ",
"      .@@$O=#O@@@@@X      X$$@$$@$$$@@$$@@@$@@@$$@@.                  ",
"       .X@O==#O@@@X.      .X@@$X@$$$@@@@@@@@@@@@@@@.                  ",
"        ..O===.@X..        X@@@X@@$@@@@X@@@@@@X@@@@                   ",
"          O===..          .@@@@.@@@@@@@.@@@@@@.@@@.                   ",
"          O===.            .X@@...@@@@X&@@@@@@.X@@..                  ",
"          O==#.             .o.oo.@@@@.&X@@X@.oo@..                   ",
"          O==O              .   oo.@.@.&...&.ooooX.                   ",
"          #==.                    ooo&&&&&&&&oooo.*                   ",
"         O==#.                   .oo..o&&&&&oooo.**++                 ",
"         O==O                     o#. ..&&&ooooo.***;++               ",
"         O==.                     ..    ....ooo.*;***;;++             ",
"          O=.                OO####.      +;.o.**+;;;;;;*             ",
"           O               OO#===##       .+.##..;++;;;;;+            ",
"                          O#====O..         .##..;;;++;;.             ",
"                         O====..            .##..++;;;.+              ",
"                       O====#.              O#=O   .;..               ",
"                      O===:oo.              O==.                      ",
"                     O##==#o..              O==.                      ",
"                     =##==.                O==O                       ",
"                    OO#==O                 O==.                       ",
"                    O=#O#:...             O==O                        ",
"                    O=#O#:-.            OO#==Oo                       ",
"                    ==#OO&&           OO##===O-o                      ",
"                    OO:#-.         OO#=#=====#.                       ",
"                     .:.&         &-#========o                        ",
"                                 &::#.O====#==o                       ",
"                                 .:..o#=##..##O                       ",
"                                 .. &-:#..  .:-O                      ",
"                                    o:-.    .-:o                      ",
"                                    o-.      .-.                      ",
"                                    ..        .                       "
};
