/* XPM */
static char *e09c064248f34853a16eb353adadd810cHMZ2RD7gSbV5z6E_151[] = {
/* columns rows colors chars-per-pixel */
"70 76 16 1 ",
"  c None",
". c black",
"X c #5A4221",
"o c gray26",
"O c #635A42",
"+ c #B54242",
"@ c #A57B5A",
"# c #B5A57B",
"$ c #CE9C52",
"% c #EFC573",
"& c #848484",
"* c #F784A5",
"= c #EFDEAD",
"- c #D6CECE",
"; c #FFD6E6",
": c white",
/* pixels */
"                                                                      ",
"                                                                      ",
"                           o                                          ",
"                           o                                          ",
"                          o&o                                         ",
"                          o&o                                         ",
"                          o&&.         oooo.                          ",
"                          .&&.   X  ooo&&&.                           ",
"                          .&&. XX$@o&&&&&.                            ",
"                           .&o.$@$o&&&&o.                             ",
"                           .oo.$$.oo&o..                oooooo        ",
"                          X$.o.$.ooo..@@X            ooo&&..    .     ",
"                          X$...@.o..$$$@@X         oo&&&..     o.     ",
"                         X$$$..X..$$$$$@@@X       o&&&..    ooo&.     ",
"                        X$$$$$...$$$$$$@@.       o&&&.    oo&&&&.     ",
"                         X@X@$$.$$$XX$@@@X       .o&.   .o&&&&&.      ",
"                         X$:X$$$$XX::$@@@@X      .o.  ..o&&&&o.       ",
"                          X-:.OO@:.:$@@.OO.      .o. ..ooo...         ",
"                         X$$@O==OO$$@@O#==OO      ........            ",
"                          X$O====O.@@.#=====OO  XX@X.X@XX             ",
"                           O#==###.@@@....#===OO@$$$@@$$$X            ",
"                           O==#==.@@@@@.. ..#===OOOX$$$$$@X.          ",
"                          O==#=..@@@X@X     .#O====:XX$$$$@@.         ",
"                        OO==#.. XX@XX..      .##O==:.:XX$$@.          ",
"                       O===#.    .X..         .###.$::%$$$@@X         ",
"                      O===..    ....         .@O..@$$$$$$$@@.         ",
"                      O==.      ....         X@@@@@@$$$$@@@@.         ",
"          o           O=.       ....        X@@@@@@@@@@@@@@.          ",
"         o.           ..        ..o.         X@@@@@@@@@@@@@@.         ",
"        o&.       o.            .ooo.         .X@@@@@@@@@@X..         ",
"        o&.     oo&.            .ooo.          .@@X@@@@@@@.           ",
"       o&&.    o&&.              .oo.    XX     X...X.@@X..           ",
"       o&&.   o&&&.              .ooo.X  @$.  X    .....              ",
"       .&&.  o&&&.   ........    .ooo.$XX$$@.X@.  ....                ",
"       .&o.X@.o&&..........ooo..X..oo.$$@$@@@@.......                 ",
"       .oo.$.ooo.@X.........oooo.$.ooo.@$$$@@oooo...                  ",
"        .o.$.ooo.$$.... .....oooo$$.oo@@$$$..ooooo.                   ",
"       X.oo$.oo.$$$..        ..oo.$$@@@$$$.ooooo..XX                  ",
"       X$.o.oo.$$$$$X.       XX.oo.$@$$$$$oooo...@@XX                 ",
"      X$$$....$$$$$$@.       X.o@o$$$$$$$$$@..X@@@@@@.                ",
"      X$$$$.o$$$$$$@@.      X$$$@$$$$$@$$$$@@@@$$@@@X                 ",
"     X$$$$$$$$$$X@@@X       X@$$@$$$@@$$$$@$$$@@@@@X.                 ",
"      X$X$$$$$$X:@@@X.      X$$$$$$$@$$$$$$$@@@@@@@@X         +++*+   ",
"     .X$:.$$$$X.:@@@@X     X$$$@$$$$$$@$$$$$@@@$$@@@@.   + +++;;;;.   ",
"     X@@::@OOX::-@@@.      .X@@$$@$$$@@$$@@@$@@@$$@@.++++****;;;;;;   ",
"      .@@$O=#O@@@@@X        X@@$X@$$$@@@@@@@@@@@@@@@.*********;;;;+   ",
"       .X@O==#O@@@X.       .@@@@X@@$@@@@X@@@@@@X@@@@*********;;;+..   ",
"        ..O===.@X..         .X@@.@@@@@@@.@@@@@@.@@@.*+**+**+;+++;;.   ",
"          O===..             .@@...@@@@X&@@@@@@.X@@.***+*+**+;;;;;    ",
"          O===.              .o..o.@@@@.&X@@X@.oo@.**********;;+..    ",
"          O==#.                 .oo.@.@.&...&.oooX.+******+;+++       ",
"          O==O                   ..ooo&&&&&&&&ooo.+***+*++;+;;.       ",
"          #==.                     .o..o&&&&&ooo.  ..****;;;;;.       ",
"         O==#.                      .oo..&&&oooo.    .*++.+;..        ",
"         O==O                       .o#. ...ooo.           .          ",
"         O==.                     OO###..  ..o#.                      ",
"          O=.                   OO#==##..    .#.                      ",
"           O                   O#===O..      .##.                     ",
"                              O===..         .##.                     ",
"                             O==#.           .##.                     ",
"                            OO=oo           O#=O                      ",
"                          OO#==#::o         O==.                      ",
"                          =#===#o-..        O==.                      ",
"                         OO##==.. .        O==O                       ",
"                         ==O=#O            O==.                       ",
"                        O==O=:...         O==O                        ",
"                        OO#O#&-..       OO#==Oo                       ",
"                        .O:#-&&.      OO##===O-o                      ",
"                         ..:.      OO#=#=====#.                       ",
"                                  &-#========o                        ",
"                                 &::#.O====#==o                       ",
"                                 .:..o#=##..##O                       ",
"                                 .. &-:#..  .:-O                      ",
"                                    o:-.    .-:o                      ",
"                                    o-.      .-.                      ",
"                                    ..        .                       "
};
