/* XPM */
static char *e09c064248f34853a16eb353adadd810cHMZ2RD7gSbV5z6E_16[] = {
/* columns rows colors chars-per-pixel */
"70 76 16 1 ",
"  c None",
". c black",
"X c #5A4221",
"o c gray26",
"O c #635A42",
"+ c #B54242",
"@ c #A57B5A",
"# c #B5A57B",
"$ c #CE9C52",
"% c #EFC573",
"& c #848484",
"* c #F784A5",
"= c #EFDEAD",
"- c #D6CECE",
"; c #FFD6E6",
": c white",
/* pixels */
"                                                                      ",
"                                                                      ",
"                                                                      ",
"                                                                      ",
"                                                                      ",
"                           o                                          ",
"                           o                                          ",
"                          o&o                                         ",
"                          o&o                                         ",
"                          o&&.         oooo.                          ",
"                          .&&.   X  ooo&&&.                           ",
"                          .&&. XX$@o&&&&&.                            ",
"                           .&o.$@$o&&&&o.              oooooo         ",
"                           .oo.$$.oo&o..            ooo&&..    .      ",
"                          X$.o.$.ooo..@@X         oo&&&..     o.      ",
"                          X$...@.o..$$$@@X       o&&&..    ooo&.      ",
"                         X$$$..X..$$$$$@@@X     o&&&.    oo&&&&.      ",
"                        X$$$$$...$$$$$$@@.      .o&.   .o&&&&&.       ",
"                         X@X@$$.$$$XX$@@@X      .o.  ..o&&&&o.        ",
"                         X$:X$$$$XX::$.OO@X     .o. ..ooo...          ",
"                          X-:.OO@:.:$O#==OO      ........             ",
"                         X$$@O==OO$$.#=====OO  XX@X.X@XX              ",
"                          X$O====O.@@....#===OO@$$$@@$$$X             ",
"                           O#==###.@@@@@X..#===OOOX$$$$$@X.           ",
"                           O==#==.@@@@@..  .#O====:XX$$$$@@.          ",
"                          O==#=..@@@X@X     .##O==:.:XX$$@.           ",
"           o            OO==#.. XX@XX..      .###.$::%$$$@@X          ",
"          o.           O===#.    .X..       .@O..@$$$$$$$@@.          ",
"         o&.       o. O===..     ....       X@@@@@@$$$$@@@@.          ",
"         o&.     oo&. O==.       ..o.      X@@@@@@@@@@@@@@.           ",
"        o&&.    o&&.  O=.        .ooo.      X@@@@@@@@@@@@@@.          ",
"        o&&.   o&&&.  ..         .ooo.       .X@@@@@@@@@@X..          ",
"        .&&.  o&&&.     .         .oo.  X     .@@X@@@@@@@.            ",
"        .&o.X@.o&&.. ........     .ooo.X$.   X X...X.@@X..            ",
"        .oo.$.ooo.@X.......oo.   o.ooo.@$$@.X@. .... ..               ",
"         .o.$.ooo.$$........oo...@@.oo.$$@@@@.......                  ",
"        X.oo$.oo.$$$.........ooo.$$.ooo.@$@@@ooooo.                   ",
"        X$.o.oo.$$$$$X.      oooo$$$.oo@$$@..ooo..                    ",
"       X$$$....$$$$$$@.     X..oo.$$$@@$$$.oooo.@XXX                  ",
"       X$$$$.o$$$$$$@@.    o$XX.oo.@$$$$$@oooo.@@@@@.                 ",
"      X$$$$$$$$$$X@@@X     .$$.o@o$$$$$$$$$@..X@@@@X                  ",
"       X$X$$$$$$X:@@@X.    X$$$@@$$$$@$$$$$@@@$$@@X.            ++    ",
"      .X$:.$$$$X.:@@@@X   X$$$$@$$$@@$$$$@$$$@@@@@@X          ++;*..  ",
"      X@@::@OOX::-@@@.    X@@$$@$$$@$$$$$$$@@@@@@@@@.    ++++;;;;;;.  ",
"       .@@$O=#O@@@@@X      X$$$$$$$$$@$$$$$@@@$$@@@.++*+*******;;;+   ",
"        .X@O==#O@@@X.     X$$$@$@$$$@@$$@@@$@@@$$@@.**********;;+..   ",
"         ..O===.@X..      .X@@$$@$$$@@@@@@@@@@@@@@@********+;+++;;.   ",
"           O===..          X@@$X@@$@@@@X@@@@@@X@@@@.++*+*++*+;;;;.    ",
"           O===.          .@@@@X@@@@@@@.@@@@@@.@@@@.********;;++      ",
"           O==#.           .X@@...@@@@X&@@@@@@..X@.+*****++;++.       ",
"           O==O             .@@.o.@@@@.&X@@X@..oo@.*+++*+*;;;.        ",
"           #==.             .oo.oo.@.@.&...&&.oooX.*.***;;;;;.        ",
"          O==#.                  .ooo&&&&&&&&&ooo.    .+.. .          ",
"          O==O                     ...o&&&&&&ooo.                     ",
"          O==.                      .o....&&oooo.                     ",
"           O=.                      .o#.  ..ooo.                      ",
"            O                     OO###..   .o#.                      ",
"                                OO#==##..    .##.                     ",
"                               O#===O..      .##.                     ",
"                              O===..         .##.                     ",
"                            O===#..         O#=O                      ",
"                           O===oo.          O==.                      ",
"                           O==#.            O==.                      ",
"                          O#===.           O==O                       ",
"                         OO##=O...         O==.                       ",
"                          O#O##.:.        O==O                        ",
"                         OO=#=#-&.      OO#==Oo                       ",
"                          ==OO#&      OO##===O-o                      ",
"                          O=##-.   OO#=#=====#.                       ",
"                          O.:.:&  &-#========o                        ",
"                           ...   &::#.O====#==o                       ",
"                                 .:..o#=##..##O                       ",
"                                 .. &-:#..  .:-O                      ",
"                                    o:-.    .-:o                      ",
"                                    o-.      .-.                      ",
"                                    ..        .                       "
};
