/* XPM */
static char *e09c064248f34853a16eb353adadd810cHMZ2RD7gSbV5z6E_21[] = {
/* columns rows colors chars-per-pixel */
"70 76 16 1 ",
"  c None",
". c black",
"X c #5A4221",
"o c gray26",
"O c #635A42",
"+ c #B54242",
"@ c #A57B5A",
"# c #B5A57B",
"$ c #CE9C52",
"% c #EFC573",
"& c #848484",
"* c #F784A5",
"= c #EFDEAD",
"- c #D6CECE",
"; c #FFD6E6",
": c white",
/* pixels */
"                                                                      ",
"                                                                      ",
"                                                                      ",
"                          oo                                          ",
"                           oo              .                          ",
"                           o&o            o.                          ",
"                           o&&o         oo&.                          ",
"                           o&&&.   X  oo&&.                           ",
"                            .&&. XX$@o&&&&.                           ",
"                            .&&o.$@$o&&&&.                            ",
"                             .oo.$$.oo&o.               oooooo        ",
"                            X.oo.$.ooo..@@X          ooo&&..    .     ",
"                            X$...@.o..$$$@@X       oo&&&..     o.     ",
"                           X$$$..X..$$$$$@@@X     o&&&..    ooo&.     ",
"                          X$$$$$...$$$$$$@@.     o&&&.    oo&&&&.     ",
"                           X@X@$$.$$$XX$@@@X     .o&.   .o&&&&&.      ",
"                           X$:X$$$$XX::$@@@@X    .o.  ..o&&&&o.       ",
"                            X-:.OO@:.:$.OO@@.    .o. ..ooo...         ",
"                        OOOX$$@O==OO$$O#==OO      ........            ",
"                      OO===========O..#=====OO  XX@X.X@XX             ",
"                     O=========#.OO#.@....#===OO@$$$@@$$$X            ",
"                     O=#O.......++##.@@@@...#===OOOX$$$$$@X.          ",
"                     ...        .+#.@@X@X   .#O====:XX$$$$@@.         ",
"           o                    .+=..XX..    .##O==:.:XX$$@.          ",
"          o.                    .+=....       .###.$::%$$$@@X         ",
"         o&.       o.           .=..         .@O..@$$$$$$$@@.         ",
"         o&.     oo&.          .#=..         X@@@@@@$$$$@@@@.         ",
"        o&&.    o&&.           .=...        X@@@@@@@@@@@@@@.          ",
"        o&&.   o&&&.           ...o.         X@@@@@@@@@@@@@@.         ",
"        .&&.  o&&&.             .ooo.         .X@@@@@@@@@@X..         ",
"        .&o.X@.o&&.             .ooo.          .@@X@@@@@@@.           ",
"        .oo.$.ooo.@X             .oo.    XX     X...X.@@X..           ",
"         .o.$.ooo.$$.            .ooo.X  @$.  X    .....              ",
"        X.oo$.oo.$$$.........    .ooo.$XX$$@.X@.  ....                ",
"        X$.o.oo.$$$$$X.....ooo..X..oo.$$@$@@@@.......                 ",
"       X$$$....$$$$$$@......oooo.$.ooo.@$$$@@oooo...                  ",
"       X$$$$.o$$$$$$@@. .....oooo$$.oo@@$$$..ooooo.                   ",
"      X$$$$$$$$$$X@@@X       ..oo.$$@@@$$$.ooooo..XX                  ",
"       X$X$$$$$$X:@@@X.      XX.oo.$@$$$$$oooo...@@XX                 ",
"      .X$:.$$$$X.:@@@@X      X.o@o$$$$$$$$$@..X@@@@@@.                ",
"      X@@::@OOX::-@@@.      X$$$@$$$$$@$$$$@@@@$$@@@X                 ",
"       .@@$O=#O@@@@@X       X@$$@$$$@@$$$$@$$$@@@@@X.                 ",
"        .X@O==#O@@@X.       X$$$$$$$@$$$$$$$@@@@@@@@X         +++*+   ",
"         ..O===.@X..       X$$$@$$$$$$@$$$$$@@@$$@@@@.   + +++;;;;.   ",
"           O===..          .X@@$$@$$$@@$$@@@$@@@$$@@.++++****;;;;;;   ",
"           O===.            X@@$X@$$$@@@@@@@@@@@@@@@.*********;;;;+   ",
"           O==#.           .@@@@X@@$@@@@X@@@@@@X@@@@*********;;;+..   ",
"           O==O             .X@@.@@@@@@@.@@@@@@.@@@.*+**+**+;+++;;.   ",
"           #==.              .@@...@@@@X&@@@@@@.X@@.***+*+**+;;;;;    ",
"          O==#.              .o..o.@@@@.&X@@X@.oo@.**********;;+..    ",
"          O==O                  .oo.@.@.&...&.oooX.+******+;+++       ",
"          O==.                   ..ooo&&&&&&&&ooo.+***+*++;+;;.       ",
"           O=.                     .o..o&&&&&ooo.  ..****;;;;;.       ",
"            O                       .oo..&&&oooo.    .*++.+;..        ",
"                                    .o#. ...ooo.           .          ",
"                                  OO###..  ..o#.                      ",
"                                OO#==##..    .#.                      ",
"                               O#===O..      .##.                     ",
"                              O===..         .##.                     ",
"                             O==#.           .##.                     ",
"                            OO=oo           O#=O                      ",
"                          OO#==#::o         O==.                      ",
"                          =#===#o-..        O==.                      ",
"                         OO##==.. .        O==O                       ",
"                         ==O=#O            O==.                       ",
"                        O==O=:...         O==O                        ",
"                        OO#O#&-..       OO#==Oo                       ",
"                        .O:#-&&.      OO##===O-o                      ",
"                         ..:.      OO#=#=====#.                       ",
"                                  &-#========o                        ",
"                                 &::#.O====#==o                       ",
"                                 .:..o#=##..##O                       ",
"                                 .. &-:#..  .:-O                      ",
"                                    o:-.    .-:o                      ",
"                                    o-.      .-.                      ",
"                                    ..        .                       "
};
