/* XPM */
static char *_[] = {
/* columns rows colors chars-per-pixel */
"65 65 93 2 ",
"   c None",
".  c black",
"X  c gray6",
"o  c gray10",
"O  c #282008",
"+  c #2F2711",
"@  c #382810",
"#  c #38311E",
"$  c #202020",
"%  c #282828",
"&  c #3E3826",
"*  c gray19",
"=  c gray22",
"-  c #403018",
";  c #4A3C1B",
":  c #503818",
">  c #443F2E",
",  c #4D402D",
"<  c #584020",
"1  c #544C3D",
"2  c #684820",
"3  c #704828",
"4  c #714D30",
"5  c #735037",
"6  c #000040",
"7  c #000048",
"8  c #000060",
"9  c #000070",
"0  c #000078",
"q  c #444444",
"w  c #484848",
"e  c #514D40",
"r  c #584F42",
"t  c #545044",
"y  c #5D5549",
"u  c #505050",
"i  c #5D5A50",
"p  c #5B5B5B",
"a  c #615A4E",
"s  c #755943",
"d  c #67645D",
"f  c #606060",
"g  c #6F6F6F",
"h  c #72716D",
"j  c #67757D",
"k  c #6A777E",
"l  c gray44",
"z  c #805028",
"x  c #885830",
"c  c #8F5D3A",
"v  c #905830",
"b  c #97623D",
"n  c #986038",
"m  c #A06038",
"M  c #8C6344",
"N  c #9C765A",
"B  c #99785F",
"V  c #A86840",
"C  c #AE7142",
"Z  c #B07040",
"A  c #B2794D",
"S  c #B87848",
"D  c #A47451",
"F  c #B87A55",
"G  c #987D68",
"H  c #907E70",
"J  c #C87848",
"K  c #AE8C7A",
"L  c #D08050",
"P  c #D88850",
"I  c #E58859",
"U  c #E88858",
"Y  c #F09058",
"T  c #D89875",
"R  c #F89860",
"E  c #F7A070",
"W  c #F8A070",
"Q  c #000088",
"!  c #000098",
"~  c #0000A8",
"^  c #0000B0",
"/  c #0000D0",
"(  c #0000E0",
")  c #0000F8",
"_  c #959595",
"`  c #989898",
"'  c #F8B080",
"]  c #F8B890",
"[  c #F8B898",
"{  c #F8D0B8",
"}  c #C0C0C0",
"|  c #D0D0D0",
" . c gray91",
/* pixels */
"                                                                                                                                  ",
"                                                                                                                                  ",
"                                                                                                                                  ",
"                                                                                                                                  ",
"                                                                                                                                  ",
"                                                                                                                                  ",
"                                                                                                                                  ",
"                                                                                                                                  ",
"                                                                                                                                  ",
"                                                                                                                                  ",
"                                                                                                                                  ",
"                                                                                                                                  ",
"                                                                                                                                  ",
"                                                                                                                                  ",
"                                                                                                                                  ",
"                                                                                                                                  ",
"                                                                                                                                  ",
"                                                                                                                                  ",
"                                                                                                                                  ",
"                                                              `     f                                                             ",
"                                                            |   u u w =                                                           ",
"                                                              f u u w = $                                                         ",
"                                                          `   l u u w = $                                                         ",
"                                                        _ }  .}   l f u % %                                                       ",
"                                                        ` % % % % % % % . %                                                       ",
"                                                          5 V ) ' S ) V 4                                                         ",
"                                                          ; Y [ $ V [ Y ;                                                         ",
"                                                        k . n $  .$ U ; . k                                                       ",
"                                                    K I . . . ` . ` $ . . - x                                                     ",
"                                                T J m z - } . u   u . } - V V z b                                                 ",
"                                              E W Y R W W x { . % . S . . R R R R n                                               ",
"                                            G W W R R W n ' S Z W P S S n < L L S S D                                             ",
"                                            H ] U V L S 2 ' ' Z ] W S S n < V V V v s                                             ",
"                                              A V m n x x < x x x V O O . . : 3 3 3 h                                             ",
"                                                < < < ; @ $ $ O . ; ; ; Z x ; O @ y                                               ",
"                                                  z O O - : $ $ $ w L Z Z x ; O                                                   ",
"                                                    x ; O - z $ $ $ w Z m x < 1                                                   ",
"                                                    J x : ; - z . $ $ $ x < @                                                     ",
"                                                    J Y n : - - . x . . . < O                                                     ",
"                                                    u w = $ $     u $ $ $ . .                                                     ",
"                                                    u w = $ $ u u u $ $ $ . .                                                     ",
"                                                    J Y n L 3 3 - 3 3 @ 2 < O                                                     ",
"                                                  F Y Y P L Z 3 . 3 3 3 z 2 ; r                                                   ",
"                                                  J Y Y L L Z 3 . 3 m v v 2 ; @                                                   ",
"                                                  Y Y Y L L Z . . : m v v z ; @                                                   ",
"                                                G Y Y L L Z 3 . O . 3 v x z ; @ d                                                 ",
"                                                c x 3 3 - - . O @ O . . . . . . >                                                 ",
"                                                Z P U U S < - +   O < m S P m z O                                                 ",
"                                                J U R R S z - i   e < S P R Z m -                                                 ",
"                                              N J R ' R S x O       O v L P R Z -                                                 ",
"                                              C P ' ' 3 S < O       # 2 3 n R R < a                                               ",
"                                              Z ' L S Y 3 O k         O S R P m m ,                                               ",
"                                              P R ' S ; 3 - d       l < < m P R m <                                               ",
"                                              P R ' S v ; O           O v S P P m <                                               ",
"                                            B U R R S x < t           & v L L L m <                                               ",
"                                            M S S S 3 3 -             d < v v < < O h                                             ",
"                                            X $ $ $ $ $ *               . $ $ $ $ .                                               ",
"                                            . 0 0 6 $ $                 X ~ 9 6 6 .                                               ",
"                                            . ~ 7 6 $ $                 u 8 ~ 7 6 .                                               ",
"                                            . ( 0 6 $ *                   $ ~ ( 6 $ X                                             ",
"                                            . ~ 7 6 $                     X 8 ~ 7 $ .                                             ",
"                                            8 ~ 7 $ .                       $ ~ 9 6 .                                             ",
"                                          q ~ / 0 7 $ f                   f Q / ^ ^ 9 o                                           ",
"                                        p ~ 9 9 6 7 $ g                   p ~ ! 9 6 6 $ u                                         ",
"                                      j $ $ $ $ $ $ .                     j . $ $ $ $ $ .                                         "
};
