/* XPM */
static char *_[] = {
/* columns rows colors chars-per-pixel */
"65 65 137 2 ",
"   c None",
".  c black",
"X  c #080000",
"o  c #100000",
"O  c #180000",
"+  c #1E1010",
"@  c #280000",
"#  c #300000",
"$  c #350808",
"%  c #241717",
"&  c #391414",
"*  c #3F1919",
"=  c #282008",
"-  c #382810",
";  c #202020",
":  c #282828",
">  c gray19",
",  c gray22",
"<  c #400000",
"1  c #480000",
"2  c #440808",
"3  c #500000",
"4  c #530909",
"5  c #4B1717",
"6  c #501414",
"7  c #600000",
"8  c #680000",
"9  c #700000",
"0  c #671C1C",
"q  c #403018",
"w  c #483819",
"e  c #503818",
"r  c #432727",
"t  c #492828",
"y  c #572E2E",
"u  c #5C2A2A",
"i  c #463A26",
"p  c #403A28",
"a  c #5D3939",
"s  c #623B3B",
"d  c #743F3F",
"f  c #484800",
"g  c #585800",
"h  c #686800",
"j  c #707000",
"k  c #4C412F",
"l  c #574226",
"z  c #584020",
"x  c #594A34",
"c  c #524738",
"v  c #684820",
"b  c #6B4E2B",
"n  c #704828",
"m  c #004040",
"M  c #1A4D4D",
"N  c #005858",
"B  c #115D5D",
"V  c #2A5555",
"C  c #365B5B",
"Z  c #006868",
"A  c #1B6D6D",
"S  c #007070",
"D  c #007878",
"F  c #434343",
"G  c #484848",
"H  c #584F42",
"J  c #5B4A4A",
"K  c #5D554A",
"L  c #505050",
"P  c #5B5B5B",
"I  c #624545",
"U  c #6C4949",
"Y  c #615947",
"T  c #725E46",
"R  c #625050",
"E  c #6F5858",
"W  c #745A5A",
"Q  c #6B6357",
"!  c #766857",
"~  c #786B5D",
"^  c #597979",
"/  c #606060",
"(  c #6E6D6D",
")  c #736767",
"_  c #726D65",
"`  c #786D60",
"'  c #746A6A",
"]  c #7A6E6E",
"[  c #787268",
"{  c #63747D",
"}  c #6A777E",
"|  c #727272",
" . c #800000",
".. c #880000",
"X. c #980000",
"o. c #A00000",
"O. c #B00000",
"+. c #B80000",
"@. c #AA1111",
"#. c #C80000",
"$. c #D00000",
"%. c #E00000",
"&. c #E80000",
"*. c #F80000",
"=. c #805028",
"-. c #885830",
";. c #986038",
":. c #A06038",
">. c #A86840",
",. c #B07040",
"<. c #B87848",
"1. c #C87848",
"2. c #808000",
"3. c #909000",
"4. c #D08050",
"5. c #D88850",
"6. c #E88858",
"7. c #F09058",
"8. c #F89860",
"9. c #F8A070",
"0. c #008080",
"q. c #118080",
"w. c #009898",
"e. c #2A8080",
"r. c #488080",
"t. c #5B8080",
"y. c #658080",
"u. c #959595",
"i. c #9A9A9A",
"p. c #AEAEAE",
"a. c #F8B080",
"s. c gray78",
"d. c #CACACA",
"f. c #D7D7D7",
"g. c #DADADA",
"h. c #E6E6E6",
"j. c gray91",
/* pixels */
"                                                                                                                                  ",
"                                                                                                                                  ",
"                                                                                                                                  ",
"                                                                                                                                  ",
"                                                                                                                                  ",
"                                                          i.p.d.f.h.h.h.g.s.u.                                                    ",
"                                                      s.  p.j.j.  G G , , , ; { |                                                 ",
"                                                    f.i.L j.j.  : G G G G G , ; { |                                               ",
"                                            E 6 1 1 j.X G j.j.n ; : : : G G n ; X , @ < y '                                       ",
"                                          s O @ @ @ j.. G j.j.n w ; ; ; : G >.; X . @ @ @ < @ )                                   ",
"                                        ] O < . X X j.X G j.1.1.1.:.n ; n ; >.#.X , X X X X < X                                   ",
"                                        s < . X { { j.{ , *.a.9.4.4.4.4.n ; -.%.{ / { { { X X @ |                                 ",
"                                        1 @ X { { { j.{ -.*.n n 6.9.7.a.n n -.*.{ / { { { { @ @ (                                 ",
"                                        1 @ X { { { *.{ ,.&.| 9 : =.z : X.| <.*.{ / { { { { < @ (                                 ",
"                                        6 @ X { { { &.{ -.&.,.>.>.6.<.>.>.,.<.&.{ L { { { { < @ |                                 ",
"                                        J @ X { { { &.{ { &.6.8.a.a.5.8.8.6.<.%.{ L { { { { < @                                   ",
"                                          @ X X { { %.{ { &.>.5.:.z z :.1.>.v %.3 L { { { < @ @                                   ",
"                <                         r @ X X { %.{ { %.>.1.:.;.;.:.1.-.v $...L { { < @ @ X                                   ",
"              4 1 @ s                     { @ @ X X %.{ { %.;.,.e X X e ,.v v $.+.L { { @ @ X {                   ] U U E         ",
"            * 3 9 < # $               ^ B N N N N N m : { %.;.,.X o o X ,.v w $.: m N N N N m .                 t # # # # # o +   ",
"          & G 9 9 1 , # @ @ : : : : 0.S S S S S S S S m : / ;.>.=.@ @ =.>.v w : m N Z S S S S N . ; 5 a I   } # G 0.S G : 1 1 #   ",
"        9 < S 9 f 7 , < 9 @ : , , 0.D D D D D D D D D S m : : -.>.>.>.>.-.: : m N Z Z Z D D D D Z . ; < 9 9 8 < 0.. ; N 1 1 8 #   ",
"        < 8 8 9 f 7 8 9 < @ : , 0.0.0.0.D D D Z Z Z Z Z Z Z m : : : : : : m N Z S S S Z Z Z Z Z Z D . < 1 o.O.1 7 7 1 1 9 o.8 +   ",
"      P S 8 f 7 f X. . .< N : 0.0.0.0.D D D Z Z Z Z Z Z Z Z Z Z : : : N Z Z Z Z Z Z Z Z Z Z Z Z Z Z D . 7 1 o.#.O.3 7 9 #.9 1 >   ",
"      0  . . .X.g f X. .7 1 < @ 0.0.0.0.D S S Z Z N N N N N N N : m m S N N N N N N N N Z Z Z Z Z Z D D ; 1 9 O.h #.#.g 9 # # >   ",
"      @.X.f f g 3.g f f X.f O.+.#.#.#.#.0.D D N N N N N N N N N : m m S N N N N N N N Z Z Z Z D D D D #.o.7 7 ..#.2.2.#.9 ..1 &   ",
"      2  . .X.X.g f 7 8 8 3 1 # 0.0.0.D D Z N N m m m m m m m m : > > N m m m m m m N m N N N N N #.+.+.+.+.....#.2.2.#.O.7 < ,   ",
"      G < 8 8 X.f X.X.8 O N m 0.0.D w.w.0.0.0.0.S Z N N N m : m : > > N m : m N N Z S 0.0.0.0.w.w.Z S S S N 7 ..g #.#.h #.9 N >   ",
"      <  .8 8 7 X.7 8 8 < @ . 0.0.S N m m m m m m m : : : : : m : > > N m : : : : m m m m m m m N Z Z S S 1 7 #.9 +...9 o.o.: }   ",
"      <  . .< 7 X.7 O <  .O { 0.0.D Z w.0.0.0.S Z N N N N m : m : > > N m : m N N N Z S 0.0.0.w.N N Z S { 7 o.7 ..o...1 9 o.1     ",
"      < 3 < : 1 8 1 , @ O O { +.+.0.S N m m m m m : : : : : : m : > > N m : : : : : m m m m m N N Z S { { 7 7 1 1 o.N ; 1 1 o.u   ",
"      < < # # @ O.< # # X { < O.+.0.S Z N N N m N m m m m m m m : > > N m m m m m m N m N N N N N Z Z { < { 3 # 9 o.# # # # < u   ",
"      3 < # G G 7 @ , # < 8 O.< 0.S S Z Z N N N m m m m m m m m : > > N m m m m m m m N N N N N N Z { @ 8 { 3 # 9 o.3 G : # 8     ",
"      < 8 8 1 0. .@ < < 8 o.8 { { Z Z Z N N N m N m m m m m m m : > > N m m m m m m N m N N N N N N { { { 8 8 S 8 +.8 G 8 8 X     ",
"      1 8 X.8 8 o.< 8 o.o.8 < { { N N N N N m N m m m m m m m m : > > N m m m m m m m N m N N N N N { 8 { 8 o.8 9 +...8 +...N d   ",
"      G 8 8  .o.o. .o.f o.8 < { { { N N N N N m m m m m m m m m : > > N m m m m m m m m N N N N N { { { { S ..#.+.g +.+...8 N P   ",
"      G 1 8 7 g $.o.g o.8 < { { { { : : : : : : : : : : : : : : ; . . ; : : : : : : : : : : : : : { # 1 9 8 ..+.$.j $.+...8 8 R   ",
"      q.. < 7 #.3.3.#. . .3 N { { { { . . . . . . . . . . . . . . . . . . . . . . . . . . . . # # 7 o.o.+.O.+.g j 2.j g +. .+.W   ",
"      u 3  . .o.3.3.#.o.o. .3 3 { 7 7 7 3 3 1 1 < < # # # # # @ @ @ @ @ # # # # # < < 1 1 3 3 7 7 7 # 1 9 ....+.$.j $.+...8 8 (   ",
"      / N < 7 o.o.#.g ..< N { { { < # O O O o o o X X . . . . . . . . . . . . . X X o o o O O O # I       8 ....+.g +...+...N |   ",
"        , 7 o.7 7 9 ....O.1 { { { S N ; . . . . . . . . . . . . : : . . . . . . . . . . . . . .           8 8 8 7 9 8 8 ....8     ",
"        <  .7 < < < 9 O.O.< 1 { { S N ; ; ; ; ; ; ; ; ; ; ; ; ; : : S N N N N N N Z Z Z Z Z Z Z Z ^       { N N 1 o.8 G N 8 8     ",
"        @ < , , N N 1 1 < 8 < { { S N N N m m m m m m m m m m m m m S N N N N N N N N N Z Z Z Z Z A         1 : 1 o.3 : : # F     ",
"        1 o o X X X . . 1 1 @ 1 { N : : : : : : : : : : : : : : : ; m m m m m m m m m m m m m m m M         ' % # 9 # X . >       ",
"                            5 @ { N : : : : : : : : : : : : : : : ; m : : : : : : : : : : : : m m V               1               ",
"                                J { ; ; ; ; ; ; ; ; ; ; ; ; ; ; ; ; m S N N N N N N N N N N Z Z m C               '               ",
"                                    N : : : : : : : : : : : : : ; { m S N N N N N N N N N N N N m V                               ",
"                                    N : : : : : : : : : : : : : ; { { S N N N N N N N N N N N N m {                               ",
"                                t.S N : : : : : : : : : : : : : ; { { 0.S S S S S S S S S S S S S S                               ",
"                                w.0.N > > > > > > > > > > > > > ; { { w.w.w.w.w.w.w.w.w.w.w.w.w.w.w.S                             ",
"                              u.w.S N N N N N N N N N N N N N m : : G w.0.0.0.0.0.0.0.0.0.0.0.0.0.0.N /                           ",
"                                0.m m m m m m m m m m m m m m m : , L 0.S S S S S S S S S S S S S S m P                           ",
"                              | S m > > > > > > > > > > > > > > : : , S N N N N N N N N N N N N N N : P                           ",
"                            y.0.N : : : : : : : : : : : : : : : : ; { N m m m m m m m m m m m m m m :                             ",
"                            r.S m ; ; ; ; ; ; ; ; ; ; ; ; ; ; ; ; ; { m : : : : : : : : : : : : : : |                             ",
"                            e.S S S m ; ; ; ; ; ; ; ; ; ; ; ; : : ; { { { : m m m m m m m m m m :                                 ",
"                            q.S S S m : ; ; ; ; ; ; ; ; ; ; ; : : ; { { { S N N N N N N N N N N :                                 ",
"                            0.S S S N m : : : : : : : : : : : : : ; { { { S N N N N N N N N N N :                                 ",
"                            0.S S S S N m ; ; ; ; ; ; ; : : : : : ; { { { S N N N N N N N N N N :                                 ",
"                            0.S S S S S m { { { { { { { : : : : : ; { { { S N N N N N N N N N N :                                 ",
"                            0.S S S S S m w q - - - - - : : : : : ; S S S S N N N N N N N N N N : m m m M p c Y Q [               ",
"              ~ T x l w q - S : : : : : : = = = = = = = ; ; ; ; ; ; S S S S S S S S S S S S S S S S S S m = = = = = - w e T       ",
"      ` b e e w q - - - - - = = = = = = = = = = = = = = = = = = = = S S S S S S m m m m m m S S S S S S m = = = = = = - - w e !   ",
"                [ _ _ Q Q K H c k i q - - - - - - - - - - - - - - - 0.S S S S S m m m m m m 0.S S S S S m q q q q q q w w x ~     ",
"                                                                } { S m m m m m { { { { { { S m m m m m : }                       "
};
