/* XPM */
static char *_[] = {
/* columns rows colors chars-per-pixel */
"65 65 142 2 ",
"   c None",
".  c black",
"X  c #080000",
"o  c #100000",
"O  c #180000",
"+  c #190B0B",
"@  c #181212",
"#  c #280000",
"$  c #300000",
"%  c #340D0D",
"&  c #231A1A",
"*  c #3C1313",
"=  c #282008",
"-  c #382810",
";  c #202020",
":  c #2E2323",
">  c #282828",
",  c gray19",
"<  c gray22",
"1  c #400000",
"2  c #480000",
"3  c #4C0A0A",
"4  c #500000",
"5  c #4B1616",
"6  c #501414",
"7  c #541B1B",
"8  c #600000",
"9  c #680000",
"0  c #640F0F",
"q  c #700000",
"w  c #403018",
"e  c #483819",
"r  c #503818",
"t  c #4D2F2F",
"y  c #562C2C",
"u  c #5C2E2E",
"i  c #433A27",
"p  c #4A3232",
"a  c #633434",
"s  c #623C3C",
"d  c #683F3F",
"f  c #484800",
"g  c #585800",
"h  c #686800",
"j  c #707000",
"k  c #4C412F",
"l  c #574226",
"z  c #584020",
"x  c #594A34",
"c  c #524738",
"v  c #684820",
"b  c #6B4E2B",
"n  c #704828",
"m  c #004040",
"M  c #1A4D4D",
"N  c #005858",
"B  c #155E5E",
"V  c #2A5555",
"C  c #365B5B",
"Z  c #006868",
"A  c #1B6D6D",
"S  c #007070",
"D  c #007878",
"F  c #1C7373",
"G  c #3B7777",
"H  c #484848",
"J  c #594C45",
"K  c #5D554A",
"L  c #535353",
"P  c #5C5B5B",
"I  c #644343",
"U  c #644B4B",
"Y  c #684949",
"T  c #754646",
"R  c #615947",
"E  c #725E46",
"W  c #685754",
"Q  c #6D5C5C",
"!  c #775050",
"~  c #785959",
"^  c #6B6357",
"/  c #766857",
"(  c #786B5D",
")  c #4C6F6F",
"_  c #577777",
"`  c gray38",
"'  c #6E6666",
"]  c #6D6C6C",
"[  c #746767",
"{  c #726D65",
"}  c #786D60",
"|  c #796C6C",
" . c #787268",
".. c #63747D",
"X. c #69777E",
"o. c #727171",
"O. c #800000",
"+. c #880000",
"@. c #980000",
"#. c #A00000",
"$. c #B00000",
"%. c #B80000",
"&. c #C80000",
"*. c #D00000",
"=. c #E00000",
"-. c #E80000",
";. c #F80000",
":. c #805028",
">. c #885830",
",. c #986038",
"<. c #A06038",
"1. c #904040",
"2. c #A86840",
"3. c #B07040",
"4. c #B87848",
"5. c #C87848",
"6. c #808000",
"7. c #909000",
"8. c #D08050",
"9. c #D88850",
"0. c #E88858",
"q. c #F09058",
"w. c #F89860",
"e. c #F8A070",
"r. c #008080",
"t. c #0F8181",
"y. c #059797",
"u. c #009898",
"i. c #288080",
"p. c #00B0B0",
"a. c #478080",
"s. c #668080",
"d. c gray58",
"f. c #9A9A9A",
"g. c #AEAEAE",
"h. c #F8B080",
"j. c gray78",
"k. c #CACACA",
"l. c #D7D7D7",
"z. c #DADADA",
"x. c #E6E6E6",
"c. c gray91",
/* pixels */
"                                                                                                                                  ",
"                                                                                                                                  ",
"                                                                                                                                  ",
"                                                                                                                                  ",
"                                                                                                                                  ",
"                                                          f.g.k.l.x.x.x.z.j.d.                                                    ",
"                                                      j.  g.c.c.  H H < < < ; ..o.                                                ",
"                                                    l.f.L c.c.  > H H H H H < ; ..o.                                              ",
"                                            Q 6 2 2 c.X H c.c.n ; > > > H H n ; X < # 1 y |                                       ",
"                                          s O # # # c.. H c.c.n e ; ; ; > H 2.&.X . # # # 1 # [                                   ",
"                                        | O 1 . X X c.X H c.5.5.5.<.n ; n ; 2.*.X < X X X X 1 X                                   ",
"                                        s 1 . X ....c...< ;.h.e.8.8.8.8.n ; >.=...` ......X X # o.                                ",
"                                        2 # X ......c...>.;.n n 0.e.q.h.n n >.;...` ........# # ]                                 ",
"                                        2 # X ......;...3.;.o.@.> :.z > q o.4.;...` ........1 # ]                                 ",
"                                        6 # X ......-...>.-.3.2.2.0.4.2.2.3.4.-...L ........1 # o.                                ",
"                                        J # X ......-.....-.0.w.h.h.9.w.w.0.4.-.4 L ........1 #                                   ",
"                                          # X X ....=.....-.2.9.<.z z <.5.2.v -.+.L ......1 # X                   *               ",
"                                          p # X X ..=.....-.2.5.<.,.,.<.4.>.v =.%.L ....1 # # X                   1 X.            ",
"              | a a [       t Q             # # X X =.....-.,.3.r X X r 3.v v =.&.L ....# # X ..                4 2 # d           ",
"    |       % $ $ $ $ *   7 2         _ B N N N N N m > ..=.,.3.X o o X 3.v e *.> > m m N N m .               $ 4 q 1 $ U         ",
"      1 q q 8 H r.S < 2 2 2 $ > > > r.S S S S S S S S m > ` ,.2.:.# # :.2.v e > > m N Z S S S N . ; > > # # # $ q q 2 H > W       ",
"      u #.$.2 8 8 2 2 q 8 q > < < r.D D D D D D D D D S m > > >.2.2.2.2.>.> > > m N Z Z Z D D D Z . ; < # q 1 S q f 8 H 1 q |     ",
"        2 #.&.$.4 8 q &.q > > < r.D D D Z Z Z Z Z Z Z Z Z Z m > > > > > > > m N Z S S S Z Z Z Z Z D . $ < 1 9 9 q f 4 8 q 1 %     ",
"      L 2 q $.h &.&.g q 8 > > r.r.r.r.D D D Z Z Z Z Z Z Z Z Z Z > > > N Z Z Z Z Z Z Z Z Z Z Z Z Z Z D . ; S 9 f 8 f @.O.q 1 N     ",
"    Q 1 8 8 +.&.h 6.&.q +.2 $.&.&.r.r.r.D S N N N N N N N N N N > m m S N N N N N N N N Z Z D D D D &.2 8 O.O.O.@.g f @.O.8 # ]   ",
"    ~ 9 +.+.+.&.6.6.&.$.8 $.$.r.r.r.D S S S Z N N N N N N N N N > m m S N N N N N N N Z Z D D D &.$.$.$.$.@.f f g 7.g f @.@.2 W   ",
"      S ; 8 +.g &.&.h &.q ; r.r.D D S S S Z N m m m m m m m m m > , , N m m m m m N m N N N N Z D D S # 1 O.O.@.@.g f 8 9 2 # P   ",
"      L 2 8 &.q +.%.q #.#.S r.r.S S p.u.u.r.r.S Z N N N N m > m > , , N m > m N N Z S r.r.u.u.p.p.S S S ; 1 9 9 @.f @.@.9 O N L   ",
"        8 #.8 2 q %.2 q #.2 . S S S S N m m m m , > > > > > > m > , , N m > > > m m m m m m m $.Z S S S 1 O.9 9 8 @.8 9 9 1 #     ",
"        8 8 2 S 8 %.N 2 2 #.$.D D S S p.u.r.r.S Z N N N N m > m > , , N m > m N Z Z S S r.r.u.p.&.Z S S 1 O.O.1 8 @.8 O 1 O.O     ",
"      5 8 $ < < 8 #.; $ X 1 2 $.D D S S N m m m m > > > > > > m > , , N m > > m m m m m m m m N Z &.&.# O.1 1 > 2 9 2 > # O O     ",
"    ' ..4 $ $ $ q #.$ $ X ....1 $.r.D S S Z N m m m m m m m m m > , , N m m m m N m N N N N N Z Z &.$.1 1 # 4 $ # $.1 $ $ $ X s   ",
"        9 $ H H q #.4 $ X ..9 ..S $.r.D S Z N N m m m m m m m m > , , N m m m m m N m N N N N Z Z Z 1 q q 1 1 $ H 8 # H > 2 2 1.  ",
"        4 9 9 < 9 %.9 r.9 9 ......r.$.D S Z N N N m m m m m m m > , , N m m m m m m N m N N N Z Z Z ..1 q q q 8 r.2 # N 2 2 #.I   ",
"      ! r.9 #.9 q %.+.9 %.+...9 ..S D r.Z N N N m N m m m m m m > , , N m m m m m N m N N N N N Z m ..1 2 #.$.2 8 8 2 2 q #.q I   ",
"      L S ; +.&.%.g %.%.+.9 ........S S Z N N m N m m m m m m m > , , N m m m m m m N m N N N N m ......8 2 #.&.$.4 8 q &.q 2 L   ",
"      H q 9 +.%.*.j *.%.+.9 9 $ $ ..> > > > > > > > > > > > > > ; . . ; > > > > > > > > > > > > > ........2 q $.h &.&.g q 8 2 L   ",
"      8 %.$.%.g j 6.j g %.O.%.9 9 4 $ $ O . . . . . . . . . . . . . . . . . . . . . . . . . . . ......1 1 8 8 +.&.h 6.&.q +.2 I   ",
"      H q +.+.%.*.j *.%.+.9 9 T ..8 8 8 4 4 2 2 1 1 $ $ $ $ $ # # # # # $ $ $ $ $ 1 1 2 2 4 4 8 8 8 2 9 9 +.+.+.&.6.6.&.$.8 1 I   ",
"      L r.9 +.+.%.g %.+.%.+.      1 $ O O O o o o X X . . . . . . . . . . . . . X X o o o O O O $ I       N 8 +.g &.&.h &.q N L   ",
"        S 9 9 9 8 q 9 9 +.+.~     S N ; . . . . . . . . . . . . > > . . . . . . . . . . . . . .           3 8 &.q +.+.q #.#.>     ",
"        9 N N ; 2 #.9 N N 9       F N ; ; ; ; ; ; ; ; ; ; ; ; ; > > S N N N N N N N N N N Z Z Z Z _       0 #.8 2 2 2 2 q #.2     ",
"        W 9 > > 2 #.4 $ .         G N N N m m m m m m m m m m m m m S N N N N N N N N N Z Z Z Z Z A       8 8 2 < N N ; 2 2 #.U   ",
"          P + X $ q 4 . `         ) > > > > > > > > > > > > > > > ; m m m m m m m m m m m m m m m M     y ..3 & : ; & @ . . 1 Y   ",
"                  8 1             _ > > > > > > > > > > > > > > > ; m > > > > > > > > > > > > m m V   |                           ",
"                  2                 ; ; ; ; ; ; ; ; ; ; ; ; ; ; ; ; m S N N N N N N N N N N Z Z m C                               ",
"                  y                 N > > > > > > > > > > > > > ; ..m S N N N N N N N N N N Z Z m V                               ",
"                                    N > > > > > > > > > > > > > ; ....S N N N N N N N N N N N N m ..                              ",
"                                s.S N > > > > > > > > > > > > > ; ....r.S S S S S S S S S S S S S S                               ",
"                                y.r.N , , , , , , , , , , , , , ; ....u.u.u.u.u.u.u.u.u.u.u.u.u.u.u.S                             ",
"                              d.u.S N N N N N N N N N N N N N m > > H u.r.r.r.r.r.r.r.r.r.r.r.r.r.r.N `                           ",
"                                r.m m m m m m m m m m m m m m m > < L r.S S S S S S S S S S S S S S m P                           ",
"                              o.S m , , , , , , , , , , , , , , > > < S N N N N N N N N N N N N N N > P                           ",
"                            s.r.N > > > > > > > > > > > > > > > > ; ..N m m m m m m m m m m m m m m >                             ",
"                            a.S m ; ; ; ; ; ; ; ; ; ; ; ; ; ; ; ; ; ..m > > > > > > > > > > > > > > o.                            ",
"                            i.S S S m ; ; ; ; ; ; ; ; ; ; ; ; > > ; ......> m m m m m m m m m m >                                 ",
"                            t.S S S m > ; ; ; ; ; ; ; ; ; ; ; > > ; ......S N N N N N N N N N N >                                 ",
"                            r.S S S N m > > > > > > > > > > > > > ; ......S N N N N N N N N N N >                                 ",
"                            r.S S S S N m ; ; ; ; ; ; ; > > > > > ; ......S N N N N N N N N N N >                                 ",
"                            r.S S S S S m ..............> > > > > ; ......S N N N N N N N N N N >                                 ",
"                            r.S S S S S m e w - - - - - > > > > > ; S S S S N N N N N N N N N N > m m m M i c R ^  .              ",
"              ( E x l e w - S > > > > > > = = = = = = = ; ; ; ; ; ; S S S S S S S S S S S S S S S S S S m = = = = = - e r E       ",
"      } b r r e w - - - - - = = = = = = = = = = = = = = = = = = = = S S S S S S m m m m m m S S S S S S m = = = = = = - - e r /   ",
"                 .{ { ^ ^ K J c k i w - - - - - - - - - - - - - - - r.S S S S S m m m m m m r.S S S S S m w w w w w w e e x (     ",
"                                                                X...S m m m m m ............S m m m m m > X.                      "
};
