/* XPM */
static char *out[] = {
/* columns rows colors chars-per-pixel */
"20 20 9 1 ",
"  c None",
". c #000005",
"X c #000009",
"o c #010009",
"O c #01000A",
"+ c #01000E",
"@ c #010010",
"# c #010011",
"$ c #010012",
/* pixels */
"                    ",
"                    ",
"                    ",
"                    ",
"    ooXo    oooo    ",
"   +    #  #    #   ",
"  .      @@      o  ",
"  .              o  ",
"  .              o  ",
"  .              o  ",
"   O            #   ",
"    O          #    ",
"     O        #     ",
"      O      #      ",
"       O    #       ",
"        O  $        ",
"         .o         ",
"                    ",
"                    ",
"                    "
};
