/* XPM */
static char *out[] = {
/* columns rows colors chars-per-pixel */
"20 20 32 1 ",
"  c None",
". c #000005",
"X c #000009",
"o c #010009",
"O c #01000A",
"+ c #01000E",
"@ c #010010",
"# c #010011",
"$ c #010012",
"% c #00069C",
"& c #0004A1",
"* c #0005A1",
"= c #0006A0",
"- c #0006A3",
"; c #0A00E8",
": c #0C00EA",
"> c #0C00F2",
", c #0C00F4",
"< c #0C00F7",
"1 c #0C00FA",
"2 c #0D00FA",
"3 c #0D00FB",
"4 c #0E00FA",
"5 c #0E00FB",
"6 c #0D00FC",
"7 c #0D00FD",
"8 c #0C00FE",
"9 c #0D00FE",
"0 c #1105FF",
"q c #1408FF",
"w c #1F12FF",
"e c #DBD9FF",
/* pixels */
"                    ",
"                    ",
"                    ",
"                    ",
"    ooXo    oooo    ",
"   +    #  #    #   ",
"  .      @@      o  ",
"  .*0ew46>>65557,o  ",
"  .-3q1557755557,o  ",
"  .%<25555555558:o  ",
"   O=<655555558:#   ",
"    O=<6555558:#    ",
"     O=<65558:#     ",
"      O=<658:#      ",
"       O=<9:#       ",
"        O&;$        ",
"         .o         ",
"                    ",
"                    ",
"                    "
};
