/* XPM */
static char *_[] = {
/* columns rows colors chars-per-pixel */
"64 64 20 1 ",
"  c None",
". c #181818",
"X c gray22",
"o c #585858",
"O c gray40",
"+ c gray43",
"@ c #727272",
"# c gray57",
"$ c #9F9A95",
"% c #A7A7A7",
"& c gray72",
"* c #C1C1C1",
"= c gray79",
"- c #D5D5D5",
"; c gray85",
": c #E8D8C8",
"> c #E2E2E2",
", c gray92",
"< c gray94",
"1 c #F8F8F8",
/* pixels */
"                                                                ",
"                                                                ",
"                                                                ",
"                                                                ",
"                                                                ",
"                                                                ",
"                                                                ",
"                                                                ",
"                                                                ",
"                                                                ",
"                                                                ",
"                                                                ",
"                                                                ",
"                                                                ",
"                                                                ",
"                                                                ",
"                                                                ",
"                                                                ",
"                                                                ",
"                                                                ",
"                                                                ",
"                                                                ",
"                                                                ",
"                                                                ",
"                                                                ",
"                                                                ",
"                                                                ",
"                                                                ",
"                                                                ",
"                                                                ",
"                                                                ",
"                                                                ",
"                                                                ",
"                                                                ",
"                                                                ",
"                                                                ",
"                                                                ",
"                                                                ",
"                                                                ",
"                                                                ",
"                                                                ",
"                                                                ",
"                                                                ",
"                                                                ",
"                                                                ",
"                                                                ",
"                               -                                ",
"                              $.<                               ",
"                              *&.1@                             ",
"                              ;&&.1+                            ",
"                              ,&&..<+                           ",
"                              <&&...1O                          ",
"                              1&&&...1O                         ",
"                              <&&:&...:O                        ",
"                              <&&&:&@@.:O                       ",
"                              >&&&::&@@.:O                      ",
"                              =&&&:<:&@o@&O                     ",
"                              &&&:111:&@o@&O                    ",
"                              %&&&:11&...o.&O                   ",
"                              #&&& o1:..ooo.&O                  ",
"                               1&&&X.1XooXXo.&O                 ",
"                               =&&..X.&XX..Xo.&O                ",
"                                <&...X.@X...Xo..O               ",
"                                 #.oo........Xo..O              "
};
