/* XPM */
static char *_[] = {
/* columns rows colors chars-per-pixel */
"64 64 33 1 ",
"  c None",
". c #181818",
"X c gray22",
"o c #494949",
"O c #585858",
"+ c #606060",
"@ c gray42",
"# c #7F6D61",
"$ c #805030",
"% c #805D44",
"& c #BF7048",
"* c #C07048",
"= c #98877C",
"- c #B39078",
"; c #E8A070",
": c gray56",
"> c gray57",
", c gray61",
"< c gray64",
"1 c gray68",
"2 c #B7B7B7",
"3 c gray72",
"4 c #E8B898",
"5 c #D0C4B7",
"6 c gray80",
"7 c #D5D5D5",
"8 c gray86",
"9 c #E5D6C7",
"0 c #E8D8C8",
"q c gray88",
"w c gray91",
"e c #F4F4F4",
"r c #F8F8F8",
/* pixels */
"                                                                ",
"                                                                ",
"                                                                ",
"                                                                ",
"                                                                ",
"                                                                ",
"                                                                ",
"                                                                ",
"                                                                ",
"                                                                ",
"                                                                ",
"                                                                ",
"                                                                ",
"                                                                ",
"                                                                ",
"                                                                ",
"                                                                ",
"                                                                ",
"                                                                ",
"                                                                ",
"                                                                ",
"                                                                ",
"                                                                ",
"                                                                ",
"                                                                ",
"                                                                ",
"                                                                ",
"                                                                ",
"                                                                ",
"                                                                ",
"                                                                ",
"                                                                ",
"                                                                ",
"                                                                ",
"                                                                ",
"                               12                               ",
"                              :r0O                              ",
"                              7r0.O                             ",
"                              e003.O                            ",
"                              r3003.X+                          ",
"                              e22033.XO                         ",
"                            qrre39233.XO                        ",
"                           OOOOOO..3333OO                       ",
"                           OXXXXXXOOOO$***&#                    ",
"                           OXXXX40000rrrr44;-                   ",
"                           OXXXO*;;440000rrr4=                  ",
"                              O*$$*;44000000r9                  ",
"                             O*$..$*;44400000r5                 ",
"                             O$...$*;;44444400r                 ",
"                              X...X$*;;;4044440r                ",
"                              o..XXX$**;;4044440r               ",
"                               XXX.XXX$**;;444440e              ",
"                                X..XXXX$$*;;444440w             ",
"                                @.O..O.X$$*;;4444408            ",
"                                  X.O$.X$$$***3rrrrr6           ",
"                                    %&*$$$$$.333333333          ",
"                                         $...2233333331         ",
"                                          OO.2333333333,        ",
"                                         XOO..333333232e        ",
"                                         XXO..2333332223e       ",
"                                         .XO0..333..OOOOO1      ",
"                                         .XOO.....OO......<     ",
"                                         ..XOO.OOO.33..23..>    ",
"                                         ...XXO.rr2O.21.+@.:    "
};
