/* XPM */
static char *_9b895b7ccde44cd9810329572cc8bb6PbIIwTxp22dvxavu_65[] = {
/* columns rows colors chars-per-pixel */
"68 59 16 1 ",
"  c None",
". c #101010",
"X c #3A3131",
"o c #524A4A",
"O c #EF1900",
"+ c #5A8463",
"@ c #FF8C4A",
"# c #2984AD",
"$ c #52CEF7",
"% c gray55",
"& c #8CB5A5",
"* c gray71",
"= c #B5D6BD",
"- c gray84",
"; c #D6F7DE",
": c white",
/* pixels */
"                                                                    ",
"                                                                    ",
"                                                                    ",
"                                                                    ",
"                                o               XX                  ",
"                              oOO              X-:X%                ",
"                             ooOOo             X%*%-%               ",
"                             O@OOX.             Xo%**%              ",
"                          o..O@@OXX.     ++++++ .ooo%.              ",
"                         o##.X@%XXX..  ++=;;;&&.%%X..               ",
"                       o$###.XXX%XXXX++=&+++&;;&..                  ",
"                       o###X. .%%XX+=&&-:::-++;=&&+                 ",
"                       XX$oXX...%XX+;+-:::::-&;=&&+                 ",
"                         $oXXX  XX+=;+:::::::+;;&&&+                ",
"                        oo%XXX.X%**=;+::.::::+;;&&&+                ",
"                          o%XXX%-.:*;+:::::::+;;=&&&+               ",
"                           %%XXo.o.%;&-:::::-&;;;&&&+               ",
"                           X%XXX*.*o;;&-:::-&;;;;&&&.o              ",
"                            .XXX...&;;;&+++&;;;;;&&XX%oo            ",
"                            %*XX  .&=;;;;;;;;;;;=&.oooo%%ooo        ",
"                          &&      .&=;;;;;%**;;&&&&XXXX%%%@@o       ",
"                        &&==&++++ .&&;;;;%-.:*=&&.XXXXXXX@O@        ",
"                       &:;;;==&&&++.&&===o.o.%&&&&XXXo.XXOOX        ",
"                oXX   &:::;;;;%**&&+.&&&&X*.*o&&=.XXoX ..OOO        ",
"                o%%XX&:::::;;%-.:*&&+&&&&&...====..Xo%   . .        ",
"               oo%oXX&;:::;;;o.o.%&&&..&&&&&====. .XXoooo o         ",
"              o%%XXX&=;;:;;;;X*.*o&&&+ ......&..   XXX%%%$oo        ",
"             o%%XXX&;;;;&+++;;...&&&&+     &&&&&&+++.XXoX$$$o       ",
"            oo#XXXX&;;&-:::-;;;=&&&&&&.   &=;=;;;=&&+.XXX##X        ",
"           o$$#XXX.+;&-:::::+;;;&&&&&.  &=;;;;;:;;;=&&.XXX##X       ",
"           o$$##X.o+;+::::::-&;;=&&&&. &=%**;;:::;;=&& ..X.         ",
"           o$$#X.o%+;+::.::::+;;;&&&&. &%-.:*:::::;;&&+   .         ",
"           o$$$o.o%+=+:::::::+;;;&&&&.&;o.o.%;:::;;;=&&+            ",
"            o$$  %%%++-::::::+;o;oX&&.&;X*.*o=;:;;;;;&&+            ",
"             ..oo@%o+&+-::::o+o%%%X&&.&;;...===&+++&;&&&+           ",
"               o@@OXX+&+++o.$o%o%XoX. +;;;====&-:::-+&&&+           ",
"              @@OOXX.+&&&&$$##XXXXX.. +;;;;;=&-:::::-&&&+    o      ",
"             oX@@OXX. ++&o$#XXXXXXX  ++;;;;;;+:::::::+&&+  .o%o     ",
"              X@@oX.    +$$##XXXoX.  +=;;;;;+:::::::++&&+ .XXoo     ",
"              X@@ .      . #..X%XX    .=.;;;+::::.::+&&+ .XXX%o     ",
"                X.        o  %%%X.   .XX..;;;-:::::-+&&+.X.XX#%o    ",
"                         X@o%%%XX.  o%XXXX=;;+-:::-+&&+ .Xo.X#$o    ",
"                        X@@@OoXX.   %XXXXXX.;;+++++&&&+ Xoo.##$#    ",
"                         XOOXXX.   XoXXXXXX.&&&&&&&&++ .X%. X$$o    ",
"                        X@@OOX..   X%XX.oXXX&&&&&&+..  .X%% .$$o    ",
"                        ....X.      oXX .%XX.......o*  .X%%o...     ",
"                        .  .       %XX  %%XX      .%ooX.Xo%%  .     ",
"                                  X%XX o%XX.      .*%*..XoO%X       ",
"                                   @OO. %XX       X*...XXO@OX       ",
"                                  XXOO.o$##.       X.%oXOO@X        ",
"                                   @@O. $##.         o .X@@X        ",
"                                   X@@.X$##.           ..@@         ",
"                                   oXX  X$$.             @.         ",
"                                        oXX              .          ",
"                                          X                         ",
"                                                                    ",
"                                                                    ",
"                                                                    ",
"                                                                    "
};
