/* XPM */
static char *_9b895b7ccde44cd9810329572cc8bb6PbIIwTxp22dvxavu_10[] = {
/* columns rows colors chars-per-pixel */
"68 59 16 1 ",
"  c None",
". c #101010",
"X c #3A3131",
"o c #524A4A",
"O c #EF1900",
"+ c #5A8463",
"@ c #FF8C4A",
"# c #2984AD",
"$ c #52CEF7",
"% c gray55",
"& c #8CB5A5",
"* c gray71",
"= c #B5D6BD",
"- c gray84",
"; c #D6F7DE",
": c white",
/* pixels */
"                                                                    ",
"                                                                    ",
"                                                                    ",
"                                 o.                XX               ",
"                              o@oOO              X-:X               ",
"                              oOOOOo.            X%*%%              ",
"                            . X@@OOX.             Xo%-%             ",
"                           o#. X@@OXX.     +++    .oo**%            ",
"                        ooo###. @%XXXX.  ++=;;+++.%%oo%.            ",
"                        #$$##X  X%XXXXX +=&++;;&&&..X..             ",
"                        X#$##X...%%XX++=&-:::&;;==&&                ",
"                         X$oXXX...%XX+=&-::::-+;;=&&                ",
"                          o%oXXX  .%+=;+::::::-&;;&&+               ",
"                          oo%XXX.X%**=;+::.::::+;;&&&+              ",
"                           ooXXXX%-.:*;+:::::::+;;=&&+              ",
"                             %%XXo.o.%;&-::::::+;;;&&&+             ",
"                            X.XXX*.*o;;;&-::::-&;;;&&&+             ",
"                              %XX...&;;;&+++&&;;;;;&&&.             ",
"                               *XXX.&=;;;;;;;;;;;=&X&.o oo          ",
"                            &&&     .&;;;;;;%;;;;&&oXo%o%% o  o     ",
"                          &&===++++ .&=;;;;%-**;=&.oo%oo%o%%@o@o    ",
"                         &:;;;;=&&&++.&&===o-.:*&.XoXXXXXX%X@@@oo   ",
"                  oXXX&:::::;;;;%**&&.&&&&&X.o.%&..XXXXXXXXXOOOX    ",
"                 oo%%X&;::::;;%-.:*&&.&&&&&&*.*o==XXXXX...XXOOOX    ",
"                oo%%o&=;:::;;;o.o.%&&+..&&&&..==.XXXXoo   .XXOO.    ",
"              ooo%oXX&;;;:;;;;X*.*o&&&+ ....&==...Xooo%ooo   .      ",
"              $$%%XXX&;;;&+++&;...&&&&+     ..&&&.XXX%%%%%ooo       ",
"              $$$#XXX+;;&-:::-;;;=&&&&&.   &&&=;;..XXoXXoX$o$$o     ",
"            o$$$##XX.+;&-:::::+;;;&&&&&.  &==;;;;:;XXXXXXXX$#$      ",
"            o$$##..o+;+:::::::-&;;=&&&&. &=%;;;;:::..XXXXX###X      ",
"            oo$$X o%+=+::.::::+;;;&&&&.  &%-**;::::;;=.&..X###X     ",
"             o..o.o%%++:::::ooX;X;&&&&.&;o.o:*;:::;;;;&&&+.X..      ",
"                  %%o+&-::::%%%oX.&&&&.&;X*..%=;:;;;;=&&+  .        ",
"               oooOXXX++-:oo%XXXXX&&&&.&;;..*o==&+;;;;&&&           ",
"               o@@OOXX.&++o%oXXXXXX.&. +;;;..==&-:++&;&&&+          ",
"              X@@@OOXX +&&%%XXXXXXX.&. +;;;===&-::::-+&&.+o oo o    ",
"              X@@OX.. .oo#XXXXXXooXX.  +;;;;;=+::::::-&&oo%%o%o#    ",
"              X@@o.   ..$##XXXXo%XX.  +=;;;;;;+:::::::+.X%o%%$$$o   ",
"               @@      $$###..X%%XXX   +=;;;;+::::::::+&XXXXo##$$o  ",
"                X.    o$$$$#  %%%XX.   ..X.;;+-:::.::+.X.XXX##$$o   ",
"                        o$$.o X%oXX.  .oXXX..;+-::::-+..X..XXX#$XX  ",
"                        X$. @X%XXXX. o%XXXXX.;;+++:-+&&.XXoo....$.  ",
"                            o@@OXX. XoXXXXXXXX.&&&++&&+.Xo%.    .   ",
"                          X@@OOOOX XXoXXXXoXXX.&&&&&&+  .o%%%%o     ",
"                           XXOOO. X%XXX.oooXXX....&+..  .XXo%%%XXXX ",
"                            X@@.  X%oXX. .%XXX.  ..o*ooX.XXXo%o%@OOX",
"                            X@@   X%oXX  X%XX.    .%o**X .XXXXOO@@XX",
"                              .   @%XX.  ooXXX.    .*%.X ..XXXOO@@. ",
"                                  X@OOO. o%XX.     X*.%o  . ...OO@@.",
"                                  X@OO. o$#XX.      X.o        X.@. ",
"                                  XOOOO. o###.                 . .. ",
"                                 XX@O. X$####.                      ",
"                                 o @@  XX$##.                       ",
"                                    X   oX$$.                       ",
"                                          XX                        ",
"                                          X                         ",
"                                                                    ",
"                                                                    ",
"                                                                    "
};
