/* XPM */
static char *_9b895b7ccde44cd9810329572cc8bb6PbIIwTxp22dvxavu_100[] = {
/* columns rows colors chars-per-pixel */
"68 59 16 1 ",
"  c None",
". c #101010",
"X c #3A3131",
"o c #524A4A",
"O c #EF1900",
"+ c #5A8463",
"@ c #FF8C4A",
"# c #2984AD",
"$ c #52CEF7",
"% c gray55",
"& c #8CB5A5",
"* c gray71",
"= c #B5D6BD",
"- c gray84",
"; c #D6F7DE",
": c white",
/* pixels */
"                                                                    ",
"                                                                    ",
"                                                                    ",
"                                                                    ",
"                                                                    ",
"                                            XX                      ",
"                            o              X-:X%                    ",
"                          oOO              X%*%-%                   ",
"                         ooOOo              Xo%**%                  ",
"                         O@OOX.      +      .ooo%.                  ",
"                         O@@OXX.   ++=+++++.%%X..                   ",
"                      o..X@%XXX.. +=&+;;;&&&..                      ",
"                     o##. XX%XXXX+=&-:++&;;=&&+                     ",
"                    o$###. .%%XX+=&-::::-+;;=&&+                    ",
"                    o###X....%XX+;+::::::-&;;&&&+                   ",
"                    XX$oXXX  XX+=;+::.::::+;;&&&+                   ",
"                      $oXXX.X%**=;+:::::::+;;=&&&+                  ",
"                     oo%XXXX%-.:*;&-::::::+;;;&&&+                  ",
"                       o%XXXo.o.%;;&-::::-&;;;&&&.o o               ",
"                       %%XXX*.*oo;;;&:::-&;;;;&&XX%o%%oo            ",
"                       X.XXX...&;;;;;++&;;;;=&&.oooo%%%@o           ",
"                         %*XX .&=;;;;;;;;;;;&&&XXXXXXX@Oo           ",
"                               .&=;;;;;%**;=&&.XXXXXXXOO@           ",
"                       &&&++++ .&&&==;%-.:*&&&&XXXo...OOX           ",
"                     &&====&&&++.&&&&=o.o.%&&=.XXoX   .OO           ",
"                    &:;;;;;%**&&+.&&&&X*.*o===..Xo%ooo  .           ",
"               oX &&:::;;;%-.:*&&+..&&&...===. .XXo%%%$o            ",
"              o%%X&:::::;;o.o.%&&&+ .&&&&==..   XXXXoX$oo           ",
"              o%o&=;:::;;;X*.*o&&&+  .....&&&&+++.XXXX#$$o          ",
"             o%oX&=;;:;;;;;...&&&&&.    &&=;;;=&&+..XXX#X           ",
"            o%%XX&;;;&+++&;;;=&&&&&.   &=;;;;:;;=&&+ ..##X          ",
"           o$$XXX+;;&-:::-+;;;&&&&&.  &=;;;;:::;;=&&+  X.           ",
"           $$##X.+;&-:::::-&;;=&&&&. &=%**;:::::;;&&&+  .           ",
"           o$##..+;+:::::::+;;;&&&&. &%-.:*;:::;;;=&&+              ",
"           o$$X o+;+::.::::+;;;&&&&.&;o.o.%=;:;;;;;&&&+             ",
"           o$$o %%=+:::::::+;o;oX&&.&;X*.*o==&+++&;&&&+             ",
"           ..   %o++-:::::o+o%%%X&. &;;...==&-:::-+&&&+             ",
"             ooOXX&+-:::.$o%%o%XoX. +;;;===&-:::::-&&&+    oo       ",
"             o@OXX+&+++o$##XXXXX.  +;;;;;==+:::::::+&&+  .o%o       ",
"            o@@OXXX+&&&$$#XXXXXXX  +;;;;;;+:::::::+&&+ ..XXo%o      ",
"            X@@OX.. ++&o$##XXXoX.   =;;;;;+::::.::+&&+ .XXX%%o      ",
"             X@o.     +$$#..X%XX   ..=.;;;+-:::::-+&+ .X.XX#$o      ",
"             X@        .   %%%X.  o%XX..;;;+-:::-+&&+ .Xo.X#$#      ",
"              X.        oo%%%XX.  %XXXXX=;;;+++++&&+ .Xoo.##$o      ",
"                       X@@OoXX.   oXXXXXX.&&&&&&&&+  .X%. X$$o      ",
"                      X@@OXXX.   X%XXXXXX.&&&&&&+..  .X%% .$.       ",
"                       XOOOX..    oXX.oXXX.......o*oX.X%%o...       ",
"                      X@@.X.     X%XX .%XX      .%o**.Xo%%          ",
"                       .. .       %XX  %XX       .*%..XoO%X         ",
"                       .         X@XX o%XX.      X*.%oXXO@OX        ",
"                                  XOO. %XX        X.o XOO@X         ",
"                                 X@OO.o$##.           .X@@X         ",
"                                  X@O. $##.           ..@@          ",
"                                  o@@.X$##.             @.          ",
"                                   XX  X$$.             .           ",
"                                       oXX                          ",
"                                         X                          ",
"                                                                    ",
"                                                                    "
};
