/* XPM */
static char *_9b895b7ccde44cd9810329572cc8bb6PbIIwTxp22dvxavu_129[] = {
/* columns rows colors chars-per-pixel */
"68 59 16 1 ",
"  c None",
". c #101010",
"X c #3A3131",
"o c #524A4A",
"O c #EF1900",
"+ c #5A8463",
"@ c #FF8C4A",
"# c #2984AD",
"$ c #52CEF7",
"% c gray55",
"& c #8CB5A5",
"* c gray71",
"= c #B5D6BD",
"- c gray84",
"; c #D6F7DE",
": c white",
/* pixels */
"                                                                    ",
"                                                                    ",
"                                 XX                                 ",
"                                X-:X%                               ",
"                                X%*%-%%                             ",
"                                 Xo%**.                             ",
"               .                 .ooo%                              ",
"             oOOo            +++.%%X..                              ",
"             oOOO.        +++;&&&..                                 ",
"            o@@OOX....  ++=;;&;;=&&+                                ",
"            oO@@oXXXXX.+=&+++-+;;=&&+++                             ",
"             XX@%XXXXXX+=&-::::-&;;&&&+                             ",
"            ..  XX%XXX+=&-::::::+;;&&&&+                            ",
"            ##.. .%%XX+;+:::::::+;;=&&&+                            ",
"           o##X....%%+=;+::.::::+;;;&&&.                            ",
"           o##XXX  .X*=;+::::::-&;;;&&&XXoooo                       ",
"          o$$oXXX..%*:*;&-::::-&;;;;&&oo%%%%%%o@o                   ",
"         o#$$%oXXX%-..%;;&-:::&;;;;=&.oXXooXo%%@@o                  ",
"          XXoo%%XXo.o*o;;;&+++;;;;;&&.XXXXXXXXXOOO@o                ",
"              oo%XX*..&;;;;;;;%**;;=&&.XXXXXXXXOOOX                 ",
"                X%X.. .&=;;;;;%-.:*&&.XXXoo...XOOOX                 ",
"                  %%*  .&=;;;;o.o.%&&.XXooX   .X..                  ",
"                     + .&&&===X*.*o==.XXX%%ooo                      ",
"               &&&+++&++.&&&&&&...===.XXXo%%%%$o$                   ",
"             &&====&&*&&+.&&&&&&&==...XXXXXo%X$$$o                  ",
"             :;;;;;%*:*&&+..&&....&&&&+&XXXXX###X                   ",
"            &::;;;%-..%&&&+ ..  &&=;;;=;=.XXX###X                   ",
"           &::::;;o.o.o&&&+    &=;;;;:;;;=&.XXX#.                   ",
"       oX &::::;;;X*.*&&&&&.  &==;;;;::::;;&&&+.                    ",
"      o%%X&;::;;;;;;..=&&&&&.  =%**;::::;;;=&&+                     ",
"       o%o&=;;&+++&;;;;&&&&&. &%-.:*;::;;;;;&&&+                    ",
"      o%oX&;;&-:::-+;;;=&&&&. &o.o.%=;:+++&;&&&+ .ooo               ",
"     o%%XX&;;-:::::-&;;;&&&&.&;X*.*o==&+::-+&&&+.X%%%oo             ",
"    o$$XXX+;&:::::::+;;;&&&&.&;;...==&-::::-&&&+XXXo%%%oo           ",
"    $$##X.+;+::.::::+;XX&&&&.&;;;===&-::::::+&&.X.XXo#$#o           ",
"    o$##..+;+::::::ooo%oX&&. +;;;;;=+:::::::+&&.XX.XX#$$o           ",
"    o$$X o+=+-::::o%%%XXX.&. +;;;;;;+::::.:::+&&.Xoo.##$$X          ",
"    o$$o %%+++-:oo%oXXXXXX.   +=;;;;;+::::::-+&+.Xoo.X#$$X          ",
"    o..  %o+&&++.$#XXXXXXX.   ++=;;;;+-::::-+&&+.X%. ..$$.          ",
"        ooOXX++o$##XXXXXXX.    +...;;;+-++++&&+ .X%%o  ..           ",
"        o@OXXXo$$###X.X%XX.     oXX..;;+&&&&&+  .Xo%%oX             ",
"       o@@OXX. o$$#...X%XX.    oXXXXX.&&&&&+..  .XXo%%%X            ",
"       X@@OX.  X$$.  %%XXX.   XoXXXXX.&&....o*oX..XXoO@OX           ",
"        X@o.    .. o%%%XX.   X%XXXXXXX..   .%o**X XXXO@@X           ",
"        X@        o@O%oXX.  X%oXX.ooXX.     .*%.X .XOO@@@X          ",
"         X.      @@OOXXX.   X%XX. .%XXX.     X*.%  ..XO@@.          ",
"                X@@OOXX.     X%XX  X%XXX.     X.o    ..@@.          ",
"                  X@@OO.     X%XX o%oXX.               ..           ",
"                  X@@..     X@OXO. %XXX.                            ",
"                   ..       X@OO. o$XX.                             ",
"                           X@OOO. o$##.                             ",
"                            @@OO  $###.                             ",
"                            o@@. X$$##.                             ",
"                              X  XX$$.                              ",
"                                   XX                               ",
"                                                                    ",
"                                                                    ",
"                                                                    ",
"                                                                    "
};
