/* XPM */
static char *_[] = {
/* columns rows colors chars-per-pixel */
"63 64 30 1 ",
"  c None",
". c #181818",
"X c #252525",
"o c gray22",
"O c gray27",
"+ c #585858",
"@ c gray37",
"# c gray39",
"$ c gray42",
"% c #63747D",
"& c #805030",
"* c #B27455",
"= c #9E7865",
"- c #C07048",
"; c #E8A070",
": c gray59",
"> c #9B9B9B",
", c #A0A0A0",
"< c #AFAFAF",
"1 c #B6B6B6",
"2 c gray72",
"3 c #E8B898",
"4 c #CEC3B7",
"5 c #C6C6C6",
"6 c gray81",
"7 c #D2D2D2",
"8 c #E8D8C8",
"9 c #ECECEC",
"0 c gray96",
"q c #F8F8F8",
/* pixels */
"                                                               ",
"                                                               ",
"                                                               ",
"                                                               ",
"                                                               ",
"                                                               ",
"                                                               ",
"                                                               ",
"                                                               ",
"                                                               ",
"                                                               ",
"                                                               ",
"                                                               ",
"                                                               ",
"                                                               ",
"                                                               ",
"                                                               ",
"                                                               ",
"                                                               ",
"                                                               ",
"                                                               ",
"                                                               ",
"                                                               ",
"                                                               ",
"                                                               ",
"                                                               ",
"                         7                                     ",
"                          q                                    ",
"                        <8 q                                   ",
"                        182 q#                                 ",
"                        1882 q#                                ",
"                        22822 q@                               ",
"                        222222 2@                              ",
"                       4qqqqqqqq00qq97,>  $                    ",
"                       @@@@@@@@@@@oooooooo@$                   ",
"                       @@@oooooo...o-33--ooO                   ",
"                       @ooooo.....-8883;38oo                   ",
"                       ooo*3;;...-80883;;3--                   ",
"                       oo*30888888q0833;;--3*                  ",
"                       @o**33888qqq8833;;-&&-                  ",
"                       X.@&-&-3888883333;-&&&=                 ",
"                         @o..&;338883333;;-&&-                 ",
"                          #oo&-;33333333;;;&&-                 ",
"                            $&&--;3333333;;-&-%                ",
"                              &&&&-;33333;;;--&                ",
"                              #o.&&&-;;;;qqqqqqq               ",
"                               ..@@&&--2222222220              ",
"                               #@@.&& 2  222222226             ",
"                                $@o&      11112222,            ",
"                                    @o@    11122222            ",
"                                    .o@@    11 @@@ 1           ",
"                                    .o@@    @@      ,          ",
"                                    .oo@@ @@ 21  2   :         ",
"                                    .ooooo 02@@21 @@@2         ",
"                                    ..oo..q o@11 @ooo@1        ",
"                                     ....@ o@21 oooooo@5       ",
"                                      ..o o@11+ooo@ 2q11:      ",
"                                      ..@o@q1 oo@  2q2 @<      ",
"                                      ..@@q2@oo@  22 @@o2      ",
"                                      .o@q2@oo@@ 12  @ooq<     ",
"                                      .@11@o.o@  1 @oooo q<    ",
"                                      .@11@o.o@       @@ 2q<   ",
"                                      .@ 1 @.oo@   21000qqqq>  ",
"                                      .@@ 1 @.oo@    <<,,>:,   "
};
