/* XPM */
static char *_[] = {
/* columns rows colors chars-per-pixel */
"65 65 91 1 ",
"  c None",
". c black",
"X c #202020",
"o c #282828",
"O c gray22",
"+ c #483818",
"@ c #584020",
"# c #000040",
"$ c #000048",
"% c #18184C",
"& c #000058",
"* c #121250",
"= c #2F2F57",
"- c #2E2E5C",
"; c #32325E",
": c #000060",
"> c #000070",
", c #000078",
"< c #1C1C73",
"1 c #1F1F7A",
"2 c #32326C",
"3 c #272775",
"4 c gray25",
"5 c #484848",
"6 c #505050",
"7 c gray36",
"8 c #54546A",
"9 c #55557B",
"0 c #5B5B7B",
"q c #606060",
"w c #7A7269",
"e c #67767D",
"r c #6B787E",
"t c gray44",
"y c #805028",
"u c #885830",
"i c #905830",
"p c #986038",
"a c #A06038",
"s c #806955",
"d c #806D5D",
"f c #9E7658",
"g c #B07040",
"h c #837367",
"j c #977861",
"k c #C87848",
"l c #A8A800",
"z c #C0C000",
"x c #F8F800",
"c c #D08050",
"v c #D88850",
"b c #E88858",
"n c #F09058",
"m c #F89860",
"M c #F8A070",
"N c #000088",
"B c #000098",
"V c #2E2E86",
"C c #323285",
"Z c #3E3E8C",
"A c #3A3A9A",
"S c #0000A0",
"D c #0606AE",
"F c #1717A8",
"G c #0000B0",
"H c #0000B8",
"J c #3131AC",
"K c #4E4E83",
"L c #47478B",
"P c #53538B",
"I c #585888",
"U c #474799",
"Y c #535391",
"T c #545498",
"R c #696981",
"E c #62628B",
"W c #696988",
"Q c #616193",
"! c #0000D0",
"~ c #0000E0",
"^ c #0F0FEA",
"/ c #1313E7",
"( c #0000F8",
") c gray66",
"_ c #F8B080",
"` c #F8B890",
"' c #F8B898",
"] c #F8C0A0",
"[ c #F8C8B0",
"{ c #C0C0C0",
"} c #F8D8C0",
/* pixels */
"                                                                 ",
"                                                                 ",
"                                                                 ",
"                                                                 ",
"                                                                 ",
"                                                                 ",
"                                                                 ",
"                                                                 ",
"                                                                 ",
"                                                                 ",
"                                                                 ",
"                                  IJT                            ",
"                                LSSS(X                           ",
"                              PSSSS(,.o                          ",
"                             9~SSS~,...t                         ",
"                             <>~~~,....7                         ",
"                             <>>>>.....                          ",
"                             fx>>>....zh                         ",
"                             sxkHknpHklw                         ",
"                             jm`]_cu'`c                          ",
"                             em`_MMMMMc                          ",
"                            =#m`n[}}`bc                          ",
"                          Z#o.m`nMMMnbyr                         ",
"                        IB,#oXXMMMkMbvo.                         ",
"                       ZHH:oXX{ggaaiiyo.*                        ",
"                      UHHH#XX#qO.yy....$$-                       ",
"                     WH(!G#XX#..>.#.)q.>>>9                      ",
"                     ^(!GB$..##N$#...>>>NN>                      ",
"                    WG!GB,$#..#>$&,NNNN$:>>V                     ",
"                    A((G>::#..#$$&,::$$$>NN>                     ",
"                    /!#qt6##...#$&,$,,,>NNSN0                    ",
"                    D(5qtt5#....#######NHSSNC                    ",
"                    F!56qqq6#....#####NHHSSNN                    ",
"                    ABc566tt6.....####NHHSSN,                    ",
"                    EGca56qtt6.....###NHHSNN>                    ",
"                     Gcaqq56qt6O......NHSNN>$                    ",
"                     YcaqqO556q6O...,,G>!N,N3                    ",
"                      dyyq5>556qt5>!!!!G>>>>9                    ",
"                         q6>#656qq6GGGG>G>$$                     ",
"                         VN>##c555@>>>>$$$$;                     ",
"                          BNNNccy@+$$$$#$$$                      ",
"                          BSBNyyy@+$$$$##..                      ",
"                          NBGB@@@++#######.                      ",
"                          NBHGSBNN&&.#####X                      ",
"                          ,BHHHGBB>&......4                      ",
"                          1BHHHHHB>&###...6                      ",
"                          2BHHHHHG,&#####.                       ",
"                           BHHHHHGN:#$####                       ",
"                          KH!HHHHBN:######                       ",
"                          I!NHHHH!G&&#####                       ",
"                          QNBBBBB>!N######                       ",
"                          RNBBBBBN########                       ",
"                           $NBBBB,#######X                       ",
"                           $>NNN,:.......O                       ",
"                           $$&&&&........                        ",
"                           ###......#....                        ",
"                           ####.....#....                        ",
"                           %###..........                        ",
"                           ;###.....###..                        ",
"                           6..#.....###.o                        ",
"                            ##..... 84oXt                        ",
"                            .##....                              ",
"                           *####...o                             ",
"                          q#####....q                            ",
"                         rO####.....Or                           "
};
