/* XPM */
static char *f4d76785db714751d62fec509a1ab13fvi4q8JpdBCQNILVD_55[] = {
/* columns rows colors chars-per-pixel */
"75 74 16 1 ",
"  c None",
". c black",
"X c #634221",
"o c #735A21",
"O c #103A42",
"+ c #315A7B",
"@ c gray45",
"# c #A57352",
"$ c #C59C5A",
"% c #528CAD",
"& c #73A5BD",
"* c #E6C5AD",
"= c #F7D6BD",
"- c #F7E6BD",
"; c #CECECE",
": c white",
/* pixels */
"                                                                           ",
"                                                                           ",
"                                                                           ",
"                                                                           ",
"                                                                           ",
"                                                                           ",
"                                                                           ",
"                                                                           ",
"                               ..               .                          ",
"                              O%+.            O%+.                         ",
"                              O%++.          O%%%+.                        ",
"                             O%%%++.        O%%%%+.                        ",
"                             O%%%+++.....  O%%%%%++.                       ",
"                             O%%++OO+&&%%..%%%%%+++.                       ",
"                            OO%+%+%&&&&&%%%%%%%%++++.                      ",
"                            .+%++%%&&&%%%%%%%%%++++++.                     ",
"                            .++-*%%%%%%%+%++++++++++++.   .   .            ",
"                           .++---+%%%%%+-+-*OO+++++++.    :. ...           ",
"                           .+*----+%%%+------*O+++++++.  ...O...           ",
"                           .+------++*---------O++++++.....%%O::.          ",
"                           .*-------------------+++++++.:%%%%%...          ",
"                     .    .+--------------------O++++++..%%%%+O.O.         ",
"                    ... ..+...------------------*O+++++.%%%%%++:...        ",
"                    .:..:.+--@..------.......----O+++++.%%%%%++...         ",
"                  ..OO%%%.+-------------@-------*O+++++.%%%%%++++..        ",
"                 ..:O%%%%.+----------------------O++++..%%%%++++++         ",
"                 .OO%%%%%..*-----------@---------O+++++%%%%%%++++..        ",
"                 .O:+%%%%%.+---@@-----@:*--------O+++..%%%%%++++++.        ",
"                 .+++%%%%%O.*--@:@-*...@.-------*O+++.+%%%%+++++++.        ",
"                 .++++%%%%.++---....*---*-------O++++.++++%++++++.         ",
"                 .+++%%%%%%.O------------------*O++++.++++++++++++.        ",
"                 +++++%%%%%%OO---------------O++++++.+++++++++++++         ",
"                 .+++++%%%%%OOOO------------O+++++++++++++++++++++         ",
"                 .+++++%%%%...--#=----=---#O++-++OO++++++++++++++.         ",
"                  ++++++%..-----=*********--------+++++++++++++++O         ",
"                  ++++++.--------=****=*=----------++++++++++++++.         ",
"                  .++++.----------------------------+++++++++++++O.        ",
"                  .++..------------------------------+O++++++++++O.        ",
"                   ..-----------------------------------O++++++++++..      ",
"                   .------------------------------------O++++++++++OO.     ",
"                   .-------------------------------------O++++++++O++..    ",
"                  .--------------------------------------O+++++++OO++O.    ",
"                  .--------------------------------------=O+++++OOOOOOO.   ",
"                 .----------------------------------------O++++OOOOOOOO.   ",
"                 .----------------------------------------O+OOOOOOOOOOO.   ",
"                 .-----------------------------------------OOOOOOOOOOOOO.  ",
"                .-----------------------------------------*OOOOOOOOOOOOO.  ",
"                .----------------------------------------***OOOOOOOOOOOO.  ",
"                .=---------------------------------------***OOOOOOOOOOOO.  ",
"                .=-----------------------------------===****OOOOOOOOOOOOO..",
"          ..  ..*=----------------------------------==******OOOOOOOOOOOOO..",
"         .::. ..**=--------------------------------==*********OOOOOOOOOOO..",
"      ....::..:.***=-----------------------------===*********.OOOOOOOOOOO..",
"      .::.::o.:;.***===-----------------------====*********.:.OOOOOOOOOOO..",
"       .:;oo-.:;;****====------------------======**********.:.OOOOO...OOO..",
"      .;.----.;;o.*****====------------=======************.:::OOO..;.OOOO..",
"       .-----oo.-.*******==================*************...;:;....:;.OOOO..",
"       .=====----*.**********==========****************.--XXX-*..::;.OOOO..",
"      ..==**==----*.*********************************..--------*.;;..O.....",
"      .******==----**********************************.----------=..*..:..  ",
"       .******=---=.*******************************.*-----======*=**.::..  ",
"       .*XXX***=-==********************************.----==**********.;:..  ",
"       .####****==**.******************************.---=************....   ",
"       .####********.OO***************************.----=***XXXXX******..   ",
"        ####X*******.OOO**************************.---=**X######******.    ",
"        .###X*******.OOOO**************************.-=**XX######******.    ",
"        .####X******.OOOOO*************************.-=**X#######X***.      ",
"         .##X*******.OOOOO*************************.****X#######X***.      ",
"          .#X*****..OOOO.....$****--*-*-*--*-******O****X######XX***.      ",
"           .******......     .....$$-*-*-**-*........****XXX#X****.        ",
"           ...**...               ...........        ..*****X****.         ",
"              .                                       ..******.*.          ",
"                                                        .....              ",
"                                                                           "
};
