/* XPM */
static char *f4d76785db714751d62fec509a1ab13fvi4q8JpdBCQNILVD_158[] = {
/* columns rows colors chars-per-pixel */
"75 74 16 1 ",
"  c None",
". c black",
"X c #634221",
"o c #735A21",
"O c #103A42",
"+ c #315A7B",
"@ c gray45",
"# c #A57352",
"$ c #C59C5A",
"% c #528CAD",
"& c #73A5BD",
"* c #E6C5AD",
"= c #F7D6BD",
"- c #F7E6BD",
"; c #CECECE",
": c white",
/* pixels */
"                                                                           ",
"                                                                           ",
"                                                                           ",
"                                                                           ",
"                                                                           ",
"                                                                           ",
"                                                                           ",
"                                              ...                          ",
"                              ..             O%++.                         ",
"                             O%+..          O%%%+.                         ",
"                             O%+++.        O%%%%++.                        ",
"                            O%%%+++...... O%%%%%++.                        ",
"                            O%%%+OO+&&%%%.%%%%%++++.                       ",
"                            O%%++%&&&&&%%%%%%%%+++++.                      ",
"                           O%+%%%%&&&%%%%%%%%%+++++++.                     ",
"                           .+%++%%%%%%%+%+++++++++++.                      ",
"                           .++-*+%%%%%+-+-*OO++++++++.                     ",
"                          .++----+%%%+------*O+++++++.                     ",
"                          .+*-----++*---------O+++++++.                    ",
"                          .+-------------------O++++++.                    ",
"                          .*-------------------*O+++++.           ..       ",
"                         .+---------------------O++++++           .: .:..  ",
"                         .+...--------.......---*O+++++.          .%....   ",
"                         .+--@..--------@--------O+++++.       ...%%%%%O ..",
"            .            .+----------------------O+++++.      .%%%%%%%%%.:.",
"            .:...        .+------------@---------O++++O.   ...%%%%%%%%%%O..",
"         .. %%.:.         .*----@-----@:*-------*O++++OO..++%%%%%%%%%%+O:..",
"         .:.%%%.%O        .+---@:@-*...@.-------O+++++++.+++%%%%%%%%%++... ",
"         .O%%%%%%%%O%OO ..O.*--@....*---*------*O++++++++++++%%%%%++++.:O. ",
"        ..OO%%%%%%%%%%%..+.+-------------------O++++++++++++++%+%++++++... ",
"         .:O%%%%%%%%%%%++++.O----------------O+++++++++++++++++++++++++... ",
"         .OO++%%%%%%%%++++++OO--------------O++++++++++++++++++++++++++.   ",
"         .O:+++%%%%%%++++++++OOO#=----=---#O++OOO+++++++++++++++++++++.    ",
"          ..+++++++%%++++++..---=*********-------OO+++++++++++++++++++.    ",
"           .+++++++++++++..------=****=*=----------O+++++++++++++++..      ",
"            .++++++++++..--------------------------*OO+++++++++++++.       ",
"            ..++++++++.-------------------------------O++++++++++...       ",
"               .+++++.---------------------------------O+++++++O.+O.       ",
"                .+++.-----------------------------------O+++++O+++++.      ",
"                 ...------------------------------------O+++++++++++O.     ",
"                   .-------------------------------------O+++++++++O+...   ",
"                 ..--------------------------------------O++++++++OO+O..   ",
"                 ..--------------------------------------=OO++++OOOOOOOO.  ",
"                .-----------------------------------------OO+++OOOOOOOOO.  ",
"                .-----------------------------------------OO+OOOOOOOOOOO.  ",
"                .-------------------------------------------OOOOOOOOOOOOO. ",
"               .------------------------------------------**OOOOOOOOOOOOO. ",
"               .-----------------------------------------****OOOOOOOOOOOO. ",
"               .=----------------------------------------****OOOOOOOOOOOO. ",
"               .=-------------------------------------==*****OOOOOOOOOOOOO.",
"              .*=-----------------------------------===******OOOOOOOOOOOOO.",
"              .**==--------------------------------===********OOOOOOOOOOOO.",
"           .  .****=-----------------------------===******.***OOOOOOOOOOOO.",
"      ... .:. .*****==------------------------====*******.:.**OOO..OOOOOOO.",
"      .::..:;..******====------------------======********.:.**OO.;.OOOOOOO.",
"      .::o.:;;.*******=====------------=======**********.:::**O.:;.OOOOOOO.",
"   ....::-.;;;o.*.*******==================*************.;:;...::;.OOOOOOO.",
"    .::;o---oo.--*.*********===========***************.*XXX-*.;;;;.OO..OOO.",
"     .:.----------*.********************************..-------*...*..:.OOOO.",
"     .;.-====-----=.*******************************.-------=--==**.::.OOO. ",
"      .-=****=---==*.******************************.-----==*==*****;:.OOO. ",
"      .==*****=-==**.*****************************.*----=**********...OOO. ",
"      .=*******=*****.****************************.----=*************.OO.  ",
"      .**XXX**********.***************************.---=***XXXXX******.OO.  ",
"        .X###X********.**************************.---=**X######X*****...   ",
"        ..####X*******.OO************************.---=**X######X***.O.     ",
"         .####X*******.OOO************************.-=**X#######X***..      ",
"         ..####X*****.O.....$*****-**-*-*--*-*****.-=**X#######X**..       ",
"           .###X*****..     ......$--*-*-**-*.......=***X#####X***.        ",
"            .##X***..             ...........       *****XX##X***..        ",
"             ..**..                                 .******XX***.          ",
"                .                                   ..********..           ",
"                                                      .......              ",
"                                                                           "
};
