/* XPM */
static char *f4d76785db714751d62fec509a1ab13fvi4q8JpdBCQNILVD_16[] = {
/* columns rows colors chars-per-pixel */
"75 74 16 1 ",
"  c None",
". c black",
"X c #634221",
"o c #735A21",
"O c #103A42",
"+ c #315A7B",
"@ c gray45",
"# c #A57352",
"$ c #C59C5A",
"% c #528CAD",
"& c #73A5BD",
"* c #E6C5AD",
"= c #F7D6BD",
"- c #F7E6BD",
"; c #CECECE",
": c white",
/* pixels */
"                                                                           ",
"                                                                           ",
"                                                                           ",
"                                                                           ",
"                                                                           ",
"                                                                           ",
"                                                                           ",
"                                                                           ",
"                                                                           ",
"                                ..                                         ",
"                               O%+..            ...                        ",
"                               O%+++          OO%++.                       ",
"                              O%%%++.        O%%%%+.                       ",
"                             O%%%++++....   O%%%%%++.                      ",
"                             O%%++%O+&&%%..%%%%%%%++.                      ",
"                             O%+%%%&&&&&%%%%%%%%++++.                      ",
"                             .+%++%%&&&%%%%%%%%%+++++        .             ",
"                            ..++-*+%%%%%%%%++++++++++.   .  ..             ",
"                            .++----%%%%%+++-*OO+++++++.  :. .:.            ",
"                           .+*-----%%%%+------O+++++++. .:.O..:.           ",
"                           .*------++*--------OO+++++++...%%%.:..          ",
"                          .+-------------------O++++++.::%%%%+OO..         ",
"                       .. .+.-------------------O++++++.%%%%%++:..         ",
"                     ...: .+-..-----------------*O+++++.%%%%%+.:..         ",
"                    ...O%.++--@..------.-.....---O+++++.%%%%%+++++.        ",
"                   ..:O%%.+-------------.@-------*O++++.%%%%%+++++         ",
"                   .OOO%%%.*----------------------O++++.%%%%%+++++.        ",
"                   .::+%%%.+----@------@---------O+++++.%%%%%++++++        ",
"                  ..+++%%%%.---@:@----@:*--------O+++++.%%%%%+++++.        ",
"                   .+++%%%%.*--@..-*...@.-------*O++++.%%%%%++++++.        ",
"                  .++++%%%%.------..*---*-------O+++++.+%++%+++++++.       ",
"                  .+++++%%%%O------------------*O++++O+++++++++++++.       ",
"                   ++++%%%%%OO----------------O++++++O.++++++++++++        ",
"                  .+++++%%%..OOO#=----------OO+++++OOO.++++++++++++        ",
"                  .+++++%..-----==----=---#O+++++--+OO++++++++++++O        ",
"                   +++++.--------*********---+-----*O++++++++++++++        ",
"                   ++++.---------=****=*=-----------++++++++++++++O        ",
"                   .+..------------------------------++++++++++++++        ",
"                   ..---------------------------------+++++++++++++..      ",
"                   .------------------------------------O++++++++++OO.     ",
"                   .-------------------------------------O++++++++O++..    ",
"                  .--------------------------------------O+++++++OO++O.    ",
"                  .--------------------------------------=O+++++OOOOOOO.   ",
"                 .----------------------------------------O++++OOOOOOOO.   ",
"                 .----------------------------------------O+OOOOOOOOOOO.   ",
"                 .-----------------------------------------OOOOOOOOOOOOO.  ",
"                .-----------------------------------------*OOOOOOOOOOOOO.  ",
"                .----------------------------------------***OOOOOOOOOOOO.  ",
"                .=---------------------------------------***OOOOOOOOOOOO.  ",
"           .    .=-----------------------------------===****OOOOOOOOOOOOO..",
"           .. ..*=----------------------------------==******OOOOOOOOOOOOO..",
"       .. .:. ...*=--------------------------------==*********OOOOOOOOOOO..",
"       .:..::..:.**=-----------------------------===**********.OOOOOOOOOO..",
"       .::;::o.:;***===-----------------------====**********.:.OOOOOOOOOO..",
"       .:.-o-.::;.***====------------------======***********.:.OOOOOOOOOO..",
"        ;.----;;o.*****====------------=======************.:::.OOOO...OOO..",
"       .--=---oo...******==================**************.*;:;...O.:;.OOO..",
"       .==*===----*.*********==========****************..--XXX.*.::;.OOOO..",
"       .=****=----***********************************.----------*;;;.OOOO..",
"       *******=----.********************************..----------...;..O..  ",
"       .*X****==---*.******************************.*------=======**.:::.  ",
"       .X#XX***=-==.*******************************.----=***********.;:..  ",
"       .####X***==**.******************************.---=*************.:.   ",
"       .####X*******.OO***************************.---==***XXXXX******..   ",
"        .###X*******.OOO***************************.-=***X#####X******.    ",
"        .###X*******.OOOO**************************.-=**XX#####X******.    ",
"         ###X*******.OOOOO*************************-=***X#######X***..     ",
"         .##X******.OOOO.....$****--*-*-*--*-******.****X#######X***.      ",
"         ...X******.....     .....$$-*-*-**-*........****#####XX****.      ",
"           *******.               ...........       ..***XXX#X****.        ",
"           ...*...                                    *****X******.        ",
"              .                                       ..*****.*.           ",
"                                                        ..... .            ",
"                                                                           "
};
