/* XPM */
static char *_77ebec35fc44466f96d1d3cfea6f225j7L0vfxL5Mq2VTvU_41[] = {
/* columns rows colors chars-per-pixel */
"58 68 14 1 ",
"  c None",
". c #101010",
"X c #5A3A29",
"o c #73524A",
"O c #8C3A21",
"+ c #D63119",
"@ c #AD7B5A",
"# c #BD7B7B",
"$ c #EF6342",
"% c #E6B563",
"& c #E6A59C",
"* c #FFE68C",
"= c #C5B5C5",
"- c white",
/* pixels */
"                                                          ",
"                                                          ",
"             ooooo   o                                    ",
"            o*****...*...                                 ",
"         ooo*********%**..                                ",
"       oo*******%$$$$$$$$$....                            ",
"      o******%$$$$$$$$$OOOO$$$.                           ",
"      ********$$$$$$$OO++++OO++.                          ",
"     O$******$$$$$$$O++++++++++O.                         ",
"    O$%*****$$$$$$..%%++++++++++..                        ",
"   O$$%****$$$$$..oo.%%%%%+++++++..                       ",
"   O$$%*%**$$$...o@@.+%%%%%%%++++++..                     ",
"    O$%*@**$$$...@@@@.+++++%%%++++++.                     ",
"    .$+%@%+$$.....@@@.o+++++%%%++++++.                    ",
"    .++%@%+O.-.....@@. o+o+++%%%++++++.                   ",
"     ....@++.-......@.  o O+++%%%+++++.                   ",
"    .o&&o...X%%.....@o.    O+++%%%+++++.                  ",
"   X&&&&&#.%%****...oo.     O++%%%+++++.                  ",
"   X&&&&&##%*****..oooo.     O++%%%++++.                  ",
"   X&&&o.#.*****..ooooo.     O+++%%+++++.                 ",
"    X&.##o.*****..ooooooo.    X+++%%%++++                 ",
"     .###.******.ooooooooo    X+++%%%+++.                 ",
"      ...*******%oo...XXXX     X++%%%++++.                ",
"      X**********%..@@@@@@@XX@..+++%%%+++.                ",
"     .X**********.@@@@@@@@@@@@@@.++%%%+++.                ",
"    XX***********@@@@@@@@@@@@@@@@.++%%++++.               ",
"   XoX**********X@@@@@@@@@@@@@@@@@.+%%%+++.               ",
"  XoX***********.@@@@@@@@@@@@@@@@@@.+%%++++.              ",
"  XoX**********X@@@@@@@@@@@@@@@o@@@@.%%%+++.              ",
"  oX%**********.@@@@@@@@@@@@@@@@o@@@@.%%++++.             ",
" XoX***********.@@@@@@@@@@@@@@@@@X@@@.%%%+++.             ",
" XoX***********.o@@@@@@@@@@@@@@@@oX@@@.%%%+++             ",
"  oX***********Xo@@@@@@@@@@@@@@@@@oX@@.%%%%++.            ",
" XoX***********Xoo@@@@@@@@@@@@@@@@o*XX*.%%%++.            ",
" XoX***********Xooo@@@@@@@@@@@@@@@@@o****%.%++.           ",
" XoX************Xoooo@@@@@@@@@@@@@@@o*****.%+++..         ",
" XoX*********%*%*Xoooo@@@@@@@oo@@@@@o*****%.%++++...      ",
" .oX%*******%*%*%.ooooo@@@@@@@@X@@@@o******.%%%+++++..    ",
" .oo.%***%*%*%*%%..ooooo@@@@@@@@X@@X%*****%%.%%%%...      ",
" ..o.%%%%*%*%%%%%%.ooooooo@@@@@@XXX%%%***%%%.%%%%%%%.     ",
"  .oX%%%%%%%%%%%%%%.ooooooXo@@@X%%%%%%%**%%%%.+%%%%%%.    ",
"  .o%.%%%%%%%%%%%%%.ooooooXXX@X%%%%%%%%%%%o%%.+++.%%%.    ",
"   .%o%%%%%%%%%%%%%%.ooooooX%X%%%%%%%o%%%%%o%%..++.o%%.   ",
"   .o%.%%%%%%%%%%%%%%.oooooX%%%%%%%%%%o%%%%%o%. .+. o%.   ",
"     .o%%%%%%%%%%%%%%%..oooX%%%%%%%%%%%o%%%%o%%....  ..   ",
"      ..%%%%%%%%%%%%%%%%...%%%%%%%%%%%%%o%%%%%o%..   .    ",
"       .%%%%%%%%%%%%%%%%%%.%%%%%%%%%%%%%%%o%%%%oo         ",
"        .%%%%%%%%%%%%%%%%%%.%%%%%%%o%%%%%%%o%%%%.         ",
"        o%%%%%%%%%%%%%%%%%%%.%%%%%%%o%%%%%%%o%%%%.        ",
"         .%%%%%%%%%%%%%%%%%%%..%%%%%%o%%%%%%%o%%%.        ",
"          .%%%%%%%%%o%%%%%%%%%%..%%%%%o%%%%%%o%%%%.       ",
"           .%%%%o%%%.%%%%%%%%%%X+.%%%%%o.%%%%%o%%%.       ",
"            .%%%%oo%%X%%%%%%%%%X++X%%%%%%o.%%%%o%%%.      ",
"             .X%%%o  O.%%%%%%%.O+++..%%%%%%o%%%%o%%.      ",
"             .#X..    .%%%%%%X++OO+++.%%%%%%.%%%%.%.      ",
"             X##o      .X%%X.O++++O+++.%%%%%%.%%%%.       ",
"           .X###.      O.XX..+O++++OO++..%.%%%.%%%%o      ",
"     ooo...#####.o      .###.++O+++++O+++++O... oo%%.     ",
"    o&&@&&&&####X=o     .###.+++O++++OO+++O       oo      ",
"   o-=X&&&#o#&###=o     o####.                            ",
"   .=X--&Xo&&##o...   o.######...                         ",
"    .X--..o-&..      o&&###&&X#&&..                       ",
"     X-.  o--.      o&&&&##&&&X#&--.                      ",
"      X.  oo-.      .--&o.o#&&X##--.                      ",
"           ..       .--.  .#--.XXX-.                      ",
"                    ..o    X--.  X.                       ",
"                           .-X                            ",
"                            ..                            "
};
