/* XPM */
static char *f4d76785db714751d62fec509a1ab13fvi4q8JpdBCQNILVD_115[] = {
/* columns rows colors chars-per-pixel */
"75 74 16 1 ",
"  c None",
". c black",
"X c #634221",
"o c #735A21",
"O c #103A42",
"+ c #315A7B",
"@ c gray45",
"# c #A57352",
"$ c #C59C5A",
"% c #528CAD",
"& c #73A5BD",
"* c #E6C5AD",
"= c #F7D6BD",
"- c #F7E6BD",
"; c #CECECE",
": c white",
/* pixels */
"                                                                           ",
"                                                                           ",
"                                                                           ",
"                                                                           ",
"                                                                           ",
"                                                                           ",
"                                                                           ",
"                                            ...                            ",
"                                           O%++.                           ",
"                            ..            O%%%+.                           ",
"                           O%+..         O%%%%++.                          ",
"                           O%+++.       O%%%%%++.                          ",
"                          O%%%+++.......%%%%%++++.                         ",
"                          O%%%+OO+&&%%%%%%%%%+++++.                        ",
"                          O%%++%&&&&&%%%%%%%+++++++.         ..            ",
"                          O%+%%%%&&&%%%%+++++++++++.         :.  ..        ",
"                          .+%++%%%%%%%++-*OO++++++++.       .....:.        ",
"                          .++-*+%%%%%+-----*O+++++++.    ..:..%OO..        ",
"                         .++----+%%%+--------O+++++++.    .%%%%%..:.       ",
"                         .+*-----++*----------O++++++.    .%%%%%+O..       ",
"               ..  ..    .+-------------------*O+++++.   .%%%%%%+.O..      ",
"               .:..:.    .*--------------------O++++++.  .%%%%%+..:O.      ",
"              ..O%%%... .+-------------.....---*O+++++. .%%%%%%+++..       ",
"             .:O%%%%%:. .+...--------..@--------O+++++. %%%%%%+++++..      ",
"             .OO%%%%%.  .+--@..-----------------O+++++..%%%%%%+++++.       ",
"            ..OO+%%%%%O .+----------------------O++++O.+%%%%%++++++.       ",
"             .+++%%%%%% .+------------@*-------*O++++.+++%%%+++++++        ",
"             .+++%%%%%%OO.*----@-----@:.-------O++++O.+++++++++++++        ",
"              ++++%%%%%%O.+---@:@-*...@*------*O+++O..++++++++++++.        ",
"             .+++++%%%%%%%.*--@....*----------O+++++++++++++++++++.        ",
"              ++++++%%%%%%.+-----------------O+++++++++++++++++++..        ",
"              .+++++%%%%+++.O---------------O++++++++++++++++++++.         ",
"              .+++++++++++++OO------------#O++OO+++++++++++++++++          ",
"               .++++++++++++.OOO#=----=***------OOO+++++++++++++O          ",
"                ++++++++++..----=*******=----------O++++++++++++O          ",
"                ++++++++..-------=****=------------*O+++++++++++.          ",
"                ..+++++.-----------------------------O++++++++++O..        ",
"                  ++++.-------------------------------O+++++++++O..        ",
"                  +++.---------------------------------O+++++++++++.       ",
"                  ...----------------------------------O+++++++++++O.      ",
"                    .-----------------------------------O++++++++OO+..     ",
"                   .------------------------------------O+++++++OOO+O.     ",
"                   .------------------------------------=OO++++OOOOOOO.    ",
"                  .--------------------------------------OO+++OOOOOOOO.    ",
"                  .--------------------------------------OO+OOOOOOOOOO.    ",
"                  .----------------------------------------OOOOOOOOOOOO.   ",
"                ..---------------------------------------**OOOOOOOOOOOO.   ",
"                ..--------------------------------------****OOOOOOOOOOO.   ",
"                ..=-------------------------------------****OOOOOOOOOOO.   ",
"                ..=----------------------------------==*****OOOOOOOOOOOO.  ",
"               .**=---------------------------------==******OOOOOOOOOOOO.  ",
"               .***=-------------------------------==********OOOOOOOOOOO.  ",
"               .****=---------------------------====********.OOOOOOOOOOO.  ",
"          ..   .*****==-----------------------===*********.:.OOOOOOOOOOO.  ",
"     ..  .:;.  .******====-----------------=====**********.:.OOOOO..OOOO.  ",
"     .:...:;;. .*******=====-----------=======***********.:::OOO..;.OOOO.  ",
"     .::o.::;o...*********=================************.*;;:;....:;.OOOO.  ",
"    ...:o-.;o.-**.***********==========***************.--XXX.*.;::;.OOOO.  ",
"   .::;o---o-----*.*********************************..--------*.;;..O..O.  ",
"   ..:.-----------=..*******************************.----------=..*..:..   ",
"    .;.-====*=---==*.*****************************.*-----======*=**.::..   ",
"      .-=*****=-==***.****************************.----==***********;:..   ",
"      .==******=*****.****************************.---=*************...    ",
"      .=**************.**************************.----=***XXXXX******..    ",
"      .***XXXX********.O*************************.---=**X######******.     ",
"        .X####X*******.OOO************************.-=***X######******.     ",
"        ..####X******.OOOOO***********************.-=**X#######X***.       ",
"         .#####XX*****.O.....$*****-*-*-*--*-*****.=***X#######X***.       ",
"           .####X****...     ......$-*-*-**-*......****X######XX**..       ",
"            ..##X***.              ..........      .****XXX#X****.         ",
"             ...*...                                ..*****X****.          ",
"                 .                                   ..******.*.           ",
"                                                       .....  .            ",
"                                                                           "
};
