/* XPM */
static char *f4d76785db714751d62fec509a1ab13fvi4q8JpdBCQNILVD_121[] = {
/* columns rows colors chars-per-pixel */
"75 74 16 1 ",
"  c None",
". c black",
"X c #634221",
"o c #735A21",
"O c #103A42",
"+ c #315A7B",
"@ c gray45",
"# c #A57352",
"$ c #C59C5A",
"% c #528CAD",
"& c #73A5BD",
"* c #E6C5AD",
"= c #F7D6BD",
"- c #F7E6BD",
"; c #CECECE",
": c white",
/* pixels */
"                                                                           ",
"                                                                           ",
"                                                                           ",
"                                                                           ",
"                                                                           ",
"                                                                           ",
"                                                                           ",
"                                                                           ",
"                                                                           ",
"                                             ...                           ",
"                             ..            OO%++.                          ",
"                            O%+..         O%%%%+.                          ",
"                            O%+++.       O%%%%%++.              .          ",
"                           O%%%+++.......%%%%%%++.         ..  ..          ",
"                           O%%%+OO+&&%%%%%%%%%++++.        .:. :..         ",
"                           O%%++%&&&&&%%%%%%%%+++++.     . ..OOO..         ",
"                           O%+%%%%&&&%%%%++%%+++++++.   .:.%%%%.:..        ",
"                           .+%++%%%%%%%++-++++++++++.   ..%%%%%+OO.        ",
"                 ..  .     .++-*+%%%%%+---*OO++++++++.   .%%%%%+.:..       ",
"               ...:..:    .++----+%%%+------*O+++++++.  .%%%%%++..O        ",
"               ..O%%%%..  .+*-----++*---------O+++++++. .%%%%%+++++.       ",
"              .:OO%%%.:.. .+-------------------O++++++. %%%%%%+++++        ",
"              .OO%%%%%..  .*-------------------*O+++++..%%%%%%+++++.       ",
"              .:++%%%%%  .+-------------.-------O++++++.%%%%%++++++.       ",
"              .+++%%%%%O .+...--------..@....---*O++++.%%%%%+++++++.       ",
"              ++++%%%%%O .+--@..-----------------O+++..+%%%%++++++.        ",
"              .+++%%%%%%O.+----------------------O+++.++++++++++++..       ",
"              +++++%%%%%%.+------------@---------O++++++++++++++++.        ",
"              .++++%%%%%%O.*----@-----@:*-------*O+OO+++++++++++++         ",
"              .+++++%%%%%.+----@:@-*...@.-------O+++++++++++++++++         ",
"               ++++++%+%++.*--@.....*---*------*O++++++++++++++++O         ",
"               +++++++++++.+-------------------O+++++++++++++++++O         ",
"               .+++++++++++.O-----------------O++++++++++++++++++          ",
"               .+++++++++++.OO--------------O++++OO++++++++++++++.         ",
"                .++++++++..--OOO#=----=---#O++-----O++OOO+++++++OO.        ",
"                 ++++++..-------=*********---------*OO++++++++++++.        ",
"                 +++++.----------=****=*=-------------O+++++++++++O.       ",
"                 ..++.----------------=----------------O++++++++++O.       ",
"                  .+.-----------------------------------O+++++++++++.      ",
"                  ..------------------------------------O+++++++++++O.     ",
"                   .-------------------------------------O+++++++++O+...   ",
"                 ..--------------------------------------O++++++++OO+O..   ",
"                 ..--------------------------------------=OO++++OOOOOOOO.  ",
"                .-----------------------------------------OO+++OOOOOOOOO.  ",
"                .-----------------------------------------OO+OOOOOOOOOOO.  ",
"                .-------------------------------------------OOOOOOOOOOOOO. ",
"               .------------------------------------------**OOOOOOOOOOOOO. ",
"               .-----------------------------------------****OOOOOOOOOOOO. ",
"               .=----------------------------------------****OOOOOOOOOOOO. ",
"               .=-------------------------------------==*****OOOOOOOOOOOOO.",
"              .*=-----------------------------------===******OOOOOOOOOOOOO.",
"              .**==--------------------------------===********OOOOOOOOOOOO.",
"              .****=-----------------------------===**********.OOOOOOOOOOO.",
"       .      .*****==------------------------====***********.:OOOOOOOOOOO.",
"   .  ..:..   .******====------------------======**********..:..OOOOO.OOOO.",
"   .:...:;;.  .*******=====------------=======*************.:::OOOO.;;.OOO.",
"   .::..:;o...O**********==================***************..;:;....:;.OOOO.",
"   .::o.;;o.-**.************===========****************..--XXXX.*.::;.OOOO.",
"...:;oo--o-----*.*************************************.---------*.;;;.OO.O.",
" .::.----------=...***********************************.----------=..*..:.. ",
"  .:.--===-----==*.*********************************.*------=====*=**.::.. ",
"  .;-==*****=-==***.********************************.----=***********.;:.. ",
"    .==******=*****.O*******************************.---=************....  ",
"    .=**************.O*****************************.----=***XXXXX******..  ",
"    .***XXXX********.OO****************************.--==**X######******.   ",
"      .*####X*******.OOOO***************************.-=**XX######******.   ",
"      .X####X*******.OOOOO*************************.--=**X#######X***.     ",
"       .######X*****.OO.....$*****-**-*-*--*-******O.****X#######X***.     ",
"         .####X****....     ......$--*-*-**-*.........***X#####XXX***.     ",
"          .###X***.               ...........         ****XXX#X****.       ",
"           ....*...                                   .******X****..       ",
"               .                                       ..*****..*.         ",
"                                                         .....             ",
"                                                                           "
};
