/* XPM */
static char *f4d76785db714751d62fec509a1ab13fvi4q8JpdBCQNILVD_122[] = {
/* columns rows colors chars-per-pixel */
"75 74 16 1 ",
"  c None",
". c black",
"X c #634221",
"o c #735A21",
"O c #103A42",
"+ c #315A7B",
"@ c gray45",
"# c #A57352",
"$ c #C59C5A",
"% c #528CAD",
"& c #73A5BD",
"* c #E6C5AD",
"= c #F7D6BD",
"- c #F7E6BD",
"; c #CECECE",
": c white",
/* pixels */
"                                                                           ",
"                                                                           ",
"                                                                           ",
"                                                                           ",
"                                                                           ",
"                                                                           ",
"                                                                           ",
"                                                                           ",
"                                             ...                           ",
"                             ..             O%++.                          ",
"                            O%+..          O%%%+.                          ",
"                            O%+++.        O%%%%++.                         ",
"                           O%%%+++.......O%%%%%++.              .          ",
"                           O%%%+OO+&&%%%%%%%%%++++.        ... ...         ",
"                           O%%++%&&&&&%%%%%%%%+++++.       .:.....         ",
"                           O%+%%%%&&&%%%%%%%%+++++++.      ..%OO::.        ",
"                           .+%++%%%%%%%+++++++++++++.   ...%%%%%O...       ",
"                   .       .++-*+%%%%%+---*OO++++++++.  ..%%%%%+O...       ",
"                  .: ..   .++----+%%%+------*O+++++++.   .%%%%%++:OO       ",
"                ..O:..:   .+*-----++*---------O+++++++.  .%%%%%+.+..       ",
"               ...O%%%%.  .+-------------------O++++++.  %%%%%++++++       ",
"               .OO%%%%.:. .*-------------------*O+++++. .%%%%%+++++.       ",
"               O:O%%%%....+---------------------O++++++..%%%%%++++++.      ",
"               .:+%%%%%% .+...--------.......---*O+++++..%%%%%+++++.       ",
"              .++++%%%%%O.+--@..--------@--------O+++++.%%%%%++++++.       ",
"              ..+++%%%%%O.+----------------------O++++.+++%%+++++++.       ",
"              .++++%%%%%O.+------------@---------O++++.+++++++++++++       ",
"              .++++%%%%%%O.*----@-----@:*-------*O+++++++++++++++++.       ",
"               +++++%%%%%%.+---@:@-*...@.-------O++++..+++++++++++..       ",
"              .+++++%%%%%%.*---@....*---*------*O+++++++++++++++++O        ",
"               .+++++%+%+%.+-------------------O++++++++++++++++++O        ",
"               .+++++++++++.O----------------O++++++++++++++++++++O        ",
"               .++++++++++++OO--------------O+++++++++++++++++++++         ",
"               ..++++++++++..OOO#=----=---#O++---OO++++++++++++++          ",
"                .++++++++..-----=*********---------O++++++++++++O.         ",
"                .+++++++.--------=****=*=----------*O++++++++++++.         ",
"                 .+++++.-----------------------------O+++++++++++O.        ",
"                 ..++..-------------------------------OO+++++++++O.        ",
"                  .+.-----------------------------------O++++++++++..      ",
"                   .------------------------------------O++++++++++OO.     ",
"                   .-------------------------------------O++++++++O++..    ",
"                  .--------------------------------------O+++++++OO++O.    ",
"                  .--------------------------------------=O+++++OOOOOOO.   ",
"                 .----------------------------------------O++++OOOOOOOO.   ",
"                 .----------------------------------------O+OOOOOOOOOOO.   ",
"                 .-----------------------------------------OOOOOOOOOOOOO.  ",
"                .-----------------------------------------*OOOOOOOOOOOOO.  ",
"                .----------------------------------------***OOOOOOOOOOOO.  ",
"                .=---------------------------------------***OOOOOOOOOOOO.  ",
"                .=-----------------------------------===****OOOOOOOOOOOOO..",
"              ..*=----------------------------------==******OOOOOOOOOOOOO..",
"              ..**=--------------------------------==*********OOOOOOOOOOO..",
"              ..***=-----------------------------===********.*OOOOOOOOOOO..",
"         ..   ..****===-----------------------====*********.:.OOOOOOOOOOO..",
"    ... .:;.  ..*****====------------------======**********.:.OOOOO..OOOO..",
"    .::..:;;. ..*******====------------=======************.:::OOO..;.OOOO..",
"    .:::o.:;o...*********==================*************..;:;....::;.OOOO..",
"   ...:o-.;o.-**.************==========****************.-*XXX.*.;:;.OOOOO..",
"  .::;o---o-----*.************************************.--------*.;;..O..O..",
"  ..:.-----------=..********************************..----------=..*..:..  ",
"   .;.-====*=---==*.*******************************.*-----==*===*=**.::..  ",
"     .-=*****=-==***.******************************.----==**********.;:..  ",
"     .=*******=*****.******************************.---=*************...   ",
"     .=**************.O***************************.----=***XXXXX******..   ",
"     .***XXXX********.OO**************************.---=**X######X*****.    ",
"       .X####X*******.OOO**************************.-=***X######******.    ",
"       ..####X******.OOOOO*************************.-=**X#######X***.      ",
"        .#####X******.OOOO*************************.-=**X#######X***.      ",
"          .####X****.OOO.....$****--*-*-*--*-******O****X######XX**..      ",
"           ..##X***.....     .....$$-*-*-**-*........****XXX#X****.        ",
"             ..*...               ...........        ..*****X****.         ",
"               ..                                      .******...          ",
"                                                       .......             ",
"                                                                           "
};
