/* XPM */
static char *f4d76785db714751d62fec509a1ab13fvi4q8JpdBCQNILVD_126[] = {
/* columns rows colors chars-per-pixel */
"75 74 16 1 ",
"  c None",
". c black",
"X c #634221",
"o c #735A21",
"O c #103A42",
"+ c #315A7B",
"@ c gray45",
"# c #A57352",
"$ c #C59C5A",
"% c #528CAD",
"& c #73A5BD",
"* c #E6C5AD",
"= c #F7D6BD",
"- c #F7E6BD",
"; c #CECECE",
": c white",
/* pixels */
"                                                                           ",
"                                                                           ",
"                                                                           ",
"                                                                           ",
"                                                                           ",
"                                                                           ",
"                                                                           ",
"                                              ...                          ",
"                              ..             O%++.                         ",
"                             O%+..          O%%%+.                         ",
"                            OO%+++.        O%%%%++.                        ",
"                            O%%%+++.....  O%%%%%++.                        ",
"                            O%%%+OO+&&%%..%%%%%++++.     .  ..             ",
"                            O%%++%&&&&&%%%%%%%%+++++    ... ::.            ",
"                            .%+%%%%&&&%%%%%%%%++++++.   .:.O..:.           ",
"                            .+%++%%%%%%%%%+++++++++++.  ..%%%....          ",
"                           ..++-*+%%%%%+++-*OO+++++++..:.%%%%OOO..         ",
"                    ..    .++-----+%%%+------*O+++++++.:%%%%%+.:O.         ",
"                  ...: .. .+*-----++*---------O++++++...%%%%++....         ",
"                 ...O%..: .*-------------------O++++++.%%%%%+++++.         ",
"                ..:O%%%%..+--------------------*O+++++.%%%%%+++++.         ",
"                .OOO%%%%..+.--------------------O+++++.%%%%%++++++         ",
"                .::+%%%%..+-..--------.......---*O++++.%%%%%+++++.         ",
"               ..+++%%%%%.+--@..--------@--------O++++%%%%%%+++++.         ",
"                .+++%%%%%.+----------------------O+++.%%%%%++++++..        ",
"               .++++%%%%%O.*-----------@---------O+++++%%%%+++++++         ",
"               .+++++%%%%O.+----@-----@:*-------*O++.++++++++++++.         ",
"                ++++%%%%%% .---@:@-*...@.-------O+++.++++++++++++.         ",
"               .+++++%%%%%O.*--@....*---*------*O+++.++++++++++++O         ",
"               .+++++%%%%%%.-------------------O+++O.++++++++++++          ",
"                ++++++++%%+.O----------------O++++++++++++++++++OO         ",
"                ++++++++++++OO--------------O++++O+++++++++++++++          ",
"                .+++++++++..-OOO#=----=---#O++----+++++++++++++++          ",
"                .++++++++.------=*********---------+++++++++++++.          ",
"                ..+++++..--------=****=*=------------+++++++++++O.         ",
"                 +++++.-------------------------------O+++++++++O.         ",
"                 .+++.---------------------------------O++++++++++.        ",
"                  ++.----------------------------------O++++++++++O..      ",
"                  .+.----------------------------------O++++++++++O..      ",
"                   ..-----------------------------------O++++++++O+...     ",
"                   .------------------------------------O+++++++OO+OO.     ",
"                   .------------------------------------=O+++++OOOOOOO.    ",
"                  .--------------------------------------O++++OOOOOOOO.    ",
"                  .--------------------------------------O++OOOOOOOOOO.    ",
"                  .---------------------------------------OOOOOOOOOOOOO.   ",
"                 .---------------------------------------*OOOOOOOOOOOOO.   ",
"                 .--------------------------------------****OOOOOOOOOOO.   ",
"                 .=-------------------------------------****OOOOOOOOOOO.   ",
"                 .=----------------------------------==*****OOOOOOOOOOOO.  ",
"                .*=---------------------------------==******OOOOOOOOOOOO.  ",
"                .**=-------------------------------==********OOOOOOOOOOO.  ",
"                .***=---------------------------====*********OOOOOOOOOOO.  ",
"            .   .***=---------------------------====*****.***OOOOOOOOOOO.  ",
"       ..  .:.  .****==-----------------------===*******.:.**OOO..OOOOOO.  ",
"       .:...:;. .*****====-----------------=====********.:.**OO.;.OOOOOO.  ",
"       .::o.:;;..******=====-----------=======*********.:::**O.:;.OOOOOO.  ",
"    ....::-.;;o...********=================************.;:;...::;.OOOOOO.  ",
"    .::;;o---oo.--*.*********==========**************.**XXX.*.;;;.OO..OO.  ",
"      .:.----------*.******************************..-------*...*..::.OO.  ",
"      .;.-====-----=.*****************************.-------=--==**.::.OO.   ",
"       .-==***=---==*.****************************.-----==*==*****;:.OO.   ",
"       .==*****=-==**.***************************.*----=**********...OO.   ",
"       .=*******=*****.**************************.----=*************.O.    ",
"       .***XX**********.*************************.---=***XXXXX******.O.    ",
"         .*###X********.O***********************.---=**X######X*****..     ",
"         .X####X*******.OO**********************.--==**X######X***...      ",
"          .####X*******.OOO**********************.-=**X#######X***.        ",
"          ..####X*****.OOOO**********************.-=**X#######X***.        ",
"            .###X*****.OO....$*****-*-*-*--*-*****.=***X#####X***.         ",
"             .##X***.....    ......$-*-*-**-*......*****XX##X***..         ",
"               ..*...              ..........      .******XX***.           ",
"                 .                                 ..*******...            ",
"                                                     .......               ",
"                                                                           "
};
