/* XPM */
static char *_[] = {
/* columns rows colors chars-per-pixel */
"65 65 71 1 ",
"  c None",
". c black",
"X c gray3",
"o c gray7",
"O c #252525",
"+ c #282828",
"@ c gray22",
"# c #3E3E3E",
"$ c #584020",
"% c #000040",
"& c #080844",
"* c #2C2C56",
"= c #33335A",
"- c gray26",
"; c #484848",
": c gray31",
"> c #505050",
", c #5B5B5B",
"< c #515168",
"1 c #606060",
"2 c #656565",
"3 c #676767",
"4 c DimGray",
"5 c gray42",
"6 c #6F6F6F",
"7 c #666673",
"8 c #6C6C76",
"9 c #63747D",
"0 c gray44",
"q c #B00000",
"w c #803131",
"e c #A85000",
"r c #B05000",
"t c #805028",
"y c #885830",
"u c #986038",
"i c #A06038",
"p c #954848",
"a c #A86840",
"s c #AF7040",
"d c #A97249",
"f c #B07040",
"g c #B87848",
"h c #927A68",
"j c #A37C65",
"k c #CA8758",
"l c #D88850",
"z c #F09058",
"x c #CF906C",
"c c #F39761",
"v c #F89860",
"b c #F8A070",
"n c #F8F850",
"m c #929292",
"M c #979797",
"N c #989898",
"B c #A7A7A7",
"V c gray66",
"C c gray69",
"Z c #BBBBBB",
"A c #F8B080",
"S c #F8B890",
"D c #F8D0B8",
"F c #C0C0C0",
"G c #CDCDCD",
"H c #D0D0D0",
"J c #D5D5D5",
"K c #D8D8D8",
"L c gray86",
"P c gray91",
"I c #F8F8F8",
/* pixels */
"                                                                 ",
"                                                                 ",
"                                                                 ",
"                                                                 ",
"                                                                 ",
"                                                                 ",
"                                                                 ",
"                                                                 ",
"                                                                 ",
"                                                                 ",
"                                                                 ",
"                                                                 ",
"                                                                 ",
"                                                                 ",
"                                                                 ",
"                                                                 ",
"                                                                 ",
"                                                                 ",
"                                                                 ",
"                                                                 ",
"                                                                 ",
"                            0:-#p                                ",
"                           -O....qw                              ",
"                          2.......q*                             ",
"                          O...$$$.#$8                            ",
"                          o.$gaalga$=                            ",
"                          O.gSbDAzaa&                            ",
"                          ,.biiyyaaa%                            ",
"                           oiilyy...                             ",
"                            tuuu.NNLPPFFLZm                      ",
"                            uNNNINNLLPFPPPPJ                     ",
"                           ...    FVV NCNNNPP                    ",
"                         CJJ0..60###2>NNNNNNPP                   ",
"                        FJJJ06...>#.>>2    mvvc                  ",
"                      mVBmJJJJ.r..NIIIm     xtvh                 ",
"                      J ,mJJ .rnNILLLIIG      vd                 ",
"                     JNN,,GJ.>eNILLLLLV       js                 ",
"                    JN 00 9J::LLICLLLNCJ>                        ",
"                   fi 0    :2LJJICVL00  0                        ",
"                  kli0     2CL BI L 0   0                        ",
"                  l        CLLIBZ  0   0>6                       ",
"                           CLLCC62 0  :..2                       ",
"                          0CLFCC62.......2                       ",
"                          0CLFCC62:%%....2                       ",
"                          6CLFCV6::%%%%..                        ",
"                          6CLCCV2-:9.....6                       ",
"                          2CLCVV2::9....%6                       ",
"                          2CLCJJ:#O9..%%%                        ",
"                          2CCm00 ::9.%%%%                        ",
"                          ,   0,>::.9<76                         ",
"                          6 2222>::.                             ",
"                           >:>>>--+X                             ",
"                            -:::-O..                             ",
"                             *......O                            ",
"                              O.%....2                           ",
"                               9.....#                           ",
"                                .%...O                           ",
"                                :%...+                           ",
"                                 %...>                           ",
"                                 7%..                            ",
"                                  7=6                            ",
"                                                                 ",
"                                                                 ",
"                                                                 ",
"                                                                 "
};
