/* XPM */
static char *a6acabdd240a4e0de952b99f115ca27aeLlzxVqWzz4anKKk[] = {
/* columns rows colors chars-per-pixel */
"32 32 10 1 ",
"  c None",
". c #202020",
"X c #295A39",
"o c #9C4129",
"O c #DE5A31",
"+ c #41AC41",
"@ c #F68B29",
"# c #FFAC29",
"$ c #83EE41",
"% c #FFE641",
/* pixels */
"                                ",
"                                ",
"                                ",
"                                ",
"                                ",
"                                ",
"                   ...          ",
"              ... .$$+.         ",
"            ..##O.$$XXX..       ",
"           .%%OOO.$+X++X$.      ",
"         ..#%%#O.++X+XX$$.      ",
"        .#O###@OX+XXX$$+.       ",
"       .#%%O@@OOX+X+++X.        ",
"       .#%%@OO#%%X++XXOO.       ",
"       .@##@O@#%%#XXoO@@O.      ",
"       .O@@@O@###@oooO@@O.      ",
"      .O#OOO#O@@@OoooOOOO.      ",
"      .%#@o#%#OOooO@@oOO.       ",
"      .##@o###@@oOO@@Ooo.       ",
"      .O@OoO@@@OoOOOOOoO.       ",
"       .ooOoOOOoOoOOOoOO.       ",
"        .OOOOooOOOoo.OO.        ",
"        .OOOOooOOOOO...         ",
"         .OOooOoOOO.            ",
"          ...OOO...             ",
"             ...                ",
"                                ",
"                                ",
"                                ",
"                                ",
"                                ",
"                                "
};
