/* XPM */
static char *e6ba3aa1c0654305eede4f15ab4abe94n1QBuTgpjze5HDoE_61[] = {
/* columns rows colors chars-per-pixel */
"69 65 16 1 ",
"  c None",
". c #101010",
"X c #5A3A19",
"o c #083A63",
"O c gray29",
"+ c #9C3129",
"@ c #8C6342",
"# c #D6AD4A",
"$ c #E6C573",
"% c #2163AD",
"& c #5A8CCE",
"* c gray58",
"= c #F7D69C",
"- c #94ADE6",
"; c #CECED6",
": c white",
/* pixels */
"                                                                     ",
"                                                                     ",
"                                                                     ",
"                                                                     ",
"                                                                     ",
"                                                                     ",
"              oo                                                     ",
"             o&&oo  %                                                ",
"             o&&&oo%&%%%%%     %%                                    ",
"             .%&o&&&&&&&&&%%ooo--o                                   ",
"              %%&&&&&&&&&&&&o%&-&.                                   ",
"              o&&&&&&&&&&&&%&&-&&.                                   ",
"             o%&&&&&&&&&&&&&&&&&O&.  XXXX           X                ",
"           .&&&&&&&&&&&&&&&&&&&O.&.XXX@@@XXX   .....#X               ",
"           .&&&&&&&&---&&&o%&&..&&.;X;X@@@@@XX.@@X####X              ",
"        OO O&&%&&&&%&-&&&o%&&&..&%.::::X@@@@@.@@X######X             ",
"       O;;O;.&o&&&&o&&&&.;;%&&&&&&.&::::@@@@XX@X###@X###X            ",
"      O;;;;;ooo%%%%o%&&%#;;;%&&&&&%.:::::X@@.@X###X..X###X           ",
"      .;;;;;o;.%%%%%o%o.@::;&&&&&&&oo.::::XX@X###X....X###X          ",
"      .;;;;.o;X%%&&&oo;.@::&&&&&&&&o...:::;X.@##X.......X###X        ",
"      ****.&&&&&&&&&&&&&&&&&&&&&&&&oo...::::OX@@X.OOOO....OOOX       ",
"      .**.&&&&&&&&&&&&&&&&&&&&&&&&&%...*::::;O@X.OO*OOO..*;::OOO     ",
"      .***.%&&&&&&&&&&&&&&&&oo&&&&%...*:::::::OO.O****:.;:::::::OO   ",
"      . ....&&.o%&&&&&&&&&&oo%&&%=....:::::::::;O.****.*::::::::::O  ",
"         ..o.o%%&&&&&&&%ooo++XX===...*::::o::::::O.O*;.;:::::;O.O;:O ",
"         oo.%%%%%%%o&%o+++O+OX====..*;*oooooo:::::O.O;O;::::;.....:O ",
"     .  oo%%o....o++o+++++:O:=====.*;o&o&&%&&o:::::O.;.;;;:;O.....O:O",
"   OO;%oo%%%&&%%.;+++++++O:XX===#..**o&&&&&&&&%%:::;...;;;;;.....OO:O",
"  ..:o%%%%%%%%.%.:++++++++OX=$$$..**o&&&&&&----%::::O.O.;;;;O...OOO:O",
" O;;.%%%o%%%%%%%#XX+++++XXX##$#X..o&ooo&&&------O:::*OX.;;;;*.OOOO:O ",
"..O;*o%%o%%%%.%%.#XX++XX######X.&&&&&&&%&-------%:::;OXX.*;;;*O.O;;. ",
" .;.ooo.%o%%oo.o.###XX#######o.oo&&&&&&&%-------%O;;;OXXX..*;;;;;O.  ",
"  ..oooo.ooooo.o.%..#######.oo%&o%%&-----%------%O;;;OXXXXX......    ",
"  .;;ooo.ooooo.oooX..X.X#Oo&&&&&&--&-----%------&o;;;..XXXXX.        ",
"  ..;ooo..oooooo.o.#####O;;&&&&----%%-----%&-&&&oO;;;X.XXXXXX.       ",
"   .....o..o.oo...#####..;;*&&&&----%-----%&&&&&oOO;;OXX.XXXX.       ",
"      . .. ..... .#####...oO:ooo-----%---&%&&&&&oO;;;OXXX.....       ",
"                  .X#####=O;:::&&----%&&&&o&&&&.O**;OXXXXXXX.        ",
"                 X#=XX@#XXO::::o&&-&&&&&&&o&&%o****O.XXXXXXX.        ",
"                 .##==@X=O;.**oo%%&&&%&&&o&&oo.**OO**.XXXXXX.        ",
"                 .####==$..=.oO;:%&&&o&&%o..***OO.***..XXXXX.        ",
"                 .@######=====O::.&%..o#o.....o#oO**;;;.XXXX.        ",
"                .o.######====..;.....===##&&&&&&&&o;;;;;.XX.         ",
"               .oo.######$====.==========o&&&&&&&&&o;;;;.XX.         ",
"               o%%.@######=============oo&&&&&&&&&&&o;;;;..          ",
"              .%%%%.#######===========.%%&&&&&&&&&&&o;;;;;.          ",
"              o%%%%.@#######$========.%%&&&&&&&&&&&&&.o;;;.          ",
"             o%%%%%%.X########$======.%%&&&&&&&&&&&&&.@o;.o.         ",
"             .%%%%%%.#XXXX@########$.%%%&&&&&&&&&&&&&&.@.ooooo.      ",
"             .%%%%%oo.#####@XXXXXXX@#.%%%&&&&&&&&&&&&&o.ooooooo.     ",
"              .oooooo..#############.o%%%%&&&&&&&&&&&%o.ooooooo.     ",
"              .oooo..oooo.##########.o%%%%%&&&&&&&&&%%o.oooooo.      ",
"               .oooooooooo.#########.%o%%%%%&&&&&&&%%o%..oooo.       ",
"             OO*ooooooooooo..#######.%.%%%%%%%%&&&&%%%o% ....        ",
"            O****oooooooooooo..XXXXX.%%..oo%%%%%%%%%%o%o             ",
"            .****o.*;oooooo......@@@@.%%%%%o%.%%%%%%o%%.             ",
"             .....;;;;o....      ...@@..%%%%o%o.%%.o%%%.             ",
"                 .;;;..             ....%.%%%%%%o.%%%%% .            ",
"                  ...                   ..%%%%%%%%%%%%oo*.           ",
"                                         .%%%oo%%%%oo%.;;OO          ",
"                                          .%o::o%oo::oO;;;.          ",
"                                           .::::o;::::;...           ",
"                                           .;::O.;;:::OO             ",
"                                            OOO  ..;:;.              ",
"                                                   ...               "
};
