/* XPM */
static char *e6ba3aa1c0654305eede4f15ab4abe94n1QBuTgpjze5HDoE_128[] = {
/* columns rows colors chars-per-pixel */
"69 65 15 1 ",
"  c None",
". c #101010",
"X c #5A3A19",
"o c #083A63",
"O c gray29",
"+ c #8C6342",
"@ c #D6AD4A",
"# c #E6C573",
"$ c #2163AD",
"% c #5A8CCE",
"& c gray58",
"* c #F7D69C",
"= c #94ADE6",
"- c #CECED6",
"; c white",
/* pixels */
"                                                                     ",
"                                                                     ",
"                                                                     ",
"                                                                     ",
"                                                                     ",
"                              $$                                     ",
"             oo             oo==o                                    ",
"            o%%oo  $$$$$$   $%=%.                                    ",
"            o%%%oo$%%%%%%$$o%=%%.                                    ",
"            .$%o%%%%%%%%%%%o%%%O%.                                   ",
"             $$%%%%%%%%%%%$%%%O.%.  XXXXXX                           ",
"             o%%%%%%%%%%%%%%%%..%.XX-XX+++XXX   .....X               ",
"        O O o$%%%%%%%%%%%%%%%%..%$.;;;-X+++++XX.++X@@@X              ",
"      OO-O--.%%%%%%%%==%%%o$%%%%%%.;;;;;X+++++.++X@@@@@X             ",
"       ----.%%%%%%%%==%%%o$%%%%%%%$.;;;;;++++XX+X@@@+@@@X            ",
"      O----.%%$%%%%$%%%%.--$%%%%%%%o;&;;;;X++.+X@@@X.X@@@X           ",
"     .------.%o%%%%o%%%$@---$%%%%%%oo..;;;;XX+X@@@X...X@@@X          ",
"      .&-&&&ooo$$$$o$$o.+;;-%%%%%%%oo...;;;-X.+@@X......OOOX         ",
"      &&&&&&o-.$$$$$oo-.+;;%%%%%%%%%....;;;;OX++X.OOO..&-;;OOO       ",
"      .&&&&&o-X$$%%%%%%%%%%%%o%%%%$$...&;;;;-O+X.OO&O.-;;;;;;;OO     ",
"      ...&O.%%%%%%%%%%%%%%%%%oo$%%$o..&;;;;;;;OO.O&&.&;;;;;;;;;;O    ",
"        ...%%%%%%%%%%%%%%%%%%%**$$$..&;;;;;;;;;-O.&&.-;;;;;-O.O-;O   ",
"   OOO.ooo$.%%%%%%%%%%%%%%%%%o***$o..-;;;;;;;;;;;O.OO-;;;;-.....;O   ",
"  ..;-$$o$$$.$%%.o$%%%%%%$ooo****...&&&oOoooo;;;;;O..---;-O.....O;O  ",
" O--.o$o$$$$...o$$%%%%%$o@******@..&-&o%o$%%%O;;;;;O.-----.....OO;O  ",
".O-&o$$o$$$$.o$$$$$$$oo@********...&&o%%%%%%=$$;;;;-O.----O...OOO;O  ",
".-.oo$$.$$$$$.o....oX@@********...&&&o%%%%%====$;;;;O.----&.OOOO;O   ",
"  -.ooo.oo$$$..@@@@@@@@@#**##@..@O&oo%%%%%======$;;;&..&---&O.O--.   ",
" .--ooo.ooooo...@@@@@@@@@@#@X..@O.&.ooo%%========$;;-OX..&-----O.    ",
" .--ooo.ooooo.oo.X@@@@@@@@@.X@@@.%o%%%%$%=======$O---OXXX......      ",
"  ...oo..oooo.oooo.X@@@@@@X@@@@.%%%%%%=%$$======%O---OXXXXXX.        ",
"    ..oo..ooooo.oo........X@@@*.oo%%%=====$====%%o---OXXXXXXX.       ",
"       .  ..o.....@@@@@@@@@@oo$%%=$$%======$==%%%oO---..XXXXX.       ",
"            .    .@@@@@@@@@o%%%%===$$=====$%%%%%%oO--OX.XXXXX.       ",
"                 .X@@@@@@@O-%%%%=====$====%$%%%%.O---OXX.XXXX.       ",
"                X@**XX+@@O--%%%%%=====$==%%o%%%oO&&-OXXXX.....       ",
"                 .@@**+X.---&%ooo=====$%%%%o%%$.&&&O.XXXXXXX.        ",
"                 .@@@@**...OO;;;o%%==%$%%%%o%%o&&OO&&.XXXXXX.        ",
"                 .+@@@@@#**O-;;;o%%%%%$%%$oo%.&OO.&&&.XXXXXX.        ",
"                  .@@@@@@**O;;&oO$$%%%o%%o....O@#O&&--.XXXXX.        ",
"                  .@@@@@@**.-..oO-;$%$o.o@@@o...o@.----.XXXX.        ",
"                 ..+@@@@@#**.***O;;....***@@%%%%%ooo----.XX.         ",
"               .ooo.@@@@@@*****..-.o******oo%%%%%%%oo---.XX.         ",
"               o$$o.+@@@@@@*****.*******oo$%%%%%%%%%o----..          ",
"              .$$$$o.X@@@@@@#**********.$$%%%%%%%%%%%o----.          ",
"              o$$$$$.@XX@@@@@@#*******.$$%%%%%%%%%%%%%o---..         ",
"             o$$$$$$$.@@XX+@@@@@@@@#+XX.$$%%%%%%%%%%%%%.-.oooo.      ",
"             .$$$$$$oo.@@@@+XXXXXXX+@@.$$$%%%%%%%%%%%%%..oooooo.     ",
"             .$$$$$ooo..@@@@@@@@@@@@@@.$$$%%%%%%%%%%%%%.ooooooo.     ",
"             o$$$$oooo.o.@@@@@@@@@@@@.o$$$$%%%%%%%%%%%%o.ooooo.      ",
"              .oooooo.ooo.@@@@@@@@@@@.o$$$$$%%%%%%%%%%$o.oooo.       ",
"              .oooo..ooooo..@@@@@@@@@.$o$$$$$%%%%%%%%$$o.....        ",
"               .oooooooooooo..XXXXXXX.$.$$$$$$%%%%%%$$o$.            ",
"             OO&ooooooooooooo...+++++.$$..o$$$$$%%%$$$o$.            ",
"            O&&&&oooooooooooo&&O...++.$$$$$o$$$$$$$$$o$o             ",
"            .&&&&o.&-oooooo....    ....$$$$$o..$$$$$$o$$.            ",
"             .....----o....             .$$$$$$o.$$.o$$$.            ",
"                 .---..                  .$$$$$$$o$$$$$$.            ",
"                  ...                    .$$$$$$$$$$$$oo&.           ",
"                                         .$$$oo$$$$oo$.--OO          ",
"                                          .$o;;o$oo;;oO---.          ",
"                                           .;;;;o-;;;;-...           ",
"                                           .-;;O.--;;;OO             ",
"                                            OOO  ..-;-.              ",
"                                                   ...               "
};
