/* XPM */
static char *_[] = {
/* columns rows colors chars-per-pixel */
"65 65 75 1 ",
"  c None",
". c black",
"X c #161616",
"o c #282008",
"O c #382810",
"+ c #202020",
"@ c #282828",
"# c #353535",
"$ c gray22",
"% c #400000",
"& c #480000",
"* c #500000",
"= c #561010",
"- c #600000",
"; c #403018",
": c #483818",
"> c #523B1C",
", c #584020",
"< c #684820",
"1 c #704828",
"2 c #004040",
"3 c #005858",
"4 c #175E5E",
"5 c #305858",
"6 c #007070",
"7 c #306767",
"8 c gray28",
"9 c gray31",
"0 c #505050",
"q c gray37",
"w c #735E5E",
"e c #606060",
"r c gray42",
"t c #78746F",
"y c #63747D",
"u c #69767E",
"i c gray44",
"p c #880000",
"a c #880707",
"s c #A00000",
"d c #B00000",
"f c #D00000",
"g c #805028",
"h c #885830",
"j c #905830",
"k c #A06038",
"l c #844646",
"z c #8C5F5F",
"x c #B07040",
"c c #856363",
"v c #D08050",
"b c #D88850",
"n c #F8A070",
"m c #008080",
"M c #009898",
"N c #319E9E",
"B c #00B0B0",
"V c #2DA0A0",
"C c #2FBCBC",
"Z c #588E8E",
"A c #40AFAF",
"S c #7DA5A5",
"D c #7DADAD",
"F c #00C8C8",
"G c #00E0E0",
"H c #7BC8C8",
"J c #7AD4D4",
"K c #78F8F8",
"L c #989898",
"P c gray66",
"I c gray69",
"U c gray73",
"Y c #C0C0C0",
"T c #D0D0D0",
"R c #D8D8D8",
/* pixels */
"                                                                 ",
"                                                                 ",
"                                                                 ",
"                                                                 ",
"                                                                 ",
"                                                                 ",
"                                                                 ",
"                                                                 ",
"                                                                 ",
"                                                                 ",
"                                                                 ",
"                                                                 ",
"                                                                 ",
"                                                                 ",
"                                                                 ",
"                                                                 ",
"                                                                 ",
"                              e9$9@X#e                           ",
"                           i$@@$$0@....r                         ",
"                          8+@@$$9 @.....0                        ",
"                         $++@@@$90@......9                       ",
"                        q++@@@@@$$@.......@                      ",
"                  SHCZ  +++@@@@@##+........y4VHJA                ",
"                DBBBMM4 +++@@@@@##+........3MMKGMM7              ",
"               NKBmBmm32+++T@@@@@@+.....9..3mMBMmm35             ",
"              lBKBmBmm32++..+e+++++...e....3mmBmmm32c            ",
"              pBB2+9@+32$+....+e++..9......3m2+9@+32p            ",
"             cfB2+9Pe@+29#.,2.........;,+..32+9Pe@+2fw           ",
"             z-m2+9e9@Xe##.>63,.....,hh,+..32+9e9@+fs=           ",
"              *f32+@@+2q#+.>M6,:k1heiekg+.i.32+@@+2p*@           ",
"   9Uerr      $p+22222+e#+.1FmxxkbeYnLeiii9.+22222+-%@$   rqq#9  ",
"   9iie0999$X#++@32222+0#+.<Fmvkjj eieg<+.+.+32222+++$99$+@@@@0  ",
"   erq99$$$@+++@$623232+#+.:Fmjp&&&pjg::+...+62323+++9$@@@@@@$r  ",
"   e0r99$@@@+++$6623236++..:mm<eppde<g:++...6623236+@$@@@@@@$9   ",
"    9$i09@@@XX+93M333M3@++.+23<jLLLj:<++....3M333M3++@@@@@$$9+   ",
"   9e++$i0$++X+90@2222@@$@+.++::::::++...+XX@22222@@+i++$$9++.+  ",
"   e9$...+0$$.@$90e9$@@@$9@+..+++++++...++@X++@@@@@@+0P09@+....  ",
"   99@+.......@##$$@@++@@$9@+..........++@$###@@@@@+..@++.....+i ",
"  i9$++.......@+++@@X###+@$9$@+.......++@$998#$$$$@+..@+.....++r ",
"  e9$++.......@+X++++9.9++++$9@+.....+@@$9999899$$@+..$+....+++  ",
"   +9@+.......@+X++++$0$+++@@@#@+..++@@$99000099$$+X..9++++@++.  ",
"   .+$@+....+..@@@@@@@@@@$$99099$+. RIi00000000009@X..99$@@+...  ",
"   ..+@@@++++...................+..0@++........................9 ",
"   .@..............+.+..........+..$@+................@@.@.....9 ",
"  $.@..$0 PP 0$+....+..+..+........$@+................@@.+.....8 ",
"  #@0$e00e i09$$$.......++.........@@+...+.+......$000009#@....8 ",
"  @@$ e0$@KB3++@$$..................@+....++....$e0000009$$#...8 ",
"  @$e $@+B2223+++@$.+...............++.........$ e0$+KB3++$$+..8 ",
"  @0e$+++2+.+2++++@@++@@@@@@@@++.....+@@@@@@@@$e $++B2223+++++.8 ",
"  90$KB3+2...2+m63+@++++.....................$0e$+++2+.+2++++++  ",
"  q0B22232+.+2m322m+...++@+..................90$KB3+2...2+m33++  ",
"  q$2+.+2+222+2+.+6+......+@+.++++++++$@....$00B22232+.+2m2223+9 ",
"  q$2...2+m33+2...2+......++@+.....+$$@.....@0$2+.+2+222+2+.+2+0 ",
"  e$2+.+2m22232+.+2+......+..++....$@.......@0$2...2+m33+2...2+0 ",
"  e$+222+2+.+2+222++......+.......+...+.....@0$2+.+2m22232+.+2+qc",
"  r++G63+2...2+633++.....++...........+.....@0$+2o2+2+.+2+222++ec",
"  i+B22232+.+262223+.....+............@.....@0++Go3+2...2+633++r ",
"   +2+.+22222+2+.+2+.....+......y.....++....@0+B22232+.+262223+i ",
"   +2...2+633+2...2.....++......y.....+@....@$$2+.+22222+2+.+2+  ",
"   r2+.+2622232+.+2.....@+......y......@....+$+2...2+633+2...2.  ",
"    8222+2+.+2+222......$++.....>>...+.@@..+.@+2+.+2622232+.+2$  ",
"     @+++2...2+++.++@$$@+++..+oo;;....+@$$+.@..+222+2+.+2+222.   ",
"      +++2+.+2+.............+oooooo..........@@@++++2...2+++.>   ",
"   t>:;;oo222.............++oooooooo..........+@++++2+.+2+..;>>  ",
" u  >>>:;OOOOOOOOOOOOOOOOOOOOOOOOOOOOOOOOOOOOOOOOOOOOOOO;:>>>    "
};
