/* XPM */
static char *_[] = {
/* columns rows colors chars-per-pixel */
"65 65 96 2 ",
"   c None",
".  c black",
"X  c #151515",
"o  c #1E1E1E",
"O  c #202020",
"+  c #282828",
"@  c gray20",
"#  c gray22",
"$  c #584020",
"%  c #000040",
"&  c #000048",
"*  c #0D0D4D",
"=  c #000058",
"-  c #2E2E57",
";  c #2E2E5C",
":  c #30305D",
">  c #000060",
",  c #0B0B63",
"<  c #000070",
"1  c #080871",
"2  c #000078",
"3  c #0A0A79",
"4  c #222275",
"5  c gray25",
"6  c #484848",
"7  c #505050",
"8  c #585858",
"9  c #7F6D5D",
"0  c #434365",
"q  c #4C4C66",
"w  c #494968",
"e  c #59596F",
"r  c #43437C",
"t  c #5F5F71",
"y  c #54547B",
"u  c #606060",
"i  c #6A6A6A",
"p  c #7A7369",
"a  c #626273",
"s  c #60607C",
"d  c gray44",
"f  c #805028",
"g  c #885830",
"h  c #905830",
"j  c #986038",
"k  c #A06038",
"l  c #9B775C",
"z  c #B07040",
"x  c #807063",
"c  c #82756A",
"v  c #C87848",
"b  c #A8A800",
"n  c #C0C000",
"m  c #F8F800",
"M  c #D08050",
"N  c #D88850",
"B  c #E88858",
"V  c #F09058",
"C  c #F89860",
"Z  c #F8A070",
"A  c #000088",
"S  c #0D0D95",
"D  c #000098",
"F  c #30308F",
"G  c #3E3E8C",
"H  c #282890",
"J  c #383892",
"K  c #3A3A9A",
"L  c #0000A0",
"P  c #0B0BAC",
"I  c #1818A6",
"U  c #0101B7",
"Y  c #0000B8",
"T  c #2E2EAF",
"R  c #4B4B8A",
"E  c #595987",
"W  c #454596",
"Q  c #4B4B94",
"!  c #50509A",
"~  c #6D6D84",
"^  c #696988",
"/  c #0000C8",
"(  c #0000D0",
")  c #0404DD",
"_  c #0000E0",
"`  c #0000E8",
"'  c #1A1AE0",
"]  c #0000F8",
"[  c gray66",
"{  c #F8B080",
"}  c #F8B890",
"|  c #F8B898",
" . c #F8C0A0",
".. c #F8C8B0",
"X. c #C0C0C0",
"o. c #F8D8C0",
/* pixels */
"                                                                                                                                  ",
"                                                                                                                                  ",
"                                                                                                                                  ",
"                                                                                                                                  ",
"                                                                                                                                  ",
"                                                                                                                                  ",
"                                                                                                                                  ",
"                                                                                                                                  ",
"                                                                    R T !                                                         ",
"                                                                F L L L ] o                                                       ",
"                                                            R L L L L ] 2 . #                                                     ",
"                                                          y _ L L L _ 2 . . .                                                     ",
"                                                          4 < _ _ _ 2 . . . . i                                                   ",
"                                                          4 < < < < . . . . .                                                     ",
"                                                          l m < < < . . . . n c                                                   ",
"                                                          9 m v Y v V j Y v b p                                                   ",
"                                                            C }  .{ M g | } M                                                     ",
"                                                            C } { Z Z Z Z Z M                                                     ",
"                                                            C } V ..o.o.} B M                                                     ",
"                                                            C } V Z Z Z V B f                                                     ",
"                                                      u X . + Z Z Z v Z B N + .                                                   ",
"                                                  R D O O O # z z k k h h f + . &                                                 ",
"                                                S Y Y O O O X.u . . f . . [ u & & & a                                             ",
"                                            ~ U Y Y Y O O O . . . < % % < . . < < < < s                                           ",
"                                            U ] ( U U O . . A A A A > < < < < < A A < < e                                         ",
"                                          P ] ( ( U D % . . % < < A > A A A A A > % % A < t                                       ",
"                                        K ] ] / U D % % . . . % > > > > > > & & % % A < A <                                       ",
"                                        U U / U U % % % . . . . % & % & % 2 2 2 > A L L < < 0                                     ",
"                                      Q ] ] ] ] < % % 6 6 6 . . . % % % % % % % = L Y L L < 4                                     ",
"                                      ' U ( ] ] ] < 6 u d d 7 7 . . . % % % % % L L Y L A & :                                     ",
"                                      I ( ( d d A u 6 6 7 u d d 7 7 6 . % % % % L L Y L 2 & w                                     ",
"                                      ^ U d d D M 6 # # # 6 7 u u d d 7 6 . . & L / A L < < a                                     ",
"                                        W d ( M M k k f % # 6 6 6 7 u d d 7 6 ( ( ( ( < & &                                       ",
"                                          J L M M k $ $ % u 7 # . . 6 7 u d d 7 6 d 2 ( < &                                       ",
"                                            r M M k k $ % u u # . . # # 6 7 u d d O < < < 0                                       ",
"                                              x f f f $ % 7 u # % % M k f # 6 6 u O & & &                                         ",
"                                                  A A < % % % % % % M M k k f & & & & & ;                                         ",
"                                                    U A A A < < > > M M k k f % & & & &                                           ",
"                                                    U D 2 2 2 2 2 2 f f f f $ % % % %                                             ",
"                                                    U D < > > = & % & 2 D D D D A > %                                             ",
"                                                    3 < > > & & & % 2 D Y ( _ _ ( Y >                                             ",
"                                                    H D A A < < < & A Y ( _ _ ` _ ( Y                                             ",
"                                                    G D A A 2 2 2 & A Y ( _ _ ] ( ( Y                                             ",
"                                                    R D A A 2 2 2 & A Y ( _ _ ] ( ( Y                                             ",
"                                                    E Y D A 2 2 2 & A Y ( _ _ ] ( ( Y                                             ",
"                                                      Y D A 2 2 2 = A Y ( _ ` ] ` ` L                                             ",
"                                                      Y D A 2 2 2 = > U U ] ] ] ] ] U                                             ",
"                                                      Y D A 2 2 2 = % / _ ( Y Y Y ( )                                             ",
"                                                      Y / Y 2 2 2 = % / A D Y Y Y L )                                             ",
"                                                      Y 2 2 2 2 = = U A A A L L L A 1                                             ",
"                                                      S = 2 = = % % = . > 2 A 2 2 2 ,                                             ",
"                                                      - = = = = % % . . & > > > > & *                                             ",
"                                                      q % % % % % . . . . & & & & & X                                             ",
"                                                        % % % . . . . % . . . . . . X                                             ",
"                                                        % % % . . . . % % % % . . . o                                             ",
"                                                        % % % % % . . . % % % . . .                                               ",
"                                                        o % % . . . . % . . . . . .                                               ",
"                                                        # % . % . . . . % % % . . .                                               ",
"                                                          % % % % . . % % % % % . . 7                                             ",
"                                                          . . . % . . % % % % % . . i                                             ",
"                                                        7 % % % % % . % % % % . . .                                               ",
"                                                        : % % % % % . . . . . . 5                                                 ",
"                                                        a @ + + # @ 5 8                                                           ",
"                                                                                                                                  ",
"                                                                                                                                  "
};
