/* XPM */
static char *_[] = {
/* columns rows colors chars-per-pixel */
"65 65 101 2 ",
"   c None",
".  c black",
"X  c gray9",
"o  c #202020",
"O  c #282828",
"+  c gray21",
"@  c gray22",
"#  c #584020",
"$  c #000040",
"%  c #0C0C46",
"&  c #000048",
"*  c #09094C",
"=  c #111148",
"-  c #1D1D4E",
";  c #000058",
":  c #12125D",
">  c #252552",
",  c #272759",
"<  c #2A2A5A",
"1  c #30305D",
"2  c #000060",
"3  c #1B1B67",
"4  c #000070",
"5  c #000078",
"6  c #10107A",
"7  c #1E1E7A",
"8  c #202068",
"9  c #373760",
"0  c #3E3E63",
"q  c #242474",
"w  c #24247A",
"e  c #434343",
"r  c #484848",
"t  c #505050",
"y  c #766958",
"u  c #434365",
"i  c #4E4E67",
"p  c #4B4B69",
"a  c #5B5B6E",
"s  c #606060",
"d  c #616172",
"f  c #696976",
"g  c #67767D",
"h  c #6B777E",
"j  c gray44",
"k  c #805028",
"l  c #885830",
"z  c #905830",
"x  c #986038",
"c  c #A06038",
"v  c #806D5C",
"b  c #9C765A",
"n  c #A86840",
"m  c #B07040",
"M  c #837061",
"N  c #8E7C6E",
"B  c #C87848",
"V  c #A8A800",
"C  c #C0C000",
"Z  c #F8F800",
"A  c #D08050",
"S  c #E88858",
"D  c #F09058",
"F  c #F89860",
"G  c #F8A070",
"H  c #000088",
"J  c #090996",
"K  c #000098",
"L  c #141494",
"P  c #1B1B92",
"I  c #13139B",
"U  c #3E3E9D",
"Y  c #0000A0",
"T  c #0000B0",
"R  c #0101B7",
"E  c #0000B8",
"W  c #2E2EA5",
"Q  c #47478B",
"!  c #4A4A8A",
"~  c #5C5C86",
"^  c #52528C",
"/  c #42429B",
"(  c #5C5C94",
")  c #656585",
"_  c #696984",
"`  c #66668E",
"'  c #666690",
"]  c #0000C8",
"[  c #0000D0",
"{  c #0000E0",
"}  c #0000E8",
"|  c #0000F8",
" . c #2020F8",
".. c gray66",
"X. c #F8B080",
"o. c #F8B890",
"O. c #F8B898",
"+. c #F8C0A0",
"@. c #F8C8B0",
"#. c #C0C0C0",
"$. c #F8D8C0",
/* pixels */
"                                                                                                                                  ",
"                                                                                                                                  ",
"                                                                                                                                  ",
"                                                                                                                                  ",
"                                                                                                                                  ",
"                                                                                                                                  ",
"                                                                                                                                  ",
"                                                                                                                                  ",
"                                                                                                                                  ",
"                                                                  ( `                                                             ",
"                                                            ~ I Y Y | o                                                           ",
"                                                        ^ K Y Y Y | 5 . +                                                         ",
"                                                      Q { Y Y Y { 5 . . .                                                         ",
"                                                      L 4 { { { 5 . . . . s                                                       ",
"                                                      P 4 4 4 4 . . . . .                                                         ",
"                                                      b Z 4 4 4 . . . . C v                                                       ",
"                                                      v Z B E B D x E B V y                                                       ",
"                                                      N F o.+.X.A l O.o.A M                                                       ",
"                                                        F o.X.G G G G G A                                                         ",
"                                                        F o.D @.$.$.o.S A h                                                       ",
"                                                      X B o.D G G G D S k .                                                       ",
"                                                      . O B G G B G S n O . &                                                     ",
"                                                s O O . @ m m c c z z k O @ . . * d                                               ",
"                                            _ J 4 O O . #.s . . k . . ..s o & 4 H 2 1                                             ",
"                                          ~ R | | O O O . o 4 $ . $ 4 . o 5 R H 4 4 2 ,                                           ",
"                                        _ R R R { | O O O K K K $ 4 K K K R R H H H H 4 1                                         ",
"                                        J R  .| K K O O . $ H H H ; R { { ] K 4 H [ K H 2 d                                       ",
"                                      ! R  .| R K 4 $ . . $ 4 4 4 ; R ] ] R K 4 Y [ { K H *                                       ",
"                                      R [ [ R K 5 ; $ . . . $ 4 2 $ ; K K 5 5 4 Y | | [ K 4 f                                     ",
"                                    ) E | | { 4 4 $ t t r . . $ $ $ $ $ ; ; ; 4 H Y Y Y H H u                                     ",
"                                    / } } R R 4 4 t s j s j s r $ $ $ $ $ $ $ $ ; H H H 5 4 ,                                     ",
"                                    W } } [ j j H s r r j j j j j r r $ $ $ $ $ H H { ] & & <                                     ",
"                                    U [ [ j j K A r @ @ @ r t s j j j s r $ $ H Y { ] K 4 & p                                     ",
"                                      [ | j [ A A c c k r @ @ @ @ r t s j j s r r j K 5 4 &                                       ",
"                                      ' [ j Y A A c # # $ s t @ $ @ @ @ @ r s j j o 5 & & 0                                       ",
"                                          7 5 A A c c # . s s @ . . A c k @ @ r r o & & 9                                         ",
"                                              k k k k # $ s s @ $ $ A A c c k & & & & u                                           ",
"                                                5 ; $ $ $ t s @ $ $ A A c c k $ . . g                                             ",
"                                                5 ; $ $ $ $ $ $ $ & k k k k # $ $ .                                               ",
"                                                5 H 4 4 ; $ $ . $ 2 4 4 4 Y 2 2 $ .                                               ",
"                                                6 H 5 5 ; $ $ . & 4 4 4 Y Y 5 5 $ .                                               ",
"                                                3 H 5 5 ; $ $ . 2 & 2 5 5 5 2 & $ .                                               ",
"                                                8 2 2 ; $ $ . . & 2 K K K K 4 ; $ -                                               ",
"                                                w H ; ; ; $ $ . $ K R R R R H 4 & 1                                               ",
"                                                w H ; ; ; $ $ . $ K R R R R H 4 & u                                               ",
"                                                q 5 ; ; $ $ $ . $ K R R R R K 4 & i                                               ",
"                                                  $ 2 2 $ $ $ . & K R R R R K 4 $                                                 ",
"                                                - 2 $ $ $ $ $ . . K K K Y Y K 4 $                                                 ",
"                                                = $ $ $ $ $ $ . $ Y Y Y Y H Y 5 $                                                 ",
"                                                - $ $ $ $ $ $ . 5 Y Y Y Y H Y Y $                                                 ",
"                                                i $ $ $ $ $ $ $ Y 2 K K K 4 & & 5                                                 ",
"                                                  + . . . . . . . 4 K K K 4 ; $ $ j                                               ",
"                                                    $ . . . . . . 4 5 5 5 4 ; $ .                                                 ",
"                                                    $ . . . . . . . ; ; ; ; $ $ .                                                 ",
"                                                    $ . . . . . . . . . . . . . .                                                 ",
"                                                    $ $ $ . . . . $ $ $ $ . . . .                                                 ",
"                                                    ; $ $ . . . . $ $ $ $ . . . .                                                 ",
"                                                    : $ $ . . . . $ $ $ $ . . . X                                                 ",
"                                                    a % - O e @ h $ $ $ $ . . . o                                                 ",
"                                                                  o $ $ $ . . . O                                                 ",
"                                                                    . . . . . .                                                   ",
"                                                                  = $ $ $ . . .                                                   ",
"                                                                j $ $ $ . . . . e                                                 ",
"                                                                > $ $ $ $ $ $ . X                                                 ",
"                                                                $ $ $ $ $ . . . .                                                 "
};
