/* XPM */
static char *_[] = {
/* columns rows colors chars-per-pixel */
"64 64 12 1 ",
"  c None",
". c #181818",
"X c #202020",
"o c #393939",
"O c gray26",
"+ c gray30",
"@ c #565656",
"# c #5B5B5B",
"$ c #626262",
"% c #6A6A6A",
"& c #727272",
"* c gray74",
/* pixels */
"                                                                ",
"                                                                ",
"                                                                ",
"                                                                ",
"                                                                ",
"                                                                ",
"                                                                ",
"                                                                ",
"                                                                ",
"                                                                ",
"                                                                ",
"                                                                ",
"                                                                ",
"                                                                ",
"                                                                ",
"                                                                ",
"                                                                ",
"                                                                ",
"                                                                ",
"                                                                ",
"                                                                ",
"                                                                ",
"                                                                ",
"                                                                ",
"                                                                ",
"                                                                ",
"                                                                ",
"                                                                ",
"                                                                ",
"                            &#  #&                              ",
"                            %#  #%                              ",
"                            $#oo#$                              ",
"                            ######                              ",
"                            ##  ##                              ",
"                            o# #oo                              ",
"                            o# #o.                              ",
"                            o# #o.                              ",
"                            o# #o.                              ",
"                            o# #o.                              ",
"                            o# #o.                              ",
"                            o# #o.                              ",
"                           #o# #o.#                             ",
"                           .o# #o..                             ",
"                         $#.o# #o..#$                           ",
"                        &o#.o# #o..#o&                          ",
"                        oo#.o ** oo#oo                          ",
"                       +.##oo# #o..##.+                         ",
"                      &.o#o.o# #o..o#o.&                        ",
"                      O.o#..o# #o...#o.O                        ",
"                     %..o#..o# #o...#o..%                       ",
"                     O..##..o# #o...##..o                       ",
"                    %..ooo..o# #o...ooo..%                      ",
"                    O.o.....o# #o......o.o                      ",
"                   %.o.   ..oo *oo..   .o.%                     ",
"                   Oo.## #.o......o.#*##.oO                     ",
"                   o.#o o#o........o#o o#.o                     ",
"                  +o#oo ##o........o## oo#o+                    ",
"                  o#ooo  ## *#oo*  ##  ooo#o                    ",
"                  ooo.o o#....oo....#o o.ooo                    ",
"                 ooo..o ##....oo....## #..ooo                   ",
"                 oo...#  #....##....#  #...oo                   ",
"                $o....  o#..........#o  ....o$                  ",
"                +.....  ##. *    * .##  .....+                  ",
"                &$@+Oo  $#X########X#$  oO+@$&                  "
};
