/* XPM */
static char *_5f3b021cfcd49dcaad0acdd106b68bbzWiWYAsTMhy8hZ6H_55[] = {
/* columns rows colors chars-per-pixel */
"79 65 13 1 ",
"  c None",
". c #101010",
"X c #4A294A",
"o c #6B637B",
"O c #FF5A5A",
"+ c #5A4A9C",
"@ c #7B63A5",
"# c #9473B5",
"$ c #B58CBD",
"% c #BDADBD",
"& c #FF9494",
"* c #DED6DE",
"= c #FFF7FF",
/* pixels */
"                                                                               ",
"                                                                               ",
"                                                                               ",
"                                                                               ",
"                                                                               ",
"                                                                               ",
"                                                                               ",
"                                                                               ",
"                                                                               ",
"                                                                               ",
"                                                                               ",
"                                                                               ",
"                                                                               ",
"                                                                               ",
"                                                                    +          ",
"                        X#+                      +X               ++$          ",
"                        X##+++      +X          +#X            +++$$#.         ",
"                         X##$$      +$  +X     +##X         ++$$$$#@@.         ",
"                          ###$++++  X$X +$X  ++###X      +++$$$$$#@+.          ",
"                         X####$$$$+ X$$X+$#X+#####X ++X +$$$$$$###+.           ",
"                         X###$$$$$$+X#$#X##+######X+##X+$$$$$$$##@+.           ",
"                          X###$$$$$X###+##############X$$$#$$$###++.           ",
"                           X##$#$$$X#################+##$#$$###++.             ",
"                            X##$#$+$$$#$$$#$#############$####@++.             ",
"                       .   X#####X$$$$$$$#$#$################@+++.             ",
"                      X$.X. X###.$$$$$$$$$#$#################++++.             ",
"                      X$$$$X ###.$$$$$$$$$#################@++++.         X    ",
"                      X$$$$XXX#.#$$$$$$$$$#################++++.      . .#X    ",
"                      X##$$$#X#.##$$$$$$$#################@+++..X.  ....##X    ",
"                     X###$$$#X.#######$##################@++++.X#...$$$$###    ",
"                    X#######$.#X####################+####@++++#####$#$$$X##XXX ",
"                    XXX#####+X##X###########$$####XX#####+++++###$#$$$X$X####. ",
"                      X####@+##+OX#########$$$##XOO+####++++++####$#$$$$X##.   ",
"                       X@#@++##+OOX+#######$$#.XOOO+####++++++###$####$$$$..   ",
"                        X+++X##+O&&.X######$$..&&OO+####@+++++@#######$$#.     ",
"                         +++.###+&&.OX#####+XO.&&&O+#####+++++###########.     ",
"                         X++.###+O&&&+######+&&&&&O+###+#@++++@#####@+@.       ",
"                         XX+.#+##+OO+########+O&&O+####X##+++++++#@+++.        ",
"                           X.#X################OO+###XX###++++++++++..         ",
"                           .###XX###################X%.###++++++++..           ",
"                           .###+%XX###############XX%=.###++++++.+@.           ",
"                            ###+%=oX############XX%===.##++++++++++.           ",
"                            X#++%=oXXXXXXXXXXXXXo====%.##+++++++++.            ",
"                            .##+=o===o====o==%==o====..#@+++++++++X            ",
"                            .##+=o===o====o====o====.###++++++++++X            ",
"                             X##+o===o====o====o===.####++++++++++X  X         ",
"                             .###+===%*===%*===%*==.###@++++++++++XXX+.        ",
"                              X###X===o====o====o=.###@+++++++++++X+++.        ",
"                             .#####===o====o====o.####++++++++++++X++..        ",
"                              .@###XX=o====o===XX####@+++++++++++X+++.         ",
"                              .+@####XXXXXXX=XX####@+++++++++++++X+++          ",
"                              X+++@#########X#####@++++++++++++XX++..          ",
"                              X++++++############@+++++++++++X+X+..            ",
"                              X+++X++@######@+#@+++++++@######.+.              ",
"                              X##++X+++++++++++++++++@#########.               ",
"                              ###@++X+++++++++++++++@#####$$$$##.              ",
"                             XX###+++..++++++++++++X######$$$$##.              ",
"                            .X#+##@++++...+++++++++X#######$$$##.              ",
"                             X#X+###+++X ....++++...X#######$###.              ",
"                             ..X####+.XX     ...     X##########.              ",
"                               .....+.                X########.               ",
"                                   .                   X######+.               ",
"                                                       X####+##+               ",
"                                                        X..##X..               ",
"                                                                               "
};
