/* XPM */
static char *_[] = {
/* columns rows colors chars-per-pixel */
"65 65 70 1 ",
"  c None",
". c black",
"X c gray6",
"o c #1B1B1B",
"O c #382810",
"+ c #202020",
"@ c #282828",
"# c gray20",
"$ c gray22",
"% c #403018",
"& c #483818",
"* c #493C2A",
"= c #584020",
"- c #684820",
"; c #704828",
": c #725035",
"> c #000058",
", c #000078",
"< c #484848",
"1 c #4E4E4E",
"2 c #5B5346",
"3 c #505050",
"4 c #5F5F5F",
"5 c #79695C",
"6 c #46467D",
"7 c #606060",
"8 c #6C6C6C",
"9 c #77726B",
"0 c #805028",
"q c #885830",
"w c #875F3D",
"e c #905830",
"r c #986038",
"t c #A06038",
"y c #8D6040",
"u c #846850",
"i c #A86840",
"p c #B07040",
"a c #B87848",
"s c #BC7951",
"d c #B07B5B",
"f c #837365",
"g c #897567",
"h c #82756B",
"j c #887669",
"k c #947965",
"l c #9F7C67",
"z c #917A69",
"x c #937E72",
"c c #A77C62",
"v c #C87848",
"b c #B88B70",
"n c #CD8756",
"m c #D08050",
"M c #F09058",
"N c #D89269",
"B c #EB9563",
"V c #F59761",
"C c #F79861",
"Z c #F89860",
"A c #000098",
"S c #0000A8",
"D c #0A0AAC",
"F c #0000B0",
"G c gray56",
"H c #989898",
"J c gray63",
"K c gray66",
"L c gray69",
"P c #D0D0D0",
/* pixels */
"                                                                 ",
"                                                                 ",
"                                                                 ",
"                                                                 ",
"                                                                 ",
"                                                                 ",
"                                                                 ",
"                                                                 ",
"                                                                 ",
"                                                                 ",
"                                                                 ",
"                                                                 ",
"                                                                 ",
"                                                                 ",
"                                                                 ",
"                                                                 ",
"                                                                 ",
"                                                                 ",
"                                                                 ",
"                                                                 ",
"                                                                 ",
"                                                                 ",
"                                                                 ",
"                                                                 ",
"                                                                 ",
"                                                                 ",
"                                                                 ",
"                                                                 ",
"                                                                 ",
"                                                                 ",
"                                                                 ",
"                                                                 ",
"                                                                 ",
"                                                                 ",
"                                                                 ",
"                      74                                         ",
"                 JPL 73111 #                                     ",
"                G+  731    3                                     ",
"                  +731  1..$                                     ",
"                 H+   .....1                                     ",
"                 LK+.....+                                       ",
"                L$.....1                                         ",
"                $...X3            jgj9                           ",
"                837           lVZZZZZvrZN                        ",
"                            xCZZZZZZZZv=ZZB                      ",
"                           cZZ;;aaaaZZZr@aZZb                    ",
"                          di>FS,>ZZZaZZp.vaarg                   ",
"                         cZ$$$3A>>ZZZ;Zp.vaiqih                  ",
"                         ZZ$$$$$..tZZ;t;.tt;Oqr                  ",
"                      dZZpp$$$$$..;tt;t;+0;O&;rw                 ",
"                  6DF,ZZZm;;$$$$..;;;==@OOOO=;qrf                ",
"                 $$$>>>mmmii$$$$$.====&OOOO=0;erq                ",
"                 $$$$...meq;;$$$$.%%%O*2gf   eeqq5               ",
"                 $$$$...e;;&&$$$$.            yeq;               ",
"                 $$$$...%%%%;&$$4              ee;               ",
"                 1$$$$.    Zmt;                ee0               ",
"                  $$$$o     t-                 --O               ",
"                  4$$$7     nqk                vr:               ",
"                   7$#       tu                Mvh               ",
"                             zg                sf                ",
"                                                                 ",
"                                                                 ",
"                                                                 ",
"                                                                 ",
"                                                                 "
};
