/* XPM */
static char *_[] = {
/* columns rows colors chars-per-pixel */
"65 65 74 1 ",
"  c None",
". c black",
"X c #090909",
"o c #1B1B1B",
"O c #202020",
"+ c gray14",
"@ c #272727",
"# c #282828",
"$ c #373737",
"% c gray22",
"& c #720F0F",
"* c #483818",
"= c #503818",
"- c #5B4527",
"; c #5C4629",
": c #684820",
"> c #000040",
", c #0F0F47",
"< c #14144A",
"1 c #1F1F4F",
"2 c #000058",
"3 c #22227B",
"4 c #30307B",
"5 c #3C3C7C",
"6 c gray26",
"7 c #484848",
"8 c #505050",
"9 c gray36",
"0 c #404064",
"q c #5C5C6E",
"w c #4A4A7C",
"e c #595976",
"r c #5C5C7D",
"t c #606060",
"y c #797064",
"u c #68767D",
"i c gray44",
"p c gray45",
"a c #A00000",
"s c #D31313",
"d c #E00000",
"f c #F80000",
"g c #805028",
"h c #905830",
"j c #986038",
"k c #A06038",
"l c #876F5D",
"z c #A86840",
"x c #B07040",
"c c #B87848",
"v c #F05050",
"b c #CA8053",
"n c #D08050",
"m c #D88850",
"M c #E88858",
"N c #F09058",
"B c #F89860",
"V c #F8A070",
"C c #0000A8",
"Z c #0000B0",
"A c #929292",
"S c #979797",
"D c #989898",
"F c gray64",
"G c gray66",
"H c gray69",
"J c #F8B080",
"K c #F8B890",
"L c #F8D0B8",
"P c #C0C0C0",
"I c #D0D0D0",
"U c #D8D8D8",
"Y c gray91",
"T c #F8F8F8",
/* pixels */
"                                                                 ",
"                                                                 ",
"                                                                 ",
"                                                                 ",
"                                                                 ",
"                                                                 ",
"                                                                 ",
"                                                                 ",
"                                                                 ",
"                                                                 ",
"                                                                 ",
"                                                                 ",
"                                                                 ",
"                                                                 ",
"                                                                 ",
"                                                                 ",
"                                                                 ",
"                                                                 ",
"                             rw543330                            ",
"                           sfvfdddaaa&                           ",
"                          p.88GTTG8%+6                           ",
"                          pC#.......%t                           ",
"                           %pPG 88%%%                            ",
"                           -:jZkgZj:;                            ",
"                           lcVKNxKVcl                            ",
"                            cmVVVVmc                             ",
"                            gNKLLKNgX                            ",
"                           +gMVVVVMg..p                          ",
"                           %Y%hkkk=. .                           ",
"                         p77%H+....G.  Dp                        ",
"                         U 77+.pp...PHGSpt                       ",
"                        UTH #.HTHTPPPIDSttp                      ",
"                       DTTT 8#+   GIIH p88t                      ",
"                       ITTH  8## t S   p7%9                      ",
"                      SITUHt  7##tpDDS 8%88                      ",
"                      FITUHtt MBx=tp p77%88                      ",
"                      GITTD GJJKmj.%777%%78                      ",
"                      FTTGUUTJVVMz+.#++.:zt                      ",
"                       TTUTTTGmnzg......:ny                      ",
"                       ITUHH  7***....+#:b                       ",
"                        SS tt7###%%%%%77%                        ",
"                          t87$%#7p    p7%                        ",
"                          pt8877t DGPPHp7                        ",
"                           pt88%p DGIIHp7                        ",
"                         t  t887pt    t88                        ",
"                         Dtt7777t UUUU t9                        ",
"                         D pt88t GUUUU  p                        ",
"                         S pt88t GUUUU  p                        ",
"                         S pt88t GUUUUG                          ",
"                         S pt88t GUUUUGt                         ",
"                         p p9788 GPPPPHt                         ",
"                          ppp787 HHHDDHt                         ",
"                          77777pHp    pH                         ",
"                          $%%%% pt    7t                         ",
"                           ++++%78tttt79                         ",
"                           ....+$8ttt87t                         ",
"                           >>..........                          ",
"                           >......>>...                          ",
"                           ,>>>..2>>...                          ",
"                           e<#68 2>>..o                          ",
"                                 .....7                          ",
"                                 >>>..                           ",
"                                q>>>>>9                          ",
"                                1>>>>>o                          ",
"                                >>>>>>.u                         "
};
