/* XPM */
static char *_600746956694fba956b54b764dea6e65QXNtyjREpDNW4xB_66[] = {
/* columns rows colors chars-per-pixel */
"52 41 15 1 ",
"  c None",
". c #101010",
"X c #730019",
"o c #5A3119",
"O c #5A5221",
"+ c #D63A4A",
"@ c #A55A5A",
"# c #847B4A",
"$ c #C57342",
"% c #FF6B5A",
"& c #B5AD73",
"* c #DE9C5A",
"= c #FFAD94",
"- c #E6E6B5",
"; c white",
/* pixels */
"                                                    ",
"                                                    ",
"                                                    ",
"                                                    ",
"                            @                       ",
"                          oo*@@ooo                  ",
"                        oo*******oo                 ",
"                       .**********$                 ",
"                      o.$***;*****$o                ",
"                      o$$$**.****$$$o               ",
"                     XX$$$$$.***$$$$$o              ",
"                   X+==XXX$$.$$$$$$$$o              ",
"                   .+%==%XX$$ooo$o$@@oo             ",
"                   X++%%++ooo***o$o@@o              ",
"                    X.++oo********o@@o              ",
"           @@ @@@   o$..o*******o***oo              ",
"          @******oo .$$$o*o***oo$**$oo              ",
"         @*********oo$$o**;o***;**$$@o              ",
"        @@o*********$$$o**.****.*$$$@o              ",
"       @$*o*********$oo$$$.**$$.$$$$$@o             ",
"       @$*;o***oo***$$o$$$$$$$XX$$$$$@.             ",
"       o$$.***o;****$o$o$$$XXX%XX$$$$@.             ",
"      oo$$.$***.***$$$o$$$X==%%+.$$$@@.             ",
"      .$$XXX$$..*$$$$$o$$$+%%%+XX$$$$@@.            ",
"      .$X=%%XX$$$$$$@oo$$$X+++..X$$$$@@.            ",
"      .$+%%+%XX$$$$$@@..@$$$..$$$$$$@@@             ",
"      o$X+++++.$$$$@@@..@$$$$$$$$$$@@@.             ",
"      .o....XX$$$$$@@@..@@$$$$$$$$@@@@..            ",
"      oo@$$.X$$$$@@@@..o@@@@$$@@@@@@@@@. ...        ",
"    OO o@@@$$$@$@@@@@...@@@@@@@@@@@@@@@..O&#.       ",
"   O--O@@@OOO@@@@@@@@OOO.@@@@@@@@@OOOO..#&&&#.      ",
"  #---&OOO---O@@@@@@O--&&.@@@@@@@O--&&O.#&&##.      ",
" OO--&&O#----&OOOOOO&---&&O@@OOO.---&&#.#####O..    ",
"O###&&O#---&&#.&&&&.#---&&&OO&&&.--&&###O####O##.#. ",
" &&&&###&&&&##.&&&##.&&&&##O#&&#.&&&####.OO.####.&&.",
"&&&&&&##&&&&##.#&###.&&####O#####&&###O.#&&#.#&&&&& ",
" &&&& &&#####&#.###########&&&######OO###&&##.#& &  ",
"   & & &&&&&&&&#######&&&&&&&&&&&&###########O& &   ",
"    & &  &&&&&& & & #&#&&&&&&&& & & #### # ##       ",
"         &&&&&   & & & &&&&& & & & &    # # #       ",
"          &&&         & &&& & &          #          "
};
