/* XPM */
static char *_[] = {
/* columns rows colors chars-per-pixel */
"65 65 137 2 ",
"   c None",
".  c black",
"X  c #080000",
"o  c gray4",
"O  c #100000",
"+  c #180000",
"@  c #180909",
"#  c #111111",
"$  c #1F1212",
"%  c #280000",
"&  c #300000",
"*  c #3C1E1E",
"=  c #282008",
"-  c #382810",
";  c #202020",
":  c #282828",
">  c #332323",
",  c gray19",
"<  c #3A3030",
"1  c gray22",
"2  c #400000",
"3  c #480000",
"4  c #500000",
"5  c #540C0C",
"6  c #501515",
"7  c #541B1B",
"8  c #600000",
"9  c #680000",
"0  c #6A0909",
"q  c #403018",
"w  c #483818",
"e  c #503818",
"r  c #572E2E",
"t  c #463A26",
"y  c #403A28",
"u  c #4A3232",
"i  c #4F3838",
"p  c #612E2E",
"a  c #613838",
"s  c #723838",
"d  c #4C412F",
"f  c #574226",
"g  c #584020",
"h  c #5D4B33",
"j  c #524738",
"k  c #524839",
"l  c #684820",
"z  c #6B4E2B",
"x  c #704828",
"c  c #004040",
"v  c #1C4E4E",
"b  c #005858",
"n  c #155E5E",
"m  c #265353",
"M  c #2D5757",
"N  c #355A5A",
"B  c #3C5E5E",
"V  c #006868",
"C  c #1D6161",
"Z  c #007070",
"A  c #007878",
"S  c #1F7474",
"D  c #206262",
"F  c #2C7575",
"G  c #3F7878",
"H  c #444444",
"J  c #4B4343",
"K  c #484848",
"L  c #584F42",
"P  c #594848",
"I  c #5D554A",
"U  c #505050",
"Y  c gray36",
"T  c #614F4F",
"R  c #6D4E4E",
"E  c #615947",
"W  c #725E45",
"Q  c #6F5858",
"!  c #6C6254",
"~  c #6A645B",
"^  c #766857",
"/  c #776A5B",
"(  c #786D5F",
")  c #436161",
"_  c #4A6F6F",
"`  c #4E7070",
"'  c #547272",
"]  c #5D7575",
"[  c #577979",
"{  c #5E7C7C",
"}  c #606060",
"|  c #6E6D6D",
" . c #736767",
".. c #796464",
"X. c #706B62",
"o. c #786D60",
"O. c #746969",
"+. c #7C6C6C",
"@. c #797064",
"#. c #77736C",
"$. c #63747D",
"%. c #6A767E",
"&. c #6A7D7D",
"*. c #717171",
"=. c #805028",
"-. c #885830",
";. c #986038",
":. c #A06038",
">. c #A86840",
",. c #B07040",
"<. c #B87848",
"1. c #C87848",
"2. c #D08050",
"3. c #D88850",
"4. c #E88858",
"5. c #F09058",
"6. c #F89860",
"7. c #F8A070",
"8. c #008080",
"9. c #118181",
"0. c #009898",
"q. c #2B8080",
"w. c #488080",
"e. c #578080",
"r. c #588080",
"t. c #668080",
"y. c gray58",
"u. c #989898",
"i. c gray66",
"p. c gray69",
"a. c #F8B080",
"s. c gray78",
"d. c #CACACA",
"f. c gray84",
"g. c #DADADA",
"h. c #E4E4E4",
"j. c gray91",
/* pixels */
"                                                                                                                                  ",
"                                                                                                                                  ",
"                                                                                                                                  ",
"                                                                                                                                  ",
"                                                                                                                                  ",
"                                                        u.p.d.g.h.h.h.g.s.y.                                                      ",
"                                                    s.  i.j.j.  K K 1 1 1 ; $.*.                                                  ",
"                                                  f.u.U j.j.  : K K K K K 1 ; $.*.                                                ",
"                                          Q 6 3 3 j.X K j.j.x ; : : : K K x ; X 1 % 2 r O.                                        ",
"                                        a + % % % j.. K j.j.x w ; ; ; : K >.; X . % % % 2 %  .                                    ",
"                                      +.+ 2 . X X j.X K j.1.1.1.:.x ; x ; >.; X 1 X X X X 2 X                                     ",
"                                      a 2 . X $.$.j.$.1 j.a.7.2.2.2.2.x ; -.; $.} $.$.$.X X % *.                                  ",
"                                      3 % X $.$.$.j.$.-.j.x x 4.7.5.a.x x -.  $.} $.$.$.$.% % |                                   ",
"                                      3 % X $.$.$.j.$.,.j.*.. : =.g : ; *.<.} $.} $.$.$.$.2 % |                                   ",
"                                      6 % X $.$.$.j.$.-.j.,.>.>.4.<.>.>.,.<.} $.U $.$.$.$.2 % *.                                  ",
"                                      P % X $.$.$.j.$.$.j.4.6.a.a.3.6.6.4.<.U $.U $.$.$.$.2 %                                     ",
"                                        % X X $.$.j.$.$.p.>.3.:.g g :.1.>.l U $.U $.$.$.2 % X                                     ",
"                                        u % X X $.p.$.$.p.>.1.:.;.;.:.1.-.l K K U $.$.2 % % X                                     ",
"            +.p 5 i                     &.% % X X p.$.$.p.;.,.e X X e ,.l l K K U $.$.% % X $.                  ..p R             ",
"          s 4 4 4 4 *               [ n b b b b b c : $.p.;.,.X O O X ,.l w K : : c c b b c . &.              0 & & O <           ",
"        s K K 8.Z 1 & O ; : : : : 8.Z Z Z Z Z Z Z Z c : } ;.>.=.% % =.>.l w : : c c c Z Z Z c . ; : : : : O 9 K K K K : J         ",
"      +.U 1 8.. ; b 1 O ; : 1 1 8.A A A A A A A A A Z c : : -.>.>.>.>.-.: : : c c c b Z A A A c . ; 1 1 1 8.Z K K K K 8.Z |       ",
"      Y 1 1 Z ; ; b : 1 ; : 1 8.Z V V V V V V V V V V V V c : : : : : : : c c c c b V V V V V V c . ; 1 8.. ; b 1 K 8.. ; C       ",
"      1 1 1 1 b b ; : 1 1 : 8.Z V V V V V V V V V V V V V V V : : : b V V V V V V V V V V V V V V c . ; Z ; 1 b 1 K Z ; 1 b       ",
"      8.Z 1 1 . . : 1 8.Z 1 Z b b b b b b b b b b b b b b b b : c c Z b b b b b b b b b b b b b b b c ; K b b : . . K b b :       ",
"      . ; b . . . . 8.. ; b b b b b b b b b b b b b b b b b b : c c Z b b b b b b b b b b b b b b b b ; K K 1 . . . ; K 1 1 *.    ",
"    &.; ; b : . . 1 Z ; ; b c c c c c c c c c c c c c c c c c : , , b c c c c c c c c c c c c c c c c ; K 8.Z K ; ; K 8.Z K |     ",
"    *.b b ; : 8.Z 1 1 b b c b c c b b b b b b b b b b b b : c : , , b c c b b b b b b b b b b b : c : ; 8.. ; b 1 K 8.. ; b |     ",
"      1 : : 8.. ; b : : ; . b c c c : : : : : : : : : : : c c : , , b c c c : : : : : : : : : : c , : ; Z ; 1 b 1 K Z ; 1 b       ",
"      & 1 1 Z ; ; b : X     c b c c b b b b b b b b b b b : c : , , b c c b b b b b b b b b b : c : ,     b b : 1 K K b b X       ",
"      8 & 1 1 b b ; X X     : b c c c : : : : : : : : : : c c : , , b c c c : : : : : : : : : c , :       8 : : : : : : X X       ",
"      X . . . . . . . .       b c c c c c c c c c c c c c c c : , , b c c c c c c c c c c c c c : H       X . . . . . . . .       ",
"      4 & K K K 1 1 & X       ) b c c c c c c c c c c c c c c : , , b c c c c c c c c c c c c c :         4 & K 8.Z K : & X       ",
"      4 8.Z 1 1 1 1 8.Z         b c c c c c c c c c c c c c c : , , b c c c c c c c c c c c c , ,         4 U 8.. ; b 1 : X       ",
"      8.. ; b 1 1 8.. ; ]       B c c c c c c c c c c c c c c : , , b c c c c c c c c c c c c : Y         U K Z ; 1 b 1 K :       ",
"      Z ; ; b : 1 Z ; ; `         b c c c c c c c c c c c c c : , , b c c c c c c c c c c c c :         Y U K K b b : 1 K K *.    ",
"      1 b b ; . . 1 b b U         : : : : : : : : : : : : : : ; . . ; : : : : : : : : : : : : :         8.Z K K . . 1 K 8.Z       ",
"      1 1 : . . . . 1 : U         %.. . . . . . . . . . . . . . . . . . . . . . . . . . . . . $.      r.. ; b . . . ; 8.. ;       ",
"      1 8.Z 1 . . 1 8.Z Y       T & & & & & & & & & & & & & % % % % % + + + + + + + O O O X X . U     { ; 1 b 1 ; ; K Z ; 1       ",
"      8.. ; b 1 1 8.. ; _       > . . . . . . . . . . . . . . . . . . . . . . . . . . . . . . . }       D b : 1 8.Z K K b b       ",
"      Z ; ; b : 1 Z ; ; ]       S b ; . . . . . . . . . . . . : : . . . . . . . . . . . . . .             1 1 8.. ; b 1 K :       ",
"      3 b b ; : 1 1 b b         F b ; ; ; ; ; ; ; ; ; ; ; ; ; : : Z b b b b b b b b b b b b b b '         3 K Z ; 1 b 1 : .       ",
"      3 & : : 1 1 1 & o         G b b b c c c c c c c c c c c c c Z b b b b b b b b b b b b b b C         7 & 1 b b ; : & o       ",
"      +.< $ X X X # , *.        ' : : : : : : : : : : : : : : : ; c c c c c c c c c c c c c c c v           J @ X X X . 1         ",
"                                ] : : : : : : : : : : : : : : : ; c : : : : : : : : : : : : : : M                                 ",
"                                  ; ; ; ; ; ; ; ; ; ; ; ; ; ; ; ; c Z b b b b b b b b b b b b : N                                 ",
"                                  b : : : : : : : : : : : : : ; $.c Z b b b b b b b b b b b b : m                                 ",
"                                  b : : : : : : : : : : : : : ; $.$.Z b b b b b b b b b b b b : $.                                ",
"                              e.Z b : : : : : : : : : : : : : ; $.$.8.Z Z Z Z Z Z Z Z Z Z Z Z Z Z &.                              ",
"                              0.8.b , , , , , , , , , , , , , ; $.$.0.0.0.0.0.0.0.0.0.0.0.0.0.0.0.Z                               ",
"                            y.0.Z b b b b b b b b b b b b b c : : K 0.8.8.8.8.8.8.8.8.8.8.8.8.8.8.b }                             ",
"                              8.c c c c c c c c c c c c c c c : 1 U 8.Z Z Z Z Z Z Z Z Z Z Z Z Z Z c Y                             ",
"                            *.Z c , , , , , , , , , , , , , , : : 1 Z b b b b b b b b b b b b b b : Y                             ",
"                          t.8.b : : : : : : : : : : : : : : : : ; $.b c c c c c c c c c c c c c c :                               ",
"                          w.Z c ; ; ; ; ; ; ; ; ; ; ; ; ; ; ; ; ; $.c : : : : : : : : : : : : : : *.                              ",
"                          q.Z Z Z c ; ; ; ; ; ; ; ; ; ; ; ; : : ; $.$.$.: c c c c c c c c c c :                                   ",
"                          9.Z Z Z c : ; ; ; ; ; ; ; ; ; ; ; : : ; $.$.$.Z b b b b b b b b b b :                                   ",
"                          8.Z Z Z b c : : : : : : : : : : : : : ; $.$.$.Z b b b b b b b b b b :                                   ",
"                          8.Z Z Z Z b c ; ; ; ; ; ; ; : : : : : ; $.$.$.Z b b b b b b b b b b :                                   ",
"                          8.Z Z Z Z Z c $.$.$.$.$.$.$.: : : : : ; $.$.$.Z b b b b b b b b b b :                                   ",
"                          8.Z Z Z Z Z c w q - - - - - : : : : : ; Z Z Z Z b b b b b b b b b b : c c c v y j E ! @.                ",
"            / W h f w q - Z : : : : : : = = = = = = = ; ; ; ; ; ; Z Z Z Z Z Z Z Z Z Z Z Z Z Z Z Z Z Z c = = = = = - w e W         ",
"    o.z e e w q - - - - - = = = = = = = = = = = = = = = = = = = = Z Z Z Z Z Z c c c c c c Z Z Z Z Z Z c = = = = = = - - w e ^     ",
"              #.X.X.~ ! I L k d t q - - - - - - - - - - - - - - - 8.Z Z Z Z Z c c c c c c 8.Z Z Z Z Z c q q q q q q w w h (       ",
"                                                            &.%.$.Z c c c c c $.$.$.$.$.$.Z c c c c c : %.&.                      "
};
