/* XPM */
static char *_fbc6983a9924049fb4d42a1ea75080aAJnM5QLMYKi5wDYs_34[] = {
/* columns rows colors chars-per-pixel */
"81 58 13 1 ",
"  c None",
". c #101010",
"X c #193A73",
"o c gray32",
"O c #7B7B7B",
"+ c #3A5A84",
"@ c #3A73AD",
"# c #5284C5",
"$ c #A5A5A5",
"% c gray74",
"& c #8CA5E6",
"* c #D6D6DE",
"= c white",
/* pixels */
"                                                 +++                             ",
"                             +++               ++###XX                           ",
"                           ++###X.            X##+XX+#.                          ",
"                          ++#XXX##..         X##X+###X#.                         ",
"                          +#+###X###XXXXXXXX+##X####XX+#.                        ",
"                         +#X++##+###&&&#######++#XX==$.#.                        ",
"                         +#+==.+#X#&&&&&######X#X.====.##.                       ",
"                        X#X===.=+X##&&&#######XX=.====.###.                      ",
"                        X#X======+############X======$X####.                     ",
"                        X#+$====+##############+=====X######..        oooo       ",
"                       X###X*==+####.###..#####+X==$X########..      o%===oo     ",
"                      X+####+XX#####+###++#######XXX##########+.    o*======o    ",
"                      X######+++++############++++##############.  o%%*======o   ",
"                     X######+*===*++########++*==*XX#############. o%%%...===o   ",
"        oooo        X######X=======*++++++++*======*X#############.O%..%==OO==o  ",
"     ooo%===oo     X###.##X%=========================X############.O.%*====%O=o  ",
"   oo%======*%.   X####.##X=======o........o*========X####+######.=.%%*========o ",
"  o%========*%.   X###.##X*=====o...oooo.....o*======*X#++#+#####.=.%%*========o ",
"  o=========*%%. X####.##X=*===o..o=======*o..o=======X+##+#+###.==.%%%*=======o ",
" o%===%====*%%%. X###.++#X*=*=o..==o....oo==*o.o======*X++#++++#.=%.%%%*=======. ",
" .====.===*%%%%..####.+++X=*=*..==o........o=*..=====**X++++++++.=%.%%%...O====. ",
" .=====.=*%%%%%.#..#+.+++X*=*o.o=o..****oo..o*o.o==****X++.+++++.%%%.%.O*==O===. ",
" .======.%%%%%%.###.+.+++X**=..==o.=*.oo***..**..******X+++.+++++.%%%.%%*======. ",
".======*%..%%%.%.##.+.+++X***..==.o=o...oo*o.o*..******X++++.++++.%%%.%%%*====.  ",
".==%==*%%%%...%%.##++.++++X**..=*.o*.o*o..**o.*o.******X+++++.++++.%%.%%%%%*==.  ",
".==%=*%%%%%%.%%%.++++.++++X**..=*.o**o**..**o.*o.*****X++++++...+++.%.%%%%%%%.   ",
".===.*%%%%%%.%%%.++++.++++X**o.o*..o***...**o.*o.*****X++++++.  .......%%%%..    ",
".%===..%%%%.%%%.+++++.+++++X**..**o.ooo.oo**.o*.o****X+++++++.         ....      ",
" .==**%....%%%.+++++++.++++X**o..**o...o***..*o.o***X++++++++.                   ",
" .=*%%%%%%...X++++++++.+++++X**o.o********..o*.o****X+++++++.                    ",
"  .O%%%%..   ...+++++..++++++X**o...oooo...o**oo***X++++++++.                    ",
"   .....        .....  .++++++X***o.....oo********X+++++++++.                    ",
"                       .+++++++XX***************XX+++++++++.                     ",
"                        .++++++++XX**********XXX+++++++++++.                     ",
"                         .+++++++++XXXXXXXXXX+++++++++++++.                      ",
"                          .++++++++++++++++++++++++++++++.                       ",
"                           .+++++++++++++++++++++++++++++.                       ",
"                           .+++++++++++++++++++++++++++++.                       ",
"                           .+++XX++++++++++++++++++++++++.                       ",
"                          .++++++X..+++++++++++...+++++++.                       ",
"                          .+++++++. ...........  .++++++++.                      ",
"                         .+++++++.                .+++++++.                      ",
"                         .++++++.                 .+++++++.                      ",
"                        .++++++.                   .+++++++.                     ",
"                        .++++++.                   .+++++++.                     ",
"                       .++++++.                     .+++++++.                    ",
"                    X..+++++++.                     .+++++++.                    ",
"                  XX+####+++++.                      .+++++++.                   ",
"                 X&&######+++++.                     .+++++XXXXX                 ",
"                X&&&&#####+++++.                    .++++XX+###@XX               ",
"               X+#&&#####++++++.                    .++++++&&####@X              ",
"               X++######++++++.                     .+++++&&&&####+X             ",
"               X++++++++++++..                      .+++++#&&#####++X            ",
"                ..+++++++...                         .+++++######+++X            ",
"                  .......                             ..++++++++++++X            ",
"                                                        ...++++++++.             ",
"                                                           ........              ",
"                                                                                 "
};
