/* XPM */
static char *_ca2021ec56445509b6e9bf2e2c98df3DUKdvTp6wsHBMv7V[] = {
/* columns rows colors chars-per-pixel */
"16 16 12 1 ",
"  c None",
". c gray9",
"X c #181818",
"o c #393939",
"O c #5A5A5A",
"+ c #63747C",
"@ c #63747D",
"# c #7B7B7B",
"$ c #845231",
"% c #EF7B18",
"& c #C6734A",
"* c gray74",
/* pixels */
"                ",
"                ",
"                ",
"                ",
"                ",
" oXoooooXXXXX   ",
" #O#####O$$$$X  ",
" *#*****#&%%&$  ",
" #O#####O$&&$$  ",
" oXoooooXX$$XX  ",
" X@XX.X.@       ",
"                ",
"                ",
"                ",
"                ",
"                "
};
