/* XPM */
static char *_[] = {
/* columns rows colors chars-per-pixel */
"65 65 122 2 ",
"   c None",
".  c black",
"X  c #090101",
"o  c gray6",
"O  c #100000",
"+  c #100808",
"@  c #111111",
"#  c #1E1212",
"$  c #181818",
"%  c #280000",
"&  c #300000",
"*  c #221515",
"=  c #241B1B",
"-  c #371515",
";  c #282008",
":  c #382810",
">  c #202020",
",  c #282828",
"<  c #332E2E",
"1  c gray19",
"2  c #3D3434",
"3  c gray22",
"4  c #400101",
"5  c #490101",
"6  c #440808",
"7  c #500000",
"8  c #4D1A1A",
"9  c #511616",
"0  c #581515",
"q  c #591818",
"w  c #600000",
"e  c #680000",
"r  c #6D1A1A",
"t  c #403018",
"y  c #483818",
"u  c #503818",
"i  c #412525",
"p  c #4C3E20",
"a  c #433A3A",
"s  c #583030",
"d  c #533F3F",
"f  c #612D2D",
"g  c #702B2B",
"h  c #633434",
"j  c #653939",
"k  c #584020",
"l  c #684820",
"z  c #704828",
"x  c #735238",
"c  c #004040",
"v  c #0A4545",
"b  c #164B4B",
"n  c #005858",
"m  c #215050",
"M  c #006868",
"N  c #007070",
"B  c #097171",
"V  c #107373",
"C  c #1B7373",
"Z  c #296565",
"A  c #376969",
"S  c #3E7878",
"D  c gray26",
"F  c #4C4545",
"G  c #484848",
"H  c #524B4B",
"J  c gray32",
"K  c #5B5B5B",
"L  c #755943",
"P  c #695252",
"I  c #675C5C",
"U  c #715757",
"Y  c #7A5D5D",
"T  c #6E675B",
"R  c #796657",
"E  c #456363",
"W  c #4A6F6F",
"Q  c #557B7B",
"!  c gray39",
"~  c gray42",
"^  c #7A6565",
"/  c #706969",
"(  c #7A6B6B",
")  c #63747D",
"_  c #6A777E",
"`  c #667C7C",
"'  c #727171",
"]  c #805028",
"[  c #885830",
"{  c #875D3B",
"}  c #905830",
"|  c #986038",
" . c #A06038",
".. c #866245",
"X. c #856A53",
"o. c #846C58",
"O. c #A86840",
"+. c #B07040",
"@. c #B87848",
"#. c #A07556",
"$. c #937562",
"%. c #917A69",
"&. c #C87848",
"*. c #D08050",
"=. c #D88850",
"-. c #E88858",
";. c #F09058",
":. c #F89860",
">. c #F8A070",
",. c #008080",
"<. c #098080",
"1. c #009898",
"2. c #388080",
"3. c #508080",
"4. c #989898",
"5. c gray66",
"6. c gray69",
"7. c #F8B080",
"8. c #F8B890",
"9. c #C0C0C0",
"0. c #D0D0D0",
"q. c #D8D8D8",
/* pixels */
"                                                                                                                                  ",
"                                                                                                                                  ",
"                                                                                                                                  ",
"                                                                                                                                  ",
"                                                                                                                                  ",
"                                                                                                                                  ",
"                                                            ! K G G D K '                                                         ",
"                                                        ! J J G G G 3 3 3 G                                                       ",
"                                                        3 3 3 , , , 3 3 G 3 '                                                     ",
"                                                      ~ O.:.[ y > > , , 3 z J                                                     ",
"                                                      K *.:.:.:.:.:.=.[ > O.D                                                     ",
"                                                      J *.7.>.:.:.:.:.7.;. .3                                                     ",
"                                                      D &.[  .-.>.;.7. .[  .D                                                     ",
"                                                      ..@.' . , | ] , > ' | o.                                                    ",
"                                                      #.:.7.8.7.>.=.7.8.7.*.%.                                                    ",
"                                                      X.:.:.:.:.7.=.:.:.:.*.                                                      ",
"                                                        *.@.;.@.] ] @.;.@.[                                                       ",
"                                                        *.+.;.@.| | @.;.+.]                                                       ",
"                                  P 6 D               _ *.&.;.O.[ [ O.;.q.q.                                                      ",
"                                  i O X               . | &.>.>.7.>.:.:.&.  0.                    s 8 '                           ",
"                                  d O O H         z  .. ] 0.0.=.@.+.=.=.O.y   ! J               4 4 O *                           ",
"                                  I O O X     G . .  .. . | ] 0.l l l l l . .   k k x R       4 4 4 O #                           ",
"                                    % O [ q.O., , ,  .0.. . u -.O.} u u . . . t t t y k k O O O 4 % O H                           ",
"                ^ h j /             [ O.| [  .y , 0.0. .. 4.. . . . . . ' 0.k k k k y y k k z O O O =                             ",
"              g 7 7 7 7 -       $.O.O.O.O.|  .l > > >  .l q.q.. . . . ' . ! 0.k k z q.[ [ ] l l z k                               ",
"            g G G G 3 3 & O O.O.O.O.O.O.O.} [  .y > > t  .q.q.. 6.t . . k k 0.[ [ [ 4.q.[ l ] [ [ z T     ^ f U                   ",
"          Y ,.N 3 3 3 3 ,.N O.O.[ O.O.O.| [ q. .l > > > t | q.q. .u l [ [ [ +.+.O. .q.q.6.k [ [ [ [ k   r & & O a                 ",
"          <.. > n 3 3 ,.. > n [ l [ | | [ [ l  . . .> > > t  .q. .l u | | | +.z z z z 4.q.] | | 0.[ z e G ,.N G , F               ",
"          N > > n , 3 N > > n O.[ l [ [ [ [ y l | | | > > > t z | [ q.6.| | l u y y y y k | | | | [ e J ,.. > n 3 , !             ",
"        ' 3 n n > . . 3 n n 3 [ l u l l l l t y 9.[ [ 0.> > 0.t z z u z z z  .9.} k z t k ] | | | | J G N > 3 n 3 G ,             ",
"        ~ 3 3 , . . . . 3 , 3 l l u l l l l y y l l l q.' > > > > u u z z z  .z } k z t k ] 9.| | | J G G n n , 3 G G !           ",
"        ~ 3 ,.N 3 . . 3 ,.N ,.,.,.,.,.,.,.,.,.,.n ' J k k k > > > > : t y z z y ,.,.,.,.,.,.,.,.n N N G G . . 3 G ,.N G           ",
"        ~ ,.. > n 3 3 ,.. > ,.n n n n n n n n n n c k k k k k > > > > > y y : M ,.M n n n n n n n c > n . . . > ,.. > A           ",
"          N > > n , 3 N > > ,.n n n n n n n n n n n c : : : : : : ; ; > > > ,.,.M n n 0.5.n n n n n 3 n 3 > > G N > 3 W           ",
"          & n n > , 3 3 n n N n c c c c c c c c c c c c c c n , c c N M n n c c c c c c ' J c c c c n , 3 ,.N G G n n ~           ",
"          ( + , , 3 3 3 X X n c c c c c c   c c c c c c c c c , 1 1 n c c c c c c c c c c ' c c c c 3 3 ,.. > n 3 G ,             ",
"                 .z z z k   n 1 1 1 1 1 1 1 1 1 1 1 1 1 1 1 1 > , , c 1 1 1 1 1 1 1 1 1 1 1 1 1 1 1 & G N > 3 n 3 , =             ",
"                | [ [ z k   c , , , , , , , , , , , , , , , , > , , 1 , , , , , , , , , , , , , , , w & 3 n n > , X '             ",
"                  { [ L     m , , , , , , , , , , , , , , , , > , , 1 , , , , , , , , , , , , , , ,      .z z z k                 ",
"                              , , , , , , , , , , , , , , , , > , , 1 , , , , , , , , , , , , , , J     | [ [ [ k                 ",
"                              E , , 1 1 1 1 1 1 1 1 1 1 1 > , > > > , , , 1 1 1 1 1 1 1 1 1 1 > 1         ..[ ..                  ",
"          1 @ . . . @ D         D > > > > > > > > > > > > > > . > > , > > > > > > > > > > > > >                                   ",
"        q & G G ,.N 3 & <         v > > > > > > > > > > > > > . > > , > > > > > > > > > > > > '                                   ",
"        7 J 3 ,.. > n 3 .           > > > > > > > > > > > > > . ; : > > > > > > > > > > > > K                                     ",
"        J 3 3 N > > n , 3         n > . ) ) l k y t t t t : : ; ; : t y y y y y y y y t t )               3 @ . . . o 1           ",
"      ' 3 3 3 3 n n > , 3 G     S n > . ) ) l k y t t t t : : ; ; : t y u y y y y y k y t               0 & G G G G , & #         ",
"      ~ ,.N 3 3 . . , 3 ,.N     C n > . ) ) l k y t t t t : : ; ; ) y u k k u u k k k k t               ,.N G G G G ,.N X         ",
"      3.. > n . . . . ,.. >     N n > . . . . . . . . . . . . . . ) k k k y y y y y u k k T           2.. > n 3 G ,.. > n         ",
"      Q > > n , . . 3 N > >     N n > > > > > > > > > > > > . . . ) k k y y y y y y y k k p           N > 3 n 3 G N > 3 n ~       ",
"      ~ n n > , ,.N 3 3 n Z     N n n n c c c c c c c c c c c c c N N N N N N N N N N N N N N B `     G n n , . . G n n , !       ",
"        3 , , ,.. > n , ,       n > , , , , , , , , , , , , , , > n c c c c c c c c c c c c c c c   J G G 3 . . . > G 3 3 K       ",
"        5 3 3 N > > n , .       N n > > > > > > > > > > > > > > > n n n n n n n n n n n n n n n c ) J G ,.N G > > G ,.N G !       ",
"        9 & 3 3 n n > & .       N n , , , , , , , , , , , , , , ) c ,.N N N N N N N N N N N N N N n 3 ,.. > n 3 G ,.. > n ~       ",
"          2 # X X X . . . ,.,.,.N n , , , , , , , , , , , , , , , c 1.1.1.1.1.1.1.1.1.1.1.1.1.1.1.N   V > 3 n 3 G N > 3 n         ",
"                          ,.,.1.,.n 1 1 1 1 1 1 1 1 1 1 1 1 1 , 3 6.1.,.,.,.,.,.,.,.,.,.,.,.,.,.,.n     n n , 3 G G n n .         ",
"                          ,.9.1.N n c c c c c c c c c c c c c , , 4.,.n n n n n n n n n n n n n n c     5 , , , , , , & $         ",
"                          ,.  ,.c c c c c c c c c c c c c c c , > J N c c c c c c c c c c c c c c ,       a * X X X @ 1           ",
"                          ,.' N c 1 1 1 1 1 1 1 1 1 1 1 1 1 1 , > ) n c c c c c c c c c c c c c c J                               ",
"                          N N n , , , , , , , , , , , , , , , , > ) c , , , , , , , , , , , , , ,                                 ",
"                          N n c > > > > > > > > > > > > > > > > > ) ) ) c c c c c c c c c c c ,                                   ",
"                          n c c c , , , , , , , , , , , , , , , > N N n n c c c c c c c c c c , c c c b D J ! ~                   ",
"                ~ ! G D 3 c , , > > > > > > > > > > > > > > > > > N N n n n n n n n n n n n n n n n n c , , 1 1 1 3 G J ~         ",
"        K J G D 3 3 3 3 3 , , , , , , , , , , , , , , , , , , , , N N N n n n c c c c c c n n n n n n c , , , 1 1 1 3 3 G J '     ",
"                ' ' ~ ! K J G D 3 3 3 3 3 3 3 3 3 3 3 3 3 3 3 3 3 ,.N N N N N c c c c c c ,.N N N N N c D D D D D D G G K '       ",
"                                                            _ _ ) N c c c c c ) ) ) ) ) ) N c c c c c , _                         "
};
