/* XPM */
static char *out[] = {
/* columns rows colors chars-per-pixel */
"64 64 86 1 ",
"  c None",
". c black",
"X c gray5",
"o c #0E0E0E",
"O c #1E1E1E",
"+ c gray12",
"@ c gray21",
"# c gray22",
"$ c #3A3A3A",
"% c #3F3F3F",
"& c #4B4B4B",
"* c gray30",
"= c gray31",
"- c gray37",
"; c #5F5F5F",
": c gray38",
"> c #656565",
", c gray40",
"< c #777777",
"1 c gray48",
"2 c #7E7E7E",
"3 c gray50",
"4 c gray52",
"5 c #898989",
"6 c #8E8E8E",
"7 c #929292",
"8 c gray65",
"9 c gray67",
"0 c #AFAFAF",
"q c gray74",
"w c gray75",
"e c gray77",
"r c #C5C5C5",
"t c #CBCBCB",
"y c gray80",
"u c #CDCDCD",
"i c #CECECE",
"p c gray81",
"a c #D0D0D0",
"s c gray82",
"d c #D2D2D2",
"f c LightGray",
"g c gray83",
"h c #D5D5D5",
"j c gray84",
"k c #D7D7D7",
"l c #D8D8D8",
"z c gray85",
"x c #DADADA",
"c c gray86",
"v c gainsboro",
"b c #DDDDDD",
"n c gray87",
"m c #DFDFDF",
"M c gray88",
"N c #E1E1E1",
"B c #E2E2E2",
"V c gray89",
"C c #E4E4E4",
"Z c gray90",
"A c #E6E6E6",
"S c #E7E7E7",
"D c gray91",
"F c #E9E9E9",
"G c #EAEAEA",
"H c gray92",
"J c #ECECEC",
"K c gray93",
"L c #EEEEEE",
"P c #EFEFEF",
"I c gray94",
"U c #F1F1F1",
"Y c gray95",
"T c #F3F3F3",
"R c #F4F4F4",
"E c gray96",
"W c #F6F6F6",
"Q c gray97",
"! c #F8F8F8",
"~ c #F9F9F9",
"^ c gray98",
"/ c #FBFBFB",
"( c gray99",
") c #FDFDFD",
"_ c #FEFEFE",
"` c white",
/* pixels */
"                                                                ",
"                                                                ",
"                                                                ",
"                                                                ",
"                                                                ",
"                                                                ",
"         ......                                                 ",
"        .........                                               ",
"       .............                                            ",
"      .....%+.........                                          ",
"      ....p``0=..........                                       ",
"      ...;`````m3+.........                                     ",
"      ...=````````0=..........                                  ",
"      ....m`````````m3+.........                                ",
"      ....3````````````0=..........                             ",
"       ...+``````````````m3+.........                           ",
"       ....0``___```````````0=..........                        ",
"       ....=`_))()````````````m3+.........                      ",
"        ....b)(//^(``````````````0=..........                   ",
"        ....2(/^^~!(```````````````m3+.........                 ",
"         ...+^^~!!QW/`````````````````0=..........              ",
"         ....9~!QQWEE^``````````````````m3+........             ",
"         ....*QQWEERTT^````````````````````0=......             ",
"          ....kWERRTYYU~`````````````````````m3.....            ",
"          ....1RRTYYUIIP!``!Y``````````````````0....            ",
"           ...OTTYUUIPLLKRZyyylY````````````````....            ",
"           ....8UUIPPLKKJWbyyyyylY``````````````....            ",
"           ....&IIPLLKJHK)^vyyyyyylY````````````....            ",
"            ....sLLKJJHGR)^QcyyyyyyylY``````````....            ",
"            ....<KKJHGGFY)^QRzyyyyyyyylY````````....            ",
"             ...oJHHGFFDD/^QRIlyyyyyyyyyh/``````....            ",
"             ....7GFFDSSAP^QRIKkyyyyyyyyym``````....            ",
"             ....$FDDSAAZC!QRIKGjyyyyyyyyy``````....            ",
"              ....tSAAZCCVJQRIKGShyyyyyyyy``````....            ",
"              ....>AZZCVVBNERIKGSCfyyyyyyy``````....            ",
"               ...oZCVVBNNMFRIKGSCNdyyyyyy``````....            ",
"               ....6VBBNMMmnYIKGSCNnsyyyyy``````....            ",
"               ....#BNMMmnnbAIKGSCNnxayyyy``````....            ",
"                ....eMmmnbbvcLKGSCNnxkpyyy``````....            ",
"                ....:mnbbvccxVKGSCNnxkguyc``````....            ",
"                 ...XnbvvcxxzzHGSCNnxkgspE``````....            ",
"                 ....5vcxxzllkxASCNnxkgapK``````....            ",
"                 ....@cxzzlkjjhggfddsaapiiJ`````....            ",
"                  ....qzlkkjhhgffdssappiuuyH````....            ",
"                  ....-lkjjhgffdssappiuuyyyyH```....            ",
"                   ...XjjhggfddsaapiiuyyyyyyyH``....            ",
"                   ....4hgfddsaapiiuyyyyyyyyyyHm....            ",
"                   ....Xrfdssappiuuyyyyyyyyyyyw,....            ",
"                    ...............................             ",
"                    ...............................             ",
"                     .............................              ",
"                       ..........................               ",
"                                                                ",
"                                                                ",
"                                                                ",
"                                                                ",
"                                                                ",
"                                                                ",
"                                                                ",
"                                                                ",
"                                                                ",
"                                                                ",
"                                                                ",
"                                                                "
};
