/* XPM */
static char *_[] = {
/* columns rows colors chars-per-pixel */
"64 64 31 1 ",
"  c None",
". c #181818",
"X c #393939",
"o c gray37",
"O c gray44",
"+ c #B53838",
"@ c #DE0000",
"# c #CF1515",
"$ c #D01414",
"% c #845231",
"& c #835B3F",
"* c #F75A08",
"= c #EB5D13",
"- c #EF7B18",
"; c #825C44",
": c #A84A4A",
"> c #A25050",
", c #83614D",
"< c #826755",
"1 c #826959",
"2 c #816E62",
"3 c #817268",
"4 c #81736A",
"5 c #9D7763",
"6 c #8A7272",
"7 c #F7B521",
"8 c #EFA573",
"9 c gray74",
"0 c #EFBD9C",
"q c #EFDECE",
"w c white",
/* pixels */
"                                                                ",
"                                                                ",
"                                                                ",
"                                                                ",
"                                                                ",
"                                                                ",
"                                                                ",
"                                                                ",
"                                                                ",
"                                                                ",
"                                                                ",
"                                                                ",
"                                                                ",
"                                                                ",
"                                                                ",
"                                                                ",
"                                                                ",
"                                                                ",
"                                                                ",
"                                                                ",
"                                                                ",
"                                                                ",
"                                                                ",
"                                                                ",
"                                                                ",
"                                                                ",
"                                                                ",
"                                                                ",
"                             5<#*&,>                            ",
"                          4&%@*%@**%@&4                         ",
"                        4%%*@*@***@***%;                        ",
"                       ;%*@-*-***@**-@*%@                       ",
"                      %@@*-*-**-**--@-**@*                      ",
"                     %*@-*8*8*8-070-7*@**%@                     ",
"                    &@*-@8*0-0-0-0-0---@***=                    ",
"                   1@*@-8*0-07q7q-0-07-8*@*%:                   ",
"                   %@@**70*0707q0q7q7q7-8***%                   ",
"                  4@@**78-07q0qq00q7q7q8--*@*4                  ",
"                  ,%*@*8-00q0qqqqq0q7q7q7*@*%+                  ",
"                  %@@**-80q0qqwwwqq0q0q7-7*%*&                  ",
"                  %*@--87q0qq 999 qq0q7q7---%%                  ",
"                  $%--8787q 9oXXXo 9w0q87-*-@,                  ",
"                  1@*8-8-8 oXXo oXXo q7q-7*@*                   ",
"                   %**8-80oXo qwq oXo0q77%**;                   ",
"                   &@*@8q oXo qwq oXo q-**%*                    ",
"                   6%@*@-oXo 9qwq9 oXo%%*%*4                    ",
"                    4%@%*o.o 9qwq9 o.o*%%@4                     ",
"                     >%*%X.o 9qwq9 o.X%@;                       ",
"                      2%%.Xo9qwwwq9oX..                         ",
"                        o.X 9qwwwq9 X.o                         ",
"                        o.o 9qwwwq9 o.o                         ",
"                        ..o 9qwwwq9 o..                         ",
"                       o..o 9qwwwq9 o..o                        ",
"                       o.Xo 9qwwwq9 oX.o                        ",
"                       X.Xo qwwwwwq oX.X                        ",
"                      o..Xo9qwwwwwq9oX..o                       ",
"                      o..X 9qwwwwwq9 X..o                       ",
"                      X..o 9qwwwwwq9 o..X                       ",
"                     oX.Xo 9qwwwwwq9 oX.Xo                      ",
"                     oX.X 9wwwwwwwww9 X.Xo                      ",
"                     X. 9ww9qwwwwwq9ww9 .X                      ",
"                    o 9ww9 9qwwwwwq9 9ww9 o                     ",
"                   O 9w9 o 9qwwwwwq9 o 9w9 O                    ",
"                    9w9 oo 9qwwwwwq9 oo 9w9                     "
};
