/* XPM */
static char *e6ba3aa1c0654305eede4f15ab4abe94n1QBuTgpjze5HDoE_214[] = {
/* columns rows colors chars-per-pixel */
"69 65 16 1 ",
"  c None",
". c #101010",
"X c #5A3A19",
"o c #083A63",
"O c gray29",
"+ c #9C3129",
"@ c #8C6342",
"# c #D6AD4A",
"$ c #E6C573",
"% c #2163AD",
"& c #5A8CCE",
"* c gray58",
"= c #F7D69C",
"- c #94ADE6",
"; c #CECED6",
": c white",
/* pixels */
"                                                                     ",
"              oo                                                     ",
"             o&&                                                     ",
"             o&&oo                                                   ",
"             .%&&oo%%%%%                                             ",
"             %%o&&&%&&&&%%     %%                                    ",
"             o&&&&&&&&&&&%%% oo-%                                    ",
"         OOOo%&&&&&&&&&&&&&o%&-&o                                    ",
"        O;;;.&&&&&&&&&&&&&%&&-&&.                                    ",
"       .;;.&&&&&&&&&&&&&&&&&&&&O. XXXXXXXX                           ",
"       .;;.&&%&&&&&&--&&&&&&&&O.&.::;XX@@@XXX   .....X               ",
"       **;;.&o&&&&%--&&&&o%&&..&&..:::;X@@@@@XX.@@X###X              ",
"      .****ooo&&&&o&&&&&o%&&&..&...:::::X@@@@@.@@X#####X             ",
"      .***o;..%%%%o&&&%.;;%&&&&&%...:::::@@@@XX@X###@###X            ",
"      .**.o;X%%%%%%%oo.#;;;&&&&&&....*::::X@@.@X###X.X###X           ",
"       ..&&&&&%&&&oo;.@::;&&&&&&&%.....::::XX@X###X...X###X          ",
"        .&&&&&&&&&&&&&&::&&&&&&&&o......:::;X.@##X.....OOO#X         ",
"        .&&&&&&&&&&&&&&&&&&&&&&&&oo.....::::OX@@X.OOO.*;::OOO        ",
"        .%&&.o&&&&&&&&&&&&&&&&&&&o.....*::::;O@X.OO*.;:::::::OO      ",
"   OOO. ...o%o%&&&&&&&&&&&oo&&&&&.....*:::::::OO.O*.*::::::::::O     ",
"  ..:;%ooo%%%%&&&&&&&%&&&oo%&&%%.....*:::::::::;O.*.;:::::;O.O;:O    ",
" O;;.o%%o.o..%%%%o&%o+ooo++XX===....*;:::::::::::O.O;::::;.....:O    ",
".O;*o%%o%%%%%.oo+oo+++++O+OX====....;**OOoooo:::::O.;;;:;O.....O:O   ",
".;.oo%%o%%%%%..;++++++++:O:=====...*;*Ooo%&&&O:::::.;;;;;.....OO:O   ",
" ..ooo.%%%%%%..;+++++++O:XX===#...O**Oo&&&&&-%%::::O.;;;;O...OOO:O   ",
" .;;ooo.oo%%o..:++++++++OX=$$$....***o&&&&&----%::::.;;;;*.OOOO:O    ",
" ..;ooo.ooooo.#XX+++++XXX##$#XX.#O***o&&&&------%:::*.*;;;*O.O;;.    ",
"   ..oo.ooooo..#XX++XX######X.##O**o&&&&&--------%::;O..*;;;;;O.     ",
"    ..oo.oooo..###XX########X###O.*.ooo%&-------%O;;;OXX......       ",
"      ...ooooo.o..#######...###=.&o&&&&&%%------&o;;;OOXXXXXX.       ",
"         ..oo...o..X.X#...####=.&&&&&&----%----&&oO;;;OXXXXXX.       ",
"           ..   ..####.######==.oo&&&------%--&&&oO;;;..XXXXX.       ",
"                 .##########==o%&&%%&------%&&&&&oO;;OX.XXXXX.       ",
"                 .X#######===o&&&---%%-----&&&&&&.;;;OXX.XXXX.       ",
"                X#=XX@##====o&&&&-----%---&&%&&&o**;OXXXX.....       ",
"                .##==@XXXXXO;&&&&&-----%&&&&o&&%.**O.XXXXXXX.        ",
"                .#####===O;;**&ooo-----%&&&&o&&o*OO**.XXXXXX.        ",
"                 .@#####$.;;oO:::&&--&&%&&&%o&.OO.***.XXXXXX.        ",
"                  .######...O;:::o&&&&&o&&o...O#$O**;;.XXXXX.        ",
"                  .######===O::*oo%%&&&o.o######@#.;;;;.XXXX.        ",
"                 ..@#####$==O;..oO;:%&%.==###o...o.o;;;;.XX.         ",
"                .oo.######==..===O::...====oo&&&&&ooo;;;.XX.         ",
"               .ooo.@######======O;.o====oo%&&&&&&&&o;;;;..          ",
"               o%%oo.X######$====..=====.%%&&&&&&&&&&oo;;;.          ",
"              .%%%%o.#XX######$========.%%&&&&&&&&&&&&&o;;..         ",
"              o%%%%%o.##XX@########$@XX@.%%&&&&&&&&&&&&o;.oooo.      ",
"             o%%%%%%%o.####@XXXXXXX@###.%%%&&&&&&&&&&&&&.oooooo.     ",
"             .%%%%%%ooo.###############.%%%&&&&&&&&&&&&&.oooooo.     ",
"             .%%%%%ooo.o.#############.o%%%&&&&&&&&&&&&&.ooooo.      ",
"             o%%%%oooo.oo.############.o%%%%&&&&&&&&&&&&o.ooo.       ",
"              .oooooo.oooo..##########.%o%%%%&&&&&&&&&&%o....        ",
"              .oooo..ooooooo..XXXXXXX@.%.%%%%%&&&&&&&&%%o.           ",
"               .ooooooooooooo...@@@@@@.%%.%%%%%&&&&&&%%o%.           ",
"             OO*oooooooooooooo*O...@@@.%%%.o%%%%%&&%%%%o%.           ",
"            O****oooooooooooo**O   .....%%%%o%%%%%%%%%o%o            ",
"            .****o.*;oooooo....         .%%%%o.%%%%%%o%%.            ",
"             .....;;;;o....             .%%%%%%o.%%.o%%%.            ",
"                 .;;;..                  .%%%%%%%o%%%%%%.            ",
"                  ...                    .%%%%%%%%%%%%oo*.           ",
"                                         .%%%oo%%%%oo%.;;OO          ",
"                                          .%o::o%oo::oO;;;.          ",
"                                           .::::o;::::;...           ",
"                                           .;::O.;;:::OO             ",
"                                            OOO  ..;:;.              ",
"                                                   ...               "
};
