/* XPM */
static char *e6ba3aa1c0654305eede4f15ab4abe94n1QBuTgpjze5HDoE_228[] = {
/* columns rows colors chars-per-pixel */
"69 65 16 1 ",
"  c None",
". c #101010",
"X c #5A3A19",
"o c #083A63",
"O c gray29",
"+ c #9C3129",
"@ c #8C6342",
"# c #D6AD4A",
"$ c #E6C573",
"% c #2163AD",
"& c #5A8CCE",
"* c gray58",
"= c #F7D69C",
"- c #94ADE6",
"; c #CECED6",
": c white",
/* pixels */
"                                                                     ",
"                                                                     ",
"                                                                     ",
"                                                                     ",
"                                                                     ",
"             ooo                                                     ",
"             o&&oo  %%                                               ",
"             .&&&oo%&&%%%%   o %%                                    ",
"              %&o&&&&&&&&&%%o%o--o                                   ",
"              %%&&&&&&&&&&&&o&&-&.                                   ",
"             oo&&&&&&&&&&&&%&&-&&.   XXXX                            ",
"             .%&&&&&&&&&&&&&&&&&O&.XXX@@@XXX    .....X               ",
"           .&&&&&&&&&&&&&&&&&&&O.&.:;:;X@@@@@XX.@@X###X              ",
"       OO O.&&&&&&&&---&&&&o%&&..&.:::::X@@@@@.@@X#####X             ",
"      OO;;;;.&%&&&&%&-&&&o%&&&..&%.::::::@@@@XX@X###@###X            ",
"      O;;;;;ooo&&&&o&&&&.;;%&&&&&&.&:*::::X@@.@X###X.X###XX          ",
"      ;;;;;;ooo%%%%o%&&%#;;;%&&&&&%....::::XX@X###X...X####X         ",
"      .;;;;;o;.%%%%%o%o.@::;&&&&&&&oo...:::;X.@##X.....X####X        ",
"      *****.&;X%%&&&&o;.@::&&&&&&&&o....::::OX@@X.OOO....OOO#X       ",
"      .***.&&&&&&&&&&&&&&&&&&&&&&&&oo..*::::;O@X.OO*OO..*;::OOO      ",
"      .**.&&&&&&&&&&&&&&&&&&&&&&&&&%..*:::::::OO.O***O.;:::::::OO    ",
"        ...%&&&&&&&&&&&&&&&&oo&&&&%..*:::::::::;O.***.*::::::::::O   ",
"      .  ....&.o%&&&&&&&&&&oo%&&%=...*:::::::::::O.O*.;:::::;O.O;:O  ",
"   OOO%ooo.o%o%%&&&&&&&%ooo++XX===...;*OoOooo:::::O.OO;::::;.....:O  ",
"  ..:;%%o%%.o%%%%%%o&%o+++O+OX====.*;*o&&%&&&o:::::O..;;;:;O.....O:O ",
" O;;.o%o%%%%%....o++o+++++:O:=====.**o&&&&&&-%%::::;..;;;;;.....OO:O ",
".O;*o%%%o%%%%%.%.;+++++++O:XX===#..*oo&&&&&----%::::OO.;;;;O...OOO:O ",
" .;.oo%.%%%%%.%%.:++++++++OX=$$$..*.o&&&&&------%:::*..;;;;*.OOOO:O  ",
"  ..ooo.oo%oo.%%#XX+++++XXX##$#XX.o&ooo%&--------:::;OX.*;;;*O.O;;.  ",
" .;;ooo.ooooo.oo.#XX++XX######X..&&&&&&&&-------%O;;;OXX..*;;;;;O.   ",
" .;;oooo.ooooo.o.###XX########X.&&&&&&--%%------%O;;;OXXXX......     ",
"    ..ooo.oooo...o..#######..o%&o%%&&-----%----&&o;;;OXXXXXX.        ",
"     .....o.ooo...#..X.X#..oo&&&&--%------%&--&&&o;;;;..XXXXX.       ",
"          . .... .######.#O;&&&&----%-----%&&&&&oOO;;OX.XXXXX.       ",
"                 .X#####O;;&&&&&-----%----&%&&&&oO;;;OXX.XXX..       ",
"                 X#=XX@#.;;*&oo&------%&-&&o&&&o.**;OXXXX....        ",
"                 .##==@X...oO::o&&---%&&&&o&&&%.***O.XXXXXXX.        ",
"                 .####=====O;:::o&&-&&%&&&o&&o***OO**.XXXXXX.        ",
"                 .@#####$=OO::*:o%%&&&o&&%o&.**OO.***.XXXXXX.        ",
"                 ..######=.;..oO;:%&&&o&&o....O#$O**;;.XXXXX.        ",
"                  .######==.===O::.&%.=o######.o@#.;;;;.XXXX         ",
"                 ..@#####$=====O;.o..=====##o.&&&ooo;;;;.XX.         ",
"                .oo.######=====..=========oo&&&&&&&oo;;;.XX.         ",
"               .ooo.@######=============oo%&&&&&&&&&oo;;;..          ",
"               o%%oo.X######$==========.%%&&&&&&&&&&&o;;;;.          ",
"              .%%%%o.#XX######$=======.%%&&&&&&&&&&&&oo;;;..         ",
"             o%%%%%%%.##XX@########$@X.%%&&&&&&&&&&&&&.o;.oooo.      ",
"             .%%%%%%oo.####@XXXXXXX@#.%%%&&&&&&&&&&&&&.@.oooooo.     ",
"             .%%%%%ooo..#############.%%%&&&&&&&&&&&&&..ooooooo.     ",
"             o%%%%oooo.o.###########.o%%%%&&&&&&&&&&&&&o.ooooo.      ",
"              .oooooo.ooo.###########.o%%%%&&&&&&&&&&&%o.oooo.       ",
"              .oooo..ooooo..#########.%o%%%%%&&&&&&&&%%o.....        ",
"               .oooooooooooo..XXXXXXX.%.%%%%%%&&&&&&%%o%.            ",
"             OO*ooooooooooooo...@@@@@.%%.%%%%%%%&&&%%%o%.            ",
"            O****oooooooooooo**O...@@.%%%.oo%%%%%%%%%o%o             ",
"            .****o.*;oooooo....     ...%%%%%o.%%%%%%o%%.             ",
"             .....;;;;o....            .%%%%%%o.%%.o%%%.             ",
"                 .;;;..                .%.%%%%%%%o%%%%%%.            ",
"                  ...                    .%%%%%%%%%%%%oo*.           ",
"                                         .%%%oo%%%%oo%.;;OO          ",
"                                          .%o::o%oo::oO;;;.          ",
"                                           .::::o;::::;...           ",
"                                           .;::O.;;:::OO             ",
"                                            OOO  ..;:;.              ",
"                                                   ...               "
};
