/* XPM */
static char *e6ba3aa1c0654305eede4f15ab4abe94n1QBuTgpjze5HDoE_241[] = {
/* columns rows colors chars-per-pixel */
"69 65 16 1 ",
"  c None",
". c #101010",
"X c #5A3A19",
"o c #083A63",
"O c gray29",
"+ c #9C3129",
"@ c #8C6342",
"# c #D6AD4A",
"$ c #E6C573",
"% c #2163AD",
"& c #5A8CCE",
"* c gray58",
"= c #F7D69C",
"- c #94ADE6",
"; c #CECED6",
": c white",
/* pixels */
"                                                                     ",
"                                                                     ",
"                                                                     ",
"              oo               %%                                    ",
"             o&&oo  %%%%%%   oo--o                                   ",
"             o&&&oo%&&&&&&%%o%&-&.                                   ",
"         OOO .%&o&&&&&&&&&&&o&-&&.                                   ",
"        O;;;OO%%&&&&&&&&&&&%&&&&O.                                   ",
"       .;;;;;;o&&&&&&&&&&&&&&&&O.&.XXXXXXX                           ",
"       .;;;;;o%&&&&&&&&&&&&&&&&..&.:;XX@@@XXX   .....X               ",
"      .**;;;;.&&&&&&&&--&&&o%&&..&.:::;X@@@@@XX.@@X###X              ",
"      .****;.&&&&&&&&--&&&o%&&&&.&%.::::X@@@@@.@@X#####X             ",
"      .****..&&%&&&&%&&&&.;;%&&&&&&.:::::@@@@XX@X###@###X            ",
"       .****.&oo&&&&o&&&%#;;;%&&&&&%.*::::X@@.@X###X.X###X           ",
"        .O**ooo%%%%%o%%o.@::;&&&&&&&o..::::XX@X###X...X###X          ",
"          O.o;.%%%%%ooo;.@::&&&&&&&&o...:::;X.@##X.....OOO#X         ",
"            o;X%%&&&&&&&&&&&&&&&&&&&o...::::OX@@X.OOO.*;::OOO        ",
"   OOO.   o.&&&&&&&&&&&&&&&&&&&&&&&&o..*::::;O@X.OO*.;:::::::OO      ",
" O..:;%ooo.&&&&&&&&&&&&&&&&&&oo&&&&%..*:::::::OO.O*.*::::::::::O     ",
" O;;.o%%o%.&&&&&&&&&&&&&&&&&oo%&&&%%o.:::::::::;O.*.;:::::;O.O;:O    ",
".;;*o%%o%%%.%&&.o%&&&&&&%ooo+++X==%..;:::::::::::O.O;::::;.....:O    ",
"...oo%%o%%%...o%%&&&&&%o+++O+XX==#..;**OOoooo:::::O.;;;:;O.....O:O   ",
" ;.ooo.%%%%.o%%%%%%%oo+++OO:X====...**Ooo%&&&O:::::.;;;;;.....OO:O   ",
".;;ooo.oo%%%.o....o+++++O:XX=====.***Oo&&&&&-%%::::O.;;;;O...OOO:O   ",
"  .;ooo.ooooo..#X+++++++O:X=====..***o&&&&&----%::::.;;;;*.OOOO:O    ",
"   ..oo.ooooo..##X+++XXXXX=$$$$#.O**Oo&&&&------%::::.*;;;*O.O;;.    ",
"    ..oo.oooo...###XX#########X..**o&&&&&--------%:::;..*;;;;;O.     ",
"      ...oooo.ooo.##########X.X#O**.ooo%&-------%OO;;;OX......       ",
"         ..ooo.ooo.X#X#####.X##=O.o&&&&&%%------&oO;;;OXXXXXX.       ",
"           .....oo.#.......###==.&&&&&----%----&&oO;;;OXXXXXX.       ",
"                ..###########==.&&&&&------%--&&&oO;;;..XXXXX.       ",
"                 .##########===.oo%%&------%&&&&&oO;;OX.XXXXX.       ",
"                 .X#######====o%&&--%%-----&&&&&&.;;;OXX.XXXX.       ",
"                X#=XX@##=====o&&&-----%---&&%&&&o**;OXXXX.....       ",
"                .##==@XXXXXXo&&&&------%&&&&o&&%.**O.XXXXXXX.        ",
"                .####======O;&&&&&-----%&&&&o&&o*OO**.XXXXXX.        ",
"                .@#####$==O;;*&ooo&&--&&%&&%o&.OO.***.XXXXXX.        ",
"                 .######==.;;oO:::o&&&&&o&&oo.O#$O**;;.XXXXX.        ",
"                 .######==...O;:::o%%&&&o.o#####@#.;;;;.XXXX.        ",
"                 .@######$===O::*oO;:%&%.#####@@##.o;;;;.XX.         ",
"                 ..#######===O;..oO::...==###@o...o#o;;;.XX.         ",
"                .o..@######==..===O;.o=====@oo&&&&&o&o;;;..          ",
"               .oooo.X######$=====..======oo%&&&&&&&&&o;;;.          ",
"               o%%oo.#XX######$=========@.%%&&&&&&&&&&&o;;.o.        ",
"              .%%%%oo.##XX@########$@XX@.%%&&&&&&&&&&&&o;.oooo.      ",
"              o%%%%%oo.####@XXXXXXX@####.%%&&&&&&&&&&&&o.oooooo.     ",
"             o%%%%%%%oo.###############.%%%&&&&&&&&&&&&&.oooooo.     ",
"             .%%%%%%ooo..##############.%%%&&&&&&&&&&&&&.ooooo.      ",
"             .%%%%%ooo.oo.############.o%%%&&&&&&&&&&&&&.oooo.       ",
"             o%%%%oooo.ooo..##########.o%%%%&&&&&&&&&&&&o....        ",
"              .oooooo.oooooo..XXXXXXX@.%o%%%%&&&&&&&&&&%o.           ",
"              .oooo..oooooooo...@@@@@@.%.%%%%%&&&&&&&&%%o.           ",
"               .oooooooooooooo.....@@@.%%.%%%%%&&&&&&%%o%.           ",
"             OO*oooooooooooooo*O   ....%%%.o%%%%%&%%%%%o%.           ",
"            O****oooooooooooo**O       .%%%%o%%%%%%%%%o%o            ",
"            .****o.*;oooooo....         .%%%%o.%%%%%%o%%.            ",
"             .....;;;;o....             .%%%%%%o.%..o%%%.            ",
"                 .;;;..                  .%%%%%%%o%%%%%%.            ",
"                  ...                    .%%%%%%%%%%%%oo*.           ",
"                                         .%%%oo%%%%oo%.;;OO          ",
"                                          .%o::o%oo::oO;;;.          ",
"                                           .::::o;::::;...           ",
"                                           .;::O.;;:::OO             ",
"                                            OOO  ..;:;.              ",
"                                                   ...               "
};
