/* XPM */
static char *e6ba3aa1c0654305eede4f15ab4abe94n1QBuTgpjze5HDoE_79[] = {
/* columns rows colors chars-per-pixel */
"69 65 16 1 ",
"  c None",
". c #101010",
"X c #5A3A19",
"o c #083A63",
"O c gray29",
"+ c #9C3129",
"@ c #8C6342",
"# c #D6AD4A",
"$ c #E6C573",
"% c #2163AD",
"& c #5A8CCE",
"* c gray58",
"= c #F7D69C",
"- c #94ADE6",
"; c #CECED6",
": c white",
/* pixels */
"                                                                     ",
"                                                                     ",
"                                                                     ",
"              oo                                                     ",
"             o&&                                                     ",
"             o&&oo  %%%                                              ",
"            .%&o&oo%&&&%%%     %%                                    ",
"             %%&&&&&&&&&&%%%ooo--o                                   ",
"             o&&&&&&&&&&&&&o&&-&.                                    ",
"            o%&&&&&&&&&&&&%&&-&&.  XXXXXXX                           ",
"        OO O.&&&&&&&&&&&&&&&&&&O&.X:;XX@@@XXX   .....X               ",
"       OO;O.&&&&&&&&&-&&&&&&&&O.&.::::;X@@@@@XX.@@X###X              ",
"      O;;;.&&&%&&&&&---&&&o%&&..&..:::::X@@@@@.@@X#####X             ",
"      .;;;;.&o&&&&%&&&&&&o%&&&..&%.::::::@@@@XX@X###@###X            ",
"      .;;;;ooo%&&&o&&&&.;;%&&&&&&&...*::::X@@.@X###X.X###X           ",
"      .*;**o;.%%%%o%%o%#;;;%&&&&&%%....::::XX@X###X...X###X          ",
"      .****o;X%%%%%oo;.@::;&&&&&&&.o....:::;X.@##X.....X###X         ",
"      .***.&&&&%&&&&&;.@::&&&&&&&&o.....::::OX@@X.OOO...OOO#X        ",
"      ....&&&&&&&&&&&&&&&&&&&&&&&&oo...*::::;O@X.OO*OO.*;::OOO       ",
"        .&&&&&&&&&&&&&&&&&&&&&&&&&o...*:::::::OO.O***.;:::::::OO     ",
"   OOO.  .%&&.o&&&&&&&&&&&&oo&&&&%...*:::::::::;O.**.*::::::::::O    ",
"  ..:;%oo...o%%%&&&&&&&&&&oo%&&%=....;:::::::::::O.O.;:::::;O.O;:O   ",
" O;;.o%%o.o%%%%&&&&&%&%ooo++XX===...***OOoooo:::::O.O;::::;.....:O   ",
".O;*o%%o%%.o..%%%%oo+o+++O+OX====..*;*Ooo%&&&O:::::O.;;;:;O.....O:O  ",
".;.oo%%o%%%%%%..o++++++++:O:=====.O**oo&&&&&-%%::::;.;;;;;.....OO:O  ",
"  ;.ooo.%o%%%.%.;+++++++O:XX===#..***o&&&&&----%::::O.;;;;O...OOO:O  ",
" .;;ooo.ooooo.%.:++++++++OX=$$$..O**o&&&&&------%:::*.;;;;*.OOOO:O   ",
" .;;ooo.ooooo.o#XX+++++XXX##$#XXO**.oo&&&--------%::;O.*;;;*O.O;;.   ",
"  ...oo.ooooo.o.#XX++XX######X.#O.o&&&o%&-------%O;;;OX..*;;;;;O.    ",
"    ..oo.oooo.o.###XX########X#=.&&&&&&&%%------&o;;;OXXX......      ",
"      ...o.ooo..o..#######...#=.&&&&&-----%----&&o;;;;OXXXXXX.       ",
"            .... ...X.X#...##=o.oo%%&------%--&&&oO;;;..XXXXX.       ",
"                 .#####.####=o&%&&--%------%&&&&&oO;;OX.XXXXX.       ",
"                 .X#######=o&&&&-----%-----&&&&&&.;;;OXX.XXXX.       ",
"                X#=XX@##==O;&&&&-----%---&&o&&&oo**;OXXXX.....       ",
"                .###==@XXO;;*&&&&-----%&&&&o&&%.***O.XXXXXXX.        ",
"                 .####===.;;oOooo&&---%&&&&o&&o**OO**.XXXXXX.        ",
"                 .@#####$...O;:::o&&&&&%&&%o&.*OO.***.XXXXXX.        ",
"                  .######===O::::o%%&&&o&&o...O#$O**;;.XXXXX.        ",
"                  .######===O;:*oO;:%&&o.o######@#.;;;;.XXXX.        ",
"                 ..@#####$=..=.oO::..%..==###o...o.o;;;;.XX.         ",
"                .oo.######======O;.o=.=====oo&&&&&ooo;;;.XX.         ",
"               .ooo.@######=====..=======oo%&&&&&&&&oo;;;..          ",
"               o%%oo.X######$===========.%%&&&&&&&&&&&o;;;.          ",
"              .%%%%o.#XX######$========.%%&&&&&&&&&&&&o;;;..         ",
"              o%%%%%o.##XX@########$@XX.%%&&&&&&&&&&&&oo;.oooo.      ",
"             o%%%%%%%o.####@XXXXXXX@###%%%&&&&&&&&&&&&&..oooooo.     ",
"             .%%%%%%ooo.##############.%%%&&&&&&&&&&&&&.ooooooo.     ",
"             .%%%%%ooo.o.#############.%%%&&&&&&&&&&&&&.oooooo.      ",
"             o%%%%oooo.oo.###########.o%%%%&&&&&&&&&&&&o.oooo.       ",
"              .oooooo.oooo..#########.%o%%%%&&&&&&&&&&%o.....        ",
"              .oooo..ooooooo..XXXXXXX.%.%%%%%&&&&&&&&%%o.            ",
"               .ooooooooooooo...@@@@@.%%%.%%%%%&&&&&&%%o%.           ",
"             OO*oooooooooooooo*O...@@@.%%%.o%%%%%&&%%%%o%.           ",
"            O****oooooooooooo**O   .....%%%%o%%%%%%%%%o%o            ",
"            .****o.*;oooooo....         .%%%%o.%%%%%%o%%.            ",
"             .....;;;;o....             .%%%%%%o.%..o%%%.            ",
"                 .;;;..                  .%%%%%%%o%%%%%%.            ",
"                  ...                    .%%%%%%%%%%%%oo*.           ",
"                                         .%%%oo%%%%oo%.;;OO          ",
"                                          .%o::o%oo::oO;;;.          ",
"                                           .::::o;::::;...           ",
"                                           .;::O.;;:::OO             ",
"                                            OOO  ..;:;.              ",
"                                                   ...               "
};
