/* XPM */
static char *_e0044226d1d401ff8115b207c9261d7VsPYo243VVLcvZLO_7[] = {
/* columns rows colors chars-per-pixel */
"72 57 15 1 ",
"  c None",
". c #101010",
"X c #424A10",
"o c #5A4A10",
"O c #636B21",
"+ c gray45",
"@ c #B50000",
"# c #FF5252",
"$ c #8C9442",
"% c #9C8C52",
"& c #B5BD63",
"* c #D6B55A",
"= c #F7DE8C",
"- c #CECECE",
"; c white",
/* pixels */
"                                                                        ",
"                                                                        ",
"                                                                        ",
"                                         XXO                            ",
"                               ..XXXX  XX&&&OO                          ",
"                              .O&&&&&X.$&&&&&&$OO                       ",
"                          XX..O$&&&&&.$&&&&&&&&&&X                      ",
"                        OX&$X.XXXOOO.$&&&&&&&&&&&&X                     ",
"                       O&&&&OO.XXXO.$$$$&&&&&&&&&$$X                    ",
"                     XO&&&$OXO.....X$$$$$$&&&&&&$$$.                    ",
"                    X&&&$OOXX.$$$$$XX$$$$OOOOOOOX$$.                    ",
"                   X&&$OOOXO$&&&&&&&&XXXOOOOOOOOOX$.                    ",
"                   .OOOOX..&&&&&&&&&&&&$XOOOOOOOOXXX       oo           ",
"                   ..OOO..O&&&&&&&&&&&&&$.XXXXXXXX...     o**o          ",
"                  .XXXX...$&&&&&&&&&&&&&XO..O&&&&&&$$.  ..****..        ",
"                 .$&&&OX..$$&&&&&&&&&&&$OO.O$&&&&&&&$$.o.**+%;-.        ",
"                 X&&&&$XX.O$&&&&&&&&&&&OOO.O&&&&&&&&&o..%**%;;;.        ",
"                X$&&&&&OX.X$$&&&&&&&&&&XOOXOO$&&&&&o******%%+.;..+      ",
"                X&&&&&&$XX.$$&&&&.&o...XOXXOOOO$&&&.****%%%%%%..;;+     ",
"                X&&&&&&&XX.O$$$$.%o***.ooO.OOOOOO$&.***%%%%%%*+-;;.     ",
"               X.$&&&&&$XX..$$.%*********%o.OOOOOOOO%*%-..%%***--;;     ",
"              X$.O&&&&&OXX..X.%o*******===*...OOOOOO%..;;;.%***.....    ",
"             X$&$.X&&$OXX...Xo%o******=====oOOXX......-;;+****oo   .    ",
"             X&&&&o..........%%%.*****=====*o$$$OXO..%.-;;.oo           ",
"             X&&&o%%o..OOOX.%%%%;******=====%$$$$OO..%%....o.           ",
"             X&&&o%%%o.XXXO.%%%##*******=====o$$$$O..%%%%oo.            ",
"             X&&o%**%%O$$XX.%%%.#.*****====*o$$$OOOO.%%%%oo.            ",
"           oo Xo%**%..O&&&$.%%%+#;o*****===O%oOOOOOO.%%%oo.             ",
"          o***oo***.%.&&&&$.%%o%%-.%*******o%.OOO.....%%oo.             ",
"         ..%**..**%%%.&&$$$.o%..%%%%******#;*.OOO.XXXX....              ",
"        .-;;+**%oo%%%.$$$$O.o%..%%%o*****%.-*.OO.XOOOOOO..              ",
"       ..;;+%***..o*oo.$$$O..oo@.%%o%***o**o.....OXOOOXXX.              ",
"      +..;.%%%%%****o.$$$O....%@@.%%o***%**...O.OOOXXXXXX.              ",
"      +;-..%%%%%****o.OOO.....%.@@o%%ooo***..XO.OOOXXXXXX.              ",
"     .;;-+*%%%%%%***o$........%@@@...%***oo..XOXOOOXXXXXX.              ",
"    .;;-.***%%..-%%*.OOOXXX...o%@@@@@.o*....O...OOOOXXXXX.              ",
"    ....o*****.;;;.%OOOOOOOO...%@+@@@@o*....OO...OOOXXXX.               ",
"          o*o*+;--..OOOOOOOOX..%.;+@@@+....OOOX...OOOX..                ",
"           o .;;...OOOOOOOOOX.X.%**@@+;...oOOOOXXXX....                 ",
"             ......$OOOOOOOOX.X..*****..O.OOOOOX..*****o                ",
"                 o.OOO$O$OOOX.X......OOOOXOOOO.X********o               ",
"                o**.O$O$OOOO.XXOOOOO.OOOO.OOO..%%*******%               ",
"               o****.O$OO$..XXOOOOOOOOOOO.XX..%%%********o              ",
"              oo*****..OX.....OOOOOOOOOO..XX.%%%%%********o             ",
"              .%******......X............XX..%%%%%%%******o             ",
"             .%%***%%%%%%%.XXXX...........X..%%*%%%%%%****o             ",
"              o%%%%%%%%%%%o.XXXXXXXXXXXXXX....%%*%%%%%%%%o              ",
"              ..%%%%%%%%%o.-..XXXXXXXXXXXX..  .o%%%%%%%%.o              ",
"               ..o%%%%%%%%%--. X.XOOOOO...    .%%%%%%%%%o.              ",
"             o.%o.%%%ooo%%%..     X....      .%%%%%%%%%***.             ",
"            o-+o%%%..%%%%..                  .%%%%%%******.             ",
"            ..+-+%.%%%...                     .%%%%****+.+;.            ",
"             .;-..+-...                       .%oo+%+.+-;.-;.           ",
"              ... .;;                          .--.+--..-;...           ",
"                  ...                          .-;..;;. ..              ",
"                                                .;. .;.                 ",
"                                                                        "
};
