/* XPM */
static char *_e0044226d1d401ff8115b207c9261d7VsPYo243VVLcvZLO_80[] = {
/* columns rows colors chars-per-pixel */
"72 57 15 1 ",
"  c None",
". c #101010",
"X c #424A10",
"o c #5A4A10",
"O c #636B21",
"+ c gray45",
"@ c #B50000",
"# c #FF5252",
"$ c #8C9442",
"% c #9C8C52",
"& c #B5BD63",
"* c #D6B55A",
"= c #F7DE8C",
"- c #CECECE",
"; c white",
/* pixels */
"                                                                        ",
"                                                                        ",
"                                 ..XX      XXO                          ",
"                                .O&&&XX  XX&&&OO                        ",
"                            XX..O$&&&&&X.$&&&&&&$OO                     ",
"                          OX&$X.XXXOO&&.$&&&&&&&&&&X                    ",
"                         O&&&&OO.XXXOO.$&&&&&&&&&&&&                    ",
"                       XO&&&$OXO......$$$$&&&&&&&&&$X                   ",
"                     XX&&&$OOXX.$$$$$X$$$$$$&&&&&&$$$X                  ",
"                     .&&$OOOXO$&&&&&&XX$$$$OOOOOOOX$$.                  ",
"                     .OOOOX..&&&&&&&&&&XXXOOOOOOOOOX$.                  ",
"                    ...OOO..O&&&&&&&&&&&&$XOOOOOOOOX$.                  ",
"                  .$$XXXX...$&&&&&&&&&&&&&$.XXXXXXXXXX                  ",
"                  X&&&&OX..$$&&&&&&&&&&&&&XO..O&&&&X...                 ",
"                 X$&&&&$XX.O$&&&&&&&&&&&$OO.O$&&&&&&$$$.   ooo          ",
"                 X&&&&&&OX.X$$&&&&&&&&&&OOO.O&&&&&&&&$$.  o***..        ",
"                 X&&&&&&$XX.$$&&&&&&&&&&XOOXOO$&&&&&&&$.  .**%;-.       ",
"                X.$&&&&&&XX.O$$$$$$$$$$$XOXXOOOO$&&&&&$. .**+;;;..+     ",
"               X$.O&&&&&$XX..$$$$$$$$$$$XO..OOOOOO$&&&$.o%**%+.;.;;+    ",
"              X$&$.X&&&&OXX..OOOOo...ooO.....OOOOOO&&.o..**%%%%..-;;.   ",
"              X&&oo...$OXX....X.o******%o......OOOOO.o****%%%%%*+--;;.  ",
"              X&&o%%o..........%******===*o.OOOXX..O.o****%%%%***.....  ",
"              X&o%%%%o..OOOXX.%******=====*o$$$$$OX.%.***%..%%***o      ",
"              Xo%***%%O.XXXO.%o******======%.$$$$$..%.%*%-;;.***o       ",
"            ooo****%..O&$$XXo%o*******======o$$$$$..%%.%.;;;+*oo        ",
"          ..***o***.%.&&&&&.%%%.*******====*o.$$$O..%%%..--;;.          ",
"         .-;%**.oo%%%.&&&&&.%%%;o******====O%o.OOOO.%%%%o.....          ",
"       +..;;;+**.%%%%.&&&$$.%%%##.******==*o%..OOO..%%%oo..             ",
"      +;;.;.+%**%o%%o.$$$$O.%%%.#;o*******#;*..OOO...%%oo..             ",
"     .;;-..%%%%**..o.$$$$$O.%%%+#-.%******.-*.OO.XOXX.....              ",
"    .;;--+*%%%%%****o$$$$O..%%o%%%%%*****%%*o....OOOOOOO..              ",
"    .....***%%%%****o$OOO....o%.%%%%o****o**..O.OOXOOOXXX.              ",
"        o***%%..%***o$........o...%%o%***%**.XO.OOOXXXXXX.              ",
"         o***.;;-%*%oOOOXXX....%.@.%%oooo**o.XOXOOOXXXXXX.              ",
"          oo*+;;;.%.OOOOOOOO....%@@o%%%***o.O...OOOXXXXXX.              ",
"            .;;--..OOOOOOOOOX...o%@.....o...OO...OOOXXXXX.              ",
"            .......$OOOOOOOOX.XX.%.;+@@+;..OOOX...OOXXXX.               ",
"                oo.OOOOOOOOOX.XXO.%*****..oOOOOXXXOOOX..                ",
"               o***.OO$O$OOOX.XOOO......O.OOOOOX..X....*o               ",
"              o*****O$O$OOOO.XXOOOOOOOOOOXOOOO.X%*******%               ",
"              o*****.O$OO$..XXOOOOOOOOOOO.OOO..%%********o              ",
"             o%******..OX.....OOOOOOOOOOO.XX..%%%%********o             ",
"             .%%***%%%......X......OOOOO..XX.%%%%%********o             ",
"             .%%%%%%%%%%%.XXXX...........XX..%%%%%%%******o             ",
"              o%%%%%%%%%%%.XXXXXXXX......X...%%*%%%%%%****o             ",
"              ..%%%%%%%o%%...XXXXXXXXXXXX... .%%*%%%%%%%%o              ",
"               ..o%%%oo%%%.-. X.XOXXXXXXX..   .*%%%%%%%%%o              ",
"             o.%o....%%%%%%--.   XOOOO...      o%%%%%%%%.               ",
"            o-+o%%%.%%%%%%%..     ....        .%%%%%%%%%o.              ",
"            ..+-+%.%%%%%%..                  .%%%%%%%%%***.             ",
"             .;-..+-%%...                    .%%%%%%******.             ",
"             ... .;;..                        .%%%%****+.+;.            ",
"                 ...                          .%oo+%+.+-;.-;.           ",
"                                               .--.+--..-;...           ",
"                                               .-;..;;. ..              ",
"                                                .;. .;.                 ",
"                                                 .   .                  "
};
