/* XPM */
static char *_[] = {
/* columns rows colors chars-per-pixel */
"65 65 40 1 ",
"  c None",
". c black",
"X c #282008",
"o c #382810",
"O c #202020",
"+ c #282828",
"@ c gray22",
"# c #403018",
"$ c #483818",
"% c #503818",
"& c #404000",
"* c #554024",
"= c #584020",
"- c #514228",
"; c #584429",
": c #5D492D",
"> c #5E4D37",
", c #684820",
"< c #625038",
"1 c gray27",
"2 c #484848",
"3 c #505050",
"4 c #5D5D5D",
"5 c #665640",
"6 c #6A5D4B",
"7 c #6F6456",
"8 c #6F6558",
"9 c #726A5E",
"0 c #606060",
"q c #6D6D6D",
"w c #736B61",
"e c #757068",
"r c #78736D",
"t c #67767D",
"y c gray44",
"u c #B80000",
"i c #B05000",
"p c #805028",
"a c #989898",
"s c gray66",
/* pixels */
"                                                                 ",
"                                                                 ",
"                                                                 ",
"                                                                 ",
"                                                                 ",
"                                                                 ",
"                                                                 ",
"                                                                 ",
"                                                                 ",
"                                                                 ",
"                                                                 ",
"                                                                 ",
"                                                                 ",
"                                                                 ",
"                                                                 ",
"                                                                 ",
"                                                                 ",
"                                                                 ",
"                                                                 ",
"                                                                 ",
"                                                                 ",
"                                                                 ",
"                                                                 ",
"                                                                 ",
"                                                                 ",
"                                                                 ",
"                                                                 ",
"                                                                 ",
"                                                                 ",
"                                                                 ",
"                                                                 ",
"                                                                 ",
"                                                                 ",
"                                                                 ",
"                                                                 ",
"                                                                 ",
"                        e-7                                      ",
"                           $>                                    ",
"                            *=<                                  ",
"                             %p,5                                ",
"                             $pip==2224y                         ",
"                            330y  y30y03y                        ",
"                          03330yy y30yy02                        ",
"                         3q 0333233323303y                       ",
"                        3 03333yyqy0322301                       ",
"                       300 ay330    42323+                       ",
"                      y0y sa022 0  a 03@@+y                      ",
"                      00 as 322 3y a 03@@+0                      ",
"                      0y a 02@@2233 a33O@+4                      ",
"                      0y  02@@232@@2y2@O@@4                      ",
"                     y00422@+@200032@@O%O@0                      ",
"                     y3321@++23y0y03@OO=O@q                      ",
"                      22@@+p@3y    y3@@+++                       ",
"                      32+++@3y a  a y22+@O                       ",
"                      022++@0  s  as 32+++                       ",
"                       202+@y asa  s 2@++3                       ",
"                       322+2 2++400a@@++O                        ",
"                        @@+@02OuO22@u++OO                        ",
"                        22@O+2023yy3+OOOO                        ",
"                        032OO+ s30y3y...%%;e                     ",
"                       ;y02O% %@2303@2..%%%==w                   ",
"                     6=3 y3@oo s@..@00..oooo$%7                  ",
"                   7=%% yy02X XXOOO&XX3XXo$$%=r                  ",
"                     8* 303 ooooooooooo$$%%:9                    ",
"                       tt ##o$%######$$==tt                      "
};
