/* XPM */
static char *_[] = {
/* columns rows colors chars-per-pixel */
"65 65 36 1 ",
"  c None",
". c black",
"X c #282008",
"o c #382810",
"O c #202020",
"+ c #282828",
"@ c gray22",
"# c #403018",
"$ c #483818",
"% c #503818",
"& c #543F22",
"* c #584020",
"= c #5A492F",
"- c #5D4B33",
"; c #704828",
": c #63523C",
"> c #464646",
", c #484848",
"< c #505050",
"1 c #5F5F5F",
"2 c #645441",
"3 c #685A48",
"4 c #6C604F",
"5 c #6B6152",
"6 c #726A5F",
"7 c #606060",
"8 c #6D6D6D",
"9 c #78736D",
"0 c #65757D",
"q c #6B777E",
"w c gray44",
"e c #B80000",
"r c #984800",
"t c #B05000",
"y c #989898",
"u c gray66",
/* pixels */
"                                                                 ",
"                                                                 ",
"                                                                 ",
"                                                                 ",
"                                                                 ",
"                                                                 ",
"                                                                 ",
"                                                                 ",
"                                                                 ",
"                                                                 ",
"                                                                 ",
"                                                                 ",
"                                                                 ",
"                                                                 ",
"                                                                 ",
"                                                                 ",
"                                                                 ",
"                                                                 ",
"                                                                 ",
"                                                                 ",
"                                                                 ",
"                                                                 ",
"                                                                 ",
"                                                                 ",
"                                                                 ",
"                                                                 ",
"                                                                 ",
"                                                                 ",
"                                                                 ",
"                                                                 ",
"                                                                 ",
"                                                                 ",
"                                                                 ",
"                                                                 ",
"                                                                 ",
"                                                                 ",
"                              6                                  ",
"                               5                                 ",
"                               ;2                                ",
"                               ;r=                               ",
"                               ;tr0                              ",
"                              ,7ww7,                             ",
"                            1,<w  w<,1                           ",
"                          7<,<<w  w<,>,7                         ",
"                        7<1,7,7www81,1,7<                        ",
"                       www>><77w  817,,,<w                       ",
"                        7,<<77w yy 877<<,<                       ",
"                       w<<7w  wyuuy8  w7<<w                      ",
"                       w<w y w  uu ww y <<w                      ",
"                       w77 y ,7w  w1< y 77w                      ",
"                       w,,+,7><<<<,1,,,+,,8                      ",
"                       w++*++@<w  8,@++*++8                      ",
"                       w+O*++@<    <@++*O+7                      ",
"                       8OO+@@,w    w,@@OO+1                      ",
"                       w@+O+,< uwwu <,+OO@7                      ",
"                       w,@+,@@wy  y8@@,+@,1                      ",
"                       8,,+<,+OwyywO+,<+,,>                      ",
"                        ,,+@,OeO<,OeO,@+,,0                      ",
"                        ,<@++O@< w<@+++@<,%                      ",
"                       0,<@OO7@@<<@@7OO@<,%%:                    ",
"                       ,<7,@7OO@..@OO7@,7<,%%*                   ",
"                     3*,7w<@o7 @..@ 7o@7w7,o$%:                  ",
"                   5*%% ww< 7XXOOOOXX7 7ww $%*                   ",
"                     95-$ $oooooooooooo$ %&49                    ",
"                          q00$$#####$$**q                        "
};
