/* XPM */
static char *_039457e8a5446b5c3f1e14764f82edaKaPN96TCh3itUKBa_0[] = {
/* columns rows colors chars-per-pixel */
"80 82 16 1 ",
"  c None",
". c black",
"X c #5A3A21",
"o c #104231",
"O c #196B63",
"+ c gray39",
"@ c #DE733A",
"# c #9C5A4A",
"$ c #21A57B",
"% c #EF9C3A",
"& c #AD8C42",
"* c #F7BD5A",
"= c #EFBD8C",
"- c #FFEFBD",
"; c #CECECE",
": c white",
/* pixels */
"                                                                                ",
"                                   X                                            ",
"                                  X-X                                           ",
"           XX                     X-X                                           ",
"          X--X                     X-.                                          ",
"         X-.X         X            X-.                                          ",
"        X-.          X%.           X=.                                          ",
"        X-.         X%%%X          X=.                                          ",
"        X-.         X%%@..        X=.                                           ",
"         X=..XX    X%##%%%..XXXXXX=.                                            ",
"          .====XX .%%%%%%##=======.                                             ",
"           ....==.%**%%%#==XX.....                                              ",
"               X.%****%#=XX%%%.                                                 ",
"                .%****%#X%%%%%.                                                 ",
"               .%%%**%%%%%%%%%@.              ......                            ",
"               .%%%%%%%%%%%%%%@.          XXXX%%@@@@X..                         ",
"           ......%%%%%%%%..%%%@.       XXX%%%%@OOOOO@@@X.                       ",
"        ..X@@@@.;%%%%%%%.;;.%@@.     XX#%%@OOOOOOOOOOOO@@.                      ",
"      .X@@@OOOOO.%%%%%%%:.;.%@@.    .%%%@OOOOOOOOOOOO....@X                     ",
"     .@@OOOOOOOOX%%%%%%%.X:.@@@.    .%%OOO$$$OOOOO...    ..                     ",
"    X@....OOOOOO@***%%%%.X;@@@@.    .%@OO$$$$$OO..                              ",
"    ..    ...$$.*****%%%@@@@@@@.   .@@Oo$$$$$$$.                                ",
"             ..******%%%%%@@@@@.   .@@Oo$$$$$$.                                 ",
"              .%****%%%%%%X@@@@.  .@@OOOo$$$$$.                                 ",
"              .%%%%%%%%%%%X@X@@.  .@OOOOOo$$$.         XXXXXX                   ",
"              .%%%%%@%%%%X@X@@@. .%@OOOOOo$$$.       XX@%%%%@XX                 ",
"               .%%%X%%%@XXX@@@@..%@OOO$$OOO$.      XX@%%%%%%%@X                 ",
"                ..@@@@XX=#@@@@@@.@OOO$$$$OoO.     X@%%%%%%@XXX                  ",
"                  ....===#@@@@@%.@OOOO$$$$Oo.    X%%%%%%%XX                     ",
"                    .==###@@@@%%%.OOOO......    X%%%%%%%X                       ",
"                   .###==#@@@@%%%.O...         X%%%%%%%X                        ",
"                  X.=====#@@@%%%%..           X@%%%%%%X                         ",
"                 X%.===##@@@%%%%%%.           X%%%%%%@X                         ",
"                X%.=###==@@@%%%%%%.          .@%%%%%%X                          ",
"               X%%.======#@%%%%%%%@.         .@%%%%%%X                          ",
"             XX%%%.=====-#%%%%%%%%%.        .@@%%%%%%X                          ",
"           XX%%%%.#====-&&@%%%%%%%%%.       .@@@%%%%@.                          ",
"         XX%%%%%%.=###&&--&%%%%%%%%%@.      .@@@@@@@@.                          ",
"       XX%%%%%%%.====-----&%%.%%%%%%%.      .@@@@@@@@@.                         ",
"      X%%%%%%%%%.===------&%%.%%%%%%%%.     .@@@@@@@@@.                         ",
"     X@%%%%%%%%.#=------&&&%%%.%%%%%%%@.    .@@@@@@@@@.                         ",
"    XX@%%%%%%%.==&&&&&&&==&%%%.%%%%%%%@@.    .@@@@@@@@@.                        ",
"   .:.@@%%%%@@.-----------&%%%%.%%%%%%%@@.   .@@@@@@@@@.                        ",
"  .:;.@@@@@@@.=-----------&%%%%.%%%%%%%@@.   .@@@@@@@@@.                        ",
"  ...+X@@@@@@.------------&%%%%%.%%%%%%@@@.  .@@@@@@@@@@.                       ",
"    .::.XX@@.=&&&&&&&&&&--&%%%%%.@@%%%@@@@. .@@@@@@@@@@@.                       ",
"    .;..;;...&---------=&&&%%%%%@.@@@@@@@@@..@@@@@@@@@@@.                       ",
"    .. .;. .---------------&%%%@@.@@@@@@@@@.@@@@@@@@@@@@.                       ",
"       ..  .---------------&%%@@@@.@@@@@@@XX.@@@@@@@@@@@.                       ",
"          .----------------&%%@@@@@.XX@XX@;;.@@@@@@@@@@@.                       ",
"          .--&&&&&&&&&-----&%@@@@@@.:;+;;.;;.@@@@@@@@@@@.                       ",
"         X.&&=-------=&&&&-=&@@@@@@.:;.;;..;.@@@@@@@@@@.                        ",
"        X%.--------------=&&&@.%%%@.;.@.;.@.@@@@@@@@@@@.                        ",
"       X%.-----------------=&.%%%%%@.@@..@@@@@@@@@@@@@@.                        ",
"       X*.----------------==.%%%%%%%@@@@.@@@@@@@@@@@@#.                         ",
"      X**.---------------===.***%%%%%@@@.@@@@@@@@@@@#&.                         ",
"      X**.=-&&&&&&&&&&&====.%****%%%%%@@@.@@@@@@@@@#&.                          ",
"     X***.&&----------=&&&&.*****%%%%%@@@.@@@@@@@@##&.                          ",
"     X***%.==-------=======.*****%%%%%@@@.@@@@@@@#&#.                           ",
"     X**%%.===============.%*****%%%%%@@@@.@@@@@##&#.                           ",
"     X%%%%.===============.%%***%%%%%%@@@@.@@@##&#&.                            ",
"     .%%%%@.&===========&&.@%%%%%%%%%@@@@@.@###&#&.                             ",
"     .%%%@@.=&&&&&&&&&&&==.@@%%%%%%%@@@@@@.#&&#&#.                              ",
"      .@@@@@.=============.@@@@%%%%@@@@@@@.#&#&&.                               ",
"      .@@@@@.&============&.@@@@@@@@@@@@@@.&&#..                                ",
"       .@@@@@.&========&&&&.@@@@@@@@@@@@@@.&..                                  ",
"       .@@@@@@.&&&&&&&&&&&##.@@@@@@@@@@@@...                                    ",
"        .@@@@@@..#########&&&.@@@@@@@@@@@.                                      ",
"         .@@@@@@@..&&&&&&&&&&&.@@@@@@@@@.                                       ",
"          .@@@@@@@@....&&&&&##&..@@@@@@@.                                       ",
"         X@X@@@@@@@.   ...........@@@@@@.                                       ",
"       XXX@#@@@@@@@.             .@#@@@@@.                                      ",
"     ..%%%#@@@@@@@.              .@#@@@@@.                                      ",
"    .:+@%%@@@@@@@.              .@@@%%%%@@.                                     ",
"   .:.;+@%%@@@@@.               .@%%%%%%%%.                                     ",
"   .+:.:;@@@@@..                .@%@%%@%%@@.                                    ",
"    ..::;+@@..                  .@@:@@:@@:@.                                    ",
"     .......                     .::@:::@::.                                    ",
"                                 .::.:::.::.                                    ",
"                                  .:..:..:.                                     ",
"                                   .  .  .                                      ",
"                                                                                "
};
