/* XPM */
static char *_039457e8a5446b5c3f1e14764f82edaKaPN96TCh3itUKBa_71[] = {
/* columns rows colors chars-per-pixel */
"80 82 16 1 ",
"  c None",
". c black",
"X c #5A3A21",
"o c #104231",
"O c #196B63",
"+ c gray39",
"@ c #DE733A",
"# c #9C5A4A",
"$ c #21A57B",
"% c #EF9C3A",
"& c #AD8C42",
"* c #F7BD5A",
"= c #EFBD8C",
"- c #FFEFBD",
"; c #CECECE",
": c white",
/* pixels */
"                                                                                ",
"                                                                                ",
"                       X                                                        ",
"                      X%.                                                       ",
"         XX          X%%%X              X                                       ",
"         X--         X%%@..            X-                                       ",
"         X.X        X%##%%%.X          -XX                                      ",
"        X-         .%%%%%%%%%.         X-                                       ",
"        X-.       .%**%%%%%#%%.       XX-.                                      ",
"        X-.  XX=X.%****%%##=#==XX     X=.                                       ",
"        XX-=.====.%****%#X=X=X===XX XXX=.                                       ",
"          X.=....%%%**%%%X%%%%X..==X=..                                         ",
"             .  .%%%%%%%%%%%%%%@...=..                                          ",
"                ..%%%%%%%%..%%%@.                                               ",
"                .;%%%%%%%.;;.%%@.                                               ",
"                 .%%%%%%%:.;.%@@.                                               ",
"                 X%%%%%%%.X:.@@@.          X   XX  ....                         ",
"                 @***%%%%.X;@@@@.        XXXXX%%%XX%%@@...                      ",
"         ....  X.*****%%%@@@@@@@.      ..%%#%%@OO%%@OOO@@X...                   ",
"      ...@@%%X.*******%%%%%@@@@@.      .%%%%@OOOOOOOOOOOO@@@@                   ",
"   ...X@@OOO@%.%****%%%%%%X@@@@@.      .%@OOOO$$$OOOOOOOOOOO@..                 ",
"   @@@@OOOOOOO.%%%%%%%%%%%X@X@@.      .@@OoOO$$$$OOOOOOOOO...@..                ",
" ..@OOOOOOOOOO.%%%%%@%%%%X@X@@@.      .@@Oo$$$$$$$OO.. ...  ..@X                ",
"..@...OOO$$$$$O.%%%X%%%@XXX@@@@.    .@@@OOO$$$$$$$$.          ..                ",
"X@..  ... .$$$$o..@@@@XX=#@@@@@@.  .%@OOOOOo$$$$$$.                             ",
"..         .$$$oOO....===#@@@@@@@ .%@@OOOOOOo$$$...                             ",
"            .$Oo$$$$.==###@@@@@@%..@OOOO$$$Oo$$$.                               ",
"            .$$O$$$.###==#@@@@@%%%%@OOO$$$$OOO$..                               ",
"             .oO....=====#@@@@%%%.OOOOOO$$$OooO.                                ",
"              ..   .===##@@@@%%%%.OO.OOO..$$Oo..                                ",
"                  .=###==@@@%%%%%%......  ....                   X              ",
"                 X.======#@%%%%%%%.                          XXXX@XXX           ",
"                X%.=====-#%%%%%%%%@.                      X%@%%@%%%%%XX         ",
"              XX%.#====-&&@%%%%%%%%.                    XX%%%%%%%%%%%%@         ",
"             X%%%.=###&&--&%%%%%%%%%.                 X@%%%%%%%%%%%@%%@X        ",
"            X%%%.====-----&%%%%%%%%%@.               .X%%%%%%%%%%%XXXXXX        ",
"          XX%%%%.===------&%%.%%%%%%%.              .@@%%%%%%%%X                ",
"        XX%%%%%.#=------&&&%%.%%%%%%%%.            .@@%%%%%%%@X                 ",
"       X%%%%%%.==&&&&&&&==&%%%.%%%%%%%@.           .@@%%%%%%X                   ",
"      X@%%%%%%.-----------&%%%.%%%%%%%@@          .@@@%%%%%%X                   ",
"     XX@%%%%%.=-----------&%%%.%%%%%%%@@          .@@@@@%%@XX                   ",
"    .:.@@@%%%.------------&%%%.%%%%%%%@@.        ..@@@@@@@@.                    ",
"    .:;.@@@@.=&&&&&&&&&&--&%%%%.%%%%%%@@.         @@@@@@@@@.                    ",
"    ...+X@@@.&---------=&&&%%%%.@@%%%@@@@.        .@@@@@@@@.                    ",
"      .::.X.---------------&%%%@.@@@@@@@@.       .@@@@@@@@@.                    ",
"      .;..;.---------------&%%@@.@@@@@@@@@.    ...@@@@@@@@@.                    ",
"      .. ..----------------&%%@@@.@@@@@@@@.    ...@@@@@@@@@.                    ",
"         ..--&&&&&&&&&-----&%@@@@@.XX@XX@XX.  ..@@@@@@@@@@@.                    ",
"          .&&=-------=&&&&-=&@@@@@.:;+;;@;;...@@@@@@@@@@@@@.                    ",
"          .--------------=&&&@@@@@.:;.;;.;;.@@@@@@@@@@@@@@@.                    ",
"         .-----------------=&@@@@@.;...;..;.@@@@@@@@@@@@@@@.                    ",
"         .----------------==&@%%%@@.@@...@.@@@@@@@@@@@@@@@.                     ",
"         .---------------===&.%%%%@@@@.@@@@@@@@@@@@@@@@@@@.                     ",
"        X.=-&&&&&&&&&&&=====.%%%%%%@@@@.@@@@@@@@@@@@@@@@@@.                     ",
"        X.&&----------=&&&&.%%%%%%%%%@@@.@@@@@@@@@@@@@@@..                      ",
"       XX*.==-------========.***%%%%%%@@@.@@@@@@@@@@@@@@.                       ",
"        X*.================.%****%%%%%@@@.@@@@@@@@@@@@#@.                       ",
"       X**.================.*****%%%%%@@@.@@@@@@@@@@@#&.                        ",
"       X***.&===========&&&.*****%%%%%@@@@.@@@@@@@##&..                         ",
"       X**%.=&&&&&&&&&&&==.%*****%%%%%@@@@.@@@@@@###&.                          ",
"       X%%%%.=============.%%***%%%%%%@@@@.@@@@@##&#.                           ",
"       X%%%%.&============.@%%%%%%%%%@@@@@.####&#&##.                           ",
"       .%%%@@.&========&&&.@@%%%%%%%@@@@@@.&&#&#&..                             ",
"       .%%@@@@.&&&&&&&&&&&.@@@@%%%%@@@@@@@.&#&&#.                               ",
"        .@@@@@@..#########&.@@@@@@@@@@@@@@.#..&.                                ",
"        .@@@@@@@@..&&&&&&&&.@@@@@@@@@@@@@@..                                    ",
"         .@@@@@@@@@....&&&&&.@@@@@@@@@@@@.                                      ",
"         .@@@@@@@@@@@. .......@@@@@@@@@@@.                                      ",
"          .@@@@@@@@@@.       ..@@@@@@@@@.                                       ",
"           .@@@@@@@@@.        ...@@@@@@@.                                       ",
"          X@.@@@@@@@@.         . .@@@@@@..                                      ",
"        XXX@#@@@@@@@.             .@#@@@@.                                      ",
"      ..%%%#@@@@@@@.              .@#@@@@.                                      ",
"     .:+@%%@@@@@@@.              .@@@%%%@@.                                     ",
"    .:.;+@%%%@@@@.               .@%%%%%%%.                                     ",
"    .+:.:;@@@@@@.                .@%@%@%%@@.                                    ",
"     ..::;++@@..                 .@@:@:@@:@.                                    ",
"      ........                    .:::::@::.                                    ",
"                                  .:::::.::.                                    ",
"                                   .:.:..:.                                     ",
"                                    . .  .                                      ",
"                                                                                "
};
