/* XPM */
static char *_039457e8a5446b5c3f1e14764f82edaKaPN96TCh3itUKBa_97[] = {
/* columns rows colors chars-per-pixel */
"80 82 16 1 ",
"  c None",
". c black",
"X c #5A3A21",
"o c #104231",
"O c #196B63",
"+ c gray39",
"@ c #DE733A",
"# c #9C5A4A",
"$ c #21A57B",
"% c #EF9C3A",
"& c #AD8C42",
"* c #F7BD5A",
"= c #EFBD8C",
"- c #FFEFBD",
"; c #CECECE",
": c white",
/* pixels */
"                                                                                ",
"                                                                                ",
"                                      X                                         ",
"            X                        X-X                                        ",
"           X-X         X             X-X                                        ",
"          X--         X%.             X-.                                       ",
"          X-.        X%%%X           X-.                                        ",
"         X-.         X%%@..          X=.                                        ",
"         X-.        X%##%%%.X        X=.                                        ",
"         X-. .XX   .%%%%%%%%%.XXX   X=.                                         ",
"          X=.===XX.%**%%%%%##====XXX=.                                          ",
"           .=...=.%****%%##==XX..===.                                           ",
"            .   X.%****%#X=XX%%. ...                                            ",
"                .%%%**%%%X%%%%%@                                                ",
"                .%%%%%%%%%%%%%%@.                                               ",
"                ..%%%%%%%%..%%%@.                                               ",
"                .;%%%%%%%.;;.%@@.       X  ...                                  ",
"                 .%%%%%%%:.;.%@@.     XXXXX%@@X.                                ",
"                 X%%%%%%%.X:.@@@.    X#%%%@OOO@@X                               ",
"                @****%%%%.X;@@@@.   .%@OOOOOOOOO@                               ",
"               .*****%%%%@@@@@@@.   %%OOOOOOOOO...                              ",
"              .******%%%%%%@@@@@.   %@O$$OOOO..  @                              ",
"              .%****%%%%%%X@@@@@.  .@O$$$$O..    .                              ",
"              .%%%%%%%%%%%X@X@@.   @@o$$$$.                                     ",
"              .%%%%%@%%%%X@X@@@.  .@OOo$$$                                      ",
"               .%%%X%%%@XXX@@@@.  .OOOo$$$                                      ",
"                ..@@@@XX=#@@@@@@..@OOOo$$.                XXX                   ",
"                  ....===#@@@@@@@%OO$$O$$               XX@%%XXX                ",
"                    .==###@@@@@@%.OO$$OO.             XX@%%%%%%@XX              ",
"                   .###==#@@@@@%%%OO$$$o.            X@%%%%%%%%%@X              ",
"                   .=====#@@@@%%%.OO....           XX%%%%%%%%@XXX               ",
"                   .===##@@@@%%%%...   .          X%%%%%%%%XXX                  ",
"                  .=###==@@@%%%%%%.             X@%%%%%%%%X                     ",
"                 X.======#@%%%%%%%.             X%%%%%%%X                       ",
"                X%.=====-#%%%%%%%%@.           .@%%%%%%@X                       ",
"              XX%.#====-&&@%%%%%%%%.           .@%%%%%%X                        ",
"            XX%%%.=###&&--&%%%%%%%%%.         .@@%%%%%%X                        ",
"          XX%%%%.====-----&%%%%%%%%%@.        .@@@%%%%%X                        ",
"        XX%%%%%%.===------&%%.%%%%%%%.        .@@@@@%%@.                        ",
"       X%%%%%%%.#=------&&&%%.%%%%%%%%.       .@@@@@@@@.                        ",
"      X@%%%%%%.==&&&&&&&==&%%%.%%%%%%%@.     .@@@@@@@@@@.                       ",
"     XX@%%%%%%.-----------&%%%.%%%%%%%@@.    .@@@@@@@@@.                        ",
"    .:.@@%%%%.=-----------&%%%%.%%%%%%%@@.    .@@@@@@@@.@                       ",
"   .:;.@@@@@@.------------&%%%%.%%%%%%%@@.    .@@@@@@@@@.                       ",
"   ...+X@@@@.=&&&&&&&&&&--&%%%%%.%%%%%%@@@.   .@@@@@@@@@..                      ",
"     .::.XX@.&---------=&&&%%%%%.@@%%%@@@@.   .@@@@@@@@@@@.                     ",
"     .;..;;.---------------&%%%@@.@@@@@@@@@. .@@@@@@@@@@@@.                     ",
"     .. .;..---------------&%%@@@.@@@@@@@@@...@@@@@@@@@@@.                      ",
"        ...----------------&%%@@@@.@@@@@@@XX.@@@@@@@@@@@@.                      ",
"          .--&&&&&&&&&-----&%@@@@@@.XX@XX@;;.@@@@@@@@@@@@.                      ",
"          .&&=-------=&&&&-=&@@@@@@.:;+;;.;;.@@@@@@@@@@@@.                      ",
"          .--------------=&&&@@@@@@.:;.;;..;.@@@@@@@@@@@@.                      ",
"         .-----------------=&.%%%@@.;...;.@.@@@@@@@@@@@@.                       ",
"         .----------------==&.%%%%@@.@.@.@@@@@@@@@@@@@@@.                       ",
"        X.---------------===.%%%%%%@@@@@.@@@@@@@@@@@@@@@.                       ",
"        X.=-&&&&&&&&&&&====.%%%%%%%%%@@@.@@@@@@@@@@@@@#.                        ",
"       X*.&&----------=&&&&.****%%%%%%@@@.@@@@@@@@@@@#&.                        ",
"       X**.==-------=======.%****%%%%%@@@.@@@@@@@@@@#&.                         ",
"      X***.================.*****%%%%%@@@.@@@@@@@@##&.                          ",
"       X**.================.*****%%%%%@@@@.@@@@@@#&#.                           ",
"       X**%.&===========&&.%*****%%%%%@@@@.@@@#@##&#.                           ",
"       X%%%.=&&&&&&&&&&&==.%%***%%%%%%@@@@.@####&#&.                            ",
"       .%%%%.=============.@%%%%%%%%%@@@@@.#&&#&#&.                             ",
"       .%%%@.&============.@@%%%%%%%@@@@@@.#&#&&#.                              ",
"        .@@@@.&========&&&.@@@@%%%%@@@@@@@.&&#.&.                               ",
"        .@@@@@.&&&&&&&&&&&#.@@@@@@@@@@@@@@.&.. .                                ",
"         .@@@@@..#########&.@@@@@@@@@@@@@@..                                    ",
"         .@@@@@@@..&&&&&&&&&.@@@@@@@@@@@@.                                      ",
"          .@@@@@@@@....&&&&&#.@@@@@@@@@@@.                                      ",
"           .@@@@@@@@@. ........@@@@@@@@@.                                       ",
"          X@.@@@@@@@@.         ..@@@@@@@..                                      ",
"        XXX@#@@@@@@@.            .@@@@@@..                                      ",
"      ..%%%#@@@@@@@.              .@#@@@@.                                      ",
"     .:+@%%@@@@@@@.              .@@@%%%@@.                                     ",
"    .:.;+@%%%@@@@@               .@%%%%%%%.                                     ",
"    .+:.:;@@@@@@..               .@%@%@%%@@.                                    ",
"     ..::;++@@..                 .@@:@:@@:@.                                    ",
"      ........                    .:::::@::.                                    ",
"                                  .:::::.::.                                    ",
"                                   .:.:..:.                                     ",
"                                    . .  .                                      ",
"                                                                                "
};
