/* XPM */
static char *_[] = {
/* columns rows colors chars-per-pixel */
"65 65 94 2 ",
"   c None",
".  c black",
"X  c gray4",
"o  c #161616",
"O  c gray12",
"+  c #202020",
"@  c #282828",
"#  c gray20",
"$  c gray24",
"%  c #503818",
"&  c #684820",
"*  c #000040",
"=  c #0C0C46",
"-  c #000048",
";  c #0A0A4C",
":  c #1F1F4F",
">  c #000058",
",  c #29295A",
"<  c #39395C",
"1  c #000060",
"2  c #000070",
"3  c #000078",
"4  c #2D2D66",
"5  c #414141",
"6  c gray31",
"7  c #505050",
"8  c #5F5F5F",
"9  c #434365",
"0  c #50506B",
"q  c #59596F",
"w  c #5F5F70",
"e  c #606060",
"r  c DimGray",
"t  c #7A7269",
"y  c #656573",
"u  c #6A6A76",
"i  c #62627C",
"p  c #67757E",
"a  c gray44",
"s  c #805028",
"d  c #885830",
"f  c #905830",
"g  c #986038",
"h  c #A06038",
"j  c #E06800",
"k  c #806B59",
"l  c #9D775A",
"z  c #B07040",
"x  c #B87848",
"c  c #83756A",
"v  c #C87848",
"b  c #989800",
"n  c #F8F800",
"m  c #D08050",
"M  c #D88850",
"N  c #E88858",
"B  c #F09058",
"V  c #F89860",
"C  c #F8A070",
"Z  c #F8F850",
"A  c #000088",
"S  c #000098",
"D  c #37379F",
"F  c #0000A0",
"G  c #0909AD",
"H  c #1D1DA5",
"J  c #1212A9",
"K  c #0000B0",
"L  c #0C0CB2",
"P  c #0000B8",
"I  c #1111B1",
"U  c #2424A2",
"Y  c #2F2FBC",
"T  c #55558A",
"R  c #5F5F8C",
"E  c #464695",
"W  c #4E4E96",
"Q  c #40409B",
"!  c #56569A",
"~  c #65658A",
"^  c #6C6C8E",
"/  c #6A6A90",
"(  c #0000C8",
")  c #0000D0",
"_  c #0000E0",
"`  c #989898",
"'  c gray66",
"]  c gray69",
"[  c #F8B080",
"{  c #F8B890",
"}  c #F8B898",
"|  c #F8C0A0",
" . c #F8C8B0",
".. c #F8E0D0",
/* pixels */
"                                                                                                                                  ",
"                                                                                                                                  ",
"                                                                                                                                  ",
"                                                                                                                                  ",
"                                                                                                                                  ",
"                                                                                                                                  ",
"                                                                                                                                  ",
"                                                                                                                                  ",
"                                                                                                                                  ",
"                                                                                                                                  ",
"                                                                R ! ^                                                             ",
"                                                          T S F F ) _ O                                                           ",
"                                                        Y F F F F ) . . #                                                         ",
"                                                      / _ _ F F _ . . . .                                                         ",
"                                                      Q 2 _ _ _ . . . . . r                                                       ",
"                                                      4 2 2 2 2 . . . . .                                                         ",
"                                                      l Z P 2 2 . . . . j c                                                       ",
"                                                      k n v P v B g P v b t                                                       ",
"                                                        C { | [ m d } [ m                                                         ",
"                                                        C { C V V V V v x                                                         ",
"                                                        C { B  .....C v m                                                         ",
"                                                        [ { B C C C C v N                                                         ",
"                                                      6 f [ C C v C B B s $                                                       ",
"                                                      @ @ f f f f f s s . .                                                       ",
"                                              i J K @ @   + v v z s s . 7 . . . q                                                 ",
"                                            E K K @ @ @ @   . . s . . 7 . 1 1 1 - 9                                               ",
"                                          ~ K _ K @ @ @ K . - . . . - . 2 F F F 2 > 0                                             ",
"                                          G K 1 F @ @ @ * A A 1 F F F F F F K K 2 2 * u                                           ",
"                                        R K A A K K @ @ @ A A 1 K A A A A A K K F 2 2 *                                           ",
"                                        H K - A K K @ @ @ * A 1 F S S S S A F A K K 2 2 ,                                         ",
"                                        K A - A F F - @ @ . * 1 F 2 2 2 2 2 F 1 K K K 2 2 y                                       ",
"                                        3 2 > * S S 3 . . . . . F 1 3 3 3 - A 1 A A A S . X                                       ",
"                                        K K * * 1 1 1 * . . . . > > - - - > A * 1 * * * 1 1 q                                     ",
"                                        K 3 3 - . 1 > e a a 6 . . . > > a > > * * 1 * S S . :                                     ",
"                                        3 K K K       ` ` ` ` ` ' ' ' ' @ + - 2 A S A S * . o                                     ",
"                                        U K K K   7 7 5 5 5 6 6 6 6 7 7 @ @ A S S S 2 > S 1 y                                     ",
"                                        y K _ ] . 7 7 7 + + + . . # $ @ + . 7 A 2 2 > > * $                                       ",
"                                          ;   3 3 z . . 6 6 @ . & & & & & . * 7 > > > * 5                                         ",
"                                          y   > h V V N 7 7 @ . d x M g & . * 6 > * * 8                                           ",
"                                            e - M V M h 7 7 @ . d x M g & . * $ * .                                               ",
"                                              - M V V h % . . . d h h & & . . . . p                                               ",
"                                                1 h h & % . . . . . . 2 2 2 * * . $                                               ",
"                                                P P 1 - * * * . . . * * * * * * * #                                               ",
"                                              Q P P P 1 - * * * . * * > A A 1 * * :                                               ",
"                                              I P P P S 1 - * * . * * A A 2 > - * *                                               ",
"                                              P P P P S 1 - * * . * * 1 > > > > * *                                               ",
"                                            W P P P S 3 1 * * * . * - > > > > > * *                                               ",
"                                            K P P S S 3 1 - * * . * > > > 2 2 3 > *                                               ",
"                                            P P P S 3 1 - * * . . * > > 2 S A 3 > * w                                             ",
"                                          L P P S S 3 1 - * *   . * 1 2 S S A A 1 * 0                                             ",
"                                          P P P P P P 3 3 - .     * 1 3 S S S S 3 - 9                                             ",
"                                          P ( _ F 1 1 - - * .     * 3 3 S 1 1 S 3 3 <                                             ",
"                                          P F 3 2 1 1 * * *       * 3 * 1 > > 1 - * <                                             ",
"                                          D 3 1 1 1 * * * * .     . * 1 > > > > * - 5                                             ",
"                                            * * * * * * . . .     . * 1 > > - * * * 7                                             ",
"                                            * * * . . . . . .     . . * * * * * * . a                                             ",
"                                            9 * . . . . . . .       . . . . . . . .                                               ",
"                                              * * . . . . . .       . * . - . . . #                                               ",
"                                              . * * * . . .         . . * - . . .                                                 ",
"                                              . . . . . . . .         . . . * . .                                                 ",
"                                              * * . . . . . .         . . * . . .                                                 ",
"                                            = * * * . . . . .       . . . * * . . #                                               ",
"                                          r * * * . . . . .         . * * * * * . .                                               ",
"                                          8 * * * . . . .           . . * * * * . . 5                                             ",
"                                            . . . . . .               . . . . . . . .                                             "
};
