/* XPM */
static char *_[] = {
/* columns rows colors chars-per-pixel */
"65 65 102 2 ",
"   c None",
".  c black",
"X  c gray6",
"o  c gray10",
"O  c #282008",
"+  c #2F2711",
"@  c #382810",
"#  c #38311E",
"$  c #202020",
"%  c #282828",
"&  c #3E3826",
"*  c gray19",
"=  c gray23",
"-  c #600000",
";  c #403018",
":  c #483818",
">  c #503818",
",  c #443F2E",
"<  c #4D402D",
"1  c #584020",
"2  c #544C3D",
"3  c #684820",
"4  c #704828",
"5  c #000040",
"6  c #000048",
"7  c #000060",
"8  c #000070",
"9  c #000078",
"0  c #444444",
"q  c #484848",
"w  c #514D40",
"e  c #584F42",
"r  c #545044",
"t  c #5D5549",
"y  c #505050",
"u  c #5D5A50",
"i  c #5B5B5B",
"p  c #615A4E",
"a  c #755943",
"s  c #67645D",
"d  c #606060",
"f  c #6F6F6F",
"g  c #726F6B",
"h  c #72716D",
"j  c #67757D",
"k  c #68767E",
"l  c gray44",
"z  c #980000",
"x  c #AF2D2D",
"c  c #C70101",
"v  c #C80000",
"b  c #E80000",
"n  c #F80000",
"m  c #B05000",
"M  c #805028",
"N  c #885830",
"B  c #8D5F3D",
"V  c #905830",
"C  c #97623D",
"Z  c #986038",
"A  c #A06038",
"S  c #8C6344",
"D  c #9C765A",
"F  c #99785F",
"G  c #A86840",
"H  c #AE7142",
"J  c #B07040",
"K  c #B3794D",
"L  c #B87848",
"P  c #A47451",
"I  c #A67B5A",
"U  c #B87A55",
"Y  c #8F7B6C",
"T  c #967C69",
"R  c #9F7C68",
"E  c #997676",
"W  c #F05050",
"Q  c #C87848",
"!  c #F88820",
"~  c #F8F800",
"^  c #D08050",
"/  c #D88850",
"(  c #E88858",
")  c #F09058",
"_  c #F8A858",
"`  c #CE9475",
"'  c #F89860",
"]  c #E29973",
"[  c #F8A070",
"{  c #000088",
"}  c #000098",
"|  c #0000A8",
" . c #0000B0",
".. c #0000D0",
"X. c #0000E0",
"o. c gray59",
"O. c #989898",
"+. c #F8B080",
"@. c #F8B890",
"#. c #C0C0C0",
"$. c #CDCDCD",
"%. c gray91",
/* pixels */
"                                                                                                                                  ",
"                                                                                                                                  ",
"                                                                                                                                  ",
"                                                                                                                                  ",
"                                                                                                                                  ",
"                                                                                                                                  ",
"                                                                                                                                  ",
"                                                                                                                                  ",
"                                                                                                                                  ",
"                                                                                                                                  ",
"                                                                                                                                  ",
"                                                                                                                                  ",
"                                                                                                                                  ",
"                                                                                                                                  ",
"                                                                                                                                  ",
"                                                                                                                                  ",
"                                                                                                                                  ",
"                                                                                                                                  ",
"                                                                                                                                  ",
"                                                              O.    d                                                             ",
"                                                            $.  y y q =                                                           ",
"                                                              d y y q = %                                                         ",
"                                                          O.  l q y q = $                                                         ",
"                                                        o.#.%.#.  l d y % %                                                       ",
"                                                        c % m m m m m % . %                                                       ",
"                                                          - W m _ m W - 4 x                                                       ",
"                                                      E - z ! ~ ~ ~ ! m :                                                         ",
"                                                        - m _ ~ %.~ _ m .                                                         ",
"                                                    ` ( . m b W _ ~ b m . ; B                                                     ",
"                                                ] Q A M ; - W ! ! m W - m G G M C                                                 ",
"                                              [ [ ) ' v [ N - m m m - . . ' ' ' ' Z                                               ",
"                                            I [ [ ' ' [ Z +.n J [ m L L Z 1 ^ ^ L L P                                             ",
"                                            T @.( G ^ L 3 +.+.J @.[ L L Z 1 G G G V a                                             ",
"                                              K G A Z N N 1 N N N G O O . . 1 4 4 4 g                                             ",
"                                                1 1 1 : @ $ $ O . : : : J N : O @ t                                               ",
"                                                  M O O ; > $ $ $ q ^ J J N : O                                                   ",
"                                                    N : O ; M $ $ $ q J A N 1 2                                                   ",
"                                                    Q N > : ; M . $ $ $ N 1 @                                                     ",
"                                                    Q ) Z > ; ; . N . . . 1 O                                                     ",
"                                                    y q = $ $     y $ $ $ . .                                                     ",
"                                                    y q = $ $ y y y $ $ $ . .                                                     ",
"                                                    Q ) Z ^ 4 4 ; 4 4 @ 3 1 O                                                     ",
"                                                  U ) ) / ^ J 4 . 4 4 4 M 3 : e                                                   ",
"                                                  Q ) ) ^ ^ J 4 . 4 A V V 3 : @                                                   ",
"                                                  ) ) ) ^ ^ J . . > A V V M : @                                                   ",
"                                                R ) ) ^ ^ J 4 . O . 4 V N M : @ s                                                 ",
"                                                B N 4 4 ; ; . O @ O . . . . . . ,                                                 ",
"                                                J / ( ( L 1 ; +   O 1 A L / A M O                                                 ",
"                                                Q ( ' ' L M ; u   w 1 L / ' J A ;                                                 ",
"                                              D Q ' +.' L N O       O V ^ / ' J ;                                                 ",
"                                              H / +.+.4 L 1 O       # 3 4 Z ' ' 1 p                                               ",
"                                              J +.^ L ) 4 O k         O L ' / A A <                                               ",
"                                              / ' +.L : 4 ; s       l 1 1 A / ' A 1                                               ",
"                                            Y / ' +.L V : O           O V L / / A 1                                               ",
"                                            F ( ' ' L N 1 r           & V ^ ^ ^ A 1                                               ",
"                                            S L L L 4 4 ;             s 1 V V 1 1 O h                                             ",
"                                            X $ $ $ $ $ *               . $ $ $ $ .                                               ",
"                                            . 9 9 5 $ $                 X | 8 5 5 .                                               ",
"                                            . | 6 5 $ $                 y 7 | 6 5 .                                               ",
"                                            . X.9 5 $ *                   $ | X.5 $ X                                             ",
"                                            . | 6 5 $                     X 7 | 6 $ .                                             ",
"                                            7 | 6 $ .                       $ | 8 5 .                                             ",
"                                          0 | ..9 6 $ d                   d { .. . .8 o                                           ",
"                                        i | 8 8 5 6 $ f                   i | } 8 5 5 $ y                                         ",
"                                      j $ $ $ $ $ $ .                     j . $ $ $ $ $ .                                         "
};
