/* XPM */
static char *_[] = {
/* columns rows colors chars-per-pixel */
"65 65 59 1 ",
"  c None",
". c #010101",
"X c #151515",
"o c gray11",
"O c #202020",
"+ c gray15",
"@ c #282828",
"# c gray20",
"$ c gray22",
"% c #700000",
"& c #503818",
"* c #404000",
"= c #5D5D0F",
"- c #707000",
"; c #584020",
": c #684820",
"> c #000040",
", c #272753",
"< c #282854",
"1 c #000060",
"2 c #000078",
"3 c #484848",
"4 c gray31",
"5 c #505050",
"6 c #5F5F5F",
"7 c #474763",
"8 c #4E4E67",
"9 c #606060",
"0 c #6D6D6D",
"q c #636372",
"w c gray44",
"e c #A00000",
"r c #E00000",
"t c #A85000",
"y c #805028",
"u c #885830",
"i c #986038",
"p c #A06038",
"a c #F87800",
"s c #B87848",
"d c #C87848",
"f c #989800",
"g c #D08050",
"h c #D88850",
"j c #F89860",
"k c #0000A8",
"l c #0000B8",
"z c #959595",
"x c #9D9D9D",
"c c gray63",
"v c #AFAFAF",
"b c gray69",
"n c gray72",
"m c #F8B890",
"M c #C0C0C0",
"N c #D0D0D0",
"B c gray84",
"V c #D8D8D8",
"C c gray91",
/* pixels */
"                                                                 ",
"                                                                 ",
"                                                                 ",
"                                                                 ",
"                                                                 ",
"                                                                 ",
"                                                                 ",
"                                                                 ",
"                                                                 ",
"                                                                 ",
"                                                                 ",
"                                                                 ",
"                                                                 ",
"                                                                 ",
"                                                                 ",
"                                                                 ",
"                                                                 ",
"                                                                 ",
"                         %rll222111%#                            ",
"                         3keeeeeeee+3                            ",
"                         0kk$$5ww5$.6                            ",
"                          f-3+++++++                             ",
"                          fj-333#+@*                             ",
"                          =jsikyy;:&                             ",
"                           smmV0dds&                             ",
"                          +ujM++wdu.                             ",
"                          .ydM++9dy.                             ",
"                       xBVbbV3ww3VVVVx                           ",
"                       VVVVVmmmgpxxVVV                           ",
"                       VVVVVmmgpp xxbbc                          ",
"                       MMvvxmmdppw xx w                          ",
"                       vxx 9o3  BBb 956                          ",
"                       xx   +o3 bvb  99                          ",
"                        V    oo3wc   90                          ",
"                        Vb w  ++ow  w9w                          ",
"                        nb  0 w++o w95                           ",
"                         V5w5ww5+++w5$                           ",
"                         ..+++hsi+++..                           ",
"                         +++o+at:o++..                           ",
"                         vvvc  3ww  93                           ",
"                         vCCbb 9vCCCz 9                          ",
"                        zCCCbb 9BbnnMx                           ",
"                        cCCbbx93 VVVVVb                          ",
"                         CCbbx93xVvvvv                           ",
"                        V     3wxwBBBBv                          ",
"                        VVx  99wxbBVVBb                          ",
"                       vCbx  99wxvBBVBnx                         ",
"                       BCbx  99 zbBBVVVB                         ",
"                       BCbx  95  bbBVVVBz                        ",
"                       Bbbx 996  zbBVBVBB                        ",
"                       bxv w 95   znBBVBB                        ",
"                        0xx 53w   zMVVVVBn                       ",
"                       9999 95    MBVMMMvV                       ",
"                      396663$3    vMbvv  3                       ",
"                      $.333#.      3    w$                       ",
"                      #.>...X      9w953$@                       ",
"                      #.....       7>>....                       ",
"                       .....3       >>....                       ",
"                       .....#       ,>>...                       ",
"                      8..>..6        .>>..                       ",
"                      q>>>+@         .....                       ",
"                       <>,q          >>...6                      ",
"                                     >>>..$                      ",
"                                    8>>>>.o                      ",
"                                    o>>....                      "
};
