/* XPM */
static char *out[] = {
/* columns rows colors chars-per-pixel */
"64 64 18 1 ",
"  c None",
". c black",
"X c gray6",
"o c gray12",
"O c #2F2F2F",
"+ c #3F3F3F",
"@ c gray31",
"# c #5F5F5F",
"$ c #6F6F6F",
"% c gray50",
"& c gray56",
"* c #9F9F9F",
"= c #AFAFAF",
"- c gray75",
"; c gray81",
": c #DFDFDF",
"> c #EFEFEF",
", c white",
/* pixels */
"                                                                ",
"                                                                ",
"                                                                ",
"                            .......                             ",
"                         ...........                            ",
"                        .............                           ",
"                       ...............                          ",
"                       ....+=>,,:%.....                         ",
"                      ....#,,,,,,,&.... .........               ",
"               ...... ....>,,,,,,,,+...............             ",
"             ............o,,,,,,,,,&................            ",
"           ...............,,,,,,,,,:.......O+++......           ",
"          ................-,,,,,,,,,O....O;,,,,:@....           ",
"         ......%---&X.....$,,,,,,,,,$...X:,,,,,,,+....          ",
"         ....o;,,,,,:o....o,,,,,,,,,;...+,,,,,,,,=....          ",
"         ...X>,,,,,,,-.....:,,,,,,,,,@..#,,,,,,,,,....          ",
"        ....%,,,,,,,,,@....&,,,,,,,,,>**>,,,,,,,,,....          ",
"        ....%,,,,,,,,,>X...@,,,,,,,,,,,,,,,,,,,,,,....          ",
"         ...O,,,,,,,,,,&...$,,,,,,,,,,,,,,,,,,,,,,....          ",
"         ....-,,,,,,,,,,#.X;,,,,,,,,,,,,,,,,,,,,,,....          ",
"         ....o>,,,,,,,,,,,,,,,,,,,,,,,,,,,,,,,,,,,....          ",
"          ....%,,,,,,,,,,,,,,,,,,,,,,,,,,,,,,,,,,,....          ",
"          .....:,,,,,,,,,,,,,,,,,,,,,,,,,,,,,,,,,,....          ",
"           ....@,,,,,,,,,,,,,,,,,,,,,,,,,,,,,,,,,,....          ",
"            ....-,,,,,,,,,,,,,,,,,,,,,,,,,,,,,,,,,X...          ",
"            ....+,,,,,,,,,,,,,,,,,,,,,,,,,,,,,,,,,+...          ",
"             ....;,,,,,,,,,,,,,,,,,,,,,,,,,,,,,,,,+...          ",
"             ....+,,,,,,,,,,,,,,,,,,,,,,,,,,,,,,,,%...          ",
"              ....:,,,,,,,,,,,,,,,,,,,,,,,,,,,,,,,*....         ",
"              ....$,,,,,,,,,,,,,,,,,,,,,,,,,,,,,,,;....         ",
"               ...X>,,,,,,,,,,,,,,,,,,,,,,,,,,,,,,,X...         ",
"               ....*,,,,,,,,,,,,,,,,,,,,,,,,,,,,,,,#...         ",
"                ...o,,,,,,,,,,,,,,,,,,,,,,,,,,,,,,,=....        ",
"                ....;,,,,,,,,,,,,,,,,,,,,,,,,,,,,,,,X...        ",
"                ....$,,,,,,,,,,,,,,,,,,,,,,,,,,,,,,,&....       ",
"                 ...X,,,,,,,,,,,,,,,,,,,,,,,,,,,,,,,;....       ",
"           ..........-,,,,,,,,,,,,,,,,,,,,,,,,,,,,,,,o...       ",
"         ............$,,,,,,,,,,,,,,,,,,,,,,,,,,,,,,,$....      ",
"        .............$,,,,,,,,,,,,,,,,,,,,,,,,,,,,,,,=....      ",
"        ............O;,,,,,,,,,,,,,,,,,,,,,,,,,,,,,,,;....      ",
"       ....O=-,,,,,,,,,,,,,,,,,,,,,,,,,,,,,,,,,,,,,,,,....      ",
"       ...X>,,,,,,,,,,,,,,,,,,,,,,,,,,,,,,,,,,,,,,,,,,....      ",
"      ....*,,,,,,,,,,,,,,,,,,,,,,,,,,,,,,,,,,,,,,,,,,>....      ",
"      ....,,,,,,,,,,,,,,,,,,,,,,,,,,,,,,,,,,,,,,,,,,,-....      ",
"      ....,,,,,,,,,,,,,,,,,,,,,,,,,,,,,,,,,,,,,,,,,,,&....      ",
"      ....>,,,,,,,,,,,,,,,,,,,,,,,,,,,,,,,,,,,,,,,,,,O....      ",
"      ....*,,,,,,,,,,,,,,,,,,,,,,,,,,,,,,,,,,,,,,,,,>....       ",
"      ....o>,,,,,,,,,,,,,,,,,,,,,,,,,,,,,,,,,,,,,,,,*....       ",
"       ....O:,,,,,,,,,,,,,,,,,,,,,,,,,,,,,,,,,,,,,,,o...        ",
"       ......@%%%%%%%=;,,,,,,,,,,,,,,,,,,,,,,,,,,,,&....        ",
"        ...............X$=,,,,,,,,,,,,,,,,,,,,,,,,;....         ",
"         .................o*>,,,,,,,,,,,,,,,,,,,,>O....         ",
"           .................O:,,,,,,,,,,,,,,,,,,;X....          ",
"                    .........X#>,,,,,,,,,,,,,,,&X.....          ",
"                        ........#:,,,,,,,,,,,=O......           ",
"                          ........+&:,,,,:%#........            ",
"                            ......................              ",
"                              ...................               ",
"                                ...............                 ",
"                                  .........                     ",
"                                                                ",
"                                                                ",
"                                                                ",
"                                                                "
};
